<svg width="591" height="382" fill="none" xmlns="http://www.w3.org/2000/svg"><g clip-path="url(#clip0_1114_3780)"><path d="M469.044 245.375s8.417-125.559 56.641-201.357c3.242-5.096 10.823-4.61 13.353.873 16.926 36.67 56.552 149.86-69.994 200.484z" fill="#BDD0FB"/><path d="M479.764 235.576c-.247.339.219.727.51.427 10.67-11.111 50.338-63.566 52.904-155.304.008-.294-.43-.333-.463-.041-2.477 21.581-13.984 101.551-52.951 154.918zm-26.831-51.298s-12.358-94.29 12.152-157.615c1.648-4.257 7.337-5.02 10.024-1.334 17.971 24.663 64.098 102.655-22.176 158.949z" fill="#91B3FA"/><path d="M459.424 175.427c-.133.286.271.508.44.241 6.262-9.816 27.888-54.574 16.203-122.933-.038-.219-.368-.183-.349.04 1.361 16.355 4.677 77.323-16.294 122.652z" fill="#7D97F4"/><path d="M590.143 123.199c.532-.723-.277-1.672-1.07-1.245-12.651 6.779-57.45 34.368-75.618 93.391-16.621 54.003-19.447 94.617-19.888 109.767-.086 2.995 3.078 4.978 5.73 3.589 15.718-8.249 58.52-33.65 66.361-69.227 9.373-42.517-.931-101.673 24.485-136.275z" fill="#91B3FA"/><path d="M560.563 161.895s-36.51 33.669-63.391 162.227c.003 0 33.852-127.765 63.391-162.227z" fill="#7D97F4"/><path d="M133.9 236.167s-8.418-125.56-56.642-201.358c-3.242-5.095-10.822-4.61-13.352.874-16.923 36.67-56.55 149.859 69.994 200.484z" fill="#BDD0FB"/><path d="M123.182 226.368c.247.338-.219.726-.509.427-10.67-11.111-50.339-63.566-52.904-155.304-.009-.294.43-.333.462-.042C72.708 93.031 84.215 173 123.182 226.368zm43.062-31.797s12.358-94.29-12.152-157.615c-1.649-4.257-7.337-5.02-10.024-1.334-17.971 24.66-64.098 102.652 22.176 158.949z" fill="#91B3FA"/><path d="M159.752 185.717c.133.286-.271.508-.44.242-6.262-9.816-27.888-54.574-16.201-122.933.039-.22.369-.184.349.038-1.363 16.36-4.679 77.327 16.292 122.653z" fill="#7D97F4"/><path d="M12.803 113.991c-.532-.724.277-1.673 1.07-1.245 12.65 6.778 57.45 34.368 75.617 93.391 16.622 54.002 19.448 94.617 19.888 109.766.086 2.996-3.078 4.979-5.729 3.589-15.719-8.248-58.52-33.649-66.362-69.227-9.373-42.517.931-101.673-24.484-136.274z" fill="#91B3FA"/><path d="M42.383 152.686s36.51 33.669 63.388 162.227c0 0-33.853-127.765-63.388-162.227z" fill="#7D97F4"/><path d="M515.443 356.543c0 4.21-3.447 7.658-7.656 7.658H93.763c-4.211 0-7.655-3.445-7.655-7.658l-3.444-238.181c0-4.21 4.957-12.434 14.04-11.815l404.63-10.482a19.307 19.307 0 0119.797 19.754l-5.688 240.724z" fill="url(#paint0_linear_1114_3780)"/><path d="M507.884 349.198c0 3.989-3.258 7.25-7.242 7.25H103.747c-3.985 0-7.243-3.261-7.243-7.25l-3.25-216.221c.382-13.012 11.778-17.688 18.686-17.413l387.801-10.415a13.534 13.534 0 019.931 3.958 13.562 13.562 0 013.981 9.932l-5.769 230.159z" fill="url(#paint1_linear_1114_3780)"/><path d="M100.793 245.955a.54.54 0 01-.54-.533l-.258-17.534a.54.54 0 01.532-.55c.291.02.546.233.549.533l.257 17.535a.54.54 0 01-.532.549h-.008zm-.632-42.972a.54.54 0 01-.54-.533l-.986-67.16c.02-4.471 1.396-8.044 4.089-10.629 4.902-4.701 12.579-4.465 12.901-4.454l123.845-3.329a.538.538 0 01.554.527.538.538 0 01-.527.555l-123.875 3.328c-.346-.014-7.575-.235-12.152 4.152-2.475 2.372-3.738 5.684-3.757 9.841l.986 67.15a.54.54 0 01-.532.549c0 .003-.003.003-.006.003z" opacity=".31" fill="#fff"/><path d="M113.99 337.202c.415-17.87.26-176.123-.765-189.791-1.025-13.669 20.24-16.232 52.884-17.768 32.648-1.54 308.094-7.628 315.185-8.205 15.942-1.295 19.242 22.558 17.646 74.342a598027.99 598027.99 0 01-4.098 132.463c-.271 8.776-7.436 15.738-16.208 15.763-66.284.183-320.33.912-337.242 1.414-19.459.583-27.569-1.131-27.402-8.218z" fill="url(#paint2_linear_1114_3780)"/><path d="M546.951 376.358H62.991a2.089 2.089 0 01-2.08-2.083v-16.764c0-1.146.937-2.083 2.08-2.083h483.96c1.144 0 2.081.937 2.081 2.083v16.764a2.09 2.09 0 01-2.081 2.083z" fill="url(#paint3_linear_1114_3780)"/><path d="M160.64 276.143h-16.727v72.459h16.727v-72.459zm27.948 24.902h-16.727v47.554h16.727v-47.554zm27.948-61.544H199.81v109.101h16.726V239.501zm27.951 82.89H227.76v26.211h16.727v-26.211zm27.948-68.304h-16.727v94.515h16.727v-94.515zm27.948 16.365h-16.727v78.15h16.727v-78.15zm27.951 17.787h-16.727v60.363h16.727v-60.363zm27.948-70.794h-16.726v131.157h16.726V217.445zm27.949 13.874h-16.727v117.283h16.727V231.319zm27.95 20.988h-16.727v96.292h16.727v-96.292zm27.948 72.516h-16.727v23.779h16.727v-23.779zm27.948-46.189h-16.726v69.968h16.726v-69.968z" fill="#FF9141"/><path d="M242.804 170.967h-36.917c-4.58 0-8.813 2.447-11.102 6.418l-18.461 32.008a12.842 12.842 0 000 12.834l18.458 32.008a12.821 12.821 0 0011.103 6.418h36.919c4.58 0 8.814-2.447 11.103-6.418l18.458-32.008a12.842 12.842 0 000-12.834l-18.458-32.008a12.818 12.818 0 00-11.103-6.418z" fill="url(#paint4_linear_1114_3780)"/><path d="M205.887 254.506a6.698 6.698 0 01-5.788-3.345l-18.459-32.007a6.73 6.73 0 010-6.693l18.459-32.008a6.703 6.703 0 015.788-3.345h36.92a6.7 6.7 0 015.788 3.345l18.458 32.008a6.725 6.725 0 010 6.693l-18.458 32.007a6.702 6.702 0 01-5.788 3.345h-36.92z" fill="url(#paint5_linear_1114_3780)"/><path d="M242.804 75.105h-36.917c-4.58 0-8.813 2.446-11.102 6.418l-18.461 32.005a12.842 12.842 0 000 12.834l18.458 32.007a12.82 12.82 0 0011.103 6.418h36.919c4.58 0 8.814-2.446 11.103-6.418l18.458-32.007a12.842 12.842 0 000-12.834L253.907 81.52a12.82 12.82 0 00-11.103-6.415z" fill="url(#paint6_linear_1114_3780)"/><path d="M205.887 158.644a6.7 6.7 0 01-5.788-3.345l-18.459-32.008a6.73 6.73 0 010-6.693l18.459-32.007a6.701 6.701 0 015.788-3.345h36.92a6.699 6.699 0 015.788 3.345l18.458 32.007a6.725 6.725 0 010 6.693l-18.458 32.008a6.704 6.704 0 01-5.788 3.345h-36.92z" fill="url(#paint7_linear_1114_3780)"/><path d="M407.434 170.967h-36.919c-4.58 0-8.814 2.447-11.103 6.418l-18.458 32.008a12.842 12.842 0 000 12.834l18.458 32.008a12.821 12.821 0 0011.103 6.418h36.919c4.58 0 8.814-2.447 11.102-6.418l18.459-32.008a12.842 12.842 0 000-12.834l-18.459-32.008a12.815 12.815 0 00-11.102-6.418z" fill="#91B3FA"/><path d="M370.515 254.506a6.698 6.698 0 01-5.788-3.345l-18.458-32.007a6.71 6.71 0 010-6.693l18.458-32.008a6.703 6.703 0 015.788-3.345h36.92a6.7 6.7 0 015.788 3.345l18.458 32.008a6.715 6.715 0 010 6.693l-18.458 32.007a6.702 6.702 0 01-5.788 3.345h-36.92z" fill="#BDD0FB"/><path d="M407.434 75.105h-36.919c-4.58 0-8.814 2.446-11.103 6.418l-18.458 32.008a12.84 12.84 0 000 12.833l18.458 32.008a12.82 12.82 0 0011.103 6.418h36.919c4.58 0 8.814-2.446 11.102-6.418l18.459-32.008a12.84 12.84 0 000-12.833l-18.459-32.008a12.814 12.814 0 00-11.102-6.418z" fill="url(#paint8_linear_1114_3780)"/><path d="M370.515 158.644a6.7 6.7 0 01-5.788-3.345l-18.458-32.008a6.71 6.71 0 010-6.693l18.458-32.007a6.701 6.701 0 015.788-3.345h36.92a6.699 6.699 0 015.788 3.345l18.458 32.007a6.715 6.715 0 010 6.693l-18.458 32.008a6.704 6.704 0 01-5.788 3.345h-36.92z" fill="url(#paint9_linear_1114_3780)"/><path d="M325.934 122.015h-36.919c-4.58 0-8.814 2.447-11.103 6.419l-18.458 32.007a12.842 12.842 0 000 12.834l18.458 32.008a12.82 12.82 0 0011.103 6.418h36.919c4.58 0 8.814-2.446 11.102-6.418l18.459-32.008a12.842 12.842 0 000-12.834l-18.459-32.007a12.81 12.81 0 00-11.102-6.419z" fill="url(#paint10_linear_1114_3780)"/><path d="M289.017 205.555a6.7 6.7 0 01-5.788-3.345l-18.458-32.008a6.71 6.71 0 010-6.693l18.458-32.008a6.703 6.703 0 015.788-3.345h36.92a6.7 6.7 0 015.788 3.345l18.458 32.008a6.715 6.715 0 010 6.693l-18.458 32.008a6.704 6.704 0 01-5.788 3.345h-36.92z" fill="url(#paint11_linear_1114_3780)"/><path d="M325.934 24.522h-36.919c-4.58 0-8.814 2.446-11.103 6.418l-18.458 32.008a12.84 12.84 0 000 12.833l18.458 32.008a12.82 12.82 0 0011.103 6.419h36.919c4.58 0 8.814-2.447 11.102-6.419l18.459-32.008a12.84 12.84 0 000-12.833L337.036 30.94a12.81 12.81 0 00-11.102-6.418z" fill="url(#paint12_linear_1114_3780)"/><path d="M289.017 108.061a6.698 6.698 0 01-5.788-3.345l-18.458-32.008a6.71 6.71 0 010-6.692l18.458-32.008a6.702 6.702 0 015.788-3.345h36.92a6.7 6.7 0 015.788 3.345l18.458 32.008a6.715 6.715 0 010 6.692l-18.458 32.008a6.702 6.702 0 01-5.788 3.345h-36.92z" fill="url(#paint13_linear_1114_3780)"/><path d="M325.934 219.511h-36.919c-4.58 0-8.814 2.447-11.103 6.418l-18.458 32.008a12.842 12.842 0 000 12.834l18.458 32.008a12.821 12.821 0 0011.103 6.418h36.919c4.58 0 8.814-2.447 11.102-6.418l18.459-32.008a12.842 12.842 0 000-12.834l-18.459-32.008a12.811 12.811 0 00-11.102-6.418z" fill="url(#paint14_linear_1114_3780)"/><path d="M289.017 303.05a6.698 6.698 0 01-5.788-3.345l-18.458-32.007a6.71 6.71 0 010-6.693l18.458-32.008a6.703 6.703 0 015.788-3.345h36.92a6.7 6.7 0 015.788 3.345l18.458 32.008a6.715 6.715 0 010 6.693l-18.458 32.007a6.702 6.702 0 01-5.788 3.345h-36.92z" fill="url(#paint15_linear_1114_3780)"/><path d="M397.829 260.533s-12.095 15.499 1.704 31.265l5.186-.483s-9.985-16.051-5.538-28.843l7.348.538 4.061-2.651-12.761.174z" fill="url(#paint16_linear_1114_3780)"/><path d="M404.45 336.42s9.797 21.377 14.94 30.233c0 0 1.019 5.572 0 7.322l-.87.389 4.062-.122s.36-7.495.08-7.914c-.283-.419-.845-.391-.845-.391s-1.74-13.81-6.785-16.758l-4.888-16.85-5.694 4.091z" fill="url(#paint17_linear_1114_3780)"/><path d="M416.785 375.412c-.005.097 3.173.052 4.896.022a1.372 1.372 0 001.316-1.085l1.302-6.853a1.229 1.229 0 00-.936-1.431l-.729-.167s-1.039 1.426-.712 2.768c.327 1.343.618 4.818-.208 5.223-.825.405-3.2.477-3.2.477s-1.673.164-1.729 1.046z" fill="url(#paint18_linear_1114_3780)"/><path d="M395.165 375.537c-.321.183-.188.674.18.671 2.887-.028 9.36-.119 9.936-.361.742-.308-.272-2.979-1.336-3.883l-5.887 1.922-2.893 1.651z" fill="url(#paint19_linear_1114_3780)"/><path d="M393.337 335.055s6.331 30.663 8.124 36.646l-4.237 2.662s2.123-.36 3.699-.477c1.574-.113 3.023-1.922 3.023-1.922l-.507-.81s-1.588-30.496-1.203-33.957l-8.899-2.142z" fill="url(#paint20_linear_1114_3780)"/><path d="M377.619 263.535s-.873 15.951 13.634 24.102l-3.494 7.975s-13.116-7.941-12.648-29.598a2.575 2.575 0 00-.615-1.742l-2.79-3.242a5.026 5.026 0 01-1.067-4.493l.369-1.47a.762.762 0 011.122-.475l.291.169a5.136 5.136 0 012.103 2.341l1.371 3.068c.513 1.146.973.383 2.22.277h1.623l-2.119 3.088z" fill="url(#paint21_linear_1114_3780)"/><path d="M390.749 286.442c2.427.674 10.648 2.84 15.782 2.751l-3.15 17.804.252 2.904-10.277-.047s-2.892-6.726-5.175-10.077c-.66-.968-.169-2.124.205-3.234l-.513-.341a1.398 1.398 0 01-.554-1.6l2.502-7.664a.759.759 0 01.928-.496z" fill="url(#paint22_linear_1114_3780)"/><path d="M392.531 308.334l.202 1.759s-2.903 8.706 1.452 29.037c0 0 9.434 2.677 17.187-3.725 0 0-2.186-19.191-2.785-20.084-2.975-4.452-4.957-5.42-4.957-5.42l-.088-1.922c0-.003-8.293 1.498-11.011.355z" fill="url(#paint23_linear_1114_3780)"/><path d="M396.553 287.876c-.036-.047 2.145-6.593 2.145-6.593l3.125.283 1.222 7.425c-.003 0-4.899.99-6.492-1.115z" fill="url(#paint24_linear_1114_3780)"/><path d="M401.075 270.962c-.208.131-6.677 2.807-5.286 9.528.083.396.346.735.717.898.951.425 2.993 1.149 5.436.902 3.389-.344 5.608-6.263 5.514-7.985-.094-1.723-4.317-4.63-6.381-3.343z" fill="url(#paint25_linear_1114_3780)"/><path d="M403.043 268.35c-.169.022-3.738 1.267-1.967 3.855 1.77 2.588 2.432 4.11 1.596 5.248-.762 1.034-2.452.446-2.306 2.598.031.43-.158.849-.515 1.093-1.59 1.079-5.475 4.399-1.626 9.131.313.386.376.915.135 1.348-1.127 2.022-3.493 7.949 5.076 11.239 8.468 3.248 11.524-2.291 12.38-4.507.185-.48.656-.771 1.169-.749.931.044 2.25-.111 2.189-1.356-.036-.758-.507-1.434-1.064-1.978-.551-.538-.443-1.478.227-1.858.504-.289.953-.735 1.142-1.437.512-1.903-.513-7.594-5.96-8.56-.454-.08-.931-.507-.998-.965l-.002-.019c-.072-.441.077-.896.437-1.16.87-.638 1.987-1.925 1.081-3.988-.803-1.831-2.347-2.446-3.491-2.643a1.19 1.19 0 01-.973-1.42c.38-1.82.045-4.735-6.53-3.872z" fill="url(#paint26_linear_1114_3780)"/><path d="M375.784 216.763h-4.305v-17.178c0-6.745 5.045-12.448 11.733-13.26l8.803-1.071c3.79-.46 7.6.727 10.459 3.262a13.38 13.38 0 014.497 9.999v14.994h-4.305v-14.994a9.046 9.046 0 00-10.13-8.984l-8.803 1.071a9.053 9.053 0 00-7.949 8.983v17.178z" fill="url(#paint27_linear_1114_3780)"/><path d="M370.207 212.907l37.743-2.094a2.677 2.677 0 012.823 2.674v29.933a2.676 2.676 0 01-2.674 2.677h-36.836a2.676 2.676 0 01-2.674-2.591l-.906-27.839a2.676 2.676 0 012.524-2.76z" fill="url(#paint28_linear_1114_3780)"/><path d="M395.379 237.52l-2.283-6.573a2.203 2.203 0 01.499-2.269 6.197 6.197 0 001.784-4.662c-.146-3.207-2.762-5.808-5.968-5.931a6.224 6.224 0 00-6.464 6.222 6.21 6.21 0 002.303 4.834 2.222 2.222 0 01.72 2.452l-2.059 5.927a2.219 2.219 0 002.092 2.949h7.282a2.219 2.219 0 002.094-2.949z" fill="#FFD02B"/><path d="M194.719 376.358c-.784 0-1.477-.505-1.61-1.221l-25.435-134.782c-.149-.796.449-1.55 1.341-1.686.892-.133 1.735.402 1.884 1.198l25.435 134.782c.15.796-.448 1.55-1.341 1.686a1.798 1.798 0 01-.274.023zm-85.809 0c-.108 0-.216-.009-.324-.031-.887-.158-1.458-.932-1.28-1.722l29.984-133.029c.178-.791 1.039-1.31 1.926-1.146.887.158 1.457.932 1.28 1.723l-29.985 133.029c-.155.696-.836 1.176-1.601 1.176z" fill="#7D97F4"/><path d="M175.31 273.664h-43.464c-.904 0-1.635-.655-1.635-1.462 0-.807.731-1.462 1.635-1.462h43.464c.903 0 1.634.655 1.634 1.462 0 .807-.731 1.462-1.634 1.462z" fill="#7D97F4"/><path d="M174.523 273.664h-41.888c-.87 0-1.576-.655-1.576-1.462 0-.807.706-1.462 1.576-1.462h41.888c.87 0 1.576.655 1.576 1.462 0 .807-.706 1.462-1.576 1.462zm.787 24.369h-43.464c-.904 0-1.635-.655-1.635-1.462 0-.807.731-1.462 1.635-1.462h43.464c.903 0 1.634.655 1.634 1.462.003.807-.731 1.462-1.634 1.462z" fill="#7D97F4"/><path d="M179.258 298.033h-52.696c-.903 0-1.634-.655-1.634-1.462 0-.807.731-1.462 1.634-1.462h52.696c.904 0 1.635.655 1.635 1.462 0 .807-.731 1.462-1.635 1.462zm-7.575-40.623h-35.382c-.904 0-1.635-.654-1.635-1.461 0-.808.731-1.462 1.635-1.462h35.382c.903 0 1.634.654 1.634 1.462 0 .807-.731 1.461-1.634 1.461zm3.627 64.995h-43.464c-.904 0-1.635-.655-1.635-1.462 0-.807.731-1.462 1.635-1.462h43.464c.903 0 1.634.655 1.634 1.462.003.807-.731 1.462-1.634 1.462z" fill="#7D97F4"/><path d="M184.293 322.405h-63.078c-.903 0-1.635-.655-1.635-1.462 0-.807.732-1.462 1.635-1.462h63.078c.903 0 1.634.655 1.634 1.462 0 .807-.734 1.462-1.634 1.462zm-8.983 24.369h-59.166c-.903 0-1.634-.655-1.634-1.462 0-.807.731-1.461 1.634-1.461h59.169c.903 0 1.635.654 1.635 1.461s-.735 1.462-1.638 1.462z" fill="#7D97F4"/><path d="M188.363 346.774h-72.219c-.903 0-1.634-.655-1.634-1.462 0-.807.731-1.461 1.634-1.461h72.219c.903 0 1.635.654 1.635 1.461s-.732 1.462-1.635 1.462z" fill="#7D97F4"/><path d="M142.477 248.171s-.934 1.476-1.169 5.606a.672.672 0 00.668.713h7.309a.433.433 0 00.41-.569c-.43-1.27-1.724-4.363-4.614-6.132l-2.604.382z" fill="url(#paint29_linear_1114_3780)"/><path d="M142.158 245.373l.413 3.47a.657.657 0 00.568.574c.399.047.981.077 1.546-.014.513-.086.884-.544.884-1.062v-3.351l-3.411.383z" fill="url(#paint30_linear_1114_3780)"/><path d="M160.565 247.789s-1.4 2.177-1.369 5.164a1.293 1.293 0 001.299 1.265h11.355c.532 0 .748-.685.313-.99-2.148-1.512-6.37-4.333-9.426-5.439h-2.172z" fill="url(#paint31_linear_1114_3780)"/><path d="M159.396 244.038l.881 4.286c.099.48.568.801 1.044.696.291-.064.632-.189.998-.419.346-.216.523-.632.451-1.034l-.911-5.193-2.463 1.664z" fill="url(#paint32_linear_1114_3780)"/><path d="M143.779 184.444s-3.067 2.707-3.643 5.964c-.576 3.256 1.635 56.177 1.635 56.177s3.067.51 4.646-.449c0 0 1.876-34.346 3.3-42.282 0 0 7.473 35.578 9.545 42.007 0 0 2.954.361 3.907-.203 0 0-1.959-46.12-4.417-54.318l-14.973-6.896z" fill="url(#paint33_linear_1114_3780)"/><path d="M149.628 202.811a.41.41 0 01-.393-.305l-1.264-4.848-2.679-1.723a.405.405 0 11.438-.682l2.815 1.809a.42.42 0 01.175.238l1.302 5.001a.41.41 0 01-.394.51z" fill="url(#paint34_linear_1114_3780)"/><path d="M169.037 155.51c-11.997 4.887-13.798 8.8-13.798 8.8l9.961 5.936s11.199-5.966 16.139-16.334c-2.346-.865-4.314-2.138-5.702-3.204-1.651 1.931-3.801 3.662-6.6 4.802z" fill="url(#paint35_linear_1114_3780)"/><path d="M178.499 129.44c-.202-.36-.754-.208-.74.206l.119 3.883c.022.751.277 1.475.726 2.077l1.441 1.564a3.55 3.55 0 01.629 2.835c-.493 2.374-1.807 6.92-5.037 10.698 1.388 1.065 3.358 2.338 5.702 3.204 1.812-3.806 2.782-8.202 2.045-13.114.562-.544.69-1.401.31-2.086l-5.195-9.267z" fill="url(#paint36_linear_1114_3780)"/><path d="M178.289 159.548c-4.544-4.901-13.2-7.117-18.212-8.027a4.594 4.594 0 00-5.137 2.918c-2.255 6.069-8.39 21.859-9.578 24.572a214.26 214.26 0 01-2.641 5.761 1.63 1.63 0 00.762 2.174c4.217 2.036 11.803 4.335 14.879 5.234a1.055 1.055 0 001.349-1.015c0-.599.164-1.185.471-1.698l11.648-19.432c7.262 8.06 13.618 8.795 18.503 7.031a36.817 36.817 0 01-1.615-7.638c-7.215-1.237-10.429-9.88-10.429-9.88z" fill="url(#paint37_linear_1114_3780)"/><path d="M200.646 168.077l-1.303-1.739c-4.217 2.898-7.741 3.586-10.625 3.09a36.872 36.872 0 001.615 7.638c6.436-2.324 10.313-8.989 10.313-8.989z" fill="url(#paint38_linear_1114_3780)"/><path d="M199.725 168.107l7.337.286 6.755-3.778c-.969-.607-6.453.636-6.453.636s-5.732-.869-7.284-.871c-1.288-.003-1.105 1.852-1.006 2.482.02.128.036.205.036.205l.615 1.04z" fill="url(#paint39_linear_1114_3780)"/><path d="M166.97 142.521l-3.87 9.455s4.447 3.082 8.026 2.788l1.932-8.504-6.088-3.739z" fill="url(#paint40_linear_1114_3780)"/><path d="M173.509 136.072c.088.125 2.801 9.932 2.801 9.932l-5.628 1.432-3.951-8.912c.003 0 5.292-4.554 6.778-2.452z" fill="url(#paint41_linear_1114_3780)"/><path d="M168.851 139.877l1.712 4.854c.022.061.053.12.089.175.233.33 1.114 1.409 2.161.438.95-.882 1.832-1.672 2.643-1.814a.72.72 0 01.818.516c.246.891.764 2.91.947 4.732a.72.72 0 01-.582.774c-1.1.208-3.43.585-5.375.446a.723.723 0 01-.607-.418c-.534-1.174-2.177-4.732-2.79-5.65-.573-.866-1.978-.841-2.568-.788a.705.705 0 01-.529-.172c-.516-.452-1.496-1.609-.117-2.99a.723.723 0 00-.016-1.037c-.593-.558-1.228-1.548-.239-2.777 1.003-1.248 2.331-1.048 3.142-.751a.72.72 0 00.865-.319c.102-.172.28-.3.587-.275.413.036.762-.311.754-.727-.014-.798.271-1.808 1.657-2.241 2.457-.765 3.99 1.612 4.142 3.384.152 1.775-2.56 2.452-4.156 2.333-1.214-.092-2.114 1.112-2.474 1.694a.723.723 0 00-.064.613z" fill="url(#paint42_linear_1114_3780)"/><path d="M168.51 145.691s-.396-3.079-1.676-3.231c-1.281-.15-2.525.901-1.253 2.629 1.582 2.152 2.929.602 2.929.602z" fill="url(#paint43_linear_1114_3780)"/><path d="M581.524 324.904c1.05 1.556 5.228 36.817 5.882 49.839a1.539 1.539 0 01-1.54 1.615 1.546 1.546 0 01-1.524-1.307l-7.642-49.026 4.824-1.121zm-33.592 0c-1.05 1.556-5.228 36.817-5.882 49.839a1.54 1.54 0 001.54 1.615c.76 0 1.405-.555 1.524-1.307l7.642-49.026-4.824-1.121z" fill="#91B3FA"/><path d="M587.844 322.153l.002.385c.025 2.765-2.355 5.034-5.336 5.087l-35.324.602c-2.937.05-5.386-2.075-5.53-4.799l-.02-.352c-.149-2.84 2.261-5.234 5.326-5.286l35.34-.636c3.026-.058 5.517 2.192 5.542 4.999z" fill="#91B3FA"/><path d="M519.125 373.462c6.278 0 9.057-.538 10.301-1.032a2.384 2.384 0 01-2.322 1.847h-22.215c-.748 0-1.219-.715-1.042-1.364 2.532.202 7.91.549 15.278.549z" fill="#7D97F4"/><path d="M503.847 372.913a.992.992 0 01.183-.377c1.692-2.164 5.092-5.559 9.716-5.495 6.775.094 9.135.832 14.4.042l1.241 4.121c.128.419.13.841.039 1.229-1.241.491-4.02 1.032-10.302 1.032-7.367-.003-12.745-.35-15.277-.552z" fill="url(#paint44_linear_1114_3780)"/><path d="M526.619 362.639l1.524 5.19s-3.377 1.539-6.347.302l-.585-4.496 5.408-.996z" fill="url(#paint45_linear_1114_3780)"/><path d="M480.576 370.192c4.895 3.938 7.397 5.261 8.672 5.658a2.376 2.376 0 01-2.959-.022l-17.317-13.929a1.079 1.079 0 01.039-1.712c1.845 1.748 5.824 5.387 11.565 10.005z" fill="#7D97F4"/><path d="M469.011 360.187c.111-.077.23-.147.377-.18 2.665-.616 7.431-1.121 10.994 1.828 5.22 4.321 6.605 6.374 11.199 9.061l-1.599 3.975a2.315 2.315 0 01-.737.976c-1.274-.396-3.776-1.719-8.672-5.658-5.738-4.615-9.717-8.254-11.562-10.002z" fill="url(#paint46_linear_1114_3780)"/><path d="M559.227 303.508s-37.595 3.073-45.306 6.707c-7.714 3.633 6.295 54.574 6.295 54.574s2.1 1.012 6.771-.444c0 0-4.79-37.591-1.224-45.743l40.707-6.665-7.243-8.429z" fill="url(#paint47_linear_1114_3780)"/><path d="M495.318 363.743c-.349.319-3.735 7.156-3.735 7.156s-3.771-.815-4.538-3.203l3.391-6.172 4.882 2.219z" fill="url(#paint48_linear_1114_3780)"/><path d="M581.873 303.084s1.224 2.951 1.175 6.873c-.07 5.422-4.425 9.824-9.836 10.096l-44.445 2.027a2.132 2.132 0 00-1.968 1.604c-1.044 4.043-6.148 16.461-31.103 41.241a2.011 2.011 0 01-2.489.272l-3.552-2.247a.817.817 0 01-.268-1.107l25.878-44.237a10.023 10.023 0 016.085-4.518l37.881-9.694 22.642-.31z" fill="url(#paint49_linear_1114_3780)"/><path d="M538.073 234.095s4.76 8.426 9.615 12.509l-10.033 5.603s-2.261-8.92-7.426-11.533l7.844-6.579z" fill="url(#paint50_linear_1114_3780)"/><path d="M582.678 303.508s-11.997 2.926-23.451 0c0 0-16.026-21.565-22.224-27.434 0 0-9.888 15.621-31.902 17.835l-1.227-2.746s17.525-8.085 22.919-20.511c5.395-12.426 7.562-17.724 12.468-20.966 3.057-2.019 4.888-3.398 5.833-4.152a1.567 1.567 0 011.798-.114c5.209 3.178 29.719 19.981 35.786 58.088z" fill="url(#paint51_linear_1114_3780)"/><path d="M543.585 264.478s-2.134 5.566-5.93 10.523l5.93-10.523z" fill="#91B3FA"/><path d="M506.426 289.729l-2.477-.66-7.523-1.745a3.475 3.475 0 00-2.643.446l-6.467 4.075 17.863-.031 1.247-2.085z" fill="url(#paint52_linear_1114_3780)"/><path d="M530.515 221.458s-4.627 7.7-5.43 11.955c-.804 4.254-2.092 6.914 2.745 8.431 4.838 1.518 9.335-.402 12.158-4.374 0 0 4.408-6.113 3.968-8.911-.441-2.802-13.441-7.101-13.441-7.101z" fill="url(#paint53_linear_1114_3780)"/><path d="M538.699 234.175l-.626-.083s3.275-4.956 1.133-6.185c-2.144-1.229-10.88-4.246-12.396-7.691-1.463-3.32.726-7.073 3.364-7.855.166-.05.343.05.404.213l.156.419a.34.34 0 00.628.02c.117-.267.497-.278.616-.014.468 1.032 1.867 2.793 6.07 4.157 5.963 1.934 9.676 4.943 9.218 9.184a.34.34 0 00.485.344c.488-.216 1.228-.25 2.084.69 1.49 1.634.324 5.207-3.752 7.736-.194.119-.227.394-.055.541.609.521 1.468 1.686-1.289 2.727-2.82 1.062-4.358.701-4.926.474a.339.339 0 01-.208-.383l.724-3.717a.34.34 0 00-.289-.402l-1.341-.175z" fill="url(#paint54_linear_1114_3780)"/><path d="M538.442 234.941s2.042-5.04 4.187-3.267c2.144 1.772-1.981 5.686-3.887 5.633l-.3-2.366z" fill="url(#paint55_linear_1114_3780)"/><path d="M513.328 295.354a1.345 1.345 0 01-.089.003l-38.158-.039a1.709 1.709 0 01-1.707-1.709c0-.943.77-1.722 1.71-1.706l38.158.039a1.708 1.708 0 01.086 3.412z" fill="url(#paint56_linear_1114_3780)"/><path d="M460.302 257.943c.014.025.028.053.039.077l16.056 34.654a1.708 1.708 0 01-.828 2.269c-.854.397-1.884.028-2.267-.832l-16.056-34.654a1.708 1.708 0 01.829-2.269 1.71 1.71 0 012.227.755z" fill="url(#paint57_linear_1114_3780)"/><path d="M496.336 297.27c.166.691 16.089 60.471 20.126 75.626.465 1.747-.834 3.461-2.618 3.461a2.722 2.722 0 01-2.633-2.083l-17.674-71.737 2.799-5.267zm-8.717 0c-.166.691-16.089 60.471-20.126 75.626-.466 1.747.834 3.461 2.618 3.461 1.244 0 2.33-.859 2.632-2.083l17.675-71.737-2.799-5.267z" fill="#BDD0FB"/><path d="M486.954 295.315h9.916v7.971c0 1.146-.917 2.075-2.047 2.075h-1.361v17.906c0 .869-.692 1.57-1.548 1.57a1.558 1.558 0 01-1.549-1.57v-17.906h-.69c-1.502 0-2.718-1.232-2.718-2.754v-7.292h-.003z" fill="#BDD0FB"/><path d="M521.252 293.401h-55.369c-.774 0-1.45.53-1.644 1.29l-.773 3.034c-.277 1.093.541 2.155 1.655 2.15l56.816-.331c1.1-.005 1.903-1.056 1.634-2.138l-.673-2.704a1.698 1.698 0 00-1.646-1.301zM326.624 69.455l-1.313-5.112a.357.357 0 00-.321-.27l-4.378-.351a19.118 19.118 0 00-3.729-4.962l.881-4.31a.365.365 0 00-.169-.383l-4.539-2.685a.363.363 0 00-.418.036l-3.347 2.851a19.128 19.128 0 00-6.143-.874l-2.421-3.67a.361.361 0 00-.391-.149l-5.106 1.315a.357.357 0 00-.269.322l-.352 4.382a19.105 19.105 0 00-4.957 3.733l-4.306-.882a.364.364 0 00-.382.17l-2.682 4.542a.365.365 0 00.036.42l2.848 3.35a19.194 19.194 0 00-.872 6.149l-3.666 2.424a.364.364 0 00-.15.391l1.314 5.112c.038.15.166.258.321.27l4.378.351a19.179 19.179 0 003.729 4.965l-.881 4.31c-.03.15.039.305.169.383l4.539 2.685a.363.363 0 00.418-.036l3.347-2.851c1.959.613 4.028.92 6.143.873l2.421 3.67a.361.361 0 00.391.15l5.106-1.315a.357.357 0 00.269-.322l.352-4.382a19.148 19.148 0 004.959-3.733l4.306.882c.15.03.305-.04.382-.17l2.682-4.543a.363.363 0 00-.036-.419l-2.848-3.35a19.17 19.17 0 00.873-6.15l3.666-2.424a.369.369 0 00.146-.393zm-18.328.627a5.424 5.424 0 01-2.161 7.344 5.412 5.412 0 01-7.337-2.16 5.42 5.42 0 012.161-7.342 5.405 5.405 0 017.337 2.157zm-1.449 15.729a13.39 13.39 0 01-3.347.427c-5.99 0-11.468-4.041-13.025-10.11a13.386 13.386 0 011.446-10.201 13.36 13.36 0 018.944-6.355l.011-.003h.006a13.532 13.532 0 011.801-.235l.302-.017.058 1.45c-.848.034-1.698.159-2.527.372a11.909 11.909 0 00-7.34 5.523 11.962 11.962 0 00-1.291 9.103c1.649 6.412 8.199 10.29 14.608 8.64 5.408-1.393 9.01-6.285 9.01-11.636 0-.987-.122-1.989-.38-2.987a12.011 12.011 0 00-3.181-5.547l1.02-1.035a13.438 13.438 0 013.566 6.221c.288 1.12.424 2.244.427 3.351-.006 5.994-4.043 11.477-10.108 13.039z" fill="#BDD0FB"/><path d="M300.073 74.566a3.959 3.959 0 005.367 1.581 3.958 3.958 0 00-3.788-6.954 3.967 3.967 0 00-1.579 5.373zm34.337-23.123l-.435-1.69a.117.117 0 00-.105-.088l-1.446-.117a6.339 6.339 0 00-1.233-1.639l.291-1.425a.119.119 0 00-.056-.128l-1.499-.888a.12.12 0 00-.138.011l-1.106.944a6.287 6.287 0 00-2.028-.289l-.801-1.212a.12.12 0 00-.13-.05l-1.687.435a.118.118 0 00-.089.106l-.116 1.448a6.344 6.344 0 00-1.638 1.234l-1.424-.291a.118.118 0 00-.127.055l-.887 1.5a.122.122 0 00.011.14l.942 1.106a6.304 6.304 0 00-.288 2.03l-1.211.802a.122.122 0 00-.05.13l.435 1.69c.014.05.056.086.106.088l1.446.117c.324.618.743 1.17 1.233 1.639l-.291 1.426a.12.12 0 00.055.127l1.499.888c.045.025.1.022.139-.011l1.105-.943c.649.202 1.33.305 2.029.288l.8 1.212a.12.12 0 00.131.05l1.687-.435a.118.118 0 00.089-.106l.116-1.448a6.32 6.32 0 001.637-1.234l1.425.291a.12.12 0 00.127-.055l.887-1.5a.122.122 0 00-.011-.14l-.943-1.106a6.304 6.304 0 00.289-2.03l1.21-.802a.115.115 0 00.05-.13zm-6.054.208a1.79 1.79 0 01-1.565 2.646 1.787 1.787 0 01-.856-3.359 1.783 1.783 0 012.421.713zm-.479 5.198c-.369.094-.74.141-1.106.141a4.45 4.45 0 01-4.444-4.454c0-.785.211-1.56.621-2.255a4.402 4.402 0 012.953-2.097h.006c.197-.04.396-.067.596-.078.033-.003.066-.003.099-.005l.02.48c-.28.01-.563.052-.834.121a3.925 3.925 0 00-2.424 1.826 3.936 3.936 0 00-.424 3.006 3.966 3.966 0 004.826 2.854 3.975 3.975 0 002.851-4.831 3.985 3.985 0 00-1.05-1.834l.338-.341a4.422 4.422 0 011.178 2.055c.094.37.141.74.141 1.107a4.475 4.475 0 01-3.347 4.305z" fill="#BDD0FB"/><path d="M325.641 53.132a1.307 1.307 0 102.295-1.252 1.307 1.307 0 00-2.295 1.252z" fill="#BDD0FB"/><path d="M240.219 230.734c8.828-8.838 8.828-23.166 0-32.004-8.828-8.837-23.141-8.837-31.97 0-8.828 8.838-8.828 23.166 0 32.004 8.829 8.837 23.142 8.837 31.97 0z" fill="#91B3FA"/><path d="M224.238 233.149c-10.143 0-18.397-8.262-18.397-18.417 0-10.154 8.254-18.417 18.397-18.417a2.437 2.437 0 012.436 2.438 2.436 2.436 0 01-2.436 2.438c-7.458 0-13.526 6.075-13.526 13.541 0 7.467 6.068 13.541 13.526 13.541 7.459 0 13.527-6.074 13.527-13.541a2.437 2.437 0 114.871 0c-.003 10.155-8.254 18.417-18.398 18.417zm114.447 26.769c1.396-11.145-6.337-21.294-17.27-22.664-10.933-1.373-20.927 6.552-22.321 17.696-.728 5.825 1.037 11.372 4.447 15.541l-20.353 15.674a2.837 2.837 0 00-.288 4.152l.185.197a2.63 2.63 0 003.735.099l18.489-18.228a19.616 19.616 0 0011.052 5.226c10.934 1.375 20.928-6.549 22.324-17.693zm-21.647 12.298c-8.008-1.004-13.671-8.438-12.649-16.603 1.023-8.163 8.343-13.968 16.35-12.964 8.008 1.004 13.671 8.437 12.648 16.6-1.019 8.168-8.342 13.971-16.349 12.967z" fill="#BDD0FB"/><path d="M337.862 153.512l-12.052 14.706a.508.508 0 00.39.83h2.317l-9.027 17.313-6.013-11.794-.581-1.409a4.622 4.622 0 00-1.621-2.047c-2.763-1.911-5.564.616-5.564.616-2.261 2.036-9.742 13.238-12.601 17.571-.837-1.218-1.726-2.71-2.71-4.474-3.602-6.463-5.411-7.081-5.411-7.081-3.807.383-5.774 2.84-5.774 2.84 1.723.605 7.459 8.363 10.265 12.265a5.305 5.305 0 004.312 2.211h1.551c1.485 0 2.859-.78 3.624-2.05l.233-.386 9.75-14.667 6.888 15.319a2.93 2.93 0 002.671 1.728h4.117c.546 0 1.05-.297 1.314-.774l.019-.036c.047-.072.089-.149.127-.227l11.222-24.328 1.615.186a1.435 1.435 0 001.596-1.342l.848-14.382c.05-.821-.981-1.226-1.505-.588z" fill="#FFD02B"/><path opacity=".58" d="M292.763 183.507c.149.266.293.524.435.771l.51-.76v-34.651a.812.812 0 10-1.624 0v33.455c.222.377.446.769.679 1.185zm18.799-15.308v-19.332a.812.812 0 10-1.624 0v18.885c.56.078 1.103.225 1.624.447zm-8.927 2.879v-22.211a.811.811 0 10-1.623 0v24.258a53.231 53.231 0 011.623-2.047zm16.883 9.378l.975-1.87v-29.719a.812.812 0 10-1.624 0v30.318l.649 1.271zm9.902-20.911v-10.678a.812.812 0 10-1.624 0v12.659l1.624-1.981zm-44.7 15.508l.061-.006v-26.18a.812.812 0 10-1.624 0v26.446a12.393 12.393 0 011.563-.26z" fill="#BDD0FB"/><path d="M224.38 140.682c12.811 0 23.196-10.397 23.196-23.221 0-12.825-10.385-23.221-23.196-23.221-12.811 0-23.196 10.396-23.196 23.221 0 12.824 10.385 23.221 23.196 23.221z" fill="url(#paint58_linear_1114_3780)"/><path d="M224.38 139.908c12.384 0 22.424-10.05 22.424-22.447 0-12.397-10.04-22.447-22.424-22.447s-22.423 10.05-22.423 22.447c0 12.397 10.039 22.447 22.423 22.447z" fill="url(#paint59_linear_1114_3780)"/><path opacity=".68" d="M205.888 108.677a.542.542 0 01-.482-.785c3.638-7.214 10.909-11.694 18.974-11.694 1.289 0 2.577.117 3.832.344a.541.541 0 01-.194 1.065 20.422 20.422 0 00-3.638-.327c-7.655 0-14.554 4.252-18.007 11.1a.542.542 0 01-.485.297z" fill="#fff"/><path opacity=".68" d="M227.465 136.773c10.384-1.43 17.644-11.017 16.216-21.412-1.429-10.396-11.005-17.663-21.39-16.233-10.384 1.43-17.645 11.017-16.216 21.412 1.429 10.395 11.005 17.663 21.39 16.233z" fill="#fff"/><path d="M223.006 132.072v-2.066c-2.153-.086-4.281-.593-5.794-1.256a1.195 1.195 0 01-.659-1.412l.523-1.925a1.203 1.203 0 011.635-.788c1.499.63 3.353 1.129 5.35 1.129 2.073 0 3.619-.704 3.619-2.147 0-1.301-1.194-2.074-4.076-2.848-4.111-1.126-7.062-2.921-7.062-6.543 0-3.273 2.388-5.769 6.536-6.438v-2.066c0-.666.537-1.204 1.202-1.204h1.214c.665 0 1.202.538 1.202 1.204v1.855c1.993.081 3.442.422 4.591.827a1.2 1.2 0 01.749 1.448l-.483 1.78a1.197 1.197 0 01-1.584.81 12.501 12.501 0 00-4.506-.818c-2.46 0-3.161 1.021-3.161 1.936 0 1.126 1.477 1.9 4.674 2.885 4.569 1.373 6.467 3.27 6.467 6.684 0 3.132-2.319 5.944-6.816 6.649v2.313c0 .665-.537 1.204-1.202 1.204h-1.214a1.218 1.218 0 01-1.205-1.213z" fill="#FF7222"/><path d="M399.899 107.118c0 6.035-4.888 12.553-10.917 12.553s-10.917-6.515-10.917-12.553c0-6.035 4.888-10.318 10.917-10.318s10.917 4.283 10.917 10.318zm-24.466 35.791h26.652a6.452 6.452 0 006.145-4.49l1.435-4.488c1.05-3.287-.656-6.843-3.893-8.027-10.847-3.969-22.06-3.462-33.55.366-3.22 1.073-5.004 4.518-4.117 7.797l1.105 4.074a6.445 6.445 0 006.223 4.768zm-275.32 194.695s41.353-19.299 35.285-48.009c-4.874-23.073-10.662 5.764-23.18 27.867-.983 1.734-3.61.386-2.776-1.426 8.199-17.787 18.968-45.471 10.828-53.384-12.288-11.946-9.786-3.281-14.671 19.959-4.885 23.241-11.803 25.865-10.709 10.047 1.095-15.821 16.029-36.895 10.582-44.573-5.447-7.677-18.689-15.058-24.108-19.127-5.42-4.069-23.939 23.39-18.475 34.063 5.464 10.67 21.257 22.861 21.509 33.592.252 10.731-12.305-4.624-18.461-13.597-6.157-8.975-11.424-13.407-13.466.072-2.042 13.483 11.551 25.16 22.853 30.153 11.299 4.992 16.452 11.563 10.717 9.558-5.736-2.006-22.864-9.628-26.937-15.402-4.07-5.77-6.639 25.639 41.009 30.207z" fill="#BDD0FB"/><path d="M101.16 335.316a.4.4 0 00.05-.413c-14.2-31.978-17.12-79.129-17.148-79.601a.403.403 0 10-.803.047c.027.475 2.956 47.771 17.214 79.884a.405.405 0 00.687.083z" fill="#91B3FA"/><path d="M115.253 361.696s18.331-52.979-12.133-72.156c-24.485-15.41-4.032 14.334 4.738 44.264.687 2.35-2.743 3.515-3.627 1.232-8.661-22.431-23.84-55.584-37.762-55.159-21.019.64-11.25 5.833 5.045 29.999 16.295 24.167 12.696 32.513-.302 18.034C58.215 313.429 52.413 282.245 41 280.492c-11.412-1.753-29.228 3.628-37.437 4.937-8.213 1.307.15 41.108 14.213 45.405 14.064 4.293 38.291.768 47.959 9.713 9.664 8.945-14.585 6.909-27.746 4.676-13.164-2.232-21.567-1.372-11.44 11.947 10.13 13.319 32.026 11.299 46.076 5.591 14.05-5.708 24.238-4.64 17.575-1.292-6.664 3.347-28.012 11.954-36.576 10.617-8.567-1.342 16.898 27.759 61.629-10.39z" fill="#91B3FA"/><path d="M114.131 358.817a.493.493 0 00-.322-.397c-40.291-14.786-84.312-52.491-84.75-52.871a.496.496 0 00-.646.752c.44.38 44.595 38.201 85.058 53.051a.496.496 0 00.66-.535z" fill="#7D97F4"/><path d="M506.811 256.653l-1.66.075a.55.55 0 01-.05-1.098h.045l1.585-.056h.038a.541.541 0 01.042 1.079z" fill="url(#paint60_linear_1114_3780)"/><path d="M501.289 256.448l-1.632-.311a.576.576 0 01.214-1.129h.005l.039.009 1.552.31.039.009a.566.566 0 01-.217 1.112z" fill="url(#paint61_linear_1114_3780)"/><path d="M495.956 255l-1.524-.652a.6.6 0 01.471-1.104l.005.003.033.014 1.452.635.034.014c.299.13.435.48.304.779a.59.59 0 01-.775.311z" fill="url(#paint62_linear_1114_3780)"/><path d="M491.04 252.49l-1.372-.929a.629.629 0 01-.169-.868.628.628 0 01.868-.17l.005.003.028.02 1.308.904.027.019a.62.62 0 01.158.86.614.614 0 01-.853.161z" fill="url(#paint63_linear_1114_3780)"/><path d="M486.671 249.128l-1.195-1.145a.651.651 0 01.901-.941l.005.006.023.022 1.138 1.115.023.022c.254.25.257.658.011.91a.647.647 0 01-.906.011z" fill="url(#paint64_linear_1114_3780)"/><path d="M482.911 245.098l-1-1.317a.677.677 0 011.075-.821l.003.005.019.025.954 1.276.019.025a.67.67 0 01-1.07.807z" fill="url(#paint65_linear_1114_3780)"/><path d="M479.811 240.541l-.795-1.453a.704.704 0 01.277-.954.703.703 0 01.953.277l.003.005.014.028.75 1.404.014.027c.18.339.053.76-.285.941a.684.684 0 01-.931-.275z" fill="url(#paint66_linear_1114_3780)"/><path d="M477.416 235.571l-.568-1.559a.73.73 0 011.369-.499l.003.005.011.031.532 1.5.011.031a.723.723 0 01-1.358.491z" fill="url(#paint67_linear_1114_3780)"/><path d="M475.81 230.281l-.316-1.633a.753.753 0 111.477-.286v.008l.005.036.286 1.565.005.036a.741.741 0 11-1.457.274z" fill="url(#paint68_linear_1114_3780)"/><path d="M475.064 224.803l-.072-1.653a.778.778 0 111.554-.069v.039l.056 1.595v.03a.773.773 0 01-.746.799.774.774 0 01-.792-.741z" fill="url(#paint69_linear_1114_3780)"/><path d="M475.067 219.292l.133-1.647a.805.805 0 111.604.13v.008l-.002.028-.144 1.589-.003.028a.799.799 0 01-.865.724.798.798 0 01-.723-.86z" fill="url(#paint70_linear_1114_3780)"/><path d="M475.735 213.825l.321-1.62a.821.821 0 111.613.322v.006l-.006.025-.318 1.567-.006.025a.816.816 0 01-.964.638.817.817 0 01-.64-.963z" fill="url(#paint71_linear_1114_3780)"/><path d="M476.995 208.475l.48-1.575a.837.837 0 111.601.488v.005l-.008.023-.474 1.528-.008.022a.835.835 0 01-1.042.549.836.836 0 01-.549-1.04z" fill="url(#paint72_linear_1114_3780)"/><path d="M478.763 203.277l.618-1.525a.85.85 0 111.577.64l-.003.006-.008.019-.61 1.484-.008.02a.845.845 0 01-1.106.46.852.852 0 01-.46-1.104z" fill="url(#paint73_linear_1114_3780)"/><path d="M480.961 198.254l.731-1.473a.866.866 0 011.549.774l-.003.006-.008.016-.723 1.434-.008.017a.86.86 0 01-1.156.38.859.859 0 01-.382-1.154z" fill="url(#paint74_linear_1114_3780)"/><path d="M483.518 193.414l.831-1.417a.88.88 0 111.518.893l-.002.003-.009.014-.82 1.381-.008.014a.875.875 0 01-1.2.305.87.87 0 01-.31-1.193z" fill="url(#paint75_linear_1114_3780)"/><path d="M486.386 188.757l.914-1.361a.895.895 0 111.485.998l-.003.003-.008.014-.903 1.331-.008.014a.888.888 0 01-1.236.236.894.894 0 01-.241-1.235z" fill="url(#paint76_linear_1114_3780)"/><path d="M489.519 184.281l.986-1.31a.908.908 0 111.449 1.096l-.002.003-.009.011-.975 1.281-.008.011a.903.903 0 01-1.441-1.092z" fill="url(#paint77_linear_1114_3780)"/><path d="M492.863 179.976l1.033-1.265a.926.926 0 011.3-.13.929.929 0 01.13 1.301l-.003.002-.005.009-1.028 1.242-.006.009a.919.919 0 01-1.421-1.168z" fill="url(#paint78_linear_1114_3780)"/><path d="M496.357 175.804l1.07-1.231a.937.937 0 111.413 1.231l-.003.003-.006.006-1.066 1.215-.006.005a.931.931 0 01-1.402-1.229z" fill="url(#paint79_linear_1114_3780)"/><path d="M499.951 171.73l1.091-1.209a.947.947 0 011.344-.067.95.95 0 01.067 1.345l-.003.003-.003.003-1.092 1.195-.002.003a.946.946 0 01-1.402-1.273z" fill="url(#paint80_linear_1114_3780)"/><path d="M503.605 167.719l1.103-1.195a.967.967 0 111.422 1.312l-.006.005-1.106 1.19a.96.96 0 01-1.36.05.97.97 0 01-.053-1.362z" fill="url(#paint81_linear_1114_3780)"/><path d="M507.277 163.739l1.1-1.195a.981.981 0 011.446 1.325l-.006.006-1.108 1.193a.975.975 0 01-1.38.05.978.978 0 01-.052-1.379z" fill="url(#paint82_linear_1114_3780)"/><path d="M510.92 159.745l1.084-1.207.003-.002a.993.993 0 011.404-.075.998.998 0 01.075 1.406l-.003.003-1.094 1.206a.992.992 0 01-1.469-1.331z" fill="url(#paint83_linear_1114_3780)"/><path d="M514.502 155.712l1.056-1.223.005-.005a1.002 1.002 0 111.516 1.311l-1.069 1.235a1 1 0 11-1.51-1.312l.002-.006z" fill="url(#paint84_linear_1114_3780)"/><path d="M517.98 151.599l1.014-1.254.008-.008a1.007 1.007 0 111.566 1.267v.003l-1.031 1.271a1.007 1.007 0 01-1.413.147 1.008 1.008 0 01-.147-1.415l.003-.011z" fill="url(#paint85_linear_1114_3780)"/><path d="M521.299 147.378l.956-1.296.008-.014a1.012 1.012 0 011.626 1.201v.003l-.975 1.318a1.011 1.011 0 01-1.624-1.204l.009-.008z" fill="url(#paint86_linear_1114_3780)"/><path d="M524.403 143.006l.881-1.342.011-.014a1.016 1.016 0 111.698 1.118v.003l-.903 1.37a1.014 1.014 0 11-1.693-1.118l.006-.017z" fill="url(#paint87_linear_1114_3780)"/><path d="M527.245 138.474l.798-1.392.011-.017a1.02 1.02 0 111.773 1.015v.003l-.82 1.426a1.02 1.02 0 11-1.767-1.016l.005-.019z" fill="url(#paint88_linear_1114_3780)"/><path d="M529.788 133.773l.696-1.443.011-.019a1.026 1.026 0 011.845.893v.003l-.718 1.481a1.024 1.024 0 11-1.842-.896l.008-.019z" fill="url(#paint89_linear_1114_3780)"/><path d="M531.978 128.908l.579-1.49.008-.025a1.032 1.032 0 011.333-.588c.529.206.792.805.587 1.334v.003l-.598 1.54c-.208.529-.804.79-1.333.585a1.033 1.033 0 01-.585-1.334l.009-.025z" fill="url(#paint90_linear_1114_3780)"/><path d="M533.745 123.887l.438-1.533.008-.031a1.036 1.036 0 011.99.571v.003l-.457 1.59a1.034 1.034 0 11-1.987-.575l.008-.025z" fill="url(#paint91_linear_1114_3780)"/><path d="M535.026 118.734l.277-1.567.005-.033c.1-.566.64-.943 1.205-.844.566.1.942.641.843 1.207v.003l-.291 1.633a1.039 1.039 0 11-2.045-.366l.006-.033z" fill="url(#paint92_linear_1114_3780)"/><path d="M535.74 113.486l.094-1.583.003-.039a1.045 1.045 0 112.086.125v.002l-.102 1.659a1.047 1.047 0 01-1.106.979 1.046 1.046 0 01-.978-1.107l.003-.036z" fill="url(#paint93_linear_1114_3780)"/><path d="M535.823 108.205l-.105-1.581-.003-.041a1.05 1.05 0 112.095-.139v.003l.108 1.661a1.049 1.049 0 11-2.092.136l-.003-.039z" fill="url(#paint94_linear_1114_3780)"/><path d="M535.222 102.971l-.324-1.547-.008-.045a1.054 1.054 0 112.061-.432v.002l.338 1.634a1.052 1.052 0 11-2.061.427l-.006-.039z" fill="url(#paint95_linear_1114_3780)"/><path d="M533.892 97.876l-.532-1.49-.014-.038a1.06 1.06 0 111.995-.716v.003l.56 1.57a1.058 1.058 0 01-1.992.71l-.017-.039z" fill="url(#paint96_linear_1114_3780)"/><path d="M531.888 92.998l-.723-1.41-.019-.035a1.063 1.063 0 111.892-.974v.003l.757 1.484a1.063 1.063 0 11-1.893.968l-.014-.036z" fill="url(#paint97_linear_1114_3780)"/><path d="M529.278 88.41l-.892-1.312-.022-.03a1.07 1.07 0 011.768-1.204v.002l.931 1.376a1.068 1.068 0 01-1.768 1.198l-.017-.03z" fill="url(#paint98_linear_1114_3780)"/><path d="M526.128 84.164l-1.039-1.201-.025-.028a1.073 1.073 0 111.621-1.406v.002l1.086 1.257a1.07 1.07 0 01-.111 1.511 1.067 1.067 0 01-1.51-.11l-.022-.025z" fill="url(#paint99_linear_1114_3780)"/><path d="M522.51 80.305l-1.167-1.073-.025-.025a1.079 1.079 0 011.46-1.59h.003l1.217 1.127a1.077 1.077 0 11-1.461 1.584l-.027-.023z" fill="url(#paint100_linear_1114_3780)"/><path d="M518.484 76.874l-1.28-.943-.028-.022a1.083 1.083 0 011.283-1.745l1.336.988a1.082 1.082 0 01-1.286 1.742l-.025-.02z" fill="url(#paint101_linear_1114_3780)"/><path d="M514.109 73.893l-1.374-.802-.031-.017a1.071 1.071 0 011.075-1.852l1.441.829a1.073 1.073 0 11-1.072 1.861l-.006-.003-.033-.016z" fill="url(#paint102_linear_1114_3780)"/><path d="M509.435 71.407l-1.455-.643-.033-.014a1.057 1.057 0 01-.54-1.395c.235-.535.856-.78 1.391-.544l1.523.666c.538.236.785.86.549 1.398a1.059 1.059 0 01-1.396.55l-.006-.004-.033-.014z" fill="url(#paint103_linear_1114_3780)"/><path d="M504.512 69.463l-1.516-.469-.036-.01a1.047 1.047 0 01.612-2.003l1.588.485a1.05 1.05 0 01-.612 2.011h-.006l-.03-.014z" fill="url(#paint104_linear_1114_3780)"/><path d="M499.405 68.112l-1.56-.283-.039-.005a1.034 1.034 0 01-.831-1.204 1.03 1.03 0 011.197-.835l1.635.289c.565.1.939.638.842 1.204-.1.565-.637.94-1.203.84h-.005l-.036-.006z" fill="url(#paint105_linear_1114_3780)"/><path d="M494.171 67.4l-1.585-.09-.036-.002a1.019 1.019 0 01-.961-1.079c.03-.563.51-.996 1.072-.962l1.657.086a1.027 1.027 0 01-.108 2.05h-.006l-.033-.003z" fill="url(#paint106_linear_1114_3780)"/><path d="M488.882 67.314l-1.588.091-.033.003a1.01 1.01 0 01-.122-2.017l1.654-.102a1.016 1.016 0 01.128 2.025h-.039z" fill="url(#paint107_linear_1114_3780)"/><path d="M483.607 67.824l-1.569.264-.03.005a.995.995 0 01-.335-1.964l1.632-.283a1.003 1.003 0 01.343 1.975h-.005l-.036.003z" fill="url(#paint108_linear_1114_3780)"/><path d="M478.409 68.88l-1.538.422-.028.009a.96.96 0 01-.518-1.85l1.588-.458a.97.97 0 01.535 1.864l-.009.003-.03.01z" fill="url(#paint109_linear_1114_3780)"/><path d="M473.335 70.462l-1.49.571-.025.011a.923.923 0 01-.674-1.717l1.533-.613a.934.934 0 01.692 1.736c-.002 0-.005.004-.008.004l-.028.008z" fill="url(#paint110_linear_1114_3780)"/><path d="M468.434 72.54l-1.43.712-.022.011a.885.885 0 01-.8-1.578l1.465-.757a.896.896 0 11.823 1.595c-.003 0-.005.002-.005.002l-.031.014z" fill="url(#paint111_linear_1114_3780)"/><path d="M463.749 75.074l-1.358.844-.019.013a.849.849 0 01-.906-1.434l1.385-.887a.86.86 0 01.925 1.448c-.002 0-.002.002-.005.002l-.022.014z" fill="url(#paint112_linear_1114_3780)"/><path d="M459.316 78.034l-1.278.968-.016.014a.809.809 0 01-1.136-.159.814.814 0 01.149-1.131l1.3-1.013a.823.823 0 111.011 1.301l-.005.006-.025.014z" fill="url(#paint113_linear_1114_3780)"/><path d="M455.149 81.379l-1.192 1.076-.016.014a.753.753 0 01-1.02-1.107l1.197-1.131a.769.769 0 011.056 1.117c-.003.003-.006.006-.012.009l-.013.022z" fill="url(#paint114_linear_1114_3780)"/><path d="M451.297 85.087l-1.089 1.182-.013.014a.69.69 0 01-.976.038.693.693 0 01-.05-.965l1.089-1.234a.709.709 0 111.064.937l-.008.009-.017.02z" fill="url(#paint115_linear_1114_3780)"/><path d="M447.801 89.14l-.975 1.278-.012.014a.63.63 0 01-.883.12.635.635 0 01-.128-.875l.967-1.328a.65.65 0 011.047.765c-.002.003-.005.006-.005.009l-.011.016z" fill="url(#paint116_linear_1114_3780)"/><path d="M444.684 93.5l-.854 1.364-.008.014a.551.551 0 01-.942-.571l.828-1.418a.575.575 0 11.992.583c-.003.003-.005.008-.008.014l-.008.013z" fill="url(#paint117_linear_1114_3780)"/><path d="M443.426 100.722c-.044-.017-23.196-40.603-26.324-44.422a2.417 2.417 0 00-2.164-.871l-6.461.77-7.592 16.443 12.648-7.373c-1.252 8.665 14.995 21.54 20.567 26.239.565.477.612 1.331.102 1.867l-2.224 2.33c3.651 3.705 7.866 6.085 12.623 7.186l-1.175-2.169z" fill="url(#paint118_linear_1114_3780)"/><path d="M433.263 94.445s-1.418.46-1.9 1.726c-.23.604.016 1.292.543 1.67 2.338 1.677 10.049 7.089 13.607 8.148a.403.403 0 00.504-.474c-.183-.827-.773-2.48-2.677-4.898l.172.346c.216.439-.26.893-.684.652-2.38-1.348-7.229-4.29-9.565-7.17z" fill="url(#paint119_linear_1114_3780)"/><path d="M434.408 110.685c-.039-.025-3.513-8.404-3.552-8.426-3.184-19.41-10.956-36.035-13.247-40.41a2.43 2.43 0 00-1.945-1.292l-6.483-.555-10.759 14.562 13.876-4.66c-2.979 8.232 10.332 24.133 14.837 29.864a1.283 1.283 0 01-.277 1.847l-2.649 1.833c2.826 4.369 6.472 7.553 10.908 9.594l-.709-2.357z" fill="url(#paint120_linear_1114_3780)"/><path d="M425.724 102.478s-1.482.161-2.211 1.303c-.346.547-.244 1.268.197 1.745 1.95 2.116 8.409 8.978 11.678 10.74a.404.404 0 00.59-.364c-.011-.849-.255-2.585-1.629-5.339l.097.374c.122.472-.435.821-.803.502-2.062-1.802-6.212-5.669-7.919-8.961z" fill="url(#paint121_linear_1114_3780)"/><path d="M378.83 56.935s-5.866 8.734-6.348 12.717c-.482 3.983 1.621 5.361 7.761 5.869 18.27 1.511 27.278-3.97 27.278-3.97 1.249-7.976 2.139-10.007 12.576-14.345 0 0-13.203 1.049-15.86.017-2.657-1.029-25.407-.288-25.407-.288z" fill="url(#paint122_linear_1114_3780)"/><path d="M394.692 55.778s6.83-6.512 10.194-10.823a9.164 9.164 0 001.549-8.235c-1.535-5.178-4.265-10.54-4.511-11.374-.382-1.279-8.041-1.226-8.041-1.226s-15.072 9.79-20.993 26.38l6.649 2.072s3.935-6.61 7.825-10.812c0 0-6.727 8.898-6.966 12.54l14.294 1.478z" fill="url(#paint123_linear_1114_3780)"/><path d="M402.849 18.195c-.081.266-2.078 6.9-2.236 7.037-.155.139-4.384.366-6.376-.996l4.062-8.995 4.55 2.954z" fill="url(#paint124_linear_1114_3780)"/><path d="M408.346 10.742s1.424 3.293-.249 8.294c-1.674 5.003-4.406 5.439-6.135 4.202-1.731-1.237-3.976-3.448-4.253-7.98-.277-4.532 8.676-8.679 10.637-4.516z" fill="url(#paint125_linear_1114_3780)"/><path d="M401.084 14.964s3.02-6.77 7.551-2.555l.349 1.742s4.314-1.229 2.895-5.142c-1.419-3.914-6.572-6.568-11.185-4.03-4.614 2.535-6.182 5.522-5.932 9.086.249 3.562 2.914 2.344 2.914 2.344s.513-2.618 1.765-3.084c1.253-.466 1.225 1.517 1.225 1.517l.418.122z" fill="url(#paint126_linear_1114_3780)"/><path d="M400.045 15.047s1.574-3.472-.629-3.597c-2.203-.125-1.308 3.348-.867 4.612l1.496-1.015z" fill="url(#paint127_linear_1114_3780)"/><path d="M407.709 58.346l-5.132-5.591-5.926 1.597s-6.91 1.071-10.867 0l-3.956-1.07-8.939-2.785-1.404 3.972a2.394 2.394 0 00.872 2.749c.773.549 1.679 1.153 2.258 1.409 1.178.515 27.115.163 27.115.163l5.979-.444z" fill="url(#paint128_linear_1114_3780)"/><path d="M398.796 7.489c1.232-.15 1.731-1.678.892-2.596-2.71-2.965-7.825-6.252-15.112-1.207-8.209 5.683-12.648 8.257-14.665 7.717-1.324-.356-2.477.957-1.851 2.177.463.901 1.405 1.844 3.142 2.704 13.419 6.632 20.354-7.913 27.594-8.795z" fill="url(#paint129_linear_1114_3780)"/><path d="M390.719 60.56h.055l23.609-.025c.585 0 1.056-.475 1.056-1.06 0-.585-.477-1.068-1.058-1.057l-23.61.025c-.584 0-1.055.475-1.055 1.06 0 .569.443 1.029 1.003 1.057z" fill="url(#paint130_linear_1114_3780)"/><path d="M435.601 39.103H415.94c-1.449 0-2.77.837-3.388 2.152l-9.088 19.293h24.432c.934 0 1.773-.57 2.117-1.442l7.048-17.854a1.57 1.57 0 00-1.46-2.15z" fill="url(#paint131_linear_1114_3780)"/><path d="M421.751 48.994c-.427 1.325-.111 2.612.703 2.873.815.264 1.821-.599 2.247-1.925.427-1.326.111-2.613-.703-2.873-.815-.261-1.821.602-2.247 1.925z" fill="#91B3FA"/></g><defs><linearGradient id="paint0_linear_1114_3780" x1="262.958" y1="345.89" x2="360.928" y2="52.29" gradientUnits="userSpaceOnUse"><stop stop-color="#09005D"/><stop offset="1" stop-color="#1A0F91"/></linearGradient><linearGradient id="paint1_linear_1114_3780" x1="232.241" y1="290.067" x2="607.681" y2="8.093" gradientUnits="userSpaceOnUse"><stop stop-color="#FFA51F"/><stop offset="1" stop-color="#FFC773"/></linearGradient><linearGradient id="paint2_linear_1114_3780" x1="384.736" y1="171.017" x2="135.963" y2="378.801" gradientUnits="userSpaceOnUse"><stop stop-color="#FFA51F"/><stop offset="1" stop-color="#FFCB7C"/></linearGradient><linearGradient id="paint3_linear_1114_3780" x1="297.445" y1="231.433" x2="302.859" y2="327.951" gradientUnits="userSpaceOnUse"><stop stop-color="#09005D"/><stop offset="1" stop-color="#1A0F91"/></linearGradient><linearGradient id="paint4_linear_1114_3780" x1="224.483" y1="264.179" x2="224.066" y2="117.322" gradientUnits="userSpaceOnUse"><stop stop-color="#4042E2"/><stop offset="1" stop-color="#4F52FF"/></linearGradient><linearGradient id="paint5_linear_1114_3780" x1="227.881" y1="74.934" x2="225.799" y2="157.723" gradientUnits="userSpaceOnUse"><stop stop-color="#4042E2"/><stop offset="1" stop-color="#4F52FF"/></linearGradient><linearGradient id="paint6_linear_1114_3780" x1="228.951" y1="71.913" x2="241.861" y2="-62.46" gradientUnits="userSpaceOnUse"><stop stop-color="#4042E2"/><stop offset="1" stop-color="#4F52FF"/></linearGradient><linearGradient id="paint7_linear_1114_3780" x1="242.336" y1="31.484" x2="228.178" y2="100.954" gradientUnits="userSpaceOnUse"><stop stop-color="#4042E2"/><stop offset="1" stop-color="#4F52FF"/></linearGradient><linearGradient id="paint8_linear_1114_3780" x1="391.036" y1="114.127" x2="428.093" y2="9.73" gradientUnits="userSpaceOnUse"><stop stop-color="#4042E2"/><stop offset="1" stop-color="#4F52FF"/></linearGradient><linearGradient id="paint9_linear_1114_3780" x1="438.216" y1="14.614" x2="398.667" y2="99.035" gradientUnits="userSpaceOnUse"><stop stop-color="#4042E2"/><stop offset="1" stop-color="#4F52FF"/></linearGradient><linearGradient id="paint10_linear_1114_3780" x1="309.544" y1="159.577" x2="346.603" y2="29.382" gradientUnits="userSpaceOnUse"><stop stop-color="#4042E2"/><stop offset="1" stop-color="#4F52FF"/></linearGradient><linearGradient id="paint11_linear_1114_3780" x1="318.047" y1="57.498" x2="310.551" y2="134.878" gradientUnits="userSpaceOnUse"><stop stop-color="#4042E2"/><stop offset="1" stop-color="#4F52FF"/></linearGradient><linearGradient id="paint12_linear_1114_3780" x1="299.099" y1="107.505" x2="324.917" y2="-9.802" gradientUnits="userSpaceOnUse"><stop stop-color="#4042E2"/><stop offset="1" stop-color="#4F52FF"/></linearGradient><linearGradient id="paint13_linear_1114_3780" x1="324.537" y1="-60.334" x2="311.21" y2="40.757" gradientUnits="userSpaceOnUse"><stop stop-color="#4042E2"/><stop offset="1" stop-color="#4F52FF"/></linearGradient><linearGradient id="paint14_linear_1114_3780" x1="299.59" y1="317.75" x2="320.829" y2="174.228" gradientUnits="userSpaceOnUse"><stop stop-color="#4042E2"/><stop offset="1" stop-color="#4F52FF"/></linearGradient><linearGradient id="paint15_linear_1114_3780" x1="306.095" y1="104.08" x2="306.928" y2="200.598" gradientUnits="userSpaceOnUse"><stop stop-color="#4042E2"/><stop offset="1" stop-color="#4F52FF"/></linearGradient><linearGradient id="paint16_linear_1114_3780" x1="402.021" y1="260.159" x2="400.541" y2="302.688" gradientUnits="userSpaceOnUse"><stop stop-color="#FF928E"/><stop offset="1" stop-color="#FEB3B1"/></linearGradient><linearGradient id="paint17_linear_1114_3780" x1="446.546" y1="326.22" x2="429.537" y2="341.179" gradientUnits="userSpaceOnUse"><stop stop-color="#FF928E"/><stop offset="1" stop-color="#FEB3B1"/></linearGradient><linearGradient id="paint18_linear_1114_3780" x1="429.627" y1="312.342" x2="420.538" y2="371.361" gradientUnits="userSpaceOnUse"><stop stop-color="#4042E2"/><stop offset="1" stop-color="#4F52FF"/></linearGradient><linearGradient id="paint19_linear_1114_3780" x1="410.434" y1="309.386" x2="401.345" y2="368.405" gradientUnits="userSpaceOnUse"><stop stop-color="#4042E2"/><stop offset="1" stop-color="#4F52FF"/></linearGradient><linearGradient id="paint20_linear_1114_3780" x1="426.957" y1="326.152" x2="416.048" y2="336.68" gradientUnits="userSpaceOnUse"><stop stop-color="#FF928E"/><stop offset="1" stop-color="#FEB3B1"/></linearGradient><linearGradient id="paint21_linear_1114_3780" x1="385.391" y1="239.517" x2="382.245" y2="262.445" gradientUnits="userSpaceOnUse"><stop stop-color="#FF928E"/><stop offset="1" stop-color="#FEB3B1"/></linearGradient><linearGradient id="paint22_linear_1114_3780" x1="393.243" y1="286.348" x2="432.237" y2="363.497" gradientUnits="userSpaceOnUse"><stop stop-color="#4042E2"/><stop offset="1" stop-color="#4F52FF"/></linearGradient><linearGradient id="paint23_linear_1114_3780" x1="416.882" y1="303.222" x2="398.202" y2="326.501" gradientUnits="userSpaceOnUse"><stop stop-color="#09005D"/><stop offset="1" stop-color="#1A0F91"/></linearGradient><linearGradient id="paint24_linear_1114_3780" x1="396.552" y1="285.254" x2="403.043" y2="285.254" gradientUnits="userSpaceOnUse"><stop stop-color="#FF928E"/><stop offset="1" stop-color="#FEB3B1"/></linearGradient><linearGradient id="paint25_linear_1114_3780" x1="406.868" y1="276.857" x2="454.111" y2="280.066" gradientUnits="userSpaceOnUse"><stop stop-color="#FF928E"/><stop offset="1" stop-color="#FEB3B1"/></linearGradient><linearGradient id="paint26_linear_1114_3780" x1="414.634" y1="274.006" x2="397.976" y2="307.286" gradientUnits="userSpaceOnUse"><stop stop-color="#09005D"/><stop offset="1" stop-color="#1A0F91"/></linearGradient><linearGradient id="paint27_linear_1114_3780" x1="406.971" y1="216.763" x2="365.475" y2="201.735" gradientUnits="userSpaceOnUse"><stop stop-color="#DF6B00"/><stop offset="1" stop-color="#EA9C04"/></linearGradient><linearGradient id="paint28_linear_1114_3780" x1="410.773" y1="246.097" x2="361.436" y2="226.668" gradientUnits="userSpaceOnUse"><stop stop-color="#DF6B00"/><stop offset="1" stop-color="#EA9C04"/></linearGradient><linearGradient id="paint29_linear_1114_3780" x1="141.306" y1="251.137" x2="149.718" y2="251.137" gradientUnits="userSpaceOnUse"><stop stop-color="#09005D"/><stop offset="1" stop-color="#1A0F91"/></linearGradient><linearGradient id="paint30_linear_1114_3780" x1="142.159" y1="247.225" x2="145.57" y2="247.225" gradientUnits="userSpaceOnUse"><stop stop-color="#FF928E"/><stop offset="1" stop-color="#FEB3B1"/></linearGradient><linearGradient id="paint31_linear_1114_3780" x1="159.195" y1="251.003" x2="172.393" y2="251.003" gradientUnits="userSpaceOnUse"><stop stop-color="#09005D"/><stop offset="1" stop-color="#1A0F91"/></linearGradient><linearGradient id="paint32_linear_1114_3780" x1="159.395" y1="245.708" x2="162.788" y2="245.708" gradientUnits="userSpaceOnUse"><stop stop-color="#FF928E"/><stop offset="1" stop-color="#FEB3B1"/></linearGradient><linearGradient id="paint33_linear_1114_3780" x1="140.04" y1="215.582" x2="163.169" y2="215.582" gradientUnits="userSpaceOnUse"><stop stop-color="#09005D"/><stop offset="1" stop-color="#1A0F91"/></linearGradient><linearGradient id="paint34_linear_1114_3780" x1="155.544" y1="199" x2="181.958" y2="199" gradientUnits="userSpaceOnUse"><stop stop-color="#09005D"/><stop offset="1" stop-color="#1A0F91"/></linearGradient><linearGradient id="paint35_linear_1114_3780" x1="173.204" y1="170.241" x2="196.519" y2="222.922" gradientUnits="userSpaceOnUse"><stop stop-color="#4042E2"/><stop offset="1" stop-color="#4F52FF"/></linearGradient><linearGradient id="paint36_linear_1114_3780" x1="205.294" y1="113.343" x2="192.349" y2="127.567" gradientUnits="userSpaceOnUse"><stop stop-color="#FF928E"/><stop offset="1" stop-color="#FEB3B1"/></linearGradient><linearGradient id="paint37_linear_1114_3780" x1="170.494" y1="142.87" x2="163.577" y2="208.304" gradientUnits="userSpaceOnUse"><stop stop-color="#4042E2"/><stop offset="1" stop-color="#4F52FF"/></linearGradient><linearGradient id="paint38_linear_1114_3780" x1="304.287" y1="-43.687" x2="295.591" y2="-26.868" gradientUnits="userSpaceOnUse"><stop stop-color="#FF928E"/><stop offset="1" stop-color="#FEB3B1"/></linearGradient><linearGradient id="paint39_linear_1114_3780" x1="312.005" y1="-39.698" x2="303.309" y2="-22.878" gradientUnits="userSpaceOnUse"><stop stop-color="#FF928E"/><stop offset="1" stop-color="#FEB3B1"/></linearGradient><linearGradient id="paint40_linear_1114_3780" x1="194.778" y1="101.316" x2="168.349" y2="149.826" gradientUnits="userSpaceOnUse"><stop stop-color="#FF928E"/><stop offset="1" stop-color="#FEB3B1"/></linearGradient><linearGradient id="paint41_linear_1114_3780" x1="146.2" y1="144.989" x2="174.093" y2="141.114" gradientUnits="userSpaceOnUse"><stop stop-color="#FF928E"/><stop offset="1" stop-color="#FEB3B1"/></linearGradient><linearGradient id="paint42_linear_1114_3780" x1="161.144" y1="131.707" x2="184.808" y2="151.283" gradientUnits="userSpaceOnUse"><stop stop-color="#09005D"/><stop offset="1" stop-color="#1A0F91"/></linearGradient><linearGradient id="paint43_linear_1114_3780" x1="185.691" y1="137.789" x2="173.497" y2="142.034" gradientUnits="userSpaceOnUse"><stop stop-color="#FF928E"/><stop offset="1" stop-color="#FEB3B1"/></linearGradient><linearGradient id="paint44_linear_1114_3780" x1="584.133" y1="721.227" x2="591.907" y2="761.35" gradientUnits="userSpaceOnUse"><stop stop-color="#4042E2"/><stop offset="1" stop-color="#4F52FF"/></linearGradient><linearGradient id="paint45_linear_1114_3780" x1="528.144" y1="365.626" x2="521.214" y2="365.626" gradientUnits="userSpaceOnUse"><stop stop-color="#FF928E"/><stop offset="1" stop-color="#FEB3B1"/></linearGradient><linearGradient id="paint46_linear_1114_3780" x1="550.332" y1="727.774" x2="558.106" y2="767.897" gradientUnits="userSpaceOnUse"><stop stop-color="#4042E2"/><stop offset="1" stop-color="#4F52FF"/></linearGradient><linearGradient id="paint47_linear_1114_3780" x1="500.503" y1="299.669" x2="564.288" y2="355.63" gradientUnits="userSpaceOnUse"><stop stop-color="#09005D"/><stop offset="1" stop-color="#1A0F91"/></linearGradient><linearGradient id="paint48_linear_1114_3780" x1="495.318" y1="366.21" x2="487.043" y2="366.21" gradientUnits="userSpaceOnUse"><stop stop-color="#FF928E"/><stop offset="1" stop-color="#FEB3B1"/></linearGradient><linearGradient id="paint49_linear_1114_3780" x1="597.45" y1="370.124" x2="559.563" y2="347.415" gradientUnits="userSpaceOnUse"><stop stop-color="#09005D"/><stop offset="1" stop-color="#1A0F91"/></linearGradient><linearGradient id="paint50_linear_1114_3780" x1="541.278" y1="249.492" x2="537.191" y2="239.197" gradientUnits="userSpaceOnUse"><stop stop-color="#FF928E"/><stop offset="1" stop-color="#FEB3B1"/></linearGradient><linearGradient id="paint51_linear_1114_3780" x1="558.15" y1="272.895" x2="513.152" y2="346.688" gradientUnits="userSpaceOnUse"><stop stop-color="#4042E2"/><stop offset="1" stop-color="#4F52FF"/></linearGradient><linearGradient id="paint52_linear_1114_3780" x1="506.427" y1="289.54" x2="487.314" y2="289.54" gradientUnits="userSpaceOnUse"><stop stop-color="#FF928E"/><stop offset="1" stop-color="#FEB3B1"/></linearGradient><linearGradient id="paint53_linear_1114_3780" x1="528.823" y1="228.549" x2="547.101" y2="246.761" gradientUnits="userSpaceOnUse"><stop stop-color="#FF928E"/><stop offset="1" stop-color="#FEB3B1"/></linearGradient><linearGradient id="paint54_linear_1114_3780" x1="544.704" y1="218.153" x2="523.176" y2="239.404" gradientUnits="userSpaceOnUse"><stop stop-color="#09005D"/><stop offset="1" stop-color="#1A0F91"/></linearGradient><linearGradient id="paint55_linear_1114_3780" x1="531.776" y1="225.587" x2="550.053" y2="243.798" gradientUnits="userSpaceOnUse"><stop stop-color="#FF928E"/><stop offset="1" stop-color="#FEB3B1"/></linearGradient><linearGradient id="paint56_linear_1114_3780" x1="1548.34" y1="-1571.29" x2="1521.19" y2="-1523.18" gradientUnits="userSpaceOnUse"><stop stop-color="#09005D"/><stop offset="1" stop-color="#1A0F91"/></linearGradient><linearGradient id="paint57_linear_1114_3780" x1="-231.201" y1="220.258" x2="-176.177" y2="224.555" gradientUnits="userSpaceOnUse"><stop stop-color="#09005D"/><stop offset="1" stop-color="#1A0F91"/></linearGradient><linearGradient id="paint58_linear_1114_3780" x1="223.398" y1="94.24" x2="224.326" y2="140.665" gradientUnits="userSpaceOnUse"><stop stop-color="#1942D3"/><stop offset="1" stop-color="#003395"/></linearGradient><linearGradient id="paint59_linear_1114_3780" x1="203.826" y1="72.456" x2="274.699" y2="106.23" gradientUnits="userSpaceOnUse"><stop stop-color="#C242FF"/><stop offset="1" stop-color="#1F5DD6"/></linearGradient><linearGradient id="paint60_linear_1114_3780" x1="504.578" y1="256.15" x2="507.328" y2="256.15" gradientUnits="userSpaceOnUse"><stop stop-color="#DAE3FE"/><stop offset="1" stop-color="#E9EFFD"/></linearGradient><linearGradient id="paint61_linear_1114_3780" x1="499.19" y1="255.728" x2="501.96" y2="255.728" gradientUnits="userSpaceOnUse"><stop stop-color="#DAE3FE"/><stop offset="1" stop-color="#E9EFFD"/></linearGradient><linearGradient id="paint62_linear_1114_3780" x1="494.064" y1="254.122" x2="496.779" y2="254.122" gradientUnits="userSpaceOnUse"><stop stop-color="#DAE3FE"/><stop offset="1" stop-color="#E9EFFD"/></linearGradient><linearGradient id="paint63_linear_1114_3780" x1="489.393" y1="251.507" x2="492.003" y2="251.507" gradientUnits="userSpaceOnUse"><stop stop-color="#DAE3FE"/><stop offset="1" stop-color="#E9EFFD"/></linearGradient><linearGradient id="paint64_linear_1114_3780" x1="485.275" y1="248.083" x2="487.758" y2="248.083" gradientUnits="userSpaceOnUse"><stop stop-color="#DAE3FE"/><stop offset="1" stop-color="#E9EFFD"/></linearGradient><linearGradient id="paint65_linear_1114_3780" x1="481.772" y1="244.027" x2="484.112" y2="244.027" gradientUnits="userSpaceOnUse"><stop stop-color="#DAE3FE"/><stop offset="1" stop-color="#E9EFFD"/></linearGradient><linearGradient id="paint66_linear_1114_3780" x1="478.929" y1="239.475" x2="481.114" y2="239.475" gradientUnits="userSpaceOnUse"><stop stop-color="#DAE3FE"/><stop offset="1" stop-color="#E9EFFD"/></linearGradient><linearGradient id="paint67_linear_1114_3780" x1="476.804" y1="234.538" x2="478.814" y2="234.538" gradientUnits="userSpaceOnUse"><stop stop-color="#DAE3FE"/><stop offset="1" stop-color="#E9EFFD"/></linearGradient><linearGradient id="paint68_linear_1114_3780" x1="475.481" y1="229.319" x2="477.288" y2="229.319" gradientUnits="userSpaceOnUse"><stop stop-color="#DAE3FE"/><stop offset="1" stop-color="#E9EFFD"/></linearGradient><linearGradient id="paint69_linear_1114_3780" x1="474.991" y1="223.939" x2="476.607" y2="223.939" gradientUnits="userSpaceOnUse"><stop stop-color="#DAE3FE"/><stop offset="1" stop-color="#E9EFFD"/></linearGradient><linearGradient id="paint70_linear_1114_3780" x1="475.063" y1="218.529" x2="476.805" y2="218.529" gradientUnits="userSpaceOnUse"><stop stop-color="#DAE3FE"/><stop offset="1" stop-color="#E9EFFD"/></linearGradient><linearGradient id="paint71_linear_1114_3780" x1="475.718" y1="213.174" x2="477.683" y2="213.174" gradientUnits="userSpaceOnUse"><stop stop-color="#DAE3FE"/><stop offset="1" stop-color="#E9EFFD"/></linearGradient><linearGradient id="paint72_linear_1114_3780" x1="476.959" y1="207.929" x2="479.113" y2="207.929" gradientUnits="userSpaceOnUse"><stop stop-color="#DAE3FE"/><stop offset="1" stop-color="#E9EFFD"/></linearGradient><linearGradient id="paint73_linear_1114_3780" x1="478.701" y1="202.831" x2="481.02" y2="202.831" gradientUnits="userSpaceOnUse"><stop stop-color="#DAE3FE"/><stop offset="1" stop-color="#E9EFFD"/></linearGradient><linearGradient id="paint74_linear_1114_3780" x1="480.869" y1="197.902" x2="483.332" y2="197.902" gradientUnits="userSpaceOnUse"><stop stop-color="#DAE3FE"/><stop offset="1" stop-color="#E9EFFD"/></linearGradient><linearGradient id="paint75_linear_1114_3780" x1="483.398" y1="193.148" x2="485.988" y2="193.148" gradientUnits="userSpaceOnUse"><stop stop-color="#DAE3FE"/><stop offset="1" stop-color="#E9EFFD"/></linearGradient><linearGradient id="paint76_linear_1114_3780" x1="486.236" y1="188.572" x2="488.937" y2="188.572" gradientUnits="userSpaceOnUse"><stop stop-color="#DAE3FE"/><stop offset="1" stop-color="#E9EFFD"/></linearGradient><linearGradient id="paint77_linear_1114_3780" x1="489.337" y1="184.17" x2="492.139" y2="184.17" gradientUnits="userSpaceOnUse"><stop stop-color="#DAE3FE"/><stop offset="1" stop-color="#E9EFFD"/></linearGradient><linearGradient id="paint78_linear_1114_3780" x1="492.655" y1="179.926" x2="495.534" y2="179.926" gradientUnits="userSpaceOnUse"><stop stop-color="#DAE3FE"/><stop offset="1" stop-color="#E9EFFD"/></linearGradient><linearGradient id="paint79_linear_1114_3780" x1="496.127" y1="175.801" x2="499.071" y2="175.801" gradientUnits="userSpaceOnUse"><stop stop-color="#DAE3FE"/><stop offset="1" stop-color="#E9EFFD"/></linearGradient><linearGradient id="paint80_linear_1114_3780" x1="499.706" y1="171.763" x2="502.7" y2="171.763" gradientUnits="userSpaceOnUse"><stop stop-color="#DAE3FE"/><stop offset="1" stop-color="#E9EFFD"/></linearGradient><linearGradient id="paint81_linear_1114_3780" x1="503.352" y1="167.774" x2="506.384" y2="167.774" gradientUnits="userSpaceOnUse"><stop stop-color="#DAE3FE"/><stop offset="1" stop-color="#E9EFFD"/></linearGradient><linearGradient id="paint82_linear_1114_3780" x1="507.017" y1="163.801" x2="510.078" y2="163.801" gradientUnits="userSpaceOnUse"><stop stop-color="#DAE3FE"/><stop offset="1" stop-color="#E9EFFD"/></linearGradient><linearGradient id="paint83_linear_1114_3780" x1="510.664" y1="159.806" x2="513.742" y2="159.806" gradientUnits="userSpaceOnUse"><stop stop-color="#DAE3FE"/><stop offset="1" stop-color="#E9EFFD"/></linearGradient><linearGradient id="paint84_linear_1114_3780" x1="514.254" y1="155.754" x2="517.324" y2="155.754" gradientUnits="userSpaceOnUse"><stop stop-color="#DAE3FE"/><stop offset="1" stop-color="#E9EFFD"/></linearGradient><linearGradient id="paint85_linear_1114_3780" x1="517.748" y1="151.606" x2="520.789" y2="151.606" gradientUnits="userSpaceOnUse"><stop stop-color="#DAE3FE"/><stop offset="1" stop-color="#E9EFFD"/></linearGradient><linearGradient id="paint86_linear_1114_3780" x1="521.091" y1="147.331" x2="524.088" y2="147.331" gradientUnits="userSpaceOnUse"><stop stop-color="#DAE3FE"/><stop offset="1" stop-color="#E9EFFD"/></linearGradient><linearGradient id="paint87_linear_1114_3780" x1="524.225" y1="142.893" x2="527.158" y2="142.893" gradientUnits="userSpaceOnUse"><stop stop-color="#DAE3FE"/><stop offset="1" stop-color="#E9EFFD"/></linearGradient><linearGradient id="paint88_linear_1114_3780" x1="527.101" y1="138.283" x2="529.959" y2="138.283" gradientUnits="userSpaceOnUse"><stop stop-color="#DAE3FE"/><stop offset="1" stop-color="#E9EFFD"/></linearGradient><linearGradient id="paint89_linear_1114_3780" x1="529.676" y1="133.496" x2="532.443" y2="133.496" gradientUnits="userSpaceOnUse"><stop stop-color="#DAE3FE"/><stop offset="1" stop-color="#E9EFFD"/></linearGradient><linearGradient id="paint90_linear_1114_3780" x1="531.897" y1="128.534" x2="534.555" y2="128.534" gradientUnits="userSpaceOnUse"><stop stop-color="#DAE3FE"/><stop offset="1" stop-color="#E9EFFD"/></linearGradient><linearGradient id="paint91_linear_1114_3780" x1="533.697" y1="123.405" x2="536.223" y2="123.405" gradientUnits="userSpaceOnUse"><stop stop-color="#DAE3FE"/><stop offset="1" stop-color="#E9EFFD"/></linearGradient><linearGradient id="paint92_linear_1114_3780" x1="535.004" y1="118.132" x2="537.372" y2="118.132" gradientUnits="userSpaceOnUse"><stop stop-color="#DAE3FE"/><stop offset="1" stop-color="#E9EFFD"/></linearGradient><linearGradient id="paint93_linear_1114_3780" x1="535.736" y1="112.757" x2="537.924" y2="112.757" gradientUnits="userSpaceOnUse"><stop stop-color="#DAE3FE"/><stop offset="1" stop-color="#E9EFFD"/></linearGradient><linearGradient id="paint94_linear_1114_3780" x1="535.714" y1="107.344" x2="537.921" y2="107.344" gradientUnits="userSpaceOnUse"><stop stop-color="#DAE3FE"/><stop offset="1" stop-color="#E9EFFD"/></linearGradient><linearGradient id="paint95_linear_1114_3780" x1="534.866" y1="101.982" x2="537.313" y2="101.982" gradientUnits="userSpaceOnUse"><stop stop-color="#DAE3FE"/><stop offset="1" stop-color="#E9EFFD"/></linearGradient><linearGradient id="paint96_linear_1114_3780" x1="533.284" y1="96.774" x2="535.96" y2="96.774" gradientUnits="userSpaceOnUse"><stop stop-color="#DAE3FE"/><stop offset="1" stop-color="#E9EFFD"/></linearGradient><linearGradient id="paint97_linear_1114_3780" x1="531.03" y1="91.808" x2="533.914" y2="91.808" gradientUnits="userSpaceOnUse"><stop stop-color="#DAE3FE"/><stop offset="1" stop-color="#E9EFFD"/></linearGradient><linearGradient id="paint98_linear_1114_3780" x1="528.179" y1="87.152" x2="531.248" y2="87.152" gradientUnits="userSpaceOnUse"><stop stop-color="#DAE3FE"/><stop offset="1" stop-color="#E9EFFD"/></linearGradient><linearGradient id="paint99_linear_1114_3780" x1="524.803" y1="82.86" x2="528.034" y2="82.86" gradientUnits="userSpaceOnUse"><stop stop-color="#DAE3FE"/><stop offset="1" stop-color="#E9EFFD"/></linearGradient><linearGradient id="paint100_linear_1114_3780" x1="520.969" y1="78.974" x2="524.341" y2="78.974" gradientUnits="userSpaceOnUse"><stop stop-color="#DAE3FE"/><stop offset="1" stop-color="#E9EFFD"/></linearGradient><linearGradient id="paint101_linear_1114_3780" x1="516.735" y1="75.53" x2="520.235" y2="75.53" gradientUnits="userSpaceOnUse"><stop stop-color="#DAE3FE"/><stop offset="1" stop-color="#E9EFFD"/></linearGradient><linearGradient id="paint102_linear_1114_3780" x1="512.173" y1="72.565" x2="515.755" y2="72.565" gradientUnits="userSpaceOnUse"><stop stop-color="#DAE3FE"/><stop offset="1" stop-color="#E9EFFD"/></linearGradient><linearGradient id="paint103_linear_1114_3780" x1="507.317" y1="70.116" x2="510.959" y2="70.116" gradientUnits="userSpaceOnUse"><stop stop-color="#DAE3FE"/><stop offset="1" stop-color="#E9EFFD"/></linearGradient><linearGradient id="paint104_linear_1114_3780" x1="502.224" y1="68.229" x2="505.907" y2="68.229" gradientUnits="userSpaceOnUse"><stop stop-color="#DAE3FE"/><stop offset="1" stop-color="#E9EFFD"/></linearGradient><linearGradient id="paint105_linear_1114_3780" x1="496.958" y1="66.954" x2="500.664" y2="66.954" gradientUnits="userSpaceOnUse"><stop stop-color="#DAE3FE"/><stop offset="1" stop-color="#E9EFFD"/></linearGradient><linearGradient id="paint106_linear_1114_3780" x1="491.588" y1="66.334" x2="495.29" y2="66.334" gradientUnits="userSpaceOnUse"><stop stop-color="#DAE3FE"/><stop offset="1" stop-color="#E9EFFD"/></linearGradient><linearGradient id="paint107_linear_1114_3780" x1="486.193" y1="66.348" x2="489.869" y2="66.348" gradientUnits="userSpaceOnUse"><stop stop-color="#DAE3FE"/><stop offset="1" stop-color="#E9EFFD"/></linearGradient><linearGradient id="paint108_linear_1114_3780" x1="480.847" y1="66.967" x2="484.475" y2="66.967" gradientUnits="userSpaceOnUse"><stop stop-color="#DAE3FE"/><stop offset="1" stop-color="#E9EFFD"/></linearGradient><linearGradient id="paint109_linear_1114_3780" x1="475.631" y1="68.153" x2="479.151" y2="68.153" gradientUnits="userSpaceOnUse"><stop stop-color="#DAE3FE"/><stop offset="1" stop-color="#E9EFFD"/></linearGradient><linearGradient id="paint110_linear_1114_3780" x1="470.568" y1="69.876" x2="473.959" y2="69.876" gradientUnits="userSpaceOnUse"><stop stop-color="#DAE3FE"/><stop offset="1" stop-color="#E9EFFD"/></linearGradient><linearGradient id="paint111_linear_1114_3780" x1="465.703" y1="72.092" x2="468.954" y2="72.092" gradientUnits="userSpaceOnUse"><stop stop-color="#DAE3FE"/><stop offset="1" stop-color="#E9EFFD"/></linearGradient><linearGradient id="paint112_linear_1114_3780" x1="461.076" y1="74.765" x2="464.175" y2="74.765" gradientUnits="userSpaceOnUse"><stop stop-color="#DAE3FE"/><stop offset="1" stop-color="#E9EFFD"/></linearGradient><linearGradient id="paint113_linear_1114_3780" x1="456.72" y1="77.859" x2="459.66" y2="77.859" gradientUnits="userSpaceOnUse"><stop stop-color="#DAE3FE"/><stop offset="1" stop-color="#E9EFFD"/></linearGradient><linearGradient id="paint114_linear_1114_3780" x1="452.689" y1="81.343" x2="455.419" y2="81.343" gradientUnits="userSpaceOnUse"><stop stop-color="#DAE3FE"/><stop offset="1" stop-color="#E9EFFD"/></linearGradient><linearGradient id="paint115_linear_1114_3780" x1="448.998" y1="85.195" x2="451.499" y2="85.195" gradientUnits="userSpaceOnUse"><stop stop-color="#DAE3FE"/><stop offset="1" stop-color="#E9EFFD"/></linearGradient><linearGradient id="paint116_linear_1114_3780" x1="445.683" y1="89.381" x2="447.944" y2="89.381" gradientUnits="userSpaceOnUse"><stop stop-color="#DAE3FE"/><stop offset="1" stop-color="#E9EFFD"/></linearGradient><linearGradient id="paint117_linear_1114_3780" x1="442.805" y1="93.868" x2="444.782" y2="93.868" gradientUnits="userSpaceOnUse"><stop stop-color="#DAE3FE"/><stop offset="1" stop-color="#E9EFFD"/></linearGradient><linearGradient id="paint118_linear_1114_3780" x1="439.407" y1="63.864" x2="410.001" y2="99.613" gradientUnits="userSpaceOnUse"><stop stop-color="#FF928E"/><stop offset="1" stop-color="#FEB3B1"/></linearGradient><linearGradient id="paint119_linear_1114_3780" x1="444.203" y1="87.576" x2="427.732" y2="127.398" gradientUnits="userSpaceOnUse"><stop stop-color="#FE7062"/><stop offset="1" stop-color="#FF928E"/></linearGradient><linearGradient id="paint120_linear_1114_3780" x1="444.716" y1="57.422" x2="428.348" y2="78.485" gradientUnits="userSpaceOnUse"><stop stop-color="#FF928E"/><stop offset="1" stop-color="#FEB3B1"/></linearGradient><linearGradient id="paint121_linear_1114_3780" x1="437.827" y1="97.969" x2="413.638" y2="133.62" gradientUnits="userSpaceOnUse"><stop stop-color="#FE7062"/><stop offset="1" stop-color="#FF928E"/></linearGradient><linearGradient id="paint122_linear_1114_3780" x1="406.557" y1="43.954" x2="361.525" y2="125.271" gradientUnits="userSpaceOnUse"><stop stop-color="#09005D"/><stop offset="1" stop-color="#1A0F91"/></linearGradient><linearGradient id="paint123_linear_1114_3780" x1="407.269" y1="26.894" x2="321.135" y2="109.891" gradientUnits="userSpaceOnUse"><stop stop-color="#4042E2"/><stop offset="1" stop-color="#4F52FF"/></linearGradient><linearGradient id="paint124_linear_1114_3780" x1="400.422" y1="14.596" x2="395.425" y2="32.16" gradientUnits="userSpaceOnUse"><stop stop-color="#FF928E"/><stop offset="1" stop-color="#FEB3B1"/></linearGradient><linearGradient id="paint125_linear_1114_3780" x1="-1179.91" y1="1711.98" x2="-1168.42" y2="1699.7" gradientUnits="userSpaceOnUse"><stop stop-color="#FF928E"/><stop offset="1" stop-color="#FEB3B1"/></linearGradient><linearGradient id="paint126_linear_1114_3780" x1="403.367" y1="-16.901" x2="403.48" y2="21.93" gradientUnits="userSpaceOnUse"><stop stop-color="#09005D"/><stop offset="1" stop-color="#1A0F91"/></linearGradient><linearGradient id="paint127_linear_1114_3780" x1="-1183.64" y1="1708.49" x2="-1172.15" y2="1696.21" gradientUnits="userSpaceOnUse"><stop stop-color="#FF928E"/><stop offset="1" stop-color="#FEB3B1"/></linearGradient><linearGradient id="paint128_linear_1114_3780" x1="385.045" y1="54.701" x2="348.684" y2="54.701" gradientUnits="userSpaceOnUse"><stop stop-color="#FF928E"/><stop offset="1" stop-color="#FEB3B1"/></linearGradient><linearGradient id="paint129_linear_1114_3780" x1="381.687" y1="-15.962" x2="385.538" y2="26.324" gradientUnits="userSpaceOnUse"><stop stop-color="#09005D"/><stop offset="1" stop-color="#1A0F91"/></linearGradient><linearGradient id="paint130_linear_1114_3780" x1="386.712" y1="54.28" x2="405.457" y2="60.422" gradientUnits="userSpaceOnUse"><stop stop-color="#09005D"/><stop offset="1" stop-color="#1A0F91"/></linearGradient><linearGradient id="paint131_linear_1114_3780" x1="412.456" y1="41.98" x2="425.968" y2="56.245" gradientUnits="userSpaceOnUse"><stop stop-color="#09005D"/><stop offset="1" stop-color="#1A0F91"/></linearGradient><clipPath id="clip0_1114_3780"><path fill="#fff" d="M0 0h591v381.77H0z"/></clipPath></defs></svg>