<svg width="48" height="46" fill="none" xmlns="http://www.w3.org/2000/svg"><path fill-rule="evenodd" clip-rule="evenodd" d="M3.234 0h41.531A3.24 3.24 0 0148 3.234v32.27a3.245 3.245 0 01-3.235 3.23H41.34a19.55 19.55 0 001.226-3.047h1.836c.25 0 .465-.097.633-.261a.866.866 0 00.262-.633V8.043h.019H2.824v26.75a.895.895 0 00.895.894h1.715a19.173 19.173 0 001.226 3.047H3.234A3.245 3.245 0 010 35.504V3.234A3.238 3.238 0 013.234 0zM32.11 11.406c-.91 10.887-13.37 3.73-18.105 12.8-.668 1.477-1.117 2.849-1.328 4.102-.348.43-.668.891-.957 1.383a10.44 10.44 0 00-1.043 7.942 10.428 10.428 0 004.879 6.351 10.437 10.437 0 007.94 1.043 10.408 10.408 0 006.352-4.875 10.442 10.442 0 001.258-3.469 10.772 10.772 0 003.766-3.675c1.683-3.907-1.383-7.02 2.816-9.77-2.597-1.305-4.175.043-5.691 2.684-1.64 3.558-7.785-.657-2.024-2.848 4.942-1.871 4.489-7.672 2.137-11.668zM20.56 34.894c.03 0 .062 0 .093.004l3.606-2.699a.947.947 0 111.136 1.516l-3.566 2.675a1.29 1.29 0 01-1.27 1.078 1.285 1.285 0 01-1.222-1.675l-3.672-2.836a.529.529 0 01-.094-.742.526.526 0 01.742-.098l3.735 2.887c.156-.07.328-.11.511-.11zm4.683-7.691c4.441 2.562 5.832 7.742 3.266 12.187-2.563 4.442-7.746 5.832-12.188 3.27-4.441-2.563-5.828-7.746-3.265-12.188 2.566-4.445 7.746-5.832 12.187-3.27zM41.687 2.617a1.597 1.597 0 11.001 3.194 1.597 1.597 0 010-3.194zm-10.824 0a1.597 1.597 0 11-1.598 1.598 1.592 1.592 0 011.598-1.598zm5.41 0a1.597 1.597 0 11.001 3.194 1.597 1.597 0 010-3.194z" fill="url(#paint0_linear_1119_3679)"/><defs><linearGradient id="paint0_linear_1119_3679" x1=".45" y1="1.655" x2="48.854" y2="3.532" gradientUnits="userSpaceOnUse"><stop stop-color="#115DF1"/><stop offset="1" stop-color="#6139FF"/></linearGradient></defs></svg>