<svg width="48" height="48" fill="none" xmlns="http://www.w3.org/2000/svg"><path fill-rule="evenodd" clip-rule="evenodd" d="M31.129 39.937c1.336 4.084 6.921 4.238 8.18 0 3.09 2.89 7.991.73 8.69 6.54-.081.914-.578 1.441-1.562 1.523H23.996c-.984-.082-1.48-.61-1.563-1.523.665-5.525 5.77-3.804 8.696-6.54zM2.383 16.365h34.664V2.883a.374.374 0 00-.118-.285.356.356 0 00-.273-.121H2.773a.336.336 0 00-.273.121.324.324 0 00-.117.284v13.483zm34.664 2.079H2.383v26.754a.382.382 0 00.117.285.347.347 0 00.273.121l14.29-.04c.31 0 .608.128.828.356.22.229.343.539.343.862 0 .323-.123.633-.343.86a1.15 1.15 0 01-.829.358H2.773a2.73 2.73 0 01-1.953-.853 2.824 2.824 0 01-.608-.928A2.914 2.914 0 010 45.117V2.883a2.92 2.92 0 01.211-1.102c.141-.349.348-.665.61-.928A2.71 2.71 0 011.712.22 2.622 2.622 0 012.773 0h33.844a2.73 2.73 0 011.953.853c.26.263.468.58.609.928.14.349.213.723.211 1.102V20.25c0 .324-.123.633-.343.862a1.15 1.15 0 01-.829.357 1.15 1.15 0 01-.828-.357 1.243 1.243 0 01-.343-.861v-1.807zM12.773 5.996h2.489a.143.143 0 01.113.045.156.156 0 01.043.118V15.2a.161.161 0 01-.043.118.147.147 0 01-.113.045h-2.489a.143.143 0 01-.115-.044.159.159 0 01-.044-.119V6.16a.16.16 0 01.044-.12.148.148 0 01.115-.043zm5.676 3.435h2.492a.144.144 0 01.113.045.154.154 0 01.044.117v5.575a.16.16 0 01-.044.117.147.147 0 01-.113.045H18.45a.142.142 0 01-.113-.045.157.157 0 01-.043-.117V9.593a.178.178 0 01.049-.111.165.165 0 01.107-.05zm11.36 0h2.488a.143.143 0 01.115.043.155.155 0 01.045.12v5.574a.16.16 0 01-.045.119.147.147 0 01-.115.043h-2.489a.147.147 0 01-.113-.045.155.155 0 01-.043-.117V9.593a.178.178 0 01.049-.111.165.165 0 01.107-.05zm-5.68-3.435h2.488a.143.143 0 01.116.044.155.155 0 01.044.119V15.2a.159.159 0 01-.044.12.147.147 0 01-.116.043h-2.488a.142.142 0 01-.113-.045.155.155 0 01-.043-.118V6.16a.158.158 0 01.043-.118.15.15 0 01.113-.045zM7.098 7.24h2.488a.143.143 0 01.117.044.155.155 0 01.043.122V15.2a.16.16 0 01-.045.12.147.147 0 01-.115.043H7.098a.142.142 0 01-.113-.045.155.155 0 01-.044-.118V7.405c-.03-.101.063-.166.157-.166zm8.437 25.983l6.695.122a7.69 7.69 0 01-.833 3.499 7.365 7.365 0 01-2.315 2.684l-3.547-6.325v.02zm-.367-2.128l-.078-8.12v-.54l.511.041a9.092 9.092 0 011.852.33 8.846 8.846 0 014.548 3.14 9.426 9.426 0 011.913 5.316l.039.532h-.516l-7.757-.244h-.446l-.078-.491.012.036zm.945-.49l6.817.202a8.585 8.585 0 00-1.336-3.787 8.18 8.18 0 00-2.883-2.7 8.38 8.38 0 00-2.27-.813 5.078 5.078 0 00-.39-.06l.078 7.125-.016.032zm-2.832 1.875l3.82 6.902a7.419 7.419 0 01-3.824 1.059 7.42 7.42 0 01-3.82-1.071 7.8 7.8 0 01-2.793-2.915 8.184 8.184 0 01-1.016-3.975 8.11 8.11 0 012.125-5.506 7.522 7.522 0 015.204-2.44l.304 7.946zm16.684-.033a.966.966 0 00-.473.155.433.433 0 00-.164.194.744.744 0 00-.055.321c.076.544.283 1.06.602 1.498l1.265 2.091a11.08 11.08 0 001.692 2.306 3.324 3.324 0 002.383.999c.467.011.932-.075 1.367-.252a3.504 3.504 0 001.168-.783c.68-.74 1.264-1.568 1.738-2.465l1.422-2.436c.289-.682.39-1.1.281-1.303-.055-.114-.25-.154-.566-.138a1.37 1.37 0 01-.782-.024l.575-1.685c-2.606-.033-4.387-.503-6.492-1.904-.696-.459-.903-.987-1.594-.934a2.319 2.319 0 00-1.309.739c-.37.44-.63.969-.754 1.539l.422 2.103a1.324 1.324 0 01-.719 0l-.007-.02zm11.328-.605a.979.979 0 01.38.199c.11.094.2.212.264.345.211.447.125 1.109-.273 2.055l-.024.053-1.445 2.452c-.51.967-1.143 1.86-1.883 2.65a4.285 4.285 0 01-1.425.963c-.532.219-1.1.325-1.672.313a4.108 4.108 0 01-2.942-1.218 11.591 11.591 0 01-1.836-2.481l-1.261-2.09a3.958 3.958 0 01-.727-1.937c-.011-.246.033-.49.129-.715.102-.224.262-.415.46-.552.105-.071.216-.13.333-.175a24.385 24.385 0 01-.05-3.077 5.43 5.43 0 01.151-.853 5.033 5.033 0 012.137-2.841 5.84 5.84 0 011.172-.581c2.43-.913 5.648-.406 7.371 1.522a5.21 5.21 0 011.238 3.224l-.082 2.732-.015.012z" fill="url(#paint0_linear_1119_3680)"/><defs><linearGradient id="paint0_linear_1119_3680" x1=".45" y1="1.75" x2="48.861" y2="3.525" gradientUnits="userSpaceOnUse"><stop stop-color="#115DF1"/><stop offset="1" stop-color="#6139FF"/></linearGradient></defs></svg>