<svg width="45" height="48" fill="none" xmlns="http://www.w3.org/2000/svg"><path d="M22.317 20.803c.87 0 1.576.706 1.576 1.577v3.329H35.51a4.194 4.194 0 014.194 4.194v2.817a1.377 1.377 0 01-2.753 0v-2.648c0-.89-.72-1.61-1.61-1.61H23.893v3.555a1.576 1.576 0 01-3.152 0v-3.555H9.186c-.89 0-1.61.72-1.61 1.61v2.648a1.377 1.377 0 01-2.753 0v-2.817a4.194 4.194 0 014.194-4.194H20.74v-3.33c0-.87.705-1.576 1.576-1.576zm14.18 22.94l1.014 2.66.509-1.45-.25-.273c-.188-.274-.123-.585.224-.641.117-.02.25-.008.377-.008.135 0 .286-.012.414.016.323.071.357.384.195.633l-.249.273.51 1.45.915-2.66c.66.595 2.44.715 3.168 1.12 1.009.566.982 2.127 1.202 3.137H32.127c.22-1.001.197-2.58 1.202-3.136.895-.498 2.435-.46 3.168-1.12zm-.186-1.783a.459.459 0 01-.249-.055.58.58 0 01-.237-.28c-.109-.244-.196-.888.08-1.073l-.052-.032-.005-.072a7.812 7.812 0 01-.016-.45c-.01-.605-.023-1.338-.522-1.485l-.215-.063.142-.17c.404-.486.824-.91 1.25-1.237.48-.37.97-.615 1.448-.685.492-.073.97.036 1.41.383.13.102.255.226.377.37.47.043.854.29 1.128.641.164.21.288.459.367.722.079.264.114.543.099.819-.027.493-.211.974-.586 1.326a.421.421 0 01.182.045c.21.109.216.345.16.542a7.772 7.772 0 01-.187.518c-.078.217-.194.258-.416.235-.5 2.188-3.526 2.263-4.158.001zm-15.823 1.783l1.013 2.66.508-1.45-.25-.273c-.187-.274-.122-.585.226-.641.117-.02.249-.008.376-.008.135 0 .286-.012.414.016.323.071.357.384.196.633l-.25.273.51 1.45.915-2.66c.661.595 2.44.715 3.169 1.12 1.008.566.981 2.127 1.201 3.137H16.118c.219-1.001.196-2.58 1.201-3.136.895-.498 2.436-.46 3.169-1.12zM20.3 41.96a.458.458 0 01-.248-.055.579.579 0 01-.238-.28c-.108-.244-.195-.888.08-1.073l-.051-.032-.006-.072a7.73 7.73 0 01-.016-.45c-.01-.605-.022-1.338-.522-1.485l-.215-.063.142-.17c.403-.486.825-.91 1.25-1.237.481-.37.97-.615 1.449-.685.492-.073.969.036 1.409.383.13.102.255.226.377.37.47.043.854.29 1.128.641a2.2 2.2 0 01.367.722c.08.264.114.543.099.819-.027.493-.212.974-.585 1.326a.42.42 0 01.182.045c.208.109.215.345.16.542a9.006 9.006 0 01-.188.518c-.078.217-.194.258-.416.235-.5 2.188-3.526 2.263-4.158.001zM4.37 43.743l1.011 2.66.51-1.45-.25-.273c-.187-.274-.123-.585.225-.641.117-.02.249-.008.377-.008.135 0 .286-.012.413.016.323.071.357.384.196.633l-.25.273.51 1.45.916-2.66c.66.595 2.44.715 3.167 1.12 1.01.566.982 2.127 1.203 3.137H0c.218-1.001.196-2.58 1.202-3.136.895-.498 2.435-.46 3.168-1.12zm-.188-1.783a.457.457 0 01-.248-.055.574.574 0 01-.237-.28c-.11-.244-.196-.888.079-1.073l-.05-.032-.007-.072a7.031 7.031 0 01-.015-.45c-.01-.605-.024-1.338-.523-1.485l-.214-.063.14-.17c.404-.486.826-.91 1.25-1.237.483-.37.972-.615 1.45-.685.492-.073.968.036 1.409.383.13.102.256.226.378.37.47.043.854.29 1.127.641.164.21.288.459.368.722.079.266.112.542.098.819-.027.493-.212.974-.585 1.326a.424.424 0 01.182.045c.208.109.215.345.16.542a8.998 8.998 0 01-.187.518c-.079.217-.194.258-.417.235-.5 2.188-3.526 2.263-4.158.001zm14.952-29.293l1.732 4.548.87-2.48-.427-.465c-.32-.47-.21-1.002.384-1.098.228-.036 1.139-.033 1.353.015.552.121.609.656.334 1.083l-.427.466.87 2.48 1.568-4.55c1.13 1.019 4.172 1.223 5.417 1.918 1.725.965 1.678 2.911 2.055 4.638H11.661c.375-1.712.337-3.689 2.056-4.638 1.53-.853 4.165-.788 5.418-1.917zm-.32-3.048a.78.78 0 01-.424-.095c-.186-.102-.316-.28-.405-.48-.187-.417-.336-1.518.135-1.833l-.087-.057-.01-.122c-.019-.22-.023-.489-.028-.77-.017-1.034-.038-2.288-.893-2.54l-.367-.107.242-.292c.69-.83 1.412-1.557 2.138-2.115.823-.63 1.66-1.05 2.478-1.171.841-.125 1.656.063 2.409.656.223.174.439.385.647.63.802.077 1.46.498 1.928 1.1.28.358.493.783.628 1.234.135.45.193.928.169 1.4-.046.842-.362 1.666-1.002 2.267a.72.72 0 01.312.078c.356.185.367.588.274.927-.093.282-.21.61-.32.886-.135.37-.332.44-.714.4-.855 3.744-6.029 3.871-7.11.004z" fill="url(#paint0_linear_1119_3678)"/><defs><linearGradient id="paint0_linear_1119_3678" x1=".417" y1="1.75" x2="45.334" y2="3.278" gradientUnits="userSpaceOnUse"><stop stop-color="#115DF1"/><stop offset="1" stop-color="#6139FF"/></linearGradient></defs></svg>