<svg width="48" height="48" fill="none" xmlns="http://www.w3.org/2000/svg"><path d="M22.909 25.082l21.38-.344.012 1.11a22.07 22.07 0 01-6.486 15.664A22.083 22.083 0 0122.152 48a22.085 22.085 0 01-15.664-6.488A22.087 22.087 0 010 25.848c0-6.116 2.48-11.655 6.488-15.663A22.082 22.082 0 0122.15 3.696h.758v21.386zm2.812-3.102L25.805 0c12.107.047 21.896 9.873 21.896 21.98h-21.98zm17.064 4.291l-21.39.343V5.224a20.57 20.57 0 00-13.836 6.031 20.574 20.574 0 00-6.045 14.593c0 5.7 2.31 10.858 6.045 14.593a20.572 20.572 0 0014.592 6.045c5.7 0 10.86-2.31 14.594-6.045a20.571 20.571 0 006.04-14.17z" fill="url(#paint0_linear_1119_3676)"/><defs><linearGradient id="paint0_linear_1119_3676" x1=".447" y1="1.75" x2="48.558" y2="3.503" gradientUnits="userSpaceOnUse"><stop stop-color="#115DF1"/><stop offset="1" stop-color="#6139FF"/></linearGradient></defs></svg>