<svg width="48" height="43" fill="none" xmlns="http://www.w3.org/2000/svg"><path fill-rule="evenodd" clip-rule="evenodd" d="M15.623 28.477c2.1 6.179 10.869 6.405 12.837 0a6.39 6.39 0 001.953 1.105 12.142 12.142 0 00-.683 11.912H0c.781-3.827.293-7.073 3.874-9.076 2.559-1.43 9.405-1.851 11.748-3.941zm32.049 8.983c.21.34.323.732.328 1.133 0 2.089-3.234 3.784-7.218 3.784-3.983 0-7.213-1.695-7.213-3.785.006-.4.119-.79.328-1.132.918 1.539 3.656 2.652 6.885 2.652 3.23 0 5.972-1.113 6.89-2.652zm-4.296-9.53l-.086.941-3.543-.308c.295.374.503.81.61 1.273l-.856-.078a2.76 2.76 0 00-.39-.832 1.69 1.69 0 00-.734-.66l.066-.781 4.925.426.008.02zm-2.61-1.468c3.278 0 5.933 1.043 5.933 2.343s-2.655 2.343-5.932 2.343c-3.277 0-5.929-1.046-5.929-2.343s2.656-2.343 5.929-2.343zm0-.782c3.985 0 7.218 1.696 7.218 3.785 0 2.09-3.233 3.78-7.217 3.78-3.984 0-7.214-1.694-7.214-3.78 0-2.085 3.23-3.785 7.214-3.785zm6.914 7.335c.195.33.3.704.304 1.086 0 2.086-3.233 3.78-7.217 3.78-3.984 0-7.206-1.698-7.206-3.784 0-.383.105-.758.305-1.086.886 1.563 3.644 2.695 6.909 2.695 3.265 0 6.022-1.14 6.913-2.695l-.008.004zM14.01 15.682a1.952 1.952 0 00-1 .262.782.782 0 00-.285.332 1.125 1.125 0 00-.094.52c0 .6.332 1.39.945 2.3l1.992 3.167c.78 1.266 1.632 2.558 2.667 3.515a5.421 5.421 0 003.804 1.531 5.61 5.61 0 004.027-1.597c1.07-1 1.918-2.375 2.734-3.746l2.234-3.683c.418-.953.57-1.59.473-1.953-.055-.222-.301-.331-.723-.351h-.582a.618.618 0 01-.172 0c-.205.01-.41 0-.613-.031l.781-3.39c-5.683.894-9.932-3.328-15.943-.84l.438 3.995a3.25 3.25 0 01-.684-.027v-.004zm17.555-.71a1.43 1.43 0 011.047 1.081c.16.625 0 1.504-.547 2.71l-.031.067-2.261 3.726c-.872 1.433-1.758 2.875-2.938 3.98a6.639 6.639 0 01-4.792 1.898 6.503 6.503 0 01-4.561-1.824 17.784 17.784 0 01-2.863-3.734l-1.988-3.155a5.8 5.8 0 01-1.125-2.883c-.01-.355.062-.708.21-1.03.154-.318.39-.588.684-.782.15-.1.311-.181.48-.242a50.587 50.587 0 01-.093-5.675c.037-.438.113-.872.226-1.297a7.589 7.589 0 013.351-4.276 10.613 10.613 0 012.813-1.25c.628-.18-.54-2.195.117-2.261 3.152-.32 8.248 2.554 10.451 4.936 1.101 1.195 1.789 2.77 1.953 4.863l-.121 5.147h-.012z" fill="url(#paint0_linear_1119_3675)"/><defs><linearGradient id="paint0_linear_1119_3675" x1=".45" y1="1.545" x2="48.843" y2="3.555" gradientUnits="userSpaceOnUse"><stop stop-color="#115DF1"/><stop offset="1" stop-color="#6139FF"/></linearGradient></defs></svg>