<svg width="58" height="48" fill="none" xmlns="http://www.w3.org/2000/svg"><path fill-rule="evenodd" clip-rule="evenodd" d="M1.573 0H56.31c.867 0 1.574.707 1.574 1.573v36.262c0 .867-.707 1.573-1.574 1.573H1.573A1.576 1.576 0 010 37.835V1.573C0 .707.707 0 1.573 0zm20.232 41.58h14.273c.037 2.468 1.055 4.682 3.81 6.42H17.995c2.205-1.597 3.82-3.538 3.81-6.42zM3.453 2.247h50.982c.767 0 1.39.626 1.39 1.39v28.376c0 .763-.627 1.39-1.39 1.39H3.453c-.763 0-1.39-.627-1.39-1.39V3.637a1.39 1.39 0 011.39-1.39z" fill="url(#paint0_linear_1119_3671)"/><path d="M36.954 28.588a.347.347 0 01.141-.033l-.141.033z" fill="url(#paint1_linear_1119_3671)"/><path d="M15.88 13.891h-.825V11.48h.956c.627 0 1.055.118 1.281.354.231.235.344.523.344.862 0 .348-.132.636-.39.857-.265.226-.722.34-1.367.34z" fill="url(#paint2_linear_1119_3671)"/><path d="M25.587 12.068l1.178 3.886H24.4l1.187-3.886z" fill="url(#paint3_linear_1119_3671)"/><path fill-rule="evenodd" clip-rule="evenodd" d="M45.607 5.205H7.547a2.253 2.253 0 00-2.248 2.247v14.405a2.265 2.265 0 002.247 2.247h34.137l-.424-5.432c-.226-2.967-.202-3.005 2.275-1.639l4.32 2.388V7.452a2.265 2.265 0 00-2.247-2.247zM17.26 9.27h-5.55v10.801h3.35v-3.994h1.827c1.352 0 2.355-.306 3.01-.923.655-.613.985-1.47.985-2.558 0-1.07-.306-1.889-.905-2.464-.603-.574-1.507-.862-2.718-.862zm6.43 9.02h3.783l.537 1.781h3.495l-4.047-10.8h-3.655l-4.065 10.8h3.41l.542-1.78zm9.704-9.02h-3.707l4.21 6.28v4.521h3.35V15.55l4.192-6.279h-3.683l-2.177 3.637-2.185-3.637z" fill="url(#paint4_linear_1119_3671)"/><path d="M49.187 30.585a.056.056 0 00.047-.005c.005-.004.01-.004.019-.009l1.649-.951a.172.172 0 00.033-.047c0-.015 0-.029-.005-.034l-1.884-3.226a.5.5 0 01-.033-.09.29.29 0 01.226-.343l2.652-.472h.014c.226-.047.42-.127.551-.23.066-.052.108-.1.122-.146.01-.029.005-.066-.018-.109a.728.728 0 00-.236-.23l-8.21-5.639c-.594-.42-.631-.188-.575.532l.773 9.713a.7.7 0 00.08.316c.023.038.051.061.084.066.052.014.114 0 .189-.028a1.3 1.3 0 00.476-.368l1.653-1.992a.82.82 0 00.07-.062.293.293 0 01.401.109l1.898 3.217c.005.019.01.024.024.028z" fill="url(#paint5_linear_1119_3671)"/><defs><linearGradient id="paint0_linear_1119_3671" x1=".543" y1="1.75" x2="58.886" y2="4.33" gradientUnits="userSpaceOnUse"><stop stop-color="#115DF1"/><stop offset="1" stop-color="#6139FF"/></linearGradient><linearGradient id="paint1_linear_1119_3671" x1=".543" y1="1.75" x2="58.886" y2="4.33" gradientUnits="userSpaceOnUse"><stop stop-color="#115DF1"/><stop offset="1" stop-color="#6139FF"/></linearGradient><linearGradient id="paint2_linear_1119_3671" x1=".543" y1="1.75" x2="58.886" y2="4.33" gradientUnits="userSpaceOnUse"><stop stop-color="#115DF1"/><stop offset="1" stop-color="#6139FF"/></linearGradient><linearGradient id="paint3_linear_1119_3671" x1=".543" y1="1.75" x2="58.886" y2="4.33" gradientUnits="userSpaceOnUse"><stop stop-color="#115DF1"/><stop offset="1" stop-color="#6139FF"/></linearGradient><linearGradient id="paint4_linear_1119_3671" x1=".543" y1="1.75" x2="58.886" y2="4.33" gradientUnits="userSpaceOnUse"><stop stop-color="#115DF1"/><stop offset="1" stop-color="#6139FF"/></linearGradient><linearGradient id="paint5_linear_1119_3671" x1=".543" y1="1.75" x2="58.886" y2="4.33" gradientUnits="userSpaceOnUse"><stop stop-color="#115DF1"/><stop offset="1" stop-color="#6139FF"/></linearGradient></defs></svg>