<svg width="84" height="48" fill="none" xmlns="http://www.w3.org/2000/svg"><path fill-rule="evenodd" clip-rule="evenodd" d="M2.155 43.698h7.766a1.452 1.452 0 01-.375-.975V1.466A1.473 1.473 0 0111.02 0h61.364a1.466 1.466 0 011.459 1.466v41.257c.002.36-.13.706-.368.975h8.181a2.12 2.12 0 012.112 1.723A2.162 2.162 0 0181.662 48H2.155a2.155 2.155 0 01-1.52-3.682 2.12 2.12 0 011.52-.634v.014zm54.628-10.044l1.854.914v-27.6h-33.9v27.593l1.923-.947a.744.744 0 01.873.157l3.15 3.156 3.225-3.075a.75.75 0 011.043 0l3.116 3.11 3.013-3.103a.75.75 0 011.044 0l3.313 3.055L48.58 33.9a.743.743 0 011.044 0l3.15 3.061 3.136-3.17a.75.75 0 01.873-.136zm-25.684-5.897l-.369-.048-.64-.088-.396-.069-.375-.075-.368-.088-.15-.041v-2.489l.682.055.518.034h2.113c.134.008.269.008.403 0 .103-.007.206-.023.306-.048a.682.682 0 00.225-.075c.05-.02.094-.05.13-.089a.273.273 0 00.068-.102.598.598 0 000-.163v-.13a.336.336 0 00-.123-.287.437.437 0 00-.17-.081.68.68 0 00-.211 0h-.696a5.507 5.507 0 01-1.452-.177 2.926 2.926 0 01-1.091-.614 2.319 2.319 0 01-.682-1.023 4.526 4.526 0 01-.184-1.459v-.457a3.67 3.67 0 01.246-1.363c.155-.396.408-.746.736-1.016.222-.191.467-.354.73-.485a2.96 2.96 0 01.784-.231v-1.132h2.277v1.03c.375.034.682.081 1.043.15h.19l.485.095.43.095.156.035v2.556h-.225l-.681-.054-.716-.055h-1.425a2.727 2.727 0 00-.348 0l-.3.034a.912.912 0 00-.218.069.75.75 0 00-.143.095.368.368 0 00-.075.123.681.681 0 000 .211v.136a.68.68 0 000 .225.442.442 0 00.109.143c.06.044.126.077.197.096.115.023.231.035.348.034h.9c.31-.001.618.03.92.096.272.06.533.16.778.293.438.252.793.627 1.023 1.077a2.9 2.9 0 01.28.682c.06.261.09.53.088.798v.45c.004.4-.037.801-.123 1.193a2.535 2.535 0 01-.368.906c-.16.243-.36.455-.593.628a2.828 2.828 0 01-.805.382h-.075a4.412 4.412 0 01-.845.177v1.2h-2.319v-1.16zm16.663-1.46a.852.852 0 010 1.705h-7.977a.852.852 0 110-1.704h7.977zm6.136-4.67a.852.852 0 010 1.698H39.785a.85.85 0 01-.651-1.478.853.853 0 01.65-.22h14.114zm0-4.622a.854.854 0 01.856 1.192.85.85 0 01-.855.505H39.77a.852.852 0 010-1.698h14.127zm-1.813-7.712c.48 0 .942.192 1.282.532a1.8 1.8 0 01.538 1.289 1.813 1.813 0 01-1.82 1.84 1.827 1.827 0 01-1.827-1.82 1.827 1.827 0 011.827-1.82v-.02zm-6.934 0a1.82 1.82 0 11-.698 3.504 1.814 1.814 0 01-1.123-1.683 1.815 1.815 0 011.82-1.82zm-6.928 0a1.814 1.814 0 011.82 1.82 1.81 1.81 0 01-1.82 1.841 1.82 1.82 0 01-1.288-.531 1.841 1.841 0 01-.395-1.987 1.813 1.813 0 011.684-1.122v-.02zm-6.927 0a1.813 1.813 0 011.82 1.82 1.815 1.815 0 01-1.82 1.841 1.827 1.827 0 01-1.827-1.82A1.8 1.8 0 0130 9.825a1.822 1.822 0 011.288-.532h.007zM59.08 36.436l-2.488-1.206-3.307 3.306a.757.757 0 01-1.05 0l-3.143-3.081-3.137 2.993a.757.757 0 01-1.043 0l-3.32-2.993-3.041 3.136a.75.75 0 01-1.064 0l-3.102-3.136-3.232 3.075a.75.75 0 01-1.043 0l-3.273-3.307-2.461 1.186a.749.749 0 01-1.132-.648V6.218a.75.75 0 01.75-.763h35.414a.75.75 0 01.75.75V35.76a.777.777 0 01-.082.328.741.741 0 01-.996.347zM12.035 2.298H71.53v40.016H12.055V2.298h-.02zm27.45 42.484h4.834a.818.818 0 01.818.818.825.825 0 01-.818.825h-4.834a.825.825 0 01-.579-1.403.818.818 0 01.579-.24z" fill="url(#paint0_linear_1119_3670)"/><defs><linearGradient id="paint0_linear_1119_3670" x1=".786" y1="1.75" x2="85.081" y2="7.148" gradientUnits="userSpaceOnUse"><stop stop-color="#115DF1"/><stop offset="1" stop-color="#6139FF"/></linearGradient></defs></svg>