<svg width="63" height="48" fill="none" xmlns="http://www.w3.org/2000/svg"><path fill-rule="evenodd" clip-rule="evenodd" d="M50.261.542a4.902 4.902 0 11-2.635 9.035.772.772 0 01-.107.118L43.882 13.2a16.356 16.356 0 014.159 10.104h5.085a4.902 4.902 0 11.077 1.99c-.025 0-.051.005-.077.005h-5.11a16.336 16.336 0 01-4.288 9.931l3.852 3.581c.036.036.072.072.103.113a4.884 4.884 0 012.573-.727 4.902 4.902 0 11-4.016 2.093l-.015-.015-3.935-3.653a16.323 16.323 0 01-10.616 3.903 16.329 16.329 0 01-10.897-4.144l-3.97 3.868-.005.005a4.86 4.86 0 01.854 2.768 4.902 4.902 0 11-2.292-4.15.243.243 0 01.051-.05l3.955-3.853a16.326 16.326 0 01-4.052-9.787l-5.577.056h-.03a4.902 4.902 0 11-.015-1.99h.025l5.587-.056a16.338 16.338 0 014.062-9.885l-4.16-3.975c-.03-.03-.061-.061-.087-.097a4.85 4.85 0 01-2.287.562 4.902 4.902 0 01-4.9-4.9 4.9 4.9 0 019.802.004c0 1.157-.4 2.22-1.075 3.06l4.114 3.929a16.325 16.325 0 0110.892-4.144c4.134 0 7.91 1.53 10.795 4.057l3.674-3.54c.02-.02.046-.041.071-.062A4.902 4.902 0 0150.261.542zM29.372 25.827l1.366 4.016.686-2.384-.338-.369c-.154-.22-.184-.414-.102-.583.184-.363.557-.292.91-.292.369 0 .824-.071.942.394.04.154-.01.317-.118.481l-.338.369.686 2.384 1.238-4.017c.89.804 3.535.962 4.518 1.515.312.174.593.394.818.69.343.45.553 1.044.609 1.791l.205 1.99c-.051.532-.353.84-.942.88H24.17c-.594-.046-.896-.353-.942-.88l.205-1.99c.056-.752.266-1.34.609-1.79.225-.297.506-.517.819-.691.982-.553 3.622-.711 4.512-1.515zm-.368-6.073c.015.03.02.061.02.097 0 .015 0 .03-.005.05l.026.19c-.067.016-.128.016-.19.016a.233.233 0 01-.082.015c-.168.005-.291.036-.373.092a.26.26 0 00-.092.108.35.35 0 00-.03.184c.004.225.127.516.357.86l.005.004.763 1.213c.307.486.624.977 1.018 1.34.373.343.834.578 1.432.578.655 0 1.131-.24 1.52-.603.41-.379.732-.906 1.049-1.433l.86-1.412c.173-.394.224-.634.168-.747-.036-.077-.19-.092-.445-.072a.266.266 0 01-.205-.071c-.02 0-.04 0-.061-.005l.01-.062a.307.307 0 01-.03-.097.268.268 0 01.091-.225l.18-.905c-1.571-.021-2.646-.292-3.92-1.106-.419-.266-.542-.573-.961-.542a1.426 1.426 0 00-.793.43c-.205.22-.353.517-.456.895l.144 1.208zm6.502.005a.62.62 0 01.4.322c.127.26.076.65-.164 1.202l-.016.031-.87 1.433c-.337.552-.68 1.11-1.135 1.54a2.58 2.58 0 01-1.873.741c-.752 0-1.32-.291-1.785-.716-.445-.41-.788-.931-1.11-1.443l-.763-1.212c-.286-.425-.43-.814-.44-1.13a.93.93 0 01.077-.42.798.798 0 01.276-.323.85.85 0 01.205-.102 19.705 19.705 0 01-.03-2.133 2.92 2.92 0 01.091-.497c.195-.696.686-1.258 1.29-1.642a3.29 3.29 0 01.695-.338c1.469-.532 3.408-.24 4.451.885.425.46.691 1.064.747 1.873l-.046 1.929zm6.334-5.807a1.178 1.178 0 01-.082-.077c-.015-.015-.025-.03-.04-.046a14.336 14.336 0 00-10.039-4.083 14.34 14.34 0 00-10.053 4.093c-.03.046-.066.087-.102.128a1.067 1.067 0 01-.164.138 14.357 14.357 0 00-4.072 10.028c0 3.975 1.611 7.572 4.215 10.176a14.345 14.345 0 0010.176 4.216c3.976 0 7.572-1.612 10.177-4.216a14.345 14.345 0 004.215-10.176c0-3.975-1.611-7.572-4.215-10.176l-.016-.005z" fill="url(#paint0_linear_1119_3674)"/><defs><linearGradient id="paint0_linear_1119_3674" x1=".589" y1="1.75" x2="63.93" y2="4.792" gradientUnits="userSpaceOnUse"><stop stop-color="#115DF1"/><stop offset="1" stop-color="#6139FF"/></linearGradient></defs></svg>