<svg width="48" height="48" fill="none" xmlns="http://www.w3.org/2000/svg"><path fill-rule="evenodd" clip-rule="evenodd" d="M17.035 28.465h4.646c.395 0 .726.3.726.675v3.649c0 .367-.323.676-.726.676h-4.646c-.394 0-.726-.301-.726-.676V29.14c.004-.375.328-.675.726-.675zm18.802-.863a40.976 40.976 0 01-1.087-3.41c1.159-1.184 5.633-1.028 6.925-.02l-1.192 2.636c.642-.785.857-1.105 1.238-1.543.164.098.311.208.454.329.34.285.642.601.7 1.039.038.285-.046.574-.323.87L39.82 30.47a6.417 6.417 0 01-1.028-.242c.155-.34.344-.715.5-1.055l-.995 1c-1.037-.203-1.872-.082-2.648.3l-2.775-3.097c-.163-.184-.239-.367-.239-.555.004-.746 1.2-1.394 1.83-1.64l1.372 2.422zM2.741 0h33.23a2.826 2.826 0 011.986.8 2.45 2.45 0 01.755 1.75v18.36a12.207 12.207 0 00-1.641.016V2.55a.968.968 0 00-.29-.692l-.033-.03a1.133 1.133 0 00-.776-.302H2.74c-.303 0-.58.114-.777.297l-.004.004a.98.98 0 00-.319.723v41.828c0 .265.11.512.29.691l.033.031c.202.188.474.301.777.301h22.516c.088.313.197.625.327.934.088.21.185.406.294.593H2.741c-.752 0-1.44-.285-1.935-.75-.017-.015-.034-.035-.05-.05A2.45 2.45 0 010 44.379V2.55c0-.7.306-1.335.806-1.8L.81.746A2.83 2.83 0 012.74 0zm3.39 4.98h26.445c.403 0 .764.153 1.024.395.021.02.042.039.06.062.226.239.364.551.364.895v7.691c0 .372-.163.707-.424.954l-.004.003a1.496 1.496 0 01-1.024.395H6.132c-.403 0-.764-.152-1.024-.395a.424.424 0 01-.06-.062 1.293 1.293 0 01-.364-.895V6.332c0-.367.163-.703.428-.95l.004-.003c.26-.246.621-.399 1.016-.399zm.194 1.528v7.34h26.067v-7.34H6.325zm33.071 26.691l-.541-2.305c2.317.403 6.035 4.79 7.235 6.786.613 1.02 1.15 2.14 1.591 3.394.873 3.035.034 5.875-3.504 6.54-2.216.413-6.35.44-8.684.331-2.505-.12-6.388-.117-7.399-2.512-1.637-3.867 1.36-8.472 4.092-11.292.361-.372.73-.715 1.116-1.036.995-.812 2.065-1.777 3.345-2.183l-1.238 2.14 1.797-2.214h.944l1.246 2.351zm-1.154 1.89v.407c.462.047.86.133 1.192.266.332.132.621.335.869.605.197.207.348.418.453.637.105.218.16.418.16.601 0 .204-.08.38-.235.524a.834.834 0 01-.58.218c-.428 0-.7-.214-.826-.64-.143-.504-.487-.84-1.033-1.004v2.516c.537.136.965.261 1.284.375.32.113.605.273.857.488a2.3 2.3 0 01.62.793c.143.308.219.644.219 1.012 0 .46-.113.89-.348 1.289-.231.402-.575.726-1.024.984-.454.254-.987.406-1.608.453v.41c0 .239-.025.41-.075.52-.05.11-.156.164-.328.164-.155 0-.264-.043-.327-.133-.063-.09-.092-.227-.092-.414v-.54a4.36 4.36 0 01-1.33-.331 3.088 3.088 0 01-.95-.633 2.623 2.623 0 01-.557-.785 1.967 1.967 0 01-.181-.8.71.71 0 01.243-.524.856.856 0 01.605-.23.93.93 0 01.495.124.68.68 0 01.281.356c.118.332.218.582.302.761.088.176.219.336.395.48.176.145.407.259.697.333v-2.813a8.54 8.54 0 01-1.457-.5 2.392 2.392 0 01-.948-.78c-.24-.34-.365-.774-.365-1.306 0-.695.235-1.261.709-1.703.474-.441 1.158-.703 2.056-.773v-.395c0-.34.139-.507.412-.507.277 0 .415.164.415.496zm-.827 3.903v-2.316c-.365.101-.65.234-.852.398-.205.164-.306.418-.306.754 0 .316.097.559.285.723.194.16.483.308.873.441zm.827 1.793v2.652c.437-.082.772-.242 1.012-.488a1.22 1.22 0 00.356-.86c0-.35-.117-.62-.348-.812-.23-.195-.57-.36-1.02-.492zM29.14 7.801h.949v4.754h-.949V7.8zM6.744 19.793h4.646c.395 0 .726.3.726.676v3.648c0 .367-.323.676-.726.676H6.744c-.394 0-.726-.3-.726-.676V20.47c.005-.375.332-.676.726-.676zm0 17.344h4.646c.395 0 .726.3.726.675v3.649c0 .37-.323.676-.726.676H6.744c-.394 0-.726-.301-.726-.676v-3.649c.005-.37.332-.675.726-.675zm0-8.672h4.646c.395 0 .726.3.726.675v3.649c0 .367-.323.676-.726.676H6.744c-.394 0-.726-.301-.726-.676V29.14c.005-.375.332-.675.726-.675zm20.586-8.672h4.642c.395 0 .722.3.722.676v2.12a2.416 2.416 0 00-.533.938 6.415 6.415 0 00-.91.668 4.6 4.6 0 00-.563.598h-3.354c-.394 0-.726-.3-.726-.676V20.47c-.004-.375.323-.676.722-.676zm0 8.672h3.09c.104.168.23.332.373.496l.004-.004 1.481 1.652c-.16.13-.314.258-.465.383l-.303.246.005.008-.017.012c-.26.215-.483.41-.672.586-.256.234-.47.445-.65.632-.298.309-.6.637-.903.985h-1.947c-.395 0-.726-.301-.726-.676v-3.644c.004-.375.331-.676.73-.676zm-10.295-8.672h4.646c.395 0 .726.3.726.676v3.648c0 .367-.323.676-.726.676h-4.646c-.394 0-.726-.3-.726-.676V20.47c.004-.375.328-.676.726-.676zm0 17.344h4.646c.395 0 .726.3.726.675v3.649c0 .37-.323.676-.726.676h-4.646c-.394 0-.726-.301-.726-.676v-3.649c.004-.37.328-.675.726-.675z" fill="url(#paint0_linear_1119_3672)"/><defs><linearGradient id="paint0_linear_1119_3672" x1=".45" y1="1.75" x2="48.862" y2="3.525" gradientUnits="userSpaceOnUse"><stop stop-color="#115DF1"/><stop offset="1" stop-color="#6139FF"/></linearGradient></defs></svg>