<svg width="48" height="45" fill="none" xmlns="http://www.w3.org/2000/svg"><path fill-rule="evenodd" clip-rule="evenodd" d="M0 26.41c-.023-2.277.844-4.296 2.879-4.956l.05-.086c.06-.117.14-.222.235-.312a1.21 1.21 0 01.41-.195l.113-.043C13.552 17.193 18 11.754 20.557 8.059c0 3.628.91 8.357 2.512 12.934 1.644 4.687 4.018 9.26 6.916 12.403-3.019-.859-6.807-1.952-12.97-1.113a5.927 5.927 0 00-.437 1.976 1.524 1.524 0 00.39 1.172l.094.086c.39.355.582.531.668.847.058.42.04.845-.05 1.258l-.036.261c-.144 1.145.41 1.379.96 1.613.552.235.981.422 1.204 1.05a.267.267 0 010 .157c-.227 1.172-.977 1.812-1.73 2.456-.184.16-.371.32-.531.473h-.024c-1.53 1.226-2.566.898-3.35-.086-.617-.781-1.047-1.953-1.445-3.05l-.172-.476a47.977 47.977 0 01-1.562-5.893l-.133-.586c-.34.094-.695.199-1.066.308-.469.137-.937.285-1.402.434l-.149.054a.473.473 0 01-.519 0c-2.464.82-4.522-.351-5.897-2.304A9.764 9.764 0 01.496 29.34 10.052 10.052 0 010 26.409zM34.292 6.32a1.171 1.171 0 01-1.652-.234l-.027-.035a1.191 1.191 0 01.246-1.636C34.757 3.014 36.647 1.6 38.545.229a1.2 1.2 0 01.867-.218c.313.048.593.217.781.472v.02c.18.252.253.565.203.87a1.171 1.171 0 01-.472.782L34.292 6.32zm6.167 22.534a1.172 1.172 0 01-.824-.364 1.172 1.172 0 01-.332-.835v-.028a1.173 1.173 0 011.199-1.171c2.097 0 4.229.078 6.326.117A1.199 1.199 0 0148 27.784a1.207 1.207 0 01-.752 1.093c-.144.058-.3.086-.455.083l-6.323-.121-.011.016zm.183-6.136a1.17 1.17 0 01-1.27-1.085v-.028a1.2 1.2 0 011.083-1.26c1.952-.157 3.94-.325 5.897-.45a1.194 1.194 0 011.265 1.097 1.17 1.17 0 01-.285.863 1.2 1.2 0 01-.813.414 134.14 134.14 0 01-5.877.445v.004zm-.843-5.697a1.195 1.195 0 01-1.477-.824 1.172 1.172 0 01.106-.899 1.21 1.21 0 01.715-.57c2.034-.535 4.06-1.19 6.096-1.737a1.172 1.172 0 01.898.105 1.2 1.2 0 01.566.703 1.199 1.199 0 01-.82 1.476l-6.088 1.738.004.008zm-2.46-5.593a1.19 1.19 0 01-1.598-.535 1.17 1.17 0 01-.066-.91c.1-.3.315-.548.597-.69l5.858-2.926a1.172 1.172 0 011.597.535 1.171 1.171 0 01.063.91 1.199 1.199 0 01-.598.688l-5.858 2.928h.004zM22.943 4.697c.05-.059.105-.113.156-.164a1.75 1.75 0 01.578-.434 1.39 1.39 0 01.78-.03c.88.14 1.82.78 2.777 1.76 2.344 2.418 4.812 7.03 6.57 11.876 1.756 4.847 2.81 9.904 2.284 13.188-.2 1.222-.614 2.21-1.293 2.863l-.035.027c-.286.205-.617.34-.965.39a.943.943 0 00-.097-.078c-2.34-1.671-4.41-4.444-6.151-7.705.445.086 1.015-.246 1.562-.812 2.734-2.882 1.39-7.92-2.019-9.087-1.39-.469-2.773-.469-3.32-.2l-.058.032c-1.25-4.823-1.605-9.283-.77-11.626z" fill="url(#paint0_linear_1119_3682)"/><defs><linearGradient id="paint0_linear_1119_3682" x1=".45" y1="1.62" x2="48.851" y2="3.538" gradientUnits="userSpaceOnUse"><stop stop-color="#115DF1"/><stop offset="1" stop-color="#6139FF"/></linearGradient></defs></svg>