<svg width="48" height="36" fill="none" xmlns="http://www.w3.org/2000/svg"><path fill-rule="evenodd" clip-rule="evenodd" d="M3.25 0h41.5A3.26 3.26 0 0148 3.25v29.148a3.26 3.26 0 01-3.25 3.25H3.25A3.26 3.26 0 010 32.397V3.249A3.26 3.26 0 013.25 0zm16.304 24.784a1.3 1.3 0 01-1.713 1.956l-4.943-4.33a1.301 1.301 0 01.007-1.963l4.936-4.326a1.3 1.3 0 011.713 1.958l-3.827 3.352 3.827 3.353zm10.604 1.956a1.3 1.3 0 11-1.713-1.956l3.827-3.353-3.827-3.352a1.3 1.3 0 011.713-1.958l4.937 4.326a1.301 1.301 0 01.007 1.963l-4.944 4.33zm-6.183-11.654a1.304 1.304 0 012.538.592L23.69 27.775a1.303 1.303 0 01-2.538-.59l2.824-12.099zM2.065 9.098v23.617a.896.896 0 00.9.899h42.203a.895.895 0 00.9-.9V9.099H2.064zm39.593-5.446a1.605 1.605 0 110 3.21 1.605 1.605 0 010-3.21zm-10.878 0a1.605 1.605 0 110 3.21 1.605 1.605 0 010-3.21zm5.44 0a1.606 1.606 0 11-.002 3.212 1.606 1.606 0 01.001-3.212z" fill="url(#paint0_linear_1119_3681)"/><defs><linearGradient id="paint0_linear_1119_3681" x1=".45" y1="1.3" x2="48.809" y2="3.688" gradientUnits="userSpaceOnUse"><stop stop-color="#115DF1"/><stop offset="1" stop-color="#6139FF"/></linearGradient></defs></svg>