<svg width="48" height="48" fill="none" xmlns="http://www.w3.org/2000/svg"><path d="M45.747 44.42l-.877-.977-4.264 4.123c-.24.229-.564.357-.9.357-.338 0-.661-.128-.901-.357l-4.346-4.076-4.256 3.951c-.233.231-.55.366-.884.375a1.314 1.314 0 01-.905-.324l-4.519-4.033-4.172 4.178c-.242.232-.57.363-.91.363a1.31 1.31 0 01-.91-.363l-4.298-4.178-4.442 4.076a1.304 1.304 0 01-.901.343 1.302 1.302 0 01-.892-.366l-4.2-4.116-.848.949c-.16.212-.385.37-.644.45-.258.081-.537.08-.795-.002a1.282 1.282 0 01-.641-.454A1.214 1.214 0 010 43.607V1.242C.001.912.137.597.377.365A1.31 1.31 0 011.284 0h45.428c.34 0 .668.13.91.363.24.233.377.549.378.879v42.365a1.223 1.223 0 01-.12.515 1.26 1.26 0 01-.328.422 1.308 1.308 0 01-1.805-.125zM10.633 31.041c-.226 0-.36-.04-.525-.063l-.913-.132-.565-.09a12.736 12.736 0 01-.545-.106c-.194-.043-.372-.081-.53-.125l-.213-.054v-3.413l.997.078.735.043.768.035.783.024h2.023c.15-.014.298-.036.444-.067a1.45 1.45 0 00.311-.101.748.748 0 00.19-.125.409.409 0 00.093-.14.65.65 0 00.036-.227v-.227a.426.426 0 00-.181-.39.861.861 0 00-.243-.117 1.021 1.021 0 00-.299-.04h-1.03a7.65 7.65 0 01-2.063-.25 4.133 4.133 0 01-1.547-.78 3.162 3.162 0 01-.96-1.402 5.967 5.967 0 01-.312-2.026v-.621a5 5 0 01.344-1.91 3.456 3.456 0 011.05-1.397 4.94 4.94 0 011.033-.66 4.3 4.3 0 011.123-.324V14.92h3.255v1.452c.499.043.995.113 1.486.207l.27.047.683.125c.214.043.404.086.61.133l.222.05v3.42l-.315-.026-.94-.067-1.059-.055-1.058-.035h-1.458a4.42 4.42 0 00-.428.051 1.334 1.334 0 00-.307.09.726.726 0 00-.198.137.409.409 0 00-.109.167.862.862 0 00-.04.29v.19a.759.759 0 00.052.305.51.51 0 00.15.192.767.767 0 00.287.128c.158.038.321.055.484.051h1.284c.442-.002.882.043 1.313.133.383.078.751.21 1.094.39a3.572 3.572 0 011.478 1.469 4.2 4.2 0 01.376 1.003 4.8 4.8 0 01.121 1.093v.621a7.148 7.148 0 01-.182 1.632c-.093.442-.27.863-.52 1.242-.227.337-.516.63-.853.863-.345.237-.73.414-1.139.523l-.109.032c-.394.12-.8.204-1.211.25v1.64h-3.243v-1.621zm23.653-2c.321 0 .63.124.856.344.228.22.355.518.355.828 0 .31-.127.609-.355.828a1.23 1.23 0 01-.856.343H22.958c-.321 0-.63-.123-.857-.343a1.152 1.152 0 01-.354-.828c0-.31.127-.608.354-.828.228-.22.536-.343.857-.343h11.328zm6.324-6.395c.321 0 .63.123.857.343.227.22.354.518.354.828 0 .311-.127.609-.354.829-.228.22-.536.343-.857.343H22.958c-.321 0-.63-.124-.857-.343a1.152 1.152 0 01-.354-.829c0-.31.127-.608.354-.828.228-.22.536-.343.857-.343H40.61zm.04-6.349c.322 0 .63.123.857.343.227.22.355.518.355.828 0 .311-.128.609-.355.829a1.23 1.23 0 01-.857.343H22.958c-.321 0-.63-.124-.857-.343a1.152 1.152 0 01-.354-.829c0-.31.127-.608.354-.828.228-.22.536-.343.857-.343H40.65zM38.768 6.122c.495 0 .974.166 1.356.47.382.302.643.724.74 1.193a2 2 0 01-.211 1.376c-.233.422-.61.752-1.066.935a2.205 2.205 0 01-1.438.069 2.132 2.132 0 01-1.156-.83 2.014 2.014 0 01.265-2.607c.198-.193.433-.346.692-.45a2.18 2.18 0 01.818-.156zm-9.841 0c.492.001.969.167 1.349.469a2.006 2.006 0 01.525 2.559c-.232.42-.608.749-1.062.931-.455.182-.96.207-1.432.069a2.124 2.124 0 01-1.151-.825 2.005 2.005 0 01.26-2.597c.198-.192.434-.345.693-.449a2.2 2.2 0 01.818-.157zm-9.838 0c.495 0 .974.166 1.356.47.382.302.643.724.74 1.193.097.468.022.955-.21 1.376-.234.422-.61.752-1.067.935a2.205 2.205 0 01-1.438.069 2.132 2.132 0 01-1.156-.83 2.013 2.013 0 01.265-2.607c.198-.193.433-.346.692-.45a2.18 2.18 0 01.818-.156zm-9.841 0c.492.001.969.167 1.349.469a2.006 2.006 0 01.525 2.559c-.232.42-.608.749-1.062.931-.455.182-.96.207-1.432.069a2.124 2.124 0 01-1.151-.825 2.006 2.006 0 01.26-2.597 2.154 2.154 0 011.511-.606zm36.188 34.361V2.487H2.572v37.965a1.324 1.324 0 011.378.188l4.37 4.263 4.441-4.076c.243-.223.567-.345.902-.341.335.004.655.135.891.364l4.265 4.12 4.123-4.108a1.317 1.317 0 011.789-.047l4.551 4.061 4.31-4.002c.239-.226.56-.353.896-.353.335 0 .656.127.896.353l4.313 4.057 4.321-4.182c.18-.175.41-.293.66-.341.25-.048.51-.023.745.071l.013.004z" fill="#fff"/></svg>