<svg width="48" height="43" fill="none" xmlns="http://www.w3.org/2000/svg"><path fill-rule="evenodd" clip-rule="evenodd" d="M1.21 22.053h7.108a1.215 1.215 0 011.21 1.21v14.528a1.214 1.214 0 01-1.21 1.211H1.211A1.215 1.215 0 010 37.792V23.263a1.214 1.214 0 011.21-1.211zM11.1 37.58V23.432h7.557c2.702.484 5.405 1.952 8.103 3.651h4.952c2.238.133 3.413 2.406 1.238 3.905-1.738 1.273-4.026 1.2-6.373.992-1.621-.082-1.691 2.094 0 2.101.585.047 1.222-.09 1.78-.094 2.93 0 5.343-.562 6.819-2.874l.754-1.761 7.361-3.651c3.687-1.211 6.303 2.643 3.59 5.322a96.451 96.451 0 01-16.403 9.65c-4.061 2.472-8.127 2.387-12.189 0l-7.185-3.093H11.1zM24.213 2.987a.45.45 0 00-.152-.082.281.281 0 00-.125 0 .434.434 0 00-.285.149l-.988 1.171a.598.598 0 01-.742.145 5.02 5.02 0 00-.415-.196 7.9 7.9 0 00-.456-.171c-.149-.051-.301-.094-.477-.145a8.794 8.794 0 00-.476-.125.602.602 0 01-.453-.562l-.149-1.61a.505.505 0 00-.047-.163.477.477 0 00-.09-.113.281.281 0 00-.124-.067.36.36 0 00-.16 0L17 1.421a.554.554 0 00-.16.047.421.421 0 00-.203.238.345.345 0 000 .13l.144 1.518a.602.602 0 01-.437.637 7.17 7.17 0 00-.426.16 4.83 4.83 0 00-.422.2h-.023c-.133.07-.274.144-.39.222h-.04c-.133.078-.261.16-.39.242a.605.605 0 01-.711-.031L12.59 3.737a.5.5 0 00-.137-.078.27.27 0 00-.117 0 .512.512 0 00-.16.05h-.024a.524.524 0 00-.097.09l-1.309 1.59a.507.507 0 00-.09.16.337.337 0 000 .125v.027a.351.351 0 00.04.133v.02a.455.455 0 00.093.101l1.172.988a.594.594 0 01.144.746 4.83 4.83 0 00-.363.847c-.047.145-.097.301-.148.477a9.89 9.89 0 00-.125.477.598.598 0 01-.535.484l-1.613.148a.482.482 0 00-.16.047.352.352 0 00-.184.219.39.39 0 000 .156l.203 2.074a.434.434 0 00.152.297c.04.029.084.053.13.07a.422.422 0 00.144 0l1.52-.145a.598.598 0 01.612.438 6.515 6.515 0 00.363.851l.028.055c.062.12.133.254.21.39l.262.43a.605.605 0 01-.039.703l-1.081 1.331a.585.585 0 00-.07.125.353.353 0 000 .114.39.39 0 00.148.285c.539.449 1.093.89 1.628 1.343a.411.411 0 00.117.059c.05.01.1.01.149 0a.552.552 0 00.172-.047h.02a.973.973 0 00.105-.082l.976-1.172a.598.598 0 01.746-.148c.134.072.272.137.414.195.152.067.304.121.457.172a10.329 10.329 0 00.953.273.597.597 0 01.464.563l.149 1.59c.006.055.023.11.05.16a.362.362 0 00.09.116.43.43 0 00.125.067.43.43 0 00.16 0l2.07-.203a.501.501 0 00.168-.047.484.484 0 00.125-.094.501.501 0 00.082-.144.281.281 0 000-.14l-.14-1.524a.598.598 0 01.39-.625c.152-.05.305-.11.453-.172h.047c.125-.054.25-.117.39-.187h.024c.148-.074.293-.152.422-.23l.433-.262a.594.594 0 01.7.043l1.32 1.078c.039.03.082.053.128.07.041.01.084.01.125 0a.39.39 0 00.16-.043.477.477 0 00.117-.105c.45-.54.89-1.094 1.344-1.629a.347.347 0 00.058-.113.45.45 0 000-.149.587.587 0 00-.047-.171.47.47 0 00-.097-.125l-1.172-.953a.594.594 0 01-.152-.75 6.54 6.54 0 00.367-.867c.047-.14.094-.305.145-.48.05-.176.09-.32.124-.477a.597.597 0 01.575-.465l1.624-.171a.503.503 0 00.164-.047.598.598 0 00.113-.09.43.43 0 00.067-.125.44.44 0 000-.149l-.203-2.07a.512.512 0 00-.047-.16v-.023a.423.423 0 00-.227-.18.348.348 0 00-.128 0l-1.535.11a.605.605 0 01-.625-.39 5.645 5.645 0 00-.176-.454c-.07-.156-.137-.32-.203-.449v-.027a4.413 4.413 0 00-.219-.39 5.191 5.191 0 00-.257-.391.602.602 0 01.035-.723l1.07-1.324a.45.45 0 00.078-.136.26.26 0 000-.113.54.54 0 00-.05-.165v-.027a.459.459 0 00-.083-.094l-1.464-1.202a.57.57 0 01-.215-.11zm16.16 9.607a.602.602 0 00-.45-.14.633.633 0 00-.413.222l-.598.723a4.175 4.175 0 00-.59-.25c-.21-.066-.39-.125-.616-.176l-.094-1.008a.613.613 0 00-.215-.413.566.566 0 00-.445-.13l-1.273.126a.628.628 0 00-.39.21.59.59 0 00-.141.45l.086.925a3.661 3.661 0 00-.598.254c-.19.094-.372.2-.547.32l-.804-.648a.554.554 0 00-.438-.144.625.625 0 00-.413.226l-.781.973a.604.604 0 00.082.862l.679.598c-.099.19-.181.386-.246.59-.07.21-.129.39-.18.617l-1.007.094a.625.625 0 00-.414.214.571.571 0 00-.106.45l.125 1.269a.617.617 0 00.423.527.575.575 0 00.237.023l.926-.086c.064.205.145.403.242.594.097.193.204.38.32.562l-.648.781a.549.549 0 00-.14.438.617.617 0 00.222.39l.988.848a.587.587 0 00.45.129.656.656 0 00.42-.211l.602-.734c.19.1.386.184.59.25.202.07.408.128.617.175l.094 1.012a.628.628 0 00.215.41.58.58 0 00.449.133l1.269-.125a.633.633 0 00.41-.215.59.59 0 00.14-.45l-.09-.925c.207-.065.408-.15.598-.254.192-.095.379-.2.559-.316l.78.648a.589.589 0 00.45.14.6.6 0 00.414-.222l.812-.984a.599.599 0 00.133-.449.64.64 0 00-.215-.422l-.734-.593a3.48 3.48 0 00.277-.59 5.95 5.95 0 00.176-.613l1.011-.094a.613.613 0 00.505-.425.58.58 0 00.019-.239l-.125-1.27a.632.632 0 00-.425-.509.59.59 0 00-.24-.025l-.925.09a4.348 4.348 0 00-.254-.598 3.405 3.405 0 00-.32-.547l.652-.804a.57.57 0 00.141-.437.633.633 0 00-.223-.414l-.976-.801h-.031l-.008-.012zm-3.858 2.668c.33-.03.665.003.984.097.305.098.59.251.84.453.247.205.453.455.605.738.159.29.255.611.28.941a2.62 2.62 0 01-.097.985 2.424 2.424 0 01-1.171 1.448 2.41 2.41 0 01-.942.278 2.543 2.543 0 01-.984-.098 2.58 2.58 0 01-.843-.449 2.552 2.552 0 01-.602-.742 2.314 2.314 0 01-.3-.949 2.452 2.452 0 011.288-2.429c.29-.16.611-.256.942-.281v.008zM24.432 1.757c.136.043.267.102.39.176.086.02.166.06.234.117l1.574 1.308c.146.12.27.264.367.426l.032.05c.1.185.163.386.187.594.027.219.005.44-.066.649a1.638 1.638 0 01-.278.503l-.804 1 .05.082c.103.172.196.35.278.531a6.3 6.3 0 01.234.504l.032.078 1.054-.101c.205-.024.412-.005.61.054h.03c.181.06.35.151.5.27l.055.047c.14.122.257.267.348.43l.03.05c.09.177.147.369.169.566 0 .524.133 1.539.203 2.086.023.197.008.397-.043.59v.035c-.06.2-.16.388-.293.55a1.585 1.585 0 01-.465.39 1.725 1.725 0 01-.593.18l-1.242.11-.032.113a7.808 7.808 0 01-.167.531c-.07.2-.13.39-.196.535l-.031.066.855.692c.163.14.295.311.39.504.072.171.114.353.126.538v.02a1.614 1.614 0 01-.313 1.152l-1.363 1.648c-.13.16-.29.293-.472.39a1.53 1.53 0 01-.598.188 1.602 1.602 0 01-.62-.05h-.032a1.676 1.676 0 01-.492-.266l-1.011-.824-.102.058c-.172.102-.34.192-.5.27-.16.078-.297.148-.457.218l-.14.047.109 1.055a1.527 1.527 0 01-.363 1.171l-.024.024a1.713 1.713 0 01-.44.355h-.04a1.673 1.673 0 01-.562.168c-.524 0-1.539.137-2.086.207-.21.023-.421.006-.625-.05a1.562 1.562 0 01-.55-.298h-.02a1.62 1.62 0 01-.55-1.062l-.114-1.238-.109-.031-.531-.168a4.623 4.623 0 01-.535-.2l-.074-.03-.703.855a1.56 1.56 0 01-.457.355l-.043.028c-.172.08-.355.133-.543.156h-.02a1.562 1.562 0 01-1.148-.316L10.79 18.48a1.61 1.61 0 01-.578-1.063 1.405 1.405 0 01.067-.625c.057-.18.148-.348.265-.495l.824-1.012-.043-.098a7.323 7.323 0 01-.25-.464 5.9 5.9 0 01-.253-.528l-.036-.09-1.046.098a1.51 1.51 0 01-1.14-.336l-.06-.043a1.705 1.705 0 01-.39-.488 1.645 1.645 0 01-.168-.562c0-.527-.136-1.527-.207-2.082a1.601 1.601 0 01.036-.644c.06-.202.161-.389.296-.55.132-.158.29-.29.469-.391.185-.096.386-.156.594-.176l1.238-.113.03-.113c.048-.153.102-.332.169-.528.066-.195.133-.39.199-.539l.031-.074-.8-.68a1.648 1.648 0 01-.39-.433l-.024-.039a1.53 1.53 0 01-.164-.554v-.032a1.562 1.562 0 01.367-1.179l1.308-1.597c.12-.147.265-.27.43-.363l.046-.032c.184-.101.386-.165.594-.187.214-.027.432-.005.637.066.182.063.353.157.503.278l1.004.808.102-.078c.16-.094.324-.18.488-.262.164-.082.343-.172.504-.242l.093-.035-.105-1.05a1.503 1.503 0 01.055-.61v-.031c.06-.181.15-.35.269-.5l.059-.031A1.613 1.613 0 0116.86.215c.523 0 1.538-.133 2.085-.204a1.57 1.57 0 01.625.051c.2.06.388.16.55.293.157.13.29.288.39.465.1.19.164.396.188.609l.11 1.242.113.031c.152.043.332.098.53.164l.536.2.078.035.676-.817c.131-.16.293-.292.476-.39a1.62 1.62 0 01.605-.196c.212-.026.426-.006.63.06h-.02zm-6.19 4.534c.3-.025.602-.025.902 0a4.668 4.668 0 011.749.531l.035.02c.248.137.483.295.703.472.459.389.842.859 1.13 1.387.15.27.271.557.358.855.091.3.149.609.172.922.027.298.027.6 0 .898a4.37 4.37 0 01-.18.921v.04c-.088.27-.2.53-.335.78-.141.261-.305.51-.488.743l-.04.043a4.758 4.758 0 01-2.214 1.457c-.3.086-.607.144-.918.171a5.559 5.559 0 01-.917 0 4.689 4.689 0 01-.922-.184 4.915 4.915 0 01-.824-.347 5.323 5.323 0 01-.742-.492 4.783 4.783 0 01-.625-.633 5.148 5.148 0 01-.508-.75 4.429 4.429 0 01-.355-.859c-.09-.3-.149-.609-.172-.921a4.936 4.936 0 010-.899 4.37 4.37 0 01.18-.921c.089-.287.205-.564.348-.828l.019-.035a4.47 4.47 0 01.473-.707l.03-.04a4.41 4.41 0 01.61-.597c.235-.19.486-.358.75-.504.272-.149.558-.27.855-.359.301-.086.61-.144.922-.172l.004.008zm.78 1.2a3.755 3.755 0 00-.694 0 3.202 3.202 0 00-1.297.383 4.077 4.077 0 00-.574.39c-.16.13-.31.273-.445.429-.133.165-.25.341-.352.527v.031a3.69 3.69 0 00-.258.621 3.451 3.451 0 00-.171.695c-.02.232-.02.464 0 .696.018.23.062.458.129.68.063.22.15.431.261.632a3.755 3.755 0 00.852 1.039c.172.137.356.258.55.363.2.105.41.192.625.261.22.07.446.114.676.133a3.88 3.88 0 001.386-.125c.208-.065.408-.151.598-.258a3.636 3.636 0 001.02-.828c.146-.174.277-.363.39-.562.099-.19.184-.39.253-.593v-.024a3.489 3.489 0 00.137-1.374 3.267 3.267 0 00-.387-1.301 3.548 3.548 0 00-.39-.57 3.271 3.271 0 00-.461-.469 3.763 3.763 0 00-.52-.347h-.03a3.853 3.853 0 00-.626-.262 3.146 3.146 0 00-.671-.133V7.49zM6.347 33.526a1.39 1.39 0 11.008 2.78 1.39 1.39 0 01-.008-2.78z" fill="url(#paint0_linear_1119_3683)"/><defs><linearGradient id="paint0_linear_1119_3683" x1=".45" y1="1.549" x2="48.843" y2="3.554" gradientUnits="userSpaceOnUse"><stop stop-color="#115DF1"/><stop offset="1" stop-color="#6139FF"/></linearGradient></defs></svg>