<svg width="60" height="48" fill="none" xmlns="http://www.w3.org/2000/svg"><path fill-rule="evenodd" clip-rule="evenodd" d="M7.876 11.385h31.903a1.928 1.928 0 011.928 1.928v.964a10.453 10.453 0 00-3.712.665l-.221.086a10.406 10.406 0 00-6.392 9.554c0 .873.113 1.743.338 2.588H7.876a1.928 1.928 0 01-1.928-1.928V13.293a1.928 1.928 0 011.928-1.928v.02zm27.623-8.363a1.75 1.75 0 11-.01 0h.01zm-5.264 0a1.75 1.75 0 110 3.5 1.75 1.75 0 010-3.5zm10.522 0a1.75 1.75 0 110 3.5 1.75 1.75 0 010-3.5zM2.917 0h41.822a2.916 2.916 0 012.906 2.906v13.197a10.207 10.207 0 00-1.967-1.07 8.258 8.258 0 00-.655-.245v-5.88a1.77 1.77 0 01-.28.023H2.916c-.095 0-.19-.008-.284-.024v34.058a.273.273 0 00.28.275h36.756v.134c.032.423.108.841.226 1.249.124.439.307.859.545 1.248H2.916a2.89 2.89 0 01-2.058-.853A2.892 2.892 0 010 42.965V2.916C0 2.143.307 1.401.853.853L.964.766A2.92 2.92 0 012.916 0zm4.12 30.809h25.478v2.015H7.037v-2.015zm.434 7.268a1.007 1.007 0 110-2.014h18.556a1.007 1.007 0 110 2.014H7.471zm46.194 9.819a1.09 1.09 0 01-1.116-.11 1.036 1.036 0 01-.272-.305l-3.374-5.784-2.56 2.892c-.31.37-.703.664-1.147.858-.276.12-.58.155-.877.101a1.173 1.173 0 01-.757-.54 2.064 2.064 0 01-.284-.964l-1.446-18.561v-.044a.786.786 0 01.313-.64.48.48 0 01.15-.073.76.76 0 01.328-.034c.103.01.203.04.294.092l.086.053L58.345 35.34c.289.183.529.435.699.732a1.147 1.147 0 01.092.926c-.1.284-.283.53-.526.708a3.223 3.223 0 01-1.32.569l-3.731.766 3.34 5.784a1.048 1.048 0 01.096.795 1.075 1.075 0 01-.481.642h-.03l-2.77 1.6-.063.029.014.005zm-12.05-26.992a3.405 3.405 0 012.593 1.2l-.096-.034a3.497 3.497 0 00-.569-.13l-.193-.029a3.777 3.777 0 00-.872 0h-.125a2.511 2.511 0 00-2.512.622 2.497 2.497 0 00-.732 1.774 2.5 2.5 0 01-.034.757c-.037.203-.058.41-.063.616-.01.161-.01.322 0 .483l.034.428a3.408 3.408 0 01.164-4.65 3.412 3.412 0 012.41-1.003l-.005-.034zm0-3.702a7.118 7.118 0 017.124 7.12c0 .23 0 .457-.034.684l-1.046-.714a6.043 6.043 0 00-11.515-2.516 6.045 6.045 0 003.158 8.15l.091 1.187A7.12 7.12 0 0141.62 17.23l-.005-.029zm-29.372 5.63h-2.121l1.614-7.11h3.08l1.615 7.11h-2.087l-.231-1.142h-1.644l-.226 1.123v.019zm.804-4.926l-.216 1.99h.915l-.212-1.99h-.487zm4.338 4.926v-7.11h2.791c1.123 0 1.894.27 2.314.82.42.55.646 1.456.646 2.738s-.212 2.193-.627 2.737c-.415.545-1.19.82-2.314.82l-2.81-.005zm2.82-5.302h-.834v3.485h.83c.203.014.407-.024.592-.111.12-.072.183-.236.183-.482v-2.265c0-.26-.062-.424-.183-.482a1.214 1.214 0 00-.593-.111l.005-.034zm3.895 5.177l.28-1.875a6.13 6.13 0 001.648.26 8.62 8.62 0 001.18-.067v-.57l-.896-.09a2.41 2.41 0 01-1.668-.666 2.41 2.41 0 01-.458-1.6c0-.964.188-1.639.555-2a2.623 2.623 0 011.88-.55 9.35 9.35 0 012.41.284l-.246 1.822a8.446 8.446 0 00-1.485-.168 7.448 7.448 0 00-.964.053v.559l.718.082c.667.01 1.307.262 1.803.708a2.28 2.28 0 01.482 1.567 3.81 3.81 0 01-.14 1.234c-.084.275-.222.53-.405.752a1.505 1.505 0 01-.665.395 3.85 3.85 0 01-.752.164c-.217 0-.482.029-.863.029a9.25 9.25 0 01-2.41-.3l-.004-.023z" fill="url(#paint0_linear_1119_3689)"/><defs><linearGradient id="paint0_linear_1119_3689" x1=".555" y1="1.75" x2="60.214" y2="4.448" gradientUnits="userSpaceOnUse"><stop stop-color="#115DF1"/><stop offset="1" stop-color="#6139FF"/></linearGradient></defs></svg>