<svg width="62" height="40" fill="none" xmlns="http://www.w3.org/2000/svg"><path fill-rule="evenodd" clip-rule="evenodd" d="M48.941 0h-36.74c-.662 0-1.264.254-1.722.672l-.09.074a2.592 2.592 0 00-.756 1.812v5.224H3.926c-1 0-1.91.378-2.607 1-.06.05-.115.1-.17.154A3.931 3.931 0 000 11.713v16.58a3.91 3.91 0 001.15 2.77 3.941 3.941 0 002.776 1.155h5.702v5.214c0 .697.289 1.334.751 1.802l.015.015c.468.467 1.11.751 1.806.751h36.741c.707 0 1.349-.289 1.812-.751a2.558 2.558 0 00.75-1.812v-5.22h5.713a3.91 3.91 0 002.602-1.004c.06-.045.115-.095.17-.15a3.921 3.921 0 001.154-2.77v-16.58c0-1.08-.443-2.065-1.154-2.777a3.895 3.895 0 00-2.772-1.154h-5.712v-5.22a2.56 2.56 0 00-.751-1.8l-.01-.01A2.552 2.552 0 0048.94 0zM11.957 32.218h37.238v.016c.006.008.01.018.01.029v5.17a.244.244 0 01-.177.234.235.235 0 01-.082.014h-36.74a.24.24 0 01-.175-.07l-.005-.004a.24.24 0 01-.07-.175v-5.214zM57.21 9.912H3.926c-.99 0-1.801.806-1.801 1.8v16.58c0 .99.82 1.801 1.8 1.801h53.286a1.82 1.82 0 001.801-1.8v-16.58c0-.98-.81-1.801-1.8-1.801zM16.7 4.94c0-.91-.742-1.652-1.652-1.652A1.65 1.65 0 0013.4 4.941c0 .91.736 1.652 1.647 1.652.91 0 1.652-.742 1.652-1.652zm4.18-1.652a1.653 1.653 0 010 3.304 1.655 1.655 0 01-1.653-1.652c0-.91.742-1.652 1.652-1.652zm7.483 1.652a1.65 1.65 0 00-1.647-1.652c-.91 0-1.657.741-1.657 1.652 0 .91.741 1.652 1.652 1.652.91 0 1.652-.742 1.652-1.652z" fill="#fff"/><path d="M6.608 15.037h3.244l1.17 6.175 1.711-6.175h3.22l1.721 6.184 1.174-6.184h3.23l-2.439 11.066h-3.353l-1.94-6.966-1.931 6.966h-3.35L6.609 15.037zm16.226 0h3.244l1.17 6.175 1.711-6.175h3.22l1.72 6.184 1.175-6.184h3.23l-2.439 11.066h-3.353l-1.94-6.966-1.931 6.966h-3.35l-2.457-11.066zm16.23 0h3.245l1.164 6.175 1.712-6.175h3.22l1.72 6.184 1.175-6.184h3.23l-2.44 11.066h-3.354l-1.94-6.966-1.93 6.966h-3.35l-2.452-11.066z" fill="#fff"/></svg>