<svg width="63" height="64" fill="none" xmlns="http://www.w3.org/2000/svg"><path fill-rule="evenodd" clip-rule="evenodd" d="M3.589 20.845h3.6v-.833c0-1.115.223-2.177.624-3.146a8.293 8.293 0 011.797-2.677 8.378 8.378 0 012.678-1.797 8.116 8.116 0 013.146-.63h14.313v-3.86a4.323 4.323 0 01-.666-.313 4.1 4.1 0 01-1.698-1.953A4.09 4.09 0 0129.59.307 3.994 3.994 0 0131.148 0a4.09 4.09 0 012.886 1.193 4.066 4.066 0 011.193 2.885 4.044 4.044 0 01-1.193 2.88l-.02.022c-.24.234-.506.442-.798.614a3.689 3.689 0 01-.666.313v3.86h14.313a8.24 8.24 0 015.823 2.427 8.377 8.377 0 011.798 2.677 8.13 8.13 0 01.625 3.146v.834h3.469a3.55 3.55 0 012.531 1.052l.021.02c.323.329.583.714.76 1.147.178.427.271.885.271 1.37v9.573a3.55 3.55 0 01-1.052 2.532 3.587 3.587 0 01-2.537 1.052h-3.474a8.24 8.24 0 01-2.427 5.709 8.379 8.379 0 01-2.677 1.797 8.131 8.131 0 01-3.146.625h-5.511v13.824h8.688c.047-.073.094-.151.146-.224.104-.151.218-.287.343-.417a2.987 2.987 0 012.11-.87c.396 0 .792.078 1.14.224a2.95 2.95 0 011.615 1.615c.146.354.224.74.224 1.14a3.1 3.1 0 01-.224 1.141 2.95 2.95 0 01-.645.97 2.95 2.95 0 01-.97.645 2.988 2.988 0 01-2.26.005l-.02-.005a3.006 3.006 0 01-.97-.646 3.133 3.133 0 01-.442-.568 2.386 2.386 0 01-.183-.364h-9.88a1.34 1.34 0 01-.943-.39 1.314 1.314 0 01-.396-.949V45.728h-6.464v12.62c.099.053.198.105.291.167a2.926 2.926 0 011.136 1.36 2.988 2.988 0 01.005 2.26l-.005.021c-.151.37-.375.693-.646.969a2.988 2.988 0 01-2.11.87c-.4 0-.786-.084-1.14-.224a2.95 2.95 0 01-.969-.646 2.95 2.95 0 01-.646-.969 3.09 3.09 0 01-.224-1.14c0-.391.073-.766.219-1.12l.005-.021c.151-.37.375-.693.646-.97.14-.145.302-.27.474-.38l.02-.015c.095-.052.194-.104.293-.156V45.728h-8.626v6.964c0 .37-.151.698-.39.937a1.322 1.322 0 01-.944.391H13.48c-.047.094-.099.177-.156.27a2.66 2.66 0 01-.365.444l-.026.02a2.988 2.988 0 01-3.23.651l-.02-.005a2.954 2.954 0 01-1.615-1.615 2.989 2.989 0 01-.224-1.14c0-.396.084-.787.224-1.146a2.95 2.95 0 01.646-.969c.282-.266.62-.49.99-.64.354-.146.74-.224 1.14-.224.407 0 .792.083 1.141.224.354.15.678.364.943.635l.021.016c.151.15.292.323.406.505.057.099.12.203.172.318h4.745v-5.636H15.44a8.207 8.207 0 01-5.824-2.422 8.309 8.309 0 01-1.802-2.678 8.186 8.186 0 01-.625-3.031h-3.6a3.55 3.55 0 01-2.53-1.052l-.021-.021a3.553 3.553 0 01-.76-1.146A3.46 3.46 0 010 34.008v-9.574c0-.479.094-.948.276-1.37a3.54 3.54 0 01.781-1.161 3.622 3.622 0 011.162-.781 3.535 3.535 0 011.37-.277zm20.194 15.403a1.066 1.066 0 01-.187-.188 1.099 1.099 0 01-.26-.672 1.09 1.09 0 01.228-.682c.058-.073.115-.136.193-.198.266-.219.615-.333.959-.339a1.56 1.56 0 01.963.303c.943.724 1.87 1.25 2.792 1.599a7.365 7.365 0 002.703.495c.896-.01 1.803-.199 2.73-.547.937-.355 1.875-.886 2.833-1.568.282-.203.63-.292.974-.276.344.015.688.135.948.364.068.063.125.125.183.203.15.214.224.454.208.693a1.12 1.12 0 01-.495.854c-1.198.865-2.401 1.521-3.625 1.974a11.167 11.167 0 01-3.72.704 10.542 10.542 0 01-3.744-.646c-1.23-.443-2.454-1.13-3.657-2.052l-.026-.021zm-3.151-15.475a4.624 4.624 0 011.755.349c.282.114.552.26.797.427.245.161.469.343.672.547l.031.026c.214.213.407.442.573.698l.01.015c.162.245.303.505.417.787.115.276.204.567.26.86a4.252 4.252 0 010 1.792 4.832 4.832 0 01-.26.864 4.32 4.32 0 01-.427.797 4.548 4.548 0 01-2.073 1.692 4.894 4.894 0 01-.864.266 4.662 4.662 0 01-.896.083 5.08 5.08 0 01-.896-.083 4.735 4.735 0 01-1.667-.693 4.443 4.443 0 01-.698-.573 4.346 4.346 0 01-.573-.698l-.01-.015a4.522 4.522 0 01-.417-.787 4.97 4.97 0 01-.266-.86 4.662 4.662 0 01-.083-.895c0-.302.031-.61.083-.896.063-.292.146-.583.266-.86.114-.28.26-.552.427-.796.172-.26.365-.49.573-.698.214-.214.443-.407.698-.573l.016-.01a4.54 4.54 0 011.646-.677c.297-.058.599-.09.906-.09zm21.038 0a4.624 4.624 0 011.755.349c.282.114.553.26.797.427.24.161.459.338.662.541.01.01.026.021.036.032.214.213.407.442.573.698l.01.015c.162.245.303.505.417.787.115.276.203.567.266.86.057.29.083.593.083.895 0 .302-.03.61-.083.896a4.726 4.726 0 01-.693 1.662c-.172.26-.364.49-.573.698a4.342 4.342 0 01-.698.573l-.015.01a4.718 4.718 0 01-1.651.682 4.661 4.661 0 01-.896.084 5.07 5.07 0 01-.896-.084 4.727 4.727 0 01-1.662-.692l-.026-.021a4.621 4.621 0 01-.672-.552 4.346 4.346 0 01-.573-.698l-.01-.016a4.522 4.522 0 01-.417-.787 4.967 4.967 0 01-.266-.859 4.624 4.624 0 010-1.792c.063-.291.146-.583.266-.86.115-.28.26-.551.427-.796.172-.26.365-.49.573-.698a4.699 4.699 0 011.495-1.005c.276-.115.568-.204.86-.26.307-.058.609-.09.911-.09zM9.204 21.86v15.621c0 .839.167 1.641.469 2.375.317.76.781 1.448 1.354 2.027a6.206 6.206 0 004.401 1.823h31.44a6.23 6.23 0 002.376-.47 6.373 6.373 0 002.026-1.353 6.207 6.207 0 001.823-4.402v-17.47a6.21 6.21 0 00-.469-2.375 6.375 6.375 0 00-1.354-2.026 6.207 6.207 0 00-4.402-1.823H15.434a6.23 6.23 0 00-2.376.468 6.375 6.375 0 00-2.026 1.355 6.207 6.207 0 00-1.823 4.401l-.005 1.85zm-2.021 1.005H3.589c-.214 0-.417.042-.6.115a1.634 1.634 0 00-.51.344l-.02.015a1.542 1.542 0 00-.438 1.09v9.573c0 .213.042.416.115.599.083.193.198.364.343.51.282.282.672.459 1.105.459h3.599V22.866zm51.405 0H55.12V35.57h3.47c.213 0 .416-.042.598-.115a1.61 1.61 0 00.51-.344 1.515 1.515 0 00.458-1.11v-9.568c0-.213-.04-.416-.114-.599a1.632 1.632 0 00-.343-.51 1.551 1.551 0 00-.51-.344 1.726 1.726 0 00-.6-.115z" fill="#fff"/></svg>