<svg width="64" height="63" fill="none" xmlns="http://www.w3.org/2000/svg"><path d="M29.938 15.206v-2.953a7.508 7.508 0 01-1.042-.484 6.343 6.343 0 01-2.63-7.863A6.358 6.358 0 0129.683.479 6.249 6.249 0 0132.11 0a6.322 6.322 0 015.843 8.733 6.292 6.292 0 01-1.375 2.052l-.03.031a6.638 6.638 0 01-1.23.953c-.33.195-.68.357-1.041.484v2.953h14.83a8.056 8.056 0 018.03 8.035v1.193h2.75A4.13 4.13 0 0164 28.553v9.566a4.129 4.129 0 01-4.114 4.119h-2.734v1.078a8.061 8.061 0 01-8.045 8.035H28.76L16.565 61.823a1.344 1.344 0 01-1.9-.15 1.37 1.37 0 01-.329-.964l.651-9.373h-.11a8.046 8.046 0 01-8.024-8.02v-1.078H4.119A4.13 4.13 0 010 38.118v-9.565a4.13 4.13 0 014.114-4.12h2.739v-1.197a8.046 8.046 0 018.025-8.03h15.06zm13.149 9.436a4.874 4.874 0 110 9.748 4.874 4.874 0 010-9.748zm-22.174 0a4.874 4.874 0 110 9.747 4.874 4.874 0 010-9.747zm3.323 16.33a1.19 1.19 0 01-.198-.197 1.135 1.135 0 01.172-1.636 1.677 1.677 0 012.02-.041c.89.702 1.878 1.27 2.932 1.687a7.738 7.738 0 002.848.52 8.425 8.425 0 002.88-.572 13.226 13.226 0 002.995-1.677 1.687 1.687 0 012.025.094c.07.065.135.136.193.213.153.212.23.469.219.73a1.214 1.214 0 01-.526.9 15.932 15.932 0 01-3.818 2.083c-1.254.473-2.58.725-3.92.745a11.05 11.05 0 01-3.938-.666 14.466 14.466 0 01-3.858-2.167l-.026-.015zM49.1 17.915H14.878a5.343 5.343 0 00-5.322 5.327v20.075a5.343 5.343 0 005.322 5.327h1.65a1.359 1.359 0 011.256 1.443l-.521 7.592 10.05-8.65a1.334 1.334 0 01.953-.39h20.83a5.343 5.343 0 005.322-5.327V23.236a5.332 5.332 0 00-5.317-5.322z" fill="url(#paint0_linear_1119_3693)"/><defs><linearGradient id="paint0_linear_1119_3693" x1=".6" y1="2.266" x2="65.144" y2="4.703" gradientUnits="userSpaceOnUse"><stop stop-color="#115DF1"/><stop offset="1" stop-color="#6139FF"/></linearGradient></defs></svg>