<svg width="78" height="40" fill="none" xmlns="http://www.w3.org/2000/svg"><path fill-rule="evenodd" clip-rule="evenodd" d="M1.438 37.136H8.58a1.234 1.234 0 01-.923-1.194V1.232A1.247 1.247 0 018.894 0h51.62c.673 0 1.232.559 1.232 1.231v10.465l-1.935.59V6.332H9.768V35.59H59.81v-7.55l.641-.107a4.122 4.122 0 001.212-.408l.088-.019v8.423a1.24 1.24 0 01-.923 1.194h7.468a1.438 1.438 0 110 2.877H1.438A1.425 1.425 0 010 38.568a1.44 1.44 0 011.438-1.432zm48.179-15.088c.66.71 1.394 2.16 1.25 3.417l8.92-1.514c-.334-2.525-1.075-4.843-2.507-6.81-2.89 1.96-4.548 3.18-7.663 4.907zm-14.429 7.274c4.171-1.238 8.63 3.19 12.18-.245.942-.911 1.583-2.381 1.501-3.757-.038-.553-.182-1.086-.477-1.558a4.082 4.082 0 00-.471-.596c-2.274-2.318-5.798-1.401-8.116.377-2.13 1.639-3.656 4.076-4.617 5.779zm23.28-12.406c1.343 2.13 2.191 4.34 2.5 6.645l14.49-7.858c1.2-.54 1.966-1.092 1.659-2.663-.24-.515-.566-.86-.98-1.036-.409-.176-.899-.176-1.477 0l-16.193 4.912zm-44.41-3.926h41.614c.245 0 .465.088.634.239a3.99 3.99 0 00-1.413.665l-.088.07c-1.991 1.35-.615.408-1.137.766l-.314.22H15.038v10.13h18.02c-.458.685-.86 1.351-1.205 1.948H14.058a.974.974 0 01-.974-.974v-12.09c0-.534.434-.974.974-.974zm36.18-2.268a.974.974 0 010-1.947h3.926a.97.97 0 01.974.974.97.97 0 01-.974.973H50.24zm-9.698 0a.974.974 0 010-1.947h3.926a.974.974 0 010 1.947H40.54zm-9.705 0a.97.97 0 01-.973-.973.97.97 0 01.973-.974h3.926a.97.97 0 01.974.974.97.97 0 01-.974.973h-3.926zM15.766 2.96a.981.981 0 010 1.96c-.54 0-.98-.44-.98-.98s.446-.98.98-.98zm3.317 0a.98.98 0 010 1.96.985.985 0 01-.98-.98c0-.54.44-.98.98-.98zm-6.627 0a.981.981 0 010 1.96.981.981 0 010-1.96zm20.383 34.717h4.052a.692.692 0 010 1.382h-4.052a.693.693 0 01-.69-.691c0-.39.307-.691.69-.691z" fill="#fff"/></svg>