<svg width="57" height="48" fill="none" xmlns="http://www.w3.org/2000/svg"><path d="M1.69 4.852C.78 4.852 0 4.072 0 3.119c0-.91.78-1.689 1.69-1.689h2.512c1.56.043 2.945.347 4.115 1.082 2.267 1.437 2.67 3.489 3.25 5.805h18.779a14.791 14.791 0 00-.343 3.172l.002.208H12.519l3.856 14.512H43.71l.007-.024a14.734 14.734 0 003.516-.177l-.577 2.325a1.67 1.67 0 01-1.646 1.299H17.285c.606 2.252 1.213 3.465 2.036 4.029.995.649 2.73.692 5.63.649h19.625c.954 0 1.69.78 1.69 1.69 0 .953-.78 1.69-1.69 1.69h-19.58c-3.596.043-5.805-.045-7.582-1.213-1.819-1.213-2.772-3.293-3.725-7.062L7.884 7.451c0-.043 0-.043-.043-.086-.26-.954-.694-1.603-1.3-1.95-.607-.39-1.43-.563-2.382-.563h-2.47zm25.27 10.695c0-.534.527-.966 1.177-.966.651 0 1.179.432 1.179.966v6.534c0 .534-.528.967-1.179.967-.65 0-1.178-.433-1.178-.967v-6.534zm-7.057 0c0-.534.527-.966 1.177-.966.651 0 1.179.432 1.179.966v6.534c0 .534-.528.967-1.179.967-.65 0-1.177-.433-1.177-.967v-6.534zm19.605 24.135a4.16 4.16 0 010 8.318 4.16 4.16 0 010-8.318zm-18.238 0a4.16 4.16 0 010 8.318 4.16 4.16 0 010-8.318z" fill="#fff"/><path fill-rule="evenodd" clip-rule="evenodd" d="M53.059 3.449A11.742 11.742 0 0044.732 0c-3.25 0-6.194 1.319-8.326 3.449a11.742 11.742 0 00-3.449 8.326 11.74 11.74 0 003.45 8.325 11.74 11.74 0 008.325 3.45c3.252 0 6.195-1.319 8.327-3.45a11.735 11.735 0 003.449-8.325c0-3.251-1.318-6.195-3.45-8.326zm-9.766 8.221l-2.195-2.074c-.308-.293-.548-.32-.85-.003l-1.997 2.072c-.26.256-.286.516-.049.772l4.007 3.985c.561.557.798.823 1.03.817.236-.005.467-.298 1.037-.856l6.74-6.625c.534-.52.563-.848-.002-1.406l-1.721-1.763c-.496-.511-.763-.237-1.148.158a21.1 21.1 0 01-.082.083l-4.77 4.84z" fill="#fff"/></svg>