<svg width="59" height="48" fill="none" xmlns="http://www.w3.org/2000/svg"><path fill-rule="evenodd" clip-rule="evenodd" d="M24.5 1.431h.333a1.324 1.324 0 01.952.424l20.183 21.92a4.931 4.931 0 01-.377 7.09L27.894 46.662l-.038.034c-.48.452-1.047.8-1.666 1.023a4.966 4.966 0 01-5.395-1.428L1.841 25.047a1.304 1.304 0 01-.328-.953l.038-.528L.003 1.403a1.31 1.31 0 011.395-1.4l22.683 1.428h.085a2.48 2.48 0 01.334-.028v.028zm14.545 45.984a1.315 1.315 0 01-1.752-1.962l17.764-15.86c.241-.2.438-.45.576-.733a2.53 2.53 0 00.11-1.79 2.3 2.3 0 00-.477-.795v-.028L35.084 4.312a1.316 1.316 0 111.937-1.78L57.19 24.465l.047.052a4.923 4.923 0 01-.419 7.037l-17.773 15.86zM10.92 6.193c3.756.1 4.76 4.285 3.752 5.87a4.238 4.238 0 01-3.9 2.471c-4.58 0-5.713-6.427-1.428-8.094a3.985 3.985 0 011.576-.247zm5.608 8.822c.51-.51 1.195.476 2.024 1.324 2.69-1.72 5.585-1.295 7.822.952a.476.476 0 010 .695l-3.161 3.157c-.705.709-1.614-1.729-2.857-.477-.761.762-.09 2.381 1.852 1.824 3.029-.838 6.252-2.966 9.46.229 2.224 2.218 2.077 4.97.33 7.45 2.132 2.134 2.147 1.51 0 3.643-.477.476-1.905-1.214-2.186-1.49-2.904 2.109-6.004 1.961-8.59-.648a.477.477 0 010-.695l3.162-3.161c.7-.705 1.576 1.718 3.176.557 1.495-1.086 0-2.49-1.138-2.31-2.333.377-6.223 3.629-9.875-.023-2.214-2.214-1.985-5.238-.214-7.618-1.904-1.904-1.904-1.314.195-3.428v.019z" fill="url(#paint0_linear_1119_3692)"/><defs><linearGradient id="paint0_linear_1119_3692" x1=".549" y1="1.75" x2="59.532" y2="4.387" gradientUnits="userSpaceOnUse"><stop stop-color="#115DF1"/><stop offset="1" stop-color="#6139FF"/></linearGradient></defs></svg>