<svg width="52" height="40" fill="none" xmlns="http://www.w3.org/2000/svg"><path fill-rule="evenodd" clip-rule="evenodd" d="M5.277 11.065h40.528v18.314H5.277V11.065zm5.55 12.489l-1.701-7.12h2.638l.725 4.758 1.13-4.746h2.095l1.126 4.745.578-4.745h2.639l-1.676 7.12h-2.81l-.959-3.463-1.018 3.442-2.768.009zm11.14 0l-1.701-7.12h2.638l.725 4.758 1.135-4.746h2.094l1.122 4.745.578-4.745h2.639l-1.675 7.12h-2.806l-.964-3.463-1.017 3.442-2.769.009zm11.14 0l-1.697-7.108h2.639l.712 4.745 1.135-4.745h2.094l1.13 4.745.579-4.745h2.638l-1.675 7.12h-2.806l-.964-3.463-1.017 3.442-2.769.009zM3.483 0h44.494a3.493 3.493 0 013.485 3.484v33.032A3.497 3.497 0 0147.978 40H3.484A3.493 3.493 0 010 36.516V3.484A3.493 3.493 0 013.484 0zM49.42 8.418H2.215v28.437a.96.96 0 00.964.963h45.23a.959.959 0 00.964-.963V8.418h.046zm-4.76-5.394a1.721 1.721 0 110 3.443 1.721 1.721 0 010-3.443zm-11.66 0a1.721 1.721 0 110 3.443 1.721 1.721 0 010-3.443zm5.83 0a1.721 1.721 0 110 3.442 1.721 1.721 0 010-3.442zM28.005 35.489a1.47 1.47 0 010-2.931h16.606a1.47 1.47 0 010 2.931H28.005zm-21.723 0a1.475 1.475 0 010-2.931h15.379a1.475 1.475 0 010 2.931H6.282z" fill="#fff"/></svg>