<svg width="543" height="544" fill="none" xmlns="http://www.w3.org/2000/svg"><path d="M37.658 177.135l36.412 39.826c-22.784 17.174-37.076 50.873 1.064 90.947l-51.276 24.834C-12.08 269.86-6.998 220.17 37.658 177.135z" fill="url(#paint0_linear_1114_3597)"/><path d="M16.21 318.297l35.328.568 6.343-34.766c19.403 39.822 65.256 56.464 117.723 39.478l26.493 49.212c-75.724 34.493-152.374 16.791-185.886-54.492z" fill="#7D97F4"/><path d="M312.472 265.688c28.637-56.559 104.217-77.422 158.568-46.45l55.091-18.222c-64.345-85.771-181.265-69.497-253.899 16.213l40.24 48.459z" fill="url(#paint1_linear_1114_3597)"/><path d="M439.561 325.558l23.374 54.56c85.287-35.497 111.095-155.695 34.092-208.652l.56 35.353-36.239 7.534c53.374 25.301 29.59 97-21.787 111.205z" fill="#91B3FA"/><path d="M287.322 340.996c80.802 58.066 151.502 65.638 207.877 19.495l-39.678-14.088 11.044-35.314c-49.476 34.311-95.456 23.147-139.594-11.984l-39.649 41.891zM37.658 177.135v38.25l36.412 1.576c23.611-15.305 57.8-14.069 100.839-.307l25.01-55.407c-65.399-27.984-119.014-21.302-162.26 15.888z" fill="#7D97F4"/><path d="M174.91 216.654l-20.455-42.576 45.465-12.831c29.534 15.393 53.319 34.245 72.315 55.98 20.909 46.014 49.604 85.284 85.493 102.045l-47.101.495 7.253 41.053c-18.455-11.043-36.263-23.438-51.932-36.952l-35.368-62.835c-12.335-18.713-29.539-33.953-55.67-44.379z" fill="url(#paint2_linear_1114_3597)"/><path d="M272.234 217.229c-13.835 14.782-22.892 36.574-35.893 52.059-20.735 24.697-46.593 56.606-93.255 60.759l38.095 19.695-22.679 37.16c76.098-15.113 129.342-64.713 153.972-121.212v-54.375l-40.24 5.914z" fill="#91B3FA"/><path d="M285.151 59.068l185.222-.809a3.174 3.174 0 013.203 3.191l-.396 64.783a3.169 3.169 0 01-3.266 3.152c-16.333-.487-183.733-2.633-186.934-2.5-3.164.133-1.444-51.027-.971-64.756a3.167 3.167 0 013.142-3.061z" fill="#7D97F4"/><path d="M470.01 126.877h-.022c-10.438-.311-110.47-1.558-158.544-2.159-14.057-.176-24.034-.299-26.695-.337l-.249-.003-.043-.245c-1.136-6.405-1.117-27.816.057-61.921a.663.663 0 01.658-.64l185.222-.81a.668.668 0 01.67.668l-.396 64.784a.66.66 0 01-.658.663zm-185.002-3.091c2.991.041 12.795.163 26.444.333 48.074.599 148.112 1.848 158.554 2.159l.018.002c.017 0 .045-.029.045-.064l.395-64.784-.068-.364.002.3-185.22.808a.063.063 0 00-.063.061c-1.157 33.636-1.193 54.895-.107 61.549z" fill="#fff"/><path opacity=".7" d="M293.076 75.797c0 1.752.586 3.172 1.307 3.172h70.949c.721 0 1.307-1.42 1.307-3.172 0-1.752-.586-3.171-1.307-3.171h-70.949c-.721 0-1.307 1.42-1.307 3.171z" fill="url(#paint3_linear_1114_3597)"/><path opacity=".7" d="M293.076 86.611c0 1.752.586 3.172 1.307 3.172h70.949c.721 0 1.307-1.42 1.307-3.172 0-1.752-.586-3.171-1.307-3.171h-70.949c-.721 0-1.307 1.42-1.307 3.171z" fill="url(#paint4_linear_1114_3597)"/><path opacity=".7" d="M293.076 97.425c0 1.752.586 3.171 1.307 3.171h70.949c.721 0 1.307-1.419 1.307-3.17 0-1.753-.586-3.172-1.307-3.172h-70.949c-.721-.002-1.307 1.42-1.307 3.171z" fill="url(#paint5_linear_1114_3597)"/><path opacity=".7" d="M293.076 108.239c0 1.752.586 3.171 1.307 3.171h70.949c.721 0 1.307-1.419 1.307-3.171 0-1.752-.586-3.171-1.307-3.171h-70.949c-.721-.002-1.307 1.419-1.307 3.171z" fill="url(#paint6_linear_1114_3597)"/><path d="M384.614 90.366c6.816 0 12.342-5.522 12.342-12.333S391.43 65.7 384.614 65.7c-6.817 0-12.343 5.522-12.343 12.333s5.526 12.333 12.343 12.333zm30.672 0c6.816 0 12.342-5.522 12.342-12.333S422.102 65.7 415.286 65.7c-6.817 0-12.343 5.522-12.343 12.333s5.526 12.333 12.343 12.333zm30.674.404c6.816 0 12.342-5.522 12.342-12.334 0-6.811-5.526-12.333-12.342-12.333-6.817 0-12.343 5.522-12.343 12.333 0 6.812 5.526 12.333 12.343 12.333z" fill="#fff"/><path d="M391.947 75.425a7.89 7.89 0 01.594 3.011c0 4.375-3.55 7.92-7.927 7.92-4.378 0-7.926-3.546-7.926-7.92 0-4.375 3.55-7.92 7.926-7.92.134 0 .267.004.4.01v-2.009a9.016 9.016 0 00-.4-.008c-5.487 0-9.934 4.446-9.934 9.927 0 5.483 4.449 9.927 9.934 9.927 5.488 0 9.935-4.445 9.935-9.927a9.89 9.89 0 00-.758-3.81l-1.844.8zm27.428 9.712a7.888 7.888 0 01-4.224 1.22c-4.378 0-7.926-3.547-7.926-7.92 0-4.376 3.55-7.921 7.926-7.921.134 0 .267.004.4.01v-2.009a9.016 9.016 0 00-.4-.008c-5.487 0-9.934 4.446-9.934 9.927 0 5.483 4.449 9.927 9.934 9.927a9.904 9.904 0 005.221-1.48l-.997-1.746zm33.199-2.247a7.918 7.918 0 01-6.555 3.467c-4.379 0-7.927-3.547-7.927-7.92 0-4.376 3.55-7.921 7.927-7.921.133 0 .266.004.399.01v-2.009a9 9 0 00-.399-.008c-5.488 0-9.935 4.446-9.935 9.927 0 5.483 4.449 9.927 9.935 9.927a9.926 9.926 0 008.183-4.297l-1.628-1.176z" fill="#7D97F4"/><g opacity=".64"><path d="M394.67 95.589h-20.112a2.285 2.285 0 100 4.57h20.112a2.285 2.285 0 100-4.57z" fill="url(#paint7_linear_1114_3597)"/><path d="M425.342 95.589H405.23a2.286 2.286 0 100 4.569h20.112a2.286 2.286 0 100-4.57z" fill="url(#paint8_linear_1114_3597)"/><path d="M435.903 100.156h20.113a2.286 2.286 0 100-4.57h-20.113a2.286 2.286 0 100 4.57z" fill="url(#paint9_linear_1114_3597)"/><path d="M394.67 102.695h-20.112a2.286 2.286 0 00-2.287 2.285v13.45a2.286 2.286 0 002.287 2.285h20.112a2.285 2.285 0 002.286-2.285v-13.45a2.286 2.286 0 00-2.286-2.285z" fill="url(#paint10_linear_1114_3597)"/><path d="M425.342 102.695H405.23a2.286 2.286 0 00-2.287 2.285v13.45a2.286 2.286 0 002.287 2.285h20.112a2.286 2.286 0 002.286-2.285v-13.45a2.286 2.286 0 00-2.286-2.285z" fill="url(#paint11_linear_1114_3597)"/><path d="M456.014 102.695h-20.113a2.286 2.286 0 00-2.286 2.285v13.45a2.286 2.286 0 002.286 2.285h20.113a2.286 2.286 0 002.286-2.285v-13.45a2.285 2.285 0 00-2.286-2.285z" fill="url(#paint12_linear_1114_3597)"/></g><path d="M205.132 515.683s-1.009 5.409-1.531 10.767c-.203 2.095 1.397 3.929 3.499 4.037 7.145.366 22.428 1.09 27.916.896a1.2 1.2 0 001.073-1.636 2.692 2.692 0 00-1.363-1.464l-25.143-11.838-4.451-.762z" fill="url(#paint13_linear_1114_3597)"/><path d="M204.377 512.492l.707 6.488s4.404 2.101 7.447-.188l-1.763-7.239-6.391.939z" fill="url(#paint14_linear_1114_3597)"/><path d="M206.119 390.668c-.349 1.69-2.59 84.432 5.908 121.603a1.258 1.258 0 01-.752 1.457c-1.364.542-4.032 1.319-7.223 1.396a2.173 2.173 0 01-2.138-1.576c-2.448-8.63-14.162-51.856-15.351-93.054-1.328-46.035.016-1.566.016-1.566l1.308-28.436 18.232.176z" fill="url(#paint15_linear_1114_3597)"/><path d="M176.054 518.234s-1.552 2.721-3.095 9.974a2.255 2.255 0 001.959 2.719c2.358.255 5.989.588 8.898.595 1.342.004 2.4-1.153 2.251-2.486-.298-2.656-1.26-7.018-4.33-10.44l-5.683-.362z" fill="url(#paint16_linear_1114_3597)"/><path d="M174.795 509.885l1.704 9.817s1.765 1.339 5.292.413l-.758-10.551-6.238.321z" fill="url(#paint17_linear_1114_3597)"/><path d="M171.055 392.872c-7.658 43.595.54 107.932 3.391 120.537a1.958 1.958 0 001.571 1.503c1.325.233 3.507.433 5.666-.172a1.797 1.797 0 001.309-1.643c.495-10.164.374-72.588 7.356-97.191a5.617 5.617 0 012.192-3.072l13.183-9.177 1.148-15.027-35.816 4.242z" fill="url(#paint18_linear_1114_3597)"/><path d="M217.98 310.58c-21.695-.566-45.694 5.258-45.694 5.258-6.828 37.649-1.906 81.196-1.906 81.196 16.756 4.561 35.773-2.351 35.773-2.351 2.943-15.735 16.392-59.971 16.392-59.971 10.614-1.214 19.377-4.188 26.606-8.16-5.424-6.407-7.934-14.515-9.011-19.306-7.692 2.31-15.468 3.508-22.16 3.334z" fill="#FCB938"/><path d="M282.377 279.254c-2.106-2.594-4.815-1.401-4.815-1.401-3.323 13.446-20.169 24.215-37.421 29.393 1.077 4.791 3.587 12.901 9.012 19.306 28.698-15.764 33.224-47.298 33.224-47.298z" fill="url(#paint19_linear_1114_3597)"/><path d="M281.854 279.904c.215.711-2.377 1.766-3.869-1.147-.04-1.39-.829-7.347.013-8.471 4.481-5.982 13.128-13.454 13.128-13.454 1.436 1.443.23 2.834.23 2.834l-4.203 4.291c.856 1.58 1.904 2.915 2.383 4.822.362 1.443.117 2.98-.623 4.281-.743 1.308-1.756 3.007-2.71 4.337-1.806 2.513-4.349 2.507-4.349 2.507z" fill="url(#paint20_linear_1114_3597)"/><path d="M285.306 266.749l-3.822 3.175-1.22 3.185 3.344 3.779s1.197-6.333 2.055-7.698c.858-1.362.425-2.032-.357-2.441z" fill="url(#paint21_linear_1114_3597)"/><path d="M180.408 336.912l-8.122-21.074s-20.398 13.567-23.899 30.981c3.826.32 10.785 1.381 17.573 4.887 1.581-8.224 14.448-14.794 14.448-14.794z" fill="#FCB938"/><path d="M197.932 356.835s-22.879 12.632-30.45 1.587c-1.574-2.294-1.932-4.561-1.519-6.716-6.788-3.506-13.747-4.569-17.573-4.887-1.056 5.251-.578 10.85 2.463 16.533 13.214 24.71 50.039-.881 50.039-.881l-2.96-5.636z" fill="url(#paint22_linear_1114_3597)"/><path d="M196.171 292.768l-7.093 19.885a.719.719 0 00.319.869c1.873 1.057 8.624 4.127 16.844-.971a3.384 3.384 0 001.583-2.402l2.4-17.246-14.053-.135z" fill="url(#paint23_linear_1114_3597)"/><path d="M211.367 274.437s7.444 14.331 6.418 20.083c-1.027 5.751-10.419 5.248-18.578.491l-5.586-15.451 17.746-5.123z" fill="url(#paint24_linear_1114_3597)"/><path d="M199.641 287.453a.587.587 0 00.265-.858c-.6-.933-1.718-2.834-2.067-4.494 0 0-1.354-.885 3.487-1.995 4.843-1.11 12.066-2.835 13.62-6.93 1.514-3.994-2.269-14.107-8.536-6.137a.59.59 0 01-.933-.002c-1.001-1.329-3.643-4.094-7.362-2.469-3.481 1.521-3.895 4.054-3.859 5.335a.585.585 0 01-.7.591c-1.749-.35-5.951-.677-7.956 3.614-1.649 3.535-.619 5.555.33 6.546a.586.586 0 01-.261.971c-1.156.341-2.651 1.304-2.529 4.001.17 3.73 4.343 3.442 5.532 3.283a.594.594 0 01.521.19c1.007 1.136 5.549 5.959 10.509 6.584a.593.593 0 00.629-.778l-2.088-6.26a.588.588 0 01.327-.728l1.071-.464z" fill="url(#paint25_linear_1114_3597)"/><path d="M200.497 288.347s-5.362-3.752-5.787-.64c-.423 3.113 4.817 4.562 7.433 3.424l-1.646-2.784z" fill="url(#paint26_linear_1114_3597)"/><path d="M193.255 376.8l12.462-43.488a1.265 1.265 0 011.073-.912 545.248 545.248 0 0116.355-1.641c9.1-.769 19.666-1.392 25.982-.861a1.27 1.27 0 011.04 1.83c-3.591 7.259-18.361 36.788-25.758 46.46a1.276 1.276 0 01-1.029.503l-28.914-.268a1.272 1.272 0 01-1.211-1.623z" fill="url(#paint27_linear_1114_3597)"/><path d="M196.267 366.294s-1.736-7.134-1.036-9.663c.699-2.531 2.057-5.785 6.578-5.06 4.522.722 9.858 2.627 9.858 2.627s-.27 3.296-3.706 2.233l2.131 1.649s-.305 2.638-3.207 1.229l1.983 2.185s-1.246 2.167-3.384.777c-2.135-1.394-3.16 4.882-9.217 4.023z" fill="url(#paint28_linear_1114_3597)"/><path d="M222.314 343.74a3.657 3.657 0 003.658 3.655 3.657 3.657 0 003.658-3.655 3.657 3.657 0 00-3.658-3.655 3.657 3.657 0 00-3.658 3.655z" fill="#91B3FA"/><path d="M207.128 346.15l-.933-.276 2.537-8.6a3.917 3.917 0 012.953-2.744c8.042-1.678 29.224-2.021 30.121-2.034l.016.971c-.22.002-21.987.354-29.939 2.012a2.946 2.946 0 00-2.218 2.069l-2.537 8.602z" fill="url(#paint29_linear_1114_3597)"/><path d="M59.637 467.855c-1.329 1.963-6.608 46.438-7.435 62.863a1.943 1.943 0 001.945 2.038c.96 0 1.777-.699 1.924-1.647l9.657-61.839-6.091-1.415zm42.45 0c1.328 1.963 6.608 46.438 7.435 62.863a1.944 1.944 0 01-1.948 2.038c-.96 0-1.776-.699-1.923-1.647l-9.657-61.839 6.093-1.415z" fill="#7D97F4"/><path d="M51.65 464.384l-.003.486c-.032 3.488 2.976 6.35 6.743 6.415l44.638.759c3.713.063 6.806-2.617 6.986-6.053l.024-.444c.188-3.582-2.857-6.601-6.728-6.67l-44.657-.8c-3.825-.069-6.971 2.766-7.002 6.307zm94.03 64.719c-7.934 0-11.445-.68-13.016-1.3a3.01 3.01 0 002.933 2.329h28.072c.944 0 1.542-.904 1.316-1.722-3.201.256-9.997.693-19.305.693z" fill="#7D97F4"/><path d="M164.986 528.41a1.315 1.315 0 00-.229-.478c-2.139-2.729-6.434-7.012-12.278-6.93-8.559.12-11.545 1.047-18.196.053l-1.569 5.197a2.962 2.962 0 00-.047 1.551c1.569.62 5.08 1.3 13.016 1.3 9.306 0 16.102-.437 19.303-.693z" fill="url(#paint30_linear_1114_3597)"/><path d="M136.209 515.454l-1.926 6.547s4.267 1.941 8.021.383l.736-5.671-6.831-1.259z" fill="url(#paint31_linear_1114_3597)"/><path d="M194.393 524.98c-6.185 4.967-9.347 6.636-10.957 7.138 1.05.82 2.595.89 3.739-.028l21.884-17.569c.736-.592.638-1.666-.049-2.162-2.336 2.205-7.361 6.795-14.617 12.621z" fill="#7D97F4"/><path d="M209.009 512.361a1.315 1.315 0 00-.478-.227c-3.37-.777-9.39-1.413-13.894 2.308-6.598 5.45-8.346 8.038-14.153 11.429l2.02 5.015c.206.511.533.924.931 1.233 1.61-.501 4.772-2.171 10.957-7.137 7.257-5.828 12.282-10.418 14.617-12.621z" fill="url(#paint32_linear_1114_3597)"/><path d="M95.002 440.869s47.507 3.876 57.253 8.461c9.747 4.585-7.954 68.836-7.954 68.836s-2.652 1.276-8.557-.558c0 0 6.054-47.416 1.55-57.697l-51.439-8.408 9.147-10.634z" fill="url(#paint33_linear_1114_3597)"/><path d="M175.764 516.844c.44.401 4.719 9.025 4.719 9.025s4.765-1.03 5.734-4.043l-4.286-7.783-6.167 2.801z" fill="url(#paint34_linear_1114_3597)"/><path d="M66.39 440.472s-1.549 3.721-1.486 8.668c.088 6.842 5.592 12.392 12.43 12.732l56.162 2.559a2.695 2.695 0 012.487 2.022c1.32 5.102 7.769 20.765 39.303 52.022a2.541 2.541 0 003.144.342l4.489-2.832c.472-.298.621-.914.341-1.396l-32.7-55.798a12.657 12.657 0 00-7.689-5.699l-47.867-12.227-28.615-.393z" fill="url(#paint35_linear_1114_3597)"/><path d="M121.736 353.311s-6.016 10.63-12.15 15.778l12.679 7.069s2.857-11.252 9.384-14.547l-9.913-8.3z" fill="url(#paint36_linear_1114_3597)"/><path d="M65.37 440.869s15.16 3.692 29.633 0c0 0 20.249-27.201 28.083-34.605 0 0 12.497 19.704 40.311 22.497l1.552-3.463s-22.144-10.199-28.96-25.872c-6.818-15.672-9.555-22.356-15.757-26.445-3.863-2.547-6.175-4.287-7.37-5.237a1.983 1.983 0 00-2.271-.144c-6.582 4.007-37.552 25.202-45.222 73.269z" fill="#FCB938"/><path d="M122.264 405.881a.975.975 0 01-.772-.38c-4.829-6.29-7.517-13.226-7.629-13.516a.971.971 0 011.816-.694c.028.068 2.706 6.971 7.357 13.029a.971.971 0 01-.772 1.561z" fill="#FF974B"/><path d="M161.725 423.489l3.13-.834 9.506-2.2a4.402 4.402 0 013.34.564l8.174 5.139-22.571-.038-1.579-2.631z" fill="url(#paint37_linear_1114_3597)"/><path d="M131.288 337.374s5.846 9.712 6.861 15.079c1.015 5.368 2.643 8.724-3.472 10.636-6.114 1.913-11.795-.507-15.361-5.518 0 0-5.57-7.711-5.013-11.243.556-3.531 16.985-8.954 16.985-8.954z" fill="url(#paint38_linear_1114_3597)"/><path d="M120.944 353.417l.791-.104s-4.139-6.251-1.43-7.801c2.71-1.551 13.749-5.356 15.665-9.7 1.848-4.188-.917-8.919-4.249-9.908a.424.424 0 00-.509.268l-.196.527a.43.43 0 01-.796.024c-.147-.335-.627-.349-.778-.016-.591 1.302-2.36 3.524-7.669 5.244-7.533 2.441-12.225 6.235-11.649 11.584a.428.428 0 01-.611.434c-.616-.272-1.55-.315-2.634.869-1.884 2.06-.407 6.566 4.742 9.755.244.151.287.497.068.683-.77.66-1.853 2.128 1.63 3.438 3.564 1.339 5.507.887 6.226.599a.43.43 0 00.265-.482l-.915-4.686a.428.428 0 01.364-.507l1.685-.221z" fill="url(#paint39_linear_1114_3597)"/><path d="M121.269 354.38s-2.58-6.357-5.289-4.123c-2.71 2.234 2.503 7.173 4.911 7.106l.378-2.983z" fill="url(#paint40_linear_1114_3597)"/><path d="M153.004 430.58c.038.002.075.002.112.002l48.219-.049a2.154 2.154 0 002.155-2.155c-.002-1.191-.971-2.171-2.16-2.152l-48.22.049a2.153 2.153 0 00-.106 4.305z" fill="url(#paint41_linear_1114_3597)"/><path d="M220.009 383.394a4.538 4.538 0 00-.049.099l-20.288 43.712a2.154 2.154 0 001.046 2.862c1.08.501 2.38.035 2.862-1.051l20.289-43.71a2.155 2.155 0 00-3.86-1.912z" fill="url(#paint42_linear_1114_3597)"/><path d="M346.277 474.509h-5.089v54.997h5.089v-54.997z" fill="#7D97F4"/><path d="M366.021 530.565h-44.576a3.311 3.311 0 013.313-3.31h37.95a3.311 3.311 0 013.313 3.31zm6.615-57.965c0 3.009-2.463 5.47-5.474 5.47h-45.098c-3.012 0-5.474-2.461-5.474-5.47v-4.945c0-3.009 2.462-5.469 5.474-5.469h45.098c3.011 0 5.474 2.46 5.474 5.469v4.945z" fill="#7D97F4"/><path d="M306.162 437.839s-7.562 1.17-16.065 6.851a4.239 4.239 0 00-1.871 4.049c1.019 8.059 5.204 34.143 19.01 59.617a6.41 6.41 0 01.615 4.401l-2.398 11.152-4.447 4.168h11.455l7.626-20.625-3.262-1.03a6.168 6.168 0 01-4.31-5.773l-.382-22.125c.328-9.857-6.049-16.659-6.049-16.659l18.294-.889-18.216-23.137z" fill="url(#paint43_linear_1114_3597)"/><path d="M296.531 530.087c-1.044 1.365 11.23 3.166 17.429.181 0 0 8.594-14.943 8.594-22.636 0 0-.682-1.568-5.728-1.214 0 0-2.886 17.693-5.932 19.674-3.047 1.981-8.526.2-8.526.2s-4.297 1.783-5.837 3.795z" fill="url(#paint44_linear_1114_3597)"/><path d="M322.065 462.188c-.098-.169-19.697-2.355-19.697-2.355s.641 5.955-1.363 14.151c-2.004 8.199-30.782 43.714-30.782 43.714l3.017 9.557c-9.329 3.247-18.505 3.766-27.537 1.656l18.7-11.213s17.5-59.594 28.221-70.226l19.646-6.793 9.795 21.509z" fill="url(#paint45_linear_1114_3597)"/><path d="M366.02 427.51s11.293 16.783 12.219 24.439c.927 7.656-3.093 10.767-14.942 11.28-11.848.513-43.48.505-43.48.505l-26.997-23.055s19.674-7.014 24.789-8.999c5.117-1.983 48.411-4.17 48.411-4.17z" fill="url(#paint46_linear_1114_3597)"/><path d="M272.099 524.036s3.248 3.144 1.054 6.643c0 0-25.735 4.557-32.721 2.49 0 0 1.451-3.309 9.317-7.075l-.58.444c-.734.564-.303 1.739.621 1.686 5.186-.296 15.914-1.245 22.309-4.188z" fill="url(#paint47_linear_1114_3597)"/><path d="M317.106 321.073c23.084-3.921 33.951 14.891 33.158 18.844-.106.525.389.967.905.828 2.65-.713 8.504-1.611 12.134 2.932 3.206 4.012.81 7.798-1.142 9.877-.472.501-.074 1.317.61 1.231 4.872-.615 15.459-.762 17.191 9.148 1.616 9.242-4.822 11.847-8.64 12.583-.646.124-.797.973-.241 1.326 1.904 1.208 4.112 3.702 3.219 8.625-1.397 7.717-16.539 7.087-18.31 6.985a.716.716 0 01-.315-.094l-24.254-13.823a.728.728 0 01-.357-.509l-4.895-28.256a.728.728 0 01.192-.63l-15.812-22.296c-5.741-.842 6.284-6.724 6.557-6.771z" fill="url(#paint48_linear_1114_3597)"/><path d="M335.482 425.289s-13.15-12.514-19.622-20.8a17.574 17.574 0 01-2.98-15.825c2.954-9.949 8.207-20.254 8.687-21.857.734-2.459 15.478-2.355 15.478-2.355s29.015 18.816 40.415 50.69l-12.803 3.984s-7.576-12.701-15.062-20.774c0 0 12.952 17.098 13.409 24.096l-27.522 2.841z" fill="#FCB938"/><path d="M319.781 353.068c.155.511 4.003 13.259 4.304 13.523.302.265 8.44.703 12.27-1.914l-9.503-18.574-7.071 6.965z" fill="url(#paint49_linear_1114_3597)"/><path d="M304.355 336.689s-1.86 7.304 3.285 17.125c5.147 9.823 10.971 9.812 14.155 6.668 3.183-3.144 7.111-8.479 6.179-17.975-.933-9.499-20.933-15.109-23.619-5.818z" fill="url(#paint50_linear_1114_3597)"/><path d="M320.855 343.022s-8.537-13.042-16.542-2.778l-.145 3.733s-9.377-1.112-7.735-9.704c1.64-8.592 9.745-13.962 20.181-10.24 10.436 3.721 16.415 7.537 17.089 15.011.674 7.472-5.276 5.833-5.276 5.833s-1.941-5.262-4.7-5.808c-2.758-.546-2.041 3.557-2.041 3.557l-.831.396z" fill="url(#paint51_linear_1114_3597)"/><path d="M323.041 342.847s-4.427-6.677.11-7.673c4.537-.997 3.834 6.507 3.344 9.283l-3.454-1.61z" fill="url(#paint52_linear_1114_3597)"/><path d="M308.691 426.218l9.663-9.304 13.365 5.642s13.304 2.059 20.919 0l7.615-2.06 17.207-5.352 2.702 7.633a4.596 4.596 0 01-1.681 5.28c-1.489 1.057-3.235 2.218-4.346 2.705-2.266.991-55.86-.685-55.86-.685l-9.584-3.859z" fill="url(#paint53_linear_1114_3597)"/><path d="M345.253 430.605c-.043.002-.086.004-.129.002l-56.046-.06a2.508 2.508 0 01-2.506-2.51c.002-1.384 1.131-2.529 2.512-2.504l56.046.061a2.507 2.507 0 01.123 5.011z" fill="url(#paint54_linear_1114_3597)"/><path d="M238.699 379.758h46.675a8.895 8.895 0 018.046 5.098l21.578 45.72h-58.005a5.409 5.409 0 01-5.029-3.416l-16.733-42.306c-.966-2.447.836-5.096 3.468-5.096z" fill="url(#paint55_linear_1114_3597)"/><path d="M271.582 403.199c1.01 3.14.264 6.19-1.67 6.81-1.933.623-4.319-1.419-5.332-4.559-1.011-3.14-.265-6.19 1.669-6.811 1.933-.62 4.32 1.42 5.333 4.56z" fill="#91B3FA"/><path d="M409.152 523.633s.588 3.264.821 7.138a3.074 3.074 0 01-2.772 3.245c-5.736.556-18.794 1.582-27.132.38-1.167-.168-1.632-1.601-.768-2.406 3.439-3.2 11.741-9.426 25.406-10.786l4.445 2.429z" fill="url(#paint56_linear_1114_3597)"/><path d="M412.003 516.276l-2.9 7.105a2.371 2.371 0 01-2.433 1.47 12.965 12.965 0 01-2.369-.458 3.112 3.112 0 01-2.07-3.868l2.188-7.318 7.584 3.069z" fill="url(#paint57_linear_1114_3597)"/><path d="M461.589 529.293s-5.808 4.855-8.071 11.084c-.623 1.713.693 3.518 2.517 3.518h11.953c1.749 0 3.091-1.572 2.786-3.295-.76-4.301-2.957-11.29-9.185-11.307z" fill="url(#paint58_linear_1114_3597)"/><path d="M468.785 522.972s-1.174 5.189-2.075 8.617a1.099 1.099 0 01-1.434.748c-1.808-.646-3.279-.932-4.351-.789-.494.066-.927-.345-.933-.844l-.111-8.617 8.904.885z" fill="url(#paint59_linear_1114_3597)"/><path d="M437.897 406.217L402.57 513.91s6.777 4.434 10.004 4.25l41.96-86.548s7.342 53.327 3.785 91.612l12.019.916s19.542-97.837 4.741-131.348l-37.182 13.425z" fill="url(#paint60_linear_1114_3597)"/><path d="M454.307 430.682l.043-.002a.34.34 0 00.296-.382l-1.371-10.873a.341.341 0 00-.382-.295.339.339 0 00-.296.382l1.371 10.872c.022.17.169.298.339.298z" fill="#91B3FA"/><path d="M431.273 311.455s28.621 2.539 24.573 22.918c0 0 15.822 29.752 23.217 64.797a2.059 2.059 0 01-1.673 2.449l-47.665 8.155a2.567 2.567 0 01-2.917-1.885l-11.388-43.982-4.438 20.45-14.101-3.671 11.87-60.087c.002 0 1.657-8.768 22.522-9.144z" fill="#FCB938"/><path d="M415.177 361.942a.356.356 0 00.349-.431l-3.973-18.229a.356.356 0 00-.695.151l3.973 18.229c.035.166.182.28.346.28z" fill="#FF974B"/><path d="M418.054 416.188a6.809 6.809 0 014.921-.641l3.317.825a1.203 1.203 0 001.485-1.032l3.432-30.523c4.29 2.036 10.481 1.793 12.523 1.644l-7.9 35.983h-27.641l9.863-6.256z" fill="url(#paint61_linear_1114_3597)"/><path d="M344.615 349.981l.835-2.774a5.485 5.485 0 013.211-3.51l15.11-6.073s.228-1.936-3.193-3.251c-3.421-1.316-2.621-5.145-2.621-5.145s4.674 2.13 11.515 5.509c3.913 1.932 6.109 5.344 7.273 7.911l34.239 41.709-4.02 2.76c-5.286 3.629-12.556 1.846-15.561-3.815l-18.549-35.541c-9.312 2.795-18.735 3.33-28.239 2.22z" fill="url(#paint62_linear_1114_3597)"/><path d="M422 291.998l8.803 24.619s-7.796 6.09-13.485 4.031l-4.435-14.112c.002 0 3.389-17.249 9.117-14.538z" fill="url(#paint63_linear_1114_3597)"/><path d="M395.729 283.156c0 .38 8.478 23.986 8.478 23.986l13.387-5.125-4.71-23.567s-17.155-1.645-17.155 4.706z" fill="url(#paint64_linear_1114_3597)"/><path d="M410.536 284.191l3.452 12.214c.045.157.067.315.067.478.002.996-.245 4.424-3.74 3.958-3.17-.423-6.07-.762-7.915.106a1.768 1.768 0 00-.915 2.202c.772 2.145 2.598 6.946 4.821 10.875a1.772 1.772 0 002.277.728c2.513-1.144 7.75-3.702 11.478-6.746a1.766 1.766 0 00.627-1.701c-.586-3.125-2.335-12.627-2.412-15.35-.072-2.557 2.798-4.506 4.062-5.241.413-.24.709-.636.821-1.102.395-1.644.732-5.368-4.02-6.188a1.775 1.775 0 01-1.442-2.112c.401-1.967.274-4.863-3.466-5.93-3.801-1.084-6.193 1.202-7.407 2.954-.492.709-1.413.94-2.201.588-.448-.2-.991-.21-1.573.282-.785.661-1.978.46-2.556-.388-1.109-1.631-3.121-3.257-6.53-2.155-6.048 1.955-5.76 8.922-3.542 12.71 2.218 3.788 8.653 1.296 11.702-1.213 2.317-1.909 5.844-.768 7.401-.11.498.204.866.627 1.011 1.141z" fill="url(#paint65_linear_1114_3597)"/><path d="M419.492 295.41s-3.579-6.765-1.212-8.891c2.366-2.124 6.377-1.778 6.269 3.514-.133 6.583-5.057 5.377-5.057 5.377z" fill="url(#paint66_linear_1114_3597)"/><path d="M440.954 386.921c1.953 0 3.348-.149 3.499-.164l.255-.028 10.422-48.554a.354.354 0 00-.272-.421.351.351 0 00-.421.272l-10.315 48.049c-1.552.137-9.833.686-14.206-2.409l9.028-42.185-1.885-3.549a.356.356 0 00-.48-.147.356.356 0 00-.147.48l1.764 3.32-9.071 42.378.18.137c3.162 2.373 8.25 2.821 11.649 2.821z" fill="#FF974B"/><path d="M128.514 534.956a1.7 1.7 0 01-.717-.162c-.92-.433-1.346-1.598-.95-2.602l38.083-96.557c.396-1.005 1.464-1.469 2.386-1.036.921.433 1.346 1.597.951 2.602l-38.083 96.557c-.296.75-.964 1.198-1.67 1.198z" fill="#91B3FA"/><path d="M171.42 534.956c-.704 0-1.374-.448-1.669-1.198l-38.083-96.557c-.396-1.005.029-2.169.95-2.602.92-.433 1.988.031 2.386 1.036l38.083 96.557c.396 1.004-.029 2.169-.95 2.602a1.67 1.67 0 01-.717.162zm215.559 0a1.7 1.7 0 01-.717-.162c-.921-.433-1.346-1.598-.95-2.602l38.083-96.557c.396-1.005 1.464-1.469 2.386-1.036.921.433 1.346 1.597.95 2.602l-38.083 96.557c-.295.75-.965 1.198-1.669 1.198z" fill="#91B3FA"/><path d="M429.883 534.956c-.704 0-1.374-.448-1.67-1.198l-38.083-96.557c-.395-1.005.03-2.169.951-2.602.92-.433 1.988.031 2.386 1.036l38.083 96.557c.396 1.004-.03 2.169-.95 2.602a1.67 1.67 0 01-.717.162z" fill="#91B3FA"/><path d="M381.453 428.816h55.159v-5.689h-55.159c1.181.002 1.181 5.689 0 5.689z" fill="#BDD0FB"/><path d="M435.957 428.816c.36 0 .654-.294.654-.654v-4.379a.656.656 0 00-.654-.654h-55.531a.65.65 0 01-.655-.642.65.65 0 01.655-.642h59.343a2.38 2.38 0 012.382 2.381v3.635a2.244 2.244 0 01-2.245 2.243h-59.48a.65.65 0 01-.655-.642.65.65 0 01.655-.642h55.531v-.004z" fill="url(#paint67_linear_1114_3597)"/><path d="M444.606 432.651c.186-.634-.067-1.292-.688-1.791-.621-.499-1.546-.787-2.521-.787H110.892c-1.284 0-2.479.433-3.17 1.149-.692.717-.784 1.617-.247 2.388l3.581 5.139c.821 1.177 2.598 1.93 4.553 1.93h323.519c1.818 0 3.383-.855 3.728-2.038l1.75-5.99z" fill="#91B3FA"/><path d="M264.228 95.7a1.934 1.934 0 01-1.501-2.286 73.47 73.47 0 001.013-6.18 1.934 1.934 0 012.116-1.692l.037.004a1.934 1.934 0 011.689 2.152 77.166 77.166 0 01-1.068 6.507 1.933 1.933 0 01-2.086 1.529 3.474 3.474 0 01-.2-.034zm.035-18.628a74.353 74.353 0 00-.37-6.25 1.935 1.935 0 013.85-.394c.221 2.17.352 4.385.389 6.577a1.934 1.934 0 01-3.869.067zm-2.106-16.27a72.685 72.685 0 00-1.757-6.008 1.935 1.935 0 013.665-1.243 76.298 76.298 0 011.85 6.327 1.934 1.934 0 01-2.073 2.386 1.933 1.933 0 01-1.685-1.462zm-5.695-15.389a73.43 73.43 0 00-3.058-5.467 1.934 1.934 0 013.293-2.03 77.479 77.479 0 013.219 5.755 1.932 1.932 0 01-1.92 2.794 1.924 1.924 0 01-1.534-1.052zm-8.986-13.738a74.832 74.832 0 00-4.195-4.655 1.934 1.934 0 112.763-2.706 78.079 78.079 0 014.411 4.898 1.93 1.93 0 01-1.684 3.154 1.928 1.928 0 01-1.295-.691zm-11.802-11.41a74.798 74.798 0 00-5.119-3.611 1.934 1.934 0 112.094-3.252 77.532 77.532 0 015.388 3.802 1.93 1.93 0 01.348 2.711 1.93 1.93 0 01-2.711.35zM164.948 7.64a1.933 1.933 0 011.215-2.45 77.673 77.673 0 016.338-1.84 1.933 1.933 0 11.916 3.756 72.549 72.549 0 00-6.018 1.746c-.27.092-.546.12-.813.092a1.93 1.93 0 01-1.638-1.304zm56.693 4.12a73.453 73.453 0 00-5.793-2.378 1.935 1.935 0 01-1.162-2.476 1.94 1.94 0 012.478-1.16 76.758 76.758 0 016.099 2.505 1.932 1.932 0 11-1.622 3.51zm-40.307-8.1a1.934 1.934 0 011.732-2.116 78.674 78.674 0 016.587-.378 1.93 1.93 0 011.963 1.905 1.935 1.935 0 01-1.907 1.962c-2.084.03-4.19.15-6.259.358a1.932 1.932 0 01-2.116-1.73zm24.728 2.943a73.778 73.778 0 00-6.181-1.026 1.931 1.931 0 01-1.685-2.154 1.935 1.935 0 012.114-1.687c.014.002.028.002.041.006 2.177.266 4.367.628 6.506 1.078a1.933 1.933 0 01-.591 3.816c-.067-.01-.135-.02-.204-.033zm-51.901 7.831c.378.04.773-.033 1.132-.233a78.811 78.811 0 012.664-1.41 1.933 1.933 0 10-1.739-3.453 77.4 77.4 0 00-2.804 1.482 1.933 1.933 0 00.747 3.614zm-36.298 46.458a1.936 1.936 0 002.063-1.427c.257-.963.537-1.938.835-2.895a1.934 1.934 0 00-3.695-1.148 76.427 76.427 0 00-.878 3.049 1.934 1.934 0 001.675 2.421zm61.368 93.823a1.933 1.933 0 11.578-3.823c2.012.303 4.067.526 6.134.665a1.935 1.935 0 11-.261 3.859 80.83 80.83 0 01-6.451-.701zm14.932-1.102a1.935 1.935 0 011.799-2.06 73.87 73.87 0 006.13-.679 1.934 1.934 0 11.588 3.821 77.405 77.405 0 01-6.454.715 1.936 1.936 0 01-2.063-1.797zm-25.225-1.181a77.305 77.305 0 01-6.144-2.096 1.935 1.935 0 111.405-3.604 73.227 73.227 0 005.832 1.99 1.935 1.935 0 01-1.093 3.71zm41.625-1.349a1.933 1.933 0 011.301-2.406 73.107 73.107 0 005.828-2.008 1.933 1.933 0 111.415 3.598 77.43 77.43 0 01-6.138 2.116 1.934 1.934 0 01-2.406-1.3zm-57.298-5.236a77.691 77.691 0 01-5.529-3.395 1.932 1.932 0 112.163-3.204 73.746 73.746 0 005.253 3.224 1.934 1.934 0 11-1.887 3.375zm-13.847-9.859a78.142 78.142 0 01-4.655-4.518 1.933 1.933 0 112.81-2.658 74.683 74.683 0 004.423 4.293 1.931 1.931 0 01-1.485 3.363 1.921 1.921 0 01-1.093-.48zm-11.369-12.642a78.538 78.538 0 01-3.559-5.423 1.933 1.933 0 013.32-1.983 73.718 73.718 0 003.384 5.155 1.932 1.932 0 01-1.767 3.05 1.935 1.935 0 01-1.378-.799zm-8.338-14.817a76.985 76.985 0 01-2.284-6.075 1.933 1.933 0 113.675-1.204 73.734 73.734 0 002.169 5.767 1.934 1.934 0 01-3.56 1.512zm-4.878-16.297a76.894 76.894 0 01-.887-6.423 1.933 1.933 0 013.851-.368c.194 2.037.478 4.091.845 6.102a1.935 1.935 0 01-3.809.689zm-1.177-16.95a78.674 78.674 0 01.527-6.462c.131-1.059 1.085-1.834 2.157-1.681a1.932 1.932 0 011.683 2.155 75.927 75.927 0 00-.502 6.143 1.933 1.933 0 01-2.129 1.846 1.936 1.936 0 01-1.736-2zm113.881 70.682c.382.039.779-.035 1.14-.237a75.934 75.934 0 002.733-1.609 1.933 1.933 0 10-2.032-3.291 73.331 73.331 0 01-2.596 1.529 1.932 1.932 0 00.755 3.608z" opacity=".3" fill="#BDD0FB"/><path d="M236.533 114.063a.902.902 0 00.172-1.036l-4.821-9.886a47.88 47.88 0 005.948-14.337l10.397-3.585a.903.903 0 00.609-.853l-.002-13.19a.903.903 0 00-.609-.854l-10.399-3.582a47.877 47.877 0 00-5.95-14.336l4.82-9.886a.9.9 0 00-.175-1.034l-9.335-9.326a.904.904 0 00-1.036-.172l-9.894 4.818a47.974 47.974 0 00-14.348-5.944l-3.587-10.389a.904.904 0 00-.854-.609h-13.201a.902.902 0 00-.854.61l-3.585 10.39a47.964 47.964 0 00-14.347 5.945l-9.893-4.815a.903.903 0 00-1.035.174l-9.333 9.328a.903.903 0 00-.174 1.034l4.821 9.886a47.91 47.91 0 00-5.948 14.337l-10.395 3.58a.903.903 0 00-.609.854l.002 13.19c0 .386.245.729.609.854l10.399 3.583a47.9 47.9 0 005.95 14.335l-4.819 9.886a.904.904 0 00.174 1.036l9.335 9.326a.906.906 0 001.035.174l9.893-4.818a47.963 47.963 0 0014.348 5.944l3.588 10.389a.903.903 0 00.854.609l13.2-.002a.903.903 0 00.854-.609l3.586-10.389a47.956 47.956 0 0014.346-5.946l9.894 4.816a.9.9 0 001.034-.174l9.335-9.326z" fill="#BDD0FB"/><path d="M187.632 90.632c-7.094-1.79-11.41-9.01-9.62-16.101a13.174 13.174 0 016.064-8.14 13.18 13.18 0 0110.048-1.47c7.094 1.79 11.41 9.01 9.619 16.101-1.628 6.45-7.758 10.6-14.193 9.949a13.157 13.157 0 01-1.918-.339zm-1.969-21.585a10.092 10.092 0 00-4.649 6.241c-1.374 5.435 1.935 10.973 7.376 12.345 5.44 1.374 10.981-1.934 12.354-7.37 1.373-5.435-1.936-10.973-7.376-12.345-.494-.123-.99-.212-1.487-.26a10.108 10.108 0 00-6.218 1.39z" fill="url(#paint68_linear_1114_3597)"/><path d="M187.349 109.997a33.521 33.521 0 004.412.151 32.94 32.94 0 005.194-.582c.023-.004.047-.01.07-.013l.198-.04c.127-.025.257-.052.384-.08a.771.771 0 00.594-.92.776.776 0 00-.919-.593 31.118 31.118 0 01-6.581.697c-11.014.002-20.706-5.75-26.228-14.406a30.848 30.848 0 01-4.855-16.648c0-1.073.053-2.14.161-3.193.719-7.088 3.83-13.662 8.939-18.767 5.87-5.867 13.675-9.097 21.975-9.1 17.144 0 31.082 13.931 31.083 31.054a30.943 30.943 0 01-4.402 15.949.772.772 0 00.267 1.061.773.773 0 001.062-.266 32.485 32.485 0 004.455-13.435c.111-1.097.166-2.199.168-3.309-.002-17.979-14.644-32.602-32.631-32.6-8.716 0-16.909 3.393-23.07 9.551-5.364 5.362-8.632 12.26-9.386 19.704a33.255 33.255 0 00-.169 3.351c0 8.71 3.395 16.896 9.559 23.053 5.364 5.364 12.272 8.627 19.72 9.381z" fill="url(#paint69_linear_1114_3597)"/><path d="M324.98 153.062a1.191 1.191 0 001.227-.738c.382-.939.74-1.902 1.067-2.864a1.195 1.195 0 00-2.263-.765 48.662 48.662 0 01-1.016 2.731 1.194 1.194 0 00.985 1.636zm2.548-8.807a1.195 1.195 0 01-.931-1.409 49.888 49.888 0 00.853-6.006 1.196 1.196 0 011.287-1.095c.619.075 1.148.629 1.095 1.287a51.661 51.661 0 01-.895 6.291 1.196 1.196 0 01-1.29.948c-.039-.002-.08-.01-.119-.016zm.037-13.478a49.256 49.256 0 00-.627-6.029 1.197 1.197 0 01.982-1.375 1.197 1.197 0 011.375.981c.347 2.081.568 4.207.656 6.321a1.193 1.193 0 01-1.316 1.237 1.191 1.191 0 01-1.07-1.135zm-1.994-11.939a48.927 48.927 0 00-2.091-5.693 1.194 1.194 0 012.189-.959 51.103 51.103 0 012.192 5.97 1.193 1.193 0 11-2.29.682zm-4.871-11.085a49.236 49.236 0 00-3.42-5.007 1.192 1.192 0 01.21-1.676 1.197 1.197 0 011.677.21 52.166 52.166 0 013.587 5.25 1.195 1.195 0 01-2.054 1.223zm-7.428-9.559a49.782 49.782 0 00-4.536-4.026 1.193 1.193 0 111.475-1.878 52.125 52.125 0 014.753 4.22 1.191 1.191 0 01-.004 1.688 1.193 1.193 0 01-1.688-.004zm-9.528-7.468a49.152 49.152 0 00-5.375-2.797 1.193 1.193 0 11.969-2.183 51.278 51.278 0 015.639 2.934 1.194 1.194 0 11-1.233 2.046zm-11.061-4.912a49.008 49.008 0 00-5.904-1.393 1.193 1.193 0 01-.974-1.38 1.202 1.202 0 011.381-.975c2.09.36 4.173.851 6.191 1.462a1.194 1.194 0 11-.694 2.286zm-19.285-3.071a1.195 1.195 0 011.101-1.28 51.953 51.953 0 016.363-.086c.656.011 1.168.59 1.134 1.25a1.19 1.19 0 01-1.251 1.134 49.284 49.284 0 00-6.068.08 1.187 1.187 0 01-1.279-1.098zm-.921 101.381a51.9 51.9 0 01-6.161-1.085 1.193 1.193 0 01-.884-1.438 1.2 1.2 0 011.44-.883c1.926.46 3.903.808 5.876 1.033a1.196 1.196 0 011.052 1.322 1.196 1.196 0 01-1.307 1.053c-.006-.002-.012-.002-.016-.002zm5.047-.852a1.192 1.192 0 011.187-1.2 49.455 49.455 0 005.958-.395 1.195 1.195 0 01.302 2.371 52.124 52.124 0 01-6.244.413 1.198 1.198 0 01-1.203-1.189zm-17.195-2.059a51.881 51.881 0 01-5.717-2.541 1.195 1.195 0 011.101-2.12 49.44 49.44 0 005.455 2.423 1.195 1.195 0 11-.839 2.238zm29.342.803a1.194 1.194 0 01.864-1.451 49.26 49.26 0 005.685-1.819 1.194 1.194 0 11.868 2.226 51.618 51.618 0 01-5.962 1.909 1.198 1.198 0 01-1.455-.865zm-40.423-6.556a52.443 52.443 0 01-4.937-3.839 1.196 1.196 0 011.579-1.793 49.273 49.273 0 004.71 3.662 1.195 1.195 0 01-1.352 1.97zm-9.376-8.246a51.902 51.902 0 01-3.875-4.91 1.192 1.192 0 01.298-1.66 1.195 1.195 0 011.663.298 49.421 49.421 0 003.699 4.683 1.193 1.193 0 01-1.013 1.981 1.168 1.168 0 01-.772-.392zm-7.133-10.25a51.286 51.286 0 01-2.584-5.697 1.193 1.193 0 112.231-.851 49.075 49.075 0 002.465 5.432 1.191 1.191 0 01-.498 1.613c-.215.116-.45.157-.678.133a1.201 1.201 0 01-.936-.63zm69.395 21.497c.229.023.468-.02.685-.137a52.419 52.419 0 002.647-1.525c.56-.347.737-1.083.39-1.645a1.2 1.2 0 00-1.646-.389 50.34 50.34 0 01-2.525 1.456 1.195 1.195 0 00.449 2.24z" opacity=".3" fill="#BDD0FB"/><path d="M308.946 156.772a.606.606 0 00.116-.693l-3.227-6.615a32.007 32.007 0 003.979-9.594l6.957-2.398a.602.602 0 00.407-.572v-8.826a.605.605 0 00-.407-.572l-6.959-2.396a32.063 32.063 0 00-3.981-9.594l3.225-6.615a.606.606 0 00-.116-.693l-6.247-6.241a.608.608 0 00-.694-.116l-6.62 3.225a32.108 32.108 0 00-9.601-3.978l-2.4-6.952a.604.604 0 00-.572-.407h-8.834a.606.606 0 00-.572.407l-2.398 6.954a32.131 32.131 0 00-9.601 3.977l-6.622-3.222a.608.608 0 00-.694.116l-6.245 6.243a.603.603 0 00-.116.693l3.227 6.614a32.053 32.053 0 00-3.981 9.595l-6.957 2.398a.603.603 0 00-.408.571v8.827c0 .259.165.488.408.572l6.959 2.396a32.058 32.058 0 003.981 9.594l-3.225 6.615a.604.604 0 00.116.693l6.247 6.241a.606.606 0 00.694.115l6.619-3.224a32.113 32.113 0 009.602 3.978l2.4 6.952a.603.603 0 00.572.407h8.834a.608.608 0 00.572-.407l2.398-6.954a32.108 32.108 0 009.601-3.978l6.622 3.223a.607.607 0 00.693-.116l6.248-6.243z" fill="#BDD0FB"/><path d="M276.184 141.248a8.972 8.972 0 01-5.55-4.128 8.96 8.96 0 01-1.004-6.84c1.219-4.828 6.136-7.76 10.977-6.548 4.833 1.219 7.772 6.139 6.552 10.966a8.973 8.973 0 01-4.13 5.546 9.035 9.035 0 01-6.845 1.004zm-4.236-10.383a6.597 6.597 0 00.739 5.033 6.608 6.608 0 004.082 3.036 6.608 6.608 0 005.035-.738 6.602 6.602 0 003.039-4.077c.897-3.551-1.266-7.171-4.819-8.068a6.665 6.665 0 00-.962-.168c-3.225-.329-6.297 1.752-7.114 4.982z" fill="url(#paint70_linear_1114_3597)"/><path d="M275.989 154.726a22.608 22.608 0 006.85-.348l.201-.043c.519-.112.886-.544.939-1.045a1.197 1.197 0 00-1.442-1.289 20.157 20.157 0 01-4.259.453c-.079 0-.157 0-.235-.002a19.952 19.952 0 01-9.528-2.512 20.205 20.205 0 01-4.366-3.277l-.098-.096a19.973 19.973 0 01-5.895-14.216c0-.695.035-1.384.104-2.067.466-4.589 2.48-8.845 5.787-12.151a19.994 19.994 0 0114.227-5.889 20.025 20.025 0 0114.229 5.887 19.977 19.977 0 015.895 14.216 20.055 20.055 0 01-2.849 10.324 1.195 1.195 0 002.049 1.228 22.43 22.43 0 003.19-11.55c0-6.01-2.343-11.658-6.595-15.906-4.251-4.248-9.901-6.591-15.917-6.585-6.013 0-11.665 2.339-15.916 6.589-3.701 3.698-5.956 8.459-6.475 13.594a23.3 23.3 0 00-.117 2.312c-.002 11.628 8.88 21.226 20.221 22.373z" fill="url(#paint71_linear_1114_3597)"/><defs><linearGradient id="paint0_linear_1114_3597" x1="47.304" y1="258.441" x2="147.237" y2="279.619" gradientUnits="userSpaceOnUse"><stop stop-color="#4F52FF"/><stop offset="1" stop-color="#4042E2"/></linearGradient><linearGradient id="paint1_linear_1114_3597" x1="404.732" y1="110.697" x2="397.72" y2="235.247" gradientUnits="userSpaceOnUse"><stop stop-color="#4F52FF"/><stop offset="1" stop-color="#4042E2"/></linearGradient><linearGradient id="paint2_linear_1114_3597" x1="205.435" y1="161.196" x2="382.77" y2="472.65" gradientUnits="userSpaceOnUse"><stop stop-color="#4F52FF"/><stop offset="1" stop-color="#4042E2"/></linearGradient><linearGradient id="paint3_linear_1114_3597" x1="293.077" y1="75.797" x2="366.639" y2="75.797" gradientUnits="userSpaceOnUse"><stop stop-color="#DAE3FE"/><stop offset="1" stop-color="#E9EFFD"/></linearGradient><linearGradient id="paint4_linear_1114_3597" x1="293.077" y1="86.611" x2="366.639" y2="86.611" gradientUnits="userSpaceOnUse"><stop stop-color="#DAE3FE"/><stop offset="1" stop-color="#E9EFFD"/></linearGradient><linearGradient id="paint5_linear_1114_3597" x1="293.077" y1="97.425" x2="366.639" y2="97.425" gradientUnits="userSpaceOnUse"><stop stop-color="#DAE3FE"/><stop offset="1" stop-color="#E9EFFD"/></linearGradient><linearGradient id="paint6_linear_1114_3597" x1="293.077" y1="108.238" x2="366.639" y2="108.238" gradientUnits="userSpaceOnUse"><stop stop-color="#DAE3FE"/><stop offset="1" stop-color="#E9EFFD"/></linearGradient><linearGradient id="paint7_linear_1114_3597" x1="372.271" y1="97.872" x2="396.955" y2="97.872" gradientUnits="userSpaceOnUse"><stop stop-color="#DAE3FE"/><stop offset="1" stop-color="#E9EFFD"/></linearGradient><linearGradient id="paint8_linear_1114_3597" x1="402.944" y1="97.872" x2="427.628" y2="97.872" gradientUnits="userSpaceOnUse"><stop stop-color="#DAE3FE"/><stop offset="1" stop-color="#E9EFFD"/></linearGradient><linearGradient id="paint9_linear_1114_3597" x1="433.617" y1="97.872" x2="458.3" y2="97.872" gradientUnits="userSpaceOnUse"><stop stop-color="#DAE3FE"/><stop offset="1" stop-color="#E9EFFD"/></linearGradient><linearGradient id="paint10_linear_1114_3597" x1="372.271" y1="111.703" x2="396.955" y2="111.703" gradientUnits="userSpaceOnUse"><stop stop-color="#DAE3FE"/><stop offset="1" stop-color="#E9EFFD"/></linearGradient><linearGradient id="paint11_linear_1114_3597" x1="402.944" y1="111.703" x2="427.628" y2="111.703" gradientUnits="userSpaceOnUse"><stop stop-color="#DAE3FE"/><stop offset="1" stop-color="#E9EFFD"/></linearGradient><linearGradient id="paint12_linear_1114_3597" x1="433.617" y1="111.703" x2="458.3" y2="111.703" gradientUnits="userSpaceOnUse"><stop stop-color="#DAE3FE"/><stop offset="1" stop-color="#E9EFFD"/></linearGradient><linearGradient id="paint13_linear_1114_3597" x1="234.433" y1="508.475" x2="141.08" y2="608.177" gradientUnits="userSpaceOnUse"><stop stop-color="#09005D"/><stop offset="1" stop-color="#1A0F91"/></linearGradient><linearGradient id="paint14_linear_1114_3597" x1="204.346" y1="515.654" x2="212.56" y2="515.732" gradientUnits="userSpaceOnUse"><stop stop-color="#FEBBBA"/><stop offset="1" stop-color="#FF928E"/></linearGradient><linearGradient id="paint15_linear_1114_3597" x1="242.8" y1="394.872" x2="163.173" y2="500.758" gradientUnits="userSpaceOnUse"><stop stop-color="#09005D"/><stop offset="1" stop-color="#1A0F91"/></linearGradient><linearGradient id="paint16_linear_1114_3597" x1="213.869" y1="489.218" x2="120.512" y2="588.924" gradientUnits="userSpaceOnUse"><stop stop-color="#09005D"/><stop offset="1" stop-color="#1A0F91"/></linearGradient><linearGradient id="paint17_linear_1114_3597" x1="174.747" y1="514.951" x2="181.839" y2="515.019" gradientUnits="userSpaceOnUse"><stop stop-color="#FEBBBA"/><stop offset="1" stop-color="#FF928E"/></linearGradient><linearGradient id="paint18_linear_1114_3597" x1="228.874" y1="384.399" x2="149.247" y2="490.284" gradientUnits="userSpaceOnUse"><stop stop-color="#09005D"/><stop offset="1" stop-color="#1A0F91"/></linearGradient><linearGradient id="paint19_linear_1114_3597" x1="240.192" y1="301.84" x2="282.159" y2="302.239" gradientUnits="userSpaceOnUse"><stop stop-color="#FEBBBA"/><stop offset="1" stop-color="#FF928E"/></linearGradient><linearGradient id="paint20_linear_1114_3597" x1="280.429" y1="293.6" x2="285.226" y2="261.744" gradientUnits="userSpaceOnUse"><stop stop-color="#FEBBBA"/><stop offset="1" stop-color="#FF928E"/></linearGradient><linearGradient id="paint21_linear_1114_3597" x1="282.228" y1="273.887" x2="294.137" y2="255.938" gradientUnits="userSpaceOnUse"><stop stop-color="#FEBBBA"/><stop offset="1" stop-color="#FF928E"/></linearGradient><linearGradient id="paint22_linear_1114_3597" x1="147.797" y1="360.361" x2="200.904" y2="360.866" gradientUnits="userSpaceOnUse"><stop stop-color="#FEBBBA"/><stop offset="1" stop-color="#FF928E"/></linearGradient><linearGradient id="paint23_linear_1114_3597" x1="189.118" y1="304.018" x2="210.116" y2="304.218" gradientUnits="userSpaceOnUse"><stop stop-color="#FEBBBA"/><stop offset="1" stop-color="#FF928E"/></linearGradient><linearGradient id="paint24_linear_1114_3597" x1="215.235" y1="290.917" x2="192.293" y2="276.612" gradientUnits="userSpaceOnUse"><stop stop-color="#FEBBBA"/><stop offset="1" stop-color="#FF928E"/></linearGradient><linearGradient id="paint25_linear_1114_3597" x1="180.204" y1="261.68" x2="209.787" y2="285.523" gradientUnits="userSpaceOnUse"><stop stop-color="#09005D"/><stop offset="1" stop-color="#1A0F91"/></linearGradient><linearGradient id="paint26_linear_1114_3597" x1="209.121" y1="296.106" x2="188.479" y2="283.236" gradientUnits="userSpaceOnUse"><stop stop-color="#FEBBBA"/><stop offset="1" stop-color="#FF928E"/></linearGradient><linearGradient id="paint27_linear_1114_3597" x1="215.144" y1="326.643" x2="244.406" y2="448.662" gradientUnits="userSpaceOnUse"><stop stop-color="#09005D"/><stop offset="1" stop-color="#1A0F91"/></linearGradient><linearGradient id="paint28_linear_1114_3597" x1="195.065" y1="358.921" x2="211.668" y2="358.921" gradientUnits="userSpaceOnUse"><stop stop-color="#FEBBBA"/><stop offset="1" stop-color="#FF928E"/></linearGradient><linearGradient id="paint29_linear_1114_3597" x1="206.195" y1="339.323" x2="241.822" y2="339.323" gradientUnits="userSpaceOnUse"><stop stop-color="#DAE3FE"/><stop offset="1" stop-color="#E9EFFD"/></linearGradient><linearGradient id="paint30_linear_1114_3597" x1="157.603" y1="466.776" x2="148.773" y2="527.834" gradientUnits="userSpaceOnUse"><stop stop-color="#4F52FF"/><stop offset="1" stop-color="#4042E2"/></linearGradient><linearGradient id="paint31_linear_1114_3597" x1="134.282" y1="519.221" x2="143.04" y2="519.221" gradientUnits="userSpaceOnUse"><stop stop-color="#FEBBBA"/><stop offset="1" stop-color="#FF928E"/></linearGradient><linearGradient id="paint32_linear_1114_3597" x1="201.41" y1="473.111" x2="192.579" y2="534.169" gradientUnits="userSpaceOnUse"><stop stop-color="#4F52FF"/><stop offset="1" stop-color="#4042E2"/></linearGradient><linearGradient id="paint33_linear_1114_3597" x1="234.085" y1="394.903" x2="135.885" y2="467.626" gradientUnits="userSpaceOnUse"><stop stop-color="#09005D"/><stop offset="1" stop-color="#1A0F91"/></linearGradient><linearGradient id="paint34_linear_1114_3597" x1="175.763" y1="519.958" x2="186.219" y2="519.958" gradientUnits="userSpaceOnUse"><stop stop-color="#FEBBBA"/><stop offset="1" stop-color="#FF928E"/></linearGradient><linearGradient id="paint35_linear_1114_3597" x1="136.675" y1="469.949" x2="261.073" y2="384.114" gradientUnits="userSpaceOnUse"><stop stop-color="#09005D"/><stop offset="1" stop-color="#1A0F91"/></linearGradient><linearGradient id="paint36_linear_1114_3597" x1="117.687" y1="372.734" x2="122.835" y2="359.742" gradientUnits="userSpaceOnUse"><stop stop-color="#FEBBBA"/><stop offset="1" stop-color="#FF928E"/></linearGradient><linearGradient id="paint37_linear_1114_3597" x1="161.725" y1="423.249" x2="185.876" y2="423.249" gradientUnits="userSpaceOnUse"><stop stop-color="#FEBBBA"/><stop offset="1" stop-color="#FF928E"/></linearGradient><linearGradient id="paint38_linear_1114_3597" x1="133.425" y1="346.318" x2="110.37" y2="369.331" gradientUnits="userSpaceOnUse"><stop stop-color="#FEBBBA"/><stop offset="1" stop-color="#FF928E"/></linearGradient><linearGradient id="paint39_linear_1114_3597" x1="113.356" y1="333.205" x2="140.511" y2="360.059" gradientUnits="userSpaceOnUse"><stop stop-color="#09005D"/><stop offset="1" stop-color="#1A0F91"/></linearGradient><linearGradient id="paint40_linear_1114_3597" x1="129.694" y1="342.581" x2="106.639" y2="365.594" gradientUnits="userSpaceOnUse"><stop stop-color="#FEBBBA"/><stop offset="1" stop-color="#FF928E"/></linearGradient><linearGradient id="paint41_linear_1114_3597" x1="-5013.78" y1="-5097.46" x2="-4928.64" y2="-5006.36" gradientUnits="userSpaceOnUse"><stop stop-color="#09005D"/><stop offset="1" stop-color="#1A0F91"/></linearGradient><linearGradient id="paint42_linear_1114_3597" x1="7413.06" y1="-1966.72" x2="7294.54" y2="-1927.85" gradientUnits="userSpaceOnUse"><stop stop-color="#09005D"/><stop offset="1" stop-color="#1A0F91"/></linearGradient><linearGradient id="paint43_linear_1114_3597" x1="288.193" y1="482.958" x2="324.38" y2="482.958" gradientUnits="userSpaceOnUse"><stop stop-color="#FEBBBA"/><stop offset="1" stop-color="#FF928E"/></linearGradient><linearGradient id="paint44_linear_1114_3597" x1="310.335" y1="506.519" x2="305.02" y2="588.07" gradientUnits="userSpaceOnUse"><stop stop-color="#4F52FF"/><stop offset="1" stop-color="#4042E2"/></linearGradient><linearGradient id="paint45_linear_1114_3597" x1="245.703" y1="485.428" x2="322.064" y2="485.428" gradientUnits="userSpaceOnUse"><stop stop-color="#FEBBBA"/><stop offset="1" stop-color="#FF928E"/></linearGradient><linearGradient id="paint46_linear_1114_3597" x1="292.821" y1="445.623" x2="378.368" y2="445.623" gradientUnits="userSpaceOnUse"><stop stop-color="#09005D"/><stop offset="1" stop-color="#1A0F91"/></linearGradient><linearGradient id="paint47_linear_1114_3597" x1="258.972" y1="503.172" x2="253.658" y2="584.723" gradientUnits="userSpaceOnUse"><stop stop-color="#4F52FF"/><stop offset="1" stop-color="#4042E2"/></linearGradient><linearGradient id="paint48_linear_1114_3597" x1="353.081" y1="302.848" x2="340.502" y2="368.978" gradientUnits="userSpaceOnUse"><stop stop-color="#09005D"/><stop offset="1" stop-color="#1A0F91"/></linearGradient><linearGradient id="paint49_linear_1114_3597" x1="332.234" y1="385.58" x2="327.087" y2="352.529" gradientUnits="userSpaceOnUse"><stop stop-color="#FEBBBA"/><stop offset="1" stop-color="#FF928E"/></linearGradient><linearGradient id="paint50_linear_1114_3597" x1="304.21" y1="350.546" x2="342.85" y2="337.501" gradientUnits="userSpaceOnUse"><stop stop-color="#FEBBBA"/><stop offset="1" stop-color="#FF928E"/></linearGradient><linearGradient id="paint51_linear_1114_3597" x1="295.966" y1="316.077" x2="341.048" y2="366.095" gradientUnits="userSpaceOnUse"><stop stop-color="#09005D"/><stop offset="1" stop-color="#1A0F91"/></linearGradient><linearGradient id="paint52_linear_1114_3597" x1="303.058" y1="347.138" x2="341.698" y2="334.093" gradientUnits="userSpaceOnUse"><stop stop-color="#FEBBBA"/><stop offset="1" stop-color="#FF928E"/></linearGradient><linearGradient id="paint53_linear_1114_3597" x1="353.401" y1="423.107" x2="425.134" y2="423.107" gradientUnits="userSpaceOnUse"><stop stop-color="#FEBBBA"/><stop offset="1" stop-color="#FF928E"/></linearGradient><linearGradient id="paint54_linear_1114_3597" x1="354.763" y1="415.725" x2="310.279" y2="430.326" gradientUnits="userSpaceOnUse"><stop stop-color="#09005D"/><stop offset="1" stop-color="#1A0F91"/></linearGradient><linearGradient id="paint55_linear_1114_3597" x1="293.647" y1="386.576" x2="261.632" y2="420.439" gradientUnits="userSpaceOnUse"><stop stop-color="#09005D"/><stop offset="1" stop-color="#1A0F91"/></linearGradient><linearGradient id="paint56_linear_1114_3597" x1="393.936" y1="582.735" x2="393.464" y2="632.847" gradientUnits="userSpaceOnUse"><stop stop-color="#09005D"/><stop offset="1" stop-color="#1A0F91"/></linearGradient><linearGradient id="paint57_linear_1114_3597" x1="406.024" y1="526.772" x2="408.623" y2="506.443" gradientUnits="userSpaceOnUse"><stop stop-color="#FEBBBA"/><stop offset="1" stop-color="#FF928E"/></linearGradient><linearGradient id="paint58_linear_1114_3597" x1="461.692" y1="583.373" x2="461.22" y2="633.485" gradientUnits="userSpaceOnUse"><stop stop-color="#09005D"/><stop offset="1" stop-color="#1A0F91"/></linearGradient><linearGradient id="paint59_linear_1114_3597" x1="462.897" y1="533.739" x2="465.429" y2="513.929" gradientUnits="userSpaceOnUse"><stop stop-color="#FEBBBA"/><stop offset="1" stop-color="#FF928E"/></linearGradient><linearGradient id="paint60_linear_1114_3597" x1="480.619" y1="458.466" x2="402.57" y2="458.466" gradientUnits="userSpaceOnUse"><stop stop-color="#09005D"/><stop offset="1" stop-color="#1A0F91"/></linearGradient><linearGradient id="paint61_linear_1114_3597" x1="467.255" y1="367.64" x2="409.333" y2="429.535" gradientUnits="userSpaceOnUse"><stop stop-color="#FEBBBA"/><stop offset="1" stop-color="#FF928E"/></linearGradient><linearGradient id="paint62_linear_1114_3597" x1="410.982" y1="359.117" x2="344.614" y2="359.117" gradientUnits="userSpaceOnUse"><stop stop-color="#FEBBBA"/><stop offset="1" stop-color="#FF928E"/></linearGradient><linearGradient id="paint63_linear_1114_3597" x1="434.876" y1="321.922" x2="411.797" y2="298.224" gradientUnits="userSpaceOnUse"><stop stop-color="#FEBBBA"/><stop offset="1" stop-color="#FF928E"/></linearGradient><linearGradient id="paint64_linear_1114_3597" x1="401.379" y1="283.323" x2="430.148" y2="321.411" gradientUnits="userSpaceOnUse"><stop stop-color="#FEBBBA"/><stop offset="1" stop-color="#FF928E"/></linearGradient><linearGradient id="paint65_linear_1114_3597" x1="423.372" y1="292.505" x2="388.974" y2="292.505" gradientUnits="userSpaceOnUse"><stop stop-color="#09005D"/><stop offset="1" stop-color="#1A0F91"/></linearGradient><linearGradient id="paint66_linear_1114_3597" x1="443.555" y1="313.469" x2="420.475" y2="289.772" gradientUnits="userSpaceOnUse"><stop stop-color="#FEBBBA"/><stop offset="1" stop-color="#FF928E"/></linearGradient><linearGradient id="paint67_linear_1114_3597" x1="-900.083" y1="-2759.93" x2="-851.987" y2="-2642.85" gradientUnits="userSpaceOnUse"><stop stop-color="#4F52FF"/><stop offset="1" stop-color="#4042E2"/></linearGradient><linearGradient id="paint68_linear_1114_3597" x1="177.607" y1="77.775" x2="204.149" y2="77.775" gradientUnits="userSpaceOnUse"><stop stop-color="#DAE3FE"/><stop offset="1" stop-color="#E9EFFD"/></linearGradient><linearGradient id="paint69_linear_1114_3597" x1="158.068" y1="77.563" x2="223.324" y2="77.563" gradientUnits="userSpaceOnUse"><stop stop-color="#DAE3FE"/><stop offset="1" stop-color="#E9EFFD"/></linearGradient><linearGradient id="paint70_linear_1114_3597" x1="269.353" y1="132.493" x2="287.435" y2="132.493" gradientUnits="userSpaceOnUse"><stop stop-color="#DAE3FE"/><stop offset="1" stop-color="#E9EFFD"/></linearGradient><linearGradient id="paint71_linear_1114_3597" x1="255.763" y1="132.348" x2="300.784" y2="132.348" gradientUnits="userSpaceOnUse"><stop stop-color="#DAE3FE"/><stop offset="1" stop-color="#E9EFFD"/></linearGradient></defs></svg>