<svg width="655" height="640" fill="none" xmlns="http://www.w3.org/2000/svg"><path d="M645 273.364C627.258 159.183 554.515 18.902 410.803 4.223c0 0-109.113-13.05-216.672 6.73C130.294 22.688 74.319 57.63 38.899 107.847 3.48 158.068-8.35 219.302 6.008 277.681c9.326 37.918 15.627 77.161 13.9 116.124-2.181 49.138-6.289 100.804 15.805 146.626 32.373 67.138 111.355 86.914 180.274 93.221 25.397 2.324 50.887 3.261 76.307 5.236 48.763 3.79 103.449-2.343 150.448-14.825 239.515-63.616 220-236.519 202.258-350.699z" fill="#F4F7FA"/><path d="M426.035 583.416l60.19 9.157s16.027-29.152 4.592-53.187c-23.333-49.037 21.245-66.05 38.85-75.968 26.548-14.957 40.654-37.357 14.491-57.259-29.602-22.519 5.982-65.056 52.341-83.033 45.364-17.591 40.27-108.384-61.413-79.324-60.724 17.356-60.989 78.899-68.512 109.945-7.522 31.047-54.713 26.531-44.544 67.404 8.686 34.912 31.033 62.804 7.765 82.359-23.271 19.554-29.173 44.548-3.76 79.906z" fill="url(#paint0_linear_1119_3700)"/><g opacity=".9" fill="#BEB8F2"><path d="M451.235 592.965l1.285-.038c-.026-.796-2.154-80.471 19.552-160.09 19.995-73.35 64.902-161.666 165.28-165.84l-.053-1.284c-44.683 1.858-82.277 20.254-111.737 54.676-23.534 27.498-41.95 65.226-54.736 112.135-21.751 79.801-19.616 159.644-19.591 160.441z"/><path d="M513.871 335.304l1.285.034c1.158-42.763 26.217-99.945 26.471-100.519l-1.175-.519c-.254.576-25.413 57.991-26.581 101.004zm20.258-22.398c46.83-20.144 84.849-1.275 85.228-1.083l.583-1.146c-.384-.196-38.914-19.344-86.318 1.047l.507 1.182zm-73.41 172.756c23.321-57.746 107.037-60.043 107.853-59.997l.156-1.276c-.798-.121-85.673 2.533-109.203 60.791l1.194.482zm3.47-25.444l1.284-.071c-2.148-39.682-39.847-72.498-40.228-72.825l-.837.973c.375.325 37.662 32.794 39.781 71.923zM452.46 580.382c5.381-23.04 41.479-36.436 41.845-36.571l-.439-1.207c-1.513.551-37.118 13.767-42.656 37.486l1.25.292zm-.756-18.861l1.284-.023c-.338-18.704-24.804-43.202-32.845-51.255-1.136-1.138-2.117-2.121-2.258-2.329l-1.079.7c.194.297.843.953 2.425 2.537 7.952 7.961 32.142 32.185 32.473 50.37z"/></g><path d="M210.597 432.898c13.259 3.735 18.37 16.078 20.667 25.586-.905.967-1.179 1.753-1.872 2.926-6.265 10.587-11.195 13.769-19.017 23.232-1.684 2.036-8.443 6.51-11.323 8.162l-5.417 2.992s-29.232-12.27-24.126-29.575c5.106-17.305-21.18-32.48-34.114-42.235-7.943-5.991-9.658-11.276-12.222-13.945-27.154-28.261-43.671-27.472-46.855-42.087-3.515-16.133 15.607-21.71 12.709-39.463-3.271-20.046-29.852-26.391-28.709-46.053.197-3.371.49-6.829 2.494-10.861 4.95-9.955 15.399-12.094 14.128-23.641-2.558-23.212 10.073-45.84 34.103-44.544 23.716 1.28 38.125 38.457 28.788 90.418-2.425 37.71 2.647 42.878 17.385 52.944 10.323 7.051 42.983 19.33 40.165 40.974-2.814 21.645-1.941 40.9 13.216 45.17z" fill="url(#paint1_linear_1119_3700)"/><g opacity=".5" fill="#FCFDFE"><path d="M215.111 480.308l-.693.581a563.004 563.004 0 01-9.568-11.516c-22.999-28.443-42.288-58.162-57.328-88.326-12.745-25.562-22.624-51.799-29.367-77.989-5.421-21.061-8.852-42.203-10.196-62.841-.944-14.508-.855-28.62.263-41.941.194-2.322.525-4.695.845-6.989.428-3.059.869-6.22.99-9.283l.88-.029c-.123 3.106-.567 6.29-.996 9.366-.32 2.284-.65 4.645-.842 6.942-1.115 13.28-1.204 27.349-.262 41.815 1.339 20.587 4.763 41.68 10.171 62.693 6.727 26.134 16.587 52.322 29.307 77.833 15.015 30.114 34.272 59.785 57.237 88.185a571.584 571.584 0 009.559 11.499z"/><path d="M128.585 334.221l-.828.357c-13.001-33.742-67.872-63.509-68.425-63.806l.466-.763c.556.297 55.683 30.199 68.787 64.212zm45.083 90.65l-.786.443c-11.662-21.719 7.259-67.961 7.451-68.427l.814.272c-.19.464-18.958 46.333-7.479 67.712zm7.751 11.684l-.704.567c-10.16-12.448-31.235-23.607-59.335-31.419-1.413-.393-1.413-.393-1.516-.515l.697-.576-.349.288.221-.386c.09.037.624.185 1.242.357 28.262 7.858 49.481 19.111 59.744 31.684zm27.881 36.731l-.828.359c-6.466-16.569 7.674-40.729 7.818-40.971l.754.391c-.142.237-14.062 24.032-7.744 40.221zm4.921 8.058c-12.731-6.842-28.164-10.176-47.177-10.192l.066-.864c19.159.016 34.723 3.382 47.577 10.292l-.466.764zM109.835 252.228l-.844.311c-6.128-19.232-17.236-37.714-20.889-43.787-.884-1.47-1.193-1.989-1.266-2.19l.832-.345c.06.153.564.994 1.204 2.057 3.662 6.091 14.807 24.633 20.963 43.954zm5.113 33.059l-.883.059c.078-19.287 28.22-48.384 29.418-49.614l.617.572c-.291.297-29.077 30.055-29.152 48.983z"/></g><path d="M487.866 476.004c-3.111.336-3.259-16.094-16.791-33.95-3.38-4.462-20.13-30.073-42.688-25.543l-13.136 2.638c-6.057-8.867-10.123-18.343 2.163-25.214 19.081-10.672 10.971-44.825 2.295-55.527-10.739-13.246-35.068-44.583-5.838-61.515 24.334-14.096 43.017-18.531 36.791-50.885-6.229-32.354 7.232-56.663 38.438-62.068 32.842-5.69 49.107-52.538 79.029-45.274 52.137 12.661 28.101 92.935-22.887 126.654-50.987 33.719-13.966 45.12-5.847 70.88a46.701 46.701 0 011.443 10.937c.329 28.83-27.109 40.339-42.204 67.6-20.587 37.177-5.527 80.7-10.768 81.267z" fill="url(#paint2_linear_1119_3700)"/><g opacity=".5" fill="#FCFDFE"><path d="M454.39 407.19l-1.568.067c-3.625-108.336 48.432-218.505 135.856-287.516l.997 1.134c-87.058 68.72-138.896 178.43-135.285 286.315z"/><path d="M457.769 347.899l-1.53.359c-10.297-41.36-55.91-64.793-56.37-65.026l.754-1.31c.467.233 46.686 23.966 57.146 65.977zm-3.47 39.339l-1.516-.368c11.948-41.853 91.525-66.02 92.327-66.26l.455 1.415c-.796.235-79.548 24.155-91.266 65.213zm35.438-141.643l-1.545-.245c6.454-33.808-26.38-75.812-26.713-76.233l1.261-.898c.336.425 33.57 42.944 26.997 77.376zm36.649-59.987l-1.107-1.04c29.337-27.876 85.159-29.348 85.721-29.36l.014 1.484c-.553.011-55.748 1.474-84.628 28.916z"/></g><path d="M479.109 127.007v468.765l-75.749 4.037-276.027 14.697V117.992l351.776 9.015z" fill="#D8DEE8"/><path opacity=".3" d="M403.477 599.809l-276.144 14.697V133.695c24.741 19.49 46.679 46.288 50.907 81.751 10.823 90.772-24.941 256.045 105.82 268.509 93.232 8.883 129.321 66.217 119.417 115.854z" fill="#D8DEE8"/><path d="M507.406 101.159v466.572l-28.167 1.367-74.864 3.652-197.574 9.628-47.863-74.615c-.007-.016.123-.023.123-.023V90.661l348.345 10.498z" fill="#fff"/><path d="M158.755 507.735s26.935 31.399 93.195 40.949l-45.179 33.691-48.016-74.64z" fill="#D8DEE8"/><path d="M187.825 149.264v9.045l14.382.279v42.096l11.186.144v-42.016l14.382.278v-8.98l-39.95-.846zm75.908 1.383l-13.686-.279-18.736 50.686 12.137.16 3.842-12.032 19.255.279 3.81 12.089 11.993.151-18.615-51.054zm-13.613 29.554c3.762-11.609 6.041-18.88 6.832-21.828.192.839.512 1.972.957 3.419.448 1.438 2.437 7.655 5.968 18.631l-13.757-.222zm65.122-3.38l16.226-24.551-11.801-.247-10.953 17.849-11.209-18.304-12.217-.256 16.21 24.695-17.321 25.719 11.865.151 12.105-18.855 12.057 19.159 12.496.16-17.458-25.52z" fill="#97A6B7"/><path d="M445.864 165.498l-96.64-1.828v-11.132l96.64 2.005v10.955zm40.976 19.982l-137.616-2.167v-11.785l137.616 2.432v11.52zm0 18.559l-137.616-1.737v-11.131l137.616 1.988v10.88zM286.6 253.77l-98.962-.418v-11.431l98.962.603v11.246zm-51.883 17.798l-39.7-.047v44.317l13.853-.08 6.919-.041 25.566-.151v-43.991l-6.638-.007zm.247 38.03l-14.174.071-18.169.087-2.014.009v-32.206l30.112.384h4.243v31.655h.002zm251.876-26.196l-225.753.155v-11.958l225.753.283v11.52zm0 18.56l-225.753.864V291.53l225.753-.448v10.88zm-255.055 35.017l-36.768.343v44.318l46.338-.759V336.89l-9.57.089zm3.179 38.007l-17.106.263-10.985.167-6.263.096v-32.206l27.181-.279 7.175-.071v32.03h-.002zm251.876-28.862l-225.753 2.544V336.71l225.753-2.106v11.52zm0 18.561l-225.753 3.252v-11.296l225.753-2.836v10.88zm-291.823 38.447v44.311l16.53-.448 29.808-.8v-43.991l-46.338.928zm39.947 37.904l-26.789.704-7.565.192v-32.878l34.354-.71v32.692zm251.876-32.19l-225.753 4.933V401.82l225.753-4.494v11.52zm0 18.56l-225.753 5.642v-11.297l225.753-5.225v10.88zm-253.122 40.347l-38.701 1.181v44.318l46.338-1.742v-43.99l-7.637.233zm1.246 38.663l-34.354 1.254v-32.868l34.354-1.079v32.693zm251.876-34.847l-225.753 7.321v-11.958l225.753-6.883v11.52zm0 18.561l-225.753 8.027v-11.294l225.753-7.613v10.88z" fill="#D8DEE8"/><path d="M212.57 316.959a5.61 5.61 0 01-3.884-1.509l-15.305-14.48c-2.158-2.041-2.158-5.362 0-7.417 2.158-2.053 5.648-2.06 7.801-.018l10.624 10.075 24.524-33.751c1.714-2.361 5.104-2.939 7.572-1.296 2.464 1.641 3.074 4.882 1.365 7.241l-28.19 38.88c-.926 1.278-2.398 2.101-4.016 2.249a6.287 6.287 0 01-.491.026zm0 61.581c-1.45.023-2.848-.501-3.884-1.47l-15.305-14.329c-2.158-2.02-2.158-5.342 0-7.417 2.158-2.073 5.648-2.114 7.801-.096l10.624 9.97 24.524-33.993c1.714-2.377 5.104-2.99 7.572-1.371 2.464 1.618 3.074 4.852 1.365 7.227l-28.19 39.161c-.926 1.287-2.398 2.126-4.016 2.288a4.808 4.808 0 01-.491.03z" fill="#97A6B7"/><path d="M79.968 603.483v21.216c0 6.855 42.823 12.411 95.645 12.411 52.826 0 95.646-5.556 95.646-12.411v-21.216H79.968z" fill="url(#paint3_linear_1119_3700)"/><path d="M175.613 615.892c52.824 0 95.646-5.557 95.646-12.411 0-6.855-42.822-12.412-95.646-12.412-52.823 0-95.645 5.557-95.645 12.412 0 6.854 42.822 12.411 95.645 12.411z" fill="url(#paint4_linear_1119_3700)"/><path d="M175.613 616.749c-46.782 0-95.703-4.468-95.703-13.088 0-.473.17-1.305.642-1.305.474 0 .27.651.27 1.125 0 5.465 38.928 11.556 94.791 11.556s94.791-6.089 94.791-11.556c0-.474.08-.917.553-.917.473 0 .359.631.359 1.104 0 8.619-48.921 13.081-95.703 13.081z" fill="url(#paint5_linear_1119_3700)"/><path d="M166.575 604.173a50.48 50.48 0 013.006-1.922c1.058-.631 2.439-1.202 4.109-1.712 1.68-.51 3.783-.926 6.307-1.248 2.523-.322 5.677-.492 9.444-.51a127.32 127.32 0 0110.412.352c3.236.252 6.093.631 8.56 1.134 2.457.503 4.464 1.124 6.009 1.865 1.536.741 2.452 1.591 2.747 2.546l10.771.11c.781.005 1.472.069 2.064.192.601.123.893.277.893.466l.005.887-13.845-.132c-.484 1.085-1.723 2.08-3.712 2.98-1.979.903-4.509 1.682-7.593 2.343l-5.042-.702a5.869 5.869 0 01-1.113-.263c-.291-.105-.432-.221-.432-.347 0-.171.388-.366 1.17-.583a62.216 62.216 0 002.64-.814 26.219 26.219 0 002.889-1.142c.94-.439 1.568-.965 1.895-1.575l-32.679-.325a30.93 30.93 0 01-2.887 1.863c-1.069.61-2.477 1.159-4.24 1.648-1.76.487-3.952.882-6.576 1.189-2.633.304-5.929.466-9.915.484a98.325 98.325 0 01-8.768-.34c-2.857-.243-5.392-.604-7.609-1.084-2.217-.482-4.032-1.079-5.459-1.787-1.414-.711-2.212-1.525-2.377-2.448l-8.866-.092a11.443 11.443 0 01-2.094-.185c-.612-.119-.923-.274-.923-.473l-.005-.887 12.121.114c.538-.934 1.635-1.748 3.315-2.441 1.68-.695 3.73-1.309 6.151-1.851l4.059.558c1.232.173 1.845.374 1.847.608 0 .125-.249.281-.759.466-.521.187-1.12.409-1.819.667-.691.259-1.37.563-2.019.91-.66.347-1.147.741-1.476 1.182l29.794.299zm-29.909 1.209c.243.581.787 1.081 1.61 1.504.822.423 1.846.768 3.081 1.04 1.234.272 2.617.471 4.151.597a55 55 0 004.838.178c1.964-.009 3.676-.094 5.139-.254 1.451-.16 2.733-.377 3.844-.651 1.1-.274 2.071-.592 2.889-.955.821-.364 1.55-.757 2.208-1.18l-27.76-.279zm71.143-.793c-.242-.59-.836-1.106-1.76-1.55-.923-.443-2.107-.816-3.543-1.117-1.433-.302-3.108-.528-5.021-.675a78.19 78.19 0 00-6.313-.203c-2.044.009-3.818.101-5.287.274-1.472.174-2.752.405-3.845.697-1.081.293-2.011.634-2.759 1.022-.759.389-1.469.805-2.116 1.248l30.644.304z" fill="#FCB048"/><path d="M175.624 592.413c-42.647 0-87.051 3.753-94.155 11.017.279.256.537.531.777.819 5.986-5.045 42.654-10.124 93.378-10.124 52.028 0 89.282 5.344 93.794 10.512.222-.283.46-.555.716-.809-5.865-7.525-51.104-11.415-94.51-11.415z" fill="url(#paint6_linear_1119_3700)"/><path d="M53.378 581.197v21.214c0 6.855 42.823 12.411 95.646 12.411s95.645-5.556 95.645-12.411v-21.214H53.378z" fill="url(#paint7_linear_1119_3700)"/><path d="M244.669 581.197c0 6.855-42.822 12.412-95.645 12.412-52.826 0-95.646-5.557-95.646-12.412s42.823-12.411 95.646-12.411c52.825 0 95.645 5.556 95.645 12.411z" fill="url(#paint8_linear_1119_3700)"/><path d="M149.023 594.466c-46.782 0-95.703-4.469-95.703-13.086 0-.473.17-1.305.643-1.305s.27.651.27 1.124c0 5.465 38.927 11.557 94.79 11.557 55.863 0 94.791-6.089 94.791-11.557 0-.473.08-.916.553-.916.473 0 .359.631.359 1.104 0 8.617-48.921 13.079-95.703 13.079z" fill="url(#paint9_linear_1119_3700)"/><path d="M139.986 581.89a51.136 51.136 0 013.006-1.922c1.058-.631 2.438-1.203 4.109-1.712 1.68-.51 3.783-.926 6.304-1.248 2.524-.323 5.678-.492 9.445-.51 3.696-.018 7.163.098 10.409.352 3.237.251 6.094.631 8.56 1.134 2.457.503 4.464 1.124 6.009 1.865 1.536.74 2.453 1.591 2.748 2.546l10.77.11c.782.004 1.472.068 2.064.192.601.123.894.279.894.466l.004.887-13.844-.133c-.485 1.086-1.724 2.08-3.712 2.981-1.98.903-4.51 1.682-7.594 2.343l-5.042-.702a5.947 5.947 0 01-1.113-.263c-.29-.105-.432-.221-.432-.347 0-.172.389-.366 1.17-.583.78-.219 1.66-.491 2.64-.814a26.628 26.628 0 002.889-1.143c.94-.438 1.568-.964 1.895-1.574l-32.679-.325a31.042 31.042 0 01-2.886 1.863c-1.07.61-2.478 1.159-4.24 1.646-1.76.486-3.952.882-6.576 1.188-2.634.304-5.93.466-9.916.485a98.698 98.698 0 01-8.768-.341c-2.857-.242-5.392-.603-7.609-1.083-2.217-.483-4.032-1.079-5.458-1.788-1.417-.711-2.211-1.524-2.377-2.448l-8.867-.091a11.528 11.528 0 01-2.093-.185c-.613-.119-.924-.275-.924-.473l-.004-.887 12.121.116c.537-.935 1.634-1.748 3.314-2.441 1.68-.695 3.73-1.31 6.151-1.851l4.059.557c1.232.174 1.845.375 1.847.608 0 .126-.249.282-.759.467-.519.187-1.12.409-1.819.667-.69.258-1.369.562-2.018.912-.659.348-1.148.741-1.477 1.182l29.799.297zm-29.909 1.209c.243.581.787 1.081 1.609 1.504.823.423 1.847.768 3.082 1.04 1.234.272 2.617.471 4.15.597 1.543.128 3.157.187 4.839.178 1.964-.009 3.676-.094 5.139-.254 1.451-.16 2.733-.377 3.844-.651 1.1-.274 2.071-.592 2.892-.956.82-.363 1.549-.754 2.208-1.179l-27.763-.279zm71.143-.793c-.242-.59-.836-1.106-1.76-1.55-.923-.443-2.107-.816-3.54-1.117-1.434-.302-3.109-.528-5.022-.675a77.732 77.732 0 00-6.313-.203c-2.044.009-3.817.1-5.289.274-1.472.174-2.752.405-3.843.697-1.081.293-2.011.633-2.759 1.022-.758.389-1.469.805-2.118 1.248l30.644.304z" fill="#FCB048"/><path d="M149.037 570.129c-42.647 0-87.051 3.754-94.155 11.018.279.256.537.53.777.818 5.986-5.045 42.654-10.121 93.378-10.121 52.028 0 89.283 5.344 93.795 10.512.221-.284.459-.556.715-.812-5.867-7.524-51.106-11.415-94.51-11.415z" fill="url(#paint10_linear_1119_3700)"/><path d="M76.32 558.979v21.214c0 6.855 42.822 12.412 95.645 12.412 52.823 0 95.646-5.557 95.646-12.412v-21.214H76.319z" fill="url(#paint11_linear_1119_3700)"/><path d="M171.967 571.391c52.824 0 95.646-5.557 95.646-12.412 0-6.854-42.822-12.411-95.646-12.411s-95.646 5.557-95.646 12.411c0 6.855 42.822 12.412 95.646 12.412z" fill="url(#paint12_linear_1119_3700)"/><path d="M171.965 572.248c-46.782 0-95.703-4.469-95.703-13.088 0-.474.169-1.306.642-1.306s.27.652.27 1.125c0 5.465 38.928 11.554 94.791 11.554 55.862 0 94.79-6.089 94.79-11.554 0-.473.08-.917.554-.917.473 0 .358.631.358 1.104.003 8.62-48.918 13.082-95.702 13.082z" fill="url(#paint13_linear_1119_3700)"/><path d="M162.927 559.672a51.66 51.66 0 013.006-1.923c1.058-.63 2.439-1.202 4.109-1.712 1.68-.509 3.783-.925 6.304-1.248 2.524-.322 5.678-.491 9.445-.509 3.696-.019 7.163.098 10.409.352 3.237.251 6.094.631 8.56 1.133 2.457.503 4.464 1.125 6.009 1.866 1.536.74 2.453 1.59 2.748 2.546l10.77.11c.782.004 1.472.068 2.064.192.601.123.894.278.894.466l.004.887-13.844-.133c-.485 1.086-1.724 2.08-3.712 2.981-1.98.903-4.51 1.682-7.591 2.343l-5.043-.702a6.047 6.047 0 01-1.113-.263c-.29-.105-.432-.222-.432-.347 0-.172.389-.366 1.171-.583.779-.22 1.659-.492 2.64-.814.98-.322 1.94-.704 2.889-1.143.939-.439 1.568-.962 1.895-1.575l-32.679-.324a31.406 31.406 0 01-2.887 1.863c-1.07.61-2.478 1.158-4.24 1.645-1.76.487-3.952.883-6.576 1.189-2.633.304-5.929.466-9.915.484a98.31 98.31 0 01-8.768-.34c-2.858-.242-5.392-.604-7.61-1.086-2.217-.482-4.032-1.079-5.458-1.787-1.417-.711-2.21-1.525-2.377-2.448l-8.866-.092a11.443 11.443 0 01-2.094-.185c-.613-.119-.923-.276-.923-.473l-.005-.887 12.121.117c.537-.935 1.634-1.749 3.314-2.441 1.68-.695 3.731-1.31 6.151-1.852l4.06.558c1.232.174 1.844.375 1.847.608 0 .126-.25.281-.759.466-.519.185-1.12.409-1.82.668-.69.258-1.369.562-2.018.909-.661.348-1.147.741-1.477 1.182l29.797.302zm-29.906 1.207c.242.58.786 1.081 1.611 1.504.823.422 1.847.768 3.081 1.04s2.617.47 4.151.596c1.543.128 3.157.188 4.839.178 1.963-.009 3.675-.093 5.138-.253 1.452-.16 2.734-.377 3.845-.652 1.101-.274 2.071-.592 2.891-.955.821-.364 1.55-.757 2.208-1.18l-27.764-.278zm71.143-.794c-.243-.589-.837-1.106-1.761-1.549-.923-.444-2.107-.816-3.542-1.118-1.434-.302-3.109-.528-5.022-.674a77.705 77.705 0 00-6.313-.204c-2.044.009-3.817.103-5.289.275-1.472.173-2.752.404-3.843.697-1.081.292-2.011.633-2.758 1.021-.759.389-1.47.805-2.119 1.248l30.647.304z" fill="#FCB048"/><path d="M171.979 547.91c-42.647 0-87.052 3.753-94.156 11.017.28.256.537.53.777.818 5.987-5.045 42.654-10.121 93.379-10.121 52.027 0 89.282 5.342 93.794 10.512.222-.283.459-.555.715-.811-5.865-7.523-51.104-11.415-94.509-11.415z" fill="url(#paint14_linear_1119_3700)"/><path d="M90.242 536.696v21.214c0 6.855 42.823 12.411 95.646 12.411 52.825 0 95.646-5.556 95.646-12.411v-21.214H90.242z" fill="url(#paint15_linear_1119_3700)"/><path d="M281.536 536.696c0 6.855-42.823 12.412-95.646 12.412s-95.646-5.557-95.646-12.412 42.823-12.411 95.646-12.411 95.646 5.556 95.646 12.411z" fill="url(#paint16_linear_1119_3700)"/><path d="M185.887 549.965c-46.781 0-95.702-4.469-95.702-13.086 0-.473.169-1.305.642-1.305s.27.651.27 1.124c0 5.465 38.928 11.555 94.79 11.555 55.861 0 94.791-6.09 94.791-11.555 0-.473.08-.916.553-.916.474 0 .359.631.359 1.104.003 8.617-48.919 13.079-95.703 13.079z" fill="url(#paint17_linear_1119_3700)"/><path d="M176.85 537.389a50.774 50.774 0 013.005-1.923c1.059-.631 2.439-1.202 4.11-1.712 1.68-.509 3.783-.925 6.304-1.245 2.524-.323 5.678-.492 9.445-.51 3.696-.018 7.163.098 10.409.352 3.237.251 6.094.631 8.56 1.134 2.457.503 4.464 1.124 6.009 1.865 1.536.74 2.453 1.591 2.748 2.546l10.77.11c.782.004 1.472.068 2.064.192.601.123.893.279.893.466l.005.887-13.844-.133c-.485 1.086-1.724 2.08-3.712 2.981-1.98.903-4.51 1.682-7.591 2.343l-5.043-.702a6.047 6.047 0 01-1.113-.263c-.29-.105-.432-.221-.432-.347 0-.172.389-.366 1.171-.583.779-.22 1.661-.492 2.64-.814.98-.322 1.94-.704 2.889-1.143.939-.439 1.568-.964 1.895-1.574l-32.679-.325a31.406 31.406 0 01-2.887 1.863c-1.07.61-2.478 1.159-4.24 1.645-1.76.487-3.952.883-6.576 1.189-2.633.304-5.929.466-9.916.485a98.713 98.713 0 01-8.768-.341c-2.857-.242-5.392-.603-7.609-1.086-2.217-.482-4.032-1.079-5.458-1.787-1.415-.711-2.21-1.525-2.377-2.448l-8.867-.091a11.523 11.523 0 01-2.093-.186c-.613-.118-.924-.276-.924-.473l-.004-.887 12.121.115c.537-.935 1.634-1.749 3.314-2.442 1.68-.694 3.731-1.309 6.151-1.851l4.06.558c1.232.173 1.844.375 1.846.608 0 .125-.249.281-.759.466-.518.185-1.119.409-1.819.668-.69.258-1.369.562-2.018.912-.661.347-1.148.74-1.477 1.181l29.797.3zm-29.907 1.207c.243.58.787 1.081 1.612 1.503.823.423 1.847.768 3.081 1.04s2.617.471 4.151.597c1.543.126 3.156.187 4.839.178 1.963-.009 3.675-.093 5.138-.253 1.452-.16 2.734-.378 3.845-.652 1.099-.274 2.071-.592 2.891-.955.821-.364 1.55-.754 2.208-1.18l-27.765-.278zm71.143-.794c-.242-.589-.836-1.106-1.76-1.549-.923-.444-2.107-.816-3.542-1.118-1.434-.302-3.109-.528-5.022-.674a77.705 77.705 0 00-6.313-.204c-2.044.009-3.817.103-5.289.275-1.472.173-2.752.404-3.843.697-1.081.292-2.011.631-2.759 1.021a19.56 19.56 0 00-2.116 1.248l30.644.304z" fill="#FCB048"/><path d="M185.902 525.626c-42.647 0-87.052 3.754-94.156 11.018.279.256.537.53.777.818 5.987-5.045 42.654-10.121 93.379-10.121 52.027 0 89.282 5.344 93.794 10.512.222-.284.459-.556.715-.812-5.865-7.522-51.104-11.415-94.509-11.415z" fill="url(#paint18_linear_1119_3700)"/><path d="M79.968 512.656v21.213c0 6.855 42.823 12.412 95.645 12.412 52.826 0 95.646-5.557 95.646-12.412v-21.213H79.968z" fill="url(#paint19_linear_1119_3700)"/><path d="M271.259 512.656c0 6.854-42.823 12.411-95.646 12.411-52.822 0-95.645-5.557-95.645-12.411 0-6.855 42.823-12.412 95.645-12.412 52.823-.002 95.646 5.557 95.646 12.412z" fill="url(#paint20_linear_1119_3700)"/><path d="M175.613 525.924c-46.782 0-95.703-4.469-95.703-13.086 0-.473.17-1.305.642-1.305.474 0 .27.652.27 1.125 0 5.465 38.928 11.554 94.791 11.554s94.791-6.089 94.791-11.554c0-.473.08-.917.553-.917.473 0 .359.631.359 1.104 0 8.617-48.921 13.079-95.703 13.079z" fill="url(#paint21_linear_1119_3700)"/><path d="M166.575 513.346a50.48 50.48 0 013.006-1.923c1.058-.63 2.439-1.202 4.109-1.712 1.68-.509 3.783-.925 6.307-1.245 2.523-.323 5.677-.492 9.444-.51 3.696-.018 7.164.098 10.412.352 3.236.251 6.093.631 8.56 1.134 2.457.503 4.464 1.124 6.009 1.865 1.536.74 2.452 1.591 2.747 2.546l10.771.11c.781.004 1.472.068 2.064.192.601.123.893.279.893.466l.005.887-13.845-.133c-.484 1.086-1.723 2.08-3.712 2.981-1.979.903-4.509 1.682-7.593 2.343l-5.042-.702a5.947 5.947 0 01-1.113-.263c-.291-.105-.432-.221-.432-.347 0-.172.388-.366 1.17-.583a62.216 62.216 0 002.64-.814 26.628 26.628 0 002.889-1.143c.94-.438 1.568-.962 1.895-1.574l-32.679-.325a30.93 30.93 0 01-2.887 1.863c-1.069.61-2.477 1.159-4.24 1.646-1.76.486-3.952.882-6.576 1.188-2.633.304-5.929.466-9.915.485a98.698 98.698 0 01-8.768-.341c-2.857-.242-5.392-.603-7.609-1.083-2.217-.483-4.032-1.079-5.459-1.788-1.414-.711-2.212-1.524-2.377-2.448l-8.866-.091a11.532 11.532 0 01-2.094-.185c-.612-.119-.923-.277-.923-.473l-.005-.887 12.121.114c.538-.935 1.635-1.749 3.315-2.441 1.68-.695 3.73-1.31 6.151-1.852l4.059.558c1.232.174 1.845.375 1.847.608 0 .126-.249.281-.759.466-.521.186-1.12.41-1.819.668-.691.258-1.37.562-2.019.912-.66.347-1.147.74-1.476 1.182l29.794.297zm-29.909 1.209c.243.58.787 1.081 1.61 1.504.822.423 1.846.768 3.081 1.04 1.234.272 2.617.471 4.151.596 1.542.126 3.156.188 4.838.179 1.964-.009 3.676-.094 5.139-.254 1.451-.16 2.733-.377 3.844-.651 1.1-.275 2.071-.592 2.889-.956.821-.363 1.55-.754 2.208-1.179l-27.76-.279zm71.143-.793c-.242-.59-.836-1.107-1.76-1.55-.923-.443-2.107-.816-3.543-1.118-1.433-.301-3.108-.528-5.021-.674a77.732 77.732 0 00-6.313-.203c-2.044.009-3.818.102-5.287.274-1.472.173-2.752.404-3.845.697-1.081.293-2.011.633-2.759 1.022-.759.388-1.469.804-2.116 1.248l30.644.304z" fill="#FCB048"/><path d="M175.624 501.586c-42.647 0-87.051 3.753-94.155 11.017.279.256.537.53.777.818 5.986-5.044 42.654-10.121 93.378-10.121 52.028 0 89.282 5.344 93.794 10.512.222-.283.46-.555.716-.811-5.865-7.523-51.104-11.415-94.51-11.415z" fill="url(#paint22_linear_1119_3700)"/><path d="M53.378 490.372v21.214c0 6.855 42.823 12.411 95.646 12.411s95.645-5.556 95.645-12.411v-21.214H53.378z" fill="url(#paint23_linear_1119_3700)"/><path d="M244.669 490.372c0 6.855-42.822 12.411-95.645 12.411-52.826 0-95.646-5.556-95.646-12.411 0-6.855 42.823-12.412 95.646-12.412 52.825-.002 95.645 5.557 95.645 12.412z" fill="url(#paint24_linear_1119_3700)"/><path d="M149.023 503.64c-46.782 0-95.703-4.468-95.703-13.088 0-.473.17-1.305.643-1.305s.27.651.27 1.125c0 5.465 38.927 11.556 94.79 11.556 55.863 0 94.791-6.089 94.791-11.556 0-.474.08-.917.553-.917.473 0 .359.631.359 1.104 0 8.619-48.921 13.081-95.703 13.081z" fill="url(#paint25_linear_1119_3700)"/><path d="M139.986 491.062a51.136 51.136 0 013.006-1.922c1.058-.631 2.438-1.202 4.109-1.712 1.68-.51 3.783-.926 6.304-1.246 2.524-.322 5.678-.491 9.445-.509 3.696-.019 7.163.1 10.409.352 3.237.251 6.094.631 8.56 1.133 2.457.503 4.464 1.125 6.009 1.866 1.536.74 2.453 1.59 2.748 2.546l10.77.11c.782.004 1.472.068 2.064.192.601.123.894.278.894.466l.004.887-13.844-.133c-.485 1.086-1.724 2.08-3.712 2.981-1.98.903-4.51 1.682-7.594 2.343l-5.042-.702a6.027 6.027 0 01-1.113-.263c-.29-.105-.432-.222-.432-.347 0-.172.389-.366 1.17-.583.78-.22 1.66-.492 2.64-.814a26.226 26.226 0 002.889-1.143c.94-.439 1.568-.964 1.895-1.575l-32.679-.324a31.249 31.249 0 01-2.886 1.863c-1.07.61-2.478 1.158-4.24 1.648-1.76.486-3.952.882-6.576 1.188-2.634.304-5.93.466-9.916.485a98.698 98.698 0 01-8.768-.341c-2.857-.242-5.392-.603-7.609-1.086-2.217-.482-4.032-1.078-5.458-1.787-1.417-.711-2.211-1.525-2.377-2.448l-8.867-.091a11.523 11.523 0 01-2.093-.186c-.613-.118-.924-.276-.924-.473l-.004-.887 12.121.115c.537-.935 1.634-1.749 3.314-2.441 1.68-.695 3.73-1.31 6.151-1.852l4.059.558c1.232.174 1.845.375 1.847.608 0 .126-.249.281-.759.466-.519.185-1.12.409-1.819.668-.69.258-1.369.562-2.018.912-.659.347-1.148.74-1.477 1.184l29.799.294zm-29.909 1.21c.243.582.787 1.081 1.609 1.504.823.422 1.847.768 3.082 1.04 1.234.272 2.617.47 4.15.596 1.543.128 3.157.188 4.839.178 1.964-.009 3.676-.093 5.139-.253 1.451-.16 2.733-.377 3.844-.652 1.1-.274 2.071-.592 2.892-.955.82-.364 1.549-.757 2.208-1.18l-27.763-.278zm71.143-.794c-.242-.589-.836-1.106-1.76-1.549-.923-.444-2.107-.816-3.54-1.118-1.434-.302-3.109-.528-5.022-.674a77.705 77.705 0 00-6.313-.204c-2.044.009-3.817.103-5.289.275-1.472.173-2.752.404-3.843.697-1.081.292-2.011.631-2.759 1.021-.758.389-1.469.805-2.118 1.248l30.644.304z" fill="#FCB048"/><path d="M149.037 479.302c-42.647 0-87.051 3.753-94.155 11.017.279.256.537.531.777.819 5.986-5.045 42.654-10.121 93.378-10.121 52.028 0 89.283 5.341 93.795 10.509.221-.283.459-.555.715-.809-5.867-7.522-51.106-11.415-94.51-11.415z" fill="url(#paint26_linear_1119_3700)"/><path d="M76.32 468.152v21.216c0 6.855 42.822 12.412 95.645 12.412 52.823 0 95.646-5.557 95.646-12.412v-21.216H76.319z" fill="url(#paint27_linear_1119_3700)"/><path d="M267.613 468.152c0 6.855-42.823 12.412-95.646 12.412s-95.646-5.557-95.646-12.412 42.823-12.411 95.646-12.411 95.646 5.556 95.646 12.411z" fill="url(#paint28_linear_1119_3700)"/><path d="M171.965 481.42c-46.782 0-95.703-4.468-95.703-13.088 0-.473.169-1.305.642-1.305s.27.652.27 1.125c0 5.465 38.928 11.556 94.791 11.556 55.862 0 94.79-6.089 94.79-11.556 0-.473.08-.917.554-.917.473 0 .358.631.358 1.104.003 8.62-48.918 13.081-95.702 13.081z" fill="url(#paint29_linear_1119_3700)"/><path d="M162.927 468.845a51.137 51.137 0 013.006-1.923c1.058-.63 2.439-1.202 4.109-1.712 1.68-.509 3.783-.925 6.304-1.245 2.524-.323 5.678-.492 9.445-.51 3.696-.018 7.163.1 10.409.352 3.237.251 6.094.631 8.56 1.134 2.457.503 4.464 1.124 6.009 1.865 1.536.74 2.453 1.591 2.748 2.546l10.77.11c.782.004 1.472.068 2.064.192.601.123.894.279.894.466l.004.887-13.844-.133c-.485 1.086-1.724 2.08-3.712 2.981-1.98.903-4.51 1.682-7.591 2.343l-5.043-.702a5.966 5.966 0 01-1.113-.263c-.29-.105-.432-.222-.432-.347 0-.172.389-.366 1.171-.583a63.59 63.59 0 002.64-.814c.98-.322 1.94-.701 2.889-1.143.939-.438 1.568-.964 1.895-1.575l-32.679-.324a31.197 31.197 0 01-2.887 1.863c-1.07.61-2.478 1.159-4.24 1.646-1.76.486-3.952.882-6.576 1.188-2.633.304-5.929.466-9.915.485a98.683 98.683 0 01-8.768-.341c-2.858-.242-5.392-.603-7.61-1.083-2.217-.483-4.032-1.079-5.458-1.788-1.417-.711-2.21-1.524-2.377-2.448l-8.866-.091a11.622 11.622 0 01-2.094-.185c-.613-.119-.923-.277-.923-.473l-.005-.887 12.121.114c.537-.935 1.634-1.749 3.314-2.441 1.68-.695 3.731-1.31 6.151-1.852l4.06.558c1.232.174 1.844.375 1.847.608 0 .126-.25.281-.759.466-.519.186-1.12.409-1.82.668-.69.258-1.369.562-2.018.909-.661.348-1.147.741-1.477 1.184l29.797.298zm-29.906 1.209c.242.583.786 1.081 1.611 1.504.823.423 1.847.768 3.081 1.04s2.617.471 4.151.596c1.543.128 3.157.188 4.839.179 1.963-.009 3.675-.094 5.138-.254 1.452-.16 2.734-.377 3.845-.651 1.101-.275 2.071-.592 2.891-.956.821-.363 1.55-.757 2.208-1.179l-27.764-.279zm71.143-.793c-.243-.59-.837-1.107-1.761-1.55-.923-.444-2.107-.816-3.542-1.118-1.434-.301-3.109-.528-5.022-.674a77.732 77.732 0 00-6.313-.203c-2.044.009-3.817.102-5.289.274-1.472.173-2.752.404-3.843.697-1.081.293-2.011.631-2.758 1.019-.759.389-1.47.805-2.119 1.248l30.647.307z" fill="#FCB048"/><path d="M171.979 457.084c-42.647 0-87.052 3.754-94.156 11.018.28.256.537.53.777.818 5.987-5.045 42.654-10.124 93.379-10.124 52.027 0 89.282 5.344 93.794 10.512.222-.283.459-.555.715-.809-5.865-7.524-51.104-11.415-94.509-11.415z" fill="url(#paint30_linear_1119_3700)"/><path d="M64.385 445.869v21.214c0 6.855 42.823 12.411 95.645 12.411 52.823 0 95.646-5.556 95.646-12.411v-21.214H64.385z" fill="url(#paint31_linear_1119_3700)"/><path d="M160.033 458.28c52.824 0 95.646-5.556 95.646-12.411 0-6.855-42.822-12.411-95.646-12.411-52.823 0-95.645 5.556-95.645 12.411 0 6.855 42.822 12.411 95.645 12.411z" fill="url(#paint32_linear_1119_3700)"/><path d="M160.033 459.138c-46.782 0-95.703-4.469-95.703-13.088 0-.473.17-1.305.642-1.305.474 0 .27.651.27 1.124 0 5.465 38.928 11.557 94.791 11.557 55.86 0 94.789-6.089 94.789-11.557 0-.473.079-.916.553-.916.473 0 .359.63.359 1.104.002 8.619-48.919 13.081-95.701 13.081z" fill="url(#paint33_linear_1119_3700)"/><path d="M150.994 446.562c.939-.65 1.936-1.29 3.005-1.923 1.059-.631 2.439-1.202 4.11-1.712 1.68-.509 3.783-.925 6.306-1.245 2.524-.32 5.678-.492 9.445-.51 3.696-.019 7.163.098 10.409.352 3.237.251 6.094.631 8.56 1.133 2.457.503 4.464 1.125 6.009 1.866 1.536.74 2.453 1.591 2.748 2.546l10.77.11c.782.004 1.472.068 2.064.192.601.123.894.276.894.466l.004.887-13.844-.133c-.485 1.086-1.724 2.08-3.712 2.981-1.98.903-4.51 1.682-7.593 2.343l-5.043-.702a6.027 6.027 0 01-1.113-.263c-.29-.105-.432-.222-.432-.347 0-.172.389-.366 1.168-.583a64.79 64.79 0 002.64-.814 26.226 26.226 0 002.889-1.143c.94-.439 1.568-.962 1.895-1.575l-32.679-.324a31.136 31.136 0 01-2.887 1.863c-1.069.61-2.477 1.159-4.24 1.648-1.76.487-3.952.882-6.576 1.188-2.633.304-5.929.466-9.915.485a98.32 98.32 0 01-8.768-.341c-2.857-.242-5.392-.603-7.609-1.083-2.217-.482-4.032-1.079-5.458-1.788-1.418-.71-2.213-1.524-2.378-2.448l-8.866-.091a11.532 11.532 0 01-2.094-.185c-.612-.119-.923-.277-.923-.473l-.005-.887 12.122.114c.537-.935 1.634-1.748 3.314-2.441 1.68-.695 3.73-1.312 6.151-1.851l4.059.557c1.232.174 1.845.375 1.847.608 0 .126-.249.281-.759.467-.519.187-1.12.409-1.819.667-.691.258-1.369.562-2.019.91-.658.347-1.147.74-1.476 1.181l29.799.298zm-29.907 1.209c.243.58.787 1.081 1.61 1.504.822.423 1.846.768 3.081 1.04 1.234.272 2.617.471 4.151.596a54.99 54.99 0 004.838.179c1.964-.01 3.676-.094 5.139-.254 1.451-.16 2.733-.377 3.844-.652 1.102-.274 2.071-.592 2.892-.955a16.45 16.45 0 002.208-1.179l-27.763-.279zm71.143-.793c-.242-.59-.836-1.107-1.76-1.55-.923-.444-2.107-.816-3.54-1.118-1.433-.302-3.109-.528-5.022-.674a78.162 78.162 0 00-6.313-.204c-2.044.01-3.817.101-5.287.275-1.472.173-2.752.404-3.845.697-1.081.292-2.011.633-2.758 1.022-.759.388-1.47.804-2.117 1.248l30.642.304z" fill="#FCB048"/><path d="M160.044 434.802c-42.647 0-87.051 3.753-94.155 11.017.279.256.537.53.777.818 5.986-5.044 42.654-10.121 93.378-10.121 52.028 0 89.282 5.342 93.794 10.512.222-.283.46-.555.716-.811-5.865-7.525-51.104-11.415-94.51-11.415z" fill="url(#paint34_linear_1119_3700)"/><path d="M282.886 460.824l-17.287 12.297c-5.586 3.973 14.706 42.089 45.323 85.136 30.617 43.045 59.968 74.72 65.555 70.745l17.286-12.297-110.877-155.881z" fill="url(#paint35_linear_1119_3700)"/><path d="M393.763 616.705c-5.586 3.973-34.934-27.7-65.554-70.745-30.619-43.044-50.91-81.161-45.326-85.136 5.587-3.972 34.935 27.701 65.555 70.745 30.619 43.047 50.912 81.164 45.325 85.136z" fill="url(#paint36_linear_1119_3700)"/><path d="M327.512 546.456c-27.116-38.121-51.831-80.576-44.807-85.57.386-.274 1.161-.619 1.435-.233.275.386-.374.596-.758.871-4.455 3.168 13.147 38.42 45.526 83.94 32.38 45.52 59.904 73.712 64.359 70.544.387-.274.793-.466 1.068-.08.274.387-.307.659-.693.933-7.022 4.996-39.012-32.284-66.13-70.405z" fill="url(#paint37_linear_1119_3700)"/><path d="M332.522 531.8a51.44 51.44 0 013.31 1.335c1.129.496 2.393 1.289 3.778 2.354 1.39 1.075 2.946 2.547 4.67 4.416 1.725 1.87 3.691 4.343 5.89 7.402 2.158 3.001 4.071 5.894 5.746 8.688 1.671 2.784 3.02 5.33 4.039 7.632 1.015 2.292 1.671 4.29 1.964 5.977.285 1.682.125 2.919-.483 3.714l6.153 8.839c.448.64.798 1.239 1.04 1.794.25.562.291.889.14.999l-.72.516-7.916-11.359c-1.165.233-2.692-.199-4.58-1.299-1.881-1.09-3.984-2.699-6.309-4.83l-2.352-4.516a5.723 5.723 0 01-.429-1.061c-.083-.299-.071-.48.032-.553.139-.1.523.105 1.152.615.63.51 1.362 1.07 2.194 1.68.83.613 1.696 1.173 2.606 1.692.902.512 1.693.72 2.381.633l-18.679-26.812a30.691 30.691 0 01-3.19-1.273c-1.118-.517-2.382-1.348-3.799-2.5-1.417-1.152-3.011-2.709-4.78-4.67-1.773-1.97-3.815-4.563-6.141-7.799a97.343 97.343 0 01-4.805-7.342c-1.458-2.468-2.633-4.743-3.527-6.83-.891-2.084-1.458-3.91-1.707-5.483-.243-1.566-.039-2.686.617-3.355l-5.065-7.278c-.448-.64-.8-1.239-1.063-1.813-.258-.566-.311-.912-.151-1.026l.72-.516 6.933 9.945c1.072-.105 2.372.317 3.91 1.284 1.539.967 3.23 2.281 5.075 3.941l1.899 3.632c.574 1.106.764 1.721.574 1.858-.103.073-.373-.039-.821-.347-.452-.316-.983-.677-1.597-1.097a16.626 16.626 0 00-1.914-1.118c-.665-.336-1.27-.505-1.819-.519l17.024 24.45zm-18.32-23.668c-.334.535-.425 1.268-.293 2.182.133.917.444 1.95.938 3.114.493 1.163 1.133 2.404 1.92 3.728a55.477 55.477 0 002.66 4.048c1.145 1.593 2.208 2.941 3.184 4.038.972 1.091 1.89 2.01 2.759 2.755.862.738 1.682 1.344 2.453 1.801.77.457 1.513.825 2.242 1.115l-15.863-22.781zm41.881 57.513c.338-.54.416-1.324.242-2.334-.176-1.01-.557-2.19-1.142-3.534-.586-1.344-1.372-2.839-2.362-4.482a76.803 76.803 0 00-3.492-5.262c-1.193-1.659-2.295-3.051-3.289-4.15-.995-1.1-1.925-2.01-2.796-2.727-.864-.711-1.68-1.271-2.432-1.657a19.38 19.38 0 00-2.244-1.004l17.515 25.15z" fill="#FCB048"/><path d="M347.352 532.36c-24.72-34.752-53.515-68.761-63.552-70.338a8.513 8.513 0 01-.217 1.106c7.579 1.955 32.971 28.889 62.373 70.227 30.157 42.395 47.396 75.851 45.801 82.523.359.016.717.053 1.074.114 2.729-9.143-20.32-48.263-45.479-83.632z" fill="url(#paint38_linear_1119_3700)"/><path d="M304.49 520.481c.09-2.663 5.534-5.58 8.677-4.222.642.276 1.166.789 2.215 1.813 2.082 2.032 3.3 3.915 3.476 4.182 3.642 5.573 12.035 10.825 11.054 12.75-.706 1.385-6.057.626-10.167-1.451-3.305-1.671-3.275-2.917-8.715-7.262-4.814-3.842-6.592-4.27-6.54-5.81z" fill="url(#paint39_linear_1119_3700)"/><path d="M303.489 512.341l3.987 6.558a3.624 3.624 0 004.016 1.623 2.352 2.352 0 001.401-3.518l-5.87-9.444-3.534 4.781z" fill="url(#paint40_linear_1119_3700)"/><path d="M153.126 413.708c-12.439 5.445-.981 39.856 34.361 41.079 42.825 1.481 91.298 22.274 116.324 60.425 2.508-1.12 8.22-2.315 6.714-5.259-20.707-40.469-43.324-67.1-65.196-79.253-33.067-18.375-56.784-32.491-92.203-16.992z" fill="url(#paint41_linear_1119_3700)"/><path d="M263.555 461.596c4.656 5.129 8.009-1.232 12.361-4.736-10.18-11.765-20.461-20.533-30.585-26.16-33.067-18.375-56.784-32.492-92.203-16.992-12.439 5.444-.981 39.856 34.361 41.078 12.782.442 26.059 2.643 39.074 6.474 12.469-3.244 25.733-15.555 36.992.336z" fill="url(#paint42_linear_1119_3700)" opacity=".3"/><path d="M138.146 441.026l-2.615-.944s-8.686-15.228-10.002-19.068c-1.609-4.685 33.113-4.331 47.405-13.734 15.018-9.882-2.736 16.512-2.736 16.512l-32.052 17.234z" fill="url(#paint43_linear_1119_3700)"/><path d="M164.37 317.56s10.978 5.209 16.492 31.513c4.144 19.776 20.283 40.185 20.283 40.185l-2.075 13.87-17.998-2.407-4.825-5.948-5.42-40.669-6.457-36.544z" fill="url(#paint44_linear_1119_3700)"/><path d="M142.569 309.086s-29.396-5.477-40.318 26.885c-10.08 29.862-2.93 44.937 15.728 78.413 1.877 3.367 6.213 4.741 6.419 5.205a275.246 275.246 0 013.314 7.764c31.04-15.298 60.329-14.53 60.329-14.53s-8.548-59.214-14.062-79.691c-5.684-21.113-23.595-23.491-31.41-24.046z" fill="url(#paint45_linear_1119_3700)"/><path d="M165.506 399.802c-13.966 2.605-30.663-3.481-34.382-13.36-2.8-7.44-2.857-9.9-5.6-21.061-2.205-8.978-4.059-10.891-12.082-20.404-3.029-3.591-6.226-8.412-8.798-14.933a52.71 52.71 0 00-2.397 5.922c-10.08 29.863-2.93 44.937 15.728 78.414 1.876 3.367 6.212 4.741 6.418 5.205a275.246 275.246 0 013.314 7.764c31.04-15.298 60.329-14.53 60.329-14.53s-1.559-9.381-3.417-22.466c-6.055 5.38-10.153 7.778-19.113 9.449z" fill="url(#paint46_linear_1119_3700)" opacity=".3"/><path d="M145.698 394.577s5.283 1.947 9.577 1.618c4.295-.327 4.092-.779 8.652.055 4.432.809 13.625.939 10.242-4.887-3.764-6.484-13.255-8.009-16.871-5.641-3.485 2.281-8.457 2.857-8.457 2.857l-3.143 5.998z" fill="url(#paint47_linear_1119_3700)"/><path d="M117.069 318.86s-16.292-3.15-23.156 50.352c-3.561 27.749 21.115 31.502 52.932 29.655 3.196-3.41 3.422-12.713 3.422-12.713s-39.87 3.364-34.062-18.135c6.517-24.107 10.828-48.766.864-49.159z" fill="url(#paint48_linear_1119_3700)"/><path d="M149.398 322.661c-.221 0-.445-.006-.674-.02-8.157-.508-15.031-9.852-15.319-10.249a.396.396 0 01.09-.556.396.396 0 01.555.087c.069.094 6.942 9.438 14.725 9.922 2.132.135 3.785-.402 4.918-1.586 2.167-2.267 1.772-6.212 1.767-6.251a.398.398 0 01.791-.087c.018.176.444 4.347-1.979 6.884-1.18 1.232-2.816 1.856-4.874 1.856z" fill="#9F73F8"/><path d="M126.08 419.093a.399.399 0 01-.165-.761c.327-.148 32.88-14.814 57.532-13.15a.398.398 0 01.37.423c-.016.22-.213.364-.423.37-24.475-1.643-56.825 12.931-57.15 13.079a.344.344 0 01-.164.039z" fill="#AE87F9"/><path d="M143.218 294.957s-.784 12.149-2.071 14.274c-1.287 2.128 1.216 5.676 6.91 7.765 5.696 2.089 3.044-11.769 3.044-11.769l-7.883-10.27z" fill="url(#paint49_linear_1119_3700)"/><path d="M160.079 298.098c6.969-2.528 9.344-19.024 5.897-20.832-1.979-1.04-3.783 3.881-11.124 5.771-5.719 1.47-9.358-.297-11.797 2.565-1.145 1.344-1.831 3.479-1.812 5.367.009.971.249 2.267.905 4.811.583 2.258.521 2.165.711 2.83.454 1.593 1.446 4.361 3.789 8.011a21.024 21.024 0 012.163-2.942c.361-.409 1.792-1.997 3.549-3.131 3.2-2.069 5.719-1.726 7.719-2.45z" fill="url(#paint50_linear_1119_3700)"/><path d="M143.387 302.676s1.511 6.263 8.002 7.891c5.811 1.458 10.743-11.04 7.978-14.917-.924-1.294-3.233-2.448-5.386-2.53-1.271-.048-1.821.311-3.899.192-1.916-.11-2.352-.467-3.029-.188-.848.348-1.778 1.568-1.862 5.657-.734-1.449-1.902-2.288-2.965-2.148a2.026 2.026 0 00-.994.496c-1.264 1.204-.533 3.492 2.155 5.547z" fill="url(#paint51_linear_1119_3700)"/><path d="M147.311 402.57c-.269-.044-.566.066-.708.292-.021.032-.327 1.347-.343 1.386a.674.674 0 00.231.806l21.579 15.438 50.535-3.36-21.876-5.136-49.418-9.426z" fill="#26264F"/><path d="M147.355 402.392a.676.676 0 00-.503 1.216l21.58 15.437 50.534-3.36-21.878-5.136-49.733-8.157z" fill="#444B8C"/><path d="M167.48 418.357l18.446-45.76a1.701 1.701 0 011.838-1.047l56.507 8.634a1.702 1.702 0 011.342 2.274l-15.872 43.07a1.704 1.704 0 01-1.81 1.101l-59.209-7.369-1.242-.903z" fill="url(#paint52_linear_1119_3700)"/><path d="M168.07 420.49l18.885-46.759a1.703 1.703 0 011.838-1.047l56.507 8.633a1.706 1.706 0 011.342 2.275l-15.875 43.076a1.702 1.702 0 01-1.801 1.104l-60.896-7.282z" fill="#26264F"/><path d="M168.07 420.49l60.896 7.282a1.702 1.702 0 001.801-1.104l4.789-12.992c-20.19 4.295-42.023-1.264-63.241-3.698l-4.245 10.512z" fill="#1F1F44"/><path d="M268.463 441.494c.077-2.976-.702-6.537 6.189-6.772 5.002-.172 12.976 1.792 20.19 3.678 10.11 2.642 10.512 9.318-5.227 8.498-10.307-.537-21.264-1.173-21.152-5.404z" fill="url(#paint53_linear_1119_3700)"/><path d="M277.54 439.775c-.391 1.555-1.742 2.446-3.067 2.224-3.077-.512-2.044-1.853-1.655-3.407.391-1.555-.464-2.992 3.067-2.224 1.312.285 2.044 1.853 1.655 3.407z" fill="url(#paint54_linear_1119_3700)"/><path d="M250.111 421.43l3.051.464s5.493 2.322 19.731 11.568c3.163 1.612 4.628 12.802-5.278 10.085-9.906-2.718-24.126.795-24.126.795l6.622-22.912z" fill="url(#paint55_linear_1119_3700)"/><path d="M218.061 420.939c-19.564 2.402-47.39-1.435-53.063-2.309-7.266-1.12-30.599 9.349-30.853 15.955 0 0-2.139 10.157 19.895 18.265l54.147 3.929c18.905-4.512 47.6-14.997 49.885-22.763 4.745-16.128-16.834-15.923-40.011-13.077z" fill="url(#paint56_linear_1119_3700)"/><path d="M177.65 430.928c14.053 2.928 20.206-5.875 38.041-3.331 11.557 1.648 14.407 6.119 21.191 4.144 5.355-1.558 9.246-6.002 12.105-11.261-7.71-1.742-19.097-.995-30.923.457-19.001 2.334-45.797-1.221-52.521-2.226-.199-.03-4.003-2.924-4.003-2.924s-3.771.814-6.519 1.529c7.406 7.612 17.495 12.542 22.629 13.612z" fill="url(#paint57_linear_1119_3700)" opacity=".3"/><path opacity=".1" d="M505.873 220.268c-.208.048-.423.151-.647.151h-5.01v14.382H366.744c-1.543 0-2.892-1.219-3.301-2.704l-1.095-4.105a122.48 122.48 0 01-3.91-22.243c-.272-3.3-.437-6.663-.437-9.986V123.1c0-1.934 1.618-3.476 3.543-3.419l135.771 4.082c3.068.087-2.439 6.631-2.439 9.698l5.07 40.044 2.894 22.898c.002 6.448 1.515 15.979 3.033 23.865z" fill="url(#paint58_linear_1119_3700)"/><path d="M505.873 220.268c-.208.048-.423.151-.647.151H366.744c-1.543 0-2.892-1.111-3.301-2.597l-1.095-4.05a119.88 119.88 0 01-1.886-8.025 119.409 119.409 0 01-1.709-11.131c-.279-2.604-.508-5.23-.611-7.852-.071-1.719-.139-3.44-.139-5.166v-72.662c0-1.934 1.618-3.477 3.543-3.42l135.771 4.082c.951.023 1.737.288 2.512.727 1.726.974 2.784 2.828 2.784 4.947V182.2c0 9.931 3.703 27.124 5.358 34.523.366 1.621-.558 3.202-2.098 3.545z" fill="url(#paint59_linear_1119_3700)"/><path d="M490.074 132.748h-.052l-118.974-2.99a2.064 2.064 0 01.103-4.125l118.974 2.989a2.064 2.064 0 01-.051 4.126zm-15.342 49.772l-13.778-.135v-9.89l13.778.224v9.801z" fill="#fff"/><path opacity=".2" d="M422.257 151.653l-14.759-.43v-10.24l14.759.526v10.144z" fill="url(#paint60_linear_1119_3700)"/><path opacity=".2" d="M440.149 152.176l-14.42-.422v-10.119l14.42.514v10.027z" fill="url(#paint61_linear_1119_3700)"/><path opacity=".2" d="M457.637 152.686l-14.094-.411V142.27l14.094.503v9.913z" fill="url(#paint62_linear_1119_3700)"/><path opacity=".2" d="M474.731 153.185l-13.778-.403v-9.89l13.778.492v9.801z" fill="url(#paint63_linear_1119_3700)"/><path opacity=".2" d="M491.448 153.674l-13.472-.393V143.5l13.472.48v9.694z" fill="url(#paint64_linear_1119_3700)"/><path opacity=".2" d="M385.194 166.11l-15.472-.301v-10.485l15.472.403v10.383z" fill="url(#paint65_linear_1119_3700)"/><path opacity=".2" d="M403.942 166.474l-15.109-.293V155.82l15.109.393v10.261z" fill="url(#paint66_linear_1119_3700)"/><path opacity=".2" d="M422.257 166.83l-14.759-.285v-10.24l14.759.384v10.141z" fill="url(#paint67_linear_1119_3700)"/><path opacity=".2" d="M440.149 167.18l-14.42-.281v-10.121l14.42.375v10.027z" fill="url(#paint68_linear_1119_3700)"/><path opacity=".2" d="M457.637 167.52l-14.094-.274v-10.007l14.094.368v9.913z" fill="url(#paint69_linear_1119_3700)"/><path opacity=".2" d="M474.731 167.852l-13.778-.268v-9.892l13.778.359v9.801z" fill="url(#paint70_linear_1119_3700)"/><path opacity=".2" d="M491.448 168.176l-13.472-.26v-9.781l13.472.35v9.691z" fill="url(#paint71_linear_1119_3700)"/><path opacity=".2" d="M385.194 181.649l-15.472-.151v-10.485l15.472.252v10.384z" fill="url(#paint72_linear_1119_3700)"/><path opacity=".2" d="M403.942 181.831l-15.109-.148v-10.361l15.109.247v10.262z" fill="url(#paint73_linear_1119_3700)"/><path opacity=".2" d="M422.257 182.01l-14.759-.145v-10.24l14.759.24v10.145z" fill="url(#paint74_linear_1119_3700)"/><path opacity=".2" d="M440.149 182.183l-14.42-.141V171.92l14.42.236v10.027z" fill="url(#paint75_linear_1119_3700)"/><path opacity=".2" d="M457.637 182.353l-14.094-.138v-10.004l14.094.229v9.913z" fill="url(#paint76_linear_1119_3700)"/><path opacity=".2" d="M491.448 182.682l-13.472-.13v-9.781l13.472.217v9.694z" fill="url(#paint77_linear_1119_3700)"/><path opacity=".2" d="M385.194 197.187h-15.472v-10.485l15.472.101v10.384z" fill="url(#paint78_linear_1119_3700)"/><path opacity=".2" d="M403.942 197.187h-15.109v-10.361l15.109.098v10.263z" fill="url(#paint79_linear_1119_3700)"/><path opacity=".2" d="M422.257 197.187h-14.759v-10.24l14.759.096v10.144z" fill="url(#paint80_linear_1119_3700)"/><path opacity=".2" d="M440.149 197.187h-14.42v-10.121l14.42.094v10.027z" fill="url(#paint81_linear_1119_3700)"/><path opacity=".2" d="M457.637 197.187h-14.094v-10.005l14.094.092v9.913z" fill="url(#paint82_linear_1119_3700)"/><path d="M589.76 393.622l-.592 200.406c-.029 9.824-7.943 18.359-17.821 18.871l-140.64 7.276c-10.478.541-19.018-7.429-19.018-17.598v-207.47c0-9.629 7.575-17.572 17.223-18.535a20.448 20.448 0 011.877-.086l141.184-.675c9.918-.048 17.817 7.916 17.787 17.811z" fill="url(#paint83_linear_1119_3700)"/><path d="M600.149 393.514l-.615 200.233c-.03 9.817-7.518 18.323-17.378 18.832l-140.35 7.255c-10.457.54-19.408-7.401-19.406-17.561l.028-207.275c.002-9.621 7.774-17.557 17.401-18.519a24.038 24.038 0 012.087-.087l140.9-.674c9.895-.048 17.363 7.91 17.333 17.796z" fill="url(#paint84_linear_1119_3700)"/><g opacity=".3"><path d="M600.149 393.231l-.156 50.329-177.577 3.248.007-52.103c.002-9.392 7.417-17.031 16.72-18.288.834-.116 1.904-.018 2.77-.023l140.901-.674c9.897-.05 17.364 7.623 17.335 17.511z" fill="url(#paint85_linear_1119_3700)"/><path d="M600.041 428.093l-.064 20.912c-17.842 5.362-50.327 9.344-87.042 10.116-16.03.336-31.42.032-45.241-.809-18.272-1.113-33.589-3.161-45.278-5.867l.002-21.651c4.393-1.069 8.437-2.064 13.244-2.992 10.487-2.025 23.175-3.696 37.124-4.887 12.535-1.072 26.22-1.748 40.419-1.94 18.402-.249 35.622.343 50.528 1.595a349.116 349.116 0 0113.771 1.417c1.163.144 2.309.293 3.429.448 2.58.355 4.8.732 7.154 1.13 4.523.765 8.537 1.609 11.954 2.528z" fill="url(#paint86_linear_1119_3700)"/></g><path d="M591.127 432.821c-.009 2.988-2.434 5.449-5.421 5.5l-145.856 2.507c-3.166.055-5.735-2.398-5.733-5.476l.012-34.899c0-3.083 2.573-5.604 5.741-5.629l145.964-1.216a5.337 5.337 0 015.394 5.369l-.101 33.844z" fill="#fff"/><path d="M587.696 432.122a3.5 3.5 0 01-3.429 3.474l-145.076 2.416c-2 .035-3.621-1.515-3.621-3.46l.012-34.75c0-1.947 1.625-3.538 3.625-3.556l145.172-1.251a3.374 3.374 0 013.411 3.392l-.094 33.735z" fill="#F4F7FA"/><g opacity=".3"><path d="M567.059 411.944c-.002.933-.761 1.536-1.698 1.545h-.078c-.935.007-1.692-.571-1.689-1.504l.018-6.925c.002-.933.763-1.632 1.698-1.644h.078c.935-.011 1.691.674 1.689 1.607l-.018 6.921z" fill="url(#paint87_linear_1119_3700)"/><path d="M580.877 411.807c-.003.93-.759 1.561-1.69 1.568h-.077c-.931.007-1.683-.596-1.68-1.527l.018-6.928c.002-.93.759-1.648 1.689-1.659h.078c.93-.012 1.682.692 1.68 1.623l-.018 6.923z" fill="url(#paint88_linear_1119_3700)"/></g><path opacity=".3" d="M567.02 427.45c-.003.933-.762 1.863-1.697 1.868h-.077c-.935.002-1.692-.885-1.689-1.815l.018-7.125c.002-.932.763-1.844 1.698-1.851h.078c.935-.007 1.691.873 1.689 1.806l-.02 7.117z" fill="url(#paint89_linear_1119_3700)"/><path opacity=".3" d="M580.832 427.325c-.003.928-.759 1.216-1.689 1.942h-.078c-.93.003-1.683-.962-1.68-1.892l.018-7.463c.002-.93.759-2.197 1.689-2.203h.078c.93-.007 1.682 1.227 1.68 2.157l-.018 7.459z" fill="url(#paint90_linear_1119_3700)"/><path opacity=".3" d="M577.465 415.419c0 .931-.782 1.699-1.714 1.712l-6.643.094c-.935.011-1.341-.729-1.341-1.662v-.077c0-.933.402-1.696 1.337-1.708l6.834-.091c.933-.012 1.525.727 1.525 1.657v.075h.002z" fill="url(#paint91_linear_1119_3700)"/><path opacity=".3" d="M577.465 400.946c0 .931-.764 1.699-1.694 1.708l-6.654.073c-.934.009-1.35-.738-1.35-1.671v-.078c0-.932.42-1.693 1.355-1.702l6.827-.071c.933-.009 1.516.733 1.516 1.664v.077z" fill="url(#paint92_linear_1119_3700)"/><path opacity=".3" d="M577.465 430.576c0 .93-.803 1.701-1.735 1.714l-7.004.11a1.667 1.667 0 01-1.703-1.662v-.077c0-.931.757-1.694 1.69-1.708l7.028-.11c.93-.013 1.724.725 1.724 1.655v.078z" fill="url(#paint93_linear_1119_3700)"/><path opacity=".3" d="M523.842 602.813c-.578 3.266-1.533 6.55-2.967 9.629a61.605 61.605 0 01-1.716 3.392l-77.358 3.998c-10.457.539-19.408-7.401-19.405-17.561l.027-207.57c.002-9.392 7.417-17.189 16.72-18.446.226.066.562.137.793.21 9.829 3.081 20.585 8.846 27.033 19.646 4.037 6.754 6.439 15.49 5.902 26.802a78.379 78.379 0 01-1.008 9.308c-.32 1.908-.64 3.856-.967 5.842-.407 2.48-.809 5.017-1.198 7.595a300.414 300.414 0 00-1.652 12.645c-.439 4.103-.773 8.249-.94 12.386-.029.798-.057 1.6-.075 2.398-.064 2.587-.057 5.166.034 7.721.062 1.751.165 3.49.309 5.216.82 9.71 3.035 18.99 7.483 27.125 3.367 6.153 8.441 10.925 13.781 15.36 1.41 1.17 2.836 2.317 4.258 3.462 4.878 3.93 9.532 8.005 13.682 12.551.103.112.206.227.304.339a70.77 70.77 0 015.635 7.072 53.233 53.233 0 014.9 8.742 59.041 59.041 0 011.454 3.562 69.226 69.226 0 012.016 6.342c.26.97.514 1.952.759 2.947.011.036.023.075.029.116.981 3.945 1.827 8.064 2.35 12.238.697 5.641.8 11.383-.183 16.933z" fill="#fff"/><path d="M467.403 483.023c-.002 2.06-1.714 3.774-3.824 3.829l-25.619.67c-2.132.055-3.865-1.58-3.862-3.651l.002-9.465c0-2.073 1.732-3.794 3.867-3.842l25.626-.587c2.112-.048 3.819 1.581 3.819 3.643l-.009 9.403z" fill="url(#paint94_linear_1119_3700)"/><path d="M509.501 481.952c-.002 2.043-1.689 3.741-3.764 3.796l-25.2.661c-2.099.055-3.799-1.566-3.797-3.623l.009-9.388c.003-2.057 1.708-3.762 3.806-3.81l25.207-.578c2.078-.048 3.758 1.57 3.753 3.614l-.014 9.328z" fill="url(#paint95_linear_1119_3700)"/><path d="M549.526 480.932c-.005 2.028-1.664 3.712-3.71 3.767l-24.807.649c-2.066.055-3.739-1.554-3.735-3.595l.016-9.314c.005-2.042 1.683-3.733 3.749-3.781l24.814-.569c2.045-.046 3.698 1.559 3.693 3.586l-.02 9.257z" fill="url(#paint96_linear_1119_3700)"/><path d="M590.303 479.895c-.007 2.011-1.641 3.682-3.652 3.734l-24.41.64c-2.032.053-3.677-1.542-3.673-3.565l.023-9.239c.005-2.023 1.66-3.703 3.692-3.749l24.416-.56a3.534 3.534 0 013.632 3.559l-.028 9.18z" fill="url(#paint97_linear_1119_3700)"/><path d="M467.378 513.215c-.003 2.057-1.712 3.778-3.822 3.847l-25.605.821c-2.132.068-3.862-1.555-3.86-3.626l.002-9.456c0-2.07 1.733-3.801 3.865-3.86l25.612-.736c2.109-.062 3.819 1.559 3.817 3.616l-.009 9.394z" fill="url(#paint98_linear_1119_3700)"/><path d="M509.455 511.898c-.002 2.042-1.686 3.749-3.762 3.815l-25.188.807c-2.099.066-3.799-1.543-3.797-3.595l.009-9.379c.002-2.054 1.705-3.769 3.806-3.828l25.195-.725c2.076-.059 3.756 1.548 3.753 3.589l-.016 9.316z" fill="url(#paint99_linear_1119_3700)"/><path d="M549.459 510.646c-.004 2.025-1.664 3.719-3.707 3.785l-24.795.793c-2.064.066-3.738-1.531-3.735-3.568l.016-9.305c.004-2.039 1.682-3.739 3.748-3.799l24.803-.713c2.043-.059 3.696 1.536 3.691 3.561l-.021 9.246z" fill="url(#paint100_linear_1119_3700)"/><path d="M590.216 509.371c-.007 2.009-1.639 3.689-3.65 3.753l-24.398.781c-2.032.064-3.675-1.52-3.671-3.54l.023-9.23c.005-2.02 1.657-3.707 3.689-3.767l24.405-.701a3.502 3.502 0 013.629 3.533l-.027 9.171z" fill="url(#paint101_linear_1119_3700)"/><path d="M467.35 542.676c-.002 2.055-1.712 3.785-3.819 3.865l-25.593.965c-2.133.08-3.861-1.532-3.861-3.6l.002-9.447c0-2.069 1.731-3.806 3.863-3.879l25.6-.882c2.11-.073 3.817 1.536 3.815 3.591l-.007 9.387z" fill="url(#paint102_linear_1119_3700)"/><path d="M509.409 541.12c-.002 2.039-1.686 3.753-3.762 3.833l-25.177.951c-2.096.08-3.797-1.52-3.794-3.571l.009-9.369c.002-2.052 1.705-3.773 3.803-3.847l25.184-.868c2.076-.071 3.754 1.524 3.751 3.563l-.014 9.308z" fill="url(#paint103_linear_1119_3700)"/><path d="M549.396 539.64c-.005 2.023-1.662 3.724-3.706 3.802l-24.784.934c-2.064.078-3.734-1.508-3.732-3.545l.016-9.296c.004-2.036 1.68-3.744 3.746-3.815l24.791-.854c2.043-.071 3.694 1.513 3.689 3.536l-.02 9.238z" fill="url(#paint104_linear_1119_3700)"/><path d="M590.132 538.132c-.007 2.007-1.639 3.694-3.648 3.769l-24.387.921c-2.032.078-3.675-1.497-3.668-3.517l.023-9.221c.004-2.021 1.657-3.714 3.689-3.785l24.393-.841a3.474 3.474 0 013.627 3.508l-.029 9.166z" fill="url(#paint105_linear_1119_3700)"/><path d="M467.325 571.407c-.002 2.053-1.71 3.792-3.82 3.884l-25.581 1.106c-2.131.091-3.859-1.509-3.859-3.575l.003-9.438c0-2.066 1.73-3.812 3.86-3.897l25.589-1.024c2.107-.084 3.815 1.513 3.812 3.566l-.004 9.378z" fill="url(#paint106_linear_1119_3700)"/><path d="M509.364 569.618c-.002 2.036-1.684 3.76-3.76 3.849l-25.165 1.09c-2.096.092-3.795-1.497-3.793-3.547l.01-9.36c.002-2.051 1.705-3.781 3.801-3.865l25.172-1.008c2.073-.083 3.751 1.501 3.749 3.538l-.014 9.303z" fill="url(#paint107_linear_1119_3700)"/><path d="M549.332 567.917c-.005 2.021-1.662 3.73-3.703 3.819l-24.773 1.072c-2.064.09-3.735-1.485-3.73-3.52l.016-9.286c.005-2.035 1.68-3.751 3.744-3.834l24.779-.992c2.042-.082 3.692 1.491 3.69 3.514l-.023 9.227z" fill="url(#paint108_linear_1119_3700)"/><path d="M467.298 602.212c-.003 2.05-1.71 3.799-3.817 3.902l-25.568 1.259c-2.131.105-3.856-1.483-3.856-3.547l.002-9.427c0-2.064 1.73-3.819 3.858-3.917l25.575-1.178c2.108-.096 3.813 1.488 3.81 3.541l-.004 9.367z" fill="url(#paint109_linear_1119_3700)"/><path d="M509.316 600.173c-.003 2.034-1.685 3.767-3.758 3.867l-25.152 1.239c-2.094.103-3.792-1.472-3.79-3.52l.009-9.351c.003-2.048 1.703-3.787 3.799-3.883l25.159-1.157c2.073-.096 3.751 1.477 3.746 3.514l-.013 9.291z" fill="url(#paint110_linear_1119_3700)"/><path d="M549.264 598.235c-.005 2.018-1.662 3.737-3.701 3.838l-24.761 1.22c-2.061.101-3.732-1.463-3.728-3.495l.016-9.277c.005-2.032 1.68-3.758 3.742-3.852l24.766-1.138c2.041-.094 3.691 1.467 3.686 3.486l-.02 9.218z" fill="url(#paint111_linear_1119_3700)"/><path d="M586.329 553.549l-24.384.976c-2.03.082-3.559 2.334-3.564 4.352l-.011 5.189-.011 4.333-.046 19.562-.014 5.753-.009 3.757c-.005 2.016 1.513 3.898 3.541 3.799l24.365-1.2c2.007-.098 3.763-2.13 3.769-4.132l.012-3.735.016-5.719.057-19.438.011-4.306.016-5.157c.005-2.007-1.739-4.114-3.748-4.034z" fill="url(#paint112_linear_1119_3700)"/><path d="M468.844 482.986c-.003 2.06-1.712 3.772-3.822 3.827l-25.605.669c-2.132.055-3.863-1.579-3.86-3.65l.002-9.463c0-2.073 1.733-3.792 3.865-3.842l25.612-.587c2.109-.048 3.819 1.581 3.817 3.641l-.009 9.405z" fill="url(#paint113_linear_1119_3700)"/><path d="M509.501 481.951c-.002 2.044-1.689 3.742-3.764 3.797l-25.2.66c-2.099.055-3.799-1.566-3.797-3.623l.009-9.387c.003-2.057 1.708-3.762 3.806-3.81l25.207-.579c2.078-.048 3.758 1.571 3.753 3.614l-.014 9.328z" fill="url(#paint114_linear_1119_3700)"/><path d="M550.922 480.897c-.005 2.026-1.664 3.712-3.708 3.765l-24.793.649c-2.064.055-3.737-1.554-3.733-3.593l.016-9.312c.005-2.039 1.683-3.733 3.747-3.778l24.8-.569c2.043-.046 3.696 1.558 3.691 3.584l-.02 9.254z" fill="url(#paint115_linear_1119_3700)"/><path d="M591.674 479.859c-.007 2.01-1.639 3.683-3.651 3.735l-24.395.638a3.547 3.547 0 01-3.671-3.566l.023-9.236c.004-2.023 1.657-3.701 3.689-3.749l24.402-.56a3.53 3.53 0 013.63 3.557l-.027 9.181z" fill="url(#paint116_linear_1119_3700)"/><path d="M468.815 513.169c-.002 2.057-1.712 3.778-3.819 3.847l-25.591.821c-2.13.068-3.86-1.555-3.858-3.623l.002-9.452c0-2.07 1.73-3.799 3.863-3.86l25.598-.736c2.109-.062 3.817 1.559 3.815 3.616l-.01 9.387z" fill="url(#paint117_linear_1119_3700)"/><path d="M509.455 511.898c-.002 2.042-1.686 3.749-3.762 3.815l-25.188.807c-2.099.066-3.799-1.543-3.797-3.595l.009-9.379c.002-2.054 1.705-3.769 3.806-3.828l25.195-.725c2.076-.059 3.756 1.548 3.753 3.589l-.016 9.316z" fill="url(#paint118_linear_1119_3700)"/><path d="M550.852 510.602c-.004 2.023-1.661 3.717-3.705 3.783l-24.782.793c-2.064.066-3.734-1.531-3.732-3.568l.016-9.303c.004-2.036 1.68-3.737 3.746-3.796l24.789-.713c2.043-.06 3.693 1.535 3.689 3.558l-.021 9.246z" fill="url(#paint119_linear_1119_3700)"/><path d="M591.586 509.327c-.007 2.007-1.639 3.687-3.648 3.751l-24.384.781c-2.029.064-3.673-1.52-3.668-3.54l.023-9.228c.004-2.02 1.657-3.707 3.686-3.764l24.391-.702a3.503 3.503 0 013.628 3.531l-.028 9.171z" fill="url(#paint120_linear_1119_3700)"/><path d="M468.788 542.623c-.002 2.055-1.709 3.785-3.819 3.863l-25.579.965c-2.131.08-3.859-1.532-3.859-3.598l.003-9.442c0-2.069 1.73-3.806 3.86-3.879l25.586-.883c2.108-.073 3.815 1.534 3.813 3.591l-.005 9.383z" fill="url(#paint121_linear_1119_3700)"/><path d="M509.41 541.119c-.002 2.039-1.686 3.753-3.762 3.833l-25.177.951c-2.096.08-3.797-1.52-3.794-3.57l.009-9.369c.002-2.053 1.705-3.774 3.803-3.847l25.184-.869c2.076-.07 3.753 1.525 3.751 3.564l-.014 9.307z" fill="url(#paint122_linear_1119_3700)"/><path d="M550.788 539.587c-.004 2.023-1.661 3.724-3.702 3.802l-24.771.934c-2.064.078-3.732-1.508-3.73-3.542l.016-9.294c.005-2.037 1.68-3.744 3.744-3.815l24.777-.855c2.041-.071 3.692 1.513 3.687 3.536l-.021 9.234z" fill="url(#paint123_linear_1119_3700)"/><path d="M591.501 538.081c-.007 2.007-1.639 3.694-3.645 3.769l-24.373.919c-2.03.076-3.673-1.497-3.669-3.515l.023-9.219c.005-2.018 1.655-3.712 3.687-3.782l24.38-.842a3.475 3.475 0 013.625 3.509l-.028 9.161z" fill="url(#paint124_linear_1119_3700)"/><path d="M468.763 571.347c-.002 2.053-1.709 3.79-3.817 3.882l-25.566 1.106c-2.13.091-3.856-1.509-3.856-3.573l.003-9.433c0-2.066 1.73-3.81 3.858-3.897l25.573-1.024c2.107-.085 3.812 1.513 3.81 3.566l-.005 9.373z" fill="url(#paint125_linear_1119_3700)"/><path d="M509.364 569.617c-.002 2.037-1.684 3.76-3.76 3.849l-25.165 1.091c-2.096.091-3.795-1.498-3.793-3.548l.01-9.36c.002-2.05 1.705-3.78 3.801-3.865l25.172-1.008c2.073-.082 3.751 1.502 3.749 3.538l-.014 9.303z" fill="url(#paint126_linear_1119_3700)"/><path d="M550.725 567.857c-.005 2.021-1.662 3.73-3.701 3.817l-24.759 1.072c-2.062.089-3.732-1.485-3.728-3.52l.016-9.284c.005-2.035 1.68-3.749 3.742-3.831l24.766-.992c2.041-.082 3.691 1.49 3.686 3.511l-.022 9.227z" fill="url(#paint127_linear_1119_3700)"/><path d="M468.734 602.143c-.003 2.05-1.71 3.796-3.815 3.899l-25.555 1.26c-2.128.105-3.853-1.484-3.853-3.548l.002-9.424c0-2.064 1.728-3.817 3.858-3.915l25.561-1.175c2.106-.096 3.811 1.488 3.808 3.538l-.006 9.365z" fill="url(#paint128_linear_1119_3700)"/><path d="M509.317 600.173c-.003 2.034-1.685 3.766-3.758 3.867l-25.152 1.239c-2.094.103-3.792-1.472-3.79-3.52l.009-9.351c.003-2.048 1.703-3.787 3.799-3.883l25.159-1.157c2.073-.096 3.751 1.477 3.746 3.513l-.013 9.292z" fill="url(#paint129_linear_1119_3700)"/><path d="M550.656 598.166c-.004 2.018-1.659 3.735-3.7 3.835l-24.748 1.219c-2.062.1-3.73-1.463-3.726-3.493l.016-9.275c.005-2.032 1.678-3.756 3.74-3.852l24.754-1.138c2.039-.094 3.689 1.467 3.685 3.486l-.021 9.218z" fill="url(#paint130_linear_1119_3700)"/><path d="M587.748 553.491l-24.37.976c-2.03.083-3.607 2.336-3.611 4.352l-.012 5.189-.011 4.331-.048 19.555-.014 5.753-.009 3.758c-.005 2.013 1.561 3.894 3.588 3.794l24.352-1.2c2.007-.098 3.712-2.128 3.717-4.13l.011-3.735.016-5.717.058-19.433.013-4.304.016-5.154c.007-2.007-1.687-4.115-3.696-4.035z" fill="url(#paint131_linear_1119_3700)"/><defs><linearGradient id="paint0_linear_1119_3700" x1="585.848" y1="249.302" x2="414.212" y2="571.63" gradientUnits="userSpaceOnUse"><stop offset=".004" stop-color="#E38DDD"/><stop offset="1" stop-color="#9571F6"/></linearGradient><linearGradient id="paint1_linear_1119_3700" x1="71.422" y1="213.883" x2="210.163" y2="544.937" gradientUnits="userSpaceOnUse"><stop offset=".004" stop-color="#E38DDD"/><stop offset="1" stop-color="#9571F6"/></linearGradient><linearGradient id="paint2_linear_1119_3700" x1="500.615" y1="225.936" x2="398.55" y2="540.891" gradientUnits="userSpaceOnUse"><stop stop-color="#FCB148"/><stop offset=".052" stop-color="#FDBA46"/><stop offset=".142" stop-color="#FFC244"/><stop offset=".318" stop-color="#FFC444"/><stop offset=".485" stop-color="#FDB946"/><stop offset=".775" stop-color="#F99C4D"/><stop offset=".866" stop-color="#F8924F"/><stop offset="1" stop-color="#F8924F"/></linearGradient><linearGradient id="paint3_linear_1119_3700" x1="63.614" y1="620.295" x2="283.684" y2="620.295" gradientUnits="userSpaceOnUse"><stop stop-color="#F57E53"/><stop offset=".005" stop-color="#F58152"/><stop offset=".042" stop-color="#F99A4D"/><stop offset=".084" stop-color="#FCAD49"/><stop offset=".133" stop-color="#FEBA46"/><stop offset=".196" stop-color="#FFC244"/><stop offset=".318" stop-color="#FFC444"/><stop offset=".455" stop-color="#FDB946"/><stop offset=".694" stop-color="#F99C4C"/><stop offset=".996" stop-color="#F36F56"/></linearGradient><linearGradient id="paint4_linear_1119_3700" x1="174.66" y1="595.505" x2="186.262" y2="692.63" gradientUnits="userSpaceOnUse"><stop stop-color="#FFDB44"/><stop offset="1" stop-color="#FEEF06"/></linearGradient><linearGradient id="paint5_linear_1119_3700" x1="174.155" y1="591.174" x2="177.718" y2="621.002" gradientUnits="userSpaceOnUse"><stop stop-color="#FFDB44"/><stop offset="1" stop-color="#FEEF06"/></linearGradient><linearGradient id="paint6_linear_1119_3700" x1="177.504" y1="617.875" x2="173.954" y2="588.152" gradientUnits="userSpaceOnUse"><stop offset=".004" stop-color="#F36F56"/><stop offset=".306" stop-color="#F99C4C"/><stop offset=".545" stop-color="#FDB946"/><stop offset=".682" stop-color="#FFC444"/><stop offset=".804" stop-color="#FFC244"/><stop offset=".867" stop-color="#FEBA46"/><stop offset=".916" stop-color="#FCAD49"/><stop offset=".958" stop-color="#F99A4D"/><stop offset=".996" stop-color="#F58152"/><stop offset="1" stop-color="#F57E53"/></linearGradient><linearGradient id="paint7_linear_1119_3700" x1="37.024" y1="598.012" x2="257.095" y2="598.012" gradientUnits="userSpaceOnUse"><stop stop-color="#F57E53"/><stop offset=".005" stop-color="#F58152"/><stop offset=".042" stop-color="#F99A4D"/><stop offset=".084" stop-color="#FCAD49"/><stop offset=".133" stop-color="#FEBA46"/><stop offset=".196" stop-color="#FFC244"/><stop offset=".318" stop-color="#FFC444"/><stop offset=".455" stop-color="#FDB946"/><stop offset=".694" stop-color="#F99C4C"/><stop offset=".996" stop-color="#F36F56"/></linearGradient><linearGradient id="paint8_linear_1119_3700" x1="148.071" y1="573.222" x2="159.673" y2="670.347" gradientUnits="userSpaceOnUse"><stop stop-color="#FFDB44"/><stop offset="1" stop-color="#FEEF06"/></linearGradient><linearGradient id="paint9_linear_1119_3700" x1="147.566" y1="568.89" x2="151.129" y2="598.719" gradientUnits="userSpaceOnUse"><stop stop-color="#FFDB44"/><stop offset="1" stop-color="#FEEF06"/></linearGradient><linearGradient id="paint10_linear_1119_3700" x1="150.916" y1="595.592" x2="147.365" y2="565.869" gradientUnits="userSpaceOnUse"><stop offset=".004" stop-color="#F36F56"/><stop offset=".306" stop-color="#F99C4C"/><stop offset=".545" stop-color="#FDB946"/><stop offset=".682" stop-color="#FFC444"/><stop offset=".804" stop-color="#FFC244"/><stop offset=".867" stop-color="#FEBA46"/><stop offset=".916" stop-color="#FCAD49"/><stop offset=".958" stop-color="#F99A4D"/><stop offset=".996" stop-color="#F58152"/><stop offset="1" stop-color="#F57E53"/></linearGradient><linearGradient id="paint11_linear_1119_3700" x1="59.967" y1="575.793" x2="280.038" y2="575.793" gradientUnits="userSpaceOnUse"><stop stop-color="#F57E53"/><stop offset=".005" stop-color="#F58152"/><stop offset=".042" stop-color="#F99A4D"/><stop offset=".084" stop-color="#FCAD49"/><stop offset=".133" stop-color="#FEBA46"/><stop offset=".196" stop-color="#FFC244"/><stop offset=".318" stop-color="#FFC444"/><stop offset=".455" stop-color="#FDB946"/><stop offset=".694" stop-color="#F99C4C"/><stop offset=".996" stop-color="#F36F56"/></linearGradient><linearGradient id="paint12_linear_1119_3700" x1="171.013" y1="551.003" x2="182.615" y2="648.128" gradientUnits="userSpaceOnUse"><stop stop-color="#FFDB44"/><stop offset="1" stop-color="#FEEF06"/></linearGradient><linearGradient id="paint13_linear_1119_3700" x1="170.509" y1="546.671" x2="174.072" y2="576.5" gradientUnits="userSpaceOnUse"><stop stop-color="#FFDB44"/><stop offset="1" stop-color="#FEEF06"/></linearGradient><linearGradient id="paint14_linear_1119_3700" x1="173.858" y1="573.373" x2="170.308" y2="543.65" gradientUnits="userSpaceOnUse"><stop offset=".004" stop-color="#F36F56"/><stop offset=".306" stop-color="#F99C4C"/><stop offset=".545" stop-color="#FDB946"/><stop offset=".682" stop-color="#FFC444"/><stop offset=".804" stop-color="#FFC244"/><stop offset=".867" stop-color="#FEBA46"/><stop offset=".916" stop-color="#FCAD49"/><stop offset=".958" stop-color="#F99A4D"/><stop offset=".996" stop-color="#F58152"/><stop offset="1" stop-color="#F57E53"/></linearGradient><linearGradient id="paint15_linear_1119_3700" x1="73.89" y1="553.51" x2="293.96" y2="553.51" gradientUnits="userSpaceOnUse"><stop stop-color="#F57E53"/><stop offset=".005" stop-color="#F58152"/><stop offset=".042" stop-color="#F99A4D"/><stop offset=".084" stop-color="#FCAD49"/><stop offset=".133" stop-color="#FEBA46"/><stop offset=".196" stop-color="#FFC244"/><stop offset=".318" stop-color="#FFC444"/><stop offset=".455" stop-color="#FDB946"/><stop offset=".694" stop-color="#F99C4C"/><stop offset=".996" stop-color="#F36F56"/></linearGradient><linearGradient id="paint16_linear_1119_3700" x1="184.936" y1="528.719" x2="196.538" y2="625.845" gradientUnits="userSpaceOnUse"><stop stop-color="#FFDB44"/><stop offset="1" stop-color="#FEEF06"/></linearGradient><linearGradient id="paint17_linear_1119_3700" x1="184.431" y1="524.388" x2="187.995" y2="554.217" gradientUnits="userSpaceOnUse"><stop stop-color="#FFDB44"/><stop offset="1" stop-color="#FEEF06"/></linearGradient><linearGradient id="paint18_linear_1119_3700" x1="187.781" y1="551.09" x2="184.231" y2="521.367" gradientUnits="userSpaceOnUse"><stop offset=".004" stop-color="#F36F56"/><stop offset=".306" stop-color="#F99C4C"/><stop offset=".545" stop-color="#FDB946"/><stop offset=".682" stop-color="#FFC444"/><stop offset=".804" stop-color="#FFC244"/><stop offset=".867" stop-color="#FEBA46"/><stop offset=".916" stop-color="#FCAD49"/><stop offset=".958" stop-color="#F99A4D"/><stop offset=".996" stop-color="#F58152"/><stop offset="1" stop-color="#F57E53"/></linearGradient><linearGradient id="paint19_linear_1119_3700" x1="63.614" y1="529.469" x2="283.684" y2="529.469" gradientUnits="userSpaceOnUse"><stop stop-color="#F57E53"/><stop offset=".005" stop-color="#F58152"/><stop offset=".042" stop-color="#F99A4D"/><stop offset=".084" stop-color="#FCAD49"/><stop offset=".133" stop-color="#FEBA46"/><stop offset=".196" stop-color="#FFC244"/><stop offset=".318" stop-color="#FFC444"/><stop offset=".455" stop-color="#FDB946"/><stop offset=".694" stop-color="#F99C4C"/><stop offset=".996" stop-color="#F36F56"/></linearGradient><linearGradient id="paint20_linear_1119_3700" x1="174.66" y1="504.678" x2="186.262" y2="601.804" gradientUnits="userSpaceOnUse"><stop stop-color="#FFDB44"/><stop offset="1" stop-color="#FEEF06"/></linearGradient><linearGradient id="paint21_linear_1119_3700" x1="174.155" y1="500.347" x2="177.718" y2="530.176" gradientUnits="userSpaceOnUse"><stop stop-color="#FFDB44"/><stop offset="1" stop-color="#FEEF06"/></linearGradient><linearGradient id="paint22_linear_1119_3700" x1="177.504" y1="527.049" x2="173.954" y2="497.326" gradientUnits="userSpaceOnUse"><stop offset=".004" stop-color="#F36F56"/><stop offset=".306" stop-color="#F99C4C"/><stop offset=".545" stop-color="#FDB946"/><stop offset=".682" stop-color="#FFC444"/><stop offset=".804" stop-color="#FFC244"/><stop offset=".867" stop-color="#FEBA46"/><stop offset=".916" stop-color="#FCAD49"/><stop offset=".958" stop-color="#F99A4D"/><stop offset=".996" stop-color="#F58152"/><stop offset="1" stop-color="#F57E53"/></linearGradient><linearGradient id="paint23_linear_1119_3700" x1="37.024" y1="507.185" x2="257.095" y2="507.185" gradientUnits="userSpaceOnUse"><stop stop-color="#F57E53"/><stop offset=".005" stop-color="#F58152"/><stop offset=".042" stop-color="#F99A4D"/><stop offset=".084" stop-color="#FCAD49"/><stop offset=".133" stop-color="#FEBA46"/><stop offset=".196" stop-color="#FFC244"/><stop offset=".318" stop-color="#FFC444"/><stop offset=".455" stop-color="#FDB946"/><stop offset=".694" stop-color="#F99C4C"/><stop offset=".996" stop-color="#F36F56"/></linearGradient><linearGradient id="paint24_linear_1119_3700" x1="148.071" y1="482.395" x2="159.673" y2="579.519" gradientUnits="userSpaceOnUse"><stop stop-color="#FFDB44"/><stop offset="1" stop-color="#FEEF06"/></linearGradient><linearGradient id="paint25_linear_1119_3700" x1="147.566" y1="478.063" x2="151.129" y2="507.892" gradientUnits="userSpaceOnUse"><stop stop-color="#FFDB44"/><stop offset="1" stop-color="#FEEF06"/></linearGradient><linearGradient id="paint26_linear_1119_3700" x1="150.916" y1="504.765" x2="147.365" y2="475.042" gradientUnits="userSpaceOnUse"><stop offset=".004" stop-color="#F36F56"/><stop offset=".306" stop-color="#F99C4C"/><stop offset=".545" stop-color="#FDB946"/><stop offset=".682" stop-color="#FFC444"/><stop offset=".804" stop-color="#FFC244"/><stop offset=".867" stop-color="#FEBA46"/><stop offset=".916" stop-color="#FCAD49"/><stop offset=".958" stop-color="#F99A4D"/><stop offset=".996" stop-color="#F58152"/><stop offset="1" stop-color="#F57E53"/></linearGradient><linearGradient id="paint27_linear_1119_3700" x1="59.967" y1="484.966" x2="280.038" y2="484.966" gradientUnits="userSpaceOnUse"><stop stop-color="#F57E53"/><stop offset=".005" stop-color="#F58152"/><stop offset=".042" stop-color="#F99A4D"/><stop offset=".084" stop-color="#FCAD49"/><stop offset=".133" stop-color="#FEBA46"/><stop offset=".196" stop-color="#FFC244"/><stop offset=".318" stop-color="#FFC444"/><stop offset=".455" stop-color="#FDB946"/><stop offset=".694" stop-color="#F99C4C"/><stop offset=".996" stop-color="#F36F56"/></linearGradient><linearGradient id="paint28_linear_1119_3700" x1="171.013" y1="460.176" x2="182.615" y2="557.301" gradientUnits="userSpaceOnUse"><stop stop-color="#FFDB44"/><stop offset="1" stop-color="#FEEF06"/></linearGradient><linearGradient id="paint29_linear_1119_3700" x1="170.509" y1="455.844" x2="174.072" y2="485.673" gradientUnits="userSpaceOnUse"><stop stop-color="#FFDB44"/><stop offset="1" stop-color="#FEEF06"/></linearGradient><linearGradient id="paint30_linear_1119_3700" x1="173.858" y1="482.546" x2="170.308" y2="452.823" gradientUnits="userSpaceOnUse"><stop offset=".004" stop-color="#F36F56"/><stop offset=".306" stop-color="#F99C4C"/><stop offset=".545" stop-color="#FDB946"/><stop offset=".682" stop-color="#FFC444"/><stop offset=".804" stop-color="#FFC244"/><stop offset=".867" stop-color="#FEBA46"/><stop offset=".916" stop-color="#FCAD49"/><stop offset=".958" stop-color="#F99A4D"/><stop offset=".996" stop-color="#F58152"/><stop offset="1" stop-color="#F57E53"/></linearGradient><linearGradient id="paint31_linear_1119_3700" x1="48.032" y1="462.683" x2="268.103" y2="462.683" gradientUnits="userSpaceOnUse"><stop stop-color="#F57E53"/><stop offset=".005" stop-color="#F58152"/><stop offset=".042" stop-color="#F99A4D"/><stop offset=".084" stop-color="#FCAD49"/><stop offset=".133" stop-color="#FEBA46"/><stop offset=".196" stop-color="#FFC244"/><stop offset=".318" stop-color="#FFC444"/><stop offset=".455" stop-color="#FDB946"/><stop offset=".694" stop-color="#F99C4C"/><stop offset=".996" stop-color="#F36F56"/></linearGradient><linearGradient id="paint32_linear_1119_3700" x1="159.08" y1="437.893" x2="170.682" y2="535.018" gradientUnits="userSpaceOnUse"><stop stop-color="#FFDB44"/><stop offset="1" stop-color="#FEEF06"/></linearGradient><linearGradient id="paint33_linear_1119_3700" x1="158.575" y1="433.562" x2="162.138" y2="463.39" gradientUnits="userSpaceOnUse"><stop stop-color="#FFDB44"/><stop offset="1" stop-color="#FEEF06"/></linearGradient><linearGradient id="paint34_linear_1119_3700" x1="161.924" y1="460.263" x2="158.374" y2="430.54" gradientUnits="userSpaceOnUse"><stop offset=".004" stop-color="#F36F56"/><stop offset=".306" stop-color="#F99C4C"/><stop offset=".545" stop-color="#FDB946"/><stop offset=".682" stop-color="#FFC444"/><stop offset=".804" stop-color="#FFC244"/><stop offset=".867" stop-color="#FEBA46"/><stop offset=".916" stop-color="#FCAD49"/><stop offset=".958" stop-color="#F99A4D"/><stop offset=".996" stop-color="#F58152"/><stop offset="1" stop-color="#F57E53"/></linearGradient><linearGradient id="paint35_linear_1119_3700" x1="259.709" y1="457.241" x2="387.263" y2="636.578" gradientUnits="userSpaceOnUse"><stop stop-color="#F57E53"/><stop offset=".005" stop-color="#F58152"/><stop offset=".042" stop-color="#F99A4D"/><stop offset=".084" stop-color="#FCAD49"/><stop offset=".133" stop-color="#FEBA46"/><stop offset=".196" stop-color="#FFC244"/><stop offset=".318" stop-color="#FFC444"/><stop offset=".455" stop-color="#FDB946"/><stop offset=".694" stop-color="#F99C4C"/><stop offset=".996" stop-color="#F36F56"/></linearGradient><linearGradient id="paint36_linear_1119_3700" x1="344.271" y1="533.366" x2="271.858" y2="599.106" gradientUnits="userSpaceOnUse"><stop stop-color="#FFDB44"/><stop offset="1" stop-color="#FEEF06"/></linearGradient><linearGradient id="paint37_linear_1119_3700" x1="347.507" y1="530.446" x2="325.269" y2="550.635" gradientUnits="userSpaceOnUse"><stop stop-color="#FFDB44"/><stop offset="1" stop-color="#FEEF06"/></linearGradient><linearGradient id="paint38_linear_1119_3700" x1="327.695" y1="548.647" x2="349.854" y2="528.531" gradientUnits="userSpaceOnUse"><stop offset=".004" stop-color="#F36F56"/><stop offset=".306" stop-color="#F99C4C"/><stop offset=".545" stop-color="#FDB946"/><stop offset=".682" stop-color="#FFC444"/><stop offset=".804" stop-color="#FFC244"/><stop offset=".867" stop-color="#FEBA46"/><stop offset=".916" stop-color="#FCAD49"/><stop offset=".958" stop-color="#F99A4D"/><stop offset=".996" stop-color="#F58152"/><stop offset="1" stop-color="#F57E53"/></linearGradient><linearGradient id="paint39_linear_1119_3700" x1="304.449" y1="520.243" x2="331.536" y2="530.87" gradientUnits="userSpaceOnUse"><stop stop-color="#40447E"/><stop offset=".996" stop-color="#3C3B6B"/></linearGradient><linearGradient id="paint40_linear_1119_3700" x1="268.053" y1="408.555" x2="439.192" y2="860.748" gradientUnits="userSpaceOnUse"><stop stop-color="#FFC444"/><stop offset=".996" stop-color="#F36F56"/></linearGradient><linearGradient id="paint41_linear_1119_3700" x1="149.984" y1="388.659" x2="323.294" y2="544.982" gradientUnits="userSpaceOnUse"><stop stop-color="#311944"/><stop offset="1" stop-color="#A03976"/></linearGradient><linearGradient id="paint42_linear_1119_3700" x1="275.915" y1="435.294" x2="148.269" y2="435.294" gradientUnits="userSpaceOnUse"><stop stop-color="#311944"/><stop offset="1" stop-color="#A03976"/></linearGradient><linearGradient id="paint43_linear_1119_3700" x1="62.362" y1="417.114" x2="252.104" y2="428.885" gradientUnits="userSpaceOnUse"><stop stop-color="#311944"/><stop offset="1" stop-color="#893976"/></linearGradient><linearGradient id="paint44_linear_1119_3700" x1="203.422" y1="486.934" x2="184.458" y2="364.714" gradientUnits="userSpaceOnUse"><stop stop-color="#AA80F9"/><stop offset=".996" stop-color="#6165D7"/></linearGradient><linearGradient id="paint45_linear_1119_3700" x1="84.059" y1="115.747" x2="105.835" y2="214.053" gradientUnits="userSpaceOnUse"><stop stop-color="#AA80F9"/><stop offset=".996" stop-color="#6165D7"/></linearGradient><linearGradient id="paint46_linear_1119_3700" x1="142.999" y1="417.429" x2="142.615" y2="334.967" gradientUnits="userSpaceOnUse"><stop stop-color="#AA80F9"/><stop offset=".996" stop-color="#6165D7"/></linearGradient><linearGradient id="paint47_linear_1119_3700" x1="143.651" y1="390.953" x2="245.149" y2="389.572" gradientUnits="userSpaceOnUse"><stop stop-color="#FFC444"/><stop offset=".996" stop-color="#F36F56"/></linearGradient><linearGradient id="paint48_linear_1119_3700" x1="100.629" y1="427.94" x2="134.037" y2="342.968" gradientUnits="userSpaceOnUse"><stop stop-color="#AA80F9"/><stop offset=".996" stop-color="#6165D7"/></linearGradient><linearGradient id="paint49_linear_1119_3700" x1="141.933" y1="323.355" x2="151.932" y2="288.996" gradientUnits="userSpaceOnUse"><stop stop-color="#FFC444"/><stop offset=".996" stop-color="#F36F56"/></linearGradient><linearGradient id="paint50_linear_1119_3700" x1="126.003" y1="324.092" x2="162.51" y2="279.13" gradientUnits="userSpaceOnUse"><stop stop-color="#311944"/><stop offset="1" stop-color="#6B3976"/></linearGradient><linearGradient id="paint51_linear_1119_3700" x1="151.414" y1="295.434" x2="137.128" y2="349.555" gradientUnits="userSpaceOnUse"><stop stop-color="#FFC444"/><stop offset=".996" stop-color="#F36F56"/></linearGradient><linearGradient id="paint52_linear_1119_3700" x1="174.184" y1="391.617" x2="239.236" y2="407.926" gradientUnits="userSpaceOnUse"><stop stop-color="#40447E"/><stop offset=".996" stop-color="#3C3B6B"/></linearGradient><linearGradient id="paint53_linear_1119_3700" x1="268.497" y1="442.078" x2="301.7" y2="439.44" gradientUnits="userSpaceOnUse"><stop stop-color="#40447E"/><stop offset=".996" stop-color="#3C3B6B"/></linearGradient><linearGradient id="paint54_linear_1119_3700" x1="267.035" y1="425.609" x2="507.785" y2="844.896" gradientUnits="userSpaceOnUse"><stop stop-color="#FFC444"/><stop offset=".996" stop-color="#F36F56"/></linearGradient><linearGradient id="paint55_linear_1119_3700" x1="126.204" y1="414.845" x2="278.892" y2="437.684" gradientUnits="userSpaceOnUse"><stop stop-color="#311944"/><stop offset="1" stop-color="#A03976"/></linearGradient><linearGradient id="paint56_linear_1119_3700" x1="171.175" y1="301.95" x2="202.766" y2="465.35" gradientUnits="userSpaceOnUse"><stop stop-color="#311944"/><stop offset="1" stop-color="#A03976"/></linearGradient><linearGradient id="paint57_linear_1119_3700" x1="132.174" y1="422.253" x2="247.734" y2="426.311" gradientUnits="userSpaceOnUse"><stop stop-color="#FF9085"/><stop offset="1" stop-color="#FB6FBB"/></linearGradient><linearGradient id="paint58_linear_1119_3700" x1="410.833" y1="130.546" x2="474.329" y2="282.018" gradientUnits="userSpaceOnUse"><stop stop-color="#444B8C"/><stop offset=".996" stop-color="#26264F"/></linearGradient><linearGradient id="paint59_linear_1119_3700" x1="412.162" y1="116.199" x2="476.408" y2="269.461" gradientUnits="userSpaceOnUse"><stop stop-color="#AA80F9"/><stop offset=".996" stop-color="#6165D7"/></linearGradient><linearGradient id="paint60_linear_1119_3700" x1="407.498" y1="146.318" x2="422.256" y2="146.318" gradientUnits="userSpaceOnUse"><stop stop-color="#fff"/><stop offset=".996" stop-color="#EBEFF2"/></linearGradient><linearGradient id="paint61_linear_1119_3700" x1="425.729" y1="146.905" x2="440.149" y2="146.905" gradientUnits="userSpaceOnUse"><stop stop-color="#fff"/><stop offset=".996" stop-color="#EBEFF2"/></linearGradient><linearGradient id="paint62_linear_1119_3700" x1="443.543" y1="147.478" x2="457.636" y2="147.478" gradientUnits="userSpaceOnUse"><stop stop-color="#fff"/><stop offset=".996" stop-color="#EBEFF2"/></linearGradient><linearGradient id="paint63_linear_1119_3700" x1="460.953" y1="148.038" x2="474.731" y2="148.038" gradientUnits="userSpaceOnUse"><stop stop-color="#fff"/><stop offset=".996" stop-color="#EBEFF2"/></linearGradient><linearGradient id="paint64_linear_1119_3700" x1="477.975" y1="148.586" x2="491.448" y2="148.586" gradientUnits="userSpaceOnUse"><stop stop-color="#fff"/><stop offset=".996" stop-color="#EBEFF2"/></linearGradient><linearGradient id="paint65_linear_1119_3700" x1="369.722" y1="160.717" x2="385.194" y2="160.717" gradientUnits="userSpaceOnUse"><stop stop-color="#fff"/><stop offset=".996" stop-color="#EBEFF2"/></linearGradient><linearGradient id="paint66_linear_1119_3700" x1="388.834" y1="161.147" x2="403.943" y2="161.147" gradientUnits="userSpaceOnUse"><stop stop-color="#fff"/><stop offset=".996" stop-color="#EBEFF2"/></linearGradient><linearGradient id="paint67_linear_1119_3700" x1="407.498" y1="161.568" x2="422.256" y2="161.568" gradientUnits="userSpaceOnUse"><stop stop-color="#fff"/><stop offset=".996" stop-color="#EBEFF2"/></linearGradient><linearGradient id="paint68_linear_1119_3700" x1="425.729" y1="161.979" x2="440.149" y2="161.979" gradientUnits="userSpaceOnUse"><stop stop-color="#fff"/><stop offset=".996" stop-color="#EBEFF2"/></linearGradient><linearGradient id="paint69_linear_1119_3700" x1="443.543" y1="162.38" x2="457.636" y2="162.38" gradientUnits="userSpaceOnUse"><stop stop-color="#fff"/><stop offset=".996" stop-color="#EBEFF2"/></linearGradient><linearGradient id="paint70_linear_1119_3700" x1="460.953" y1="162.772" x2="474.731" y2="162.772" gradientUnits="userSpaceOnUse"><stop stop-color="#fff"/><stop offset=".996" stop-color="#EBEFF2"/></linearGradient><linearGradient id="paint71_linear_1119_3700" x1="477.975" y1="163.156" x2="491.448" y2="163.156" gradientUnits="userSpaceOnUse"><stop stop-color="#fff"/><stop offset=".996" stop-color="#EBEFF2"/></linearGradient><linearGradient id="paint72_linear_1119_3700" x1="369.722" y1="176.33" x2="385.194" y2="176.33" gradientUnits="userSpaceOnUse"><stop stop-color="#fff"/><stop offset=".996" stop-color="#EBEFF2"/></linearGradient><linearGradient id="paint73_linear_1119_3700" x1="388.834" y1="176.577" x2="403.943" y2="176.577" gradientUnits="userSpaceOnUse"><stop stop-color="#fff"/><stop offset=".996" stop-color="#EBEFF2"/></linearGradient><linearGradient id="paint74_linear_1119_3700" x1="407.498" y1="176.817" x2="422.256" y2="176.817" gradientUnits="userSpaceOnUse"><stop stop-color="#fff"/><stop offset=".996" stop-color="#EBEFF2"/></linearGradient><linearGradient id="paint75_linear_1119_3700" x1="425.729" y1="177.052" x2="440.149" y2="177.052" gradientUnits="userSpaceOnUse"><stop stop-color="#fff"/><stop offset=".996" stop-color="#EBEFF2"/></linearGradient><linearGradient id="paint76_linear_1119_3700" x1="443.543" y1="177.282" x2="457.636" y2="177.282" gradientUnits="userSpaceOnUse"><stop stop-color="#fff"/><stop offset=".996" stop-color="#EBEFF2"/></linearGradient><linearGradient id="paint77_linear_1119_3700" x1="477.975" y1="177.726" x2="491.448" y2="177.726" gradientUnits="userSpaceOnUse"><stop stop-color="#fff"/><stop offset=".996" stop-color="#EBEFF2"/></linearGradient><linearGradient id="paint78_linear_1119_3700" x1="369.722" y1="191.944" x2="385.194" y2="191.944" gradientUnits="userSpaceOnUse"><stop stop-color="#fff"/><stop offset=".996" stop-color="#EBEFF2"/></linearGradient><linearGradient id="paint79_linear_1119_3700" x1="388.834" y1="192.006" x2="403.943" y2="192.006" gradientUnits="userSpaceOnUse"><stop stop-color="#fff"/><stop offset=".996" stop-color="#EBEFF2"/></linearGradient><linearGradient id="paint80_linear_1119_3700" x1="407.498" y1="192.066" x2="422.256" y2="192.066" gradientUnits="userSpaceOnUse"><stop stop-color="#fff"/><stop offset=".996" stop-color="#EBEFF2"/></linearGradient><linearGradient id="paint81_linear_1119_3700" x1="425.729" y1="192.126" x2="440.149" y2="192.126" gradientUnits="userSpaceOnUse"><stop stop-color="#fff"/><stop offset=".996" stop-color="#EBEFF2"/></linearGradient><linearGradient id="paint82_linear_1119_3700" x1="443.543" y1="192.184" x2="457.636" y2="192.184" gradientUnits="userSpaceOnUse"><stop stop-color="#fff"/><stop offset=".996" stop-color="#EBEFF2"/></linearGradient><linearGradient id="paint83_linear_1119_3700" x1="494.969" y1="900.791" x2="499.376" y2="572.92" gradientUnits="userSpaceOnUse"><stop stop-color="#444B8C"/><stop offset=".996" stop-color="#26264F"/></linearGradient><linearGradient id="paint84_linear_1119_3700" x1="505.524" y1="900.154" x2="509.927" y2="572.62" gradientUnits="userSpaceOnUse"><stop stop-color="#AA80F9"/><stop offset=".996" stop-color="#6165D7"/></linearGradient><linearGradient id="paint85_linear_1119_3700" x1="422.418" y1="411.262" x2="600.149" y2="411.262" gradientUnits="userSpaceOnUse"><stop stop-color="#AA80F9"/><stop offset=".996" stop-color="#6165D7"/></linearGradient><linearGradient id="paint86_linear_1119_3700" x1="422.417" y1="440.087" x2="600.041" y2="440.087" gradientUnits="userSpaceOnUse"><stop stop-color="#AA80F9"/><stop offset=".996" stop-color="#6165D7"/></linearGradient><linearGradient id="paint87_linear_1119_3700" x1="565.768" y1="398.632" x2="563.334" y2="454.107" gradientUnits="userSpaceOnUse"><stop stop-color="#311944"/><stop offset="1" stop-color="#A03976"/></linearGradient><linearGradient id="paint88_linear_1119_3700" x1="579.596" y1="398.459" x2="577.153" y2="454.158" gradientUnits="userSpaceOnUse"><stop stop-color="#311944"/><stop offset="1" stop-color="#A03976"/></linearGradient><linearGradient id="paint89_linear_1119_3700" x1="565.757" y1="413.402" x2="563.151" y2="472.82" gradientUnits="userSpaceOnUse"><stop stop-color="#311944"/><stop offset="1" stop-color="#A03976"/></linearGradient><linearGradient id="paint90_linear_1119_3700" x1="579.619" y1="412.225" x2="576.828" y2="475.854" gradientUnits="userSpaceOnUse"><stop stop-color="#311944"/><stop offset="1" stop-color="#A03976"/></linearGradient><linearGradient id="paint91_linear_1119_3700" x1="582.061" y1="415.873" x2="528.703" y2="413.532" gradientUnits="userSpaceOnUse"><stop stop-color="#311944"/><stop offset="1" stop-color="#A03976"/></linearGradient><linearGradient id="paint92_linear_1119_3700" x1="582.063" y1="401.383" x2="528.697" y2="399.042" gradientUnits="userSpaceOnUse"><stop stop-color="#311944"/><stop offset="1" stop-color="#A03976"/></linearGradient><linearGradient id="paint93_linear_1119_3700" x1="582.412" y1="431.068" x2="524.973" y2="428.549" gradientUnits="userSpaceOnUse"><stop stop-color="#311944"/><stop offset="1" stop-color="#A03976"/></linearGradient><linearGradient id="paint94_linear_1119_3700" x1="598.566" y1="396.485" x2="326.228" y2="547.984" gradientUnits="userSpaceOnUse"><stop stop-color="#444B8C"/><stop offset=".996" stop-color="#3E4177"/></linearGradient><linearGradient id="paint95_linear_1119_3700" x1="606.885" y1="414.389" x2="338.523" y2="563.676" gradientUnits="userSpaceOnUse"><stop stop-color="#444B8C"/><stop offset=".996" stop-color="#3E4177"/></linearGradient><linearGradient id="paint96_linear_1119_3700" x1="614.128" y1="431.781" x2="349.518" y2="578.981" gradientUnits="userSpaceOnUse"><stop stop-color="#444B8C"/><stop offset=".996" stop-color="#3E4177"/></linearGradient><linearGradient id="paint97_linear_1119_3700" x1="623.008" y1="448.663" x2="362.193" y2="593.752" gradientUnits="userSpaceOnUse"><stop stop-color="#444B8C"/><stop offset=".996" stop-color="#3E4177"/></linearGradient><linearGradient id="paint98_linear_1119_3700" x1="611.902" y1="419.35" x2="339.009" y2="571.158" gradientUnits="userSpaceOnUse"><stop stop-color="#444B8C"/><stop offset=".996" stop-color="#3E4177"/></linearGradient><linearGradient id="paint99_linear_1119_3700" x1="619.94" y1="437.151" x2="351.03" y2="586.744" gradientUnits="userSpaceOnUse"><stop stop-color="#444B8C"/><stop offset=".996" stop-color="#3E4177"/></linearGradient><linearGradient id="paint100_linear_1119_3700" x1="626.916" y1="454.446" x2="361.765" y2="601.947" gradientUnits="userSpaceOnUse"><stop stop-color="#444B8C"/><stop offset=".996" stop-color="#3E4177"/></linearGradient><linearGradient id="paint101_linear_1119_3700" x1="635.529" y1="471.226" x2="374.18" y2="616.611" gradientUnits="userSpaceOnUse"><stop stop-color="#444B8C"/><stop offset=".996" stop-color="#3E4177"/></linearGradient><linearGradient id="paint102_linear_1119_3700" x1="625.283" y1="441.457" x2="351.847" y2="593.566" gradientUnits="userSpaceOnUse"><stop stop-color="#444B8C"/><stop offset=".996" stop-color="#3E4177"/></linearGradient><linearGradient id="paint103_linear_1119_3700" x1="633.042" y1="459.162" x2="363.597" y2="609.051" gradientUnits="userSpaceOnUse"><stop stop-color="#444B8C"/><stop offset=".996" stop-color="#3E4177"/></linearGradient><linearGradient id="paint104_linear_1119_3700" x1="639.752" y1="476.364" x2="374.074" y2="624.158" gradientUnits="userSpaceOnUse"><stop stop-color="#444B8C"/><stop offset=".996" stop-color="#3E4177"/></linearGradient><linearGradient id="paint105_linear_1119_3700" x1="648.1" y1="493.048" x2="386.231" y2="638.723" gradientUnits="userSpaceOnUse"><stop stop-color="#444B8C"/><stop offset=".996" stop-color="#3E4177"/></linearGradient><linearGradient id="paint106_linear_1119_3700" x1="638.706" y1="462.808" x2="364.743" y2="615.212" gradientUnits="userSpaceOnUse"><stop stop-color="#444B8C"/><stop offset=".996" stop-color="#3E4177"/></linearGradient><linearGradient id="paint107_linear_1119_3700" x1="646.188" y1="480.422" x2="376.223" y2="630.601" gradientUnits="userSpaceOnUse"><stop stop-color="#444B8C"/><stop offset=".996" stop-color="#3E4177"/></linearGradient><linearGradient id="paint108_linear_1119_3700" x1="652.634" y1="497.537" x2="386.443" y2="645.617" gradientUnits="userSpaceOnUse"><stop stop-color="#444B8C"/><stop offset=".996" stop-color="#3E4177"/></linearGradient><linearGradient id="paint109_linear_1119_3700" x1="652.206" y1="486.195" x2="377.678" y2="638.913" gradientUnits="userSpaceOnUse"><stop stop-color="#444B8C"/><stop offset=".996" stop-color="#3E4177"/></linearGradient><linearGradient id="paint110_linear_1119_3700" x1="659.402" y1="503.704" x2="388.88" y2="654.193" gradientUnits="userSpaceOnUse"><stop stop-color="#444B8C"/><stop offset=".996" stop-color="#3E4177"/></linearGradient><linearGradient id="paint111_linear_1119_3700" x1="665.58" y1="520.72" x2="398.839" y2="669.106" gradientUnits="userSpaceOnUse"><stop stop-color="#444B8C"/><stop offset=".996" stop-color="#3E4177"/></linearGradient><linearGradient id="paint112_linear_1119_3700" x1="667.022" y1="525.607" x2="404.137" y2="671.848" gradientUnits="userSpaceOnUse"><stop stop-color="#444B8C"/><stop offset=".996" stop-color="#3E4177"/></linearGradient><linearGradient id="paint113_linear_1119_3700" x1="452.997" y1="460.517" x2="448.489" y2="563.299" gradientUnits="userSpaceOnUse"><stop stop-color="#444B8C"/><stop offset=".996" stop-color="#26264F"/></linearGradient><linearGradient id="paint114_linear_1119_3700" x1="493.915" y1="459.669" x2="489.446" y2="561.566" gradientUnits="userSpaceOnUse"><stop stop-color="#444B8C"/><stop offset=".996" stop-color="#26264F"/></linearGradient><linearGradient id="paint115_linear_1119_3700" x1="535.595" y1="458.805" x2="531.165" y2="559.801" gradientUnits="userSpaceOnUse"><stop stop-color="#444B8C"/><stop offset=".996" stop-color="#26264F"/></linearGradient><linearGradient id="paint116_linear_1119_3700" x1="576.603" y1="457.954" x2="572.212" y2="558.066" gradientUnits="userSpaceOnUse"><stop stop-color="#444B8C"/><stop offset=".996" stop-color="#26264F"/></linearGradient><linearGradient id="paint117_linear_1119_3700" x1="452.983" y1="490.671" x2="448.443" y2="594.196" gradientUnits="userSpaceOnUse"><stop stop-color="#444B8C"/><stop offset=".996" stop-color="#26264F"/></linearGradient><linearGradient id="paint118_linear_1119_3700" x1="493.881" y1="489.586" x2="489.38" y2="592.215" gradientUnits="userSpaceOnUse"><stop stop-color="#444B8C"/><stop offset=".996" stop-color="#26264F"/></linearGradient><linearGradient id="paint119_linear_1119_3700" x1="535.54" y1="488.481" x2="531.079" y2="590.197" gradientUnits="userSpaceOnUse"><stop stop-color="#444B8C"/><stop offset=".996" stop-color="#26264F"/></linearGradient><linearGradient id="paint120_linear_1119_3700" x1="576.529" y1="487.393" x2="572.107" y2="588.213" gradientUnits="userSpaceOnUse"><stop stop-color="#444B8C"/><stop offset=".996" stop-color="#26264F"/></linearGradient><linearGradient id="paint121_linear_1119_3700" x1="452.971" y1="520.095" x2="448.398" y2="624.346" gradientUnits="userSpaceOnUse"><stop stop-color="#444B8C"/><stop offset=".996" stop-color="#26264F"/></linearGradient><linearGradient id="paint122_linear_1119_3700" x1="493.849" y1="518.779" x2="489.317" y2="622.122" gradientUnits="userSpaceOnUse"><stop stop-color="#444B8C"/><stop offset=".996" stop-color="#26264F"/></linearGradient><linearGradient id="paint123_linear_1119_3700" x1="535.488" y1="517.439" x2="530.995" y2="619.858" gradientUnits="userSpaceOnUse"><stop stop-color="#444B8C"/><stop offset=".996" stop-color="#26264F"/></linearGradient><linearGradient id="paint124_linear_1119_3700" x1="576.456" y1="516.12" x2="572.004" y2="617.632" gradientUnits="userSpaceOnUse"><stop stop-color="#444B8C"/><stop offset=".996" stop-color="#26264F"/></linearGradient><linearGradient id="paint125_linear_1119_3700" x1="452.958" y1="548.789" x2="448.355" y2="653.749" gradientUnits="userSpaceOnUse"><stop stop-color="#444B8C"/><stop offset=".996" stop-color="#26264F"/></linearGradient><linearGradient id="paint126_linear_1119_3700" x1="493.817" y1="547.249" x2="489.254" y2="651.29" gradientUnits="userSpaceOnUse"><stop stop-color="#444B8C"/><stop offset=".996" stop-color="#26264F"/></linearGradient><linearGradient id="paint127_linear_1119_3700" x1="535.437" y1="545.68" x2="530.914" y2="648.786" gradientUnits="userSpaceOnUse"><stop stop-color="#444B8C"/><stop offset=".996" stop-color="#26264F"/></linearGradient><linearGradient id="paint128_linear_1119_3700" x1="452.945" y1="579.553" x2="448.308" y2="685.274" gradientUnits="userSpaceOnUse"><stop stop-color="#444B8C"/><stop offset=".996" stop-color="#26264F"/></linearGradient><linearGradient id="paint129_linear_1119_3700" x1="493.783" y1="577.772" x2="489.187" y2="682.562" gradientUnits="userSpaceOnUse"><stop stop-color="#444B8C"/><stop offset=".996" stop-color="#26264F"/></linearGradient><linearGradient id="paint130_linear_1119_3700" x1="535.382" y1="575.959" x2="530.827" y2="679.801" gradientUnits="userSpaceOnUse"><stop stop-color="#444B8C"/><stop offset=".996" stop-color="#26264F"/></linearGradient><linearGradient id="paint131_linear_1119_3700" x1="577.635" y1="529.818" x2="565.858" y2="798.307" gradientUnits="userSpaceOnUse"><stop stop-color="#444B8C"/><stop offset=".996" stop-color="#26264F"/></linearGradient></defs></svg>