<svg width="815" height="640" fill="none" xmlns="http://www.w3.org/2000/svg"><path d="M407.498 640c225.055 0 407.497-58.212 407.497-130.021 0-71.809-182.442-130.021-407.497-130.021S0 438.17 0 509.979C0 581.788 182.443 640 407.498 640z" fill="#FFE1E5"/><path d="M714.51 346.909c9.147-1.574 18.502-1.171 27.779-1.522a174.801 174.801 0 0049.365-9.056c-3.396 12.113-6.805 24.227-10.201 36.353-2.628 9.368-5.283 18.815-9.628 27.519-4.151 8.314-9.798 15.887-16.616 22.21-14.13 13.141-34.089 20.753-53.072 17.331-16.603-2.992-32.19-14.624-37.017-31.175-9.225-31.539 21.065-56.794 49.39-61.66z" fill="#B4DFD5"/><path d="M780.802 346.454c-12.816 5.725-25.684 11.476-38.148 17.942 2.081-4.307 4.541-8.366 7.481-12.178 1.119-1.458-.989-3.396-2.108-1.939-3.799 4.918-6.935 10.214-9.368 15.939-.052.117-.052.221-.065.325-5.556 2.98-11.046 6.102-16.394 9.459-7.703 4.853-15.535 10.201-22.496 16.394 2.888-10.838 6.271-21.507 10.253-32.007.65-1.705-1.887-3.058-2.538-1.327a338.878 338.878 0 00-11.658 37.056c-6.57 6.531-12.074 13.987-15.496 22.743-.664 1.705 1.874 3.045 2.537 1.327 1.496-3.838 3.422-7.416 5.647-10.786.026 0 .052.013.078.013 15.965.208 32.619-.885 48.402 1.665 1.808.3 2.433-2.511.611-2.797-15.405-2.498-31.513-1.626-47.113-1.717 8.899-11.997 21.858-21.066 34.466-28.859.013 0 .026.013.039.013 14.807.741 30.173.429 44.681 3.656 1.795.403 2.407-2.394.611-2.798-13.284-2.953-27.258-2.992-40.894-3.526 16.772-9.94 34.597-17.942 52.37-25.879 1.653-.742.794-3.474-.898-2.719z" fill="#42B093"/><path d="M644.665 298.638c9.29-13.765 23.758-23.94 39.853-28.013 10.747-2.719 22.379-2.901 32.086-8.288 10.031-5.569 16.407-15.809 24.721-23.693 7.664-7.287 17.565-12.751 28.13-13.103 10.565-.351 21.651 5.27 25.84 14.976 5.413 12.569-2.303 27.792-13.974 34.961-5.92 3.644-13.193 6.194-16.394 12.374-1.665 3.214-1.925 6.961-2.147 10.578-.702 11.411-1.392 22.913-4.319 33.972-3.943 14.872-12.075 28.768-23.876 38.618-11.801 9.862-27.336 15.444-42.677 14.26-7.949-.612-15.652-2.967-23.133-5.725-36.146-13.284-45.631-49-24.11-80.917z" fill="#42B093"/><path d="M786.317 247.973a199.762 199.762 0 01-19.96 3.162c4.294-3.591 8.653-7.13 13.129-10.552 1.366-1.041-.456-3.006-1.809-1.965-4.944 3.773-9.758 7.69-14.494 11.684.169-3.877.637-7.69 1.457-11.528.364-1.665-2.186-2.498-2.55-.82a74.054 74.054 0 00-1.666 14.664c-9.433 8.093-18.476 16.589-27.232 25.385.52-5.231.794-10.487.807-15.757 0-1.717-2.668-1.834-2.668-.117a164.185 164.185 0 01-1.145 18.931c-14.793 15.08-28.754 31.006-42.351 47.231a1142.166 1142.166 0 015.66-49.351c.234-1.705-2.433-1.809-2.668-.117a1170.242 1170.242 0 00-6.011 53.02v.026c-6.258 7.521-12.438 15.106-18.593 22.705-.572-.768-1.041-1.887-1.379-3.487a263.561 263.561 0 01-2.342-12.647c-1.535-9.628-2.485-19.322-2.954-29.067-.078-1.705-2.758-1.835-2.667-.117a273.762 273.762 0 006.727 48.532c-1.483 1.834-2.967 3.656-4.45 5.49-1.08 1.34 1.184 2.772 2.251 1.444l4.723-5.816c18.788-1.353 36.666-8.691 55.61-8.587 1.718.013 1.835-2.667.117-2.667-15.913-.091-30.914 5.087-46.476 7.572-2.875.456-5.139 1.054-6.87.755 6.233-7.677 12.478-15.353 18.814-22.965l56.482-12.36c1.678-.365 1.08-2.98-.598-2.603-17.683 3.865-35.378 7.742-53.06 11.606 13.414-15.99 27.18-31.669 41.753-46.554 8.21-.091 16.342-.806 24.448-2.16 1.691-.286 1.093-2.888-.599-2.602-7.013 1.184-14.065 1.835-21.156 2.03 9.043-9.095 18.385-17.891 28.143-26.244 8.132-.715 16.186-1.886 24.188-3.578 1.679-.325 1.08-2.927-.611-2.576z" fill="#2E9376"/><path d="M781.114 203.149c-21.313.924-43.51 5.699-58.876 20.154 6.558-12.985 13.011-26.022 19.244-39.164 2.12.963 4.593 1.21 6.922.924 10.734-1.353 14.286-10.942 15.053-20.505.404-5.075.144-10.162.014-15.237-.092-3.526 2.341-21.26-6.142-15.665-4.046 2.68-7.299 6.428-10.812 9.719-5.387 5.062-9.641 11.099-11.437 17.787-1.34 4.996-1.288 10.357.703 15.938.754 2.095 1.782 4.151 3.448 5.621.078.065.156.117.234.182-7.247 15.289-14.82 30.447-22.497 45.553.013-.091.026-.183.039-.261 1.041-6.349 1.536-12.855.456-19.243-1.822-10.865-8.119-20.246-17.11-26.491-.663-.455-1.769-.338-1.926.625-.052.312-6.752 26.959-2.107 39.072 1.756 4.593 4.436 8.926 8.041 12.309 1.769 1.665 4.632 4.424 7.39 4.228-8.041 15.744-16.134 31.461-23.993 47.27.261-2.966.013-6.193-.234-8.483-.95-9.147-5.217-18.034-12.139-24.149-2.798-2.459-6.012-4.528-9.616-5.478-3.89 6.675-4.449 14.794-3.851 22.497.338 4.241 1.028 8.561 3.162 12.243 1.951 3.37 5.035 6.011 8.522 7.755 2.576 1.288 7.69 3.409 10.812 2.381-9.498 19.309-18.593 38.799-26.803 58.68-1.158-4.996-4.397-9.329-8.353-12.594-3.981-3.266-8.678-5.556-13.427-7.534-3.162-1.327-6.558-2.667-8.549-5.478 1.484 3.696 1.34 7.794 1.887 11.737a33.924 33.924 0 005.777 14.754c2.03 2.902 4.58 5.53 7.781 7.039 3.682 1.744 8.092 2.316 11.228 1.106-2.914 7.338-5.712 14.729-8.34 22.184-7.325 20.805-13.323 42.039-17.565 63.69-.286 1.483 2.004 1.978 2.29.495 6.271-31.982 16.446-62.662 28.716-92.588.104 3.825 2.172 7.598 6.817 10.057 2.069 1.093 4.398 1.627 6.727 1.848 7.104.69 14.443-1.444 20.077-5.816 5.633-4.372 9.524-10.942 10.63-17.994.13-.794.117-1.783-.573-2.173-.468-.26-1.041-.13-1.574 0-5.088 1.223-10.409.689-15.614.182-5.204-.508-10.552-.963-15.6.403a15.439 15.439 0 00-6.948 4.034c7.338-17.201 15.301-34.155 23.576-50.965 1.093 2.29 4.333 3.864 6.376 4.788 10.162 4.606 22.236 4.788 32.528.494 10.292-4.293 18.658-12.998 22.522-23.459-10.591-4.28-22.561-5.087-33.634-2.277-7.351 1.861-14.286 5.309-20.245 9.993-.963.754-2.446 1.821-3.878 3.018 8.197-16.485 16.629-32.84 24.956-49.169 7.26 14.716 29.783 12.556 42.937 7 15.991-6.766 27.584-22.392 24.149-40.217-.091-.521-.703-.833-1.171-.82z" fill="#FDD17A"/><path d="M79.875 309.854c-9.186-1.353-18.528-.742-27.805-.859a174.443 174.443 0 01-49.56-7.885c3.683 12.036 7.378 24.071 11.06 36.093 2.85 9.303 5.738 18.685 10.28 27.285a77.525 77.525 0 0017.135 21.807c14.442 12.803 34.57 19.946 53.476 16.068 16.524-3.382 31.825-15.392 36.275-32.046 8.457-31.747-22.431-56.274-50.86-60.463z" fill="#61BDA6"/><path d="M13.583 310.959c12.946 5.426 25.944 10.865 38.565 17.045-2.173-4.255-4.736-8.262-7.768-11.996-1.158-1.432.898-3.422 2.07-1.991a72.256 72.256 0 019.745 15.717c.052.118.052.222.078.326 5.634 2.849 11.19 5.829 16.615 9.069 7.82 4.671 15.77 9.823 22.874 15.86-3.149-10.773-6.78-21.351-11.008-31.76-.69-1.692 1.809-3.097 2.511-1.392a336.153 336.153 0 0112.53 36.769c6.727 6.376 12.413 13.701 16.03 22.367.703 1.691-1.796 3.096-2.511 1.392-1.588-3.813-3.591-7.339-5.894-10.643-.026 0-.052.013-.078.013-15.952.585-32.62-.117-48.35 2.81-1.808.338-2.498-2.446-.676-2.784 15.34-2.863 31.46-2.368 47.061-2.837-9.186-11.775-22.353-20.545-35.13-28.039-.013 0-.026.013-.04.013-14.78 1.093-30.146 1.132-44.576 4.71-1.795.442-2.472-2.342-.676-2.784 13.22-3.266 27.18-3.63 40.803-4.489-17.006-9.537-35.013-17.11-52.969-24.63-1.704-.703-.91-3.461.794-2.746z" fill="#40967D"/><path d="M212.341 287.708c-11.228-16.733-28.754-29.132-48.284-34.129-13.05-3.343-27.155-3.591-38.917-10.161-12.152-6.779-19.868-19.231-29.938-28.846-9.29-8.861-21.274-15.535-34.103-15.991-12.829-.455-26.295 6.324-31.409 18.099-6.61 15.236 2.72 33.751 16.85 42.481 7.182 4.437 16.003 7.56 19.855 15.067 2.017 3.917 2.316 8.445 2.576 12.842.82 13.857 1.613 27.818 5.14 41.246 4.736 18.059 14.572 34.948 28.858 46.957 14.3 12.01 33.14 18.84 51.746 17.448 9.641-.715 19.009-3.552 28.091-6.87 43.939-16.029 55.571-59.331 29.535-98.143z" fill="#B4DFD5"/><path d="M40.567 225.774a238.538 238.538 0 0024.214 3.891c-5.205-4.372-10.487-8.679-15.9-12.842-1.652-1.275.56-3.643 2.2-2.381 5.984 4.606 11.813 9.368 17.551 14.234-.195-4.71-.741-9.329-1.743-14-.43-2.03 2.654-3.032 3.096-.989a89.983 89.983 0 011.978 17.799c11.424 9.863 22.38 20.207 32.97 30.902a204.12 204.12 0 01-.936-19.127c0-2.081 3.239-2.224 3.239-.13 0 7.703.456 15.341 1.328 22.991 17.903 18.359 34.805 37.72 51.251 57.458a1383.665 1383.665 0 00-6.714-59.917c-.273-2.069 2.966-2.186 3.24-.13a1407.913 1407.913 0 017.13 64.379v.026c7.572 9.147 15.054 18.385 22.496 27.623.703-.924 1.262-2.277 1.679-4.229a306.17 306.17 0 002.888-15.34c1.9-11.684 3.071-23.446 3.669-35.273.104-2.069 3.344-2.212 3.24-.13-1.015 19.868-3.773 39.515-8.327 58.888l5.387 6.675c1.314 1.627-1.445 3.357-2.733 1.744-1.899-2.355-3.812-4.723-5.712-7.078-22.795-1.705-44.472-10.67-67.463-10.604-2.082 0-2.225-3.24-.13-3.24 19.309-.052 37.498 6.271 56.378 9.342 3.487.572 6.232 1.301 8.327.924-7.534-9.342-15.093-18.672-22.77-27.935L91.883 314.12c-2.043-.455-1.3-3.617.742-3.161 21.455 4.749 42.911 9.511 64.366 14.26-16.225-19.452-32.892-38.526-50.535-56.638a190.704 190.704 0 01-29.666-2.706c-2.056-.351-1.314-3.513.742-3.162 8.51 1.457 17.058 2.277 25.671 2.537-10.943-11.072-22.25-21.767-34.076-31.942-9.876-.885-19.647-2.329-29.34-4.411-1.991-.403-1.263-3.565.78-3.123z" fill="#61BDA6"/><path d="M81.437 214.026c18.528 2.459 37.537 8.34 49.82 22.158-4.723-11.84-9.342-23.719-13.753-35.676-1.926.676-4.099.702-6.115.273-9.264-2.017-11.632-10.656-11.541-19.062.039-4.463.663-8.886 1.171-13.31.351-3.071-.391-18.736 6.57-13.193 3.331 2.654 5.868 6.167 8.679 9.316 4.306 4.827 7.559 10.435 8.6 16.407.781 4.462.325 9.147-1.86 13.857-.82 1.769-1.874 3.487-3.448 4.632-.065.052-.144.091-.209.13 5.14 13.909 10.566 27.727 16.108 41.505 0-.078-.013-.156-.013-.234-.416-5.621-.338-11.346 1.093-16.836 2.433-9.342 8.653-17.045 16.993-21.794.611-.351 1.574-.156 1.626.69.013.286 3.8 24.044-1.184 34.271-1.899 3.877-4.567 7.442-7.963 10.123-1.678 1.314-4.384 3.5-6.778 3.122 5.803 14.365 11.645 28.703 17.278 43.12 0-2.616.469-5.4.859-7.391 1.548-7.911 5.946-15.327 12.478-20.128 2.628-1.939 5.608-3.487 8.821-4.034 2.889 6.129 2.746 13.259 1.614 19.934-.625 3.669-1.561 7.39-3.708 10.448-1.965 2.797-4.867 4.853-8.041 6.115-2.355.924-6.974 2.368-9.616 1.249 6.792 17.591 13.22 35.312 18.854 53.294 1.405-4.268 4.554-7.807 8.262-10.344 3.721-2.55 8.002-4.177 12.295-5.543 2.863-.911 5.934-1.821 7.885-4.111-1.574 3.109-1.769 6.7-2.55 10.096a29.838 29.838 0 01-6.18 12.426c-1.991 2.368-4.424 4.463-7.339 5.543-3.344 1.236-7.247 1.392-9.888.091a529.804 529.804 0 015.556 20.011c4.788 18.723 8.366 37.733 10.396 56.95.143 1.314-1.9 1.574-2.03.26-2.993-28.403-9.498-55.974-17.891-83.037-.39 3.331-2.485 6.453-6.739 8.249-1.887.794-3.969 1.08-6.012 1.093-6.258.052-12.49-2.381-17.07-6.636-4.58-4.255-7.469-10.292-7.885-16.537-.052-.703.026-1.574.677-1.861.429-.195.923-.026 1.366.117 4.345 1.458 9.03 1.406 13.609 1.38 4.58-.039 9.277-.026 13.584 1.561a13.496 13.496 0 015.751 4.059c-5.074-15.574-10.708-30.992-16.628-46.319-1.132 1.912-4.073 3.031-5.946 3.682-9.225 3.226-19.777 2.459-28.43-2.095-8.652-4.541-15.275-12.79-17.838-22.223 9.576-2.915 20.076-2.694 29.535.611 6.272 2.199 12.049 5.738 16.889 10.292.78.742 2.004 1.783 3.149 2.941-5.882-15.015-11.971-29.952-17.969-44.85-7.468 12.283-26.959 8.653-38.019 2.784-13.427-7.143-22.34-21.689-17.955-36.977.117-.417.676-.651 1.08-.599z" fill="#EC7772"/><path d="M455.651 70.734c9.224-1.08 18.54-.195 27.817-.052a174.3 174.3 0 0049.768-6.454c-4.033 11.918-8.067 23.837-12.1 35.768-3.123 9.225-6.272 18.502-11.06 26.972a77.737 77.737 0 01-17.76 21.312c-14.807 12.374-35.13 18.932-53.918 14.521-16.42-3.864-31.37-16.303-35.326-33.075-7.546-31.994 24.032-55.635 52.579-58.992z" fill="#61BDA6"/><path d="M521.864 73.753c-13.103 5.048-26.244 10.11-39.047 15.912 2.303-4.19 4.97-8.119 8.119-11.762 1.197-1.392-.807-3.448-2.004-2.042-4.059 4.723-7.468 9.836-10.188 15.43-.052.105-.065.222-.091.326-5.712 2.68-11.345 5.504-16.862 8.588-7.95 4.436-16.056 9.368-23.329 15.184 3.448-10.67 7.39-21.156 11.918-31.435.729-1.666-1.717-3.15-2.459-1.47a338.581 338.581 0 00-13.597 36.392c-6.909 6.18-12.803 13.336-16.667 21.898-.755 1.665 1.704 3.148 2.459 1.47 1.691-3.76 3.799-7.234 6.206-10.474.026 0 .052.026.078.026 15.926 1.041 32.619.832 48.246 4.215 1.795.391 2.563-2.368.755-2.771-15.25-3.305-31.383-3.279-46.958-4.203 9.524-11.514 22.939-19.894 35.937-27.011.013 0 .026.013.039.013 14.742 1.522 30.108 2.004 44.42 5.998 1.783.495 2.538-2.264.755-2.771-13.115-3.656-27.063-4.424-40.66-5.66 17.266-9.043 35.495-16.095 53.658-23.095 1.718-.637 1.002-3.422-.728-2.758z" fill="#40967D"/><path d="M494.71 25.273c0-.351-.377-.638-.69-.677-14.351-2.069-29.782-1.678-41.857 6.05 7.417-9.68 14.755-19.425 21.846-29.353.599-.832-.663-1.808-1.262-.976-7.989 11.203-16.329 22.184-24.747 33.1.026-.051.039-.116.065-.168 1.496-4.112 2.641-8.393 2.732-12.79.156-7.482-2.875-14.547-8.093-19.855-.39-.39-1.145-.456-1.366.169-.078.208-7.898 17.149-6.323 25.827.598 3.292 1.834 6.519 3.812 9.238.976 1.34 2.537 3.539 4.411 3.76-7.352 9.498-14.729 18.983-21.976 28.56.546-1.952.78-4.138.911-5.7.52-6.231-1.21-12.698-5.075-17.655-1.548-1.991-3.448-3.787-5.738-4.866-3.448 3.968-4.84 9.316-5.399 14.546-.313 2.876-.391 5.855.572 8.574.885 2.498 2.602 4.645 4.71 6.259 1.562 1.184 4.71 3.24 6.922 2.953-8.769 11.697-17.305 23.577-25.294 35.82-.143-3.487-1.756-6.792-3.994-9.459-2.251-2.68-5.1-4.801-8.015-6.727-1.952-1.288-4.046-2.615-5.022-4.736.52 2.654-.091 5.374-.221 8.08a22.943 22.943 0 002.003 10.578c.989 2.186 2.368 4.268 4.307 5.686 2.238 1.626 5.113 2.563 7.364 2.147a399.948 399.948 0 00-8.366 13.766c-7.52 12.972-14.195 26.4-19.751 40.322-.377.949 1.08 1.574 1.47.624 8.21-20.571 18.88-39.788 30.837-58.225-.416 2.563.494 5.348 3.292 7.572 1.249.989 2.732 1.64 4.267 2.082 4.658 1.353 9.824.859 14.144-1.353 4.319-2.212 7.741-6.115 9.368-10.682.182-.508.312-1.171-.104-1.522-.274-.235-.69-.222-1.054-.196-3.552.183-7.039-.845-10.448-1.847-3.409-1.002-6.922-1.965-10.474-1.692-1.952.156-3.709.82-5.153 1.822 7.065-10.565 14.521-20.883 22.158-31.07.443 1.665 2.407 3.122 3.656 4.007 6.207 4.358 14.248 5.998 21.664 4.423 7.416-1.574 14.091-6.336 18.008-12.829-6.545-4.19-14.43-6.232-22.172-5.764-5.139.313-10.2 1.744-14.78 4.125-.742.39-1.874.91-2.967 1.535 7.547-9.98 15.236-19.842 22.861-29.704 2.992 10.747 18.307 12.14 27.792 10.083 11.502-2.537 21.208-11.514 21.169-23.862z" fill="#2A514A"/><path d="M181.401 354.638V143.024c0-18.671 15.132-33.803 33.803-33.803h400.264c15.796 0 28.599 12.803 28.599 28.598v216.819c0 18.671-15.132 33.803-33.803 33.803h-395.06c-18.671.013-33.803-15.132-33.803-33.803z" fill="#76A9B7"/><path d="M611.994 377.446H213.487c-11.814 0-21.39-9.576-21.39-21.39V141.618c0-11.814 9.576-21.39 21.39-21.39h398.494c11.814 0 21.39 9.576 21.39 21.39v214.438c.013 11.814-9.563 21.39-21.377 21.39z" fill="#E4F3F7"/><path d="M510.025 437.65H315.456a3.755 3.755 0 01-3.761-3.76 3.755 3.755 0 013.761-3.761h194.569a3.754 3.754 0 013.76 3.761c-.013 2.081-1.691 3.76-3.76 3.76z" fill="#76A9B7"/><path d="M511.105 430.129H314.376l16.771-41.675h163.187l16.771 41.675z" fill="#527480"/><path d="M613.908 168.344H211.575V361.17h402.333V168.344z" fill="#B4DFD5"/><path d="M613.908 140.032H211.575v28.52h402.333v-28.52z" fill="#E6E6CE"/><path d="M224.522 159.809a5.517 5.517 0 10-.001-11.033 5.517 5.517 0 00.001 11.033z" fill="#EC7772"/><path d="M250.414 154.292a5.52 5.52 0 00-5.516-5.517 5.52 5.52 0 00-5.517 5.517 5.52 5.52 0 005.517 5.517 5.52 5.52 0 005.516-5.517z" fill="#FDD17A"/><path d="M265.259 159.809a5.517 5.517 0 100-11.034 5.517 5.517 0 000 11.034z" fill="#61BDA6"/><path d="M354.242 264.445c1.327 1.718 1.991 3.773 1.991 6.193 0 3.578-1.484 6.363-4.437 8.328-2.954 1.964-7.248 2.953-12.855 2.953h-23.017v-40.894h21.846c5.451 0 9.563.976 12.347 2.914 2.785 1.952 4.177 4.541 4.177 7.768 0 1.913-.482 3.617-1.431 5.14-.95 1.522-2.368 2.745-4.229 3.682 2.42.897 4.294 2.199 5.608 3.916zm-24.76-13.792v6.076h6.427c2.993 0 4.502-1.014 4.502-3.031 0-2.03-1.496-3.032-4.502-3.032h-6.427v-.013zm12.855 18.398c0-2.147-1.523-3.214-4.554-3.214h-8.289v6.428h8.289c3.031 0 4.554-1.067 4.554-3.214zm36.263 2.576h-3.734v10.279h-13.779v-40.881h19.686c3.773 0 7.065.624 9.875 1.874 2.798 1.249 4.971 3.031 6.48 5.373 1.509 2.342 2.277 5.061 2.277 8.171 0 2.915-.664 5.465-1.991 7.651s-3.227 3.916-5.725 5.191l8.588 12.621h-14.716l-6.961-10.279zm5.491-18.723c-.937-.833-2.342-1.249-4.203-1.249h-5.022v9.576h5.022c1.874 0 3.266-.416 4.203-1.249.937-.833 1.405-2.017 1.405-3.539 0-1.522-.468-2.693-1.405-3.539z" fill="#fff"/><path d="M432.452 274.776h-15.535l-2.746 7.13h-14.013l17.878-40.881h13.544l17.878 40.881H435.21l-2.758-7.13zm-3.799-9.928l-3.969-10.278-3.968 10.278h7.937zm63.313-23.823v40.881h-11.333l-15.536-18.567v18.567H451.67v-40.881h11.333l15.535 18.567v-18.567h13.428zm6.648 0h20.155c4.554 0 8.574.833 12.061 2.485s6.193 4.021 8.119 7.091c1.926 3.071 2.888 6.701 2.888 10.864 0 4.164-.962 7.794-2.888 10.865-1.926 3.07-4.632 5.439-8.119 7.091-3.487 1.652-7.507 2.485-12.061 2.485h-20.155v-40.881zm19.569 30.134c2.954 0 5.322-.846 7.091-2.537 1.77-1.692 2.654-4.073 2.654-7.157 0-3.07-.884-5.464-2.654-7.156-1.769-1.691-4.137-2.537-7.091-2.537h-5.777v19.387h5.777z" fill="#fff"/><path d="M277.972 189.838h-47.66V330.19h47.66V189.838z" fill="#61BDA6"/><path d="M252.248 194.38h-17.916v17.916h17.916V194.38zm21.703 0h-17.917v17.916h17.917V194.38zm-21.703 23.107h-17.916v17.916h17.916v-17.916zm21.703 0h-17.917v17.916h17.917v-17.916zm-21.703 23.095h-17.916v17.916h17.916v-17.916zm21.703 0h-17.917v17.916h17.917v-17.916zm-21.703 23.108h-17.916v17.916h17.916V263.69zm21.703 0h-17.917v17.916h17.917V263.69zm-21.703 23.095h-17.916v17.917h17.916v-17.917zm21.703 0h-17.917v17.917h17.917v-17.917z" fill="#B4DFD5"/><path d="M563.071 307.069v1.952h-1.952" stroke="#1C1C38" stroke-linecap="round" stroke-linejoin="round"/><path d="M555.981 309.021H297.592" stroke="#1C1C38" stroke-linecap="round" stroke-linejoin="round" stroke-dasharray="2.96 3.95"/><path d="M295.015 309.021h-1.952v-1.952" stroke="#1C1C38" stroke-linecap="round" stroke-linejoin="round"/><path d="M293.063 301.67v-82.413" stroke="#1C1C38" stroke-linecap="round" stroke-linejoin="round" stroke-dasharray="3.12 4.15"/><path d="M293.063 216.55v-1.951h1.952" stroke="#1C1C38" stroke-linecap="round" stroke-linejoin="round"/><path d="M300.153 214.599h258.39" stroke="#1C1C38" stroke-linecap="round" stroke-linejoin="round" stroke-dasharray="2.96 3.95"/><path d="M561.119 214.599h1.952v1.951" stroke="#1C1C38" stroke-linecap="round" stroke-linejoin="round"/><path d="M563.071 221.963v82.413" stroke="#1C1C38" stroke-linecap="round" stroke-linejoin="round" stroke-dasharray="3.12 4.15"/><path d="M300.481 207.182h-14.833v14.832h14.833v-14.832zm270.008 0h-14.833v14.832h14.833v-14.832zm-270.008 94.422h-14.833v14.833h14.833v-14.833zm270.008 0h-14.833v14.833h14.833v-14.833z" fill="#1C1C38"/><path d="M563.073 189.838H294.626v6.558h268.447v-6.558zm0 137.139H294.626v6.558h268.447v-6.558z" fill="#61BDA6"/><path d="M632.708 135.802c-3.188-9.068-11.815-15.574-21.976-15.574h-3.305L350.195 377.459h40.868l241.645-241.657zm-187.661-15.587l-247.72 247.734c4.242 5.751 11.047 9.498 18.749 9.498h111.975l257.231-257.232H445.047zM192.761 268.27v70.651l218.718-218.706h-70.651L192.761 268.27z" opacity=".4" fill="#FAF9DD"/><path d="M241.319 287.553c3.722 1.392 7.599 2.277 11.463 3.161 6.805 1.549 13.61 3.097 20.415 4.658 1.795.404 3.682.82 5.465.365 2.602-.664 5.516-1.835 7.65-3.461 2.355-1.809 3.266-10.839 4.84-13.363.95-1.509 3.045-2.134 2.837-1.21-.299 1.353.663 15.08.325 16.446-.729 2.941-3.136 5.257-5.881 6.545-2.654 1.249-5.621 1.678-8.561 1.952-8.158.767-16.355.949-24.526.455-7.3-.442-14.807-.234-22.002-1.874-6.974-1.6-13.571-3.031-19.934-6.284-2.498-1.275-4.905-4.437-6.765-6.532-5.296-5.985 1.86-16.68 9.316-15.184 4.163.833 8.405 4.971 11.918 7.222 4.294 2.719 8.678 5.308 13.44 7.104z" fill="#E27E5A"/><path d="M185.02 551.823c0 1.913-1.523 3.552-3.279 4.281-1.757.742-3.708.781-5.608.794-14.585.169-29.145.338-43.717.494-4.932.052-10.006.091-14.664-1.561-.482-2.199-.247-4.372.286-6.532.924-3.747 2.772-7.481 3.448-11.32.781-4.319.078-8.769.273-13.154.013-.377.065-.82.378-1.041.221-.156.494-.182.767-.182 4.567-.156 9.121-.338 13.701-.468 1.457-.039 9.915-.026 10.24 1.092 1.223 4.19 4.307 7.586 7.651 10.396 3.356 2.798 7.078 5.153 10.239 8.171 1.393 1.315 2.707 2.785 4.45 3.566 2.811 1.262 6.05.494 9.121.585 2.069.052 4.385.859 5.686 2.329.637.69 1.028 1.548 1.028 2.55z" fill="#CE422C"/><path d="M185.02 551.823c0 1.913-1.523 3.552-3.279 4.281-1.757.742-3.708.781-5.608.794-14.585.169-29.145.338-43.717.494-4.932.052-10.006.091-14.664-1.561-.482-2.199-.247-4.372.286-6.532a4.394 4.394 0 011.575-.403c4.566-.351 10.07 1.34 14.689 1.717 4.879.404 9.863.95 14.755.95 11.71.638 23.823 1.223 34.922-2.329.65.729 1.041 1.588 1.041 2.589z" fill="#7F1D13"/><path d="M153.793 429.427c3.11 4.085 6.428 9.043 4.919 13.948-.664 2.16-2.199 3.929-3.605 5.699-15.47 19.269-21.065 44.42-26.217 68.595-.234 1.093-.416 2.355.299 3.201.495.572 1.262.78 1.991.962 4.411 1.093 8.821 2.186 13.219 3.279.794.195 1.627.391 2.433.221 2.342-.52 2.863-3.539 3.318-5.907.651-3.357 2.16-6.479 3.656-9.563 5.946-12.256 11.893-24.526 17.839-36.783 4.007-8.275 8.184-16.758 14.976-22.951 1.626-1.484 3.461-2.915 4.28-4.945.898-2.211.456-4.723-.078-7.052-2.303-9.966-6.037-19.542-9.758-29.08l-24.006-61.478c-.611-1.561-1.275-3.2-2.602-4.215-2.615-2.017-6.389-.755-9.316.768a77.563 77.563 0 00-25.671 21.416c-3.396 4.385-5.855 9.407-2.368 14.234 3.669 5.075 7.767 9.928 11.398 15.106a1145.932 1145.932 0 0025.293 34.545z" fill="#3B6472"/><path d="M61.323 507.351c.794 2.589.052 5.373-.377 8.054-.95 5.92-.274 11.957.403 17.929.377 3.344.78 6.753 2.043 9.875.91 2.251 2.277 4.307 3.148 6.571.482 1.236.794 2.576.794 3.89.013 1.119-.195 2.212-.728 3.201-1.21 2.303-3.93 3.539-6.532 3.526-2.602-.013-5.1-1.093-7.286-2.485-7.17-4.528-11.75-12.178-15.184-19.92-3.448-7.742-6.038-15.926-10.566-23.108-1.027-1.626-2.185-3.279-2.472-5.191-.286-1.913.65-4.177 2.538-4.632a27.402 27.402 0 002.693-.781c5.907-1.991 10.409-5.452 15.873-8.652 5.543-3.253 9.941 3.63 13.142 7.559 1.028 1.262 2.03 2.602 2.511 4.164z" fill="#CE422C"/><path d="M65.292 554.412c.676-.195 1.353-.494 2.03-.754.012 1.119-.196 2.212-.73 3.2-1.21 2.303-3.929 3.539-6.53 3.526-2.603-.013-5.101-1.093-7.287-2.485-7.17-4.528-11.75-12.178-15.184-19.92-3.448-7.742-6.037-15.926-10.565-23.108-1.028-1.626-2.186-3.279-2.472-5.191-.287-1.913.65-4.177 2.537-4.632a27.13 27.13 0 002.693-.781c.638 1.327.859 3.045 1.21 4.515 1.9 8.067 5.647 15.548 9.42 22.861 3.552 6.896 7.3 13.948 13.168 19.009 3.24 2.81 7.611 4.983 11.71 3.76z" fill="#7F1D13"/><path d="M148.12 326.079c1.145 1.743.364 4.059-.495 5.959-6.856 14.963-18.762 28.651-18.671 45.11.013 4.033.781 8.002 1.666 11.931.169.794.351 1.562.533 2.342 4.88 21.326 9.629 43.21 6.792 64.9-.273 2.108-.637 4.255-1.704 6.089-1.132 1.952-2.967 3.383-4.827 4.658-15.445 10.578-35.378 13.376-50.198 24.826-6.817 5.256-12.308 12.191-19.555 16.849a52.315 52.315 0 01-13.61-14.39c12.347-6.818 19.699-20.05 30.693-28.885 6.467-5.192 14.052-8.757 21.508-12.413 1.691-.832 3.526-1.821 4.215-3.578.456-1.145.339-2.433.169-3.656-1.99-15.548-8.157-30.186-13.96-44.758a385.518 385.518 0 01-4.021-10.448c-4.124-11.268-7.455-22.848-7.91-34.792-.261-6.961.572-14.013 2.68-20.675 1.86-5.92 4.736-11.684 8.834-16.394 4.138-4.775 7.403-4.658 13.402-4.06 14 1.405 27.792 4.476 41.05 9.199 1.288.482 2.667 1.028 3.409 2.186z" fill="#547989"/><path d="M203.365 314.408c3.227 2.081 6.623 3.942 10.318 4.983 8.067 2.264 16.641.429 24.838-1.288a769.254 769.254 0 0135.222-6.506c3.604-.572 7.286-1.132 10.864-.429 2.654.52 5.92 1.535 7.676-.521.768-.897 1.575-1.509 1.705-2.68.768-6.844.911-23.433 0-30.264-1.6.559-3.123 11.437-3.383 13.115-.26 1.666-.364 3.5-1.47 4.775-.547.625-1.275 1.041-1.874 1.614-.911.871-1.444 2.069-2.342 2.966-1.327 1.327-3.253 1.822-5.087 2.16-8.405 1.522-17.045.742-25.541-.169-8.744-.937-17.487-2.017-26.153-3.565-4.866-.872-9.914-1.965-13.779-5.061-4.319-3.474-6.479-8.874-9.511-13.519-.611-.937-1.301-1.887-2.29-2.407-1.158-.612-2.537-.573-3.838-.442-4.606.442-9.212 1.756-12.959 4.462-2.602 1.874-6.22 5.452-5.998 8.965.195 3.097 5.412 3.422 7.299 5.582 5.347 6.115 9.446 13.792 16.303 18.229z" fill="#F29D7E"/><path d="M152.764 254.426c-2.862 3.813-5.738 7.638-8.6 11.45-3.279 4.372-6.571 8.744-10.084 12.933a150.78 150.78 0 01-40.035 33.556c-1.536.885-3.227 1.9-3.734 3.604-.52 1.705.338 3.513 1.197 5.075 10.213 18.359 25.996 33.165 43.509 44.771 1.418.937 2.967 1.887 4.658 1.796 1.678-.091 3.11-1.197 4.398-2.277a176.346 176.346 0 0033.413-37.095c4.033-5.998 7.871-12.452 13.87-16.485 2.016-1.353 4.592-3.201 3.89-5.53-.195-.625-.612-1.158-1.028-1.665a236.232 236.232 0 00-11.424-13.064c5.66-1.392 8.366-8.301 13.818-10.37 3.864-1.457 8.639.117 10.864 3.591 1.809-4.111 5.153-7.533 9.225-9.433a147.47 147.47 0 00-7.416-12.009c-3.201-4.671-6.701-9.212-11.021-12.881-7.533-6.402-17.474-10.045-27.245-11.177-9.29-1.067-13.376 8.705-18.255 15.21z" fill="#E289A9"/><path d="M191.395 233.959c-2.134 3.084-4.853 5.712-7.546 8.315 2.446 1.158 4.983 2.394 6.674 4.515 3.865 4.84 2.108 12.698 6.376 17.187-.299-1.691.95-3.226 2.108-4.502l6.518-7.143c1.392-1.535 2.889-3.122 4.853-3.799 1.796-.611 3.748-.377 5.621-.13-3.799-7.26-7.676-14.638-13.44-20.454-1.484-1.496-4.958-5.022-7.143-2.81-.989 1.002-1.08 3.149-1.601 4.424-.637 1.561-1.47 3.018-2.42 4.397z" fill="#E27E5A"/><path d="M224.184 197.281c1.691 2.745 5.139 9.889 5.087 12.114-.052 2.446-.611 2.81-.598 5.243.013 4.177 3.968 5.374 5.113 9.784 0 1.132-2.03 1.315-3.227 1.419-.455.039-.937.091-1.288.377-1.119.911.156 2.784-.351 4.138-.664 1.756-3.656 1.301-4.593 2.927-.612 1.054-.013 2.381.689 3.383.69 1.002 1.523 2.082 1.354 3.292-.222 1.6-2.147 2.706-1.978 4.307.091.91.546 1.964.13 2.771-.664 1.314-1.496 1.665-3.019 2.199-2.511.859-8.795-1.132-10.825-2.824-8.067-6.726-12.647-12.62-12.269-14.117.273-1.093 1.535-1.925 1.301-3.018-.274-1.262-2.056-1.262-3.162-1.926-1.002-.612-1.418-1.835-1.77-2.967-.364-1.184-.715-2.368-1.08-3.539-.442-1.457-.897-2.953-.754-4.462.13-1.51.989-3.071 2.433-3.566 1.158-.403 2.472-.026 3.487.664 1.015.703 1.782 1.691 2.537 2.654a76.594 76.594 0 004.645-5.647c.26-.351.534-.728.625-1.158.104-.507-.052-1.04-.196-1.535a34.942 34.942 0 01-1.223-6.089c-.169-1.509-.234-3.071.287-4.502 1.145-3.136 4.905-4.671 8.223-4.346 3.318.326 6.31 2.082 9.173 3.8a6.01 6.01 0 011.249.624z" fill="#F29D7E"/><path d="M198.096 216.759c1.822-1.171 3.63-.144 4.632 1.249.326.455.768.95 1.314.884.456-.052.768-.468 1.015-.845 1.458-2.16.234-3.331 1.705-5.491.429-.638 3.018-2.771 3.747-3.019 13.987-4.606 15.561-8.626 15.548-8.925-.078-1.458-1.483-7.742-8.47-11.71-4.242-2.407-10.344-5.166-20.271-4.489-3.591.247-7.534 2.433-10.917 3.682-1.795-1.952-3.877-4.047-6.531-4.229-1.913-.13-3.735.794-5.387 1.77-3.734 2.238-7.338 5.178-8.835 9.264-2.498 6.766 1.471 14.273.612 21.442-.273 2.329-1.041 4.762-.143 6.922.767 1.835 2.589 3.019 3.5 4.788 1.171 2.264.65 5.01 1.145 7.508.559 2.81 2.524 5.295 5.126 6.505 2.759 1.289 6.363 1.341 8.132 3.826 1.405 1.964 1.028 4.645 1.536 7a9.208 9.208 0 004.02 5.751c.716.455 1.509.819 2.134 1.392 1.431 1.301 1.73 3.396 2.173 5.282.442 1.887 1.366 3.969 3.239 4.489 1.77.482 3.67-.793 4.372-2.485.703-1.691-.169-9.966-.208-11.255-.091-3.773-5.647-15.093-5.946-18.423-.182-2.069-1.418-4.203-.56-6.09.235-.52.625-.962.872-1.483.768-1.6.117-3.474-.117-5.243-.442-3.409 2.563-8.067 2.563-8.067z" fill="#1B4E61"/><path d="M612.149 354.938c-8.028 24.123-9.654 49.82-11.215 75.192l-.976 15.848c-.13 2.212-.273 4.449.156 6.622.416 2.147 1.353 4.138 2.082 6.194 2.68 7.546 2.524 15.769 2.329 23.771-.378 15.653-.768 31.344-3.006 46.827a193.668 193.668 0 01-2.472 13.623c-.273 1.249-.533 2.628.091 3.734.638 1.119 1.991 1.588 3.227 1.965 3.955 1.21 7.924 2.433 11.879 3.643 3.591 1.106 8.249 1.874 10.448-1.171 3.461-4.801-4.085-11.697-1.444-17.005.559-1.132 1.548-2.017 2.134-3.136.572-1.106.728-2.381.871-3.617 1.197-10.448 2.394-20.896 3.592-31.331.91-7.924 1.808-15.9 1.184-23.85-.365-4.671-1.263-9.303-1.341-13.987-.221-13.44 6.246-25.957 12.465-37.875 2.915-5.569 5.829-11.255 7.039-17.435 1.314-6.74.508-13.688-.299-20.506l-3.357-28.377c-.377-3.162-.781-6.415-2.368-9.173-3.604-6.233-12.621-8.262-19.348-7.729-8.301.664-9.407 10.942-11.671 17.773z" fill="#B94A5B"/><path d="M627.931 364.371c2.563 8.327 6.792 16.043 10.122 24.097 6.207 15.054 9.16 31.214 12.582 47.139 1.392 6.506 2.876 13.025 5.283 19.231 2.251 5.816 5.295 11.333 7.169 17.292 2.368 7.546 2.771 15.561 2.758 23.472 0 17.786-1.938 35.573-5.751 52.943 7.638 1.873 15.263 3.734 22.9 5.607-2.303-8.288-.494-17.083.82-25.58 2.654-17.213 3.175-34.661 3.708-52.07.104-3.474.208-6.987-.39-10.422-1.028-5.908-4.073-11.281-5.491-17.11-1.535-6.246-1.158-12.777-.781-19.205.625-10.552 1.262-21.117 1.887-31.669.208-3.578.429-7.195 1.392-10.656.924-3.318 2.511-6.415 3.617-9.667 2.733-8.028 2.511-16.733 1.731-25.177-.195-2.056-.456-4.229-1.692-5.881-1.509-2.004-4.111-2.798-6.531-3.474-13.623-3.786-27.844-7.677-42.118-6.402-6.219.56-10.448.651-12.516 6.714-2.199 6.376-.625 14.573 1.301 20.818z" fill="#E8605C"/><path d="M625.798 564.874c-.169 1.613-1.523 2.914-3.045 3.487-1.522.585-3.188.598-4.814.598-2.329-.013-4.645-.013-6.974-.013-6.037-.013-12.074-.013-18.112.391-10.708.728-21.832 2.706-31.903-1.054-.443-.17-.885-.339-1.236-.651-.651-.572-.872-1.535-.742-2.381.13-.859.56-1.626 1.171-2.251.312-.338.677-.65 1.067-.898 1.106-.728 2.394-1.119 3.669-1.47a95.925 95.925 0 019.928-2.199c.598-.091 1.197-.195 1.73-.455.755-.378 1.314-1.028 1.939-1.588 1.314-1.171 2.927-1.925 4.45-2.797 4.346-2.524 7.963-6.115 11.684-9.472 1.275-1.145 4.098-3.253 4.892-.82.325 1.002.039 1.731.82 2.628.806.95 2.16 1.536 3.292 2.004 4.371 1.809 8.821 3.656 13.531 4.047 2.42.195 4.853 0 7.273-.196-.143 3.266-.26 6.61.703 9.733.156.507.338 1.028.482 1.535.156.586.26 1.197.195 1.822z" fill="#F8F8DC"/><path d="M625.798 564.874c-.169 1.613-1.523 2.914-3.045 3.487-1.522.585-3.188.598-4.814.598-2.329-.013-4.645-.013-6.974-.013-6.037-.013-12.074-.013-18.112.39-10.708.729-21.832 2.707-31.903-1.053-.443-.17-.885-.339-1.236-.651-.651-.573-.872-1.535-.742-2.381.13-.859.56-1.626 1.171-2.251.208.989-.39 2.004 1.093 2.849 1.093.625 2.42.625 3.682.625 16.538-.182 33.075-.351 49.612-.533 2.199-.027 4.424-.053 6.558-.638a12.775 12.775 0 004.358-2.16c.039-.039.091-.065.13-.104.183.599.287 1.21.222 1.835z" fill="#65BDA5"/><path d="M683.54 566.747c-.039.729-.208 1.497-.702 2.043-.339.391-.794.638-1.25.885-2.211 1.197-4.423 2.381-6.622 3.578-2.16 1.171-4.333 2.342-6.688 3.045-1.626.481-3.318.728-4.996.976-3.396.507-6.805 1.014-10.227.975a32.735 32.735 0 01-10.604-1.886c-.625-.221-1.314-.534-1.588-1.145-.208-.456-.104-1.002.013-1.484a12.28 12.28 0 01.599-1.756 12.766 12.766 0 013.461-4.788c1.444-1.249 3.188-2.199 4.255-3.773.559-.833.923-1.783 1.509-2.59.507-.676 1.171-1.223 1.808-1.808 2.381-2.225 3.878-4.866 4.762-7.963.781-2.758 2.837-4.879 5.882-5.113 1.275-.092 2.55.182 3.786.52 2.238.624 4.489 1.496 6.115 3.162.573.585 1.067 1.262 1.718 1.756 1.262.95 2.94 1.067 4.501 1.236.404.039.833.104 1.132.378.287.26.404.676.508 1.054.65 2.654 1.314 5.308 1.978 7.962.195.807.403 1.614.533 2.446.104.742.169 1.51.117 2.29z" fill="#F8F8DC"/><path d="M683.54 566.747c-.039.729-.208 1.497-.702 2.043-.339.391-.794.638-1.25.885-2.211 1.197-4.423 2.381-6.622 3.578-2.16 1.171-4.333 2.342-6.688 3.045-1.626.481-3.318.728-4.996.976-3.396.507-6.805 1.014-10.227.975a32.735 32.735 0 01-10.604-1.886c-.625-.221-1.314-.534-1.588-1.145-.208-.456-.104-1.002.013-1.484a12.28 12.28 0 01.599-1.756c.273.091.533.208.781.286 1.925.703 3.734 1.171 5.777 1.379 4.723.469 9.472.937 14.208.573 4.736-.377 9.498-1.614 13.388-4.32 2.59-1.808 4.932-4.281 7.755-5.478.143.781.208 1.549.156 2.329z" fill="#65BDA5"/><path d="M599.711 261.414c-3.37 1.783-6.818 3.409-10.123 5.322-9.537 5.555-18.046 13.635-28.884 15.704-3.175.612-6.61.625-9.499-.807-1.925-.949-3.604-2.537-5.725-2.888-5.438-.911-2.667 4.125-3.37 6.245-1.105 3.396-4.918 4.541-6.323 7.625-1.743 3.812 1.132 8.171 4.099 10.539 2.355 1.887 5.555 2.823 8.483 2.108 5.907-1.431 10.877-6.311 16.992-8.054 6.532-1.861 13.298-2.667 19.895-4.242 11.137-2.654 22.301-5.321 33.191-8.899 4.385-1.445 8.783-3.058 12.478-5.803 2.368-1.757 4.385-3.917 6.401-6.064l6.025-6.453c.364-.391.741-.833.741-1.353 0-.599-.481-1.067-.937-1.471a167.025 167.025 0 00-13.856-10.929c-5.127-3.617-8.08-4.749-13.038-1.015-5.217 3.916-10.786 7.39-16.55 10.435z" fill="#F29D7E"/><path d="M582.615 206.533c-3.083-5.53-7.507-10.813-13.609-12.478-1.77-.482-4.177-.325-4.788 1.405-.482 1.34.494 2.771 1.626 3.643 1.132.872 2.485 1.51 3.292 2.694.13.195.247.403.26.637.026.468-.364.833-.716 1.145-2.094 1.796-4.28 3.708-5.191 6.31-1.678 4.802 1.496 9.824 4.515 13.909 1.379 1.874 2.862 3.826 5.009 4.698 1.757.715 3.773.611 5.53 1.366 1.704.741 2.966 2.225 4.059 3.721 3.24 4.463 5.543 9.524 8.575 14.13 4.228 6.415 9.81 11.827 15.73 16.719 9.915 8.197 21.586 15.315 34.428 15.796 11.84.442 23.069-4.762 33.764-9.862.95-.456 1.939-.937 2.589-1.77.456-.585.703-1.301.924-2.017 1.691-5.386 2.238-11.28.56-16.667-1.679-5.387-5.856-10.175-11.294-11.671-7.495-2.069-15.08 2.173-22.458 4.606-5.568 1.847-11.527 2.693-17.356 2.03-8.002-.898-15.328-4.567-21.794-9.199-6.102-4.372-13.35-9.759-17.136-16.316-2.394-4.164-4.177-8.64-6.519-12.829z" fill="#FFBDA9"/><path d="M620.452 242.847a63.243 63.243 0 0114.013 6.922c.768.507 1.574 1.041 2.485 1.145 1.093.13 2.147-.391 3.136-.898 6.232-3.188 12.464-6.388 18.697-9.576 1.08-.56 2.225-1.119 3.435-1.067.976.052 1.886.494 2.732.989 8.366 4.827 13.61 14.598 13.024 24.24-.065 1.053-.208 2.146-.793 3.031-.898 1.34-2.577 1.861-4.125 2.29-8.418 2.316-16.849 4.645-25.268 6.961-2.641.729-5.399 1.457-8.093.989-2.667-.468-5.191-2.095-7.884-1.796a171.263 171.263 0 00-5.361 16.98c-.442 1.705-.859 3.435-.846 5.192.013 1.782.469 3.539.612 5.321 1.028 12.92-14.013 22.601-13.948 35.56 19.517 3.122 39.476 2.368 59.019 5.295 7.26 1.093 14.676 2.785 20.596 7.143-1.964-5.816-1.184-12.165-.338-18.241 2.329-16.941 4.892-33.933 10.136-50.211 2.888-8.977 6.596-17.708 8.86-26.868 2.264-9.16 3.032-18.97.026-27.922-3.005-8.951-10.356-16.81-19.633-18.502-11.32-2.068-20.87 4.893-31.188 8.028-5.465 1.666-10.878 2.459-15.653 5.816-4.033 2.837-7.338 6.545-10.812 10.006-1.952 1.913-9.667 10.279-12.829 9.173z" fill="#E4F3F7"/><path d="M663.7 219.986c-.689 1.886-1.613 3.708-2.16 5.634-.247.871-.234 2.094.625 2.342.572.169 1.132-.235 1.587-.612 9.655-7.768 21.599-11.996 33.296-16.082-3.097-1.613-4.294-5.347-5.218-8.717-.806-2.941-1.626-5.907-1.782-8.952-.078-1.34-.013-2.706-.247-4.033-.222-1.276-.716-2.486-1.197-3.696-.209-.507-.43-1.041-.872-1.366-.391-.273-.885-.351-1.366-.364-2.329-.052-4.502 1.119-6.48 2.355a84.164 84.164 0 00-9.928 7.182c-3.356 2.823-6.7 6.363-5.698 10.982 1.119 5.204 1.288 10.239-.56 15.327z" fill="#F29D7E"/><path d="M642.257 184.921c-.39 2.836-2.472 5.529-1.692 8.275.976 0 1.952 0 2.915.013l3.045 5.347c.936 1.653 2.966 3.513 4.371 2.251-1.327 2.381.378 5.543 2.837 6.753 2.446 1.197 5.334 1.002 8.054.768.91-.078 1.873-.182 2.576-.742.689-.546 1.002-1.418 1.314-2.238 3.357-8.678 10.773-15.691 19.634-18.567.559-.182 1.197-.416 1.379-.976.13-.403-.039-.845-.195-1.236-.924-2.238-1.848-4.489-2.771-6.726-1.119-2.694-2.785-5.817-5.686-6.012.741-2.498-1.262-5.048-3.578-6.245-2.316-1.184-4.997-1.535-7.339-2.667-2.901-1.406-5.1-3.891-7.52-6.025-6.48-5.711-15.119-3.851-18.567 4.333-1.119 2.667-.911 5.907-.924 8.744-.052 4.983 2.81 10.148 2.147 14.95z" fill="#FFBDA9"/><path d="M630.769 157.558c.221 3.435 2.876 6.74 6.311 7.143 4.84.56 8.704-4.202 13.518-4.97.729-.117 1.523-.13 2.173.234.586.325.963.924 1.249 1.522 1.574 3.344.82 7.56 2.876 10.631.923 1.366 2.329 2.394 3.07 3.864.742 1.457.742 3.201 1.484 4.658.754 1.444 2.94 2.407 3.968 1.132-.494-2.277-.807-4.632-.351-6.909.455-2.277 1.808-4.476 3.903-5.478 2.095-1.015 4.944-.533 6.245 1.392 1.484 2.186.651 5.335 2.03 7.586.859 1.392 2.433 2.199 3.435 3.5.95 1.236 1.327 2.849 2.303 4.072 1.431 1.822 4.151 2.473 6.258 1.51-.234-2.98-.468-5.972-.234-8.939.352-4.359 1.692-8.574 2.511-12.868.833-4.294 1.119-8.887-.559-12.92-2.329-5.582-8.587-9.251-14.586-8.535-.013-1.692-1.158-3.227-2.602-4.112-1.444-.885-3.162-1.21-4.84-1.418-8.015-1.015-16.277.351-23.602 3.734-5.842 2.68-15.041 7.559-14.56 15.171z" fill="#1B4E61"/><path d="M525.979 307.935v219.759h38.239V307.935h-38.239z" fill="#EC7772"/><path d="M564.217 307.928v-3.461c0-10.565-8.562-19.126-19.127-19.126s-19.126 8.561-19.126 19.126v3.461h38.253z" fill="#B94A5B"/><path d="M525.979 307.935v219.759h12.842V307.935h-12.842z" fill="#DD5858"/><path d="M538.82 307.935v219.759h12.556V307.935H538.82z" fill="#F98A8A"/><path d="M564.216 527.687h-38.239l19.985 32.125 18.254-32.125z" fill="#CE422C"/><path d="M525.972 307.929v5.322h38.24v-5.322h-38.24z" fill="#FDD17A"/><path d="M486.346 532.008c2.511.286 5.035.013 7.546-.26l8.301-.898c1.341-.143 2.72-.286 4.008.104 1.288.39 2.459 1.47 2.537 2.81.091 1.809-1.665 3.084-3.266 3.943-6.596 3.513-14.13 5.803-21.507 4.671-3.344-.508-6.792-1.887-8.64-4.723-1.418-2.173-1.756-7.209 1.21-8.484 1.575-.689 2.876.573 4.255 1.223a17.596 17.596 0 005.556 1.614z" fill="#0F0F23"/><path d="M493.008 537.199c4.866.104 9.798.208 14.508-1.041 1.964-.52 3.89-1.288 5.907-1.483 2.03-.195 4.254.299 5.556 1.873 1.392 1.679 1.34 4.203.416 6.181-.924 1.977-2.563 3.513-4.216 4.931-9.016 7.742-20.063 13.74-31.929 14.299-3.24.156-6.571-.091-9.642.911-3.526 1.145-6.869 3.903-10.487 3.071-1.262-.286-2.381-1.002-3.461-1.705-.689-.442-1.444-.976-1.639-1.782-.208-.898.338-1.77.833-2.537 2.654-4.203 4.215-8.978 5.686-13.727.858-2.798 1.717-5.66 3.292-8.132 1.158-1.835 2.836-3.591 4.866-4.476 2.342-1.015 3.591.598 5.751 1.483 4.567 1.887 9.667 2.017 14.559 2.134z" fill="#1C1C38"/><path d="M438.595 508.652c3.266 1.835 6.558 3.617 9.967 5.14 9.966 4.45 21.065 6.713 29.86 13.167l-3.981 8.236c-.885 1.835-1.978 3.838-3.929 4.424-1.575.468-3.253-.156-4.776-.768-10.747-4.306-21.494-8.613-32.254-12.92-22.21-8.9-44.447-17.812-66.071-28.052-3.058-1.444-6.167-2.967-8.535-5.374-2.369-2.42-3.891-5.933-3.058-9.212 1.197-4.71 6.401-7 10.968-8.639 2.459-.885 4.346-2.03 6.818-1.431 2.433.585 4.944 2.108 7.221 3.148 4.854 2.225 9.616 4.645 14.326 7.17 9.524 5.113 18.775 10.695 28.065 16.199 5.113 3.018 10.214 6.011 15.379 8.912z" fill="#165260"/><path d="M460.116 562.505c-1.575 2.499-8.809-4.41-11.346-5.347-7.56-2.798-15.158-6.571-23.199-9.863-16.186-6.648-32.385-13.297-48.571-19.946-4.515-1.847-9.199-3.734-14.065-3.526-5.478.234-10.448 3.071-15.184 5.829a75242.936 75242.936 0 00-43.47 25.385c-6.961 4.06-14 8.158-21.742 10.409-5.478 1.587-11.177 2.212-16.863 2.732-5.516.508-11.215.911-16.472-.819-6.102-2.004-10.929-6.636-15.535-11.125-1.119-1.093-2.303-2.316-2.42-3.864-.091-1.093.377-2.147.845-3.136a137.99 137.99 0 0110.383-18.242c1.536-2.264 3.149-4.515 5.244-6.284 2.602-2.212 5.79-3.565 8.939-4.892 10.916-4.619 20.401-11.671 31.669-15.393 17.656-5.829 37.732-7.091 53.814-16.433 5.751-3.344 11.632-7.52 18.281-7.221 4.502.208 8.613 2.485 12.543 4.697 14.52 8.21 29.054 16.42 43.574 24.617 8.874 5.01 17.969 10.11 28.026 11.828 6.727 1.145 17.292 5.855 25.684 8.704 7.807 2.615-6.258 25.723-10.135 31.89z" fill="#1A5A6B"/><path d="M282.863 479.377c.131 1.548.313 3.174 1.198 4.463 1.275 1.847 3.682 2.511 5.907 2.719 3.955.377 7.936-.247 11.866-.872-.898 2.602-3.123 4.489-5.374 6.076-3.162 2.225-6.622 4.099-10.383 4.997-2.966.702-6.414.663-8.665-1.379-1.184-1.08-1.887-2.577-2.524-4.047-4.346-10.032-6.909-21.143-5.127-31.929.534-3.227 1.536-6.545 3.878-8.835 2.264-2.225 9.329-4.099 9.524.768.117 2.823-.508 5.829-.651 8.665a151.354 151.354 0 00-.156 9.082 151.9 151.9 0 00.507 10.292zm34.637 1.379c1.718-1.171 3.617-2.173 5.686-2.381 2.719-.273 5.517.859 8.158.156.898-.234 1.744-.69 2.667-.82 1.497-.221 2.967.417 4.346 1.028.299.13.625.299.755.599.221.559-.365 1.093-.872 1.405a79.585 79.585 0 01-20.493 8.926c-2.225.611-5.113-.417-5.321-3.11-.208-2.459 3.331-4.606 5.074-5.803z" fill="#F39E81"/><path d="M249.672 523.562c-3.604 5.777-7.209 11.567-11.424 16.902-1.952 2.472-4.06 4.892-5.283 7.794-.832 1.964-1.548 4.423-3.604 4.983-1.145.312-2.355-.117-3.422-.625a21.586 21.586 0 01-7.013-5.308c-1.366-1.562-2.498-3.331-3.838-4.905-1.457-1.718-3.149-3.227-4.424-5.062-1.34-1.925-2.173-4.163-2.888-6.401a74.025 74.025 0 01-3.331-26.934c.026-.455.091-.962.442-1.262.273-.234.664-.26 1.015-.273 1.809-.052 3.617.182 5.4.482a82.014 82.014 0 0122.249 7.065c4.176 2.016 8.171 4.397 12.152 6.765 1.471.872 3.526 1.666 4.775 2.837 1.523 1.405.3 2.173-.806 3.942z" fill="#FDD17A"/><path d="M202.831 506.544c.755 5.998 1.978 12.621 6.792 16.277 3.968 3.019 9.342 3.188 14.325 3.227 5.283.052 10.604.091 15.822-.742 5.009-.806 9.875-2.407 14.585-4.28 14.807-5.869 28.43-14.378 42.95-20.948 9.446-4.281 19.374-7.794 27.987-13.48 1.158-.768.703-2.563-.676-2.706l-9.316-.95c-1.627-.169-3.266-.339-4.905-.195-2.525.208-4.932 1.132-7.3 2.042-3.266 1.249-6.531 2.512-9.628 4.112-2.81 1.457-5.504 3.201-8.522 4.15-2.264.716-4.645.95-7.013 1.158a465.47 465.47 0 01-34.61 1.848c-1.757.026-3.578.039-5.205-.637-3.89-1.627-5.243-6.415-5.516-10.618-.313-4.944.195-9.927-.326-14.845-.507-4.932-2.238-10.019-6.076-13.142-3.266-2.654-7.703-3.552-11.905-3.161-4.866.455-10.37 1.613-13.636 5.568-3.136 3.8-1.288 5.088-1.34 10.5-.052 5.582 1.08 12.361 1.548 17.93a438.583 438.583 0 001.965 18.892z" fill="#F5B7A0"/><path d="M270.334 415.101c2.329 1.158 4.697 2.355 6.505 4.216 2.433 2.485 3.63 5.907 4.58 9.251a91.098 91.098 0 013.344 21.976c-2.316.403-4.632.806-6.948 1.223-.481.078-1.002.195-1.314.559-.286.338-.325.807-.364 1.236a88.405 88.405 0 002.498 27.844c.872 3.422 1.951 6.831 1.991 10.357 0 .56-.027 1.145-.287 1.627-.663 1.21-2.342 1.249-3.708 1.249-6.922-.013-13.493 2.836-20.258 4.345a53.608 53.608 0 01-21.729.326c-1.236-.235-2.511-.547-3.448-1.38-1.288-1.158-1.613-3.018-1.848-4.736a380.021 380.021 0 01-2.914-30.524c-.039-.624-.091-1.301-.521-1.756-.442-.482-1.171-.573-1.821-.625-4.489-.403-9.056-.794-13.467.169-4.411.95-8.704 3.474-10.669 7.534-.39.793-1.106 1.821-1.9 1.418-.494-.247-.572-.911-.585-1.47-.117-4.138-.221-8.262-.338-12.4-.104-3.591-.196-7.182.156-10.747.976-9.759 5.504-19.127 12.53-25.971 2.901-2.823 6.193-5.23 9.003-8.145 2.316-2.407 4.476-5.295 7.69-6.245 2.251-.664 4.671-.26 6.987.169 6.935 1.288 13.857 3.162 20.818 4.19 5.92.858 10.63 3.604 16.017 6.31z" fill="#FDD17A"/><path d="M260.654 350.774c.39.768.637 1.588 1.015 2.368.806 1.653 2.237 2.98 3.864 3.839 1.106.585 2.329.976 3.318 1.756.989.781 1.691 2.108 1.249 3.279-.521 1.379-2.472 2.394-1.939 3.773.169.43.534.716.872 1.028 1.535 1.405 2.446 3.474 2.459 5.556.013.872-.117 1.809.364 2.537.248.365.625.625.95.924 1.926 1.756 1.848 5.23-.13 6.909-1.21 1.015-2.836 1.353-4.385 1.6-6.232 1.002-12.66 1.249-18.541 3.539-1.587.612-3.253 1.393-4.905 1.028-3.383-.741-4.905-5.777-8.366-5.673-1.184.039-2.251.729-3.422.963-1.848.377-3.799-.416-5.179-1.717-1.379-1.288-2.277-3.006-3.031-4.749-1.015-2.355-1.822-4.893-1.574-7.456.234-2.55 1.704-5.126 4.111-6.037 1.054-.403 2.199-.468 3.292-.729 4.528-1.08 7.546-5.243 10.162-9.094 2.303-3.383 5.529-8.158 9.914-8.952 3.357-.612 8.379 2.342 9.902 5.308z" fill="#F5B7A0"/><path d="M262.449 389.288c-1.717 2.771-2.602 5.972-3.461 9.108-1.275 4.632-2.55 9.29-2.901 14.078-.091 1.288-.156 2.68-.976 3.669-1.041 1.262-2.979 1.431-4.515.872-1.535-.547-2.797-1.653-4.111-2.642-6.116-4.566-13.701-6.583-20.87-9.211-.599-.222-1.314-.599-1.301-1.237 3.357-.897 7.208-2.211 8.353-5.503.494-1.392.377-2.928.26-4.398-.286-3.656-.572-7.299-.846-10.955-.039-.508-.078-1.028.13-1.497.378-.872 1.432-1.21 2.368-1.366 4.932-.82 9.928.625 14.911.937 5.79.364 11.71-.794 17.37.481.625.143 2.863.612 2.902 1.484.039.858-1.926 1.184-2.563 1.535-1.978 1.054-3.592 2.758-4.75 4.645z" fill="#F39E81"/><path d="M250.323 332.91c3.5-.768 7.403 1.405 8.6 4.788.364 1.015.494 2.108.612 3.188.182 1.704.325 3.461-.104 5.113-.43 1.665-1.51 3.253-3.123 3.825-1.054.378-2.316.339-3.175 1.067-.898.755-1.028 2.043-1.405 3.149-.82 2.459-3.123 4.359-5.699 4.684-.781.104-1.678.117-2.16.729-.325.416-.364.975-.455 1.496-.339 1.847-1.731 3.474-3.5 4.085-.911.313-1.887.391-2.798.729-.911.338-1.782 1.041-1.86 2.004-.117 1.249 1.067 2.16 1.964 3.031.898.872 1.588 2.446.638 3.253-.716.599-1.835.234-2.602-.286-.768-.521-1.549-1.223-2.485-1.223-1.08-.013-1.952.911-2.408 1.886-.949 2.004-.702 4.515.612 6.298.429.585.963 1.106 1.249 1.769.664 1.575-.195 3.67.95 4.945.481.533 1.249.819 1.561 1.47.365.768-.078 1.704.169 2.511.196.625.742 1.054 1.171 1.535 1.783 2.03 1.223 5.634-1.106 7.013-.442.261-.923.456-1.288.807-.351.338-.572.807-.884 1.197-1.393 1.744-4.086 2.993-6.259 2.459-2.641 3.136-8.158 1.484-10.773-1.665-.403-.495-.768-1.054-1.327-1.379-.378-.209-.794-.3-1.21-.417-3.839-1.093-6.272-5.699-5.01-9.485-3.877-1.327-6.492-5.139-7.468-9.121-.377-1.535-.533-3.214.052-4.684.143-.364.338-.715.325-1.106 0-.52-.351-.963-.65-1.379a16.852 16.852 0 01-3.266-9.875c0-1.523.221-3.084 1.015-4.385.793-1.301 2.238-2.277 3.76-2.173.195-2.693-.898-5.413-.312-8.054.793-3.669 5.204-6.063 8.717-4.749-.728-2.394-.065-5.153 1.666-6.948 1.73-1.796 4.463-2.563 6.883-1.926-.078-1.548 1.171-2.914 2.628-3.448 1.457-.533 3.058-.429 4.593-.273.143-2.225 1.574-4.32 3.578-5.269 2.017-.95 4.541-.729 6.349.572-.221-.156 3.422-1.457 3.852-1.47 1.288-.039 2.732.221 4.007.403 3.279.443 4.905 2.498 6.376 5.309z" fill="#E8605C"/><path d="M402.828 408.206l-32.971 4.918-31.135 65.212 35.208-9.928 28.898-60.202z" fill="#0B3A47"/><path d="M373.93 468.409l.351 5.321-85.445 38.11-3.643-5.842 53.281-25.658.247-2.004 35.209-9.927z" fill="#547989"/></svg>