<svg width="984" height="640" fill="none" xmlns="http://www.w3.org/2000/svg"><path d="M836.557 85.948c60.358 19.065 111.576 68.979 127.194 130.732 13.22 52.293-3.643 102.334 1.618 154.163 4.491 44.256 12.455 81.391-.693 126.646-6.387 21.982-15.837 43.345-30.156 61.201-78.128 97.443-244.54 64.233-354.857 60.855-92.223-2.822-188.846-1.081-280.176-16.024-58.935-9.646-278.804-62.829-139.329-133.868-5.894 3-57.627-71.134-61.365-76.514-35.18-50.592-67.761-108.543-76.145-170.506C-.879 48.813 196.428-30.632 340.224 10.779a275.474 275.474 0 0125.752 8.803c44.371 17.693 84.506 45.56 130.175 60.007 46.892 14.834 114.156 21.613 163.103 18.372 37.71-2.494 73.815-16.931 111.493-19.863 22.302-1.737 44.617 1.154 65.81 7.85z" fill="url(#paint0_linear_1119_4167)"/><path d="M922.698 152.328H759.655a6.31 6.31 0 010-12.619h163.039a6.312 6.312 0 016.309 6.31 6.302 6.302 0 01-6.305 6.309zm19.59 24.713H779.249a6.312 6.312 0 01-6.31-6.309 6.312 6.312 0 016.31-6.309h163.039a6.31 6.31 0 016.309 6.309 6.308 6.308 0 01-6.309 6.309zm-46.363 49.426H779.249a6.312 6.312 0 01-6.31-6.309 6.312 6.312 0 016.31-6.309h116.676a6.312 6.312 0 016.31 6.309 6.312 6.312 0 01-6.31 6.309zm64.648-24.713H797.534a6.31 6.31 0 01-6.309-6.309 6.31 6.31 0 016.309-6.309h163.039a6.31 6.31 0 016.309 6.309 6.31 6.31 0 01-6.309 6.309z" fill="#BDD0FB"/><path d="M645.386 400.807a.662.662 0 00.37.679l7.307 3.556a35.424 35.424 0 003.086 11.05l-4.412 6.829a.664.664 0 00.036.775l6.018 7.677a.663.663 0 00.743.219l7.686-2.653a35.496 35.496 0 009.993 5.639l1.704 7.946c.06.278.292.488.575.524l9.683 1.176a.668.668 0 00.679-.369l3.556-7.308a35.397 35.397 0 0011.05-3.086l6.829 4.413a.664.664 0 00.775-.037l7.677-6.017a.665.665 0 00.219-.743l-2.653-7.686a35.496 35.496 0 005.639-9.993l7.946-1.705a.674.674 0 00.524-.574l1.176-9.683a.66.66 0 00-.369-.679l-7.308-3.556a35.403 35.403 0 00-3.086-11.051l4.413-6.829a.665.665 0 00-.037-.775l-6.017-7.676a.664.664 0 00-.743-.219l-7.686 2.653a35.496 35.496 0 00-9.993-5.639l-1.705-7.946a.674.674 0 00-.574-.524l-9.679-1.172a.662.662 0 00-.679.369l-3.556 7.308a35.397 35.397 0 00-11.05 3.086l-6.829-4.413a.665.665 0 00-.775.037l-7.677 6.017a.673.673 0 00-.219.743l2.653 7.686a35.51 35.51 0 00-5.639 9.993l-7.946 1.705a.674.674 0 00-.524.575l-1.181 9.678zm35.011-2.804c1.719-4.463 6.734-6.683 11.192-4.964 4.463 1.718 6.683 6.733 4.965 11.191-1.719 4.463-6.734 6.684-11.197 4.965-4.454-1.719-6.678-6.729-4.96-11.192zm27.719-57.19a.376.376 0 00.205.379l4.057 1.974a19.62 19.62 0 001.714 6.136l-2.452 3.793a.368.368 0 00.018.428l3.341 4.263c.096.123.265.173.415.123l4.267-1.473a19.777 19.777 0 005.548 3.132l.949 4.413a.368.368 0 00.319.292l5.374.652a.376.376 0 00.379-.206l1.974-4.057a19.62 19.62 0 006.136-1.714l3.793 2.453a.37.37 0 00.428-.019l4.263-3.341c.123-.096.173-.265.123-.415l-1.473-4.267a19.763 19.763 0 003.132-5.548l4.413-.948a.369.369 0 00.292-.319l.652-5.375a.373.373 0 00-.206-.378l-4.057-1.974a19.612 19.612 0 00-1.714-6.136l2.453-3.793a.371.371 0 00-.019-.429l-3.341-4.262a.377.377 0 00-.415-.123l-4.267 1.472a19.788 19.788 0 00-5.548-3.132l-.948-4.413a.368.368 0 00-.319-.291l-5.375-.652a.373.373 0 00-.378.205l-1.974 4.057a19.612 19.612 0 00-6.136 1.714l-3.793-2.452a.37.37 0 00-.429.018l-4.262 3.341a.379.379 0 00-.123.415l1.472 4.267a19.788 19.788 0 00-3.132 5.548l-4.413.948a.368.368 0 00-.291.32l-.652 5.374zm19.447-1.554a4.812 4.812 0 016.219-2.758 4.812 4.812 0 012.758 6.218 4.81 4.81 0 11-8.977-3.46z" fill="#91B3FA"/><path d="M705.383 474.047a2.163 2.163 0 001.199 2.202l23.605 11.479a114.364 114.364 0 009.97 35.7l-14.26 22.055a2.153 2.153 0 00.114 2.503l19.434 24.795a2.157 2.157 0 002.402.706l24.823-8.575a114.52 114.52 0 0032.28 18.217l5.507 25.661a2.163 2.163 0 001.851 1.691l31.273 3.793a2.16 2.16 0 002.202-1.199l11.479-23.605a114.358 114.358 0 0035.699-9.97l22.056 14.26a2.151 2.151 0 002.502-.114l24.795-19.434a2.155 2.155 0 00.707-2.402l-8.575-24.823a114.558 114.558 0 0018.217-32.28l25.661-5.507a2.163 2.163 0 001.691-1.851l3.793-31.273a2.161 2.161 0 00-1.199-2.202l-23.601-11.479a114.323 114.323 0 00-9.97-35.699l14.26-22.056a2.15 2.15 0 00-.114-2.502l-19.434-24.795a2.155 2.155 0 00-2.402-.707l-24.823 8.575a114.53 114.53 0 00-32.28-18.217l-5.507-25.661a2.162 2.162 0 00-1.851-1.691l-31.273-3.793a2.161 2.161 0 00-2.202 1.199l-11.479 23.605a114.358 114.358 0 00-35.699 9.97l-22.055-14.26a2.153 2.153 0 00-2.503.114l-24.795 19.434a2.156 2.156 0 00-.707 2.403l8.575 24.822a114.531 114.531 0 00-18.216 32.28l-25.662 5.507a2.163 2.163 0 00-1.691 1.851l-3.797 31.273zm113.111-9.049c5.557-14.415 21.75-21.595 36.165-16.037 14.414 5.557 21.594 21.749 16.037 36.164-5.557 14.415-21.749 21.595-36.164 16.038-14.415-5.557-21.595-21.75-16.038-36.165z" fill="#91B3FA"/><path d="M863.743 550.028a2.206 2.206 0 01-1.687-.784l-1.413-1.669a1.02 1.02 0 01.123-1.44 1.021 1.021 0 011.441.123l1.413 1.669c.045.05.1.054.123.054l1.422-.542a1.02 1.02 0 011.322.583 1.02 1.02 0 01-.583 1.322l-1.363.529a2.088 2.088 0 01-.798.155zm-41.188-.939c-.31 0-.607-.064-.889-.187l-2.435-1.071a1.027 1.027 0 01-.524-1.35 1.03 1.03 0 011.35-.524l2.434 1.071c.087.014.141.01.182-.036l.675-.729a1.022 1.022 0 111.5 1.39l-.675.725a2.184 2.184 0 01-1.618.711zm47.748-1.523c-.41 0-.798-.246-.953-.652a1.017 1.017 0 01.584-1.322l4.768-1.85a1.017 1.017 0 011.322.583 1.016 1.016 0 01-.583 1.322l-4.769 1.851a1.006 1.006 0 01-.369.068zm-55.343-1.714c-.137 0-.278-.027-.415-.086l-4.682-2.065a1.027 1.027 0 01-.524-1.35c.228-.52.834-.747 1.349-.524l4.682 2.065c.515.228.752.834.524 1.349a1.016 1.016 0 01-.934.611zm12.614-1.618a1.023 1.023 0 01-.752-1.719l3.478-3.752a1.023 1.023 0 011.5 1.391l-3.478 3.752a1.015 1.015 0 01-.748.328zm30.548-.205c-.292 0-.579-.123-.784-.365l-3.305-3.907a1.02 1.02 0 111.559-1.317l3.305 3.907c.365.428.31 1.075-.118 1.44a.987.987 0 01-.657.242zm21.722-.164a1.02 1.02 0 01-.369-1.974l.438-.169a.16.16 0 00.1-.15l-.123-3.187a1.024 1.024 0 01.985-1.062 1.018 1.018 0 011.062.985l.123 3.182c0 .989-.565 1.814-1.409 2.142l-.437.169a1.147 1.147 0 01-.37.064zm-74.166-2.357a.95.95 0 01-.829-.465 2.19 2.19 0 01-.31-1.131l.009-.191.364-4.358c.046-.566.529-.99 1.104-.935.565.046.98.543.934 1.103l-.365 4.368c.288.487.142 1.162-.341 1.454a1.126 1.126 0 01-.566.155zm39.639-2.289a1.025 1.025 0 01-.01-2.047c1.664-.018 3.356-.1 5.029-.25a1.017 1.017 0 011.112.925 1.026 1.026 0 01-.925 1.112 66.103 66.103 0 01-5.193.26h-.013zm-5.111-.159c-.023 0-.05 0-.077-.005a63.724 63.724 0 01-5.165-.588 1.02 1.02 0 11.314-2.019c1.641.255 3.324.446 5.001.569.565.041.989.534.948 1.095a1.024 1.024 0 01-1.021.948zm40.514-4.805a1.02 1.02 0 01-1.021-.985l-.196-5.115a1.024 1.024 0 01.984-1.062c.575-.059 1.04.419 1.062.985l.197 5.115a1.025 1.025 0 01-.985 1.062h-.041zm-74.362-2.881c-.028 0-.055 0-.087-.005a1.022 1.022 0 01-.935-1.103l.37-4.418a1.018 1.018 0 01.068-1.121 1.02 1.02 0 011.431-.205l.625.479-.456 5.438a1.024 1.024 0 01-1.016.935zm77.457-5.658c-.305 0-.602-.132-.807-.392a1.019 1.019 0 01.173-1.436 61.138 61.138 0 003.83-3.264 1.022 1.022 0 111.39 1.5 62.98 62.98 0 01-3.957 3.369.986.986 0 01-.629.223zm-81.168-2.612a1.03 1.03 0 01-.684-.26 63.372 63.372 0 01-3.725-3.624 1.023 1.023 0 01.037-1.445 1.018 1.018 0 011.445.041 62.206 62.206 0 003.606 3.51c.419.379.456 1.021.077 1.445-.2.219-.478.333-.756.333zm88.672-4.335a1.023 1.023 0 01-.757-1.714 62.181 62.181 0 003.246-3.843 1.024 1.024 0 011.436-.183c.447.347.529.99.178 1.436a63.146 63.146 0 01-3.356 3.971.992.992 0 01-.747.333zm-46.198-1.081c-.406 0-.812-.004-1.222-.018a1.024 1.024 0 01-.994-1.053c.014-.565.451-1.03 1.053-.994 1.659.05 3.337-.009 4.987-.164.57-.068 1.062.36 1.117.921a1.018 1.018 0 01-.921 1.112 40.672 40.672 0 01-4.02.196zm-6.282-.483a.805.805 0 01-.155-.014 42.815 42.815 0 01-5.12-1.112 1.025 1.025 0 01-.707-1.263 1.02 1.02 0 011.263-.706c1.6.451 3.237.807 4.874 1.057.56.087.943.607.857 1.167a1.027 1.027 0 01-1.012.871zm15.249-.497c-.47 0-.894-.323-.999-.802a1.026 1.026 0 01.78-1.222 40.817 40.817 0 004.796-1.367 1.02 1.02 0 011.303.624 1.028 1.028 0 01-.624 1.308 42.676 42.676 0 01-5.038 1.436 1.162 1.162 0 01-.218.023zm-58.471-1.025c-.301 0-.597-.133-.798-.383a65.615 65.615 0 01-2.657-3.552 1.025 1.025 0 01.264-2.001l.825-.032.319.465a62.33 62.33 0 002.845 3.834 1.027 1.027 0 01-.798 1.669zm114.023-.37l-.191-.009a1.023 1.023 0 01-.921-1.117c.055-.56.547-.98 1.108-.921a.156.156 0 00.15-.095l1.477-3.346a1.03 1.03 0 011.35-.525c.515.228.752.835.524 1.35l-1.477 3.346a2.207 2.207 0 01-2.02 1.317zm-5.192-.428c-.027 0-.055 0-.087-.005l-5.101-.424a1.02 1.02 0 01-.934-1.103c.045-.565.542-.998 1.103-.935l5.101.424a1.024 1.024 0 01-.082 2.043zm-75.434-.452c-.132 0-.264-.022-.396-.077-.242-.1-.479-.205-.72-.31a44.346 44.346 0 01-3.98-2.006 1.022 1.022 0 01-.383-1.395 1.019 1.019 0 011.395-.383 40.88 40.88 0 004.477 2.202c.519.219.765.821.547 1.34-.16.392-.538.629-.94.629zm34.702-1.121a1.025 1.025 0 01-.456-1.942 40.317 40.317 0 004.321-2.489 1.027 1.027 0 011.418.292c.31.469.183 1.107-.292 1.417a43.391 43.391 0 01-4.54 2.613.96.96 0 01-.451.109zm-81.479-1.131a1.023 1.023 0 01-.036-2.046l5.115-.197c.583-.045 1.039.42 1.062.985.023.565-.42 1.04-.985 1.062l-5.115.196h-.041zm-4.955-.383a1 1 0 01-.83-.437 2.48 2.48 0 01-.228-.433l-1.755-4.527a1.016 1.016 0 01.584-1.322 1.019 1.019 0 011.322.583l1.755 4.527c.314.47.2 1.117-.269 1.436a1.075 1.075 0 01-.579.173zm42.87-2.429a.991.991 0 01-.611-.205 41.908 41.908 0 01-3.998-3.392 1.023 1.023 0 011.418-1.473 40.896 40.896 0 003.802 3.228c.451.337.547.98.21 1.431a1.025 1.025 0 01-.821.411zm52.079-1.678a1.024 1.024 0 01-.665-1.801 40.193 40.193 0 003.587-3.464 1.02 1.02 0 011.446-.064 1.02 1.02 0 01.063 1.445 42.227 42.227 0 01-3.77 3.642c-.191.16-.424.242-.661.242zm42.032-1.108a1.027 1.027 0 01-.939-1.436l2.065-4.682a1.03 1.03 0 011.349-.524c.515.228.753.834.525 1.35l-2.065 4.681a1.022 1.022 0 01-.935.611zm-101.473-4.285c-.296 0-.593-.128-.793-.378a38.455 38.455 0 01-1.719-2.271 1.027 1.027 0 01.246-1.426 1.027 1.027 0 011.427.246 38.69 38.69 0 001.637 2.156 1.024 1.024 0 01-.151 1.441 1.024 1.024 0 01-.647.232zm-39.219-.018c-.41 0-.798-.246-.953-.652l-1.851-4.769a1.017 1.017 0 01.584-1.322 1.019 1.019 0 011.322.584l1.851 4.768a1.016 1.016 0 01-.953 1.391zm105.553-2.125c-.205 0-.41-.059-.592-.186a1.023 1.023 0 01-.242-1.427 40.81 40.81 0 002.63-4.235 1.023 1.023 0 111.801.971 43.194 43.194 0 01-2.763 4.449c-.2.278-.515.428-.834.428zm38.102-2.881c-.251 0-.497-.091-.697-.273l-3.752-3.479a1.022 1.022 0 111.39-1.499l3.752 3.478c.415.383.438 1.03.055 1.445a.996.996 0 01-.748.328zm-144.845-4.08a1.023 1.023 0 01-.665-1.805l3.906-3.305a1.024 1.024 0 011.322 1.564l-3.906 3.305a1.02 1.02 0 01-.657.241zm111.589-2.019a1.025 1.025 0 01-.953-1.4 41.905 41.905 0 001.537-4.745 1.026 1.026 0 011.244-.739c.547.141.875.698.739 1.245a43.869 43.869 0 01-1.609 4.982c-.16.411-.548.657-.958.657zm25.752-.857c-.25 0-.496-.091-.697-.274l-3.278-3.041.105-.556c.073-.392.141-.784.21-1.176a1.017 1.017 0 011.176-.839c.556.091.934.62.839 1.176-.037.219-.073.438-.114.657l2.452 2.275c.415.383.438 1.03.055 1.445a.993.993 0 01-.748.333zm-129.527-3.734a1.024 1.024 0 01-.661-1.805l1.646-1.391c-.082-.62-.155-1.24-.219-1.86-.06-.56.351-1.062.912-1.121a1.03 1.03 0 011.121.916c.082.784.173 1.564.287 2.343l.078.561-2.508 2.12c-.191.16-.424.237-.656.237zm127.513-5.188c-.028 0-.06 0-.087-.004a1.024 1.024 0 01-.935-1.104c.142-1.664.215-3.355.219-5.028 0-.565.461-1.021 1.021-1.021h.005c.565 0 1.021.46 1.021 1.026a65.631 65.631 0 01-.223 5.192 1.023 1.023 0 01-1.021.939zm-21.199-.105a1.02 1.02 0 01-1.016-1.153 40.61 40.61 0 00.328-4.974 1.021 1.021 0 011.021-1.016h.005a1.02 1.02 0 011.016 1.03 42.738 42.738 0 01-.346 5.229 1.01 1.01 0 01-1.008.884zm-104.846-3.948a1.02 1.02 0 01-1.021-1.002 65.082 65.082 0 01.104-5.197 1.031 1.031 0 011.085-.958c.566.032.994.52.958 1.085a60.282 60.282 0 00-.101 5.033 1.023 1.023 0 01-1.002 1.044c-.01-.005-.014-.005-.023-.005zm126.072-6.167c-.529 0-.976-.406-1.021-.944a62.827 62.827 0 00-.415-3.775l-.078-.561 1.391-1.176a1.024 1.024 0 011.322 1.564l-.529.447a64.43 64.43 0 01.351 3.337 1.026 1.026 0 01-.939 1.103c-.027.005-.055.005-.082.005zm-21.18-.092c-.511 0-.953-.383-1.017-.902a41.007 41.007 0 00-.893-4.906c-.137-.547.2-1.103.748-1.235a1.021 1.021 0 011.239.748 43.7 43.7 0 01.939 5.151 1.017 1.017 0 01-.893 1.135c-.041.009-.082.009-.123.009zm-82.267-3.473a1.026 1.026 0 01-1.003-1.231 42.185 42.185 0 011.372-5.056 1.025 1.025 0 111.942.657 40.216 40.216 0 00-1.304 4.814 1.035 1.035 0 01-1.007.816zm-22.001-.47c-.05 0-.095-.005-.146-.009a1.02 1.02 0 01-.866-1.158 59.89 59.89 0 01.342-2.12l-1.381-1.281a1.022 1.022 0 111.39-1.5l2.207 2.047-.105.556a56.805 56.805 0 00-.429 2.59c-.073.506-.51.875-1.012.875zm129.893-3.916a1.025 1.025 0 01-.666-1.805l3.907-3.305a1.024 1.024 0 011.322 1.563l-3.907 3.305c-.187.16-.424.242-.656.242zm-28.059-2.051c-.411 0-.803-.251-.958-.661a41.133 41.133 0 00-2.051-4.545 1.02 1.02 0 01.428-1.382 1.024 1.024 0 011.382.429 43.604 43.604 0 012.156 4.773c.2.529-.064 1.121-.593 1.322a1.016 1.016 0 01-.364.064zm-106.944-1.81c-.251 0-.497-.091-.698-.274l-3.751-3.478a1.022 1.022 0 111.39-1.5l3.752 3.478a1.024 1.024 0 01-.693 1.774zm30.375-1.427a1.017 1.017 0 01-.921-1.463 42.214 42.214 0 012.548-4.577 1.024 1.024 0 011.724 1.103 41.948 41.948 0 00-2.426 4.358 1.032 1.032 0 01-.925.579zm110.832-1.915c-.41 0-.798-.246-.953-.652l-1.85-4.768a1.015 1.015 0 01.583-1.322 1.019 1.019 0 011.322.583l1.851 4.769a1.017 1.017 0 01-.953 1.39zm-39.023-3.879c-.323 0-.643-.155-.843-.438a39.906 39.906 0 00-3.096-3.911 1.02 1.02 0 01.083-1.445 1.019 1.019 0 011.445.082 42.775 42.775 0 013.25 4.112 1.017 1.017 0 01-.839 1.6zm-106.697-.538a1.026 1.026 0 01-.939-1.436l2.065-4.682c.228-.515.83-.748 1.349-.524.515.228.752.834.525 1.349l-2.066 4.682a1.02 1.02 0 01-.934.611zm40.39-2.266a1.025 1.025 0 01-.788-1.678 42.659 42.659 0 013.587-3.82 1.019 1.019 0 011.445.046c.388.41.37 1.057-.045 1.445a40.87 40.87 0 00-3.415 3.633 1.01 1.01 0 01-.784.374zm101.633-2.858c-.41 0-.798-.246-.953-.652l-1.851-4.769a1.017 1.017 0 01.584-1.322 1.019 1.019 0 011.322.584l1.851 4.768a1.016 1.016 0 01-.953 1.391zm-42.137-1.942c-.237 0-.478-.082-.67-.251a39.897 39.897 0 00-3.957-3.036 1.023 1.023 0 111.145-1.696 42.89 42.89 0 014.157 3.191c.424.369.47 1.017.1 1.445a1.046 1.046 0 01-.775.347zm-52.06-2.193c-.315 0-.625-.146-.826-.419a1.028 1.028 0 01.224-1.432 42.838 42.838 0 014.408-2.826 1.02 1.02 0 011.391.396 1.02 1.02 0 01-.397 1.391 40.747 40.747 0 00-4.199 2.694 1.02 1.02 0 01-.601.196zm-43.696-.105a1.027 1.027 0 01-.939-1.436l2.065-4.682a2.215 2.215 0 012.02-1.317l.191.009 1.445.123c.565.046.98.543.935 1.103-.046.566-.543.99-1.103.935l-1.45-.123c-.114.013-.132.036-.16.095l-2.065 4.682a1.032 1.032 0 01-.939.611zm119.539-1.837l-.319-.465a60.965 60.965 0 00-1.96-2.703 1.024 1.024 0 011.628-1.245 60.839 60.839 0 011.7 2.33l1.158-.046c.57-.05 1.039.419 1.062.985a1.024 1.024 0 01-.985 1.062l-2.284.082zm7.358-.278a1.024 1.024 0 01-.036-2.047l5.115-.196c.588-.05 1.039.419 1.062.985a1.024 1.024 0 01-.985 1.062l-5.115.196h-.041zm-39.606-1.29a1.02 1.02 0 01-.465-.114 40.733 40.733 0 00-4.577-1.988 1.028 1.028 0 01-.611-1.313 1.027 1.027 0 011.313-.611c.88.32 1.764.68 2.63 1.058.739.324 1.459.666 2.17 1.03.502.256.702.876.447 1.377a1.01 1.01 0 01-.907.561zm-72.398-1.003c-.027 0-.054 0-.086-.005l-5.097-.424a1.02 1.02 0 01-.934-1.103c.045-.565.538-.998 1.103-.934l5.097.424c.565.045.98.542.934 1.103a1.02 1.02 0 01-1.017.939zm37.715-.465a1.02 1.02 0 01-.948-.638 1.023 1.023 0 01.56-1.336 43.437 43.437 0 014.96-1.678 1.018 1.018 0 011.254.721 1.02 1.02 0 01-.72 1.253c-1.6.433-3.191.971-4.728 1.596a.845.845 0 01-.378.082zm-33.53-1.204a1.021 1.021 0 01-.793-1.668 63.382 63.382 0 013.447-3.893 1.022 1.022 0 111.472 1.417 62.45 62.45 0 00-3.337 3.766 1.018 1.018 0 01-.789.378zm58.626-.825c-.078 0-.155-.009-.233-.027a39.808 39.808 0 00-4.919-.821 1.023 1.023 0 01.21-2.037c1.733.177 3.469.469 5.17.861.551.128.893.679.766 1.226a1.02 1.02 0 01-.994.798zm-15.249-.643a1.021 1.021 0 01-.146-2.033 42.758 42.758 0 015.22-.424 1.048 1.048 0 011.044 1.003 1.027 1.027 0 01-1.003 1.044 40.492 40.492 0 00-4.969.406c-.046.004-.096.004-.146.004zm52.343-.993a1.03 1.03 0 01-.761-.338 62.197 62.197 0 00-3.524-3.592 1.022 1.022 0 011.4-1.491 63.753 63.753 0 013.642 3.711 1.023 1.023 0 01-.757 1.71zm-88.635-4.91a1.024 1.024 0 01-.675-1.792 65.156 65.156 0 014.034-3.277 1.02 1.02 0 011.432.205 1.024 1.024 0 01-.205 1.431 63.668 63.668 0 00-3.902 3.173c-.206.178-.447.26-.684.26zm81.186-2.088a1.03 1.03 0 01-.638-.223c-.428-.342-.866-.68-1.304-1.008l-.451-.342.333-3.989c.045-.565.533-.998 1.103-.934.565.045.98.542.935 1.103l-.242 2.867c.301.233.602.465.898.702.442.351.515.994.164 1.436-.2.256-.497.388-.798.388zm-75.146-5.138a1.02 1.02 0 01-1.021-.984l-.196-5.115a1.024 1.024 0 01.985-1.063c.583-.031 1.039.42 1.062.985l.196 5.115a1.024 1.024 0 01-.985 1.062h-.041zm74.531-4.413c-.027 0-.055 0-.087-.004a1.022 1.022 0 01-.934-1.103l.424-5.102c.045-.565.538-.998 1.103-.934.565.045.98.542.934 1.103l-.423 5.101a1.019 1.019 0 01-1.017.939zm-27.631-3.227a.898.898 0 01-.182-.018 62.555 62.555 0 00-4.983-.689 1.024 1.024 0 01.196-2.038c1.719.165 3.451.406 5.152.707.556.1.925.634.825 1.19-.087.501-.52.848-1.008.848zm-20.19-.766c-.292 0-.579-.123-.784-.365l-3.305-3.907a1.02 1.02 0 01.123-1.44 1.02 1.02 0 011.44.123l3.305 3.907a1.02 1.02 0 01-.123 1.44 1 1 0 01-.656.242zm4.9-.073c-.533 0-.984-.415-1.021-.957a1.023 1.023 0 01.953-1.09 66.408 66.408 0 015.197-.137 1.02 1.02 0 011.007 1.04c-.009.565-.469.998-1.039 1.007a64.236 64.236 0 00-5.033.132c-.018 0-.041.005-.064.005zm-31.997-1.751a1.022 1.022 0 01-1.022-.984l-.063-1.719c0-.989.565-1.814 1.408-2.143l1.796-.697a1.018 1.018 0 011.322.584 1.016 1.016 0 01-.583 1.322l-1.796.697a.158.158 0 00-.105.15l.064 1.728c.023.566-.42 1.04-.985 1.062h-.036zm50.912-.72a1.024 1.024 0 01-.753-1.719l3.479-3.751a1.022 1.022 0 111.5 1.39l-3.479 3.752c-.2.219-.474.328-.747.328zm21.116-1.646c-.137 0-.278-.027-.415-.086l-4.682-2.065a1.027 1.027 0 01-.524-1.35 1.026 1.026 0 011.349-.524l4.682 2.065c.515.228.752.834.524 1.35a1.02 1.02 0 01-.934.61zm-64.771-3.049c-.41 0-.798-.247-.953-.652a1.016 1.016 0 01.584-1.322l4.768-1.851a1.019 1.019 0 011.322.583 1.016 1.016 0 01-.583 1.322l-4.769 1.851a.965.965 0 01-.369.069zm13.23-.575c-.292 0-.579-.123-.785-.364l-2.356-2.786a.167.167 0 00-.124-.055l-.802-1.896a2.237 2.237 0 012.489.634l2.357 2.785c.365.429.31 1.076-.118 1.441a1.015 1.015 0 01-.661.241zm42.177-.506c-.137 0-.278-.027-.41-.086l-3.77-1.664c-.515.232-1.186.009-1.418-.506-.237-.516-.073-1.122.442-1.354a2.217 2.217 0 011.805-.009l3.77 1.664c.516.227.753.834.525 1.349a1.048 1.048 0 01-.944.606zm-26.495 86.589c-1.272 0-2.54-.146-3.77-.437a1.026 1.026 0 01-.762-1.231c.132-.552.68-.894 1.231-.762 1.541.365 3.164.475 4.741.31a1.025 1.025 0 01.205 2.038c-.542.055-1.094.082-1.645.082zm6.459-1.422a1.023 1.023 0 01-.428-1.951 14.232 14.232 0 003.92-2.685 1.023 1.023 0 011.423 1.472 16.3 16.3 0 01-4.481 3.068.978.978 0 01-.434.096zm-14.683-.976c-.187 0-.379-.05-.552-.159a16.56 16.56 0 01-4.034-3.634 1.022 1.022 0 111.6-1.271 14.583 14.583 0 002.411 2.384c.36.282.739.547 1.126.793.474.305.616.935.31 1.413a1.02 1.02 0 01-.861.474zm21.914-5.994a1.026 1.026 0 01-.912-1.491 14.261 14.261 0 001.422-4.536 1.023 1.023 0 112.029.278 16.005 16.005 0 01-1.628 5.183 1.005 1.005 0 01-.911.566zm-28.16-1.87c-.424 0-.82-.264-.966-.683a16.442 16.442 0 01-.921-5.352 1.023 1.023 0 011.016-1.031h.005c.565 0 1.021.456 1.021 1.017.009 1.6.278 3.177.807 4.686a1.024 1.024 0 01-.629 1.304.917.917 0 01-.333.059zm29.527-8.078c-.478 0-.907-.337-1.003-.825a14.32 14.32 0 00-1.686-4.444 1.02 1.02 0 01.364-1.4 1.024 1.024 0 011.4.365 16.288 16.288 0 011.924 5.078 1.027 1.027 0 01-.803 1.204.685.685 0 01-.196.022zm-29.568-1.969a1.026 1.026 0 01-.971-1.354 16.372 16.372 0 012.59-4.778 16.286 16.286 0 013.314-3.195 1.021 1.021 0 111.199 1.655 14.267 14.267 0 00-2.9 2.799 14.26 14.26 0 00-2.265 4.18 1.02 1.02 0 01-.967.693zm24.494-6.697c-.237 0-.474-.082-.665-.246a14.216 14.216 0 00-4.071-2.448 1.027 1.027 0 01-.579-1.327 1.021 1.021 0 011.326-.579 16.399 16.399 0 014.655 2.8 1.03 1.03 0 01.114 1.445 1.013 1.013 0 01-.78.355zm-14.396-3.031a1.026 1.026 0 01-.297-2.006 16.467 16.467 0 015.389-.684 1.02 1.02 0 01.98 1.062c-.023.565-.497 1.04-1.062.98a14.502 14.502 0 00-4.718.598.83.83 0 01-.292.05zm-72.999 65.569c-.332 0-.661-.165-.857-.461a91.9 91.9 0 01-1.39-2.179 1.023 1.023 0 111.741-1.076c.443.716.898 1.427 1.359 2.134.31.469.178 1.107-.292 1.417-.173.11-.369.165-.561.165zm77.376 41.762c-1.153 0-2.302-.023-3.455-.064a1.024 1.024 0 01-.985-1.062c.023-.565.501-1.021 1.062-.985 1.71.064 3.424.078 5.129.046.565.005 1.03.438 1.044 1.003a1.027 1.027 0 01-1.003 1.044c-.597.014-1.195.018-1.792.018zm6.952-.26c-.529 0-.98-.41-1.021-.948a1.018 1.018 0 01.944-1.094c1.7-.128 3.414-.306 5.101-.524a1.022 1.022 0 11.269 2.028 94.539 94.539 0 01-5.215.538h-.078zm-15.541-.141c-.031 0-.063 0-.095-.005a94.03 94.03 0 01-5.206-.629 1.023 1.023 0 01-.862-1.162 1.03 1.03 0 011.163-.862c1.682.251 3.396.461 5.092.616a1.022 1.022 0 01-.092 2.042zm25.821-1.208a1.02 1.02 0 01-1.003-.834c-.105-.557.26-1.09.816-1.195a91.352 91.352 0 005.01-1.089c.547-.133 1.104.2 1.24.747.137.547-.2 1.104-.747 1.24a95.131 95.131 0 01-5.124 1.113.96.96 0 01-.192.018zm-36.078-.328c-.068 0-.136-.009-.209-.023a90.893 90.893 0 01-5.106-1.213 1.023 1.023 0 11.529-1.978c1.641.437 3.318.834 4.991 1.185.552.114.908.656.794 1.208a1.015 1.015 0 01-.999.821zm46.144-2.152a1.021 1.021 0 01-.301-2.001 91.194 91.194 0 004.86-1.641 1.022 1.022 0 11.706 1.919 94.072 94.072 0 01-4.969 1.677.912.912 0 01-.296.046zm-56.164-.524a1.14 1.14 0 01-.319-.05 97.801 97.801 0 01-4.937-1.778 1.026 1.026 0 01-.579-1.327 1.021 1.021 0 011.327-.579 91.319 91.319 0 004.827 1.737c.538.178.83.757.652 1.29a1.023 1.023 0 01-.971.707zm65.892-3.068a1.023 1.023 0 01-.405-1.961 90.256 90.256 0 004.645-2.174 1.022 1.022 0 11.916 1.828 97.003 97.003 0 01-4.75 2.225.97.97 0 01-.406.082zm-75.547-.721c-.142 0-.287-.032-.424-.091a91.98 91.98 0 01-4.705-2.32 1.021 1.021 0 11.958-1.806 89.524 89.524 0 004.599 2.271c.515.237.739.843.502 1.358-.173.37-.543.588-.93.588zm84.815-3.934a1.02 1.02 0 01-.889-.515 1.018 1.018 0 01.379-1.395 90.386 90.386 0 004.371-2.681 1.024 1.024 0 011.122 1.715 93.432 93.432 0 01-4.472 2.744 1.044 1.044 0 01-.511.132zm-93.987-.916c-.178 0-.361-.046-.529-.146a93.56 93.56 0 01-4.413-2.836 1.025 1.025 0 01-.269-1.422 1.025 1.025 0 011.422-.269 92.021 92.021 0 004.317 2.772c.484.292.639.921.347 1.404a1.015 1.015 0 01-.875.497zm102.667-4.75a1.023 1.023 0 01-.606-1.847 92.443 92.443 0 004.039-3.154 1.022 1.022 0 111.304 1.577 89.409 89.409 0 01-4.135 3.228 1.012 1.012 0 01-.602.196zm-111.238-1.094c-.219 0-.437-.069-.62-.21l-.67-.52a92.33 92.33 0 01-3.405-2.785 1.02 1.02 0 01-.11-1.441 1.026 1.026 0 011.445-.109 90.19 90.19 0 003.333 2.726l.656.506a1.022 1.022 0 01-.629 1.833zm119.225-5.512a1.022 1.022 0 01-.697-1.773 90.53 90.53 0 003.66-3.593 1.023 1.023 0 011.473 1.418 91.861 91.861 0 01-3.743 3.67.994.994 0 01-.693.278zm-127.093-1.24c-.256 0-.511-.096-.707-.283a94.603 94.603 0 01-3.683-3.733 1.022 1.022 0 011.495-1.395 90.465 90.465 0 003.601 3.651c.406.392.42 1.04.032 1.445a1.04 1.04 0 01-.738.315zm134.291-6.223a1.024 1.024 0 01-.775-1.696 93.257 93.257 0 002.904-3.537l.338-.433a1.028 1.028 0 011.435-.192c.447.347.534.985.192 1.436l-.351.452a95 95 0 01-2.968 3.615 1.01 1.01 0 01-.775.355zM773.54 535.29c-.292 0-.583-.123-.789-.369a95.917 95.917 0 01-3.241-4.121 1.023 1.023 0 111.646-1.217 91.224 91.224 0 003.168 4.034c.36.433.301 1.081-.132 1.441a1.037 1.037 0 01-.652.232zm147.694-6.852c-.2 0-.401-.059-.579-.177a1.025 1.025 0 01-.264-1.423 90.868 90.868 0 002.785-4.308 1.018 1.018 0 011.404-.342c.484.292.639.921.342 1.405a95.407 95.407 0 01-2.844 4.403 1.02 1.02 0 01-.844.442zm5.384-8.862c-.164 0-.328-.041-.478-.118a1.027 1.027 0 01-.424-1.386 89.924 89.924 0 002.284-4.591c.237-.51.847-.738 1.358-.497.515.237.738.844.497 1.359a93.238 93.238 0 01-2.339 4.695 1.01 1.01 0 01-.898.538zm4.354-9.409a1.022 1.022 0 01-.953-1.4 94.217 94.217 0 001.755-4.818 1.022 1.022 0 011.295-.647c.538.177.825.756.647 1.294a93.374 93.374 0 01-1.791 4.928c-.16.397-.543.643-.953.643zm3.273-9.842a1.022 1.022 0 01-.989-1.29 90.556 90.556 0 001.199-4.988 1.023 1.023 0 012.001.424 94.333 94.333 0 01-1.226 5.097 1.025 1.025 0 01-.985.757zm2.143-10.162a.914.914 0 01-.156-.014 1.02 1.02 0 01-.856-1.167c.127-.834.241-1.668.346-2.503a1.02 1.02 0 011.14-.888c.56.068.957.579.889 1.139-.105.857-.224 1.71-.356 2.562a1.02 1.02 0 01-1.007.871zm-17.16-69.283c-.315 0-.62-.142-.825-.415a89.961 89.961 0 00-1.537-2.011 1.023 1.023 0 011.61-1.262 97.921 97.921 0 011.572 2.056 1.02 1.02 0 01-.214 1.431.996.996 0 01-.606.201zm-165.867 40.308a1.024 1.024 0 01-1.012-1.186c.274-1.686.598-3.391.967-5.069a1.024 1.024 0 011.217-.779c.552.123.903.665.78 1.217a87.478 87.478 0 00-.944 4.96 1.019 1.019 0 01-1.008.857zm2.184-9.966a1.025 1.025 0 01-.985-1.294c.461-1.651.971-3.31 1.518-4.933a1.031 1.031 0 011.3-.643c.533.183.82.762.642 1.3a89.187 89.187 0 00-1.486 4.823 1.026 1.026 0 01-.989.747zm3.278-9.664a1.025 1.025 0 01-.953-1.404 93.792 93.792 0 012.056-4.732 1.025 1.025 0 011.363-.493c.511.242.734.848.492 1.359a86.478 86.478 0 00-2.01 4.632c-.16.396-.543.638-.948.638zm4.326-9.245a1.023 1.023 0 01-.898-1.509 93.58 93.58 0 012.567-4.477 1.027 1.027 0 011.408-.342c.483.296.634.926.342 1.409a90.438 90.438 0 00-2.512 4.381 1.04 1.04 0 01-.907.538zm5.32-8.712a1.025 1.025 0 01-.843-1.605 98.225 98.225 0 013.04-4.171 1.023 1.023 0 111.619 1.254 90.318 90.318 0 00-2.977 4.08 1.004 1.004 0 01-.839.442zm6.241-8.078a1.024 1.024 0 01-.775-1.696 94.47 94.47 0 013.474-3.811 1.022 1.022 0 111.472 1.418 91.788 91.788 0 00-3.401 3.733 1 1 0 01-.77.356zm139.698-.597c-.282 0-.565-.119-.77-.347a87.237 87.237 0 00-3.438-3.692 1.023 1.023 0 111.459-1.432 94.506 94.506 0 013.515 3.775 1.024 1.024 0 01-.091 1.445 1.029 1.029 0 01-.675.251zm-132.623-6.752a1.021 1.021 0 01-.697-1.769 92.885 92.885 0 013.875-3.405 1.025 1.025 0 011.44.132c.36.433.301 1.081-.132 1.441a91.068 91.068 0 00-3.788 3.332 1.038 1.038 0 01-.698.269zm125.466-.52a1 1 0 01-.688-.269 91.338 91.338 0 00-3.825-3.296 1.024 1.024 0 011.294-1.586 93.93 93.93 0 013.907 3.369 1.023 1.023 0 01-.688 1.782zm-117.62-6.003a1.026 1.026 0 01-.611-1.847 90.241 90.241 0 014.226-2.958 1.023 1.023 0 111.126 1.709 90.956 90.956 0 00-4.135 2.895 1.04 1.04 0 01-.606.201zm109.71-.452a1.02 1.02 0 01-.601-.196 90.176 90.176 0 00-4.162-2.863 1.018 1.018 0 01-.301-1.413 1.018 1.018 0 011.413-.301 90.491 90.491 0 014.253 2.927 1.022 1.022 0 01-.602 1.846zm-101.195-5.165c-.351 0-.692-.182-.884-.51a1.027 1.027 0 01.369-1.4 90.716 90.716 0 014.532-2.471 1.026 1.026 0 011.376.447 1.027 1.027 0 01-.446 1.377 91.333 91.333 0 00-4.431 2.416 1.019 1.019 0 01-.516.141zm92.63-.387c-.174 0-.347-.046-.506-.137a89.232 89.232 0 00-4.45-2.389 1.019 1.019 0 01-.456-1.372 1.02 1.02 0 011.373-.456 90.51 90.51 0 014.549 2.444c.493.282.661.907.379 1.394a1.03 1.03 0 01-.889.516zm-83.544-4.254c-.392 0-.766-.228-.934-.606a1.024 1.024 0 01.519-1.349 97.5 97.5 0 014.773-1.961 1.02 1.02 0 011.318.598c.2.528-.069 1.121-.597 1.317a92.868 92.868 0 00-4.669 1.915 1.006 1.006 0 01-.41.086zm74.422-.323a.99.99 0 01-.406-.087 93.319 93.319 0 00-4.687-1.883 1.024 1.024 0 01-.606-1.313 1.024 1.024 0 011.313-.606 95.54 95.54 0 014.791 1.924c.52.223.757.83.529 1.345-.164.387-.542.62-.934.62zm-64.88-3.287c-.434 0-.839-.278-.976-.716a1.028 1.028 0 01.666-1.286c1.632-.515 3.3-.993 4.959-1.422a1.022 1.022 0 011.245.739 1.02 1.02 0 01-.734 1.244 93.9 93.9 0 00-4.85 1.391.92.92 0 01-.31.05zm55.306-.255c-.1 0-.2-.014-.301-.046a90.632 90.632 0 00-4.864-1.349 1.027 1.027 0 01-.748-1.24 1.03 1.03 0 011.24-.748c1.669.415 3.342.88 4.974 1.381.538.169.843.739.679 1.281a1.032 1.032 0 01-.98.721zm-45.423-2.284a1.024 1.024 0 01-.201-2.029 94.936 94.936 0 015.088-.871c.556-.077 1.08.31 1.158.866a1.02 1.02 0 01-.866 1.158c-1.66.237-3.333.525-4.974.853a.821.821 0 01-.205.023zm35.517-.174a.877.877 0 01-.191-.018 90.988 90.988 0 00-4.983-.802 1.023 1.023 0 11.269-2.029c1.7.228 3.414.502 5.097.821.556.105.92.642.816 1.194a1.032 1.032 0 01-1.008.834zm-25.415-1.267c-.524 0-.971-.401-1.017-.935a1.016 1.016 0 01.93-1.107 91.218 91.218 0 015.152-.31c.556-.05 1.039.424 1.057.989a1.017 1.017 0 01-.989 1.053 93.145 93.145 0 00-5.037.301c-.037.004-.069.009-.096.009zm15.299-.077c-.027 0-.055 0-.082-.005a93.894 93.894 0 00-5.042-.251 1.026 1.026 0 01-1.003-1.044 1.028 1.028 0 011.021-1.003h.023a93.1 93.1 0 015.156.256c.565.045.985.533.939 1.098a1.016 1.016 0 01-1.012.949zM752.45 468.81c-.027 0-.054 0-.082-.004a1.022 1.022 0 01-.939-1.099 104 104 0 01.237-2.576 1.024 1.024 0 012.038.219 79.436 79.436 0 00-.233 2.516 1.03 1.03 0 01-1.021.944z" fill="#BDD0FB"/><path d="M151.205 474.094c-6.009-17.729 3.496-36.976 21.225-42.98 17.729-6.009 36.976 3.496 42.98 21.225v.005a36.296 36.296 0 0020.346 21.827c11.032 4.627 20.099 13.781 24.243 26.003v.005a40.528 40.528 0 0025.328 25.355c13.946 4.751 25.607 15.696 30.699 30.726 8.703 25.68-5.065 53.547-30.744 62.25-25.68 8.698-53.547-5.065-62.25-30.744a49.312 49.312 0 01-1.203-4.135 50.626 50.626 0 00-24.175-31.993 43.079 43.079 0 01-19.576-23.706 43.242 43.242 0 01-2.297-13.854 28.381 28.381 0 00-12.035-23.172 33.737 33.737 0 01-12.541-16.812z" fill="#91B3FA"/><path d="M182.796 464.024c7.463 12.276 15.806 24.102 24.454 35.631 2.174 2.876 4.326 5.767 6.582 8.584 2.248 2.817 4.418 5.703 6.729 8.465l6.866 8.357 7.043 8.205c9.505 10.841 19.247 21.486 29.499 31.62 5.029 5.165 10.312 10.07 15.532 15.035 2.58 2.516 5.311 4.868 7.987 7.28l8.055 7.203.041.036c.757.675.821 1.837.146 2.594a1.832 1.832 0 01-2.589.146l-.014-.014-8.037-7.321c-2.671-2.453-5.393-4.846-7.964-7.399-5.206-5.042-10.471-10.025-15.477-15.263-10.212-10.284-19.894-21.075-29.345-32.052l-6.997-8.311-6.816-8.456c-2.297-2.799-4.449-5.717-6.678-8.566-2.234-2.849-4.372-5.771-6.528-8.68-8.584-11.67-16.822-23.573-24.257-36.069a1.028 1.028 0 01.355-1.404 1.02 1.02 0 011.395.347l.018.032z" fill="#DCE5FE"/><path d="M199.558 491.531a1.021 1.021 0 01-.839-1.605c5.544-7.959 4.304-29.654 4.29-29.873a1.025 1.025 0 01.957-1.085 1.03 1.03 0 011.085.957c.055.921 1.295 22.625-4.649 31.164-.206.287-.52.442-.844.442z" fill="#DCE5FE"/><path d="M198.925 491.745h-.023c-.616-.013-15.194-.392-25.939-5.981a1.025 1.025 0 01-.438-1.381c.26-.502.875-.698 1.381-.433 10.326 5.37 24.891 5.748 25.037 5.748a1.027 1.027 0 011.003 1.044 1.021 1.021 0 01-1.021 1.003zm32.085 40.117a1.07 1.07 0 01-.438-.096 1.024 1.024 0 01-.487-1.363c6.852-14.478 3.291-34.865 3.255-35.066a1.023 1.023 0 112.015-.364c.155.861 3.71 21.239-3.419 36.305a1.03 1.03 0 01-.926.584z" fill="#DCE5FE"/><path d="M220.903 533.481c-6.182 0-14.738-1.167-24.499-5.744a1.025 1.025 0 01.871-1.856c18.691 8.771 33.11 4.445 33.256 4.399a1.023 1.023 0 01.611 1.952c-.305.1-4.103 1.249-10.239 1.249zm36.001 47.333c-5.635 0-12.204-.807-18.901-3.351a1.024 1.024 0 01.73-1.914c17.177 6.523 34.017.98 34.186.925a1.02 1.02 0 011.299.643 1.024 1.024 0 01-.643 1.299c-.456.146-7.262 2.398-16.671 2.398z" fill="#DCE5FE"/><path d="M273.731 578.097a1.021 1.021 0 01-.885-1.532c.073-.132 7.476-13.33 3.045-33.457a1.02 1.02 0 01.78-1.217 1.02 1.02 0 011.217.78c4.614 20.947-2.949 34.359-3.273 34.92a1.032 1.032 0 01-.884.506z" fill="#DCE5FE"/><path d="M262.965 345.09c-16.78-17.14-44.279-17.437-61.42-.656-17.14 16.781-17.437 44.279-.656 61.42l.005.004a46.508 46.508 0 0113.147 35.905c-1.108 15.286 4.094 30.959 15.659 42.775a51.946 51.946 0 0114.297 43.645c-2.654 18.687 3.095 38.358 17.318 52.886 24.303 24.827 64.128 25.251 88.955.953 24.827-24.303 25.255-64.128.953-88.955a65.083 65.083 0 00-4.026-3.774 64.896 64.896 0 01-22.547-46.171c-.62-13.089-5.858-26.008-15.746-36.11a55.213 55.213 0 00-14.497-10.654 36.364 36.364 0 01-19.502-27.184 43.247 43.247 0 00-11.94-24.084z" fill="#BDD0FB"/><path d="M235.024 374.134c5.001 7.86 9.587 15.906 14.11 24.007 2.211 4.075 4.49 8.114 6.61 12.24 2.156 4.107 4.326 8.206 6.368 12.368 8.316 16.575 16.107 33.425 23.25 50.543 7.121 17.127 13.891 34.423 19.785 52.024 1.477 4.399 3.086 8.757 4.413 13.207l4.157 13.293c1.455 4.413 2.635 8.903 3.916 13.366l3.789 13.407a2.433 2.433 0 01-1.678 3 2.432 2.432 0 01-3-1.677c-.004-.014-.009-.023-.009-.037l-.022-.082-3.483-13.403c-1.176-4.463-2.261-8.953-3.615-13.371-2.599-8.857-5.124-17.747-8.083-26.5-5.58-17.615-12.044-34.938-18.864-52.12l-5.256-12.828-5.567-12.701-1.395-3.172-1.458-3.146-2.918-6.291c-1.91-4.212-3.966-8.352-5.99-12.505-8.147-16.584-16.826-32.973-26.61-48.61l-.013-.022a.925.925 0 011.563-.99z" fill="#DCE5FE"/><path d="M251.301 411.042c-13.439 0-34.633-12.318-35.586-12.878a1.022 1.022 0 111.035-1.765c.242.142 24.398 14.187 36.807 12.45a1.02 1.02 0 011.154.871 1.02 1.02 0 01-.871 1.153c-.807.114-1.655.169-2.539.169z" fill="#DCE5FE"/><path d="M254.304 410.289a1.02 1.02 0 01-.921-1.463c.082-.169 8.124-17.109 7.969-32.075a1.023 1.023 0 011.012-1.035c.597.023 1.03.447 1.035 1.012.159 15.449-7.832 32.271-8.174 32.982a1.016 1.016 0 01-.921.579zm27.247 59.916h-.027c-21.262-.583-42.415-16.407-43.304-17.081a1.023 1.023 0 011.231-1.637c.214.16 21.531 16.101 42.127 16.667.566.018 1.013.487.994 1.053a1.023 1.023 0 01-1.021.998z" fill="#DCE5FE"/><path d="M282.129 470.246c-.26 0-.515-.095-.715-.292a1.018 1.018 0 01-.019-1.445c.137-.136 13.512-14.177 14.328-40.741a1.009 1.009 0 011.054-.994 1.02 1.02 0 01.989 1.053c-.844 27.407-14.337 41.521-14.912 42.109a.968.968 0 01-.725.31zm28.201 75.224a1.02 1.02 0 01-.729-.31 1.02 1.02 0 01.014-1.445c.164-.16 16.329-16.252 18.841-39.775.059-.561.57-.971 1.126-.908.561.06.971.566.907 1.126-2.594 24.271-19.279 40.851-19.443 41.02-.2.196-.46.292-.716.292z" fill="#DCE5FE"/><path d="M308.781 545.834c-4.167 0-21.805-.98-40.705-16.457a1.02 1.02 0 01-.141-1.44 1.02 1.02 0 011.44-.142c20.569 16.845 39.999 15.983 40.195 15.979.556-.064 1.048.401 1.075.966a1.017 1.017 0 01-.966 1.076c-.091.005-.397.018-.898.018z" fill="#DCE5FE"/><path d="M831.747 473.706c6.46-19.069-3.761-39.762-22.825-46.221-19.07-6.46-39.762 3.761-46.221 22.83v.005a39.04 39.04 0 01-21.882 23.472c-11.862 4.974-21.618 14.821-26.072 27.964v.004a43.578 43.578 0 01-27.238 27.266c-14.994 5.106-27.535 16.881-33.01 33.042-9.355 27.617 5.447 57.586 33.06 66.945 27.617 9.355 57.586-5.448 66.945-33.06a53.71 53.71 0 001.295-4.445 54.47 54.47 0 0125.998-34.409c9.564-5.434 17.246-14.26 21.052-25.497a46.47 46.47 0 002.471-14.898 30.508 30.508 0 0112.943-24.918 36.364 36.364 0 0013.484-18.08z" fill="#BDD0FB"/><path d="M799.604 463.937c-7.996 13.43-16.859 26.226-26.095 38.772-2.32 3.127-4.618 6.273-7.02 9.332-2.398 3.063-4.714 6.199-7.185 9.208l-7.33 9.095-7.527 8.931c-10.161 11.798-20.582 23.395-31.56 34.45-5.384 5.635-11.046 10.987-16.644 16.407-2.767 2.744-5.694 5.32-8.566 7.95l-8.643 7.869a1.833 1.833 0 01-2.594-.123 1.833 1.833 0 01.123-2.594l.014-.009.041-.037 8.661-7.75c2.877-2.594 5.813-5.128 8.589-7.836 5.612-5.343 11.297-10.618 16.703-16.179 11.023-10.905 21.495-22.361 31.715-34.022l7.573-8.83 7.38-8.99c2.489-2.977 4.819-6.077 7.235-9.109 2.421-3.031 4.736-6.14 7.075-9.236 9.295-12.399 18.267-25.118 26.29-38.334l.019-.032c.291-.483.92-.638 1.404-.342.474.305.629.93.342 1.409z" fill="#DCE5FE"/><path d="M779.746 492.383a1.02 1.02 0 01-.839-.438c-6.377-9.158-5.046-32.476-4.987-33.465.032-.566.52-.985 1.085-.958.565.032.994.52.957 1.085-.013.237-1.349 23.596 4.627 32.171a1.019 1.019 0 01-.843 1.605z" fill="#DCE5FE"/><path d="M780.42 492.611a1.018 1.018 0 01-1.021-1.003 1.02 1.02 0 01.998-1.044c.16-.004 15.855-.415 26.961-6.191a1.024 1.024 0 011.381.433c.26.502.064 1.122-.438 1.382-11.538 6.004-27.197 6.409-27.858 6.423h-.023zm-34.5 43.144c-.382 0-.752-.215-.925-.584-7.659-16.179-3.838-38.074-3.67-39a1.024 1.024 0 112.015.365c-.041.219-3.87 22.183 3.506 37.76.241.51.023 1.121-.488 1.363a1.066 1.066 0 01-.438.096z" fill="#DCE5FE"/><path d="M756.788 537.496c-6.588 0-10.659-1.23-10.987-1.335a1.023 1.023 0 01.611-1.951c.155.05 15.691 4.704 35.818-4.737a1.026 1.026 0 01.871 1.855c-10.485 4.915-19.676 6.168-26.313 6.168zm-38.713 50.903c-10.111 0-17.419-2.416-17.897-2.575a1.03 1.03 0 01-.643-1.3 1.025 1.025 0 011.299-.642c.183.064 18.313 6.031 36.812-.994a1.024 1.024 0 01.73 1.915c-7.194 2.73-14.247 3.596-20.301 3.596z" fill="#DCE5FE"/><path d="M699.982 585.477c-.356 0-.698-.182-.889-.511-.347-.601-8.466-14.998-3.511-37.495a1.021 1.021 0 111.997.437c-4.782 21.732 3.205 35.896 3.282 36.033a1.026 1.026 0 01-.879 1.536z" fill="#DCE5FE"/><path d="M726.591 279.239c18.043-18.435 47.616-18.75 66.052-.706 18.435 18.043 18.75 47.616.706 66.051 0 0 0 .005-.004.005a50.02 50.02 0 00-14.142 38.612c1.19 16.439-4.403 33.293-16.84 45.998l-.004.005c-12.14 12.399-17.811 29.75-15.372 46.932 2.853 20.095-3.328 41.247-18.623 56.879-26.135 26.701-68.965 27.157-95.661 1.026-26.7-26.135-27.156-68.96-1.025-95.661a69.531 69.531 0 014.331-4.057 69.793 69.793 0 0024.248-49.654c.665-14.077 6.295-27.968 16.931-38.831a59.586 59.586 0 0115.591-11.461 39.103 39.103 0 0020.974-29.235 46.491 46.491 0 0112.838-25.903z" fill="#BDD0FB"/><path d="M758.26 311.529c-10.527 16.817-19.863 34.441-28.634 52.275-2.179 4.467-4.394 8.921-6.45 13.448l-3.141 6.765-1.569 3.383-1.504 3.414-5.995 13.654-5.662 13.795c-7.344 18.472-14.31 37.103-20.323 56.045-3.186 9.414-5.903 18.969-8.707 28.497-1.459 4.75-2.626 9.577-3.898 14.378l-3.756 14.41-.018.073a2.424 2.424 0 01-2.963 1.737 2.423 2.423 0 01-1.737-2.963c.004-.009.009-.037.013-.046l4.062-14.419c1.372-4.801 2.64-9.628 4.199-14.374l4.463-14.292c1.422-4.786 3.15-9.468 4.736-14.2 6.323-18.933 13.595-37.532 21.24-55.954l5.88-13.758 6.141-13.64 1.541-3.41 1.609-3.378 3.214-6.752c2.106-4.517 4.367-8.962 6.596-13.425 2.198-4.477 4.527-8.885 6.843-13.298 2.28-4.436 4.728-8.78 7.103-13.166 4.859-8.711 9.787-17.368 15.162-25.816a.935.935 0 011.286-.287c.433.273.56.848.291 1.281l-.022.023z" fill="#DCE5FE"/><path d="M739.141 350.087c-.944 0-1.856-.055-2.717-.178a1.021 1.021 0 11.282-2.024c13.366 1.869 39.369-13.248 39.634-13.403a1.02 1.02 0 011.399.365 1.02 1.02 0 01-.364 1.4c-1.031.601-23.811 13.84-38.234 13.84z" fill="#DCE5FE"/><path d="M735.905 349.28c-.383 0-.748-.214-.921-.579-.365-.761-8.953-18.837-8.78-35.431a1.023 1.023 0 011.021-1.012h.009c.565.005 1.017.47 1.012 1.035-.164 16.111 8.493 34.341 8.58 34.524a1.017 1.017 0 01-.921 1.463zm-29.299 64.433a1.02 1.02 0 01-1.022-.994 1.028 1.028 0 01.994-1.053c22.174-.606 45.118-17.765 45.346-17.938a1.019 1.019 0 011.431.2 1.025 1.025 0 01-.2 1.436c-.958.725-23.687 17.729-46.527 18.354-.004-.005-.013-.005-.022-.005z" fill="#DCE5FE"/><path d="M705.981 413.759c-.264 0-.533-.105-.729-.31-.616-.634-15.108-15.787-16.015-45.232a1.023 1.023 0 01.989-1.053 1.018 1.018 0 011.053.994c.88 28.601 15.286 43.714 15.432 43.864a1.022 1.022 0 01-.019 1.445.996.996 0 01-.711.292zm-30.324 80.899c-.26 0-.516-.096-.716-.292-.183-.178-18.103-17.989-20.888-44.065-.06-.56.346-1.066.907-1.126a1.027 1.027 0 011.126.908c2.708 25.355 20.108 42.647 20.286 42.82.406.396.411 1.044.014 1.445a1.02 1.02 0 01-.729.31z" fill="#DCE5FE"/><path d="M677.324 495.05c-.538 0-.866-.014-.962-.023a1.023 1.023 0 01-.966-1.076c.032-.565.524-.962 1.076-.966.209.023 21.175.903 43.28-17.2a1.03 1.03 0 011.441.141 1.03 1.03 0 01-.141 1.441c-20.305 16.625-39.251 17.683-43.728 17.683z" fill="#DCE5FE"/><path d="M321.765 52.086l342.431 3.77c18.927.21 33.775 16.54 33.762 37.058l-.306 507.603c-.009 14.2-11.506 25.98-25.374 26.039l-367.12 1.619c-12.951.059-23.578-10.777-23.578-24.079V95.381c0-24.102 17.989-43.54 40.185-43.295z" fill="url(#paint1_linear_1119_4167)"/><path d="M635.643 100.742H347.809c-12.072 0-21.454 9.532-21.454 21.289v418.926c0 11.757 9.382 21.289 21.454 21.289h287.834c12.072 0 22.261-9.532 22.261-21.289V122.031c0-11.757-10.189-21.289-22.261-21.289z" fill="url(#paint2_linear_1119_4167)"/><path d="M474.136 457.719v-18.436c-19.22-.77-38.23-5.306-51.733-11.214-4.823-2.111-7.28-7.522-5.894-12.601l4.682-17.172c1.718-6.301 8.57-9.56 14.592-7.035 13.394 5.617 29.933 10.057 47.767 10.057 18.513 0 32.317-6.277 32.317-19.142 0-11.607-10.668-18.513-36.397-25.415-36.712-10.043-63.07-26.044-63.07-58.361 0-29.181 21.339-51.459 58.361-57.422v-18.44c0-5.931 4.809-10.741 10.74-10.741h10.832c5.935 0 10.74 4.81 10.74 10.741v16.557c17.784.711 30.73 3.752 41.006 7.362 5.265 1.851 8.142 7.522 6.678 12.906l-4.308 15.883c-1.659 6.127-8.205 9.478-14.141 7.235-9.459-3.579-22.835-7.303-40.217-7.303-21.964 0-28.237 9.099-28.237 17.259 0 10.043 13.179 16.945 41.731 25.73 40.792 12.235 57.732 29.18 57.732 59.614 0 27.927-20.711 53.028-60.873 59.305v20.633c0 5.931-4.81 10.74-10.74 10.74h-10.837c-5.921.005-10.731-4.805-10.731-10.74z" fill="#fff" opacity=".9"/><path opacity=".73" d="M218.012 75.286l.004-.233-.278-.004c-14.911-12.46-34.09-19.972-54.992-19.972-20.911 0-40.094 7.517-55.006 19.985l-.291.01.004.236c-18.7 15.764-30.607 39.342-30.607 65.66 0 47.365 38.535 85.896 85.896 85.896 47.365 0 85.895-38.535 85.895-85.896 0-26.327-11.916-49.914-30.625-65.682zm21.494 94.01l-18.312-.16c2.32-8.515 3.569-17.51 3.733-26.759l19.051-.119.557-.014c-.146 9.492-1.897 18.6-5.029 27.052zm-158.557-27.02l15.23.114c.078 4.368.383 8.717.944 12.952a104.593 104.593 0 002.804 13.835l-11.963.078-1.978.073c-3.132-8.452-4.887-17.56-5.037-27.052zm5.844-31.706l.282.283 13.344.109c-.123.415-.26.825-.378 1.245a104.305 104.305 0 00-2.909 14.209c-.492 3.702-.798 7.5-.916 11.329l-14.743.087-.479.018a81.315 81.315 0 015.799-27.28zm128.775 58.535l-28.952-.087c.861-8.37 1.308-17.146 1.372-26.477l15.381-.028 16.056-.1c-.141 8.885-1.327 17.515-3.551 25.67-.101.342-.21.68-.306 1.022zm.319-55.439c2.084 7.649 3.255 15.718 3.506 24.015l-31.432-.087c-.133-9.295-.698-18.07-1.733-26.477l13.895-.027 14.98-.105c.265.889.534 1.778.784 2.681zm-40.335 85.348h-25.187a36.13 36.13 0 01-1.427-4.508c-.825-3.342-1.55-6.446-2.211-10.239a195.7 195.7 0 01-1.555-10.49l17.57.142 18.007.009a201.68 201.68 0 01-1.505 10.343c-.656 3.816-1.372 6.57-2.188 9.893-.483 1.974-.985 3.574-1.504 4.85zm-12.824-30.069l-18.098.032a241.257 241.257 0 01-.515-5.949c-.493-6.647-.739-13.531-.753-20.492l19.375.05 19.894-.036c-.036 6.847-.291 13.617-.793 20.136a267.895 267.895 0 01-.556 6.318l-18.554-.059zm-18.112-57.828l18.121.05 18.244-.036c.301 2.585.575 5.215.798 7.964.501 6.009.77 12.218.834 18.486l-19.885-.055-19.366.032c.046-6.565.242-12.546.598-18.18.182-2.849.405-5.58.656-8.261zm27.9-36.388l-9.788-.05-10.896.023c.393-1.035.785-2.01 1.19-2.927.771-1.741 1.555-3.232 2.394-4.55 1.025-1.608 1.996-2.766 3.049-3.642.584-.487 1.168-.848 1.737-1.08a4.25 4.25 0 011.619-.333c.041 0 .082 0 .123.005.551.013 1.144.164 1.755.437.583.265 1.185.657 1.787 1.154 1.08.898 2.088 2.056 3.173 3.633 1.372 2.042 2.621 4.413 3.857 7.33zm-22.357 4.992l12.583.028 11.67-.037c.77 2.243 1.495 4.632 2.188 7.248a146.931 146.931 0 012.357 10.568c.524 2.808.98 5.684 1.39 8.629l-17.619-.054-17.597.032a216.45 216.45 0 011.112-8.416 159.99 159.99 0 012.002-10.654 110.624 110.624 0 011.914-7.344zm27.581-4.964c-1.669-4.117-3.328-7.313-5.22-10.043a31.001 31.001 0 00-1.126-1.5c.793.196 1.591.392 2.38.634 4.166 1.272 8.256 3.168 12.149 5.639 2.398 1.532 4.736 3.337 7.002 5.347l-15.185-.077zm-26.281-10.098c-.976 1.51-1.888 3.191-2.781 5.147a62.074 62.074 0 00-1.983 4.91l-1.167.004c-3.114.005-6.232.01-9.346.037l-7.841.059c2.248-1.992 4.568-3.784 6.934-5.302 3.898-2.475 7.982-4.38 12.145-5.653a45.903 45.903 0 015.584-1.313 25.821 25.821 0 00-1.545 2.111zm-4.814 140.747c.228 1.276.456 1.267.693 1.901 1.618 4.276 3.241 7.545 5.124 10.353.401.588.797 1.112 1.199 1.614a46.076 46.076 0 01-6.214-1.446 49.997 49.997 0 01-12.131-5.593c-2.977-1.901-5.876-4.276-8.652-6.834h19.981v.005zm15.691 14.374a4.328 4.328 0 01-.971-.265c-.552-.223-1.131-.579-1.719-1.053-1.062-.866-2.051-2.006-3.1-3.579-1.636-2.479-3.072-5.42-4.517-9.336-.023-.059-.042-.141-.064-.141h21.987c-1.418 3.834-2.818 6.779-4.4 9.236-1.048 1.605-2.019 2.753-3.063 3.651a7.66 7.66 0 01-1.719 1.136 4.984 4.984 0 01-.811.287c-.543.041-1.085.041-1.623.064zm11.337-2.458c1.833-2.803 3.433-6.063 5.038-10.348.191-.524.378-1.564.565-1.564h15.308c-2.79 2.558-5.703 4.947-8.689 6.848a50.32 50.32 0 01-12.149 5.607c-.177.055-.36.082-.542.137.159-.228.314-.447.469-.68zm11.89-111.151c-.474-3.25-1.017-6.45-1.637-9.61a153.455 153.455 0 00-2.557-10.9c-.584-2.11-1.19-4.084-1.819-5.963l9.733-.027 8.479-.068a72.44 72.44 0 017.066 9.104c3.487 5.324 6.391 11.21 8.693 17.551l-27.958-.087zm-49.381-26.495c2.968.022 5.931.032 8.899.036a120.33 120.33 0 00-1.65 6.227c-.816 3.447-1.527 7.035-2.184 10.969-.497 3-.93 6.081-1.317 9.236l-14.579.027-17.606.114c2.293-6.337 5.192-12.222 8.671-17.547a71.991 71.991 0 017.093-9.153l12.673.09zm-29.522 31.336l32.713.092a271.107 271.107 0 00-.706 7.914 309.991 309.991 0 00-.807 18.554l-15.76.027-20.213.119c.109-3.561.387-7.098.834-10.554.606-4.677 1.505-9.213 2.658-13.466.246-.903.515-1.792.784-2.681l.497-.005zm-1.258 57.053c-1.163-4.267-2.061-8.798-2.667-13.466-.52-3.976-.803-8.06-.875-12.163l35.995.091c.064 7.098.37 14.137.93 20.925.155 1.887.329 3.729.516 5.539l-13.955.027-19.63.128c-.1-.365-.214-.721-.314-1.081zm34.473 5.881a214.417 214.417 0 001.755 11.602c.716 3.92 1.491 6.774 2.371 10.216.355 1.386.724 3.255 1.098 3.255h-23.04c-1.992-1.276-3.875-4.094-5.611-6.747-3.775-5.771-6.871-11.83-9.246-18.777l32.673.451zm40.951 25.068c.406-1.276.802-2.083 1.185-3.596a156.297 156.297 0 002.348-10.809 207.419 207.419 0 001.687-11.155h14.073l13.959.141c-2.389 6.97-5.494 12.801-9.282 18.581-1.732 2.644-3.615 5.557-5.603 6.834h-18.367v.004zm44.065-61.31c-.292-8.808-1.568-17.364-3.82-25.488-.123-.429-.26-.843-.383-1.272l16.799-.114 1.294-.032a81.234 81.234 0 015.708 27.061l-19.598-.155zm-17.51-62.797l-7.239-.036c-.092-.096-.178-.196-.274-.287-3.533-3.56-7.362-6.647-11.379-9.182a55.766 55.766 0 00-8.839-4.49 81.5 81.5 0 0131.36 14.04c-1.209-.013-2.417-.031-3.629-.045zM132.69 65.38c-4.02 2.526-7.85 5.612-11.392 9.173-.1.1-.196.21-.296.314l-2.795.023c-1.235.014-2.466.032-3.702.046a81.599 81.599 0 0120.67-10.996c-.839.46-1.669.93-2.485 1.44zm-20.354 140.027h7.12c.597 1.276 1.19 1.253 1.806 1.869a64.836 64.836 0 0011.396 9.168c.976.61 1.97 1.176 2.968 1.723a81.757 81.757 0 01-23.331-12.801c.013.004.027.041.041.041zm76.194 10.996a64.832 64.832 0 0011.379-9.154c.602-.607 1.185-.566 1.773-1.842h11.502c-9.81 7.668-21.403 13.197-34.063 15.782 3.223-1.263 6.378-2.881 9.409-4.786zm48.369-109.971l-17.725-.155c-2.589-7.376-5.967-14.223-10.106-20.4a77.816 77.816 0 00-4.723-6.328l2.63-.023c2.954-.032 5.908-.064 8.826-.114l.734-.018a82.187 82.187 0 0120.364 27.038zM108.903 79.43l.725.009c2.393.04 4.782.059 7.175.086a78.584 78.584 0 00-4.723 6.319c-4.153 6.195-7.549 13.065-10.152 20.478l-13.33.086a82.246 82.246 0 0120.305-26.978zm-21.135 94.274l13.572.11c2.662 8.037 6.245 14.743 10.704 21.398 1.053 1.569 2.161 2.531 3.3 3.807h-3.008c-1.336 0-2.421 1.819-2.421 3.155 0 .187.027.734.068.911-9.505-8.041-17.154-17.833-22.215-29.381zm131.028 26.072c-.105-.014-.21-.757-.315-.757H205.79c1.144-1.276 2.261-2.261 3.319-3.838 4.444-6.656 8.018-13.713 10.672-21.741l17.706.059.246-.278c-4.468 10.189-10.946 19.024-18.937 26.555z" fill="#91B3FA"/><path d="M192.88 263.297H7.185A7.187 7.187 0 010 256.113a7.187 7.187 0 017.185-7.185H192.88a7.185 7.185 0 110 14.369zm22.311 28.146H29.495a7.187 7.187 0 01-7.184-7.185 7.187 7.187 0 017.184-7.184h185.696a7.185 7.185 0 110 14.369zm-52.804 56.291H29.495a7.184 7.184 0 110-14.369h132.892a7.184 7.184 0 110 14.369zm73.628-28.145H50.319a7.184 7.184 0 110-14.369h185.696a7.184 7.184 0 017.185 7.184 7.181 7.181 0 01-7.185 7.185z" fill="#BDD0FB"/><path d="M607.725 148.545c15.051 0 27.252-12.201 27.252-27.252 0-15.051-12.201-27.253-27.252-27.253-15.051 0-27.252 12.202-27.252 27.253s12.201 27.252 27.252 27.252z" fill="url(#paint3_linear_1119_4167)"/><path d="M607.726 147.638c14.55 0 26.345-11.795 26.345-26.345 0-14.55-11.795-26.345-26.345-26.345-14.55 0-26.345 11.795-26.345 26.345 0 14.55 11.795 26.345 26.345 26.345z" fill="url(#paint4_linear_1119_4167)"/><path opacity=".78" d="M585.997 111.373a1.024 1.024 0 01-.912-1.486c4.34-8.598 13.016-13.94 22.639-13.94a25.5 25.5 0 014.573.41c.556.1.925.633.825 1.19-.101.556-.634.92-1.19.825a23.518 23.518 0 00-4.203-.379c-8.849 0-16.822 4.91-20.811 12.815-.187.36-.547.565-.921.565z" fill="#fff"/><path opacity=".66" d="M630.02 127.03c2.83-11.984-4.591-23.993-16.575-26.823-11.984-2.83-23.993 4.591-26.823 16.576-2.83 11.984 4.591 23.993 16.575 26.823 11.984 2.83 23.994-4.592 26.823-16.576z" fill="#fff"/><path d="M617.271 128.245c-.128-.164-.319-.201-.525-.201h-9.705c-.214 0-.415-.159-.538-.328a.722.722 0 01-.096-.624l5.407-16.872a.673.673 0 00-.634-.88l-4.112-.014a.671.671 0 00-.638.461l-7.052 21.777c-.064.205-.032.278.095.451.128.173.329.128.543.128h15.946c.306 0 .575-.06.648-.356l.793-3.063c.041-.21-.005-.319-.132-.479z" fill="url(#paint5_linear_1119_4167)"/><path d="M611.636 118.211l-.141-.196a.67.67 0 00-.862-.187 9.08 9.08 0 01-4.577 1.121c-2.744-.063-5.37 1.601-6.491 2.421a.669.669 0 00-.114.971l.155.183a.67.67 0 00.902.104c.958-.693 3.178-2.11 5.389-2.11h.123c.087 0 .169.004.255.004 2.384 0 4.235-.825 5.152-1.335a.668.668 0 00.328-.443.681.681 0 00-.119-.533z" fill="url(#paint6_linear_1119_4167)"/><path d="M685.296 136.418c26.202 0 47.443-21.24 47.443-47.442s-21.241-47.443-47.443-47.443c-26.202 0-47.442 21.24-47.442 47.443 0 26.202 21.24 47.442 47.442 47.442z" fill="url(#paint7_linear_1119_4167)"/><path d="M685.297 134.841c25.331 0 45.866-20.535 45.866-45.866 0-25.33-20.535-45.865-45.866-45.865s-45.865 20.535-45.865 45.865c0 25.331 20.534 45.866 45.865 45.866z" fill="url(#paint8_linear_1119_4167)"/><path opacity=".78" d="M647.478 70.946a1.023 1.023 0 01-.912-1.486c7.426-14.711 22.265-23.847 38.731-23.847 2.63 0 5.261.237 7.823.702.556.1.925.634.825 1.19-.1.556-.634.92-1.19.825a41.474 41.474 0 00-7.454-.67c-15.686 0-29.827 8.707-36.903 22.72-.186.36-.547.566-.92.566z" fill="#fff"/><path opacity=".66" d="M724.754 95.086c2.845-21.25-12.076-40.782-33.325-43.627-21.25-2.845-40.783 12.075-43.627 33.325-2.845 21.249 12.075 40.782 33.324 43.627 21.25 2.845 40.783-12.075 43.628-33.325z" fill="#fff"/><path d="M706.043 75.883c0 6.035-4.892 10.927-10.928 10.927-6.035 0-10.931-4.892-10.931-10.927 0-6.036 4.891-10.932 10.931-10.932 6.032 0 10.928 4.896 10.928 10.932z" fill="url(#paint9_linear_1119_4167)"/><path d="M681.019 90.015c0 6.036-4.891 10.932-10.932 10.932-6.035 0-10.927-4.892-10.927-10.932 0-6.036 4.892-10.932 10.927-10.932 6.036 0 10.932 4.896 10.932 10.932z" fill="url(#paint10_linear_1119_4167)"/><path d="M694.449 115.366c6.035 0 10.927-4.892 10.927-10.927 0-6.035-4.892-10.928-10.927-10.928-6.035 0-10.928 4.893-10.928 10.928 0 6.035 4.893 10.927 10.928 10.927z" fill="url(#paint11_linear_1119_4167)"/><path d="M687.857 81.64s-1.044 9.473-11.256 8.922l-.843 4.039s10.325-4.509 11.807 9.705c3.51-2.183 6.451-6.245 6.451-6.245s-9.984-6.989-.046-12.61c-2.585-.61-6.113-3.81-6.113-3.81z" fill="url(#paint12_linear_1119_4167)"/><path d="M718.012 243.754c26.96 0 48.815-21.855 48.815-48.815 0-26.96-21.855-48.815-48.815-48.815-26.96 0-48.815 21.855-48.815 48.815 0 26.96 21.855 48.815 48.815 48.815z" fill="url(#paint13_linear_1119_4167)"/><path d="M718.012 242.131c26.064 0 47.193-21.129 47.193-47.192 0-26.064-21.129-47.192-47.193-47.192-26.063 0-47.192 21.128-47.192 47.192 0 26.063 21.129 47.192 47.192 47.192z" fill="url(#paint14_linear_1119_4167)"/><path opacity=".78" d="M679.101 176.357a1.024 1.024 0 01-.912-1.486c7.636-15.126 22.898-24.521 39.83-24.521 2.698 0 5.406.241 8.041.724a1.024 1.024 0 01-.364 2.015 42.786 42.786 0 00-7.677-.688c-16.157 0-30.717 8.967-38.002 23.4a1.034 1.034 0 01-.916.556z" fill="#fff"/><path opacity=".66" d="M757.137 208.034c6.647-21.034-5.016-43.475-26.051-50.121-21.034-6.647-43.475 5.016-50.121 26.051-6.647 21.034 5.017 43.475 26.051 50.121 21.035 6.647 43.475-5.016 50.121-26.051z" fill="#fff"/><path d="M738.778 199.215c-2.024-1.883-4.814-3.018-8.242-3.406-.018 0-.027-.013-.027-.032v-.068c0-.014.009-.027.023-.032 2.735-.684 4.235-1.901 5.972-3.642 1.741-1.751 2.676-3.789 2.676-6.123 0-3.218-1.5-5.712-4.363-7.481-2.416-1.495-5.197-2.356-9.204-2.589a.502.502 0 01-.474-.506v-7.982a.508.508 0 00-.506-.506h-3.67a.508.508 0 00-.506.506v8.073a.508.508 0 01-.506.506h-4.222a.508.508 0 01-.506-.506v-8.073a.508.508 0 00-.506-.506h-3.669a.507.507 0 00-.506.506v8.073a.508.508 0 01-.507.506H699.35a.508.508 0 00-.506.506v4.08c0 .278.228.506.506.506h6.008c.278 0 .506.228.506.506V213a.508.508 0 01-.506.506h-6.008a.508.508 0 00-.506.506v4.632c0 .278.228.506.506.506h10.685c.279 0 .507.228.507.506v8.347c0 .278.227.506.506.506h3.669a.508.508 0 00.506-.506v-8.347c0-.278.228-.506.506-.506h4.222c.278 0 .506.228.506.506v8.347c0 .278.228.506.506.506h3.67a.508.508 0 00.506-.506v-8.497c0-.274.214-.493.487-.506 4.737-.187 8.671-1.336 11.529-3.456 3.132-2.32 4.682-5.466 4.682-9.423 0-2.712-1.03-5.014-3.059-6.906zm-17.906-16.12c5.238 0 7.859 1.523 7.859 4.7 0 1.71-.638 3.05-1.915 4.025-1.276.976-3.027 1.464-5.242 1.464h-5.836a.508.508 0 01-.506-.506v-9.172c0-.278.228-.506.506-.506h5.134v-.005zm7.64 27.407c-1.409 1.044-3.36 1.632-5.844 1.632h-6.934a.508.508 0 01-.506-.506v-10.549c0-.278.228-.506.506-.506h6.998c2.484 0 4.422.433 5.812 1.418 1.386.985 2.083 2.494 2.083 4.226 0 1.81-.706 3.237-2.115 4.285z" fill="url(#paint15_linear_1119_4167)"/><path d="M780.637 164.209c19.754 0 35.768-16.014 35.768-35.768s-16.014-35.768-35.768-35.768-35.768 16.014-35.768 35.768 16.014 35.768 35.768 35.768z" fill="url(#paint16_linear_1119_4167)"/><path d="M780.637 163.019c19.097 0 34.578-15.481 34.578-34.578s-15.481-34.578-34.578-34.578-34.578 15.481-34.578 34.578 15.481 34.578 34.578 34.578z" fill="url(#paint17_linear_1119_4167)"/><path opacity=".78" d="M752.126 115.102a1.024 1.024 0 01-.912-1.486c5.639-11.174 16.918-18.117 29.427-18.117 1.997 0 3.998.178 5.94.534a1.024 1.024 0 01-.365 2.015 31.152 31.152 0 00-5.575-.502c-11.734 0-22.306 6.51-27.599 16.995a1.037 1.037 0 01-.916.561z" fill="#fff"/><path opacity=".66" d="M807.105 143.245c7.743-14.188 2.517-31.967-11.671-39.709-14.189-7.743-31.968-2.517-39.71 11.671-7.742 14.189-2.517 31.967 11.672 39.71 14.188 7.742 31.967 2.517 39.709-11.672z" fill="#fff"/><path d="M781.393 109.463c-10.668 0-19.311 8.648-19.311 19.311 0 1.518.187 3.068.524 4.481.119.497.561.926 1.072.926h4.102c.238 0 1.19-.351 1.19-.593v-14.465c0-.182-.269-.342-.1-.414.169-.069.169-.032.296.095l11.63 11.721a.753.753 0 001.094 0l10.731-10.759c.128-.128.392-.164.561-.096.168.069.346.233.346.415v13.125c0 .447.196.966.643.966h5.156a.81.81 0 00.789-.633c.383-1.728.597-3.068.597-4.696-.009-10.658-8.657-19.384-19.32-19.384z" fill="url(#paint18_linear_1119_4167)"/><path d="M797.586 137.253h-6.2c-.447 0-.939-.82-.939-1.267v-9.204c0-.182-.041-.342-.21-.415a.4.4 0 00-.456.096l-8.224 8.237a.438.438 0 01-.624 0l-9.2-9.204a.419.419 0 00-.469-.095c-.169.068-.26.232-.26.414v9.879c0 .607-.524 1.555-1.131 1.555h-4.235c-.392 0-.756-.018-.952.323-.197.342-.197.648.004.985 3.342 5.762 9.56 9.815 16.699 9.815 7.276 0 13.599-4.335 16.89-9.901a.807.807 0 00.004-.812.79.79 0 00-.697-.406z" fill="url(#paint19_linear_1119_4167)"/><path d="M69.225 368.08s-33.949 18.81-36.762 50.639c-2.808 31.829-.232 163.946 67.848 196.463C168.391 647.7 258.509 640.205 293 636.65c34.496-3.556 53.62-26.997 57.892-43.14 4.271-16.142 11.173-76.268-25.114-95.665-36.288-19.393-74.399-49.107-112.483-78.041-38.084-28.935-103.351-76.163-144.07-51.724z" fill="url(#paint20_linear_1119_4167)"/><path d="M315.078 508.822s-9.163.484-10.289 19.338c0 0 21.248 19.047 49.95 23.583 2.157.342-3.013-14.711-3.788-16.749-3.697-9.701-15.336-15.951-35.873-26.172z" fill="url(#paint21_linear_1119_4167)"/><path d="M211.882 486.653h9.2a23.495 23.495 0 0016.886-7.144c15.23-15.718 53.3-52.717 83.393-62.91 4.896-1.66 10.243.697 12.436 5.374 6.282 13.403 15.094 44.594-5.776 91.804-2.311 5.229-8.871 7.454-13.631 4.276a7.695 7.695 0 01-2.931-3.578l2.293-55.179s-50.625 44.279-59.423 52.822c-8.803 8.548-53.529 3.342-42.447-25.465z" fill="url(#paint22_linear_1119_4167)"/><path d="M398.828 624.272c-8.101-7.102-21.016-15.066-39.652-17.35l-6.305 3.857s4.021 5.93 11.361 12.19c6.746 3.92 17.168 9.227 25.807 10.38 8.401 1.117 9.641-3.962 8.789-9.077z" fill="url(#paint23_linear_1119_4167)"/><path d="M350.951 534.99c-4.992 1.613-7.189 8.689-19.853 4.011-12.254-4.522-21.367-10.362-26.054-13.726a55.63 55.63 0 00-.255 2.881s22.402 21.308 51.108 25.844c2.156.341 3.861-1.81 3.086-3.848-1.395-3.656-3.906-9.204-8.032-15.162z" fill="url(#paint24_linear_1119_4167)"/><path d="M404.93 630.335a66.806 66.806 0 00-6.104-6.063c.853 5.115-.387 10.194-8.785 9.072-8.638-1.149-19.06-6.46-25.807-10.38 8.457 7.212 21.326 14.87 37.574 14.419 3.601-.096 5.507-4.34 3.122-7.048z" fill="url(#paint25_linear_1119_4167)"/><path d="M218.875 427.435s14.871 42.834 43.855 10.235l2.758-1.227 20.775-14.2-2.316 8.224a15.395 15.395 0 01-8.949 10.052l-2.735 1.126c-5.206 10.827-16.371 27.229-33.553 30.338-25.793 4.668-39.022-30.179-39.022-30.179l19.187-14.369z" fill="url(#paint26_linear_1119_4167)"/><path d="M212.589 500.644l90.551.98s51.709 42.784 61.091 108.024c0 0 1.559 4.801-7.791 5.621 0 0-31.263-20.419-51.65-56.519-24.996-44.266-74.517-24.339-74.517-24.339-16.271-11.73-39.265-14.119-56.584-18.03l38.9-15.737z" fill="url(#paint27_linear_1119_4167)"/><path d="M219.95 499.846s-11.086-30.133-13.466-59.414c0 0 8.11-6.97 13.179-9.974a3.666 3.666 0 001.432-4.751c-3.725-7.718-26.263-38.033-27.955-38.457-9.176-2.289-46.809-20.182-73.313 16.069-11.374 15.559 2.256 63.458 53.861 113.057l10.645 2.038 35.617-18.568z" fill="url(#paint28_linear_1119_4167)"/><path d="M159.27 361.67l-6.738 22.475a2.468 2.468 0 00.962 2.753c3.246 2.221 11.725 6.643 23.354 2.348 1.331-.492 2.243-1.732 2.357-3.145l1.596-19.58-21.531-4.851z" fill="url(#paint29_linear_1119_4167)"/><path d="M198.73 343.472s-3.314 23.3-12.263 30.462c-8.948 7.166-26.386 1.768-32.276-15.796l11.735-30.034 32.804 15.368z" fill="url(#paint30_linear_1119_4167)"/><path d="M164.603 347.543a1.155 1.155 0 001.5-.925c.324-2.152 1.13-6.405 2.762-9.305 0 0-.852-3.059 7.727 1.559 8.58 4.618 21.463 11.402 29.053 7.363 7.395-3.939 14.889-23.756-4.659-20.086a1.153 1.153 0 01-1.372-1.208c.242-3.26-.082-10.75-7.672-13.157-7.103-2.252-10.991.953-12.591 2.89a1.15 1.15 0 01-1.797-.027c-2.129-2.776-7.904-8.689-16.411-4.942-7.007 3.087-8.096 7.404-7.978 10.089a1.15 1.15 0 01-1.636 1.099c-2.148-.99-5.599-1.5-8.904 2.639-4.568 5.726 1.961 10.69 3.921 11.994.319.214.52.565.524.953.018 2.977.483 15.969 6.993 23.295.565.634 1.605.447 1.933-.333l5.015-11.944a1.16 1.16 0 011.422-.656l2.17.702z" fill="url(#paint31_linear_1119_4167)"/><path d="M164.709 349.968s-3.059-12.468-7.709-8.42c-4.65 4.048 1.213 12.956 6.537 14.656l1.172-6.236z" fill="url(#paint32_linear_1119_4167)"/><path d="M206.484 441.293a.854.854 0 01-.857-.861c.046-13.389-5.128-31.173-5.178-31.351a.854.854 0 01.583-1.062.864.864 0 011.067.584c.054.182 5.292 18.203 5.247 31.838a.868.868 0 01-.862.852z" fill="url(#paint33_linear_1119_4167)"/><path d="M172.126 452.358a.86.86 0 01-.784-.511c-.379-.853-9.3-21.066-10.95-34.186a.855.855 0 01.743-.957.845.845 0 01.957.743c1.618 12.869 10.727 33.497 10.818 33.707a.858.858 0 01-.784 1.204z" fill="url(#paint34_linear_1119_4167)"/><path d="M146.049 474.012l-.552-.424c-17.651-13.567-23.824-40.341-23.883-40.61a.86.86 0 01.647-1.025.868.868 0 011.026.652c.059.259 5.977 25.889 22.712 39.2l2.548-2.165a.857.857 0 011.113 1.304l-3.611 3.068z" fill="url(#paint35_linear_1119_4167)"/><path d="M296.63 411.306l1.458 1.997a2.124 2.124 0 01-.519 3.009l-32.727 22.356a2.123 2.123 0 01-2.754-.306 2.13 2.13 0 01.246-3.131l31.273-24.353a2.128 2.128 0 013.023.428z" fill="url(#paint36_linear_1119_4167)"/><path d="M272.758 477.585c1.614.128 2.877 1.728 2.863 3.656-.037 6.374-1.158 19.617-9.601 22.179-10.544 3.205-22.52-1.883-19.694-23.619.315-2.412 2.088-4.171 4.126-4.007l22.306 1.791z" fill="url(#paint37_linear_1119_4167)"/><path d="M251.394 496.09s-54.787 0-82.619-43.24l-16.347 14.948s32.727 56.068 94.338 35.057c0 0 14.228 2.936 22.247.711 4.504-1.249 6.948-5.274 8.224-8.566.734-1.892-1.108-3.765-3.027-3.104-5.68 1.955-15.76 4.923-22.816 4.194z" fill="url(#paint38_linear_1119_4167)"/><path d="M248.543 482.673s-3.323-8.967-9.022-2.466c-5.698 6.501 3.561 11.488 9.022 12.199v-2.366s-6.378-2.858-5.562-6.66c.816-3.798 5.562.948 5.562.948v-1.655z" fill="url(#paint39_linear_1119_4167)"/><path d="M269.445 439.821c-1.942.607-3.797 1.537-5.293 2.868-1.504 1.317-2.584 3.077-2.954 5.037-.392 1.951.023 3.994 1.272 5.575 1.222 1.614 2.991 2.827 4.664 4.176 1.691 1.345 3.273 3.027 4.012 5.17.355 1.067.424 2.266.059 3.351-.356 1.089-1.108 1.996-1.979 2.657-1.75 1.363-3.87 1.951-5.735 2.927-.93.502-1.818 1.094-2.539 1.869-.729.757-1.217 1.76-1.258 2.817 0 .023-.023.041-.046.041-.022 0-.041-.022-.041-.045.01-1.085.479-2.143 1.204-2.945.711-.821 1.609-1.454 2.535-1.997 1.882-1.057 3.952-1.714 5.566-3.059.802-.652 1.436-1.49 1.718-2.452.288-.962.201-1.993-.15-2.941-.725-1.91-2.238-3.451-3.907-4.686-1.677-1.272-3.542-2.439-4.983-4.203-1.481-1.737-2.092-4.231-1.691-6.483.347-2.27 1.559-4.381 3.219-5.926 1.654-1.568 3.679-2.653 5.78-3.387a.863.863 0 011.094.528.864.864 0 01-.529 1.095c0 .009-.013.013-.018.013z" fill="url(#paint40_linear_1119_4167)"/><path d="M258.313 455.056c.638 1.614 2.589 2.736 3.806 4.755.597.971.976 2.33.547 3.57-.41 1.235-1.34 2.065-2.243 2.685-1.855 1.217-3.943 1.75-4.928 3.337-.957 1.486-.273 3.893 1.386 4.677a.417.417 0 01.205.561.43.43 0 01-.56.21c-2.17-.99-3.146-3.839-1.947-5.991 1.263-2.106 3.606-2.712 5.106-3.847.779-.561 1.436-1.263 1.65-2.047.237-.775 0-1.614-.497-2.384-.93-1.573-2.977-2.576-4.089-4.837a.86.86 0 011.536-.771c.005.032.019.06.028.082z" fill="url(#paint41_linear_1119_4167)"/><path d="M854.719 531.165h-7.918v85.654h7.918v-85.654z" fill="url(#paint42_linear_1119_4167)"/><path d="M885.445 618.469h-69.371v-3.961c0-.661.534-1.195 1.195-1.195h66.981c.661 0 1.195.534 1.195 1.195v3.961z" fill="url(#paint43_linear_1119_4167)"/><path d="M895.743 528.192c0 4.687-3.834 8.516-8.515 8.516h-70.187c-4.686 0-8.516-3.834-8.516-8.516v-7.699c0-4.687 3.834-8.516 8.516-8.516h70.187c4.686 0 8.515 3.834 8.515 8.516v7.699z" fill="url(#paint44_linear_1119_4167)"/><path d="M792.288 474.053s-11.771 1.823-25 10.672c-2.084 1.39-3.223 3.82-2.913 6.304 1.586 12.551 8.1 53.174 29.581 92.853a9.988 9.988 0 01.958 6.852l-3.734 17.369-6.92 6.491h17.829l11.871-32.125-5.078-1.605a9.598 9.598 0 01-6.706-8.99l-.598-34.459c.506-15.354-9.413-25.944-9.413-25.944l28.474-1.386-28.351-36.032z" fill="url(#paint45_linear_1119_4167)"/><path d="M777.302 617.726c-1.623 2.125 17.474 4.928 27.125.283 0 0 13.375-23.272 13.375-35.253 0 0-1.062-2.443-8.917-1.887 0 0-4.49 27.558-9.231 30.644-4.741 3.086-13.266.314-13.266.314s-6.692 2.763-9.086 5.899z" fill="url(#paint46_linear_1119_4167)"/><path d="M817.037 511.973c-.15-.26-30.653-3.67-30.653-3.67s.999 9.272-2.12 22.041c-3.118 12.769-47.907 68.085-47.907 68.085l4.695 14.889c-14.52 5.056-28.802 5.867-42.857 2.576l29.103-17.465s27.239-92.816 43.919-109.373l30.576-10.577 15.244 33.494z" fill="url(#paint47_linear_1119_4167)"/><path d="M885.445 457.965s17.573 26.14 19.014 38.065c1.441 11.926-4.814 16.767-23.254 17.57-18.44.797-67.67.784-67.67.784l-42.014-35.909s30.617-10.928 38.581-14.014c7.964-3.091 75.343-6.496 75.343-6.496z" fill="url(#paint48_linear_1119_4167)"/><path d="M739.278 608.303s5.056 4.896 1.641 10.344c0 0-40.048 7.098-50.921 3.88 0 0 2.257-5.152 14.501-11.019l-.902.693c-1.144.875-.474 2.708.966 2.626 8.065-.465 24.763-1.942 34.715-6.524z" fill="url(#paint49_linear_1119_4167)"/><path d="M837.918 454.505s-20.464-19.488-30.539-32.394c-5.443-6.975-7.157-16.161-4.636-24.645 4.599-15.495 12.773-31.542 13.516-34.04 1.145-3.829 24.089-3.67 24.089-3.67s45.154 29.309 62.897 78.949l-19.926 6.204s-11.789-19.78-23.442-32.358c0 0 20.159 26.628 20.866 37.528l-42.825 4.426z" fill="url(#paint50_linear_1119_4167)"/><path d="M813.484 342.023c.242.797 6.228 20.651 6.697 21.061.47.41 13.134 1.094 19.097-2.981l-10.116-21.176-15.678 3.096z" fill="url(#paint51_linear_1119_4167)"/><path d="M823.322 300.319s-10.813 4.568-18.167 20.191c-7.353 15.623-1.859 22.839 5.033 23.828 6.898.99 17.21.839 28.119-9.254 10.913-10.093-.93-40.176-14.985-34.765z" fill="url(#paint52_linear_1119_4167)"/><path d="M830.981 326.742s8.155-22.858-12.108-23.131l-4.769 3.332s-7.435-12.673 4.769-18.723c12.204-6.049 30.416-.661 35.608 15.778 5.193 16.444 2.152 27.061-6.487 34.929-8.639 7.869-12.204-1.053-12.204-1.053s4.705-7.358 2.79-11.296c-1.914-3.939-6.332.816-6.332.816l-1.267-.652z" fill="url(#paint53_linear_1119_4167)"/><path d="M833.252 329.29s4.126-11.775 9.628-7.084c5.502 4.691-4.472 10.877-8.374 12.883l-1.254-5.799z" fill="url(#paint54_linear_1119_4167)"/><path d="M796.225 455.95l15.034-14.492 20.802 8.789s20.706 3.209 32.554 0l11.848-3.209 26.778-8.338 4.208 11.884a7.158 7.158 0 01-2.617 8.224c-2.316 1.646-5.033 3.456-6.765 4.213-3.529 1.54-86.935-1.067-86.935-1.067l-14.907-6.004z" fill="url(#paint55_linear_1119_4167)"/><path d="M852.89 306.578c-2.608-2.662-.912-7.157 2.767-7.731 11.88-1.851 29.997.036 37.605 25.469 8.571 28.648 14.151 42.971 19.876 45.488 3.761 1.65 4.003 6.87.256 8.552-2.772 1.244-6.734 1.687-12.409.437-43.782-9.632-32.81-56.596-48.095-72.215z" fill="url(#paint56_linear_1119_4167)"/><path d="M853.128 462.783c-.068.005-.132.005-.201.005l-87.222-.096a3.905 3.905 0 01-3.902-3.907c0-2.156 1.759-3.939 3.907-3.902l87.222.096a3.904 3.904 0 013.902 3.906 3.898 3.898 0 01-3.706 3.898z" fill="url(#paint57_linear_1119_4167)"/><path d="M687.295 383.589h72.64a13.846 13.846 0 0112.522 7.941l33.58 71.208h-90.272a8.425 8.425 0 01-7.828-5.32l-26.039-65.892c-1.5-3.811 1.304-7.937 5.397-7.937z" fill="url(#paint58_linear_1119_4167)"/><path d="M738.471 420.1c1.573 4.891.411 9.642-2.598 10.608-3.009.967-6.724-2.211-8.297-7.102-1.573-4.892-.41-9.642 2.598-10.609 3.009-.966 6.725 2.211 8.297 7.103z" fill="#91B3FA"/><path d="M975.037 465.97a3.222 3.222 0 00-.757-2.79c-.684-.775-1.7-1.226-2.776-1.226h-363.98c-1.413 0-2.73.674-3.491 1.791a3.67 3.67 0 00-.269 3.72l3.943 8.001c.902 1.832 2.858 3.004 5.014 3.004h356.285c2.001 0 3.724-1.331 4.107-3.178l1.924-9.322z" fill="url(#paint59_linear_1119_4167)"/><path d="M627.925 634.625c-.42 0-.848-.087-1.263-.269-1.618-.711-2.371-2.635-1.673-4.294l66.991-159.338c.697-1.659 2.575-2.42 4.198-1.709 1.619.711 2.371 2.635 1.673 4.294l-66.99 159.342a3.196 3.196 0 01-2.936 1.974z" fill="url(#paint60_linear_1119_4167)"/><path d="M703.391 634.625a3.192 3.192 0 01-2.936-1.979l-66.991-159.337c-.697-1.659.05-3.578 1.673-4.294 1.619-.716 3.497.05 4.199 1.709l66.991 159.338c.697 1.659-.05 3.578-1.673 4.294a3.029 3.029 0 01-1.263.269z" fill="url(#paint61_linear_1119_4167)"/><path d="M891.726 634.625c-.42 0-.848-.087-1.259-.269-1.623-.711-2.37-2.635-1.673-4.294l66.991-159.338c.698-1.659 2.576-2.42 4.199-1.709 1.618.711 2.37 2.635 1.673 4.294l-66.996 159.342a3.194 3.194 0 01-2.935 1.974z" fill="url(#paint62_linear_1119_4167)"/><path d="M967.192 634.625a3.188 3.188 0 01-2.936-1.979l-66.991-159.337c-.697-1.659.05-3.578 1.673-4.294 1.619-.716 3.497.05 4.199 1.709l66.99 159.338c.698 1.659-.05 3.578-1.673 4.294a3.05 3.05 0 01-1.262.269z" fill="url(#paint63_linear_1119_4167)"/><path d="M769.72 34.836l4.185-.15a.831.831 0 01.862.802.832.832 0 01-.803.862h-.013l-4.14.15h-.027a.828.828 0 01-.861-.802.83.83 0 01.797-.862zm8.357-.232l4.171-.032a.827.827 0 11.014 1.655h-.009l-4.153.036h-.009a.83.83 0 01-.839-.825c0-.456.369-.83.825-.834zm8.347-.018l4.171.054a.826.826 0 11-.023 1.655h-.009l-4.158-.05h-.009a.831.831 0 01.028-1.66zm8.342.145l4.172.133a.824.824 0 01-.051 1.645h-.009l-4.153-.127h-.009a.825.825 0 01.05-1.65zm8.339.301l4.167.21c.451.023.802.41.779.862a.824.824 0 01-.862.78h-.009l-4.148-.206h-.009a.824.824 0 01.082-1.646zm8.327.461l4.162.287a.823.823 0 01.762.87.823.823 0 01-.871.762h-.009l-4.149-.287h-.009a.82.82 0 01-.761-.876.82.82 0 01.875-.756zm8.325.62l4.158.37a.817.817 0 01.738.884.817.817 0 01-.884.738h-.009l-4.14-.365h-.009a.82.82 0 01-.743-.884.824.824 0 01.889-.743zm8.311.779l4.148.456a.815.815 0 01-.177 1.618h-.01l-4.134-.451h-.009a.814.814 0 01-.721-.898.825.825 0 01.903-.725zm8.292.958l4.134.547a.81.81 0 01-.209 1.604h-.009l-4.117-.542h-.009a.813.813 0 01-.698-.912.809.809 0 01.908-.697zm8.27 1.14l4.125.642a.807.807 0 11-.246 1.596h-.009l-4.107-.639h-.009a.807.807 0 01-.675-.92.805.805 0 01.921-.68zm8.247 1.33l4.112.743a.8.8 0 01.647.935.8.8 0 01-.934.647h-.01l-4.089-.739h-.009a.807.807 0 01.283-1.586zm8.211 1.546l4.089.857a.801.801 0 01-.328 1.568h-.009l-4.067-.848-.009-.004a.801.801 0 01-.62-.949.79.79 0 01.944-.624zm8.164 1.774l4.062.98a.796.796 0 11-.374 1.55l-.014-.005-4.039-.971-.013-.005a.805.805 0 01-.593-.966.81.81 0 01.971-.584zm8.109 2.023l4.03 1.113a.796.796 0 11-.424 1.536l-.014-.005-4.002-1.103-.014-.005a.796.796 0 11.424-1.536zm8.037 2.293l3.989 1.259a.793.793 0 11-.474 1.514l-.014-.005-3.961-1.245-.014-.004a.796.796 0 01.474-1.519zm7.951 2.594l3.935 1.422a.79.79 0 11-.538 1.487l-.014-.005-3.902-1.409-.019-.004a.796.796 0 01-.478-1.012.802.802 0 011.016-.479zm7.84 2.932l3.866 1.6a.794.794 0 01.429 1.03.793.793 0 01-1.031.428l-.018-.009-3.834-1.581-.018-.01a.794.794 0 01-.429-1.03.798.798 0 011.035-.428zm7.696 3.3l3.779 1.8a.786.786 0 11-.679 1.418l-.018-.009-3.743-1.782-.018-.01a.788.788 0 01-.374-1.048.796.796 0 011.053-.37zm7.508 3.715l3.67 2.025a.78.78 0 01.305 1.062.78.78 0 01-1.062.305l-.023-.014-3.628-2-.023-.014a.785.785 0 01-.31-1.063.794.794 0 011.071-.3zm7.271 4.171l3.524 2.275a.78.78 0 01-.844 1.309l-.023-.014L922.843 66l-.023-.014a.78.78 0 01-.232-1.08.777.777 0 011.076-.238zm6.971 4.682l3.346 2.512a.777.777 0 11-.934 1.245l-.01-.01-3.323-2.488-.018-.014a.778.778 0 01-.155-1.09.784.784 0 011.094-.154zm6.648 5.079l3.25 2.63a.774.774 0 11-.976 1.204l-.013-.01-3.228-2.607-.014-.01a.776.776 0 01-.114-1.089.777.777 0 011.095-.118zm6.446 5.325l3.141 2.762a.772.772 0 11-1.022 1.158l-.013-.009-3.118-2.74-.014-.009a.775.775 0 011.026-1.162zm6.217 5.602l3.004 2.913a.77.77 0 01.019 1.085.77.77 0 01-1.085.019l-.014-.014-2.977-2.886-.014-.013a.771.771 0 01-.018-1.09.77.77 0 011.085-.014zm5.932 5.908l2.84 3.082a.764.764 0 01-1.126 1.035l-.014-.018-2.808-3.046-.014-.018a.765.765 0 01.046-1.085.768.768 0 011.076.05zm5.579 6.255l2.63 3.264a.76.76 0 01-.114 1.071.76.76 0 01-1.071-.114l-.018-.022-2.599-3.223-.018-.023a.767.767 0 01.114-1.076.772.772 0 011.076.123zm5.142 6.628l2.37 3.469a.765.765 0 01-.196 1.058.76.76 0 01-1.057-.201l-.019-.027-2.338-3.414-.018-.028a.76.76 0 01.196-1.057.766.766 0 011.062.2zm4.586 7.044l2.038 3.679c.2.364.068.825-.297 1.03a.762.762 0 01-1.03-.296l-.018-.032-2.001-3.611-.019-.032a.753.753 0 01.297-1.03.749.749 0 011.03.292zm3.879 7.458l1.618 3.889a.753.753 0 01-1.39.579l-.018-.041-1.587-3.802-.018-.041a.761.761 0 01.406-.99.761.761 0 01.989.406zm2.995 7.873l1.103 4.066a.749.749 0 01-.529.921.749.749 0 01-.92-.529l-.014-.05-1.081-3.966-.013-.05a.754.754 0 01.529-.926.76.76 0 01.925.534zm1.915 8.205l.501 4.194a.75.75 0 11-1.491.178l-.004-.055-.493-4.08-.009-.054a.75.75 0 01.657-.835.752.752 0 01.839.652zm.68 8.416l-.155 4.221a.742.742 0 01-.775.716.741.741 0 01-.715-.775v-.059l.15-4.103v-.06a.75.75 0 01.775-.72c.41.018.734.365.72.78zm-.648 8.415l-.811 4.144a.746.746 0 01-.871.588.746.746 0 01-.588-.871l.009-.054.784-4.03.009-.055a.744.744 0 01.876-.588c.406.077.67.46.592.866zm-1.923 8.211l-1.399 3.975a.739.739 0 11-1.395-.493l.018-.045 1.363-3.88.018-.05a.746.746 0 01.944-.456.746.746 0 01.451.949zm-3.06 7.845l-1.896 3.761a.738.738 0 01-1.318-.661l.018-.036 1.851-3.684.018-.041a.742.742 0 01.994-.328.734.734 0 01.333.989zm-4.003 7.404l-2.294 3.519a.73.73 0 01-1.016.214.73.73 0 01-.214-1.016l.018-.032 2.247-3.46.023-.032a.736.736 0 011.021-.214.737.737 0 01.215 1.021zm-4.746 6.924l-2.603 3.292a.733.733 0 01-1.149-.912l.019-.023 2.562-3.246.018-.023a.733.733 0 011.03-.123.739.739 0 01.123 1.035zm-5.337 6.469l-2.85 3.077a.728.728 0 11-1.071-.989l.018-.018 2.813-3.041.018-.018a.733.733 0 011.035-.041c.292.273.31.734.037 1.03zm-5.793 6.054l-3.041 2.881a.723.723 0 01-1.026-.027.723.723 0 01.028-1.026l.013-.013 3.004-2.854.019-.014a.728.728 0 011.003 1.053zm-6.101 5.703l-3.027 2.854-.004.004a.727.727 0 01-.999-1.057l3.036-2.868a.725.725 0 11.999 1.053l-.005.014zm-6.012 5.749l-2.945 2.936-.009.009a.72.72 0 01-1.021 0 .72.72 0 010-1.021l2.958-2.954a.721.721 0 111.022 1.021l-.005.009zm-5.837 5.917l-2.826 3.041-.009.014a.72.72 0 01-1.053-.981l2.849-3.063a.716.716 0 011.017-.036c.291.268.31.724.036 1.016l-.014.009zm-5.579 6.145l-2.663 3.177-.013.019a.717.717 0 01-1.008.091.72.72 0 01-.091-1.008l2.69-3.214a.722.722 0 011.012-.091.721.721 0 01.091 1.012l-.018.014zm-5.216 6.442l-2.416 3.36-.019.027a.713.713 0 01-1.158-.83l2.449-3.41a.718.718 0 01.998-.164.718.718 0 01.164.998l-.018.019zm-4.657 6.824l-2.029 3.588-.023.041a.709.709 0 11-1.235-.698l2.069-3.67a.712.712 0 111.24.703l-.022.036zm-3.785 7.304l-1.423 3.847-.022.064a.711.711 0 01-.908.419.711.711 0 01-.419-.907l1.468-3.975a.709.709 0 111.331.492l-.027.06zm-2.443 7.808a35.583 35.583 0 00-.57 4.039.709.709 0 01-.761.648.708.708 0 01-.647-.762 35.95 35.95 0 01.588-4.203.708.708 0 111.39.278zm-.666 8.124l.351 4.08.005.069a.699.699 0 01-.639.757.697.697 0 01-.756-.639l-.365-4.221a.701.701 0 01.638-.761.7.7 0 01.761.638l.005.077zm1.09 8.114l1.049 3.985.009.045a.694.694 0 01-.497.853.693.693 0 01-.852-.497l-1.076-4.076a.701.701 0 011.354-.36l.013.05zm2.329 7.91l1.449 3.88.009.023a.698.698 0 11-1.308.487l-1.468-3.925a.698.698 0 011.308-.488l.01.023zm3.009 7.727l1.628 3.825.004.009a.696.696 0 01-.364.912.697.697 0 01-.912-.365l-1.637-3.838a.695.695 0 011.277-.547l.004.004zm3.286 7.65l1.486 3.939a.689.689 0 11-1.29.487l-.013-.041-1.455-3.852-.018-.045a.695.695 0 01.401-.894.69.69 0 01.889.406zm2.731 7.95l1.049 4.062a.689.689 0 01-1.331.347l-.009-.028-1.035-4.002-.009-.032a.688.688 0 01.497-.839.684.684 0 01.838.492zm1.93 8.16l.72 4.126a.687.687 0 01-.556.793.688.688 0 01-.794-.556l-.004-.023-.711-4.075-.005-.028a.687.687 0 01.561-.793.681.681 0 01.789.556zm1.285 8.279l.42 4.167a.684.684 0 01-1.359.137v-.023l-.419-4.121v-.023a.69.69 0 01.611-.752.687.687 0 01.747.615zm.693 8.342l.132 4.185a.68.68 0 01-1.359.046v-.023l-.132-4.139v-.023a.677.677 0 01.661-.702.671.671 0 01.698.656zm.123 8.375l-.155 4.185a.677.677 0 01-1.354-.051v-.022l.15-4.14v-.022a.678.678 0 01.702-.652.672.672 0 01.657.702zm-.457 8.361l-.446 4.167a.675.675 0 01-1.341-.146l.005-.023.437-4.117.005-.022a.681.681 0 01.743-.602.67.67 0 01.597.743zm-1.038 8.31l-.739 4.121a.673.673 0 01-.78.543.673.673 0 01-.542-.78l.005-.023.729-4.075.004-.023a.668.668 0 01.78-.542.668.668 0 01.543.779zm-1.629 8.215l-1.04 4.057a.67.67 0 11-1.299-.332l.004-.023 1.022-4.012.004-.023a.67.67 0 01.816-.483.666.666 0 01.493.816zm-2.221 8.074l-1.335 3.97a.665.665 0 11-1.263-.423l.009-.023 1.318-3.925.009-.023a.668.668 0 01.848-.42.67.67 0 01.414.844zm-2.821 7.886l-1.632 3.857a.66.66 0 01-.871.351.661.661 0 01-.351-.871l.009-.022 1.61-3.811.009-.023a.666.666 0 01.87-.356.674.674 0 01.356.875zm-3.409 7.654l-1.919 3.725a.66.66 0 11-1.172-.606l.01-.023 1.896-3.679.014-.023a.667.667 0 01.893-.287c.319.169.447.57.278.893zm-3.98 7.372l-2.197 3.569a.66.66 0 01-1.122-.693l.014-.022 2.17-3.529.014-.023a.665.665 0 01.907-.219.677.677 0 01.214.917zm-4.527 7.052l-2.457 3.397a.655.655 0 11-1.062-.771l.014-.018 2.425-3.355.013-.019a.653.653 0 01.917-.145c.296.209.365.62.15.911zm-5.027 6.697l-2.69 3.205a.656.656 0 01-.921.082.656.656 0 01-.082-.921l.014-.018 2.658-3.173.013-.018a.652.652 0 01.921-.082.653.653 0 01.087.925zm-5.495 6.314l-2.909 3.013a.654.654 0 01-.921.018.655.655 0 01-.018-.921l.014-.013 2.876-2.982.014-.013a.654.654 0 01.921-.019.645.645 0 01.023.917zm-5.917 5.922l-3.1 2.812a.649.649 0 11-.87-.962l.013-.013 3.068-2.786.014-.013a.648.648 0 01.916.045.645.645 0 01-.041.917zm-6.286 5.525l-3.269 2.612a.645.645 0 11-.807-1.008l.014-.013 3.237-2.59.013-.013a.646.646 0 01.908.1.646.646 0 01-.096.912zm-6.614 5.129l-3.415 2.416a.638.638 0 01-.893-.155.64.64 0 01.155-.894l.013-.009 3.383-2.398.014-.009a.643.643 0 01.743 1.049zm-6.894 4.736l-3.538 2.225a.636.636 0 01-.88-.201.64.64 0 01.201-.88l.014-.009 3.51-2.211.014-.009c.3-.187.692-.1.884.201a.647.647 0 01-.205.884zm-7.134 4.358l-3.647 2.043a.635.635 0 01-.867-.247.634.634 0 01.247-.866l.013-.009 3.62-2.033.014-.009a.632.632 0 01.866.246.65.65 0 01-.246.875zm-7.345 4.003l-3.738 1.869a.63.63 0 01-.848-.283.63.63 0 01.282-.848l.014-.004 3.711-1.86.014-.005a.636.636 0 01.852.283.636.636 0 01-.287.848zm-7.517 3.656l-3.812 1.705a.632.632 0 01-.515-1.153l.014-.005 3.788-1.696.014-.004a.63.63 0 11.511 1.153zm-7.658 3.332l-3.879 1.555a.628.628 0 11-.465-1.167l.009-.005 3.857-1.545.009-.005a.634.634 0 01.82.351.626.626 0 01-.351.816zM762.497 21.648l1.769 15.869-11.506-5.626 9.737-10.243z" fill="#7D97F4"/><path d="M690.131 20.48l47.032 32.82c.903.628 2.02.86 3.096.651a4.07 4.07 0 002.617-1.778L774.048 3.71a1.616 1.616 0 00-.041-1.81 1.617 1.617 0 00-1.691-.642L690.131 20.48z" fill="#91B3FA"/><path d="M762.492 21.653l-72.361-1.172 67.355 9.008.675 4.381 4.331-12.217z" fill="#7D97F4"/><path d="M754.482 34.111l9.784 3.406-6.779-8.028-3.005 4.622z" fill="#7D97F4"/><defs><linearGradient id="paint0_linear_1119_4167" x1="166.233" y1="30.579" x2="682.045" y2="475.558" gradientUnits="userSpaceOnUse"><stop stop-color="#DAE3FE"/><stop offset="1" stop-color="#E9EFFD"/></linearGradient><linearGradient id="paint1_linear_1119_4167" x1="477.675" y1="665.944" x2="500.928" y2="46.35" gradientUnits="userSpaceOnUse"><stop stop-color="#09005D"/><stop offset="1" stop-color="#1A0F91"/></linearGradient><linearGradient id="paint2_linear_1119_4167" x1="383.449" y1="595.373" x2="644.69" y2="-39.266" gradientUnits="userSpaceOnUse"><stop stop-color="#FE7062"/><stop offset="1" stop-color="#FF928E"/></linearGradient><linearGradient id="paint3_linear_1119_4167" x1="570.431" y1="164.578" x2="606.985" y2="122.15" gradientUnits="userSpaceOnUse"><stop stop-color="#E1473D"/><stop offset="1" stop-color="#E9605A"/></linearGradient><linearGradient id="paint4_linear_1119_4167" x1="627.641" y1="91.204" x2="519.551" y2="254.498" gradientUnits="userSpaceOnUse"><stop stop-color="#FE7062"/><stop offset="1" stop-color="#FF928E"/></linearGradient><linearGradient id="paint5_linear_1119_4167" x1="620.371" y1="112.72" x2="569.979" y2="158.531" gradientUnits="userSpaceOnUse"><stop stop-color="#FE7062"/><stop offset="1" stop-color="#FF928E"/></linearGradient><linearGradient id="paint6_linear_1119_4167" x1="617.784" y1="109.114" x2="565.608" y2="156.546" gradientUnits="userSpaceOnUse"><stop stop-color="#FE7062"/><stop offset="1" stop-color="#FF928E"/></linearGradient><linearGradient id="paint7_linear_1119_4167" x1="620.378" y1="164.327" x2="684.011" y2="90.467" gradientUnits="userSpaceOnUse"><stop stop-color="#E1473D"/><stop offset="1" stop-color="#E9605A"/></linearGradient><linearGradient id="paint8_linear_1119_4167" x1="719.969" y1="36.596" x2="531.803" y2="320.861" gradientUnits="userSpaceOnUse"><stop stop-color="#FE7062"/><stop offset="1" stop-color="#FF928E"/></linearGradient><linearGradient id="paint9_linear_1119_4167" x1="621.082" y1="116.433" x2="742.513" y2="49.919" gradientUnits="userSpaceOnUse"><stop stop-color="#FE7062"/><stop offset="1" stop-color="#FF928E"/></linearGradient><linearGradient id="paint10_linear_1119_4167" x1="621.26" y1="116.759" x2="742.691" y2="50.245" gradientUnits="userSpaceOnUse"><stop stop-color="#FE7062"/><stop offset="1" stop-color="#FF928E"/></linearGradient><linearGradient id="paint11_linear_1119_4167" x1="632.96" y1="138.12" x2="754.391" y2="71.606" gradientUnits="userSpaceOnUse"><stop stop-color="#FE7062"/><stop offset="1" stop-color="#FF928E"/></linearGradient><linearGradient id="paint12_linear_1119_4167" x1="626.571" y1="126.457" x2="748.003" y2="59.943" gradientUnits="userSpaceOnUse"><stop stop-color="#FE7062"/><stop offset="1" stop-color="#FF928E"/></linearGradient><linearGradient id="paint13_linear_1119_4167" x1="651.212" y1="272.474" x2="716.69" y2="196.472" gradientUnits="userSpaceOnUse"><stop stop-color="#E1473D"/><stop offset="1" stop-color="#E9605A"/></linearGradient><linearGradient id="paint14_linear_1119_4167" x1="753.69" y1="141.04" x2="560.07" y2="433.545" gradientUnits="userSpaceOnUse"><stop stop-color="#FE7062"/><stop offset="1" stop-color="#FF928E"/></linearGradient><linearGradient id="paint15_linear_1119_4167" x1="712.452" y1="219.314" x2="733.422" y2="147.286" gradientUnits="userSpaceOnUse"><stop stop-color="#FE7062"/><stop offset="1" stop-color="#FF928E"/></linearGradient><linearGradient id="paint16_linear_1119_4167" x1="731.695" y1="185.251" x2="779.67" y2="129.565" gradientUnits="userSpaceOnUse"><stop stop-color="#E1473D"/><stop offset="1" stop-color="#E9605A"/></linearGradient><linearGradient id="paint17_linear_1119_4167" x1="806.779" y1="88.95" x2="664.915" y2="303.266" gradientUnits="userSpaceOnUse"><stop stop-color="#FE7062"/><stop offset="1" stop-color="#FF928E"/></linearGradient><linearGradient id="paint18_linear_1119_4167" x1="824.566" y1="86.107" x2="708.422" y2="195.6" gradientUnits="userSpaceOnUse"><stop stop-color="#FE7062"/><stop offset="1" stop-color="#FF928E"/></linearGradient><linearGradient id="paint19_linear_1119_4167" x1="829.248" y1="90.536" x2="712.569" y2="200.533" gradientUnits="userSpaceOnUse"><stop stop-color="#FE7062"/><stop offset="1" stop-color="#FF928E"/></linearGradient><linearGradient id="paint20_linear_1119_4167" x1="-883.506" y1="1547.12" x2="-1381.05" y2="2030.94" gradientUnits="userSpaceOnUse"><stop stop-color="#4042E2"/><stop offset="1" stop-color="#4F52FF"/></linearGradient><linearGradient id="paint21_linear_1119_4167" x1="324.337" y1="526.739" x2="357.556" y2="561.434" gradientUnits="userSpaceOnUse"><stop stop-color="#09005D"/><stop offset="1" stop-color="#1A0F91"/></linearGradient><linearGradient id="paint22_linear_1119_4167" x1="272.898" y1="492.955" x2="306.793" y2="365.285" gradientUnits="userSpaceOnUse"><stop stop-color="#09005D"/><stop offset="1" stop-color="#1A0F91"/></linearGradient><linearGradient id="paint23_linear_1119_4167" x1="368.405" y1="613.824" x2="431.239" y2="659.941" gradientUnits="userSpaceOnUse"><stop stop-color="#09005D"/><stop offset="1" stop-color="#1A0F91"/></linearGradient><linearGradient id="paint24_linear_1119_4167" x1="398.429" y1="589.297" x2="266.226" y2="481.306" gradientUnits="userSpaceOnUse"><stop stop-color="#4042E2"/><stop offset="1" stop-color="#4F52FF"/></linearGradient><linearGradient id="paint25_linear_1119_4167" x1="434.289" y1="666.727" x2="302.087" y2="558.736" gradientUnits="userSpaceOnUse"><stop stop-color="#4042E2"/><stop offset="1" stop-color="#4F52FF"/></linearGradient><linearGradient id="paint26_linear_1119_4167" x1="286.269" y1="447.326" x2="199.693" y2="447.326" gradientUnits="userSpaceOnUse"><stop stop-color="#FF928E"/><stop offset="1" stop-color="#FEB3B1"/></linearGradient><linearGradient id="paint27_linear_1119_4167" x1="369.307" y1="526.354" x2="237.873" y2="575.93" gradientUnits="userSpaceOnUse"><stop stop-color="#09005D"/><stop offset="1" stop-color="#1A0F91"/></linearGradient><linearGradient id="paint28_linear_1119_4167" x1="183.73" y1="478.523" x2="252.077" y2="718.309" gradientUnits="userSpaceOnUse"><stop stop-color="#FE7062"/><stop offset="1" stop-color="#FF928E"/></linearGradient><linearGradient id="paint29_linear_1119_4167" x1="169.344" y1="349.196" x2="159.663" y2="448.558" gradientUnits="userSpaceOnUse"><stop stop-color="#FF928E"/><stop offset="1" stop-color="#FEB3B1"/></linearGradient><linearGradient id="paint30_linear_1119_4167" x1="-978.821" y1="35.571" x2="-919.714" y2="51.877" gradientUnits="userSpaceOnUse"><stop stop-color="#FF928E"/><stop offset="1" stop-color="#FEB3B1"/></linearGradient><linearGradient id="paint31_linear_1119_4167" x1="169.245" y1="284.379" x2="182.116" y2="357.79" gradientUnits="userSpaceOnUse"><stop stop-color="#09005D"/><stop offset="1" stop-color="#1A0F91"/></linearGradient><linearGradient id="paint32_linear_1119_4167" x1="-978.403" y1="34.058" x2="-919.295" y2="50.364" gradientUnits="userSpaceOnUse"><stop stop-color="#FF928E"/><stop offset="1" stop-color="#FEB3B1"/></linearGradient><linearGradient id="paint33_linear_1119_4167" x1="200.41" y1="424.638" x2="207.341" y2="424.638" gradientUnits="userSpaceOnUse"><stop stop-color="#E1473D"/><stop offset="1" stop-color="#E9605A"/></linearGradient><linearGradient id="paint34_linear_1119_4167" x1="160.38" y1="434.525" x2="172.981" y2="434.525" gradientUnits="userSpaceOnUse"><stop stop-color="#E1473D"/><stop offset="1" stop-color="#E9605A"/></linearGradient><linearGradient id="paint35_linear_1119_4167" x1="121.593" y1="452.973" x2="149.962" y2="452.973" gradientUnits="userSpaceOnUse"><stop stop-color="#E1473D"/><stop offset="1" stop-color="#E9605A"/></linearGradient><linearGradient id="paint36_linear_1119_4167" x1="298.497" y1="424.735" x2="261.515" y2="424.735" gradientUnits="userSpaceOnUse"><stop stop-color="#09005D"/><stop offset="1" stop-color="#1A0F91"/></linearGradient><linearGradient id="paint37_linear_1119_4167" x1="245.907" y1="490.044" x2="275.622" y2="490.044" gradientUnits="userSpaceOnUse"><stop stop-color="#DAE3FE"/><stop offset="1" stop-color="#E9EFFD"/></linearGradient><linearGradient id="paint38_linear_1119_4167" x1="211.649" y1="510.406" x2="217.073" y2="461.585" gradientUnits="userSpaceOnUse"><stop stop-color="#FF928E"/><stop offset="1" stop-color="#FEB3B1"/></linearGradient><linearGradient id="paint39_linear_1119_4167" x1="237.732" y1="485.126" x2="248.544" y2="485.126" gradientUnits="userSpaceOnUse"><stop stop-color="#DAE3FE"/><stop offset="1" stop-color="#E9EFFD"/></linearGradient><linearGradient id="paint40_linear_1119_4167" x1="259.608" y1="457.228" x2="271.447" y2="457.228" gradientUnits="userSpaceOnUse"><stop stop-color="#DAE3FE"/><stop offset="1" stop-color="#E9EFFD"/></linearGradient><linearGradient id="paint41_linear_1119_4167" x1="254.058" y1="464.7" x2="262.846" y2="464.7" gradientUnits="userSpaceOnUse"><stop stop-color="#DAE3FE"/><stop offset="1" stop-color="#E9EFFD"/></linearGradient><linearGradient id="paint42_linear_1119_4167" x1="885.4" y1="440.57" x2="767.281" y2="895.545" gradientUnits="userSpaceOnUse"><stop stop-color="#09005D"/><stop offset="1" stop-color="#1A0F91"/></linearGradient><linearGradient id="paint43_linear_1119_4167" x1="897.5" y1="436.381" x2="774.96" y2="908.381" gradientUnits="userSpaceOnUse"><stop stop-color="#09005D"/><stop offset="1" stop-color="#1A0F91"/></linearGradient><linearGradient id="paint44_linear_1119_4167" x1="874.607" y1="437.768" x2="756.488" y2="892.745" gradientUnits="userSpaceOnUse"><stop stop-color="#09005D"/><stop offset="1" stop-color="#1A0F91"/></linearGradient><linearGradient id="paint45_linear_1119_4167" x1="793.045" y1="539.865" x2="832.583" y2="634.316" gradientUnits="userSpaceOnUse"><stop stop-color="#FF928E"/><stop offset="1" stop-color="#FEB3B1"/></linearGradient><linearGradient id="paint46_linear_1119_4167" x1="798.782" y1="581.018" x2="790.499" y2="708.031" gradientUnits="userSpaceOnUse"><stop stop-color="#4042E2"/><stop offset="1" stop-color="#4F52FF"/></linearGradient><linearGradient id="paint47_linear_1119_4167" x1="744.577" y1="405.564" x2="752.265" y2="498.917" gradientUnits="userSpaceOnUse"><stop stop-color="#FF928E"/><stop offset="1" stop-color="#FEB3B1"/></linearGradient><linearGradient id="paint48_linear_1119_4167" x1="812.909" y1="582.809" x2="834.258" y2="504.081" gradientUnits="userSpaceOnUse"><stop stop-color="#4042E2"/><stop offset="1" stop-color="#4F52FF"/></linearGradient><linearGradient id="paint49_linear_1119_4167" x1="718.848" y1="575.805" x2="710.565" y2="702.817" gradientUnits="userSpaceOnUse"><stop stop-color="#4042E2"/><stop offset="1" stop-color="#4F52FF"/></linearGradient><linearGradient id="paint50_linear_1119_4167" x1="830.157" y1="375.935" x2="893.305" y2="513.374" gradientUnits="userSpaceOnUse"><stop stop-color="#4042E2"/><stop offset="1" stop-color="#4F52FF"/></linearGradient><linearGradient id="paint51_linear_1119_4167" x1="825.944" y1="330.707" x2="827.042" y2="381.776" gradientUnits="userSpaceOnUse"><stop stop-color="#FF928E"/><stop offset="1" stop-color="#FEB3B1"/></linearGradient><linearGradient id="paint52_linear_1119_4167" x1="866.293" y1="322.204" x2="808.634" y2="322.204" gradientUnits="userSpaceOnUse"><stop stop-color="#FF928E"/><stop offset="1" stop-color="#FEB3B1"/></linearGradient><linearGradient id="paint53_linear_1119_4167" x1="897.624" y1="246.18" x2="809.556" y2="337.806" gradientUnits="userSpaceOnUse"><stop stop-color="#09005D"/><stop offset="1" stop-color="#1A0F91"/></linearGradient><linearGradient id="paint54_linear_1119_4167" x1="866.294" y1="328.093" x2="808.635" y2="328.093" gradientUnits="userSpaceOnUse"><stop stop-color="#FF928E"/><stop offset="1" stop-color="#FEB3B1"/></linearGradient><linearGradient id="paint55_linear_1119_4167" x1="850.847" y1="358.146" x2="851.945" y2="446.556" gradientUnits="userSpaceOnUse"><stop stop-color="#FF928E"/><stop offset="1" stop-color="#FEB3B1"/></linearGradient><linearGradient id="paint56_linear_1119_4167" x1="936.767" y1="283.803" x2="848.699" y2="375.429" gradientUnits="userSpaceOnUse"><stop stop-color="#09005D"/><stop offset="1" stop-color="#1A0F91"/></linearGradient><linearGradient id="paint57_linear_1119_4167" x1="867.927" y1="439.608" x2="798.687" y2="462.318" gradientUnits="userSpaceOnUse"><stop stop-color="#09005D"/><stop offset="1" stop-color="#1A0F91"/></linearGradient><linearGradient id="paint58_linear_1119_4167" x1="772.812" y1="394.21" x2="722.948" y2="446.913" gradientUnits="userSpaceOnUse"><stop stop-color="#09005D"/><stop offset="1" stop-color="#1A0F91"/></linearGradient><linearGradient id="paint59_linear_1119_4167" x1="603.381" y1="470.215" x2="975.103" y2="470.215" gradientUnits="userSpaceOnUse"><stop stop-color="#FE7062"/><stop offset="1" stop-color="#FF928E"/></linearGradient><linearGradient id="paint60_linear_1119_4167" x1="624.73" y1="551.69" x2="698.111" y2="551.69" gradientUnits="userSpaceOnUse"><stop stop-color="#FE7062"/><stop offset="1" stop-color="#FF928E"/></linearGradient><linearGradient id="paint61_linear_1119_4167" x1="633.205" y1="551.69" x2="706.585" y2="551.69" gradientUnits="userSpaceOnUse"><stop stop-color="#FE7062"/><stop offset="1" stop-color="#FF928E"/></linearGradient><linearGradient id="paint62_linear_1119_4167" x1="888.53" y1="551.69" x2="961.911" y2="551.69" gradientUnits="userSpaceOnUse"><stop stop-color="#FE7062"/><stop offset="1" stop-color="#FF928E"/></linearGradient><linearGradient id="paint63_linear_1119_4167" x1="897.004" y1="551.69" x2="970.385" y2="551.69" gradientUnits="userSpaceOnUse"><stop stop-color="#FE7062"/><stop offset="1" stop-color="#FF928E"/></linearGradient></defs></svg>