<svg width="1053" height="640" fill="none" xmlns="http://www.w3.org/2000/svg"><path d="M446.634 52.186c-70.082 55.915-46.707 150.25-95.431 161.56-55.133 12.796-94.444-105.815-171.495-103.861C94.344 112.049 3.274 261.17 42.784 331.712c25.723 45.925 97.471 41.887 106.494 82.062 8.507 37.864-74.133 58.008-71.918 96.166 2.647 45.554 117.61 74.352 145.222 80.78 136.691 31.824 175.855-8.943 337.463-2.567 164.237 6.481 201.46 51.646 309.805 20.515 32.522-9.347 108.852-31.279 147.99-97.452 52.07-88.044 16.42-217.448-55.326-250.032-50.403-22.891-85.766-2.462-132.73-27.061-64.891-33.988-23.816-104.464-87.175-167.837-67.117-67.127-220.921-73.982-295.975-14.1z" fill="url(#paint0_linear_1119_4434)"/><path d="M771.758 615.324c-1.651-1.105-3.473-1.869-5.29-2.14-11.562-1.703-34.505 12.098-44.43.726-5.627-6.447 1.3-15.086-.498-22.858-6.03-26.031-34.368-6.428-49.587-5.356-10.575.745-18.209-5.84-25.311-12.843-13.44-13.264-28.627-39.643-51.28-30.728-11.458 4.512-10.903 18.744-15.585 28.162-5.276 10.613-14.893 17.648-26.839 18.725-16.718 1.509-40.468-12.861-55.384-1.081-5.574 4.402-14.071 19.133-12.05 26.302-8.763-.736-20.035-2.984-26.421 4.924-4.46 5.523-4.279 11.296 4.255 11.534 9.688.275 19.338.028 29.026.147 55.142.678 110.285 1.418 165.432 2.092 30.107.365 60.195 3.71 90.269 4.265 7.605.138 25.386.939 29.466-7.994 2.221-4.863-1.077-10.732-5.773-13.877z" fill="#91B3FA"/><path d="M674.273 632.436a.82.82 0 01-.688-1.276c.892-1.362 21.966-33.414 35.449-40.744a.834.834 0 011.12.332.824.824 0 01-.333 1.12c-13.122 7.135-34.642 39.871-34.856 40.198a.818.818 0 01-.692.37z" fill="#DCE5FE"/><path d="M692.995 607.277a.82.82 0 01-.797-.626l-4.711-19.058a.823.823 0 011.599-.394l4.711 19.058a.823.823 0 01-.802 1.02zm7.374 14.798a.897.897 0 01-.29-.052c-4.692-1.756-18.35.028-18.488.042a.817.817 0 01-.925-.706.823.823 0 01.707-.926c.579-.075 14.209-1.855 19.285.043a.824.824 0 01.484 1.058.824.824 0 01-.773.541zm-78.908 11.832c-.436 0-.797-.641-.82-1.077-1.794-32.285-18.807-70.656-18.977-71.036-.185-.417 0-.977.412-1.167.413-.185.902-.038 1.091.375.176.384 17.312 39.159 19.12 71.752.024.455-.323 1.148-.778 1.148-.019.005-.033.005-.048.005z" fill="#DCE5FE"/><path d="M527.588 632.204c-.2 0-.437-.052-.707-.189a.824.824 0 01.171-1.528c-.494-3.558-9.119-21.155-15.453-33.205a.819.819 0 01.347-1.11.818.818 0 011.11.346 668.99 668.99 0 018.378 16.577c8.407 17.297 7.544 18.165 6.913 18.801a1.074 1.074 0 01-.759.308z" fill="#fff"/><path d="M524.927 623.318a.827.827 0 01-.778-1.101c.294-.825 7.22-20.253 12.007-24.2a.818.818 0 011.158.114.821.821 0 01-.114 1.157c-4.441 3.658-11.434 23.28-11.505 23.48a.799.799 0 01-.768.55z" fill="#fff"/><path d="M214.809 621.155c-30.657 6.129-69.802-27.294-82.412-63.806-12.98-37.574 10.817-53.316 10.632-105.455-.209-59.227-31.018-68.156-51.4-147.992-4.597-18.014-31.207-122.25 1.775-141.787 30.491-18.066 116.144 33.779 131.155 100.137 10.703 47.314-22.388 67.183-9.75 122.293 11.088 48.353 40.232 49.055 51.4 95.705 13.592 56.799-11.149 132.859-51.4 140.905z" fill="#91B3FA"/><path d="M212.585 635.506c8.264-63.815-7.857-162.267-22.839-233.621-16.216-77.251-34.624-140.264-34.809-140.895l-2.552.75c.185.626 18.564 63.554 34.761 140.71 14.935 71.144 31.013 169.27 22.796 232.715l2.643.341z" fill="#DCE5FE"/><path d="M179.503 614.029c40.212-20.951 53.975-92.902 31.117-116.282-15.442-15.798-37.593.821-58.961-15.561-27.28-20.912-7.212-60.294-28.66-111.371-18.251-43.467-62.036-84.595-87.622-76.155-26.781 8.834-40.886 74.381-18.014 113.824 14.873 25.652 37.641 26.914 42.585 50.773 5.73 27.683-21.962 40.308-22.109 67.15-.275 48.216 88.466 115.343 141.664 87.622z" fill="#BDD0FB"/><path d="M157.807 632.456c.242 0 .484-.053.712-.166a1.636 1.636 0 00.759-2.187c-53.311-109.849-68.944-237.289-69.095-238.561a1.641 1.641 0 00-1.822-1.432 1.635 1.635 0 00-1.433 1.821c.152 1.281 15.851 129.262 69.399 239.604a1.64 1.64 0 001.48.921zM48.433 424.544a.785.785 0 00.617-1.267c-16.828-21.6-35.478-54.046-28.765-85.98 4-19.02 15.253-28.935 15.367-29.035a.786.786 0 00.08-1.105.782.782 0 00-1.105-.081c-.479.413-11.766 10.366-15.874 29.898-3.772 17.948-1.793 47.661 29.059 87.266a.79.79 0 00.621.304z" fill="#DCE5FE"/><path d="M183.133 604.436a.775.775 0 00.645-.342c25.861-37.74 34.681-66.903 26.212-86.672-7.529-17.578-26.539-20.851-26.729-20.88a.785.785 0 00-.897.645.778.778 0 00.646.897c.18.029 18.369 3.184 25.552 19.973 8.231 19.248-.541 47.898-26.07 85.155a.78.78 0 00.204 1.086c.128.095.28.138.437.138z" fill="#F0F0F0"/><path d="M773.335 475.819c13.578-.797 45.212-5.65 78.432-31.905 2.244-1.774 5.408-1.751 7.6.09 6.457 5.418 19.56 16.719 27.071 25.263 2.201 2.505 1.779 6.348-.93 8.288-13.555 9.702-54.564 35.317-97.03 24.813a8.996 8.996 0 01-5.081-3.411l-12.776-17.317c-1.727-2.334-.185-5.65 2.714-5.821z" fill="#7D97F4"/><path d="M834.26 498.003a1.474 1.474 0 01-1.651-.341l-21.425-22.839a1.467 1.467 0 01.066-2.069 1.461 1.461 0 012.068.067l21.425 22.839a1.466 1.466 0 01-.483 2.343zm15.59-3.624a1.465 1.465 0 01-1.537-.233l-27.384-23.607a1.464 1.464 0 011.912-2.216l27.383 23.608c.612.526.679 1.451.152 2.063a1.533 1.533 0 01-.526.385zm9.782-4.522a1.46 1.46 0 01-1.556-.252L829.99 464.48a1.458 1.458 0 01-.114-2.064 1.46 1.46 0 012.064-.114l28.086 25.126a1.46 1.46 0 01-.394 2.429zm7.017-5.081a1.468 1.468 0 01-1.666-.36l-24.243-26.72a1.468 1.468 0 01.1-2.069 1.468 1.468 0 012.068.1l24.243 26.72a1.467 1.467 0 01-.502 2.329zm10.638-5.408a1.474 1.474 0 01-1.632-.323l-27.399-28.19a1.463 1.463 0 012.097-2.04l27.398 28.19a1.462 1.462 0 01-.464 2.363z" fill="#BDD0FB"/><path d="M893.536 435.726l21.71 18.521a5.057 5.057 0 005.845.508c10.646-6.263 45.554-28.902 63.947-66.121 1.22-2.467.797-5.432-1.015-7.5l-32.916-37.546c-2.21-2.52-6.049-2.814-8.587-.627-7.306 6.296-21.012 20.96-27.194 46.385-3.771 15.514-15.793 30.401-22.34 37.631a6.104 6.104 0 00.55 8.749z" fill="#7D97F4"/><path d="M942.345 434.061a1.471 1.471 0 01-1.508-.209l-28.428-23.295a1.461 1.461 0 01-.204-2.058 1.461 1.461 0 012.059-.205l28.428 23.295a1.462 1.462 0 01-.347 2.472zm9.246-6.908a1.456 1.456 0 01-1.466-.176l-33.603-25.51a1.46 1.46 0 01-.28-2.049 1.464 1.464 0 012.049-.28l33.604 25.51a1.46 1.46 0 01-.304 2.505zm6.543-8.303a1.467 1.467 0 01-1.594-.284l-16.946-16.183a1.462 1.462 0 112.021-2.116l16.946 16.183a1.461 1.461 0 01-.427 2.4zm8.188-11.823a1.464 1.464 0 01-1.623-.313l-35.572-35.994a1.462 1.462 0 112.082-2.055l35.573 35.995c.569.574.56 1.499-.014 2.069a1.535 1.535 0 01-.446.298zm4.721-7.5a1.457 1.457 0 01-1.708-.413l-34.159-41.322a1.46 1.46 0 01.195-2.059 1.465 1.465 0 012.059.194l34.158 41.323a1.465 1.465 0 01-.545 2.277z" fill="#BDD0FB"/><path d="M944.893 403.773c5.674 4.179 18.028 13.777 21.705 20.718a2.714 2.714 0 003.297 1.305c11.709-4.085 61.895-23.983 69.065-67.307.13-.788-.1-1.589-.62-2.197-4.82-5.617-30.08-34.547-49.724-47.713-1.594-1.067-3.763-.17-4.166 1.704-3.193 14.882-16.145 68.948-39.719 89.239a2.722 2.722 0 00.162 4.251z" fill="#BDD0FB"/><path d="M1029.65 366.141a1.46 1.46 0 01-1.84-.602c-10.08-17.203-39.304-37.077-39.598-37.276a1.464 1.464 0 01-.394-2.031 1.466 1.466 0 012.031-.393c1.224.825 30.061 20.443 40.491 38.219a1.47 1.47 0 01-.69 2.083z" fill="url(#paint1_linear_1119_4434)"/><path d="M1023.28 373.063c-.62.266-1.36.081-1.77-.489-8.53-11.898-35.75-33.874-36.025-34.092a1.457 1.457 0 01-.223-2.054 1.457 1.457 0 012.054-.223c1.134.911 27.814 22.445 36.564 34.666.47.655.32 1.57-.33 2.04-.09.062-.18.109-.27.152z" fill="url(#paint2_linear_1119_4434)"/><path d="M1018.48 382.5c-.52.223-1.14.137-1.57-.266l-12.3-11.287a1.465 1.465 0 01-.09-2.068 1.469 1.469 0 012.07-.09l12.29 11.286c.6.546.64 1.471.09 2.069-.14.156-.31.275-.49.356z" fill="url(#paint3_linear_1119_4434)"/><path d="M1011.94 388.923c-.55.238-1.21.124-1.64-.336l-10.15-10.713a1.458 1.458 0 01.06-2.068c.58-.56 1.51-.532 2.06.056l10.15 10.713c.56.588.53 1.513-.05 2.068-.13.124-.28.214-.43.28z" fill="url(#paint4_linear_1119_4434)"/><path d="M703.38 461.012c12.297 1.936 48.918 6.542 72.137-2.856a2.307 2.307 0 012.59.631l25.553 29.187c1.143 1.304.507 3.354-1.172 3.776-13.664 3.44-62.539 14.133-89.69-1.214a2.306 2.306 0 01-.982-1.101l-10.922-25.211c-.726-1.675.679-3.492 2.486-3.212z" fill="#BDD0FB"/><path d="M793.208 488.899a1.467 1.467 0 01-1.708-.413l-19.869-24.139a1.462 1.462 0 112.259-1.86l19.868 24.139a1.465 1.465 0 01-.55 2.273z" fill="url(#paint5_linear_1119_4434)"/><path d="M784.052 491.708a1.466 1.466 0 01-1.761-.48l-18.407-25.192a1.462 1.462 0 012.362-1.727l18.408 25.192a1.468 1.468 0 01-.602 2.207z" fill="url(#paint6_linear_1119_4434)"/><path d="M765.971 480.188a1.463 1.463 0 01-1.746-.46c-3.159-4.165-8.525-11.348-8.962-12.662-.256-.764.157-1.58.926-1.851a1.459 1.459 0 011.836.897c.422.935 4.658 6.746 8.53 11.846.488.646.36 1.561-.28 2.05a1.217 1.217 0 01-.304.18z" fill="url(#paint7_linear_1119_4434)"/><path d="M732.482 492.182a1.469 1.469 0 01-1.908-.721c-11.082-23.726-10.897-25.04-10.826-25.534a1.46 1.46 0 012.908.19c.342 1.698 5.67 13.625 10.566 24.106.341.73.023 1.603-.707 1.945-.005.004-.019.009-.033.014z" fill="url(#paint8_linear_1119_4434)"/><path d="M665.259 222.467c21.195 0 38.376-17.182 38.376-38.376 0-21.195-17.181-38.377-38.376-38.377-21.195 0-38.376 17.182-38.376 38.377 0 21.194 17.181 38.376 38.376 38.376z" fill="url(#paint9_linear_1119_4434)"/><path d="M665.259 221.195c20.493 0 37.105-16.612 37.105-37.104 0-20.493-16.612-37.105-37.105-37.105-20.492 0-37.105 16.612-37.105 37.105 0 20.492 16.613 37.104 37.105 37.104z" fill="url(#paint10_linear_1119_4434)"/><path opacity=".58" d="M634.663 169.919a1.24 1.24 0 01-1.11-1.798c6.077-12.041 18.222-19.517 31.701-19.517 2.149 0 4.303.194 6.4.574.674.123 1.12.768.996 1.442a1.229 1.229 0 01-1.442.996 33.284 33.284 0 00-5.959-.536c-12.534 0-23.835 6.955-29.485 18.156a1.23 1.23 0 01-1.101.683z" fill="#fff"/><path opacity=".58" d="M666.066 216.299c17.343 0 31.402-14.059 31.402-31.402 0-17.343-14.059-31.402-31.402-31.402-17.343 0-31.402 14.059-31.402 31.402 0 17.343 14.059 31.402 31.402 31.402z" fill="#fff"/><path d="M664.975 210.236c-1.1 0-1.992-.892-1.992-1.993v-3.416c-3.563-.142-7.084-.982-9.589-2.078-.891-.389-1.347-1.395-1.091-2.334l.868-3.183c.318-1.167 1.59-1.77 2.705-1.305 2.481 1.039 5.546 1.864 8.852 1.864 3.431 0 5.988-1.162 5.988-3.548 0-2.149-1.979-3.43-6.747-4.711-6.803-1.86-11.685-4.825-11.685-10.817 0-5.409 3.952-9.536 10.817-10.642v-3.415c0-1.101.892-1.993 1.993-1.993h2.007c1.1 0 1.992.892 1.992 1.993v3.069c3.297.133 5.693.698 7.601 1.366.977.342 1.508 1.395 1.238 2.392l-.797 2.941a1.99 1.99 0 01-2.619 1.343c-1.751-.665-4.232-1.352-7.453-1.352-4.071 0-5.233 1.684-5.233 3.197 0 1.86 2.443 3.141 7.733 4.768 7.557 2.268 10.698 5.409 10.698 11.045 0 5.176-3.838 9.825-11.282 10.987v3.824a1.992 1.992 0 01-1.992 1.993h-2.012v.005z" fill="url(#paint11_linear_1119_4434)"/><path d="M774.5 205.388c36.897 0 66.809-29.911 66.809-66.808 0-36.898-29.912-66.809-66.809-66.809s-66.809 29.911-66.809 66.809c0 36.897 29.912 66.808 66.809 66.808z" fill="url(#paint12_linear_1119_4434)"/><path d="M774.5 203.168c35.672 0 64.589-28.917 64.589-64.589 0-35.671-28.917-64.588-64.589-64.588-35.671 0-64.588 28.917-64.588 64.588 0 35.672 28.917 64.589 64.588 64.589z" fill="url(#paint13_linear_1119_4434)"/><path opacity=".78" d="M721.241 112.989a1.24 1.24 0 01-1.11-1.798c10.423-20.647 31.255-33.476 54.369-33.476 3.686 0 7.382.332 10.978.987a1.24 1.24 0 01.997 1.442 1.233 1.233 0 01-1.443.997 58.678 58.678 0 00-10.532-.95c-22.17 0-42.153 12.307-52.153 32.11-.214.436-.65.688-1.106.688z" fill="#fff"/><path opacity=".58" d="M814.557 178.644c21.349-21.348 21.349-55.962 0-77.311-21.349-21.349-55.962-21.349-77.311 0-21.349 21.349-21.349 55.963 0 77.312 21.349 21.349 55.962 21.348 77.311-.001z" fill="#fff"/><path d="M770.544 180.623v-5.949c-6.201-.247-12.33-1.713-16.69-3.62-1.556-.683-2.348-2.424-1.902-4.066l1.508-5.541c.555-2.031 2.766-3.084 4.706-2.268 4.322 1.812 9.655 3.245 15.41 3.245 5.973 0 10.423-2.026 10.423-6.172 0-3.743-3.44-5.973-11.742-8.198-11.842-3.241-20.343-8.402-20.343-18.825 0-9.413 6.883-16.601 18.825-18.522v-5.949a3.465 3.465 0 013.463-3.464h3.497a3.465 3.465 0 013.463 3.464v5.342c5.736.227 9.915 1.21 13.227 2.377 1.698.597 2.623 2.424 2.154 4.16l-1.39 5.124a3.457 3.457 0 01-4.564 2.334c-3.051-1.153-7.368-2.353-12.976-2.353-7.083 0-9.109 2.937-9.109 5.565 0 3.24 4.251 5.466 13.46 8.298 13.16 3.947 18.626 9.412 18.626 19.233 0 9.009-6.68 17.108-19.637 19.129v6.656a3.464 3.464 0 01-3.463 3.463h-3.497c-1.897.005-3.449-1.546-3.449-3.463z" fill="url(#paint14_linear_1119_4434)"/><path d="M820.583 356.554c37.969 0 68.749-30.78 68.749-68.749 0-37.969-30.78-68.749-68.749-68.749-37.969 0-68.749 30.78-68.749 68.749 0 37.969 30.78 68.749 68.749 68.749z" fill="url(#paint15_linear_1119_4434)"/><path d="M820.583 354.267c36.706 0 66.463-29.756 66.463-66.462 0-36.707-29.757-66.463-66.463-66.463-36.706 0-66.462 29.756-66.462 66.463 0 36.706 29.756 66.462 66.462 66.462z" fill="url(#paint16_linear_1119_4434)"/><path opacity=".78" d="M765.776 261.436a1.24 1.24 0 01-1.11-1.798c10.717-21.235 32.142-34.424 55.911-34.424 3.791 0 7.591.341 11.291 1.015a1.24 1.24 0 01.997 1.442 1.234 1.234 0 01-1.443.997 60.781 60.781 0 00-10.845-.978c-22.829 0-43.4 12.668-53.695 33.063a1.237 1.237 0 01-1.106.683z" fill="#fff"/><path opacity=".58" d="M876.724 302.258c7.214-30.219-11.436-60.565-41.655-67.778-30.219-7.214-60.565 11.435-67.779 41.655-7.213 30.219 11.436 60.565 41.655 67.778 30.22 7.214 60.565-11.435 67.779-41.655z" fill="#fff"/><path d="M816.506 331.068v-6.12c-6.381-.257-12.691-1.761-17.174-3.725-1.599-.702-2.415-2.495-1.954-4.184l1.556-5.703c.569-2.092 2.846-3.174 4.844-2.334 4.445 1.865 9.934 3.34 15.855 3.34 6.144 0 10.727-2.083 10.727-6.353 0-3.852-3.54-6.143-12.084-8.435-12.183-3.33-20.936-8.644-20.936-19.371 0-9.687 7.083-17.079 19.37-19.057v-6.12a3.57 3.57 0 013.568-3.568h3.596a3.567 3.567 0 013.568 3.568v5.494c5.902.237 10.2 1.247 13.611 2.443 1.746.612 2.704 2.495 2.216 4.284l-1.428 5.271a3.552 3.552 0 01-4.692 2.4c-3.141-1.186-7.577-2.424-13.351-2.424-7.292 0-9.374 3.022-9.374 5.726 0 3.331 4.374 5.622 13.853 8.54 13.54 4.061 19.162 9.688 19.162 19.788 0 9.271-6.875 17.601-20.206 19.684v6.851a3.57 3.57 0 01-3.568 3.568h-3.596a3.563 3.563 0 01-3.563-3.563z" fill="url(#paint17_linear_1119_4434)"/><path d="M908.772 244.523c27.819 0 50.37-22.551 50.37-50.37 0-27.818-22.551-50.369-50.37-50.369-27.818 0-50.37 22.551-50.37 50.369 0 27.819 22.552 50.37 50.37 50.37z" fill="url(#paint18_linear_1119_4434)"/><path d="M908.771 242.849c26.894 0 48.695-21.802 48.695-48.695 0-26.894-21.801-48.696-48.695-48.696-26.893 0-48.695 21.802-48.695 48.696 0 26.893 21.802 48.695 48.695 48.695z" fill="url(#paint19_linear_1119_4434)"/><path opacity=".78" d="M868.616 175.167a1.24 1.24 0 01-1.11-1.798c7.909-15.67 23.721-25.406 41.261-25.406 2.794 0 5.598.252 8.331.75a1.24 1.24 0 01.996 1.442 1.23 1.23 0 01-1.442.997 44.258 44.258 0 00-7.89-.707c-16.6 0-31.559 9.213-39.045 24.039a1.211 1.211 0 01-1.101.683z" fill="#fff"/><path opacity=".58" d="M921.026 234.884c21.913-6.162 34.681-28.92 28.52-50.833-6.162-21.912-28.92-34.681-50.833-28.519-21.912 6.161-34.681 28.92-28.519 50.832 6.161 21.913 28.92 34.681 50.832 28.52z" fill="#fff"/><path d="M905.787 225.855v-4.483c-4.673-.185-9.298-1.291-12.581-2.728-1.172-.513-1.77-1.832-1.433-3.065l1.139-4.175c.417-1.533 2.082-2.325 3.548-1.713 3.26 1.367 7.278 2.448 11.619 2.448 4.502 0 7.861-1.527 7.861-4.654 0-2.823-2.595-4.502-8.853-6.182-8.928-2.443-15.338-6.333-15.338-14.194 0-7.098 5.19-12.516 14.195-13.963v-4.483a2.616 2.616 0 012.614-2.614h2.633a2.616 2.616 0 012.614 2.614v4.028c4.327.175 7.472.911 9.973 1.788 1.281.451 1.978 1.827 1.622 3.141l-1.048 3.862a2.606 2.606 0 01-3.44 1.76c-2.301-.868-5.551-1.774-9.782-1.774-5.342 0-6.87 2.21-6.87 4.198 0 2.444 3.207 4.123 10.148 6.258 9.92 2.975 14.043 7.097 14.043 14.498 0 6.794-5.039 12.895-14.802 14.423v5.019a2.616 2.616 0 01-2.614 2.614h-2.633a2.627 2.627 0 01-2.615-2.623z" fill="url(#paint20_linear_1119_4434)"/><path d="M891.949 461.184c23.773 0 43.044-19.272 43.044-43.045 0-23.773-19.271-43.044-43.044-43.044-23.773 0-43.045 19.271-43.045 43.044 0 23.773 19.272 43.045 43.045 43.045z" fill="url(#paint21_linear_1119_4434)"/><path d="M891.948 459.751c22.981 0 41.612-18.63 41.612-41.612 0-22.981-18.631-41.612-41.612-41.612-22.982 0-41.612 18.631-41.612 41.612 0 22.982 18.63 41.612 41.612 41.612z" fill="url(#paint22_linear_1119_4434)"/><path opacity=".78" d="M857.631 401.909a1.064 1.064 0 01-.948-1.537c6.76-13.393 20.272-21.71 35.259-21.71 2.391 0 4.782.214 7.121.641.574.104.958.654.854 1.233-.104.574-.65.968-1.233.854a37.694 37.694 0 00-6.742-.607c-14.185 0-26.971 7.871-33.366 20.542-.181.37-.555.584-.945.584z" fill="#fff"/><path opacity=".58" d="M909.104 450.26c17.25-8.989 23.948-30.26 14.959-47.51-8.989-17.251-30.26-23.948-47.51-14.959-17.251 8.989-23.948 30.26-14.959 47.51 8.989 17.25 30.26 23.948 47.51 14.959z" fill="#fff"/><path d="M889.4 445.229v-3.834c-3.994-.161-7.946-1.101-10.75-2.329-1.001-.437-1.513-1.566-1.224-2.619l.973-3.568c.355-1.309 1.779-1.988 3.031-1.461 2.785 1.167 6.22 2.092 9.925 2.092 3.848 0 6.718-1.305 6.718-3.98 0-2.415-2.216-3.848-7.562-5.281-7.629-2.087-13.109-5.413-13.109-12.131 0-6.063 4.436-10.693 12.131-11.931v-3.834a2.235 2.235 0 012.235-2.234h2.253a2.235 2.235 0 012.235 2.234v3.44c3.696.147 6.386.778 8.521 1.532 1.095.384 1.693 1.561 1.39 2.681l-.897 3.302a2.231 2.231 0 01-2.941 1.504c-1.965-.745-4.745-1.519-8.36-1.519-4.564 0-5.868 1.893-5.868 3.587 0 2.088 2.737 3.52 8.672 5.347 8.478 2.543 11.998 6.063 11.998 12.392 0 5.802-4.303 11.021-12.653 12.325v4.289a2.235 2.235 0 01-2.234 2.235h-2.254a2.246 2.246 0 01-2.23-2.239z" fill="url(#paint23_linear_1119_4434)"/><path d="M981.061 220.413l-67.588 71.393 33.505 31.719 67.592-71.393-33.509-31.719z" fill="#91B3FA"/><path opacity=".5" d="M984.423 231.102l19.047 18.033c-1.45 1.532-1.18 4.213.51 5.821.06.052.06.029.27.233l-54.555 57.623c-.218-.209-.199-.199-.256-.251-1.699-1.608-4.308-1.708-5.783-.147-.024.023-.105.014-.105.014l-18.616-17.625c2.486-2.628.953-4.564-.745-6.172a.318.318 0 00-.114-.076l54.559-57.624c-.005.005.029.057.085.105 1.694 1.608 4.251 1.603 5.703.066z" fill="#fff"/><path d="M964.56 286.237c7.958-.338 14.136-7.063 13.798-15.021-.337-7.958-7.063-14.136-15.021-13.798-7.958.338-14.135 7.063-13.798 15.021.338 7.958 7.063 14.136 15.021 13.798z" fill="#91B3FA"/><path d="M970.012 279.579l-1.105-1.049c-1.139 1.111-2.491 1.993-3.616 2.468a.882.882 0 01-1.091-.361l-.764-1.257a.891.891 0 01.408-1.276c1.101-.484 2.306-1.224 3.321-2.297 1.054-1.11 1.462-2.296.688-3.031-.697-.66-1.717-.413-3.596.74-2.69 1.632-5.152 2.306-7.092.469-1.751-1.66-1.879-4.208-.129-6.77l-1.105-1.048a.89.89 0 01-.033-1.257l.617-.65a.89.89 0 011.257-.033l.996.939c1.053-1.03 1.974-1.632 2.775-2.045a.884.884 0 011.153.332l.707 1.163a.886.886 0 01-.37 1.262 9.228 9.228 0 00-2.723 2.002c-1.248 1.319-1.058 2.215-.569 2.675.602.57 1.764.171 3.918-1.043 3.056-1.756 5.034-1.808 6.865-.076 1.675 1.589 2.007 4.26.1 7.026l1.238 1.172a.89.89 0 01.033 1.257l-.616.65a.898.898 0 01-1.267.038z" fill="#fff"/><path d="M923.991 298.352a.497.497 0 01-.341-.137l-6.462-6.116a.493.493 0 01-.019-.702l16.482-17.411a.495.495 0 11.721.683l-16.14 17.046 6.096 5.774a.495.495 0 01.019.702.457.457 0 01-.356.161zm70.053-28.152a.5.5 0 01-.36-.845l16.136-17.046-6.09-5.774a.495.495 0 11.68-.721l6.46 6.116c.1.09.15.218.16.346 0 .133-.05.261-.14.356l-16.481 17.411a.5.5 0 01-.365.157z" fill="#BDD0FB"/><path d="M823.788 355.254l-154.222 28.011 13.146 72.38 154.222-28.011-13.146-72.38z" fill="#91B3FA"/><path opacity=".5" d="M818.079 372.139l7.472 41.147c-3.311.602-5.536 4.27-4.872 7.937.019.119 0 .052.09.527l-124.484 22.615c-.081-.474-.062-.412-.086-.526-.664-3.667-3.895-6.248-7.258-5.636-.048.009-.109-.071-.109-.071l-7.307-40.217c5.679-1.03 5.49-5.001 4.821-8.668a.524.524 0 00-.114-.233l124.484-22.616c-.005 0 .029.129.048.247.669 3.663 4.004 6.096 7.315 5.494z" fill="#fff"/><path d="M772.414 417.871c7.025-10.577 4.146-24.847-6.431-31.872-10.577-7.026-24.846-4.147-31.872 6.43-7.025 10.577-4.146 24.847 6.431 31.872 10.577 7.026 24.846 4.147 31.872-6.43z" fill="#91B3FA"/><path d="M753.757 420.872l-.436-2.391c-2.51.351-5.086.214-6.974-.237a1.413 1.413 0 01-1.063-1.494l.204-2.339a1.419 1.419 0 011.727-1.258c1.869.413 4.123.598 6.433.181 2.401-.437 4.047-1.575 3.743-3.245-.275-1.504-1.821-2.15-5.323-2.439-5-.436-8.796-1.893-9.559-6.087-.688-3.786 1.556-7.178 6.219-8.824l-.436-2.391a1.415 1.415 0 011.138-1.646l1.405-.257a1.417 1.417 0 011.646 1.139l.389 2.149c2.325-.327 4.075-.237 5.494-.009a1.41 1.41 0 011.172 1.518l-.185 2.163a1.412 1.412 0 01-1.666 1.272 14.762 14.762 0 00-5.389 0c-2.851.517-3.449 1.845-3.259 2.903.237 1.305 2.111 1.888 6.02 2.353 5.579.627 8.179 2.425 8.896 6.377.659 3.624-1.438 7.367-6.5 9.127l.489 2.676a1.416 1.416 0 01-1.139 1.646l-1.404.257a1.419 1.419 0 01-1.642-1.144zm-76.805-19.413a.499.499 0 01-.489-.408l-2.533-13.958a.501.501 0 01.403-.584l38.082-6.917a.494.494 0 01.579.404.495.495 0 01-.403.578l-37.594 6.827 2.449 13.465a.497.497 0 01-.404.578.303.303 0 01-.09.015z" fill="#fff"/><path d="M794.032 431.257a.497.497 0 01-.086-.986l37.119-6.742-2.448-13.464a.497.497 0 01.403-.579.5.5 0 01.579.403l2.534 13.958a.506.506 0 01-.081.375.496.496 0 01-.323.208l-37.607 6.832c-.034-.009-.062-.005-.09-.005z" fill="#BDD0FB"/><path d="M713.853 414.519a6.509 6.509 0 01-5.243 7.572 6.508 6.508 0 01-7.572-5.242 6.51 6.51 0 015.243-7.572 6.509 6.509 0 017.572 5.242zm96.412-17.515a6.509 6.509 0 01-5.243 7.572 6.509 6.509 0 01-7.572-5.243 6.51 6.51 0 015.243-7.572c3.534-.645 6.926 1.704 7.572 5.243z" fill="#91B3FA"/><path d="M656.615 280.142L521.242 464.59l86.001 63.12 135.373-184.448-86.001-63.12z" fill="#7D97F4"/><path opacity=".5" d="M667.242 303.646l49.208 36.113c-2.908 3.962-1.727 9.949 2.657 13.166.137.104.474.341.484.332L610.326 502.131c.004-.004-.323-.256-.461-.36-4.383-3.217-10.328-2.638-13.283 1.385a.666.666 0 01-.124.114l-48.097-35.302c4.981-6.789.944-10.732-3.444-13.948-.138-.105-.209-.062-.214-.057l109.265-148.875c-.005.005.019.033.157.133 4.374 3.221 10.209 2.386 13.117-1.575z" fill="#fff"/><path d="M631.735 437.235c18.535 0 33.561-15.026 33.561-33.561s-15.026-33.561-33.561-33.561-33.561 15.026-33.561 33.561 15.026 33.561 33.561 33.561z" fill="url(#paint24_linear_1119_4434)"/><path d="M647.974 419.804l-2.861-2.101c-2.311 2.894-5.176 5.328-7.634 6.751-.877.507-1.997.275-2.628-.522l-2.13-2.681c-.783-.982-.508-2.419.569-3.064 2.396-1.438 4.967-3.502 6.998-6.268 2.106-2.87 2.704-5.731.712-7.192-1.803-1.323-4.085-.451-8.089 2.752-5.741 4.554-11.225 6.822-16.24 3.141-4.526-3.321-5.556-9.171-2.263-15.595l-2.861-2.102a2.064 2.064 0 01-.441-2.889l1.234-1.679a2.062 2.062 0 012.889-.441l2.566 1.883c2.135-2.68 4.08-4.341 5.812-5.522.887-.608 2.092-.408 2.761.431l1.974 2.477a2.062 2.062 0 01-.489 3.017 21.508 21.508 0 00-5.712 5.409c-2.5 3.406-1.803 5.418-.536 6.348 1.556 1.143 4.128-.114 8.744-3.544 6.542-4.934 11.101-5.637 15.827-2.169 4.331 3.179 5.868 9.252 2.267 16.197l3.203 2.349a2.064 2.064 0 01.441 2.889l-1.234 1.679a2.05 2.05 0 01-2.879.446z" fill="#fff"/><path d="M546.249 476.066a.514.514 0 01-.294-.095l-16.125-11.832a.5.5 0 01-.11-.697l33.428-45.545a.5.5 0 01.807.588l-33.134 45.142 15.723 11.538a.5.5 0 01-.295.901z" fill="url(#paint25_linear_1119_4434)"/><path d="M700.817 390.594a.5.5 0 01-.403-.793l32.716-44.577-16.856-12.368a.499.499 0 11.588-.806l17.255 12.667a.5.5 0 01.109.697l-33.01 44.98a.475.475 0 01-.399.2z" fill="#fff"/><path d="M654.395 268.938L519.021 453.386l86.568 63.535 135.373-184.448-86.567-63.535z" fill="#91B3FA"/><path opacity=".5" d="M665.188 292.563l49.207 36.113c-2.908 3.962-1.514 10.068 2.87 13.289.138.104.124.047.698.455L608.698 491.295c-.56-.422-.522-.403-.66-.508-4.383-3.216-10.447-2.69-13.402 1.338-.043.057-.242.062-.242.062l-48.093-35.297c4.982-6.789.873-10.817-3.51-14.034a.728.728 0 00-.285-.142l109.265-148.875a.837.837 0 00.223.218c4.383 3.222 10.29 2.467 13.194-1.494z" fill="#fff"/><path d="M642.209 423.7c17.21-6.884 25.581-26.416 18.697-43.626-6.884-17.21-26.416-25.581-43.626-18.697-17.209 6.884-25.58 26.416-18.696 43.626 6.884 17.21 26.415 25.581 43.625 18.697z" fill="#91B3FA"/><path d="M645.96 408.674l-2.861-2.102c-2.31 2.894-5.176 5.328-7.633 6.751-.878.508-1.998.276-2.629-.521l-2.13-2.681c-.783-.982-.508-2.42.569-3.065 2.396-1.437 4.968-3.501 6.998-6.267 2.107-2.87 2.704-5.731.712-7.192-1.803-1.324-4.085-.451-8.089 2.751-5.741 4.555-11.225 6.823-16.24 3.141-4.526-3.321-5.555-9.17-2.263-15.594l-2.86-2.102a2.063 2.063 0 01-.442-2.889l1.234-1.68a2.064 2.064 0 012.889-.441l2.567 1.884c2.135-2.681 4.08-4.341 5.811-5.523.888-.607 2.093-.408 2.762.432l1.973 2.477a2.062 2.062 0 01-.488 3.017 21.452 21.452 0 00-5.713 5.408c-2.5 3.407-1.802 5.418-.536 6.348 1.556 1.144 4.128-.114 8.744-3.544 6.542-4.934 11.102-5.636 15.827-2.168 4.331 3.179 5.868 9.251 2.268 16.197l3.202 2.348c.92.674 1.12 1.969.441 2.89l-1.233 1.679a2.049 2.049 0 01-2.88.446z" fill="#fff"/><path d="M545.005 464.709a.514.514 0 01-.294-.095l-16.69-12.25a.5.5 0 01-.109-.697l33.01-44.98a.501.501 0 01.698-.11.5.5 0 01.109.698l-32.716 44.577 16.287 11.955a.5.5 0 01.109.698.507.507 0 01-.404.204z" fill="url(#paint26_linear_1119_4434)"/><path d="M698.596 379.388a.5.5 0 01-.403-.792l32.717-44.577-16.287-11.956a.5.5 0 11.588-.806l16.69 12.249a.515.515 0 01.199.328.508.508 0 01-.09.37L699 379.184a.507.507 0 01-.404.204z" fill="#fff"/><path d="M689.069 272.297l-184.676 135.03 63.373 86.674 184.677-135.03-63.374-86.674z" fill="#7D97F4"/><path opacity=".5" d="M692.368 298.134l36.028 49.269c-3.966 2.899-4.55 9.133-1.342 13.526.099.138.033.071.455.631L578.44 470.559c-.408-.569-.342-.498-.446-.64-3.212-4.393-9.09-5.722-13.123-2.776-.057.043-.19-.023-.19-.023l-35.216-48.164c6.798-4.972 4.023-10.062.811-14.451a.806.806 0 00-.299-.232l149.069-109c-.004.005.119.152.223.29 3.203 4.398 9.133 5.47 13.099 2.571z" fill="#fff"/><path d="M661.596 387.302c2.469-18.371-10.421-35.264-28.792-37.733-18.37-2.469-35.263 10.422-37.732 28.792-2.469 18.37 10.422 35.263 28.792 37.732 18.37 2.469 35.263-10.421 37.732-28.791z" fill="#7D97F4"/><path d="M638.938 403.105l-2.092-2.865c-3.075 2.063-6.543 3.52-9.313 4.132-.987.218-1.988-.342-2.349-1.286l-1.224-3.202c-.45-1.172.247-2.458 1.466-2.752 2.719-.65 5.793-1.836 8.564-3.862 2.875-2.101 4.308-4.644 2.846-6.646-1.319-1.803-3.762-1.666-8.539.185-6.846 2.609-12.758 3.117-16.43-1.903-3.316-4.535-2.528-10.418 2.543-15.552l-2.097-2.865a2.066 2.066 0 01.451-2.889l1.684-1.229a2.065 2.065 0 012.889.451l1.879 2.571c2.842-1.912 5.2-2.908 7.207-3.515a2.058 2.058 0 012.505 1.247l1.133 2.956a2.067 2.067 0 01-1.375 2.733 21.527 21.527 0 00-7.079 3.435c-3.411 2.495-3.354 4.62-2.429 5.887 1.139 1.561 3.971 1.134 9.408-.745 7.728-2.732 12.283-2.026 15.741 2.704 3.174 4.337 2.809 10.59-2.718 16.131l2.344 3.207c.673.92.474 2.216-.451 2.889l-1.684 1.229a2.059 2.059 0 01-2.88-.446z" fill="#fff"/><path d="M525.396 426.38a.509.509 0 01-.404-.203l-12.221-16.714a.5.5 0 01.109-.698l45.602-33.347a.5.5 0 01.588.806l-45.203 33.053 11.927 16.311a.5.5 0 01-.398.792z" fill="url(#paint27_linear_1119_4434)"/><path d="M698.13 390.926a.5.5 0 01-.295-.901l44.634-32.636-11.927-16.31a.5.5 0 01.807-.589l12.221 16.714a.513.513 0 01.09.37.492.492 0 01-.199.328l-45.037 32.93a.477.477 0 01-.294.094z" fill="#BDD0FB"/><path d="M582.494 420.179c3.098 4.237 2.177 10.186-2.064 13.284-4.237 3.098-10.186 2.178-13.284-2.064-3.098-4.236-2.178-10.186 2.064-13.284 4.236-3.098 10.186-2.173 13.284 2.064zm115.451-84.419c3.098 4.237 2.177 10.186-2.064 13.284-4.237 3.098-10.186 2.177-13.284-2.064-3.098-4.236-2.178-10.186 2.064-13.284 4.236-3.093 10.186-2.173 13.284 2.064zm132.569-212.339l-2.851 1.276a.892.892 0 01-1.181-.451.893.893 0 01.45-1.181h.005l2.856-1.267a.89.89 0 011.172.451.894.894 0 01-.451 1.172zm-9.364 4.436l-2.766 1.447a.914.914 0 01-.849-1.618h.005l2.77-1.438a.907.907 0 011.224.389.9.9 0 01-.384 1.22zm-9.067 4.986l-2.676 1.608a.934.934 0 01-.963-1.599h.005l2.68-1.599a.926.926 0 01.954 1.59zm-8.762 5.517l-2.576 1.76a.952.952 0 11-1.077-1.57h.005l2.58-1.751a.947.947 0 011.315.252.94.94 0 01-.247 1.309zm-8.421 6.011l-2.471 1.907a.975.975 0 01-1.191-1.541h.005l2.476-1.898a.973.973 0 011.357.18.96.96 0 01-.176 1.352zm-8.066 6.486l-2.358 2.045a.992.992 0 11-1.3-1.5l.005-.004 2.368-2.036a.986.986 0 111.285 1.495zm-7.69 6.931l-2.244 2.173a1.012 1.012 0 01-1.433-.024 1.01 1.01 0 01.024-1.432l.004-.005 2.254-2.164a1.005 1.005 0 011.423.029c.38.403.37 1.039-.028 1.423zm-7.298 7.349l-2.12 2.296a1.029 1.029 0 01-1.457.057 1.035 1.035 0 01-.057-1.461l.005-.005 2.13-2.287a1.033 1.033 0 011.452-.052c.408.389.432 1.039.047 1.452zm-6.878 7.743l-1.992 2.41a1.053 1.053 0 01-1.623-1.338l.005-.005 2.002-2.401a1.042 1.042 0 011.471-.132c.446.365.507 1.024.137 1.466zm-6.442 8.107l-1.855 2.515a1.074 1.074 0 01-1.499.228 1.076 1.076 0 01-.228-1.5l.005-.004 1.865-2.51a1.061 1.061 0 011.489-.218c.475.355.574 1.02.223 1.489zm-5.983 8.45l-1.713 2.614a1.092 1.092 0 11-1.826-1.2v-.005l1.722-2.609a1.09 1.09 0 011.817 1.2zm-5.513 8.768l-1.565 2.704a1.111 1.111 0 01-1.922-1.115v-.005l1.575-2.699a1.113 1.113 0 011.514-.399c.526.313.707.987.398 1.514zm-5.014 9.056l-1.414 2.785a1.134 1.134 0 01-1.518.498 1.134 1.134 0 01-.498-1.518v-.005l1.423-2.78a1.123 1.123 0 011.513-.489c.56.28.778.954.494 1.509zm-4.494 9.318l-1.253 2.861a1.152 1.152 0 11-2.111-.926v-.004l1.262-2.856c.256-.579.93-.84 1.509-.584.583.256.849.93.593 1.509zm-3.957 9.55l-1.087 2.927a1.17 1.17 0 11-2.197-.811v-.005l1.096-2.922a1.168 1.168 0 011.5-.683c.607.227.911.896.688 1.494zm-3.401 9.764l-.915 2.984a1.192 1.192 0 01-1.485.792 1.193 1.193 0 01-.793-1.485v-.005l.925-2.979a1.188 1.188 0 011.481-.783c.631.19.982.849.787 1.476zm-2.819 9.939l-.735 3.036a1.21 1.21 0 11-2.353-.569v-.005l.745-3.032a1.204 1.204 0 011.456-.882c.65.157 1.048.807.887 1.452zm-2.215 10.091l-.55 3.074a1.231 1.231 0 01-2.424-.432v-.005l.56-3.074a1.222 1.222 0 011.423-.982c.669.123 1.11.754.991 1.419zm-1.604 10.21l-.36 3.102a1.248 1.248 0 11-2.482-.289v-.005l.375-3.103a1.244 1.244 0 011.386-1.086 1.238 1.238 0 011.081 1.381zm-.977 10.285l-.176 3.117a1.268 1.268 0 11-2.533-.142v-.005l.185-3.117a1.264 1.264 0 012.524.147zm-.374 10.324l.004 3.121c0 .707-.569 1.276-1.276 1.276a1.273 1.273 0 01-1.276-1.276v-3.121c0-.703.569-1.277 1.276-1.277a1.28 1.28 0 011.272 1.277zm.228 10.333l.185 3.117a1.284 1.284 0 01-2.562.152l-.18-3.117a1.277 1.277 0 011.205-1.353 1.273 1.273 0 011.352 1.201zm.82 10.295l.36 3.102a1.293 1.293 0 01-2.566.299l-.356-3.103a1.29 1.29 0 012.562-.298zm1.399 10.238l.536 3.079a1.296 1.296 0 11-2.552.441l-.532-3.079a1.29 1.29 0 011.053-1.495 1.299 1.299 0 011.495 1.054zm1.969 10.152l.707 3.046c.161.702-.275 1.4-.977 1.566a1.308 1.308 0 01-1.566-.978l-.702-3.045a1.3 1.3 0 01.977-1.561c.702-.166 1.4.27 1.561.972zm2.529 10.025l.873 3.003a1.31 1.31 0 01-2.515.731l-.868-3.003a1.315 1.315 0 01.892-1.623 1.308 1.308 0 011.618.892zm3.079 9.873l1.035 2.951a1.315 1.315 0 01-.807 1.679 1.314 1.314 0 01-1.679-.806l-1.035-2.951a1.313 1.313 0 01.807-1.675 1.316 1.316 0 011.679.802zm3.616 9.688l1.195 2.889a1.327 1.327 0 01-.716 1.731 1.328 1.328 0 01-1.732-.716l-1.195-2.889a1.322 1.322 0 01.716-1.727 1.32 1.32 0 011.732.712zm4.141 9.469l1.357 2.818a1.331 1.331 0 01-.622 1.775 1.33 1.33 0 01-1.774-.622l-1.352-2.818a1.33 1.33 0 01.626-1.774 1.323 1.323 0 011.765.621zm4.664 9.233l1.508 2.737a1.336 1.336 0 01-.526 1.817 1.336 1.336 0 01-1.817-.527l-1.504-2.737a1.334 1.334 0 01.526-1.812 1.329 1.329 0 011.813.522zm5.166 8.952l1.661 2.647a1.35 1.35 0 01-.423 1.855 1.348 1.348 0 01-1.855-.422l-1.655-2.648a1.34 1.34 0 01.427-1.85 1.324 1.324 0 011.845.418zm5.664 8.639l1.808 2.548a1.351 1.351 0 01-2.201 1.565l-1.803-2.547a1.346 1.346 0 01.323-1.879 1.335 1.335 0 011.873.313zm6.144 8.298l1.95 2.433a1.357 1.357 0 11-2.116 1.699l-1.949-2.439a1.355 1.355 0 112.115-1.693zm6.619 7.923l2.093 2.315c.502.56.46 1.423-.1 1.926a1.36 1.36 0 01-1.926-.1l-2.088-2.32a1.364 1.364 0 01.1-1.926 1.363 1.363 0 011.921.105zm7.078 7.515l2.23 2.187a1.372 1.372 0 01-1.922 1.959l-2.225-2.192a1.364 1.364 0 01-.014-1.935 1.36 1.36 0 011.931-.019zm7.519 7.078l2.354 2.05c.574.498.635 1.371.132 1.945a1.377 1.377 0 01-1.945.133l-2.348-2.05a1.375 1.375 0 01-.133-1.94 1.366 1.366 0 011.94-.138zm7.924 6.623l2.467 1.912a1.387 1.387 0 01-1.698 2.192l-2.467-1.917a1.381 1.381 0 01-.242-1.94 1.377 1.377 0 011.94-.247zm8.289 6.168l2.571 1.774c.631.437.793 1.305.356 1.936a1.39 1.39 0 01-1.935.356l-2.567-1.775a1.391 1.391 0 01-.351-1.935 1.38 1.38 0 011.926-.356zm8.614 5.707l2.661 1.632a1.4 1.4 0 11-1.466 2.386l-2.661-1.636a1.396 1.396 0 01-.46-1.922 1.402 1.402 0 011.926-.46zm8.91 5.238l2.742 1.489a1.407 1.407 0 11-1.343 2.472l-2.742-1.494a1.401 1.401 0 01-.56-1.903 1.401 1.401 0 011.903-.564zm9.172 4.772l2.818 1.352a1.414 1.414 0 01.664 1.884 1.414 1.414 0 01-1.884.664l-2.813-1.352a1.412 1.412 0 01-.659-1.884 1.395 1.395 0 011.874-.664zm9.397 4.308l2.88 1.21a1.423 1.423 0 01.759 1.86 1.423 1.423 0 01-1.86.759l-2.875-1.215a1.415 1.415 0 01-.754-1.855 1.407 1.407 0 011.85-.759zm9.597 3.852l2.932 1.073a1.427 1.427 0 11-.982 2.68l-2.932-1.077a1.417 1.417 0 01-.844-1.826 1.415 1.415 0 011.826-.85zm9.77 3.392l2.974.935a1.436 1.436 0 01.94 1.798 1.436 1.436 0 01-1.798.939l-2.975-.939a1.433 1.433 0 01.859-2.733zm9.916 2.947l3.017.802a1.438 1.438 0 11-.74 2.78l-3.017-.807a1.437 1.437 0 11.74-2.775zm10.038 2.505l3.05.669c.783.17 1.277.944 1.106 1.722a1.443 1.443 0 01-1.722 1.1l-3.051-.673a1.448 1.448 0 01-1.101-1.722 1.44 1.44 0 011.718-1.096zm10.143 2.063l3.079.541a1.454 1.454 0 11-.503 2.866l-3.079-.541a1.45 1.45 0 01-1.177-1.684 1.45 1.45 0 011.68-1.182zm10.225 1.637l3.102.408a1.462 1.462 0 11-.384 2.899l-3.103-.413a1.454 1.454 0 01-1.252-1.636 1.453 1.453 0 011.637-1.258zm10.279 1.205l3.112.28a1.465 1.465 0 011.329 1.594 1.465 1.465 0 01-1.594 1.329l-3.112-.285a1.464 1.464 0 11.265-2.918zm10.329.779l3.121.151a1.47 1.47 0 011.4 1.542 1.471 1.471 0 01-1.542 1.4l-3.122-.157a1.473 1.473 0 01-1.399-1.542 1.468 1.468 0 011.542-1.394zm10.347.355l3.122.028a1.477 1.477 0 011.466 1.495 1.48 1.48 0 01-1.495 1.466l-3.121-.033a1.486 1.486 0 01-1.466-1.495 1.478 1.478 0 011.494-1.461zm10.351-.048l3.122-.09a1.484 1.484 0 011.528 1.447 1.486 1.486 0 01-1.447 1.528l-3.122.085a1.489 1.489 0 01-1.528-1.447 1.491 1.491 0 011.447-1.523zm10.347-.422l3.117-.199a1.493 1.493 0 011.589 1.395 1.499 1.499 0 01-1.394 1.589l-3.117.199a1.495 1.495 0 01-1.585-1.394 1.485 1.485 0 011.39-1.59zm10.33-.792l3.108-.308a1.5 1.5 0 11.294 2.989l-3.108.304a1.497 1.497 0 01-1.636-1.348 1.49 1.49 0 011.342-1.637zm10.294-1.148l3.098-.413a1.508 1.508 0 01.399 2.989l-3.098.408a1.503 1.503 0 01-1.689-1.295 1.499 1.499 0 011.29-1.689zm10.253-1.485l3.079-.513a1.512 1.512 0 011.741 1.248 1.513 1.513 0 01-1.247 1.741l-3.084.508a1.513 1.513 0 01-1.741-1.248 1.522 1.522 0 011.252-1.736zm10.204-1.803l3.064-.607a1.524 1.524 0 01.589 2.989l-3.065.602a1.52 1.52 0 01-.588-2.984zm10.148-2.116l3.043-.692c.82-.19 1.64.327 1.83 1.153.19.82-.33 1.641-1.15 1.831l-3.044.688a1.527 1.527 0 01-1.827-1.153 1.524 1.524 0 011.148-1.827zm10.083-2.405l3.02-.778c.82-.214 1.66.285 1.87 1.105.21.821-.28 1.661-1.1 1.87l-3.03.773a1.534 1.534 0 01-.76-2.97zm10.01-2.681l3-.858c.82-.238 1.68.237 1.91 1.058.23.82-.24 1.674-1.06 1.907l-3 .854a1.536 1.536 0 01-1.9-1.058c-.24-.816.23-1.67 1.05-1.903zm9.94-2.941l2.98-.934c.82-.257 1.69.199 1.94 1.015.26.816-.2 1.684-1.01 1.945l-2.99.935c-.81.256-1.68-.2-1.94-1.016a1.56 1.56 0 011.02-1.945zm9.88-3.198l2.96-1.01a1.555 1.555 0 011 2.946l-2.96 1.006c-.81.275-1.7-.161-1.98-.973-.27-.811.16-1.693.98-1.969zm9.79-3.43l2.94-1.076a1.563 1.563 0 011.07 2.936l-2.93 1.072a1.566 1.566 0 01-2.01-.929c-.29-.812.12-1.708.93-2.003z" fill="#7D97F4"/><path d="M844.681 113.596s.067-.366.214-1.03a.701.701 0 011.238-.284c.252-.181.541-.385.864-.603a.697.697 0 01.972.19.697.697 0 01-.19.972 38.042 38.042 0 00-1.821 1.315c-.086.066-.147.109-.176.132l-1.409 1.001.308-1.693zm1.049-4.469c.299-1.12.626-2.263.972-3.397a.698.698 0 01.873-.465c.37.114.579.503.465.878a97.602 97.602 0 00-.958 3.344.702.702 0 01-1.039.422.712.712 0 01-.313-.782zm4.033 1.641a.697.697 0 01.279-.949 35.862 35.862 0 013.217-1.561.7.7 0 11.546 1.291 34.1 34.1 0 00-3.089 1.499.703.703 0 01-.953-.28zm6.4-2.837a.699.699 0 01.483-.863 23.345 23.345 0 013.54-.717.699.699 0 11.166 1.39 21.85 21.85 0 00-3.326.674.69.69 0 01-.55-.076.686.686 0 01-.313-.408zm-8.365-5.56c.389-1.12.797-2.235 1.215-3.316a.697.697 0 01.906-.399.695.695 0 01.399.906 91.993 91.993 0 00-1.196 3.264.7.7 0 01-.892.432.695.695 0 01-.432-.887zm15.267 4.531a.701.701 0 01.75-.65c.873.061 1.741.189 2.571.384.328.076.65.142.963.204a.702.702 0 01-.265 1.376 24.289 24.289 0 01-1.011-.214 15.327 15.327 0 00-2.358-.351.683.683 0 01-.308-.099.69.69 0 01-.342-.65zm12.397 5.977a.703.703 0 01.641-.412c.507-.389 1.134-.665 1.921-.864a.699.699 0 11.342 1.357c-.959.242-1.542.598-1.964 1.196l-1.21-.698.27-.579zm-5.475-4.972a.7.7 0 01.717-.683c1.195.029 2.305-.076 3.287-.318a.699.699 0 01.845.517.706.706 0 01-.517.85c-1.106.27-2.334.389-3.658.355a.692.692 0 01-.342-.099.73.73 0 01-.332-.622zM850.356 95.79a79.492 79.492 0 011.47-3.211.7.7 0 111.262.607 79.993 79.993 0 00-1.447 3.16.7.7 0 11-1.285-.556zm26.534 13.887c.541-1.238 1.001-2.32 1.362-3.217a.703.703 0 01.911-.389.706.706 0 01.384.911c-.365.906-.83 2.002-1.376 3.255a.7.7 0 01-.925.36c-.028-.014-.057-.028-.081-.042a.704.704 0 01-.275-.878zm4.075 2.178a.699.699 0 01.613-.778 40.528 40.528 0 003.401-.532.7.7 0 11.28 1.371c-1.314.271-2.467.422-3.515.551a.717.717 0 01-.446-.095.707.707 0 01-.333-.517zm-4.203-5.29a.699.699 0 01.152-.978c.906-.664 1.466-1.394 1.836-1.874.156-.204.285-.37.389-.479.057-.061.109-.109.156-.147a.684.684 0 01.968.114c.247.299.185.759-.114 1.001-.08.081-.17.209-.289.361-.394.512-1.053 1.371-2.121 2.154a.698.698 0 01-.977-.152zm-23.323-17.136a74.04 74.04 0 011.552-2.728l.208-.342a.698.698 0 01.959-.237c.332.199.436.63.237.963l-.204.337c-.517.863-1.03 1.76-1.523 2.67a.703.703 0 01-.949.285l-.028-.014a.701.701 0 01-.252-.934zm34.396 21.13a.703.703 0 01.451-.882 33.683 33.683 0 003.202-1.224.7.7 0 01.925.361.7.7 0 01-.36.925c-1.11.488-2.23.915-3.335 1.271a.69.69 0 01-.574-.066.681.681 0 01-.309-.385zm6.457-2.68a.708.708 0 01.275-.954c.214-.118.432-.237.65-.365a24.125 24.125 0 002.235-1.452.698.698 0 01.977.152.698.698 0 01-.152.977 24.27 24.27 0 01-2.372 1.538c-.223.128-.446.251-.669.374a.7.7 0 01-.944-.27zm-36.991-23.522a.7.7 0 01-.18-.973 58.02 58.02 0 012.097-2.86c.237-.304.688-.366.982-.12.304.238.36.68.118.983a59.115 59.115 0 00-2.044 2.79.7.7 0 01-.94.204c-.009-.005-.019-.015-.033-.024zm42.727 19.537a.7.7 0 010-.992 22.03 22.03 0 002.211-2.576.69.69 0 01.977-.147c.313.228.38.669.147.977a24.442 24.442 0 01-2.348 2.738.7.7 0 01-.987 0zm-38.476-25.102a.705.705 0 01-.052-.992 43.787 43.787 0 012.481-2.547.704.704 0 01.992.023.704.704 0 01-.024.992 44.032 44.032 0 00-2.405 2.472.71.71 0 01-.883.133.604.604 0 01-.109-.081zm42.499 18.659c.527-.991.992-2.035 1.385-3.112a.698.698 0 111.314.479 26.116 26.116 0 01-1.461 3.288.703.703 0 01-.949.29l-.033-.02a.693.693 0 01-.256-.925zm-37.499-23.555a.706.706 0 01.11-.987 38.147 38.147 0 012.889-2.092.699.699 0 11.764 1.172A36.004 36.004 0 00867.534 74a.695.695 0 01-.797.052.633.633 0 01-.185-.156zM906.38 91.07c.361-1.675.418-2.851.399-3.14l-.327-1.514a.7.7 0 011.366-.294l.318 1.48-.014.005c.208.991-.375 3.733-.38 3.762a.698.698 0 01-1.044.45.706.706 0 01-.318-.749zm-34.04-21.102a.7.7 0 01.304-.945 32.893 32.893 0 013.264-1.46.703.703 0 01.503 1.309 31.63 31.63 0 00-3.122 1.4.7.7 0 01-.683-.025.689.689 0 01-.266-.28zm6.467-2.648a.694.694 0 01.498-.854c1.143-.299 2.32-.54 3.501-.716a.702.702 0 01.209 1.385 31.993 31.993 0 00-3.354.688.69.69 0 01-.541-.076.737.737 0 01-.313-.427zm26.909 15.666l-.735-3.425a.7.7 0 011.366-.295l.736 3.426a.7.7 0 01-1.044.745.685.685 0 01-.323-.451zm-20.025-16.852a.7.7 0 01.669-.73 35.734 35.734 0 013.563.019.7.7 0 11-.072 1.4 36.074 36.074 0 00-3.43-.02.7.7 0 01-.73-.669zm18.555 10.001l-.736-3.425a.7.7 0 011.367-.294l.735 3.425a.7.7 0 01-1.366.294zm-11.567-9.768a.694.694 0 01.792-.593c1.144.161 2.32.38 3.497.64.375.085.617.46.531.835a.699.699 0 01-.835.532 42.926 42.926 0 00-3.387-.622.703.703 0 01-.598-.792zm6.851 1.413a.699.699 0 01.873-.47c1.077.323 2.182.689 3.283 1.092l.365.133.1.46a.7.7 0 01-1.191.631 56.503 56.503 0 00-2.956-.973.966.966 0 01-.161-.07.692.692 0 01-.313-.802z" fill="#91B3FA"/><path d="M904.996 80.366s-1.916 15.405-13.378 15.215c-11.463-.19-22.977-3.226-26.872.508 0 0 9.403-28.864 38.519-20.918l1.731 5.195z" fill="url(#paint28_linear_1119_4434)"/><path d="M937.173 86.164s3.53 14.825-.323 18.265c-3.667 3.269-36.962 12.345-40.202 13.222a.283.283 0 01-.342-.185 3.898 3.898 0 01.446-3.511c3.392-4.986 13.64-19.793 18.175-23.275 5.475-4.208 22.246-4.516 22.246-4.516z" fill="url(#paint29_linear_1119_4434)"/><path d="M907.897 112.447a.353.353 0 00.28.038c.185-.052 18.332-5.337 26.056-7.918a3.654 3.654 0 002.486-3.126c.213-2.273.493-6.728-.038-11.069a.35.35 0 00-.389-.303.347.347 0 00-.304.389c.522 4.279.247 8.677.033 10.921a2.964 2.964 0 01-2.011 2.529c-7.71 2.576-25.847 7.856-26.027 7.908a.348.348 0 00-.086.631z" fill="#fff" opacity=".58"/><path d="M925.271 52.816s-6.656-13.71-11.818-13.929c-4.91-.209-36.422 13.853-39.487 15.224a.29.29 0 00-.151.36 3.896 3.896 0 002.571 2.435c5.783 1.712 23.09 6.684 28.807 6.504 6.903-.213 20.078-10.594 20.078-10.594z" fill="url(#paint30_linear_1119_4434)"/><path d="M886.115 51.431a.356.356 0 00.318.024c.176-.076 17.554-7.472 25.154-10.361a2.958 2.958 0 013.155.683c1.585 1.603 4.583 4.834 6.889 8.473a.347.347 0 00.484.11.352.352 0 00.109-.485c-2.221-3.51-5.024-6.608-6.979-8.592a3.655 3.655 0 00-3.904-.844c-7.61 2.894-25.003 10.295-25.178 10.37a.348.348 0 00-.185.461.328.328 0 00.137.161z" fill="#fff" opacity=".58"/><path d="M985.318 68.766a78.828 78.828 0 01-21.538 11.842c-26.526 9.555-47.671 11.989-53.701 12.52a2.995 2.995 0 01-2.747-1.333c-4.787-7.183-7.662-15.053-8.634-23.612a4.34 4.34 0 011.907-4.09c5.845-3.909 23.342-14.835 48.776-23.83a78.803 78.803 0 0124.001-4.47c8.374 11.847 10.926 25.283 11.936 32.973z" fill="url(#paint31_linear_1119_4434)"/><path d="M973.377 35.794c16.263-.48 28.733 4.061 32.823 5.774.8.337 1.14 1.28.73 2.044-2.07 3.905-8.807 15.249-21.617 25.155-1.005-7.69-3.558-21.127-11.936-32.973z" fill="url(#paint32_linear_1119_4434)"/><path d="M953.567 46.472c-6.879 2.453-10.319 10.428-7.681 17.81 2.633 7.383 10.347 11.377 17.221 8.92 6.88-2.453 10.319-10.428 7.681-17.81-2.633-7.378-10.347-11.372-17.221-8.92z" fill="url(#paint33_linear_1119_4434)"/><path d="M954.745 48.694c-5.479 1.954-8.222 8.307-6.12 14.19 2.102 5.883 8.246 9.061 13.725 7.107 5.48-1.955 8.222-8.307 6.12-14.19-2.097-5.883-8.245-9.067-13.725-7.107z" fill="url(#paint34_linear_1119_4434)"/><path d="M963.058 66.138a.354.354 0 00.39-.019c3.003-2.234 4.184-6.362 2.87-10.034a9.234 9.234 0 00-1.395-2.548.353.353 0 00-.493-.061.347.347 0 00-.062.488c.55.707.982 1.5 1.286 2.354 1.209 3.387.128 7.187-2.629 9.237a.346.346 0 00-.071.488.29.29 0 00.104.095z" fill="#91B3FA"/><path d="M930.158 59.942c-4.545 1.622-6.817 6.889-5.076 11.766 1.741 4.877 6.836 7.514 11.376 5.892 4.545-1.623 6.818-6.889 5.077-11.766-1.737-4.877-6.832-7.515-11.377-5.892z" fill="url(#paint35_linear_1119_4434)"/><path d="M930.94 61.408c-3.62 1.29-5.432 5.489-4.042 9.374 1.385 3.886 5.446 5.988 9.066 4.697 3.62-1.29 5.432-5.489 4.042-9.374-1.385-3.886-5.446-5.992-9.066-4.697z" fill="url(#paint36_linear_1119_4434)"/><path d="M936.367 73.036a.353.353 0 00.389-.019c2.026-1.508 2.823-4.289 1.94-6.765a6.178 6.178 0 00-.939-1.718.352.352 0 00-.493-.061.353.353 0 00-.062.493c.356.456.636.968.83 1.523.783 2.187.086 4.645-1.698 5.968a.344.344 0 00.033.58z" fill="#91B3FA"/><path d="M594.669 34.518c-.095 102.457-.878 455.866-7.012 580.977-.65 13.255-9.973 23.697-21.321 23.878-56.115.906-261.774 1.793-353.38-4.735-19.082-1.362-33.87-19.798-33.77-42.167.474-107.533 2.965-409.965 16.021-548.246 1.566-16.567 12.99-29.538 27.194-30.88 61.22-5.793 268.027-18.693 347.123-10.922 14.271 1.4 25.164 15.339 25.145 32.095z" fill="url(#paint37_linear_1119_4434)"/><path d="M568.96 65.385c1.186 82.725 4.62 357.93-.655 459.552-.769 14.854-11.05 26.648-23.759 27.236-52.33 2.42-230.775 6.362-307.257-2.514-13.773-1.599-24.315-14.897-24.699-31.084-2.016-84.415-7.501-340.723-2.377-441.202.816-16.03 11.728-28.892 25.425-30.026 56.66-4.688 246.407-14.617 311.441-9.019 12.202 1.044 21.672 12.733 21.881 27.056z" fill="url(#paint38_linear_1119_4434)"/><path d="M559.339 75.874c1.1 79.423 4.26 343.636-.759 441.201-.736 14.262-10.466 25.591-22.493 26.155-49.525 2.339-218.401 6.177-290.78-2.32-13.032-1.532-23.005-14.294-23.365-29.836-1.884-81.046-6.993-327.112-2.116-423.586.778-15.39 11.106-27.745 24.067-28.836 53.625-4.516 233.195-14.11 294.742-8.753 11.557 1.006 20.514 12.226 20.704 25.975zM435.057 18.297c-.071 3.141-2.22 5.689-4.905 5.793-13.26.517-50.617 1.988-67.316 2.752-3.293.152-5.798-3.364-5.091-7.13l.119-.646c.484-2.571 2.353-4.474 4.597-4.664 11.296-.958 45.374-3.553 67.885-2.116 2.709.171 4.783 2.842 4.711 6.011z" fill="#7D97F4"/><path d="M376.401 199.248c0 6.201-5.575 11.23-12.449 11.23H257.619c-6.875 0-12.449-5.029-12.449-11.23V88.911c0-6.2 5.574-11.23 12.449-11.23h106.333c6.874 0 12.449 5.03 12.449 11.23v110.337z" fill="url(#paint39_linear_1119_4434)"/><path d="M534.065 199.248c0 6.201-5.575 11.23-12.449 11.23H415.283c-6.875 0-12.449-5.029-12.449-11.23V88.911c0-6.2 5.574-11.23 12.449-11.23h106.333c6.874 0 12.449 5.03 12.449 11.23v110.337z" fill="url(#paint40_linear_1119_4434)"/><path d="M376.401 355.813c0 6.201-5.575 11.23-12.449 11.23H257.619c-6.875 0-12.449-5.029-12.449-11.23V245.481c0-6.201 5.574-11.23 12.449-11.23h106.333c6.874 0 12.449 5.029 12.449 11.23v110.332z" fill="url(#paint41_linear_1119_4434)"/><path d="M534.065 355.813c0 6.201-5.575 11.23-12.449 11.23H415.283c-6.875 0-12.449-5.029-12.449-11.23V245.481c0-6.201 5.574-11.23 12.449-11.23h106.333c6.874 0 12.449 5.029 12.449 11.23v110.332z" fill="url(#paint42_linear_1119_4434)"/><path d="M376.401 512.383c0 6.201-5.575 11.229-12.449 11.229H257.619c-6.875 0-12.449-5.028-12.449-11.229V402.05c0-6.2 5.574-11.229 12.449-11.229h106.333c6.874 0 12.449 5.029 12.449 11.229v110.333z" fill="url(#paint43_linear_1119_4434)"/><path d="M534.065 512.383c0 6.201-5.575 11.229-12.449 11.229H415.283c-6.875 0-12.449-5.028-12.449-11.229V402.05c0-6.2 5.574-11.229 12.449-11.229h106.333c6.874 0 12.449 5.029 12.449 11.229v110.333z" fill="url(#paint44_linear_1119_4434)"/><path d="M467.731 182.506c-20.889 0-37.883-16.994-37.883-37.878 0-20.889 16.994-37.878 37.883-37.878 20.888 0 37.878 16.993 37.878 37.878 0 20.889-16.99 37.878-37.878 37.878zm0-69.413c-17.388 0-31.536 14.147-31.536 31.53 0 17.388 14.148 31.53 31.536 31.53 17.387 0 31.53-14.147 31.53-31.53 0-17.383-14.143-31.53-31.53-31.53z" fill="#BDD0FB"/><path fill-rule="evenodd" clip-rule="evenodd" d="M461.535 162.442c-2.501 1.485-5.67-.318-5.67-3.231v-27.232c0-2.908 3.169-4.715 5.67-3.23l22.948 13.616c2.452 1.456 2.452 5 0 6.456l-22.948 13.621z" fill="#BDD0FB"/><path d="M355.502 283.558a3.473 3.473 0 00-1.794-.479h-71.154l-3.444-11.642c-.356-1.205-1.39-2.211-2.643-2.373l-18.412-2.41c-1.746-.237-3.345 1.011-3.573 2.757-.227 1.746 1.001 3.368 2.742 3.596l16.359 2.192 15.575 52.642c.399 1.352 1.646 2.467 3.055 2.467h54.17c1.533 0 2.847-1.257 3.131-2.761l7.648-40.592a3.142 3.142 0 00-1.66-3.397zm-7.862 19.589h-13.393v-14.166h16.064l-2.671 14.166zm-38.77 6.495h20.069v13.92c0 .085.004.166.009.246h-20.092c.005-.08.014-.161.014-.246v-13.92zm0-6.495v-14.166h20.069v14.166H308.87zm-6.495-14.166v14.166h-13.886l-4.189-14.166h18.075zm-11.969 20.661h11.969v13.92c0 .085.005.166.015.246h-7.79l-4.194-14.166zm53.339 14.166h-9.502c.004-.08.009-.161.009-.246v-13.92h12.164l-2.671 14.166zm-42.737 24.756a6.405 6.405 0 10-.001-12.811 6.405 6.405 0 00.001 12.811zm45.387-5.61a6.405 6.405 0 10-12.715-1.563 6.405 6.405 0 0012.715 1.563zm-1.36-232.243h-68.204a9.235 9.235 0 00-5.816 2.054c-.522.214-.987.57-1.338 1.058a3.235 3.235 0 00-.403.792 9.244 9.244 0 00-1.727 5.38v50.498a9.283 9.283 0 009.284 9.285h68.204a9.283 9.283 0 009.284-9.285v-50.498a9.283 9.283 0 00-9.284-9.284zm-16.159 22.692l19.532-13.872c.005.08.014.166.014.246v47.784a13945.26 13945.26 0 01-19.546-34.158zm-5.608-3.649a2.947 2.947 0 00-.868.745l-11.951 8.492-12.776-9.061c-.005-.005-.01-.005-.014-.01L278.9 116.618h63.051l-18.185 12.913a2.908 2.908 0 00-.498.223zm-49.819 35.725v-45.227l18.403 13.051a17494.704 17494.704 0 01-18.403 32.176zm3.164 7.804c-.199 0-.389-.019-.579-.057.641-1.082 1.457-2.5 2.534-4.379 2.23-3.881 5.19-9.057 8.15-14.233 3.995-6.979 7.975-13.957 10.148-17.757l11.814 8.378a3.06 3.06 0 003.539 0l11.642-8.269c2.183 3.824 6.134 10.736 10.086 17.653 2.961 5.176 5.921 10.347 8.151 14.233a362.146 362.146 0 002.567 4.436h-68.052v-.005zM514.88 326.911c0 7.088-5.745 12.838-12.838 12.838h-65.233c-7.088 0-12.838-5.745-12.838-12.838V283.52c0-7.088 5.745-12.838 12.838-12.838h65.233c7.088 0 12.838 5.745 12.838 12.838v43.391zm-4.72-43.187a7.142 7.142 0 00-7.141-7.14h-64.82a7.141 7.141 0 00-7.14 7.14v42.39a7.141 7.141 0 007.14 7.14h64.82a7.142 7.142 0 007.141-7.14v-42.39z" fill="#BDD0FB"/><path d="M501.307 269.776a4.445 4.445 0 01-4.445 4.445h-10.585a4.445 4.445 0 01-4.445-4.445v-.55a4.446 4.446 0 014.445-4.446h10.585a4.446 4.446 0 014.445 4.446v.55zm-3.545 20.049a3.294 3.294 0 01-3.292 3.293h-11.718a3.295 3.295 0 01-3.293-3.293v-.503a3.294 3.294 0 013.293-3.292h11.718a3.293 3.293 0 013.292 3.292v.503zm-17.71 17.013c0 10.68-8.658 19.333-19.332 19.333h-1.471c-10.679 0-19.333-8.658-19.333-19.333v-1.47c0-10.68 8.658-19.333 19.333-19.333h1.471c10.679 0 19.332 8.658 19.332 19.333v1.47zm-5.901-2.448c0-7.534-6.106-13.64-13.635-13.64h-1.651c-7.534 0-13.635 6.106-13.635 13.64v1.651c0 7.534 6.105 13.64 13.635 13.64h1.651c7.533 0 13.635-6.106 13.635-13.64v-1.651zM309.753 417.773c-11.116-.484-21.767 3.084-29.97 10.072-8.26 7.031-13.065 16.671-13.521 27.142-.944 21.534 17.037 39.875 40.075 40.891.673.028 1.342.042 2.016.042 10.39 0 20.249-3.553 27.958-10.114 8.26-7.031 13.061-16.672 13.521-27.142.939-21.53-17.041-39.871-40.079-40.891zm30.733 24.224l-7.951-.071c-1.13-3.212-2.6-6.196-4.403-8.891a34.4 34.4 0 00-2.059-2.756l1.148-.01c.92-.009 1.836-.023 2.752-.033 4.407 3.127 8.017 7.15 10.513 11.761zm-68.725 15.613l7.182.053c.034 1.902.167 3.795.413 5.641a45.652 45.652 0 001.22 6.029l-5.214.034-.878.033a31.312 31.312 0 01-2.723-11.79zm59.341-12.463c.906 3.336 1.418 6.851 1.527 10.466l-13.696-.038c-.057-4.051-.304-7.875-.755-11.538l6.054-.014 6.528-.043c.119.385.237.774.342 1.167zm-35.103 42.931c-1.3-.83-2.562-1.841-3.772-2.994h8.706c.1.285.199.57.304.845.635 1.679 1.271 3.003 1.992 4.146a38.457 38.457 0 01-5.977-1.257c-.423-.232-.84-.474-1.253-.74zm-12.7-44.088h.213l14.247.038a134.195 134.195 0 00-.303 3.449 131.32 131.32 0 00-.266 4.834c-.033.982-.067 2.092-.085 3.245l-6.865.01-8.806.052c.048-1.552.171-3.093.366-4.597.265-2.04.654-4.014 1.157-5.869.105-.389.223-.778.342-1.162zm16.078-19.85a40.114 40.114 0 013.852-.636c-.066.095-.133.185-.199.285-.427.654-.821 1.39-1.21 2.244-.299.65-.579 1.352-.863 2.139h-.508c-1.357 0-2.714.005-4.07.015l-3.416.023a24.934 24.934 0 013.022-2.31 23.276 23.276 0 013.392-1.76zm7.197 66.234c-.157-.004-.308-.023-.465-.033a8.334 8.334 0 01-.863-1.096c-.712-1.082-1.338-2.377-1.969-4.085-.01-.023-.019-.052-.029-.076h9.579c-.617 1.685-1.229 2.97-1.917 4.043-.332.507-.645.91-.968 1.247-1.11.048-2.234.048-3.368 0zm9.669-42.864c.218 2.619.337 5.323.365 8.056l-8.663-.024-8.44.014c.019-2.861.104-5.465.261-7.923.076-1.238.171-2.434.28-3.601l7.904.024 7.956-.014c.128 1.124.242 2.277.337 3.468zm-.214 21.748l-8.089-.024-7.885.014c-.08-.844-.156-1.708-.223-2.595a125.013 125.013 0 01-.327-8.929l8.445.024 8.668-.014a122.557 122.557 0 01-.347 8.772c-.071.939-.152 1.855-.242 2.752zm-2.5 13.71h-10.973a50.562 50.562 0 01-.622-2.281 67.545 67.545 0 01-.963-4.621 88.145 88.145 0 01-.678-4.65l7.652.019 7.847-.014a86.252 86.252 0 01-.655 4.498 65.285 65.285 0 01-.953 4.62 47.231 47.231 0 01-.655 2.429zm-5.589-41.118l-7.671.014c.142-1.252.304-2.471.489-3.667.256-1.665.545-3.183.873-4.645a47.88 47.88 0 01.83-3.197l5.484.009 5.086-.014c.337.977.65 2.016.954 3.16a66.08 66.08 0 011.029 4.606 84.7 84.7 0 01.612 3.762l-7.686-.028zm-1.855-18.526c.024-.019.043-.029.067-.048a44.088 44.088 0 011.589-.033c.408 0 .816.014 1.224.029.062.042.119.085.18.132.47.394.911.897 1.381 1.585.603.887 1.143 1.921 1.684 3.193l-4.265-.024-4.749.01c.171-.451.342-.878.517-1.277a15.07 15.07 0 011.044-1.983c.446-.697.868-1.205 1.328-1.584zm11.809 18.559a89.182 89.182 0 00-.712-4.189 67.532 67.532 0 00-1.115-4.749 52.343 52.343 0 00-.792-2.6l4.241-.014 3.696-.028a31.612 31.612 0 013.079 3.966c1.518 2.32 2.785 4.886 3.786 7.647l-12.183-.033zm-3.411-13.692c-.726-1.793-1.452-3.188-2.273-4.374-.085-.123-.171-.228-.256-.341.465.047.925.099 1.381.166a21.75 21.75 0 014.711 2.258 25.06 25.06 0 013.05 2.329l-6.613-.038zm-18.109 2.145c1.29.009 2.586.014 3.876.014a55.522 55.522 0 00-.721 2.714 73.63 73.63 0 00-.954 4.782 98.216 98.216 0 00-.579 4.023l-6.347.009-7.672.048c1.001-2.761 2.263-5.323 3.777-7.648a31.914 31.914 0 013.088-3.99l5.532.048zm-13.412 38.514a43.85 43.85 0 01-1.162-5.869 46.269 46.269 0 01-.38-5.299l15.685.038c.028 3.093.161 6.158.403 9.118.066.821.142 1.623.223 2.415l-6.078.009-8.554.052c-.042-.151-.09-.308-.137-.464zm15.02 2.561c.218 1.742.47 3.416.769 5.053.313 1.708.65 3.269 1.034 4.768.157.603.313 1.177.479 1.736h-10.039a31.745 31.745 0 01-2.443-3.254c-1.646-2.515-2.994-5.314-4.028-8.34l14.228.037zm14.831 18.736c.754-1.187 1.423-2.577 2.092-4.365.085-.228.166-.465.247-.698h6.67c-1.214 1.158-2.486 2.173-3.786 3.004a22.402 22.402 0 01-3.601 1.84c-.536.086-1.077.157-1.622.219zm3.017-7.179c.176-.602.351-1.224.517-1.883.38-1.504.717-3.065 1.025-4.773.285-1.599.527-3.231.735-4.896l6.135-.014 6.082-.043c-1.044 3.037-2.396 5.845-4.042 8.36a31.882 31.882 0 01-2.439 3.245h-8.013v.004zm15.134-13.663l-12.615-.038c.375-3.648.57-7.472.598-11.538l6.704-.014 6.993-.043c-.062 3.871-.579 7.634-1.547 11.182-.043.152-.09.299-.133.451zm-6.718-41.061l-.118-.129a29.34 29.34 0 00-2.742-2.424 37.623 37.623 0 015.489 2.567l-2.629-.014zm-34.358-.143c-.042.043-.085.09-.128.138l-1.024.009a39.424 39.424 0 012.248-1.186c-.374.337-.74.683-1.096 1.039zm-.801 56.983c.166.181.332.356.503.532a33.522 33.522 0 01-.916-.532h.413zm35.055.821c.261-.265.517-.541.773-.821h2.961a37.02 37.02 0 01-6.04 2.909 28.913 28.913 0 002.306-2.088zm-40.791-53.861a35.966 35.966 0 012.306-1.798l2.272.028a34.33 34.33 0 00-2.059 2.752c-1.812 2.699-3.288 5.693-4.422 8.924l-6.082.038h-.014c1.94-3.706 4.63-7.079 7.999-9.944zm-8.763 11.485l.389.39 5.817.047c-.052.18-.114.361-.166.541a45.429 45.429 0 00-1.267 6.191 49.61 49.61 0 00-.399 4.939l-6.423.038-.778.028c.004-.161 0-.318.009-.474a31.174 31.174 0 012.818-11.7zm.816 27.778l5.788.048c1.158 3.501 2.723 6.741 4.664 9.64.46.683.944 1.338 1.437 1.973h-1.309c-.138 0-.27.029-.394.076-4.279-3.15-7.776-7.163-10.186-11.737zm57.33 10.309a38.63 38.63 0 01-1.703 1.357h-4.322c.498-.64.986-1.3 1.447-1.988 1.935-2.898 3.496-6.134 4.649-9.63l7.714-.053.427-.009c-1.964 3.847-4.725 7.353-8.212 10.323zm11.585-23.19a31.29 31.29 0 01-2.865 11.78l-.01-.82-8.027-.072c1.011-3.71 1.556-7.628 1.627-11.661l8.303-.052.925-.024.038-1.314-.56-.574-8.715-.071c-.128-3.838-.683-7.567-1.665-11.106-.053-.185-.114-.37-.166-.556l7.32-.052.925-.023c2.05 4.469 3.098 9.403 2.87 14.545zm95.549 34.207h-12.425c-2.728 0-5.238-1.983-5.238-4.749v-23.84c0-2.766 2.51-5.057 5.238-5.057h12.425c2.69 0 4.18 2.244 4.18 5.057v23.84c0 2.813-1.495 4.749-4.18 4.749zm-.546-4.659v2.462-2.462zM427.447 464.3s.072-.313.072-.256v23.84c0 .071-.01.095-.01.095l12.041-.005c.005-.024-.223-.052-.223-.09v-23.84c0-.033.408.256.403.256h-12.283zm35.511 28.333h-11.656c-2.643 0-5.49-1.984-5.49-4.749v-37.385c0-2.766 2.842-5.086 5.49-5.086h11.656c2.6 0 4.109 2.182 4.109 5.086v37.385c0 2.908-1.509 4.749-4.109 4.749zm-11.509-4.721h11.068s.417.005.417-.028v-37.385c0-.033-.417-.954-.417-.954h-11.068c-.005 0-.318.921-.318.954v37.385c0 .038.308.028.318.028zm40.412.299a5.013 5.013 0 01-5.015 5.015h-12.989a5.013 5.013 0 01-5.015-5.015v-49.587a5.013 5.013 0 015.015-5.015h12.989a5.013 5.013 0 015.015 5.015v49.587zm-4.725-50.384a.09.09 0 00-.091-.09h-12.809a.09.09 0 00-.09.09v49.407c0 .047.038.09.09.09h12.809a.09.09 0 00.091-.09v-49.407zm29.518 49.203a5.013 5.013 0 01-5.015 5.014h-12.99a5.013 5.013 0 01-5.014-5.014v-59.626a5.013 5.013 0 015.014-5.015h12.99a5.013 5.013 0 015.015 5.015v59.626zm-5.314-60.418a.09.09 0 00-.09-.091h-12.809a.09.09 0 00-.09.091v59.44c0 .048.038.09.09.09h12.809a.09.09 0 00.09-.09v-59.44z" fill="#BDD0FB"/><path d="M337.723 331.637c.446.716.878 1.447 1.295 2.182a78.366 78.366 0 0110.371 39.045c0 8.991-1.513 17.63-4.303 25.69-3.563 10.286-9.199 19.632-16.42 27.55-14.882 16.316-36.507 26.582-60.574 26.582-19.94 0-38.196-7.045-52.334-18.74-17.706-14.64-28.959-36.578-28.959-61.087 0-23.968 10.75-45.464 27.777-60.095a81.59 81.59 0 0141.318-18.839 82.603 82.603 0 0112.202-.897c12.53 0 24.4 2.785 34.999 7.757a80.645 80.645 0 0113.051 7.676h2.173v1.618a80.897 80.897 0 0114.778 14.825c.019.024.038.053.062.081l4.564 6.652z" fill="#fff" opacity=".3"/><path d="M337.723 331.637c.446.716.877 1.447 1.295 2.182a78.366 78.366 0 0110.371 39.045c0 8.991-1.514 17.63-4.303 25.69H228.994c-7.966 0-14.418-5.826-14.418-13.013v-72.772a81.586 81.586 0 0141.318-18.84 82.74 82.74 0 0112.202-.896c12.53 0 24.4 2.785 34.998 7.757a80.662 80.662 0 017.587 4.056l7.638 3.62v1.618a80.96 80.96 0 0114.778 14.825c.019.024.038.053.062.081l4.564 6.647z" fill="url(#paint45_linear_1119_4434)"/><path d="M328.664 426.104c-14.882 16.316-36.507 26.583-60.574 26.583-19.94 0-38.196-7.046-52.334-18.74 2.215-4.616 7.306-7.843 13.236-7.843h99.672z" fill="url(#paint46_linear_1119_4434)"/><path d="M337.722 331.637l-4.569-6.647a.496.496 0 00-.062-.081l-.014.081h-14.764v-16.524l-7.638-3.62a80.03 80.03 0 00-7.586-4.056h-45.151l-2.045-6.856a82.85 82.85 0 00-7.411 1.442l17.065 57.61c.465 1.565 1.903 2.704 3.54 2.704h62.771c1.774 0 3.292-1.376 3.625-3.117l3.539-18.749a75.459 75.459 0 00-1.3-2.187zm-49.511.441h22.431v15.343h-22.431v-15.343zm22.431-23.617v16.524h-22.431v-16.524h22.431zm-29.514 0v16.524h-15.974l-4.93-16.524h20.904zm-9.29 38.96l-4.573-15.343h13.858v15.343h-9.285zm56.96 0h-10.48v-15.343h13.412l-2.932 15.343z" fill="url(#paint47_linear_1119_4434)"/><path d="M279.272 377.139a7.42 7.42 0 100-14.84 7.42 7.42 0 000 14.84z" fill="url(#paint48_linear_1119_4434)"/><path d="M324.494 377.139a7.42 7.42 0 100-14.84 7.42 7.42 0 000 14.84z" fill="url(#paint49_linear_1119_4434)"/><path d="M106.287 625.562c-6.14.532-16.795 1.395-25.197 1.765-5.048.223-7.956-.27-9.631-.944l.014.532c.038.882.76 1.589 1.651 1.641 15.875.887 28.499.309 32.992.033.93-.057 1.485-1.067 1.006-1.859a11.06 11.06 0 00-.835-1.168z" fill="url(#paint50_linear_1119_4434)"/><path d="M81.085 627.327c8.402-.37 19.057-1.233 25.196-1.765-6.034-7.406-25.196-12.396-25.196-12.396H75.67c-3.724 5.365-4.26 10.475-4.222 13.217 1.68.674 4.588 1.167 9.636.944z" fill="url(#paint51_linear_1119_4434)"/><path d="M74.766 604.332l.507 10.019a2.292 2.292 0 001.955 2.154c1.082.157 2.529.176 4.066-.337a2.71 2.71 0 001.822-2.082l1.75-9.754h-10.1z" fill="url(#paint52_linear_1119_4434)"/><path d="M4.474 627.251c-2.661-.37-3.866-1.756-4.374-3.236-.005.014-.005.029-.01.038-.393 1.561.518 3.179 2.335 3.947 2.196.93 4.592 1.087 6.457 1.011 1.997-.081 3.833-.911 4.839-2.235l.014-.019c-2.007.997-4.82 1.115-9.26.494z" fill="url(#paint53_linear_1119_4434)"/><path d="M17.027 604.265h-4.464c-6.799-.137-11.069 14.2-12.463 19.75.503 1.481 1.708 2.861 4.374 3.236 4.44.622 7.258.503 9.26-.489 3.673-4.834 5.494-11.912 6.367-16.04.997-4.701-3.074-6.457-3.074-6.457z" fill="url(#paint54_linear_1119_4434)"/><path d="M13.137 594.966l-2.477 9.859a2.676 2.676 0 001.39 3.031c1.386.712 3.34 1.462 5.134 1.243.844-.099 1.546-.697 1.821-1.489l3.64-10.371-9.508-2.273z" fill="url(#paint55_linear_1119_4434)"/><path d="M10.182 597.813c3.083 2.738 13.113 3.098 13.113 3.098 36.122-86.701 50.9-99.022 50.9-99.022-5.213 32.726-.839 105.176-.839 105.176 5.964 2.628 13.645 0 13.645 0 .483-53.577 8.72-100.299 18.445-137.138-24.414-.55-37.399-8.905-41.64-12.259-20.348 32.816-53.624 140.145-53.624 140.145z" fill="url(#paint56_linear_1119_4434)"/><path d="M70.01 357.963c-4.62 23.052-2.964 64.308-1.878 83.128.304 5.29-3.387 12.625-6.372 17.625-.47.783-.18 1.789.636 2.206 4.996 2.567 21.924 10.528 41.546 11.519 1.309.067 2.476-.825 2.813-2.092 14.551-54.34 31.454-89.064 31.454-89.064-18.659-29.798-68.198-23.322-68.198-23.322z" fill="url(#paint57_linear_1119_4434)"/><path d="M76.664 499.839a1.157 1.157 0 01-.987-1.76c.195-.318 4.868-7.87 14.323-12.434a1.16 1.16 0 011.006 2.087c-8.815 4.256-13.308 11.481-13.355 11.557-.218.351-.598.55-.987.55z" fill="url(#paint58_linear_1119_4434)"/><path d="M41.023 424.121c1.485 10.741 5.87 22.45 14.646 34.894l3.335-2.719s-3.852-15.622-1.66-33.347c-5.418-1.058-11.809.033-16.32 1.172z" fill="url(#paint59_linear_1119_4434)"/><path d="M75.172 386.409l-5.162-28.442s-34.49 26.364-28.987 66.159c4.511-1.143 10.907-2.23 16.32-1.177 1.575-12.771 6.281-26.634 17.829-36.54z" fill="url(#paint60_linear_1119_4434)"/><path d="M138.211 381.291l-13.313 28.669c2.154 17.307 11.453 24.794 21.478 27.664.626-7.89 2.619-14.261 4.469-18.669-12.81-13.227-12.634-37.664-12.634-37.664z" fill="url(#paint61_linear_1119_4434)"/><path d="M150.844 418.955c-1.85 4.407-3.848 10.784-4.469 18.669 26.748 10.38 33.827-9.75 33.827-9.75l-4.944-.873c-11.163 1.177-18.963-2.419-24.414-8.046z" fill="url(#paint62_linear_1119_4434)"/><path d="M125.947 345.893l-6.429 23.627c-.721 2.652-3.591 4.08-6.148 3.06-2.757-1.101-6.253-2.605-9.261-4.232-3.212-1.737-4.218-5.869-2.183-8.901l13.36-19.921 10.661 6.367z" fill="url(#paint63_linear_1119_4434)"/><path d="M192.46 412.066L27.778 472.005c-6.908 2.514-10.21 10.38-7.164 17.07l.498 1.1c2.69 5.921 9.688 8.516 15.59 5.788l159.905-73.972-4.147-9.925z" fill="url(#paint64_linear_1119_4434)"/><path d="M268.156 287.183c-49.962 0-90.459 39.771-90.459 88.827 0 49.06 40.502 88.826 90.459 88.826 49.962 0 90.459-39.771 90.459-88.826.004-49.056-40.497-88.827-90.459-88.827zm0 164.607c-42.622 0-77.17-33.926-77.17-75.78s34.552-75.78 77.17-75.78c42.622 0 77.17 33.926 77.17 75.78.005 41.854-34.548 75.78-77.17 75.78z" fill="url(#paint65_linear_1119_4434)"/><path d="M184.576 386.95a.537.537 0 01-.536-.475 81.76 81.76 0 01-.565-6.366.546.546 0 01.517-.57c.285-.047.555.214.57.517.104 2.088.289 4.204.555 6.282a.54.54 0 01-.541.612zm.621-24.841a.54.54 0 01-.531-.641 81.899 81.899 0 014.877-16.69c13.033-31.611 43.889-52.035 78.617-52.035 16.192 0 31.938 4.498 45.526 13.009a.54.54 0 01.171.749.54.54 0 01-.75.171c-13.417-8.402-28.959-12.847-44.952-12.847-34.286 0-64.754 20.163-77.616 51.366a80.627 80.627 0 00-4.81 16.462.538.538 0 01-.532.456z" fill="#BDD0FB"/><path d="M140.01 327.946c.057.408-5.361 26.961-5.361 26.961l-15.096-3.415 1.395-25.932c0-.005 18.08-4.408 19.062 2.386z" fill="url(#paint66_linear_1119_4434)"/><path d="M124.345 331.333l-1.803 13.592a1.901 1.901 0 000 .522c.152 1.068.944 4.692 4.607 3.658 3.32-.939 6.371-1.751 8.473-1.105a1.92 1.92 0 011.319 2.215c-.494 2.415-1.704 7.828-3.473 12.373a1.914 1.914 0 01-2.32 1.129c-2.866-.835-8.853-2.766-13.308-5.446a1.922 1.922 0 01-.934-1.722c.147-3.43.545-13.863.208-16.785-.317-2.747-3.686-4.389-5.147-4.977a1.894 1.894 0 01-1.049-1.053c-.678-1.699-1.613-5.627 3.34-7.24a1.92 1.92 0 001.215-2.481c-.735-2.04-1.044-5.157 2.79-6.875 3.895-1.746 6.803.332 8.373 2.017.636.683 1.656.787 2.443.289.451-.285 1.025-.375 1.723.057.939.588 2.187.185 2.671-.811.934-1.912 2.832-3.967 6.646-3.312 6.766 1.158 7.529 8.654 5.746 13.047-1.784 4.393-9.048 2.718-12.691.503-2.771-1.684-6.362.08-7.928 1.025a1.9 1.9 0 00-.901 1.38z" fill="url(#paint67_linear_1119_4434)"/><path d="M116.502 344.717s2.78-7.79-.076-9.698c-2.856-1.907-7.088-.915-6.158 4.726 1.162 7.016 6.234 4.972 6.234 4.972z" fill="url(#paint68_linear_1119_4434)"/><path d="M57.63 455.822l15.57-1.266 6.742 6.215s-1.594 2.206-6.58.939c-4.987-1.267-11.818-1.58-11.818-1.58s-6.884 3.103-6.97-2.704l3.056-1.604z" fill="url(#paint69_linear_1119_4434)"/><path d="M178.22 431.56c1.347 1.053 5.958-1.143 8.781-2.662a3.25 3.25 0 001.57-3.838c-.678-2.144-1.812-4.905-3.207-5.256-2.315-.579-12.691 7.42-7.144 11.756z" fill="url(#paint70_linear_1119_4434)"/><path d="M31.028 493.586a.566.566 0 01-.175-.028c-6.4-2.211-7.885-5.987-8.009-8.763-.175-4.061 2.377-7.828 6.348-9.374l19.774-7.71a.543.543 0 01.394 1.011l-19.774 7.709c-3.54 1.381-5.812 4.721-5.655 8.317.156 3.549 2.604 6.167 7.278 7.785.284.1.431.408.336.688a.552.552 0 01-.517.365zm24.224-27.203a.542.542 0 01-.2-1.049l2.563-1.001a.541.541 0 11.393 1.011l-2.561 1.001a.54.54 0 01-.195.038z" fill="#BDD0FB"/><defs><linearGradient id="paint0_linear_1119_4434" x1="523.88" y1="670.493" x2="555.986" y2="-51.247" gradientUnits="userSpaceOnUse"><stop stop-color="#DAE3FE"/><stop offset="1" stop-color="#E9EFFD"/></linearGradient><linearGradient id="paint1_linear_1119_4434" x1="987.565" y1="345.925" x2="1030.54" y2="345.925" gradientUnits="userSpaceOnUse"><stop stop-color="#DAE3FE"/><stop offset="1" stop-color="#E9EFFD"/></linearGradient><linearGradient id="paint2_linear_1119_4434" x1="984.939" y1="354.529" x2="1024.16" y2="354.529" gradientUnits="userSpaceOnUse"><stop stop-color="#DAE3FE"/><stop offset="1" stop-color="#E9EFFD"/></linearGradient><linearGradient id="paint3_linear_1119_4434" x1="1004.14" y1="375.514" x2="1019.36" y2="375.514" gradientUnits="userSpaceOnUse"><stop stop-color="#DAE3FE"/><stop offset="1" stop-color="#E9EFFD"/></linearGradient><linearGradient id="paint4_linear_1119_4434" x1="999.745" y1="382.225" x2="1012.82" y2="382.225" gradientUnits="userSpaceOnUse"><stop stop-color="#DAE3FE"/><stop offset="1" stop-color="#E9EFFD"/></linearGradient><linearGradient id="paint5_linear_1119_4434" x1="771.299" y1="475.484" x2="794.092" y2="475.484" gradientUnits="userSpaceOnUse"><stop stop-color="#DAE3FE"/><stop offset="1" stop-color="#E9EFFD"/></linearGradient><linearGradient id="paint6_linear_1119_4434" x1="763.604" y1="477.771" x2="784.936" y2="477.771" gradientUnits="userSpaceOnUse"><stop stop-color="#DAE3FE"/><stop offset="1" stop-color="#E9EFFD"/></linearGradient><linearGradient id="paint7_linear_1119_4434" x1="755.187" y1="472.727" x2="766.854" y2="472.727" gradientUnits="userSpaceOnUse"><stop stop-color="#DAE3FE"/><stop offset="1" stop-color="#E9EFFD"/></linearGradient><linearGradient id="paint8_linear_1119_4434" x1="719.738" y1="478.486" x2="733.365" y2="478.486" gradientUnits="userSpaceOnUse"><stop stop-color="#DAE3FE"/><stop offset="1" stop-color="#E9EFFD"/></linearGradient><linearGradient id="paint9_linear_1119_4434" x1="612.739" y1="245.048" x2="664.217" y2="185.297" gradientUnits="userSpaceOnUse"><stop stop-color="#E1473D"/><stop offset="1" stop-color="#E9605A"/></linearGradient><linearGradient id="paint10_linear_1119_4434" x1="693.306" y1="141.717" x2="541.084" y2="371.68" gradientUnits="userSpaceOnUse"><stop stop-color="#FE7062"/><stop offset="1" stop-color="#FF928E"/></linearGradient><linearGradient id="paint11_linear_1119_4434" x1="688.765" y1="148.305" x2="607.711" y2="284.383" gradientUnits="userSpaceOnUse"><stop stop-color="#FE7062"/><stop offset="1" stop-color="#FF928E"/></linearGradient><linearGradient id="paint12_linear_1119_4434" x1="683.078" y1="244.695" x2="772.692" y2="140.679" gradientUnits="userSpaceOnUse"><stop stop-color="#E1473D"/><stop offset="1" stop-color="#E9605A"/></linearGradient><linearGradient id="paint13_linear_1119_4434" x1="823.33" y1="64.813" x2="558.339" y2="465.14" gradientUnits="userSpaceOnUse"><stop stop-color="#FE7062"/><stop offset="1" stop-color="#FF928E"/></linearGradient><linearGradient id="paint14_linear_1119_4434" x1="815.426" y1="76.284" x2="674.323" y2="313.171" gradientUnits="userSpaceOnUse"><stop stop-color="#FE7062"/><stop offset="1" stop-color="#FF928E"/></linearGradient><linearGradient id="paint15_linear_1119_4434" x1="726.507" y1="396.996" x2="818.718" y2="289.964" gradientUnits="userSpaceOnUse"><stop stop-color="#E1473D"/><stop offset="1" stop-color="#E9605A"/></linearGradient><linearGradient id="paint16_linear_1119_4434" x1="870.825" y1="211.899" x2="598.152" y2="623.83" gradientUnits="userSpaceOnUse"><stop stop-color="#FE7062"/><stop offset="1" stop-color="#FF928E"/></linearGradient><linearGradient id="paint17_linear_1119_4434" x1="862.689" y1="223.703" x2="717.496" y2="467.457" gradientUnits="userSpaceOnUse"><stop stop-color="#FE7062"/><stop offset="1" stop-color="#FF928E"/></linearGradient><linearGradient id="paint18_linear_1119_4434" x1="839.845" y1="274.161" x2="907.408" y2="195.74" gradientUnits="userSpaceOnUse"><stop stop-color="#E1473D"/><stop offset="1" stop-color="#E9605A"/></linearGradient><linearGradient id="paint19_linear_1119_4434" x1="945.585" y1="138.542" x2="745.799" y2="440.36" gradientUnits="userSpaceOnUse"><stop stop-color="#FE7062"/><stop offset="1" stop-color="#FF928E"/></linearGradient><linearGradient id="paint20_linear_1119_4434" x1="939.625" y1="147.19" x2="833.244" y2="325.787" gradientUnits="userSpaceOnUse"><stop stop-color="#FE7062"/><stop offset="1" stop-color="#FF928E"/></linearGradient><linearGradient id="paint21_linear_1119_4434" x1="833.047" y1="486.506" x2="890.784" y2="419.491" gradientUnits="userSpaceOnUse"><stop stop-color="#E1473D"/><stop offset="1" stop-color="#E9605A"/></linearGradient><linearGradient id="paint22_linear_1119_4434" x1="923.407" y1="370.612" x2="752.68" y2="628.532" gradientUnits="userSpaceOnUse"><stop stop-color="#FE7062"/><stop offset="1" stop-color="#FF928E"/></linearGradient><linearGradient id="paint23_linear_1119_4434" x1="918.314" y1="378.002" x2="827.406" y2="530.623" gradientUnits="userSpaceOnUse"><stop stop-color="#FE7062"/><stop offset="1" stop-color="#FF928E"/></linearGradient><linearGradient id="paint24_linear_1119_4434" x1="613.73" y1="388.178" x2="838.692" y2="581.816" gradientUnits="userSpaceOnUse"><stop stop-color="#50E7B7"/><stop offset=".996" stop-color="#323992"/></linearGradient><linearGradient id="paint25_linear_1119_4434" x1="529.625" y1="446.879" x2="564.049" y2="446.879" gradientUnits="userSpaceOnUse"><stop stop-color="#DAE3FE"/><stop offset="1" stop-color="#E9EFFD"/></linearGradient><linearGradient id="paint26_linear_1119_4434" x1="527.818" y1="435.597" x2="561.826" y2="435.597" gradientUnits="userSpaceOnUse"><stop stop-color="#DAE3FE"/><stop offset="1" stop-color="#E9EFFD"/></linearGradient><linearGradient id="paint27_linear_1119_4434" x1="512.678" y1="400.854" x2="559.279" y2="400.854" gradientUnits="userSpaceOnUse"><stop stop-color="#DAE3FE"/><stop offset="1" stop-color="#E9EFFD"/></linearGradient><linearGradient id="paint28_linear_1119_4434" x1="917" y1="80.516" x2="870.768" y2="88.213" gradientUnits="userSpaceOnUse"><stop stop-color="#E1473D"/><stop offset="1" stop-color="#E9605A"/></linearGradient><linearGradient id="paint29_linear_1119_4434" x1="898.47" y1="125.629" x2="925.152" y2="98.212" gradientUnits="userSpaceOnUse"><stop stop-color="#FE7062"/><stop offset="1" stop-color="#FF928E"/></linearGradient><linearGradient id="paint30_linear_1119_4434" x1="867.364" y1="43.244" x2="917.962" y2="53.042" gradientUnits="userSpaceOnUse"><stop stop-color="#FE7062"/><stop offset="1" stop-color="#FF928E"/></linearGradient><linearGradient id="paint31_linear_1119_4434" x1="955.505" y1="46.876" x2="847.049" y2="213.189" gradientUnits="userSpaceOnUse"><stop stop-color="#4042E2"/><stop offset="1" stop-color="#4F52FF"/></linearGradient><linearGradient id="paint32_linear_1119_4434" x1="995.68" y1="32.514" x2="959.132" y2="83.373" gradientUnits="userSpaceOnUse"><stop stop-color="#09005D"/><stop offset="1" stop-color="#1A0F91"/></linearGradient><linearGradient id="paint33_linear_1119_4434" x1="970.178" y1="66.942" x2="946.495" y2="52.734" gradientUnits="userSpaceOnUse"><stop stop-color="#FE7062"/><stop offset="1" stop-color="#FF928E"/></linearGradient><linearGradient id="paint34_linear_1119_4434" x1="962.349" y1="69.99" x2="954.748" y2="48.691" gradientUnits="userSpaceOnUse"><stop stop-color="#09005D"/><stop offset="1" stop-color="#1A0F91"/></linearGradient><linearGradient id="paint35_linear_1119_4434" x1="941.134" y1="73.464" x2="925.487" y2="64.078" gradientUnits="userSpaceOnUse"><stop stop-color="#FE7062"/><stop offset="1" stop-color="#FF928E"/></linearGradient><linearGradient id="paint36_linear_1119_4434" x1="935.962" y1="75.477" x2="930.941" y2="61.407" gradientUnits="userSpaceOnUse"><stop stop-color="#09005D"/><stop offset="1" stop-color="#1A0F91"/></linearGradient><linearGradient id="paint37_linear_1119_4434" x1="595.016" y1="323.282" x2="182.825" y2="314.171" gradientUnits="userSpaceOnUse"><stop stop-color="#09005D"/><stop offset="1" stop-color="#1A0F91"/></linearGradient><linearGradient id="paint38_linear_1119_4434" x1="136.507" y1="-34.146" x2="1153.59" y2="1273.09" gradientUnits="userSpaceOnUse"><stop stop-color="#4042E2"/><stop offset="1" stop-color="#4F52FF"/></linearGradient><linearGradient id="paint39_linear_1119_4434" x1="309.488" y1="65.209" x2="302.846" y2="-338.053" gradientUnits="userSpaceOnUse"><stop stop-color="#4042E2"/><stop offset="1" stop-color="#4F52FF"/></linearGradient><linearGradient id="paint40_linear_1119_4434" x1="467.108" y1="62.613" x2="460.467" y2="-340.649" gradientUnits="userSpaceOnUse"><stop stop-color="#4042E2"/><stop offset="1" stop-color="#4F52FF"/></linearGradient><linearGradient id="paint41_linear_1119_4434" x1="310.73" y1="282.522" x2="309.782" y2="-18.263" gradientUnits="userSpaceOnUse"><stop stop-color="#4042E2"/><stop offset="1" stop-color="#4F52FF"/></linearGradient><linearGradient id="paint42_linear_1119_4434" x1="468.392" y1="282.024" x2="467.443" y2="-18.761" gradientUnits="userSpaceOnUse"><stop stop-color="#4042E2"/><stop offset="1" stop-color="#4F52FF"/></linearGradient><linearGradient id="paint43_linear_1119_4434" x1="308.991" y1="520.282" x2="318.479" y2="187.234" gradientUnits="userSpaceOnUse"><stop stop-color="#4042E2"/><stop offset="1" stop-color="#4F52FF"/></linearGradient><linearGradient id="paint44_linear_1119_4434" x1="461.358" y1="519.147" x2="500.26" y2="179.459" gradientUnits="userSpaceOnUse"><stop stop-color="#4042E2"/><stop offset="1" stop-color="#4F52FF"/></linearGradient><linearGradient id="paint45_linear_1119_4434" x1="282.928" y1="386.304" x2="255.412" y2="127.269" gradientUnits="userSpaceOnUse"><stop stop-color="#4042E2"/><stop offset="1" stop-color="#4F52FF"/></linearGradient><linearGradient id="paint46_linear_1119_4434" x1="272.73" y1="413.683" x2="265.139" y2="652.793" gradientUnits="userSpaceOnUse"><stop stop-color="#4042E2"/><stop offset="1" stop-color="#4F52FF"/></linearGradient><linearGradient id="paint47_linear_1119_4434" x1="248.482" y1="324.807" x2="339.017" y2="324.807" gradientUnits="userSpaceOnUse"><stop stop-color="#DAE3FE"/><stop offset="1" stop-color="#E9EFFD"/></linearGradient><linearGradient id="paint48_linear_1119_4434" x1="271.854" y1="369.718" x2="286.693" y2="369.718" gradientUnits="userSpaceOnUse"><stop stop-color="#DAE3FE"/><stop offset="1" stop-color="#E9EFFD"/></linearGradient><linearGradient id="paint49_linear_1119_4434" x1="317.076" y1="369.718" x2="331.914" y2="369.718" gradientUnits="userSpaceOnUse"><stop stop-color="#DAE3FE"/><stop offset="1" stop-color="#E9EFFD"/></linearGradient><linearGradient id="paint50_linear_1119_4434" x1="71.455" y1="627.298" x2="107.296" y2="627.298" gradientUnits="userSpaceOnUse"><stop stop-color="#4042E2"/><stop offset="1" stop-color="#4F52FF"/></linearGradient><linearGradient id="paint51_linear_1119_4434" x1="71.452" y1="620.273" x2="106.284" y2="620.273" gradientUnits="userSpaceOnUse"><stop stop-color="#09005D"/><stop offset="1" stop-color="#1A0F91"/></linearGradient><linearGradient id="paint52_linear_1119_4434" x1="74.764" y1="610.466" x2="84.86" y2="610.466" gradientUnits="userSpaceOnUse"><stop stop-color="#FF928E"/><stop offset="1" stop-color="#FEB3B1"/></linearGradient><linearGradient id="paint53_linear_1119_4434" x1=".001" y1="626.524" x2="13.736" y2="626.524" gradientUnits="userSpaceOnUse"><stop stop-color="#4042E2"/><stop offset="1" stop-color="#4F52FF"/></linearGradient><linearGradient id="paint54_linear_1119_4434" x1=".1" y1="615.949" x2="20.261" y2="615.949" gradientUnits="userSpaceOnUse"><stop stop-color="#09005D"/><stop offset="1" stop-color="#1A0F91"/></linearGradient><linearGradient id="paint55_linear_1119_4434" x1="10.579" y1="602.05" x2="22.645" y2="602.05" gradientUnits="userSpaceOnUse"><stop stop-color="#FF928E"/><stop offset="1" stop-color="#FEB3B1"/></linearGradient><linearGradient id="paint56_linear_1119_4434" x1="-17.369" y1="637.334" x2="141.132" y2="458.008" gradientUnits="userSpaceOnUse"><stop stop-color="#09005D"/><stop offset="1" stop-color="#1A0F91"/></linearGradient><linearGradient id="paint57_linear_1119_4434" x1="162.314" y1="350.179" x2="-114.286" y2="590.751" gradientUnits="userSpaceOnUse"><stop stop-color="#FE7062"/><stop offset="1" stop-color="#FF928E"/></linearGradient><linearGradient id="paint58_linear_1119_4434" x1="51.24" y1="557.367" x2="57.022" y2="545.804" gradientUnits="userSpaceOnUse"><stop stop-color="#020039"/><stop offset="1" stop-color="#090056"/></linearGradient><linearGradient id="paint59_linear_1119_4434" x1="65.857" y1="426.178" x2="22.906" y2="464.212" gradientUnits="userSpaceOnUse"><stop stop-color="#FF928E"/><stop offset="1" stop-color="#FEB3B1"/></linearGradient><linearGradient id="paint60_linear_1119_4434" x1="139.253" y1="324.685" x2="-136.099" y2="564.172" gradientUnits="userSpaceOnUse"><stop stop-color="#FE7062"/><stop offset="1" stop-color="#FF928E"/></linearGradient><linearGradient id="paint61_linear_1119_4434" x1="182.541" y1="374.453" x2="-92.812" y2="613.94" gradientUnits="userSpaceOnUse"><stop stop-color="#FE7062"/><stop offset="1" stop-color="#FF928E"/></linearGradient><linearGradient id="paint62_linear_1119_4434" x1="146.375" y1="429.776" x2="180.201" y2="429.776" gradientUnits="userSpaceOnUse"><stop stop-color="#FF928E"/><stop offset="1" stop-color="#FEB3B1"/></linearGradient><linearGradient id="paint63_linear_1119_4434" x1="127.371" y1="339.94" x2="96.059" y2="386.434" gradientUnits="userSpaceOnUse"><stop stop-color="#FF928E"/><stop offset="1" stop-color="#FEB3B1"/></linearGradient><linearGradient id="paint64_linear_1119_4434" x1="19.476" y1="454.555" x2="196.608" y2="454.555" gradientUnits="userSpaceOnUse"><stop stop-color="#020039"/><stop offset="1" stop-color="#090056"/></linearGradient><linearGradient id="paint65_linear_1119_4434" x1="177.697" y1="376.011" x2="358.617" y2="376.011" gradientUnits="userSpaceOnUse"><stop stop-color="#020039"/><stop offset="1" stop-color="#090056"/></linearGradient><linearGradient id="paint66_linear_1119_4434" x1="133.995" y1="328.994" x2="109.095" y2="374.145" gradientUnits="userSpaceOnUse"><stop stop-color="#FF928E"/><stop offset="1" stop-color="#FEB3B1"/></linearGradient><linearGradient id="paint67_linear_1119_4434" x1="105.646" y1="335.763" x2="213.529" y2="349.403" gradientUnits="userSpaceOnUse"><stop stop-color="#09005D"/><stop offset="1" stop-color="#1A0F91"/></linearGradient><linearGradient id="paint68_linear_1119_4434" x1="93.574" y1="367.737" x2="114.603" y2="338.851" gradientUnits="userSpaceOnUse"><stop stop-color="#FF928E"/><stop offset="1" stop-color="#FEB3B1"/></linearGradient><linearGradient id="paint69_linear_1119_4434" x1="82.82" y1="445.332" x2="39.868" y2="483.367" gradientUnits="userSpaceOnUse"><stop stop-color="#FF928E"/><stop offset="1" stop-color="#FEB3B1"/></linearGradient><linearGradient id="paint70_linear_1119_4434" x1="176.609" y1="425.803" x2="188.722" y2="425.803" gradientUnits="userSpaceOnUse"><stop stop-color="#FF928E"/><stop offset="1" stop-color="#FEB3B1"/></linearGradient></defs></svg>