<svg width="609" height="640" fill="none" xmlns="http://www.w3.org/2000/svg"><path d="M468.128 221.531c-22.731 30.565-66.044 37.015-96.762 14.131-30.564-22.732-37.015-66.044-14.13-96.762 22.731-30.564 66.044-37.015 96.762-14.13h.153c30.411 22.885 36.708 66.197 13.977 96.761z" fill="#F0F0F0"/><path d="M454.919 211.702c-17.356 23.345-50.378 28.106-73.723 10.751-23.346-17.356-28.107-50.378-10.752-73.723 17.356-23.346 50.378-28.107 73.723-10.751 23.346 17.355 28.107 50.223 10.752 73.723 0 0 0-.154 0 0z" fill="#F5F5F5"/><path d="M455.84 210.32c-.308-.154.921-2.15 2.611-5.837 2.457-5.222 3.993-10.905 4.761-16.587.461-3.994.461-7.987.153-11.827-.46-4.454-1.535-8.908-3.071-13.208-1.69-4.608-4.147-9.062-7.219-13.055-1.536-2.151-3.379-4.147-5.222-5.99-1.997-1.844-3.993-3.533-6.297-5.223-2.304-1.535-4.608-2.918-7.065-4.146-2.304-1.229-4.762-2.151-7.373-2.919-2.457-.768-4.915-1.382-7.372-1.689-2.457-.307-4.915-.614-7.372-.614-4.454 0-9.062.46-13.516 1.535-3.84.922-7.526 2.458-11.059 4.147-5.068 2.611-9.829 6.144-13.976 10.137-2.918 2.918-4.301 4.762-4.608 4.608-.307-.154.768-2.304 3.379-5.529 3.84-4.762 8.447-8.601 13.669-11.673 7.834-4.454 16.742-6.912 25.957-7.065 5.376 0 10.751.768 15.82 2.304 2.764.768 5.375 1.843 7.986 3.071a46.182 46.182 0 017.526 4.454c2.458 1.69 4.608 3.533 6.758 5.683 1.997 1.997 3.84 4.147 5.683 6.451 1.69 2.15 3.072 4.454 4.301 6.912 1.228 2.303 2.303 4.761 3.225 7.218 1.689 4.608 2.611 9.369 2.918 14.131.307 4.146 0 8.447-.614 12.594-1.075 5.99-3.072 11.673-6.297 16.895-1.843 3.686-3.379 5.375-3.686 5.222z" fill="#E0E0E0"/><path d="M398.704 208.937l-5.376 7.373-6.604-4.762 5.222-7.218c-6.297-5.222-11.059-11.827-12.594-17.202l9.522-5.53c1.843 5.376 5.069 10.291 9.523 13.977l7.986-11.058c-6.143-7.066-12.44-15.513-5.683-25.036 5.069-7.065 14.591-9.369 25.957-2.918l5.376-7.372 6.604 4.761-5.376 7.219c4.608 3.686 8.141 8.447 10.598 13.823l-9.215 5.836a35.35 35.35 0 00-7.68-10.751l-8.14 11.059c6.144 7.065 12.441 15.358 5.683 24.727-5.069 6.912-14.438 9.216-25.803 3.072zm14.591-34.25l6.911-9.369c-4.147-1.69-6.911-.922-8.447 1.382-1.69 2.15-.614 5.069 1.536 7.987zm-.154 24.267c1.69-2.304.615-4.915-1.382-7.987l-6.604 9.216c3.686 1.536 6.45.921 7.986-1.229z" fill="#E0E0E0"/><path d="M220.695 323.669c6.45 43.619-23.653 84.167-67.273 90.464-43.619 6.451-84.167-23.653-90.464-67.272-6.45-43.466 23.653-84.014 67.272-90.464h.154c43.466-6.298 84.013 23.806 90.311 67.272z" fill="#F0F0F0"/><path d="M201.956 326.433c4.915 33.175-17.97 64.047-51.299 68.961-33.175 4.915-64.047-17.97-68.962-51.298-4.914-33.176 17.97-64.047 51.299-68.962h.154c33.022-4.761 63.893 18.123 68.808 51.299z" fill="#F5F5F5"/><path d="M201.651 324.59c-.308 0-1.076-2.458-2.611-7.065-2.304-6.297-5.53-12.134-9.677-17.509-2.764-3.533-5.99-6.912-9.522-9.83-3.994-3.226-8.601-5.99-13.209-8.14-2.611-1.229-5.222-2.151-7.987-2.919a77.588 77.588 0 00-8.601-1.843c-3.071-.46-5.99-.614-9.061-.46a48.46 48.46 0 00-9.369.921c-3.072.614-6.144 1.382-9.062 2.304-2.918 1.075-5.683 2.15-8.447 3.686a59.446 59.446 0 00-7.373 4.608 55.568 55.568 0 00-6.451 5.529c-3.686 3.686-6.911 7.833-9.676 12.287-2.303 3.993-4.147 8.14-5.683 12.441-1.996 6.297-3.071 13.055-3.071 19.659 0 4.762.307 7.373 0 7.526-.308 0-1.229-2.457-1.69-7.372-.768-6.912-.153-13.977 1.69-20.735 2.764-10.137 7.986-19.352 15.359-26.878 2.15-2.15 4.454-4.147 6.758-5.99 2.457-1.843 5.222-3.686 7.986-5.068 2.918-1.536 5.837-2.918 8.908-3.994 3.226-1.075 6.451-1.996 9.83-2.611a56.592 56.592 0 0110.137-.921c3.225 0 6.604.153 9.83.614 3.072.461 6.143 1.229 9.215 2.15a79.911 79.911 0 018.448 3.226c5.068 2.457 9.676 5.529 13.976 9.215 3.686 3.226 6.912 6.758 9.676 10.751 3.994 5.683 7.065 12.134 8.755 18.892 1.075 4.761 1.229 7.526.922 7.526z" fill="#E0E0E0"/><path d="M153.728 370.052l1.69 10.445-9.369 1.535-1.69-10.136c-9.369.921-18.738-.615-24.42-3.687l3.379-12.287c5.99 2.918 12.594 4.147 19.198 3.686l-2.457-15.666c-10.751-.768-22.885-2.457-25.035-15.819-1.536-9.83 4.3-19.506 18.738-23.653l-1.69-10.444 9.369-1.536 1.69 10.137c6.758-.768 13.516.153 19.813 2.611l-2.765 12.287c-4.761-1.843-9.983-2.765-15.052-2.611l2.611 15.82c10.752.767 22.732 2.457 24.728 15.512 1.383 10.137-4.3 19.66-18.738 23.806zm-15.819-39.779l-2.151-13.209c-4.761 1.843-6.297 4.915-5.836 7.987.461 3.072 3.533 4.607 7.987 5.222zm19.659 19.966c-.614-3.225-3.532-4.607-7.679-5.375l1.996 12.901c4.454-1.843 6.144-4.607 5.683-7.526z" fill="#E0E0E0"/><path d="M382.272 46.593c-3.994 21.349-24.421 35.633-45.924 31.64-21.349-3.994-35.632-24.421-31.639-45.924C308.702 10.96 329.13-3.324 350.632.67h.154c21.195 3.994 35.325 24.575 31.486 45.924z" fill="#F0F0F0"/><path d="M373.055 44.904c-3.072 16.28-18.738 27.185-35.019 24.113-16.28-2.918-27.185-18.584-24.113-35.018 2.918-16.28 18.584-27.186 35.018-24.114 16.281 3.072 27.032 18.738 24.114 35.019z" fill="#F5F5F5"/><path d="M373.21 43.982c-.153-1.228-.153-2.457-.153-3.686 0-3.225-.615-6.604-1.69-9.676-.768-2.15-1.689-4.147-2.918-6.143-1.382-2.15-3.072-4.148-4.915-5.99-1.075-.922-2.15-1.844-3.225-2.612-1.229-.768-2.458-1.536-3.84-2.15-1.382-.614-2.765-1.229-4.147-1.69-1.536-.46-2.918-.767-4.454-1.074-1.536-.154-3.072-.308-4.608-.308-1.536 0-3.071.154-4.454.308-1.382.153-2.918.614-4.3.921-1.383.46-2.611.922-3.84 1.536-4.454 2.15-8.14 5.222-11.058 9.215-1.997 2.611-3.533 5.53-4.608 8.755-.307 1.229-.768 2.304-1.229 3.532-.153-1.228 0-2.457.307-3.686.768-3.379 2.151-6.604 3.994-9.369 1.382-1.996 2.918-3.84 4.607-5.375 1.997-1.843 4.301-3.38 6.758-4.608 1.383-.614 2.765-1.229 4.147-1.69 1.536-.46 3.072-.92 4.608-1.074a25 25 0 014.761-.461c3.379 0 6.605.46 9.83 1.536a28.839 28.839 0 014.608 1.843c2.764 1.382 5.222 3.225 7.372 5.375 1.997 1.997 3.686 4.147 5.068 6.451 1.229 1.997 2.151 4.3 2.919 6.604.921 3.38 1.382 6.758 1.075 10.137.153 1.075-.154 2.304-.615 3.38z" fill="#E0E0E0"/><path d="M343.565 57.651l-.921 5.222-4.608-.768.922-5.068c-4.147-.768-7.833-2.765-10.905-5.683l3.532-5.222c2.304 2.304 5.222 3.993 8.448 4.761l1.382-7.68c-4.915-2.15-10.29-4.76-9.215-11.365.768-4.915 5.068-8.447 12.44-7.987l.922-5.068 4.608.768-.922 5.068c3.225.768 6.297 2.304 8.908 4.454l-3.225 5.223c-1.997-1.69-4.147-2.919-6.604-3.687l-1.383 7.833c4.915 1.997 10.291 4.762 9.062 11.212-.921 4.915-5.068 8.448-12.441 7.987zm-1.228-21.042l1.075-6.604c-2.458.154-3.686 1.382-3.994 2.765-.153 1.535 1.076 2.764 2.919 3.84zm6.143 12.441c.307-1.536-.921-2.764-2.764-3.686l-1.076 6.297c2.304-.154 3.533-1.229 3.84-2.61z" fill="#E0E0E0"/><path opacity=".4" d="M19.338 233.665C36.54 369.131 104.119 465.585 302.71 502.6c110.431 20.581 311.787-45.155 298.425-165.415-14.745-133.47-153.743-77.563-268.475-120.568-68.654-25.803-105.209-165.723-216.407-157.43-88.007 6.451-106.13 101.984-96.915 174.478z" fill="#E0E0E0"/><path d="M109.957 576.784c26.418-18.431 32.408-52.528 31.333-83.399-.154-5.069.307-10.598-1.997-15.052-2.304-4.454-8.14-7.526-12.748-5.375-3.84 1.843-5.529 6.297-7.526 9.829-2.918 4.915-7.065 8.908-11.98 11.519-3.225 1.69-7.372 2.765-10.444.922-4.454-2.457-4.915-8.601-4.915-13.669 0-9.523.154-19.046.154-28.568 0-5.069 0-10.291-1.536-15.205-1.536-4.915-5.069-9.369-9.984-10.752-4.914-1.382-10.904 1.383-11.826 6.451-.153 2.15-.307 4.301-.153 6.297-.154 2.15-1.076 4.454-3.072 5.069-1.997.614-4.147-.922-5.683-2.304-5.222-5.222-8.908-11.827-12.134-18.431-3.225-6.604-6.604-13.362-11.365-19.045-4.762-5.683-11.366-10.137-18.738-10.444-7.372-.461-15.052 4.147-16.895 11.212-1.843 7.219 2.304 14.437 6.911 20.274 6.758 8.601 14.745 16.28 23.653 22.577 1.69.922 3.072 2.458 3.994 4.301 1.075 3.379-2.15 6.758-5.53 7.987-3.84 1.228-7.986.921-11.826 1.382-3.84.461-8.294 2.15-9.83 5.99-2.15 5.222 2.304 10.751 6.605 14.284 8.6 7.218 18.43 12.748 28.874 16.741 3.687 1.382 7.68 2.611 10.752 5.222 3.072 2.611 4.915 7.219 3.072 10.751-1.844 3.533-6.451 4.762-10.445 3.994-3.993-.768-7.525-2.919-11.212-4.301-7.065-2.611-16.127-2.15-20.58 3.84-2.919 3.993-3.226 9.522-1.69 14.284a38.096 38.096 0 007.68 12.594c11.058 13.362 25.649 23.499 41.93 29.489 15.973 5.837 31.024 7.372 47.151 1.536z" fill="#FF725E"/><path d="M7.514 399.234l.46.461 1.536 1.382c1.383 1.229 3.226 2.919 5.837 5.223 7.065 6.45 13.516 13.515 19.506 21.041 3.84 4.762 7.68 10.137 11.826 15.974a654.49 654.49 0 0112.901 18.891c4.608 7.065 8.755 14.284 12.595 21.81 1.996 3.84 3.686 7.986 5.53 12.133l5.375 12.595c6.911 15.973 13.055 32.407 18.123 49.148 4.147 13.67 7.065 27.646 8.448 41.93.921 9.523 1.228 19.199.46 28.875-.307 3.379-.46 5.99-.767 7.833-.154.922-.154 1.536-.308 1.997v.768c0-.154.154-.461.154-.768 0-.461.154-1.229.307-1.997.307-1.843.614-4.454.922-7.833.768-9.676.768-19.352-.154-28.875-1.382-14.284-4.147-28.26-8.294-42.083-5.068-16.741-11.212-33.176-18.123-49.302l-5.376-12.595c-1.843-4.147-3.532-8.294-5.53-12.133-3.839-7.526-7.986-14.745-12.747-21.81-4.3-6.758-8.755-13.055-12.902-18.892-4.147-5.836-8.14-11.212-11.98-15.819-5.99-7.526-12.594-14.438-19.813-20.888-2.457-2.304-4.454-3.994-5.836-5.069l-1.536-1.229-.614-.768z" fill="#263238"/><path d="M72.635 483.402c.307-.768.46-1.382.46-2.15.308-1.383.615-3.379.922-5.99.768-5.069 1.536-12.134 2.304-19.967a386.567 386.567 0 012.457-19.813c.307-2.457.768-4.608.922-5.99.153-.768.307-1.536.307-2.15-.307.614-.46 1.382-.614 2.15-.308 1.382-.768 3.379-1.229 5.99-.922 5.069-1.997 12.134-2.765 19.813-.768 7.833-1.535 14.591-1.996 19.967-.308 2.457-.461 4.454-.615 5.99-.153.614-.153 1.382-.153 2.15z" fill="#263238"/><path d="M7.053 471.115c.921.153 1.69.307 2.61.307 1.69.153 4.148.307 7.066.768 5.99.614 14.284 1.843 23.346 3.532 9.061 1.69 17.201 3.687 23.038 5.222a881.62 881.62 0 016.911 1.843c.768.308 1.69.461 2.611.615a6.79 6.79 0 00-2.457-.922c-1.536-.614-3.993-1.382-6.911-2.15-5.837-1.689-13.977-3.686-23.039-5.529a196.712 196.712 0 00-23.5-3.226c-3.07-.307-5.528-.307-7.218-.46-.768-.154-1.69 0-2.457 0zm94.15 85.242c.154-.307.307-.461.461-.768l1.075-2.304c.922-2.15 2.304-5.068 3.84-8.908 3.225-7.526 7.218-18.123 11.519-29.643 4.3-11.672 8.294-22.27 11.212-29.796l3.533-8.908c.307-.922.768-1.843.921-2.458.154-.307.154-.614.307-.921-.153.307-.307.461-.46.768l-1.076 2.304a185.829 185.829 0 00-3.839 8.908c-3.226 7.526-7.219 17.97-11.52 29.643-4.3 11.672-8.293 22.27-11.212 29.796l-3.532 8.908-.922 2.458c-.153.307-.307.614-.307.921z" fill="#263238"/><path d="M13.965 528.25c.307.153.614.307.921.307l2.611.768 9.37 3.071c7.832 2.611 18.737 6.144 30.717 10.291s22.885 7.679 30.872 9.983a456.372 456.372 0 009.369 2.765l2.611.614c.307.154.614.154.921.154-.307-.154-.614-.307-.921-.307l-2.458-.768-9.369-3.072c-7.833-2.611-18.738-6.144-30.718-10.291s-22.884-7.679-30.717-9.983c-3.994-1.229-7.22-2.15-9.37-2.765l-2.61-.614c-.461-.153-.768-.153-1.23-.153zm346.341 34.557l-170.484-.768c-20.428-.153-37.015-16.741-37.015-37.322l1.843-427.44c.153-20.58 16.741-37.015 37.322-37.015l170.484.768c20.581.154 37.015 16.741 37.015 37.322l-1.843 427.44a36.907 36.907 0 01-37.322 37.015c.154 0 .154 0 0 0z" fill="#263238"/><path d="M362.302 75.929l-33.021-.154c-4.455 0-8.141 3.84-8.141 8.294v5.99a8.004 8.004 0 01-7.986 8.294l-64.354-.307c-4.608-.154-8.141-3.84-7.987-8.448v-5.99c.154-4.454-3.533-8.294-7.987-8.447h-40.701c-14.437 0-26.11 11.519-26.11 25.956l-1.843 417.149c0 14.284 11.519 26.111 25.956 26.111l170.178.768c14.283 0 26.11-11.52 26.11-25.957l1.689-417.149c.154-14.284-11.519-25.957-25.803-26.11z" fill="#fff"/><path d="M323.599 282.353H214.09v105.516h109.509V282.353zm-79.406-29.49l-30.103 29.489h109.509l20.888-29.489H244.193z" fill="#FF725E"/><path opacity=".1" d="M244.193 252.863l-30.103 29.489h109.509l20.888-29.489H244.193z" fill="#000"/><path d="M323.598 387.868l20.888-29.796V252.863l-20.888 29.489v105.516z" fill="#FF725E"/><path opacity=".3" d="M323.598 387.868l20.888-29.796V252.863l-20.888 29.489v105.516z" fill="#000"/><path d="M294.877 326.125h-57.135v6.451h57.135v-6.451z" fill="#FF725E"/><path opacity=".2" d="M294.877 326.125h-57.135v6.451h57.135v-6.451z" fill="#000"/><path d="M284.74 337.491h-36.554v6.144h36.554v-6.144z" fill="#FF725E"/><path opacity=".2" d="M284.74 337.491h-36.554v6.144h36.554v-6.144z" fill="#000"/><path d="M236.359 248.717c-.154-1.383-.307-2.612-.614-3.994-.922-3.532-3.072-6.604-5.99-8.908-1.997-1.536-4.301-2.457-6.758-2.918-2.765-.461-5.683-.307-8.448.768-1.382.461-2.764 1.228-3.993 2.15a17.585 17.585 0 00-3.379 3.379c-4.147 5.683-4.147 13.362 0 18.891.921 1.383 2.15 2.458 3.379 3.379 1.229.922 2.611 1.69 3.993 2.151 5.069 1.843 10.905 1.075 15.206-2.304 2.918-2.15 5.068-5.376 5.99-8.908.307-1.075.46-2.304.614-3.686.153 1.382 0 2.764-.307 3.993-.922 3.686-2.919 6.911-5.99 9.215-4.454 3.533-10.444 4.454-15.82 2.458-3.072-1.075-5.836-3.226-7.833-5.837-4.454-5.99-4.454-13.976 0-19.966 1.997-2.611 4.761-4.762 7.833-5.837 2.765-1.075 5.836-1.228 8.755-.614 6.45 1.229 11.519 6.143 12.901 12.441a9.621 9.621 0 01.461 4.147z" fill="#263238"/><path d="M212.553 246.413c0-2.304 1.228-3.84 3.225-3.84s3.225 1.536 3.225 3.84-1.382 3.84-3.225 3.84c-1.843 0-3.225-1.536-3.225-3.84zm5.375 0c0-1.843-.921-2.918-2.15-2.918-1.229 0-2.15 1.075-2.15 2.918 0 1.843.921 2.918 2.15 2.918 1.229 0 2.15-1.075 2.15-2.918zm6.451-3.686h1.229l-9.676 14.13h-1.229l9.676-14.13zm-3.072 10.444c0-2.304 1.383-3.84 3.226-3.84s3.225 1.536 3.225 3.84-1.229 3.84-3.225 3.84c-1.997 0-3.226-1.536-3.226-3.84zm5.376 0c0-1.843-.768-2.918-2.15-2.918-1.383 0-2.151 1.075-2.151 2.918 0 1.843.922 2.918 2.151 2.918 1.228 0 2.15-1.229 2.15-2.918zm79.712 170.33c0 3.072-2.304 5.683-7.218 5.683-2.304 0-4.608-.614-6.605-1.843l1.536-3.072c1.382 1.076 3.072 1.536 4.915 1.536 1.997 0 3.225-.768 3.225-2.304 0-1.535-.921-2.303-3.993-2.303h-4.454l.922-9.677h10.444v3.226h-7.219l-.307 3.225h1.382c5.376.307 7.372 2.458 7.372 5.529zm1.689-3.225c0-5.683 3.225-8.908 7.372-8.908s7.373 3.225 7.373 8.908-3.072 8.908-7.373 8.908c-4.3 0-7.372-3.225-7.372-8.908zm10.751 0c0-3.84-1.382-5.529-3.379-5.529-1.996 0-3.379 1.689-3.379 5.529s1.383 5.529 3.379 5.529c1.843 0 3.226-1.536 3.379-5.529zm14.132-4.761c.154 1.843-1.075 3.532-3.072 3.686h-.614a4.737 4.737 0 01-1.997-.461l.615-1.229c.461.307.921.307 1.382.307 1.075 0 1.843-.768 1.997-1.689v-.307c-.461.46-1.075.614-1.69.614-1.228.154-2.304-.768-2.457-1.997v-.153c0-1.383 1.075-2.304 2.457-2.304h.154c2.15.154 3.225 1.229 3.225 3.533zm-1.843-1.229a1.05 1.05 0 00-1.075-1.075h-.154c-.614-.154-1.075.307-1.228.921-.154.615.307 1.075.921 1.229h.307c.615.154 1.076-.307 1.229-.922.154 0 .154-.153 0-.153zm8.293 1.229c.153 1.843-1.076 3.532-3.072 3.686h-.615a4.73 4.73 0 01-1.996-.461l.614-1.075c.461.307.922.307 1.382.307 1.075 0 1.843-.614 1.997-1.689v-.308c-.461.461-1.075.615-1.689.615-1.229.153-2.304-.768-2.458-1.997v-.153c0-1.383 1.075-2.304 2.458-2.304h.153c1.997 0 3.226 1.075 3.226 3.379zm-1.844-1.229a1.05 1.05 0 00-1.075-1.075h-.153a1.05 1.05 0 00-1.075 1.075c0 .614.46 1.075 1.075 1.075.614 0 1.075-.307 1.228-1.075 0 0 0 .154 0 0zm1.693 7.372h-12.287v1.536h12.287v-1.536zm-69.577-4.914H206.41v1.996h63.279v-1.996zm-24.881 6.297H206.41v1.997h38.398v-1.997z" fill="#263238"/><path d="M342.489 504.135l-126.558-.614c-1.383 0-2.304-1.382-2.304-3.225l.154-33.176c0-1.689 1.075-3.225 2.303-3.225l126.558.614c1.382 0 2.304 1.383 2.304 3.226l-.154 33.021c0 1.997-1.075 3.379-2.303 3.379z" fill="#FF725E"/><path d="M273.989 485.552c0 1.689-1.228 2.611-3.532 2.611h-4.301v-9.984h4.147c2.15 0 3.379.922 3.379 2.611 0 1.075-.614 1.843-1.536 2.304 1.075.154 1.997 1.229 1.843 2.458zm-.921-.154c0-1.229-.922-1.843-2.611-1.843h-3.379v3.686h3.379c1.689.154 2.611-.461 2.611-1.843zm-5.837-6.297v3.532h3.072c1.536 0 2.458-.614 2.458-1.843 0-1.228-.922-1.843-2.458-1.843h-3.072v.154zm9.062 4.915v-5.683h.921v5.683c0 2.304 1.076 3.379 2.919 3.379s2.918-1.075 2.918-3.379v-5.683h.921v5.683c0 2.918-1.535 4.3-3.839 4.3-2.304 0-3.84-1.536-3.84-4.3zm13.977.921v3.379h-.922v-3.379l-3.686-6.451h1.075l3.226 5.529 3.225-5.529h.922l-3.84 6.451z" fill="#fff"/><path d="M237.741 168.696h-47.766v24.421h47.766v-24.421zm-37.476-8.601l-10.29 8.601h47.92l6.911-8.601h-44.541z" fill="#FF725E"/><path opacity=".2" d="M200.265 160.095l-10.29 8.601h47.92l6.911-8.601h-44.541z" fill="#000"/><path d="M237.896 193.117l6.912-9.369v-23.653l-6.912 8.601v24.421z" fill="#FF725E"/><path opacity=".1" d="M237.896 193.117l6.912-9.369v-23.653l-6.912 8.601v24.421z" fill="#000"/><path d="M229.602 176.53h-32.561v2.457h32.561v-2.457z" fill="#FF725E"/><path opacity=".1" d="M229.602 176.53h-32.561v2.457h32.561v-2.457z" fill="#000"/><path d="M223.764 181.137H203.49v2.458h20.274v-2.458z" fill="#FF725E"/><path opacity=".1" d="M223.764 181.137H203.49v2.458h20.274v-2.458z" fill="#000"/><path d="M225.3 206.172h-21.81v3.379h21.81v-3.379z" fill="#263238"/><path d="M189.975 168.696c.768-.153 1.536-.153 2.303-.153l6.298-.154c5.375 0 12.748-.153 20.888-.153l18.431.153-.308.154 5.222-6.144c.615-.768 1.229-1.536 1.997-2.15-.461.922-1.075 1.69-1.843 2.457l-5.068 6.298-.154.153h-.154l-18.43.154c-8.141 0-15.513 0-20.889-.154l-6.297-.153a6.79 6.79 0 00-1.996-.308z" fill="#FF725E"/><path d="M189.973 168.696c.768-.153 1.536-.153 2.303-.153l6.298-.154c5.375 0 12.748-.153 20.888-.153l18.431.153-.308.154 5.222-6.144c.615-.768 1.229-1.536 1.997-2.15-.461.922-1.075 1.69-1.843 2.457l-5.068 6.298-.154.153h-.154l-18.43.154c-8.141 0-15.513 0-20.888-.154l-6.298-.153a6.79 6.79 0 00-1.996-.308z" fill="#000" opacity=".2"/><path d="M237.895 193.117a80.214 80.214 0 01-.46-12.134c-.154-4.146 0-8.14.46-12.287a82.12 82.12 0 01.461 12.287 162.8 162.8 0 01-.461 12.134z" fill="#FF725E"/><path d="M237.895 193.117a80.214 80.214 0 01-.46-12.134c-.154-4.146 0-8.14.46-12.287a82.12 82.12 0 01.461 12.287 162.8 162.8 0 01-.461 12.134z" fill="#000" opacity=".2"/><path d="M293.495 206.172h-21.809v3.379h21.809v-3.379z" fill="#263238"/><path d="M264.895 155.088l-.317 37.783 34.251.287.316-37.783-34.25-.287z" fill="#FF725E"/><path d="M274.757 147.5l-9.984 7.68h34.251l7.065-7.68h-31.332z" fill="#FF725E"/><path d="M299.023 193.117l7.066-9.369V147.5l-7.066 7.68v37.937zm-9.523-22.578h-17.355v2.457H289.5v-2.457z" fill="#FF725E"/><path opacity=".2" d="M289.5 170.539h-17.355v2.457H289.5v-2.457z" fill="#000"/><path d="M286.277 175.147h-10.752v2.457h10.752v-2.457z" fill="#FF725E"/><path opacity=".2" d="M286.277 175.147h-10.752v2.457h10.752v-2.457z" fill="#000"/><path d="M264.773 155.181c.615-.154 1.229-.154 1.844-.154l4.761-.153c3.993-.154 9.676-.154 15.819-.154h11.98l-.307.154c2.151-2.304 3.994-4.301 5.222-5.53.615-.768 1.383-1.382 2.151-1.996-.461.768-1.076 1.536-1.843 2.303-1.229 1.383-2.919 3.379-5.069 5.683l-.154.154h-12.133c-6.144 0-11.826 0-15.82-.154l-4.761-.153c-.614.153-1.229.153-1.69 0z" fill="#FF725E"/><path d="M264.773 155.181c.615-.154 1.229-.154 1.844-.154l4.761-.153c3.993-.154 9.676-.154 15.819-.154h11.98l-.307.154c2.151-2.304 3.994-4.301 5.222-5.53.615-.768 1.383-1.382 2.151-1.996-.461.768-1.076 1.536-1.843 2.303-1.229 1.383-2.919 3.379-5.069 5.683l-.154.154h-12.133c-6.144 0-11.826 0-15.82-.154l-4.761-.153c-.614.153-1.229.153-1.69 0z" fill="#000" opacity=".3"/><path d="M299.025 193.117c-.153 0-.461-8.447-.461-18.892 0-10.444.154-18.891.461-18.891.307 0 .461 8.447.461 18.891 0 10.445-.307 18.892-.461 18.892z" fill="#FF725E"/><path d="M299.023 193.117c-.153 0-.461-8.447-.461-18.892 0-10.444.154-18.891.461-18.891.307 0 .461 8.447.461 18.891 0 10.445-.307 18.892-.461 18.892z" fill="#000" opacity=".3"/><path d="M354.316 206.172h-21.81v3.379h21.81v-3.379z" fill="#263238"/><path d="M327.746 169.31c1.843-.307 3.533-.307 5.376-.307 3.379 0 7.986-.153 13.055-.153 4.454 0 8.601 0 11.826.153l-.153.154c1.382-1.536 2.457-2.611 3.379-3.533.46-.461.768-.921 1.382-1.228-.307.46-.614 1.075-1.075 1.382-.768.921-1.843 2.15-3.072 3.686l-.154.154h-.153c-3.072 0-7.219.153-11.827.153-5.068 0-9.676 0-13.055-.153-1.843 0-3.686-.154-5.529-.308z" fill="#FF725E"/><path d="M357.85 169.311h-30.104v23.806h30.104v-23.806z" fill="#FF725E"/><path opacity=".2" d="M357.85 169.311h-30.104v23.806h30.104v-23.806z" fill="#000"/><path d="M334.197 164.396l-6.451 4.761h30.257l4.454-4.761h-28.26z" fill="#FF725E"/><path d="M358.002 193.117l4.454-5.99v-22.731l-4.454 4.761v23.96z" fill="#FF725E"/><path opacity=".1" d="M358.002 193.117l4.454-5.99v-22.731l-4.454 4.761v23.96z" fill="#000"/><path d="M350.169 178.372h-13.823v1.843h13.823v-1.843zm-2.457 3.379h-8.601v1.844h8.601v-1.844zm10.289 11.366a78.077 78.077 0 01-.461-11.98c-.154-3.993 0-7.987.461-11.826.461 3.993.461 7.986.461 11.826 0 3.993-.154 7.987-.461 11.98zM401.007 54.58l-3.072 5.683-5.683 3.072 5.683 3.225 3.072 5.683 3.225-5.683 5.683-3.225-5.683-3.072-3.225-5.683zM133.914 201.565l-3.225 5.683-5.683 3.072 5.683 3.225 3.225 5.683 3.072-5.683 5.683-3.225-5.683-3.072-3.072-5.683zM423.737 78.847l-1.843 3.379-3.533 1.996 3.533 1.843 1.843 3.533 1.997-3.533 3.532-1.843-3.532-1.996-1.997-3.38zm-307.025 89.85l-1.997 3.532-3.379 1.843 3.379 1.997 1.997 3.533 1.843-3.533 3.532-1.997-3.532-1.843-1.843-3.532zm433.894 399.485l-11.366-8.908 16.588-21.349 16.741 12.902-.921 1.382c-4.301 6.144-21.964 30.872-26.111 33.79-4.914 3.532 5.069-17.817 5.069-17.817z" fill="#FF725E"/><path d="M544.001 585.846c-.154-.154 5.836-8.14 13.516-17.97 7.679-9.83 14.13-17.509 14.284-17.356.153.154-5.837 8.141-13.516 17.97-7.833 9.676-14.13 17.51-14.284 17.356zm8.603-15.36c0 .307-.768.307-1.69.307-.921 0-1.536-.153-1.689-.307 0-.307.768-.614 1.689-.614.922 0 1.69.307 1.69.614zm-.31 1.844c-.153.307-.921.153-1.843.153-.921 0-1.689-.307-1.689-.614s.768-.461 1.843-.307c.921.153 1.689.614 1.689.768z" fill="#263238"/><path d="M566.58 556.817c-.154 0-.308-.461-.768-1.229-.461-1.075-.615-2.303-.615-3.532s.461-2.458 1.229-3.379c.614-.768 1.229-.922 1.229-.768 0 .154-.308.461-.768 1.229-.615.921-.768 1.996-.922 3.072 0 1.075.154 2.15.307 3.225.461.768.461 1.229.308 1.382zm-16.128 11.98c-.154-.154.307-.614.921-1.075.615-.307 1.229-.615 1.382-.461.154.154-.153.768-.767 1.229-.768.461-1.536.614-1.536.307zm-.922-1.229c-.153-.153.154-.921.615-1.536.46-.614 1.228-1.075 1.382-.921.153.153-.154.768-.615 1.536-.614.768-1.075 1.228-1.382.921zm-73.875-182.156s-33.79 89.542-29.182 106.284c4.607 16.741 95.532 83.245 95.532 83.245l24.728-35.479s-70.958-56.06-71.112-59.286c-.153-3.225 28.107-77.562 28.107-77.562l-48.073-17.202z" fill="#263238"/><path d="M540.467 547.602l-.307-.154c-.153-.153-.461-.307-.921-.614l-3.379-2.304c-2.919-1.997-7.065-5.068-12.287-8.755-10.291-7.525-24.114-18.277-38.859-31.025a4571.185 4571.185 0 00-10.751-9.369l-5.068-4.454c-1.69-1.382-3.226-3.072-4.301-4.915-.921-1.996-1.229-4.147-.614-6.143.307-1.997.921-3.84 1.382-5.683.922-3.686 1.997-6.912 2.765-9.983l4.147-14.438c.46-1.689.768-2.918 1.075-3.993l.307-1.075c-.154 0-.154-.154-.154-.154l.154-.153.154.153s0 .154-.154.154c0 .307-.154.614-.154 1.075-.153.921-.46 2.304-.921 3.993-.922 3.379-2.304 8.448-3.994 14.591-.921 3.072-1.843 6.451-2.764 9.984l-1.382 5.529c-.461 1.996-.308 3.993.614 5.683a14.908 14.908 0 004.147 4.607l5.068 4.454c3.379 3.072 7.065 6.144 10.752 9.216 14.744 12.594 28.567 23.499 38.704 31.178l12.134 9.062 3.225 2.458.922.614c.307.461.46.461.46.461z" fill="#455A64"/><path d="M532.174 558.507c-.154-.154 4.454-6.605 10.444-14.438 5.99-7.833 10.905-14.13 11.058-13.976.154.153-4.454 6.604-10.444 14.437-5.836 7.833-10.751 14.13-11.058 13.977z" fill="#455A64"/><path d="M535.248 215.08c3.072 5.99 4.608 11.212 10.598 14.284 2.764 1.382 5.99 2.15 7.679 4.761 1.69 2.765.922 6.758 3.225 9.216 3.226 3.532 9.83.614 13.516 3.839 3.226 2.765 2.151 8.755 5.683 11.212 1.997 1.383 4.608 1.075 6.912 1.997 3.686 1.382 5.375 5.683 5.99 9.523.46 3.071.153 6.297-1.229 9.368-1.382 2.919-3.993 5.069-7.219 5.53-4.147.46-8.908-2.458-12.287 0-1.075 1.075-1.997 2.15-2.765 3.379-3.532 4.607-10.29 5.375-14.744 1.843-1.075-.768-1.843-1.69-2.458-2.918-2.303-3.84-2.15-9.216-5.529-12.288-1.997-1.382-4.147-2.303-6.451-2.918-2.303-.768-4.607-2.15-5.222-4.454a20.049 20.049 0 00-3.225-5.529c-1.69-2.611-3.993.614-6.297-.614-2.304-1.229-1.382-3.687-1.536-6.298" fill="#263238"/><path d="M495.467 302.012l-29.182-9.83s-12.902 37.169-16.895 37.476c-21.81 1.997-45.309-5.222-53.449-8.14-.768-.922-1.843-1.997-2.918-3.379-.922-1.229-1.536-2.458-1.997-3.994-.614-1.689-1.075-3.532-1.229-5.375.154-.922-.614-1.843-1.536-1.843-.46 0-1.075.153-1.382.46-.921 1.229-1.229 5.837.922 10.905 2.15 5.069-5.53 1.075-8.294-.307-2.765-1.382-11.673-5.375-12.902-4.915-1.689.768-1.075 2.611 1.69 3.994 2.764 1.382 11.058 5.99 10.29 7.372-.768 1.382-15.051-5.99-15.051-5.99s-2.765-1.997-3.84-.461c-1.843 2.918 13.823 9.676 15.359 10.291 1.075.46.153 1.996-.922 1.536-1.075-.461-13.823-7.68-15.666-4.608-1.382 2.304 12.902 5.683 14.745 8.601 1.843 2.918-10.598-3.686-11.827-1.382-.46.768-.768 1.535 6.912 4.3 5.683 1.69 11.365 3.225 17.048 4.301v.153s76.641 34.251 93.229 1.229c17.816-34.865 16.895-40.394 16.895-40.394z" fill="#E5BAAB"/><path d="M524.341 271.294l12.748.307 10.137 29.029-8.294 33.175c-2.457 9.676 8.601 29.182 8.294 39.78l-71.419 11.519-1.536-47.767v-1.535l-24.728-12.288 8.14-19.966c12.595-29.336 34.404-31.179 34.404-31.179l32.254-1.075z" fill="#FF725E"/><path d="M524.343 271.294l12.748.307 10.137 29.029-8.294 33.175c-2.457 9.676 8.601 29.182 8.294 39.78l-71.419 11.519-1.536-47.767v-1.535l-24.728-12.288 8.14-19.966c12.595-29.336 34.404-31.179 34.404-31.179l32.254-1.075z" fill="#fff" opacity=".2"/><path d="M537.55 271.601s-.153 0-.46.154c-.461.154-.768.307-1.229.307-1.69.307-3.226.461-4.915.461l.154-.307 4.914 7.986.308.461-.615-.153c-2.764-.461-5.683-.615-8.601-.308l.307-.307a52.493 52.493 0 001.383 9.676l.153.615-.614-.154c-3.225-.614-6.297-1.843-9.215-3.379l.614-.307c-.614 2.918-1.229 5.836-1.843 8.908l-.154.614-.461-.46c-1.228-1.075-2.457-2.151-3.686-3.379a39.542 39.542 0 01-3.225-3.686l.614.153-8.14 6.451-.461.461-.153-.615c-.615-2.918-1.075-5.682-1.69-8.293l.461.307-8.755 3.071-.614.154.154-.614c.921-3.533 1.689-6.605 2.457-9.523l.154.307-7.526-1.382h-.307l.153-.307 3.379-4.915.922-1.229c.153-.307.307-.46.307-.46 0 .153-.154.307-.307.46l-.768 1.229-3.226 4.915-.153-.307 7.679 1.228h.307v.308l-2.457 9.522-.461-.461 8.755-3.071.461-.154.153.461 1.69 8.294-.615-.154 8.141-6.451.307-.307.307.307c.921 1.229 1.997 2.304 3.072 3.533 1.075 1.075 2.304 2.304 3.532 3.225l-.614.307c.614-3.071 1.229-5.99 1.843-8.908l.154-.614.46.307c2.919 1.536 5.837 2.611 9.062 3.379l-.461.461a52.31 52.31 0 01-1.382-9.83v-.307h.307c2.918-.307 5.837-.154 8.755.307l-.307.461c-1.843-3.072-3.379-5.837-4.762-7.987l-.153-.307h.307c1.689 0 3.225-.154 4.915-.307 1.229.307 1.689.153 1.689.153z" fill="#455A64"/><path d="M551.681 283.888s-.461-.154-1.536-.461a8.831 8.831 0 00-4.454-.153l.154-.154c.307 1.69.768 3.686 1.382 5.99.614 2.304 1.382 4.915 2.15 7.987l.154.461-.461-.154c-3.686-1.075-7.986-1.843-12.441-3.379l.461-.307c.461 4.454.461 9.215.768 14.437v.461h-.461a83.12 83.12 0 01-12.133-3.225c-.461-.154-1.075-.308-1.229-.154-.307.307-.614.768-.614 1.229l-1.229 3.072c-.921 1.996-1.689 4.146-2.611 6.297l-.307.614-.461-.614-8.14-10.137-.615-.768h.615l-13.055 9.062-.461.307-.154-.461c-1.536-4.3-2.918-8.447-4.3-12.441l.614.154c-4.607 2.918-9.522 5.375-14.591 7.372l-.614.154v-.461c.921-6.604 1.843-12.594 2.457-17.816l.307.307c-3.686 1.536-7.679 2.15-11.672 1.843h-.308l.154-.307 2.765-7.373c.307-.768.614-1.382.768-1.843 0-.153.153-.46.307-.614 0 .154-.154.461-.154.614-.153.461-.307 1.075-.614 1.997-.614 1.689-1.536 4.3-2.611 7.526l-.154-.307c3.994.153 7.833-.461 11.519-1.997l.461-.154v.461a543.979 543.979 0 00-2.304 17.817l-.46-.308c5.068-1.996 9.829-4.454 14.437-7.372l.461-.307.153.461 4.301 12.287-.614-.154 13.055-9.062.307-.153.153.307.615.768 8.14 10.137-.768.154 2.611-6.298 1.229-3.071c.153-.615.461-1.076.921-1.536.154-.154.308-.154.615-.308h.46c.308 0 .615.154.768.154a76.392 76.392 0 0011.98 3.225l-.46.308c-.154-5.222-.154-10.137-.615-14.438v-.461l.461.154c4.454 1.536 8.755 2.457 12.441 3.533l-.307.307c-.615-2.918-1.383-5.529-1.997-7.833-.614-2.304-1.075-4.454-1.229-6.144v-.153h.154c1.536-.308 3.072-.308 4.608.153.307.154.767.461 1.228.768z" fill="#455A64"/><path d="M474.731 335.495c-.614-.154-1.075-.461-1.536-.768a11.81 11.81 0 01-3.379-3.379c-1.229-1.997-1.843-4.454-1.689-6.758.153-5.375 3.225-10.137 7.833-12.748l-.154.307c.615-4.3 1.075-8.14 1.536-10.751.154-1.382.461-2.764.768-4.3 0 1.382-.154 2.918-.307 4.3-.307 2.611-.768 6.451-1.229 10.905v.154l-.153.153c-4.301 2.458-7.219 7.065-7.373 11.98-.153 2.304.307 4.454 1.383 6.451.767 1.382 1.843 2.457 3.071 3.379.308.461.768.768 1.229 1.075z" fill="#455A64"/><path d="M477.345 303.394c-.154.154-.922-.921-1.536-2.303-.614-1.383-1.075-2.612-.768-2.612.154-.153.922.922 1.536 2.304.614 1.383.922 2.458.768 2.611z" fill="#455A64"/><path d="M523.42 271.755l2.15-50.224-19.966-15.052-18.124 8.909s-.614 22.731 0 32.561c.614 9.829 10.598 10.905 10.598 10.905s-.154 5.836-.461 11.826c-.307 7.065 5.222 13.055 12.287 13.362h.615c7.065 0 12.747-5.375 12.901-12.287z" fill="#E5BAAB"/><path d="M489.631 231.975c0 .768.614 1.229 1.229 1.229.768 0 1.228-.615 1.228-1.229 0-.768-.614-1.229-1.228-1.229-.615-.153-1.229.461-1.229 1.229zm-1.231-1.382c.154.153 1.075-.614 2.457-.768 1.383-.154 2.304.614 2.458.461.154-.154-.154-.307-.614-.615-1.229-.768-2.919-.768-3.994.154-.307.307-.46.614-.307.768zm15.821 1.382c0 .768.614 1.229 1.228 1.229.768 0 1.229-.615 1.229-1.229 0-.768-.614-1.229-1.229-1.229-.614-.153-1.228.461-1.228 1.229zm-.768-1.382c.154.153 1.075-.614 2.458-.768 1.382-.154 2.303.614 2.457.461.154-.154-.154-.307-.614-.615-1.229-.768-2.919-.768-3.994.154-.307.307-.307.614-.307.768z" fill="#263238"/><path d="M502.993 243.341c-1.997 1.075-4.3 1.843-6.604 2.304 1.075 1.382 2.918 1.997 4.454 1.229 1.536-.307 2.457-1.843 2.15-3.379.154-.154 0-.154 0-.154z" fill="#fff"/><path d="M498.23 258.853c4.762-.154 9.216-1.689 13.056-4.454 0 0-2.919 7.219-12.902 6.758l-.154-2.304z" fill="#D78776"/><path d="M554.445 249.946c-1.228 0-2.457-.308-3.532-.768-1.69-.922-2.918-2.151-3.84-3.84-1.075-1.997-2.15-4.147-2.918-6.297-1.843-4.608-3.226-8.909-4.147-11.98l-.461-1.383c-.153-.46-.153-1.075-.307-1.382-5.376-20.581-23.346-24.421-27.032-24.421-3.84 0-10.597-2.15-20.274 7.987-1.535 1.536-2.764 3.225-3.686 5.068-2.15 2.765-3.686 5.837-4.3 9.216-.461 1.536-.461 3.225-.154 4.915.154 0 .154-1.843.922-4.762.46-1.689 1.075-3.379 1.843-4.914-.922 3.839-.461 7.833.921 11.365l3.533-.921 12.594-4.301c-1.075-3.84.615-8.754 1.536-10.905l.154-.153c1.382 8.447 8.14 14.898 16.587 16.127l2.304 32.253c16.741-3.532 16.281-25.956 16.127-30.41.768 2.611 1.69 5.529 2.918 8.601.768 2.15 1.843 4.3 3.072 6.297 1.075 1.689 2.611 3.072 4.301 3.84 1.228.614 2.611.768 3.839.614.461 0 .922-.154 1.383-.461 0 .307-.615.615-1.383.615z" fill="#263238"/><path d="M498.54 241.959c-.768-.154-1.536-.307-2.151-.307-.307 0-.614-.154-.768-.308 0-.307 0-.768.154-1.075l.921-2.764c.615-1.997 1.229-3.84 1.536-5.222.308-.768.461-1.383.461-2.151-.307.615-.614 1.383-.921 1.997-.461 1.382-1.076 3.072-1.69 5.068-.307.922-.614 1.997-.921 2.765-.154.461-.308.922-.154 1.382.154.308.307.461.614.461h.615c.768.307 1.536.307 2.304.154z" fill="#263238"/><path d="M526.8 241.652c-.154-1.69 0-3.226.614-4.915.461-1.536 1.843-2.765 3.532-3.072 1.997-.154 3.687 1.382 3.994 3.225.307 1.997-.768 3.84-2.458 4.762-1.689.921-3.686.921-5.529.153" fill="#E5BAAB"/><path d="M529.562 240.115c0-.153.615.154 1.229 0 .922-.307 1.536-1.075 1.536-2.15 0-.461 0-.921-.307-1.382-.307-.307-.614-.307-1.075-.307-.768.153-1.229.307-1.383.153 0-.153.308-.46 1.229-.768.615-.153 1.229 0 1.69.308.46.46.768 1.228.614 1.996 0 .615-.307 1.382-.768 1.843-.307.461-.921.768-1.382.768-.922.154-1.383-.307-1.383-.461z" fill="#D78776"/><path d="M514.513 632.383v-14.437l26.878-.154.153 21.042-1.689.153c-7.372.461-37.783 1.843-42.852.308-5.375-1.536 17.51-6.912 17.51-6.912z" fill="#FF725E"/><path d="M496.541 638.066c0-.307 10.137-.461 22.578-.461 12.44 0 22.424.154 22.424.461 0 .307-9.984.46-22.424.46-12.441 0-22.578-.307-22.578-.46zm17.509-2.765c-.307.153-.768-.461-1.228-1.075-.461-.615-.922-1.383-.768-1.536.153-.154.921.153 1.535.921.461.768.615 1.536.461 1.69zm-1.688 1.075c-.308.154-.768-.614-1.229-1.382-.461-.768-.768-1.536-.615-1.69.154-.153.922.308 1.383 1.229.461.768.614 1.69.461 1.843z" fill="#263238"/><path d="M533.403 637.912c-.153-.153.154-.614.615-1.382.614-1.075 1.382-1.843 2.303-2.611.922-.768 2.151-1.075 3.379-1.075.922 0 1.383.46 1.383.46s-.615.001-1.383.154c-1.075.154-1.996.614-2.918 1.229a8.233 8.233 0 00-2.304 2.304c-.46.614-.921 1.075-1.075.921zm-19.505-5.222c.154-.153.768-.153 1.383.154.614.307 1.228.614 1.228.768 0 .153-.767.307-1.535.153-.768-.307-1.076-.921-1.076-1.075zm.459-1.382c0-.307.768-.461 1.69-.461.921 0 1.536.154 1.536.461 0 .307-.768.461-1.69.461-.921 0-1.536-.307-1.536-.461z" fill="#263238"/><path d="M490.399 382.954l-14.745 2.457 8.448 10.444c2.457 49.149 1.843 96.762 4.147 120.568.307 3.686 15.512 116.728 13.976 114.117l44.848 1.843-13.362-113.656 6.297-100.908a53.738 53.738 0 005.683-39.473l-1.075-4.454" fill="#455A64"/><path d="M521.423 205.251c-2.303-.922-3.993-2.765-4.607-5.069-.615-2.304.153-4.915 1.996-6.451 1.843-1.535 4.608-1.843 6.758-.614 1.536 1.075 2.765 2.765 3.379 4.608a8.274 8.274 0 01.461 3.839c-.614 1.844-2.15 3.379-4.147 3.687-1.843.307-3.84.46-5.836.153" fill="#263238"/><path d="M560.895 232.743c.153-.615.153-1.383.153-1.997-.153-.768-.614-1.536-1.075-1.997-.768-.768-1.689-1.228-2.611-1.536-1.228-.307-2.457-.46-3.839-.307-1.383.154-2.919.307-4.454.307-1.69.154-3.533-.307-4.915-1.228-1.536-1.075-2.611-2.765-3.072-4.608-1.075-3.225-2.611-6.297-4.915-8.755-1.843-2.15-3.993-3.839-6.297-5.375-2.304-1.229-4.608-2.304-7.065-2.918h.614c.307 0 .922.153 1.536.307 1.843.461 3.686 1.228 5.376 2.15 2.457 1.382 4.761 3.225 6.604 5.376 2.304 2.611 4.147 5.682 5.222 9.061.307 1.69 1.229 3.226 2.611 4.147 1.382.768 3.072 1.229 4.608 1.075 1.536 0 3.071-.307 4.454-.307 1.382-.153 2.764 0 3.993.307 1.075.308 2.15.922 2.765 1.844.614.614.921 1.382 1.075 2.303 0 .461 0 1.076-.154 1.536l-.614.615z" fill="#263238"/><path d="M532.638 241.498c0-.154.767.46.767 1.843 0 .768-.307 1.536-.921 1.996-.768.615-1.69.922-2.611.768-.922-.153-1.843-.768-2.304-1.689-.307-.614-.461-1.536-.154-2.304.461-1.229 1.229-1.536 1.229-1.536s-.461.615-.768 1.69c-.153.614 0 1.228.307 1.689.461.614 1.076 1.075 1.69 1.229.768.153 1.382-.154 1.997-.614.46-.461.768-.922.921-1.536.154-.768-.307-1.383-.153-1.536z" fill="#E0E0E0"/><path d="M528.642 207.247c-3.225-3.226-7.526-5.529-11.98-6.297 4.761-.308 9.369 2.15 11.98 6.297z" fill="#FF725E"/><path d="M534.324 239.654c0-.153.461-.153.768.307a.978.978 0 010 .922c-.153.461-.614.614-1.075.614-.614 0-1.229-.46-1.382-1.228v-.308c0-.46.307-.768.461-.614.153 0 0 .307.153.614 0 .308.307.615.768.615.307 0 .461-.154.461-.461v-.154s-.154-.153-.154-.307z" fill="#E0E0E0"/><path d="M523.881 270.219c.154.615.154 1.075.154 1.69a11.02 11.02 0 01-.921 4.454c-.768 2.15-2.151 3.993-3.994 5.529-4.454 3.686-10.905 3.993-15.82.922-1.996-1.229-3.532-2.919-4.607-4.915-.768-1.383-1.229-2.765-1.382-4.301a3.145 3.145 0 010-1.689c.307 1.996.921 3.993 1.996 5.683 1.075 1.843 2.611 3.379 4.454 4.607 4.608 2.765 10.598 2.458 14.898-.921 1.69-1.383 3.072-3.072 3.84-5.069.768-1.996 1.229-3.993 1.382-5.99z" fill="#455A64"/><path d="M520.654 622.246c0-.154-.154-.307-.154-.461 0-.307-.153-.768-.153-1.229-.154-1.075-.307-2.764-.615-4.761-.46-4.147-1.228-9.983-1.996-17.356-1.69-14.744-3.686-35.018-5.529-57.442s-3.072-42.852-3.84-57.596c-.307-7.372-.614-13.362-.768-17.509 0-1.997-.154-3.687-.154-4.762v-1.689.461c0 .307 0 .768.154 1.228.154 1.229.153 2.765.307 4.762.307 4.147.614 10.137 1.075 17.509a4683.251 4683.251 0 003.994 57.596c1.843 22.424 3.686 42.851 5.222 57.442.768 7.373 1.382 13.209 1.843 17.356.153 1.997.307 3.533.46 4.761 0 .461.154.922.154 1.229-.154.154 0 .307 0 .461z" fill="#263238"/><path d="M545.69 622.246c-.614.153-1.075.307-1.689.307-1.075.154-2.765.154-4.761.307-3.994.154-9.523.307-15.513.154-5.99-.154-11.519-.307-15.513-.461l-4.761-.154c-.614 0-1.229 0-1.689-.153.614-.154 1.228-.154 1.689-.154h4.761c3.994 0 9.523.154 15.513.154 6.144.153 11.519.153 15.513 0h6.45z" fill="#263238"/><path d="M537.551 271.602c0 .153-2.611.921-6.605 1.228l.308-.614 2.918 4.761 1.843 3.072.461.768-.922-.154c-2.764-.46-5.683-.614-8.601-.768.768-.307 1.69-.46 2.458-.307 2.15-.153 4.146 0 6.297.307l-.461.615-1.843-3.072-2.918-4.915-.307-.614h.614c1.997-.154 3.686-.154 4.761-.307h1.997zm14.128 12.286c0 .154-2.304-.46-5.99-.46l.307-.308c.922 3.533 2.15 8.448 3.533 13.977l.153.614-.614-.153-9.83-2.611-2.611-.768.461-.461c.153 5.222.461 10.137.614 14.437v.461l-.461-.153-9.369-2.611-2.611-.768c-.307-.154-.614-.154-.921-.307.307 0 .614 0 .921.153l2.611.614 9.369 2.304-.46.307c-.154-4.3-.461-9.061-.768-14.437v-.614l.614.153 2.611.768 9.676 2.765-.461.461c-1.228-5.53-2.457-10.444-3.225-13.977v-.307h.307c1.536.153 3.072.307 4.454.614.768 0 1.229 0 1.69.307zm1.998 38.859c-.46-.307-.768-.768-1.075-1.229-.614-.768-1.382-2.15-2.304-3.686h.461a80.791 80.791 0 01-8.755 13.823l-.307.461-.307-.461c-1.536-1.843-3.072-3.993-4.608-6.144l-3.532-4.607h.614l-5.683 5.068-2.611 2.15-1.228 1.076-.615.46-.153.154h-.154c0 .153-.461-.154-.461-.307.154-.154 0 0 0 0v-.154l.154.307-.307.154-.154-.307c-.921-3.072-1.536-5.53-1.843-7.219-.307-.922-.307-1.843-.307-2.765 0 0 .154.922.614 2.611.461 1.69 1.229 4.147 2.151 7.066l-.308-.154h.308c.153 0 .307.154.307.307v.154h-.154l-.153-.154s0-.153-.154-.153l-.154-.154.154-.154.614-.46 1.229-1.076c.768-.767 1.69-1.535 2.457-2.303l5.683-4.915.307-.307.308.307 3.532 4.607c1.69 2.151 3.226 4.147 4.608 6.144h-.614c3.225-4.3 6.297-8.908 8.908-13.516l.153-.307.154.307c.921 1.69 1.536 3.072 2.15 3.84.922 1.075 1.075 1.536 1.075 1.536z" fill="#455A64"/><path d="M526.494 300.937c0 .461-.154 1.075-.308 1.536-.153.921-.614 2.304-1.075 3.993-.921 3.379-2.457 7.987-4.454 12.902-1.997 4.915-3.993 9.369-5.529 12.441-.768 1.535-1.382 2.764-1.997 3.686a3.34 3.34 0 01-.768 1.228c.615-1.689 1.383-3.532 2.304-5.222 1.382-3.225 3.379-7.526 5.222-12.44a175.948 175.948 0 004.608-12.748c.614-1.843 1.229-3.687 1.997-5.376zm11.057-29.335c0 .153-2.611.921-6.605 1.228l.308-.614 2.918 4.761 1.843 3.072.461.768-.922-.154c-2.764-.46-5.683-.614-8.601-.768.768-.307 1.69-.46 2.458-.307 2.15-.153 4.146 0 6.297.307l-.461.615-1.843-3.072-2.918-4.915-.307-.614h.614c1.997-.154 3.686-.154 4.761-.307h1.997z" fill="#455A64"/><path d="M526.494 300.937c0 .461-.154 1.075-.308 1.536-.153.921-.614 2.304-1.075 3.993-.921 3.379-2.457 7.987-4.454 12.902-1.997 4.915-3.993 9.369-5.529 12.441-.768 1.535-1.382 2.764-1.997 3.686a3.34 3.34 0 01-.768 1.228c.615-1.689 1.383-3.532 2.304-5.222 1.382-3.225 3.379-7.526 5.222-12.44a175.948 175.948 0 004.608-12.748c.614-1.843 1.229-3.687 1.997-5.376z" fill="#455A64"/><path d="M348.483 403.842l35.633-122.564c1.843-6.298 8.447-9.984 14.744-8.141l200.742 58.518c6.297 1.843 9.983 8.447 8.14 14.745l-35.633 122.564c-1.843 6.297-8.447 9.983-14.744 8.14l-200.742-58.517c-6.297-1.69-9.983-8.448-8.14-14.745z" fill="#FF725E"/><path d="M348.483 403.842l35.633-122.564c1.843-6.298 8.447-9.984 14.744-8.141l200.742 58.518c6.297 1.843 9.983 8.447 8.14 14.745l-35.633 122.564c-1.843 6.297-8.447 9.983-14.744 8.14l-200.742-58.517c-6.297-1.69-9.983-8.448-8.14-14.745z" fill="#000" opacity=".3"/><path d="M377.204 368.67l-3.686 12.441-1.229-.307 3.225-11.212-2.918-.922.307-1.075 4.301 1.075zm12.594 15.052l-.307 1.075-8.755-2.458.307-.921 6.605-3.533c1.843-.921 2.304-1.689 2.611-2.611.461-1.382-.307-2.611-2.304-3.225-1.229-.461-2.611-.307-3.84.307l-.614-1.075c1.536-.922 3.225-1.075 4.915-.461 2.457.768 3.686 2.458 3.072 4.608-.308 1.229-1.076 2.15-3.226 3.225l-5.375 2.919 6.911 2.15zm13.67 1.69l-2.457-.768-.922 3.225-1.229-.307.922-3.226-7.065-1.996.307-.922 9.062-6.297 1.382.461-8.601 6.143 5.376 1.536.768-2.918 1.228.307-.768 2.919 2.458.767-.461 1.076zm18.893 5.529l-2.458-.768-.921 3.225-1.229-.307.921-3.225-7.065-1.997.308-.921 8.908-6.298 1.382.461-8.601 6.144 5.376 1.536.768-2.919 1.228.308-.768 2.918 2.458.768-.307 1.075zm11.055 2.764c-.614 2.151-2.611 3.379-5.682 2.458-1.69-.461-3.072-1.382-3.994-2.918l.922-.768c.768 1.228 1.996 2.15 3.532 2.611 2.151.614 3.533-.154 3.994-1.536.46-1.383-.154-2.918-3.379-3.84l-2.611-.768 2.457-5.99 6.758 1.997-.307 1.075-5.683-1.69-1.536 3.84 1.536.461c3.686.921 4.608 2.765 3.993 5.068zm12.29 3.533c-.614 2.15-2.918 3.379-5.068 2.764-.154 0-.154 0-.308-.153-3.225-.922-4.454-3.686-3.225-7.68 1.229-4.147 4.147-5.682 7.526-4.761 1.075.307 1.997.768 2.764 1.536l-.767.922c-.615-.615-1.383-1.076-2.304-1.229-2.611-.768-4.915.461-5.837 3.84-.153.307-.153.614-.307 1.075 1.075-1.229 2.918-1.536 4.454-1.075 2.15.307 3.533 2.457 3.226 4.454-.154 0-.154.153-.154.307zm-1.382-.307c.46-1.536-.461-3.072-1.843-3.533-.154 0-.308 0-.461-.153-1.382-.768-3.072-.154-3.84 1.228-.768 1.383-.154 3.072 1.229 3.84.307.154.614.307.921.307 1.383.614 3.072 0 3.686-1.382.308-.154.308-.307.308-.307zm18.277 5.375c-.615 2.151-2.611 3.226-5.53 2.304-1.689-.461-3.071-1.382-3.993-2.918l.922-.768c.768 1.229 1.996 2.15 3.379 2.611 1.996.614 3.532 0 3.993-1.536.461-1.536-.307-2.765-2.611-3.379l-.922-.307.308-.922 4.761-3.379-6.297-1.843.307-1.075 7.986 2.304-.307.922-4.761 3.379c2.457.768 3.379 2.611 2.765 4.607zm12.441 3.379c-.614 2.15-2.918 3.379-5.069 2.611-.153 0-.153 0-.307-.153-3.225-.922-4.454-3.84-3.225-7.68 1.229-4.3 4.147-5.683 7.526-4.761 1.075.307 1.996.768 2.764 1.536l-.768.921c-.614-.614-1.382-1.075-2.303-1.228-2.611-.768-4.915.46-5.837 3.839-.153.308-.153.615-.153 1.075 1.075-1.228 2.918-1.535 4.454-1.075 2.15.308 3.532 2.458 3.225 4.454-.153.308-.154.461-.307.461zm-1.229-.307c.461-1.536-.461-3.072-1.996-3.533h-.308c-1.382-.767-3.071-.153-3.839 1.229-.768 1.382-.154 3.072 1.228 3.84.308.154.615.307.922.307 1.382.614 3.072 0 3.686-1.382.307-.154.307-.307.307-.461zm15.204-5.068l-.307.921-8.601 9.984-1.382-.461 8.447-9.83-6.451-1.843-.614 2.304-1.229-.307 1.075-3.379 9.062 2.611zm17.816 5.222l-.307.921-8.601 9.984-1.382-.461 8.447-9.83-6.45-1.843-.615 2.304-1.228-.307 1.075-3.379 9.061 2.611zm9.523 12.594c-.615 2.15-2.918 3.072-5.837 2.15-2.918-.921-4.454-2.764-3.686-4.915.461-1.536 1.843-2.457 3.226-2.304-1.076-.767-1.536-1.996-1.229-3.225.614-1.997 2.611-2.764 5.375-1.997 2.612.768 3.994 2.458 3.379 4.608-.307 1.229-1.535 2.15-2.764 2.15 1.382.461 1.996 1.997 1.536 3.533zm-1.229-.461c.461-1.536-.614-2.918-2.765-3.532-2.15-.615-3.839 0-4.3 1.536-.461 1.535.614 2.918 2.764 3.532 2.151.614 3.84 0 4.301-1.536zm-2.457-4.608c1.996.615 3.379.001 3.686-1.228.307-1.383-.615-2.611-2.458-3.226-1.843-.614-3.379 0-3.686 1.383-.307 1.382.461 2.611 2.458 3.071zm16.587 5.684c-1.228 4.3-4.147 5.836-7.526 4.761-1.075-.307-1.996-.768-2.764-1.536l.768-.922c.614.615 1.382 1.075 2.304 1.229 2.764.768 4.914-.461 5.836-3.84.154-.307.154-.614.307-1.075-1.075 1.229-2.918 1.536-4.454 1.075-2.15-.307-3.532-2.457-3.225-4.454 0-.153 0-.307.153-.461.615-2.15 2.918-3.379 4.915-2.764.154 0 .307.153.307.153 3.379 1.076 4.608 3.84 3.379 7.834zm-1.075-2.919c.307-1.689-.768-3.225-2.457-3.532h-.154c-1.382-.615-3.072.153-3.686 1.536-.614 1.382.154 3.071 1.536 3.686.153 0 .307.153.614.153 1.69.461 3.533-.307 4.147-1.843zm15.512.461l-3.686 12.441-1.229-.307 3.226-11.212-2.919-.922.308-1.075 4.3 1.075zm6.913 15.052l-.307 1.075-8.755-2.458.307-.921 6.604-3.533c1.844-.921 2.304-1.689 2.611-2.611.461-1.382-.307-2.611-2.303-3.225-1.229-.461-2.611-.307-3.84.307l-.614-1.075c1.535-.922 3.225-1.075 4.914-.461 2.458.768 3.687 2.458 3.072 4.608-.307 1.228-1.075 2.15-3.225 3.225l-5.376 2.918 6.912 2.151zm11.212.767c-.614 2.15-2.611 3.226-5.529 2.304-1.689-.461-3.072-1.536-3.993-2.918l.921-.768c.768 1.229 1.997 2.15 3.379 2.611 1.997.614 3.533 0 3.84-1.536.461-1.536-.307-2.765-2.611-3.379l-.921-.307.307-.922 4.607-3.379-6.297-1.843.307-1.075 7.987 2.304-.307.922-4.761 3.378c2.764.768 3.686 2.611 3.071 4.608zm-95.886-15.101l-1.589 5.457 99.389 28.954 1.589-5.456-99.389-28.955zm45.266 24.879l-1.59 5.456 51.022 14.864 1.589-5.456-51.021-14.864z" fill="#fff"/><path d="M389.031 326.894l27.032 7.833c3.993 1.229 6.297 5.376 5.222 9.369l-4.762 16.588c-1.228 3.993-5.375 6.297-9.369 5.222l-27.031-7.833c-3.994-1.229-6.298-5.376-5.222-9.369l4.761-16.588c1.075-4.147 5.375-6.451 9.369-5.222z" fill="#263238"/><path d="M375.207 347.167l.614-1.996 21.503 6.297c2.457.768 5.068-.768 5.836-3.225.768-2.458-.768-5.069-3.225-5.837l-21.503-6.297.615-1.997 21.502 6.297a6.737 6.737 0 014.147 8.601c-1.075 3.379-4.607 5.223-7.986 4.455l-21.503-6.298z" fill="#fff"/><path d="M404.398 347.496l-.603 2.064 14.741 4.311.604-2.064-14.742-4.311zm-10.265-46.987l-2.664 9.142 107.34 31.285 2.665-9.141-107.341-31.286z" fill="#fff"/><path d="M554.446 322.286l-26.418-17.355s-12.901 37.168-16.894 37.475c-21.81 1.997-45.309-5.222-53.45-8.14-.768-.921-1.843-1.996-2.918-3.379-.921-1.228-1.536-2.457-1.996-3.993-.615-1.69-1.076-3.533-1.229-5.376.153-.921-.615-1.843-1.536-1.843-.461 0-1.075.154-1.382.461-.922 1.229-1.229 5.99.921 10.905 2.15 5.068-5.529 1.075-8.294-.307-2.764-1.383-11.672-5.376-12.901-4.915-1.69.768-1.075 2.611 1.689 3.993 2.918 1.382 11.059 5.99 10.291 7.372-.768 1.383-15.052-5.99-15.052-5.99s-2.765-1.996-3.84-.46c-1.843 2.918 13.823 9.676 15.359 10.29 1.075.461.154 1.997-.921 1.536-1.075-.461-13.977-7.679-15.82-4.761-1.382 2.304 12.901 5.683 14.745 8.601 1.843 2.918-10.598-3.686-11.827-1.382-.461.767-.768 1.535 6.912 4.3 5.683 1.69 11.365 3.225 17.048 4.301 0 0 78.484 35.172 93.229 1.228 16.127-35.633 14.284-32.561 14.284-32.561z" fill="#E5BAAB"/><path d="M537.092 271.601s23.96 2.765 21.502 31.332c-1.535 17.663-6.604 34.712-14.591 50.531l-31.485-16.434c7.065-14.13 12.44-29.028 15.819-44.387l8.755-21.042z" fill="#FF725E"/><path d="M537.09 271.601s23.96 2.765 21.502 31.332c-1.535 17.663-6.604 34.712-14.591 50.531l-31.485-16.434c7.065-14.13 12.44-29.028 15.819-44.387l8.755-21.042z" fill="#fff" opacity=".2"/><path d="M551.681 283.888c0 .154-2.304-.46-5.99-.46l.307-.308c.921 3.533 2.15 8.448 3.532 13.977l.154.614-.614-.153-9.83-2.611-2.611-.768.461-.461c.153 5.222.46 10.137.614 14.437v.461l-.461-.153-9.369-2.611-2.611-.768c-.307-.154-.614-.154-.921-.307.307 0 .614 0 .921.153l2.611.614 9.369 2.304-.46.307c-.154-4.3-.461-9.061-.768-14.437v-.614l.614.153 2.611.768 9.676 2.765-.461.461c-1.228-5.53-2.457-10.444-3.225-13.977v-.307h.307c1.536.153 3.072.307 4.454.614.768 0 1.229 0 1.69.307zm1.996 38.859c-.46-.307-.768-.768-1.075-1.229-.614-.768-1.382-2.15-2.304-3.686h.461a80.791 80.791 0 01-8.755 13.823l-.307.461-.307-.461c-1.536-1.843-3.072-3.993-4.608-6.144l-3.532-4.607h.614l-5.683 5.068-2.611 2.15-1.228 1.076-.615.46-.153.154h-.154c0 .153-.461-.154-.461-.307.154-.154 0 0 0 0v-.154l.154.307-.307.154-.154-.307c-.921-3.072-1.536-5.53-1.843-7.219-.307-.922-.307-1.843-.307-2.765 0 0 .154.922.614 2.611.461 1.69 1.229 4.147 2.151 7.066l-.308-.154h.308c.153 0 .307.154.307.307v.154h-.154l-.153-.154s0-.153-.154-.153l-.154-.154.154-.154.614-.46 1.229-1.076c.768-.767 1.69-1.535 2.457-2.303l5.683-4.915.307-.307.308.307 3.532 4.607c1.69 2.151 3.226 4.147 4.608 6.144h-.614c3.225-4.3 6.297-8.908 8.908-13.516l.153-.307.154.307c.921 1.69 1.536 3.072 2.15 3.84.922 1.075 1.075 1.536 1.075 1.536z" fill="#455A64"/></svg>