<svg width="861" height="640" fill="none" xmlns="http://www.w3.org/2000/svg"><path d="M774.022 590.968h-56.946v.344h56.946v-.344zm-204.214 4.645H554.84v.344h14.968v-.344zm145.546-20.645h-33.032v.344h33.032v-.344zm-550.709 2.925H90.322v.344h74.323v-.344zm26.151 0h-10.839v.344h10.839v-.344zm196.645 7.226H226.236v.344h161.205v-.344zm22.708-98.581H77.933c-5.333 0-9.806-4.473-9.806-9.807V9.806C68.127 4.473 72.6 0 77.933 0H410.15c5.333 0 9.806 4.473 9.806 9.806v466.925c0 5.334-4.473 9.807-9.806 9.807zM77.933.344c-5.16 0-9.462 4.13-9.462 9.462v466.925c0 5.162 4.13 9.463 9.462 9.463H410.15c5.161 0 9.462-4.129 9.462-9.463V9.806c0-5.16-4.129-9.462-9.462-9.462H77.933zm704.346 486.194H450.064c-5.333 0-9.806-4.473-9.806-9.807V9.806c0-5.333 4.473-9.806 9.806-9.806h332.215c5.334 0 9.807 4.473 9.807 9.806v466.925c0 5.334-4.473 9.807-9.807 9.807zM450.064.344c-5.161 0-9.462 4.13-9.462 9.462v466.925c0 5.162 4.129 9.463 9.462 9.463h332.215c5.162 0 9.463-4.129 9.463-9.463V9.806c0-5.16-4.129-9.462-9.463-9.462H450.064zm410.151 562.925H0v.344h860.215v-.344z" fill="#EBEBEB"/><path d="M224.862 109.075l12.559-7.914 6.882 13.247 14.796-.688-.688 14.795 13.247 6.882-8.086 12.559 8.086 12.559-13.247 6.882.688 14.796-14.796-.688-6.882 13.247-12.559-7.914-12.559 7.914-6.882-13.247-14.967.688.688-14.796-13.247-6.882 8.086-12.559-8.086-12.559 13.247-6.882-.688-14.795 14.967.688 6.882-13.247 12.559 7.914z" fill="#E6E6E6"/><path d="M220.047 167.053l-14.968-14.968a4.361 4.361 0 010-6.193 4.36 4.36 0 016.194 0l8.774 8.774 18.237-18.237a4.361 4.361 0 016.193 0 4.36 4.36 0 010 6.194l-24.43 24.43z" fill="#FAFAFA"/><path d="M691.442 240.86l9.807-6.365 5.333 10.322 11.699-.516-.516 11.699 10.322 5.333-6.365 9.979 6.365 9.806-10.322 5.334.516 11.699-11.699-.517-5.333 10.323-9.807-6.194-9.978 6.194-5.334-10.323-11.699.517.517-11.699-10.323-5.334 6.366-9.806-6.366-9.979L664.948 256l-.517-11.699 11.699.516 5.334-10.322 9.978 6.365z" fill="#E6E6E6"/><path d="M687.659 286.28l-11.699-11.699c-1.376-1.377-1.376-3.441 0-4.817 1.376-1.377 3.441-1.377 4.817 0l6.882 6.881 14.28-14.279c1.376-1.377 3.44-1.377 4.817 0 1.376 1.376 1.376 3.441 0 4.817l-19.097 19.097z" fill="#FAFAFA"/><path d="M226.063 406.022l19.269 9.806c3.269 1.721 7.226 1.032 9.634-1.72l14.624-15.828c1.72-1.893 2.581-4.473 2.065-6.882l-7.57-43.355a12.861 12.861 0 00-15.14-10.494l-24.258 4.301a12.862 12.862 0 00-10.495 15.139l7.57 43.355c.516 2.237 2.065 4.473 4.301 5.678zm21.85-3.441c2.236-.344 4.301 1.032 4.817 3.269.344 2.236-1.032 4.301-3.269 4.817-2.237.344-4.301-1.032-4.817-3.269-.344-2.236 1.032-4.301 3.269-4.817z" fill="#E6E6E6"/><path d="M227.057 392.665l37.105-6.541-.717-4.066-37.104 6.541.716 4.066zm-6.23-35.763l37.105-6.541-.717-4.066-37.105 6.541.717 4.066z" fill="#FAFAFA"/><path d="M291.612 125.764l13.247 14.107c2.237 2.409 5.85 3.097 8.603 1.548l17.204-8.774c2.064-1.032 3.441-2.924 3.957-5.333l6.882-38.882c1.204-6.365-3.097-12.387-9.463-13.591l-21.849-3.785c-6.366-1.204-12.387 3.097-13.592 9.462l-6.881 38.882c-.344 2.409.344 4.817 1.892 6.366zm19.613 3.957c2.065.344 3.269 2.236 2.925 4.301-.344 2.064-2.237 3.268-4.301 2.924-2.065-.344-3.269-2.236-2.925-4.301.344-1.892 2.237-3.269 4.301-2.924z" fill="#F0F0F0"/><path d="M296.574 114.89l33.377 5.883.627-3.558-33.377-5.883-.627 3.558zm5.652-32.164l33.378 5.883.627-3.558-33.378-5.883-.627 3.558z" fill="#FAFAFA"/><path d="M611.443 83.785c-5.162-7.226-15.14-9.118-22.366-3.957l-6.882 4.817-4.817-6.881c-5.161-7.226-15.14-9.119-22.365-3.957-7.226 5.16-9.119 15.14-3.957 22.365l23.225 33.205 33.205-23.226c7.226-4.99 8.946-14.968 3.957-22.366zm47.652 3.097c-2.58-3.613-7.398-4.473-11.011-1.892l-3.268 2.409-2.409-3.27c-2.581-3.612-7.398-4.473-11.011-1.892-3.613 2.58-4.473 7.398-1.892 11.01l11.355 16.173 16.172-11.355c3.785-2.58 4.645-7.57 2.064-11.183z" fill="#EBEBEB"/><path d="M150.368 244.989c-23.054 6.71-36.474 30.796-29.936 53.85 4.301 14.968 30.624 40.258 48.516 56.086 7.914 7.054 20.645 3.441 23.57-6.71 6.882-22.882 15.828-58.15 11.527-73.29-6.538-23.226-30.624-36.645-53.677-29.936zm17.548 61.076c-10.667 3.096-21.85-3.097-24.946-13.764-3.097-10.667 3.096-21.849 13.763-24.946 10.667-3.097 21.85 3.097 24.946 13.763 3.097 10.839-3.096 22.022-13.763 24.947z" fill="#E0E0E0"/><path d="M157.079 242.925c-23.054 6.709-36.474 30.795-29.936 53.849 4.301 14.968 30.624 40.258 48.516 56.086 7.914 7.054 20.645 3.441 23.57-6.709 6.882-22.882 15.828-58.151 11.527-73.291-6.366-23.226-30.452-36.473-53.677-29.935zm17.548 61.247c-10.667 3.097-21.85-3.097-24.946-13.763-3.097-10.667 3.096-21.85 13.763-24.947 10.667-3.096 21.85 3.097 24.946 13.764 3.097 10.666-3.096 21.849-13.763 24.946z" fill="#F5F5F5"/><path d="M658.752 134.194c-20.129-5.85-41.119 5.849-46.968 25.978-3.785 13.075 4.129 43.871 9.978 63.828 2.581 8.946 13.592 12.043 20.646 5.85 15.655-13.764 38.537-35.613 42.322-48.689 5.85-20.129-5.849-41.118-25.978-46.967zm-15.312 53.333c-9.291-2.581-14.624-12.387-12.043-21.677 2.58-9.291 12.387-14.624 21.677-12.043 9.291 2.58 14.624 12.387 12.043 21.677-2.58 9.29-12.387 14.796-21.677 12.043z" fill="#E0E0E0"/><path d="M664.773 135.914c-20.129-5.85-41.118 5.849-46.968 25.978-3.785 13.076 4.129 43.871 9.979 63.828 2.581 8.947 13.591 12.043 20.645 5.85 15.656-13.764 38.538-35.613 42.323-48.688 5.677-20.129-5.85-41.119-25.979-46.968zm-15.312 53.333c-9.29-2.58-14.623-12.387-12.043-21.677 2.581-9.291 12.387-14.624 21.678-12.043 9.29 2.58 14.623 12.387 12.043 21.677-2.753 9.29-12.387 14.624-21.678 12.043zM430.107 640c184.238 0 333.592-8.704 333.592-19.441 0-10.737-149.354-19.441-333.592-19.441-184.237 0-333.591 8.704-333.591 19.441C96.516 631.296 245.87 640 430.107 640z" fill="#F5F5F5"/><path d="M324.304 228.646h18.409c3.957 0 6.881 3.269 6.537 7.054l-3.441 38.882c-.344 3.957-3.785 7.053-7.742 7.053h-18.408c-3.957 0-6.882-3.269-6.538-7.053l3.441-38.882c.344-3.957 3.785-7.054 7.742-7.054z" fill="#407BFF"/><path opacity=".2" d="M530.237 220.388h28.732c6.193 0 10.666 4.989 10.15 11.183l-3.613 40.602c-.516 6.194-6.021 11.183-12.043 11.183h-28.731c-6.193 0-10.667-4.989-10.15-11.183l3.612-40.602c.517-6.194 5.85-11.183 12.043-11.183zm-5.849 67.268h28.731c6.194 0 10.667 4.989 10.151 11.183l-3.613 40.602c-.517 6.194-6.022 11.183-12.043 11.183h-28.732c-6.193 0-10.666-4.989-10.15-11.183l3.613-40.602c.344-6.194 5.849-11.183 12.043-11.183z" fill="#000"/><path d="M375.915 144.345H536.26c22.193 0 38.709 18.064 36.817 40.258L538.84 575.485c-1.892 22.193-21.505 40.258-43.871 40.258H334.625c-22.194 0-38.71-18.065-36.817-40.258l34.236-390.882c1.893-22.194 21.678-40.258 43.871-40.258z" fill="#407BFF"/><path opacity=".2" d="M375.915 144.345H536.26c22.193 0 38.709 18.064 36.817 40.258L538.84 575.485c-1.892 22.193-21.505 40.258-43.871 40.258H334.625c-22.194 0-38.71-18.065-36.817-40.258l34.236-390.882c1.893-22.194 21.678-40.258 43.871-40.258z" fill="#000"/><path d="M370.753 144.345h160.344c22.194 0 38.71 18.064 36.818 40.258l-34.237 390.882c-1.892 22.193-21.505 40.258-43.871 40.258H329.463c-22.194 0-38.71-18.065-36.817-40.258l34.236-390.882c1.893-22.194 21.678-40.258 43.871-40.258z" fill="#407BFF"/><path d="M563.098 184.603l-34.237 390.881c-1.72 19.613-18.925 35.441-38.71 35.441H329.807c-19.613 0-34.064-15.828-32.344-35.441L331.7 184.603c1.72-19.613 18.925-35.441 38.709-35.441h160.345c19.44 0 34.064 15.828 32.344 35.441z" fill="#fff"/><path d="M329.978 610.926h60.732l98.236-461.936h-77.419L314.15 606.969c4.646 2.58 9.979 3.957 15.828 3.957zm196.128-461.763h-14.795l-98.237 461.763h14.796l98.236-461.763z" opacity=".1" fill="#000"/><path d="M403.442 147.958c-.517 6.194 4.129 11.355 10.322 11.355h71.398c6.194 0 11.871-5.161 12.387-11.355h-94.107zm124.215 13.763h16.172c1.376 0 2.408 1.032 2.236 2.409l-.688 7.054c-.172 1.376-1.376 2.408-2.58 2.408h-16.173c-1.376 0-2.408-1.032-2.236-2.408l.688-7.054c.172-1.377 1.204-2.409 2.581-2.409zm-172.904 0h21.678c1.548 0 2.58 1.205 2.58 2.753l-.516 6.365c-.172 1.549-1.548 2.753-2.924 2.753h-21.678c-1.548 0-2.581-1.204-2.581-2.753l.517-6.365c0-1.548 1.376-2.753 2.924-2.753z" fill="#407BFF"/><path opacity=".4" d="M354.753 161.721h21.678c1.548 0 2.58 1.205 2.58 2.753l-.516 6.365c-.172 1.549-1.548 2.753-2.924 2.753h-21.678c-1.548 0-2.581-1.204-2.581-2.753l.517-6.365c0-1.548 1.376-2.753 2.924-2.753z" fill="#fff"/><path d="M523.355 163.785h2.581c.516 0 .86.344.86.86l-.516 6.022c0 .516-.516.86-1.032.86h-2.581c-.516 0-.86-.344-.86-.86l.516-6.022c.172-.516.516-.86 1.032-.86z" fill="#407BFF"/><path d="M540.734 163.785h2.581c.516 0 .86.344.86.86l-.516 6.022c0 .516-.516.86-1.033.86h-2.58c-.516 0-.86-.344-.86-.86l.516-6.022c0-.516.516-.86 1.032-.86zm-5.508 0h2.581c.516 0 .86.344.86.86l-.516 6.022c0 .516-.516.86-1.032.86h-2.581c-.516 0-.86-.344-.86-.86l.516-6.022c.172-.516.516-.86 1.032-.86z" fill="#fff"/><path d="M563.958 271.657l-3.44 39.914c3.44-.688 6.193-3.441 6.365-7.054l2.237-25.979c.344-3.268-1.893-6.193-5.162-6.881z" fill="#407BFF"/><path opacity=".2" d="M563.958 271.657l-3.44 39.914c3.44-.688 6.193-3.441 6.365-7.054l2.237-25.979c.344-3.268-1.893-6.193-5.162-6.881z" fill="#000"/><path d="M567.74 228.646l-3.441 39.914c3.441-.688 6.193-3.441 6.365-7.054l2.237-25.978c.344-3.441-1.892-6.366-5.161-6.882z" fill="#407BFF"/><path opacity=".2" d="M567.74 228.646l-3.441 39.914c3.441-.688 6.193-3.441 6.365-7.054l2.237-25.978c.344-3.441-1.892-6.366-5.161-6.882z" fill="#000"/><path d="M470.535 176.517h-53.677c-8.946 0-16.86 7.226-17.72 16.172l-2.753 31.656c-.86 8.946 5.849 16.172 14.796 16.172h15.311l-1.032 12.387c-.344 3.097 3.269 4.645 5.678 2.409l16-14.796h17.548c8.946 0 16.86-7.226 17.72-16.172l2.753-31.656c1.032-8.946-5.677-16.172-14.624-16.172z" fill="#407BFF"/><path d="M454.535 191.658h-25.806c0-2.065-.172-3.269-.172-5.334h-14.108c.172 1.205.344 1.893.516 3.097h10.151c0 .86.172 1.376.172 2.237.344 4.473.516 6.709.688 11.182 0 1.205.172 1.893.172 3.097.344 4.473.516 6.71.688 11.183.172 2.409.172 3.613.344 6.021h28.215c.345-1.204.517-1.892 1.033-3.096h-26.839c0-1.205 0-1.721-.172-2.925h29.075c1.549-4.473 2.237-6.71 3.785-11.183.344-1.204.688-1.892 1.032-3.097 1.549-4.473 2.237-6.709 3.785-11.182h-12.559zm-25.634 3.096h9.118c-.172 3.269-.344 4.99-.516 8.258h-8.43c0-3.268 0-4.989-.172-8.258zm.688 19.441c-.172-3.269-.172-4.989-.344-8.258h8.086c-.172 3.269-.344 4.989-.516 8.258h-7.226zm17.376 0h-7.397c.344-3.269.516-4.989.688-8.258h8.086c-.516 3.441-.688 4.989-1.377 8.258zm2.065-11.183h-8.43c.344-3.268.516-4.989.688-8.258h9.118c-.516 3.269-.86 4.99-1.376 8.258zm8.086 11.183h-7.398c.688-3.269 1.032-4.989 1.72-8.258h8.087c-.861 3.441-1.377 4.989-2.409 8.258zm3.441-11.183h-8.43c.688-3.268 1.032-4.989 1.72-8.258h9.118c-1.032 3.269-1.376 4.99-2.408 8.258zM428.9 226.238c-2.065 0-3.785 1.549-3.957 3.613-.172 2.065 1.376 3.613 3.269 3.613 2.064 0 3.785-1.548 3.957-3.613.172-2.064-1.377-3.613-3.269-3.613zm25.635 0c-2.065 0-3.785 1.549-3.957 3.613-.173 2.065 1.376 3.613 3.268 3.613 2.065 0 3.785-1.548 3.957-3.613.172-2.064-1.204-3.613-3.268-3.613z" fill="#fff"/><path d="M509.079 401.205h-61.247v61.247h61.247v-61.247z" fill="#407BFF"/><path d="M546.756 401.205h-37.678v61.247h37.678v-61.247zm-49.378-15.484h-61.247l11.699 15.484h61.247l-11.699-15.484z" fill="#407BFF"/><path opacity=".3" d="M546.756 401.205h-37.678v61.247h37.678v-61.247z" fill="#fff"/><path opacity=".4" d="M497.378 385.721h-61.247l11.699 15.484h61.247l-11.699-15.484z" fill="#fff"/><path d="M520.089 385.721h37.677l-11.01 15.484h-37.678l11.011-15.484z" fill="#407BFF"/><path opacity=".6" d="M509.079 401.205h-61.247v61.247h61.247v-61.247z" fill="#fff"/><path opacity=".2" d="M520.089 385.721h37.677l-11.01 15.484h-37.678l11.011-15.484z" fill="#fff"/><path d="M681.465 460.905H526.971v154.494h154.494V460.905z" fill="#407BFF"/><path opacity=".4" d="M681.465 460.905H526.971v154.494h154.494V460.905z" fill="#fff"/><path d="M527.144 460.905h-94.968v154.494h94.968V460.905z" fill="#407BFF"/><path opacity=".6" d="M527.144 460.905h-94.968v154.494h94.968V460.905z" fill="#fff"/><path opacity=".5" d="M461.422 460.905v41.462l3.785 2.065 3.269-2.753 5.161 2.753 4.817-2.753 3.785 2.753 4.301-2.753 2.581 2.237v-43.011h-27.699zm27.699 154.494v-41.462l-3.785-1.893-3.269 2.581-5.161-2.581-4.817 2.581-3.785-2.581-4.474 2.581-2.408-2.236v43.01h27.699z" fill="#fff"/><path d="M590.111 523.872c.861 3.613 1.377 5.333 2.237 8.774.172 1.032.344 1.377.516 2.409.86 3.613 1.376 5.333 2.237 8.774h22.709c-.172.86-.172 1.376-.344 2.409h-20.989c.172 1.032.344 1.376.516 2.408h22.194c.344-1.892.516-2.752.688-4.645.516-3.613.86-5.333 1.376-8.774.172-1.032.172-1.376.344-2.409.516-3.613.86-5.333 1.377-8.774.172-.688.172-1.032.344-1.72h8.086c.172-1.033.344-1.377.516-2.409h-11.183c-.172 1.72-.344 2.581-.516 4.129h-20.301c-3.785-.172-5.85-.172-9.807-.172zm29.248 8.946h-6.538c0-2.58.172-3.785.172-6.365h7.226c-.516 2.408-.688 3.785-.86 6.365zm-6.882 8.774c0-2.58.172-3.784.172-6.365h6.366c-.345 2.581-.517 3.785-.689 6.365h-5.849zm-8.602-6.365h6.365v6.365h-5.849c-.172-2.58-.172-3.784-.516-6.365zm-.688-8.946h7.225v6.365h-6.537c-.344-2.408-.516-3.785-.688-6.365zm-7.914 8.946h6.365c.344 2.581.516 3.785.86 6.365h-5.849c-.688-2.58-.86-3.784-1.376-6.365zm-1.893-8.946h7.226c.344 2.58.516 3.785.86 6.365h-6.537c-.861-2.408-1.033-3.785-1.549-6.365zm24.601 30.28a2.754 2.754 0 10-.001-5.507 2.754 2.754 0 00.001 5.507zm-20.127 0a2.753 2.753 0 100-5.506 2.753 2.753 0 000 5.506z" fill="#fff"/><path d="M458.67 523.872c.86 3.613 1.376 5.333 2.236 8.774.173 1.032.345 1.377.517 2.409.86 3.613 1.376 5.333 2.236 8.774h22.71c-.172.86-.172 1.376-.344 2.409h-20.99c.173 1.032.345 1.376.517 2.408h22.193c.344-1.892.516-2.752.688-4.645.516-3.613.861-5.333 1.377-8.774.172-1.032.172-1.376.344-2.409.516-3.613.86-5.333 1.376-8.774.172-.688.172-1.032.344-1.72h8.086c.172-1.033.344-1.377.516-2.409h-11.182c-.172 1.72-.344 2.581-.517 4.129h-20.301c-3.785-.172-5.849-.172-9.806-.172zm29.247 8.946h-6.537c0-2.58.172-3.785.172-6.365h7.225c-.516 2.408-.688 3.785-.86 6.365zm-6.881 8.774c0-2.58.172-3.784.172-6.365h6.365c-.344 2.581-.516 3.785-.688 6.365h-5.849zm-8.603-6.365h6.366v6.365h-5.85c-.172-2.58-.172-3.784-.516-6.365zm-.688-8.946h7.226v6.365h-6.538c-.344-2.408-.516-3.785-.688-6.365zm-7.914 8.946h6.366c.344 2.581.516 3.785.86 6.365h-5.849c-.689-2.58-.861-3.784-1.377-6.365zm-1.892-8.946h7.226c.344 2.58.516 3.785.86 6.365h-6.538c-.688-2.408-1.032-3.785-1.548-6.365zm24.601 30.279a2.752 2.752 0 100-5.504 2.752 2.752 0 000 5.504zm-20.127 0a2.753 2.753 0 100-5.506 2.753 2.753 0 000 5.506z" opacity=".5" fill="#fff"/><path d="M625.204 338.065s5.333 38.538 10.15 45.075c4.818 6.71 26.495 24.946 26.495 24.946l13.592-2.064 9.118 8.602-6.71 4.645-7.226-3.269s-5.505.689-12.387.345c-7.054-.517-34.236-18.925-39.226-28.56-4.989-9.634-10.666-45.419-10.666-45.419l16.86-4.301z" fill="#CE7A63"/><path d="M629.678 349.076l-1.377.172c-1.032-9.119-4.817-36.473-15.139-29.42-9.979 6.71-7.226 26.151-5.678 33.205l-1.72.344 1.548 4.817 22.882-4.473-.516-4.645z" fill="#407BFF"/><path opacity=".2" d="M621.075 331.011l-2.58-5.506-7.914 7.914-4.473 6.882c.172 5.161.86 9.979 1.548 12.731l-1.72.344 1.548 4.818 12.903-2.409c2.237-13.419.688-24.774.688-24.774z" fill="#000"/><path d="M621.938 261.85s27.354 5.85 12.903 18.925l-12.043-10.495-.86-8.43z" fill="#263238"/><path d="M659.787 550.71l-17.377 42.667-12.043-4.817 9.635-42.323 19.785 4.473z" fill="#CE7A63"/><path opacity=".2" d="M640.862 543.313l-6.71 29.763 14.796 3.269 11.699-28.731-19.785-4.301z" fill="#000"/><path d="M645.163 592.345c2.237 4.989 3.785 9.118 12.731 14.624 2.065 1.204-1.376 6.365-6.365 4.129-8.086-3.613-6.022-3.785-13.075-6.71-5.85-2.581-10.151-4.129-14.968-6.193-.172 0-.172-.172-.344-.172-.86-.689-1.033-1.893-.344-2.753l7.053-9.635c.345-.516.861-.688 1.377-.344l11.355 4.99c1.204.172 2.064 1.032 2.58 2.064zm53.677-141.936c-2.236 27.527-41.806 118.538-41.806 118.538l-23.398-6.538s17.893-87.398 29.592-101.85c0 0-3.785 0-9.979.172-21.333.173-70.882.173-85.333-3.612-10.151-2.753-31.484-8.258-25.807-42.323l26.495-.86 30.796-1.032c0-.173 102.537 0 99.44 37.505z" fill="#263238"/><path opacity=".2" d="M653.249 460.732c-21.333.172-70.882.172-85.333-3.613-10.151-2.753-31.484-8.258-25.807-42.323l26.495-.86c20.817 2.409 48 6.538 66.581 14.624 8.946 3.785 15.311 10.838 17.204 19.096.344 2.237.688 7.914.86 13.076z" fill="#000"/><path d="M619.012 549.162l-8.775 43.527-13.075-.688 1.548-43.527 20.302.688z" fill="#CE7A63"/><path opacity=".2" d="M619.013 549.162l-20.301-.688-.86 26.151 16 .516 5.161-25.979z" fill="#000"/><path d="M612.302 593.721c2.065 5.161 3.441 9.462 12.56 15.312 1.892 1.204-1.549 6.537-6.538 4.129-8.258-3.957-6.022-3.957-13.075-7.226-6.022-2.753-10.323-4.473-15.14-6.71l-.344-.172c-.86-.688-1.032-1.892-.344-2.752l7.57-9.635c.344-.516.86-.516 1.376-.344l11.527 5.333c1.032.172 1.892 1.033 2.408 2.065zm-85.504-179.097s-7.398 26.839 4.817 37.505c17.376 14.796 79.828 10.323 79.828 10.323-10.839 34.581-15.656 103.054-15.656 103.054h23.398s31.828-93.764 27.183-118.022c-4.645-24.258-88.43-32.86-88.43-32.86h-31.14z" fill="#263238"/><path d="M631.57 565.162l26.495 6.71 5.333-11.355-29.075-8.258-2.753 12.903zm-38.191 3.785l27.183 1.377 2.752-11.871-29.935-1.377v11.871zm12.559-191.484c6.882-20.301 15.484-35.785 16.516-52.989-23.569-34.065-69.677-13.936-69.677-13.936-27.871 52.301-25.978 104.086-25.978 104.086 63.311 0 66.924-1.032 66.924-1.032s.172-8.946 12.215-36.129z" fill="#407BFF"/><path opacity=".2" d="M584.605 309.506c1.033 6.021 3.097 16.86 5.678 18.408 3.441 2.065 8.602-.86 8.602-.86s4.129 5.678 8.602 1.893c2.409-2.409 4.473-5.334 5.678-8.43-1.377 2.236-2.925 4.129-4.818 5.849-4.473 3.785-8.602-1.892-8.602-1.892s-5.161 2.924-8.602.86c-2.408-1.377-4.989-9.979-6.538-15.828z" fill="#000"/><path d="M590.279 301.248l6.366 2.237-4.989 4.301-1.377-6.538z" fill="#407BFF"/><path opacity=".2" d="M590.279 301.248l6.366 2.237-4.989 4.301-1.377-6.538z" fill="#000"/><path d="M610.238 307.785l1.721 4.99s-8.947 9.462-11.527 9.462c-2.581.172-10.151-17.72-10.151-17.72 9.979-4.474 9.119-9.463 9.119-9.463l10.838 12.731z" fill="#CE7A63"/><path opacity=".2" d="M606.968 317.764c2.581-2.408 4.99-4.817 4.99-4.817l-1.721-4.989-9.634-11.183c-1.377 4.645-2.581 14.796 6.365 20.989z" fill="#000"/><path d="M615.399 316.56a27.103 27.103 0 01-7.054 9.978c-4.473 3.785-8.602-1.892-8.602-1.892s-5.162 2.925-8.602.86c-3.441-2.064-7.914-21.161-7.914-21.161l7.053-3.097 9.807 20.645 13.075-10.839 2.237 5.506z" fill="#407BFF"/><path d="M599.058 277.85c0-3.096.688-6.021 2.236-8.774 4.817-8.43 15.484-11.355 23.742-6.537 12.559 6.709 12.903 26.322 9.118 37.849-1.032 3.269-2.924 6.366-5.677 8.43-7.398 6.022-18.237 4.817-24.258-2.752-6.194-7.226-5.333-14.968-5.161-28.216z" fill="#CE7A63"/><path d="M622.283 285.937c.688 0 1.204 1.032 1.032 2.064-.172 1.032-.86 1.72-1.548 1.72-.688 0-1.205-1.032-1.032-2.064.172-1.032.86-1.72 1.548-1.72zm11.871 2.235c.688 0 1.204 1.033 1.032 2.065-.172 1.032-.86 1.72-1.548 1.72-.688 0-1.204-1.032-1.032-2.064.172-1.032.86-1.721 1.548-1.721zm-15.141-4.645c1.204-1.032 2.924-1.204 4.473-.86.344.172.688 0 .86-.344.172-.344 0-.688-.344-.86-1.893-.516-4.129-.172-5.678 1.032-.344.172-.344.516 0 .86 0 0 .173.172.345.172 0 .172.172.172.344 0zm18.238 3.27c.344-.173.344-.517.172-.861a6.898 6.898 0 00-4.817-3.269c-.344 0-.516.173-.516.517 0 .344.172.688.516.688 1.72.172 3.097 1.204 3.785 2.752.172.173.344.345.516.345 0 0 .172 0 .344-.172z" fill="#263238"/><path d="M627.098 300.044c1.72.688 3.613.688 5.161 0-1.548-3.269-2.753-6.538-3.441-10.151l-1.72 10.151z" fill="#BA4D3C"/><path d="M598.196 286.452c-5.162-18.752 3.268-23.57 12.215-27.011 8.946-3.44 13.935-.172 16.86 3.097.86 1.033 2.753 3.957-3.097 4.301-3.441.172-7.054-.172-10.494-.86-1.377-.172-2.753.344-3.613 1.376-2.065 2.581-5.162 7.57-5.162 11.699.172 3.269-1.032 6.538-3.268 8.775l-3.441-1.377z" fill="#263238"/><path d="M591.656 380.56c1.205 0 2.237 1.032 2.237 2.237 0 1.204-1.032 2.236-2.237 2.236-1.204 0-2.236-1.032-2.236-2.236 0-1.205 1.032-2.237 2.236-2.237zm-4.986 24.086c1.376 0 2.237 1.032 2.237 2.237 0 1.204-1.033 2.236-2.237 2.236-1.204 0-2.236-1.032-2.236-2.236 0-1.205 1.032-2.237 2.236-2.237z" fill="#407BFF"/><path d="M598.369 282.151c3.613.688 5.334 5.849 5.506 9.118 0 3.613-2.581 6.366-5.85 4.129-2.408-1.72-4.129-4.301-4.817-7.054-.86-3.612 1.548-6.881 5.161-6.193z" fill="#CE7A63"/><path d="M614.885 299.872s3.269.688 11.527 4.473c-2.065 2.065-4.818 3.269-8.947 1.204-4.301-2.064-2.58-5.677-2.58-5.677z" fill="#263238"/><path d="M620.218 304.517c-2.065-1.032-3.785-1.204-5.161-.86.344.688 1.032 1.376 2.236 1.893 2.065 1.032 3.613 1.204 5.161.86-.344-.688-1.032-1.377-2.236-1.893z" fill="#A02724"/><path d="M615.402 299.872c0 .688 0 1.204.689 1.893 1.72.86 6.193 2.408 7.569 2.752.861.172 1.549.344 2.409-.344-6.366-2.925-9.634-3.957-10.667-4.301z" fill="#fff"/><path d="M628.526 426.229l31.14.167.027-4.989-31.14-.167-.027 4.989z" fill="#263238"/><path d="M591.487 425.979l39.57.173v-4.99l-41.979-.172v2.581c0 1.376 1.032 2.408 2.409 2.408z" fill="#263238"/><path opacity=".3" d="M591.487 425.979l39.57.173v-4.99l-41.979-.172v2.581c0 1.376 1.032 2.408 2.409 2.408z" fill="#fff"/><path d="M619.718 424.518l4.989.026.009-1.72-4.989-.027-.009 1.721zm-7.672-.084l4.989.027.009-1.72-4.989-.027-.009 1.72zm25.031-3.272h-3.268l13.247-45.075h3.269l-13.248 45.075z" fill="#263238"/><path opacity=".3" d="M637.077 421.162h-3.268l13.247-45.075h3.269l-13.248 45.075z" fill="#fff"/><path d="M635.873 421.162l58.323.344 13.247-45.075-58.323-.344-13.247 45.075z" fill="#263238"/><path opacity=".6" d="M635.873 421.162l58.323.344 13.247-45.075-58.323-.344-13.247 45.075z" fill="#fff"/><path d="M632.949 421.163c.688 0 60.215.344 60.903.344 1.033 0 1.893 1.204 1.893 2.58 0 1.377-.86 2.581-1.893 2.409-1.032 0-59.871-.344-60.903-.344-1.032 0-1.892-1.204-1.892-2.581 0-1.204.86-2.408 1.892-2.408z" fill="#263238"/><path opacity=".5" d="M632.949 421.163c.688 0 60.215.344 60.903.344 1.033 0 1.893 1.204 1.893 2.58 0 1.377-.86 2.581-1.893 2.409-1.032 0-59.871-.344-60.903-.344-1.032 0-1.892-1.204-1.892-2.581 0-1.204.86-2.408 1.892-2.408z" fill="#fff"/><path d="M631.057 423.743c0 1.376.86 2.581 1.892 2.581s1.893-1.033 1.893-2.409-.861-2.581-1.893-2.581c-1.032-.172-1.892 1.033-1.892 2.409z" fill="#263238"/><path opacity=".3" d="M631.057 423.743c0 1.376.86 2.581 1.892 2.581s1.893-1.033 1.893-2.409-.861-2.581-1.893-2.581c-1.032-.172-1.892 1.033-1.892 2.409z" fill="#fff"/><path opacity=".2" d="M573.594 379.355c-2.753-3.785-5.849-18.064-7.914-29.935l2.753-.516-.688-4.818-1.377.345c-1.032-9.291-4.817-36.99-15.139-30.968-2.925 5.849-5.678 11.699-7.914 17.548-.345 6.71.688 13.592 1.548 17.377l-1.72.344 1.548 4.989 3.613-.688c2.236 11.355 5.333 25.806 8.258 31.484 3.957 7.569 20.645 19.957 31.828 26.15 12.559-2.236 15.484-3.785 15.484-3.785s-.344-.516-.86-1.548l-2.065.344c.172-.344-22.366-19.441-27.355-26.323z" fill="#000"/><path d="M570.498 332.731s3.613 40.259 8.43 47.312c4.645 7.054 26.322 27.183 26.322 27.183l14.28-1.376 9.118 9.462-7.054 4.473-7.397-3.785s-5.678.516-12.904-.344c-7.225-.86-34.58-21.161-39.398-31.484-4.817-10.322-8.946-47.656-8.946-47.656l17.549-3.785z" fill="#CE7A63"/><path d="M573.764 341.334l-1.376.344c-1.032-9.463-4.989-38.022-15.656-30.624-10.322 7.054-7.398 27.011-6.021 34.581l-1.721.344 1.549 4.989 23.742-4.645-.517-4.989zm123.529-21.505h-33.721c-5.677 0-10.15 4.645-10.15 10.15v19.957c0 5.678 4.645 10.151 10.15 10.151h9.635v7.742c0 1.892 2.408 2.924 3.785 1.548l9.29-9.29h11.183c5.677 0 10.15-4.645 10.15-10.151v-19.957c-.172-5.677-4.645-10.15-10.322-10.15z" fill="#407BFF"/><path d="M689.035 329.291h-16.172c-.172-1.376-.172-2.065-.345-3.441h-8.946c.172.688.344 1.204.516 1.893h6.366c.172.516.172.86.172 1.376.516 2.925.688 4.301 1.032 7.054.172.688.172 1.204.344 1.892.516 2.925.689 4.301 1.033 7.054.172 1.548.344 2.236.516 3.785h17.72c.172-.688.344-1.204.516-1.893h-16.86c-.172-.688-.172-1.204-.172-1.892h18.581c.688-2.925 1.032-4.301 1.72-7.054.172-.688.344-1.204.516-1.892a420.914 420.914 0 011.721-7.054c-3.269.172-4.99.172-8.258.172zm-16 2.064h5.677c0 2.065.172 3.097.172 5.162h-5.333c0-2.065-.172-3.097-.516-5.162zm1.548 12.216c-.172-2.065-.344-3.097-.688-5.162h5.161c0 2.065.172 3.097.172 5.162h-4.645zm11.011 0h-4.645v-5.162h5.161c-.172 2.065-.344 3.097-.516 5.162zm.688-7.054h-5.333v-5.162h5.677c0 2.065-.172 3.097-.344 5.162zm5.677 7.054h-4.645c.344-2.065.344-3.097.688-5.162h5.162c-.516 2.065-.689 3.097-1.205 5.162zm1.549-7.054h-5.334c.344-2.065.344-3.097.689-5.162h5.677c-.344 2.065-.516 3.097-1.032 5.162zm-18.754 14.624c-1.204 0-2.236 1.032-2.236 2.236 0 1.204 1.032 2.237 2.236 2.237 1.204 0 2.237-1.033 2.237-2.237.172-1.376-.86-2.236-2.237-2.236zm16.344 4.473a2.237 2.237 0 10-.001-4.473 2.237 2.237 0 00.001 4.473z" fill="#fff"/><path d="M225.723 479.311l-4.129-.172 1.032-18.581c.688-12.731 11.527-23.054 24.258-23.054 6.194 0 11.871 2.409 16 6.882s6.366 10.151 6.022 16.344l-1.033 18.581-4.129-.172 1.033-18.581c.344-4.989-1.377-9.806-4.818-13.419-3.441-3.613-8.086-5.506-13.075-5.506-10.495 0-19.613 8.603-20.129 19.097l-1.032 18.581z" fill="#263238"/><path d="M313.98 470.881H192.346l-4.129 144.344 18.064-4.129 18.065 4.129h93.763l-4.129-144.344z" fill="#407BFF"/><path opacity=".6" d="M313.98 470.881H192.346l-4.129 144.344 18.064-4.129 18.065 4.129h93.763l-4.129-144.344z" fill="#fff"/><path d="M224.346 615.225l-18.065-4.129-18.064 4.129 4.129-144.344h27.871l4.129 144.344z" fill="#407BFF"/><path opacity=".3" d="M224.346 615.225l-18.065-4.129-18.064 4.129 4.129-144.344h27.871l4.129 144.344z" fill="#fff"/><path d="M288.173 479.311l-1.032-18.581c-.517-10.494-9.635-19.097-20.129-19.097-4.99 0-9.635 1.893-13.076 5.506-3.441 3.613-5.161 8.258-4.817 13.419l1.032 18.581-4.129.172-1.032-18.581c-.344-6.193 1.72-12.043 6.022-16.344 4.129-4.301 9.806-6.882 16-6.882 12.731 0 23.569 10.323 24.258 23.054l1.032 18.581-4.129.172z" fill="#263238"/><path d="M288.173 479.311l-1.032-18.581c-.517-10.494-9.635-19.097-20.129-19.097-4.99 0-9.635 1.893-13.076 5.506-3.441 3.613-5.161 8.258-4.817 13.419l1.032 18.581-4.129.172-1.032-18.581c-.344-6.193 1.72-12.043 6.022-16.344 4.129-4.301 9.806-6.882 16-6.882 12.731 0 23.569 10.323 24.258 23.054l1.032 18.581-4.129.172z" fill="#fff" opacity=".2"/><path d="M297.466 537.462h-56.602c-1.205 0-2.237-1.032-2.237-2.237v-9.118c0-1.204 1.032-2.236 2.237-2.236h56.602c1.204 0 2.236 1.032 2.236 2.236v9.118c.172 1.033-.86 2.237-2.236 2.237z" fill="#fff"/><path d="M169.805 524.042l-2.752-.172.688-12.559c.516-8.43 7.742-15.484 16.172-15.484 4.129 0 7.914 1.548 10.839 4.473 2.752 2.925 4.129 6.882 3.957 11.011l-.689 12.559-2.752-.172.688-12.559c.172-3.441-1.032-6.538-3.269-8.946-2.236-2.409-5.333-3.613-8.774-3.613-7.054 0-13.075 5.677-13.419 12.731l-.689 12.731z" fill="#263238"/><path d="M228.989 518.537H147.44l-2.752 96.688 12.215-2.752 12.043 2.752h62.795l-2.752-96.688z" fill="#407BFF"/><path d="M168.946 615.225l-12.043-2.752-12.215 2.752 2.752-96.688h18.753l2.753 96.688z" fill="#407BFF"/><path opacity=".2" d="M168.946 615.225l-12.043-2.752-12.215 2.752 2.752-96.688h18.753l2.753 96.688z" fill="#000"/><path d="M211.783 524.042l-.688-12.559c-.344-7.054-6.366-12.731-13.42-12.731a12.346 12.346 0 00-8.774 3.613c-2.236 2.408-3.441 5.505-3.269 8.946l.688 12.559-2.752.172-.688-12.559c-.172-4.129 1.204-8.086 3.957-11.011 2.752-2.925 6.537-4.473 10.838-4.473 8.43 0 15.828 6.882 16.172 15.484l.689 12.559h-2.753z" fill="#263238"/><path d="M211.783 524.042l-.688-12.559c-.344-7.054-6.366-12.731-13.42-12.731a12.346 12.346 0 00-8.774 3.613c-2.236 2.408-3.441 5.505-3.269 8.946l.688 12.559-2.752.172-.688-12.559c-.172-4.129 1.204-8.086 3.957-11.011 2.752-2.925 6.537-4.473 10.838-4.473 8.43 0 15.828 6.882 16.172 15.484l.689 12.559h-2.753z" fill="#fff" opacity=".2"/><path d="M217.292 563.096H180.99c-1.204 0-2.236-1.032-2.236-2.237v-4.645c0-1.204 1.032-2.236 2.236-2.236h36.302c1.204 0 2.236 1.032 2.236 2.236v4.645c0 1.205-1.032 2.237-2.236 2.237z" fill="#fff"/><path d="M295.401 605.764l-13.075-1.376.516-30.624 13.248 1.376-.689 30.624zm110.794-43.871l-11.871 6.021-17.549-25.29 11.699-6.021 17.721 25.29z" fill="#B55B52"/><path d="M391.915 566.194l12.043-8.603c.516-.344 1.032-.344 1.376.172l8.086 8.603c.861.86.689 2.408-.344 3.096-4.301 2.925-6.365 4.129-11.699 7.914-3.268 2.409-7.742 6.022-12.215 9.291-4.473 3.096-7.914-1.033-6.365-2.753 7.053-7.742 6.709-11.183 7.742-15.656.344-.86.86-1.548 1.376-2.064zm-110.794 36.473l14.796 1.548c.516 0 .86.517 1.032 1.033l.517 11.871c0 1.204-1.033 2.236-2.409 2.064-5.161-.688-7.57-1.204-14.108-1.892-3.957-.344-15.483-1.205-20.989-1.721-5.333-.516-5.161-6.021-2.925-6.365 10.495-1.205 18.065-3.441 21.85-6.022.688-.344 1.548-.516 2.236-.516z" fill="#263238"/><path d="M282.842 573.764l-.172 15.828 13.075 1.376.344-15.828-13.247-1.376zm105.632-37.161l-11.699 6.021 9.119 13.075 11.699-6.021-9.119-13.075z" opacity=".2" fill="#000"/><path d="M289.208 309.506s-13.592 100.989-13.936 141.247c-.344 41.807 4.818 135.57 4.818 135.57l17.72 1.893s7.226-92.215 9.978-133.162c3.097-44.559 20.474-144.172 20.474-144.172l-39.054-1.376z" fill="#263238"/><path d="M299.185 588.903l-20.645-2.236-.86-6.71 23.398 1.548-1.893 7.398z" fill="#407BFF"/><path opacity=".6" d="M311.401 335.484c-13.935 25.978-4.989 74.495-.86 92.559 3.269-26.839 8.258-59.527 12.215-83.613-1.549-13.763-4.817-20.989-11.355-8.946z" fill="#000"/><path d="M303.314 310.021s8.775 105.807 16.861 139.871c9.634 40.431 61.591 104.431 61.591 104.431l16-8.086s-35.097-71.054-42.839-92.56c-16.344-45.763 1.033-112.516-12.215-142.451l-39.398-1.205z" fill="#263238"/><path d="M400.003 546.065l-19.957 10.15-5.333-5.161 22.882-12.903 2.408 7.914zm-12.734 25.634c-.688 0-1.204-.516-1.548-1.032-.172-.516-.172-.86 0-1.033.86-1.376 5.677-1.72 6.193-1.72.172 0 .172 0 .344.172v.344c-1.204 1.204-3.268 3.269-4.989 3.269zm3.957-3.269c-1.892.172-4.473.516-4.817 1.377 0 .172-.172.172 0 .516.172.516.516.688.86.688.86.172 2.409-.86 3.957-2.581z" fill="#407BFF"/><path d="M391.573 568.43c-1.721 0-4.645-.86-5.162-2.236-.172-.344-.172-.861.345-1.377.344-.344.86-.516 1.376-.344 1.892.172 4.129 3.269 4.129 3.441v.344c0 .172-.172.172-.172.172h-.516zm-3.785-3.269c-.344 0-.516 0-.688.345-.344.344-.344.516-.172.516.344.86 2.752 1.72 4.473 1.72-.86-.86-2.409-2.409-3.613-2.581 0 0 .172 0 0 0zM275.96 604.56c-1.377-.172-2.409-.516-3.097-1.205-.344-.344-.516-1.032-.344-1.548 0-.344.344-.688.688-.688 1.72-.688 6.71 2.58 7.226 2.925.172 0 .172.172.172.344s-.172.172-.344.172c-1.205 0-2.753.172-4.301 0zm-2.065-2.925h-.516c-.172 0-.172.172-.172.344 0 .344 0 .688.172 1.032.688.861 2.925 1.205 5.849 1.033-1.72-1.205-3.957-2.409-5.333-2.409z" fill="#407BFF"/><path d="M280.088 604.559s0-.172 0 0c-1.549-.86-4.474-4.129-3.957-5.505.172-.344.344-.688 1.204-.688.688 0 1.204.172 1.72.688 1.549 1.548 1.377 5.161 1.377 5.333 0 .172 0 .172-.172.344 0-.172 0-.172-.172-.172zm-2.581-5.677h-.172c-.516 0-.688.172-.688.344-.172.86 1.548 3.269 3.097 4.473 0-1.032-.345-3.269-1.205-4.129-.344-.516-.516-.688-1.032-.688z" fill="#407BFF"/><path d="M283.528 255.828c-4.989 6.537-10.151 12.387-16.344 18.064-3.097 2.753-6.366 5.505-10.323 7.914-2.064 1.204-4.129 2.237-7.054 3.097-1.376.344-2.924.688-4.817.688-.86 0-1.892-.172-2.925-.344l-1.548-.516c-.516-.172-.86-.344-1.72-.688a8.128 8.128 0 01-3.097-2.753c-.688-.86-1.204-1.893-1.549-2.581-.688-1.72-1.032-3.097-1.204-4.301a31.399 31.399 0 01-.172-6.882c.172-4.301.86-8.258 1.721-12.215 1.548-7.914 3.785-15.311 6.537-22.881l7.054 1.892a532.445 532.445 0 00-2.581 22.538c-.344 3.613-.344 7.398-.344 10.839 0 1.72.172 3.268.516 4.473.172.516.344 1.032.516 1.204.173.172 0-.344-1.032-1.032-.344-.172-.172-.172-.344-.172h-.172c.172 0 .516-.172.86-.344a17.84 17.84 0 003.441-1.893c2.581-1.72 5.161-4.129 7.742-6.538 2.581-2.408 4.989-5.161 7.398-7.914 2.409-2.752 4.817-5.677 7.054-8.43l12.387 8.775z" fill="#B55B52"/><path d="M280.605 236.903c-5.333-1.548-21.334 18.925-21.334 18.925l15.312 17.032s17.893-16.172 17.205-23.397c-.689-7.57-3.269-10.323-11.183-12.56z" fill="#407BFF"/><path d="M248.43 232.258l-.516-10.666-10.322 8.43s1.548 8.258 6.709 9.978l3.269-4.473c.688-1.032 1.033-2.236.86-3.269zm-7.225-19.613l-8.258 7.57 4.645 9.806 10.323-8.602-6.71-8.774z" fill="#B55B52"/><path d="M236.905 233.463l-2.408-.86c-1.377-.517-2.065-1.893-1.893-3.269l3.613-19.269 6.538 2.409-2.065 18.58c0 1.893-1.892 3.097-3.785 2.409zm17.206-24.602c.344-1.032.86-2.237 1.204-3.269-1.032-1.892-3.097-3.957-5.849-5.849a138.273 138.273 0 00-2.581 6.709c-.86 2.237-1.548 4.473-2.237 6.71 3.269.172 6.194 0 8.259-.86a27.37 27.37 0 001.204-3.441z" fill="#263238"/><path d="M249.81 207.313c1.204-3.097 1.892-6.022 2.236-8.259l-21.333-7.742-5.85 16.001 21.334 7.741c1.204-1.892 2.58-4.645 3.613-7.741z" fill="#407BFF"/><path opacity=".6" d="M249.81 207.313c1.204-3.097 1.892-6.022 2.236-8.259l-21.333-7.742-5.85 16.001 21.334 7.741c1.204-1.892 2.58-4.645 3.613-7.741z" fill="#fff"/><path d="M236.218 191.829c-1.032-.344-24.086-24.086-26.667-25.119-2.752-1.032-8.774 8.43-13.419 20.99-4.645 12.559-6.022 23.742-3.269 24.774 2.581 1.032 35.613-2.409 36.473-2.065 1.205.344 3.613-3.441 5.506-8.602 1.892-5.161 2.58-9.634 1.376-9.978z" fill="#407BFF"/><path opacity=".4" d="M236.218 191.829c-1.032-.344-24.086-24.086-26.667-25.119-2.752-1.032-8.774 8.43-13.419 20.99-4.645 12.559-6.022 23.742-3.269 24.774 2.581 1.032 35.613-2.409 36.473-2.065 1.205.344 3.613-3.441 5.506-8.602 1.892-5.161 2.58-9.634 1.376-9.978z" fill="#fff"/><path d="M206.282 191.484c-4.645 12.732-10.666 22.022-13.419 20.99-2.753-1.033-1.376-12.043 3.269-24.775 4.645-12.731 10.667-22.021 13.419-20.989 2.753 1.032 1.377 12.043-3.269 24.774z" fill="#407BFF"/><path d="M199.399 189.076c-.344.86-.516 1.72-.86 2.408 1.032 1.549 3.097 3.269 5.677 4.99.689-1.549 1.377-3.269 1.893-4.99.688-1.72 1.204-3.44 1.72-4.989-3.096-.344-5.677-.344-7.57.172-.172.688-.516 1.549-.86 2.409z" fill="#263238"/><path opacity=".7" d="M199.399 189.076c-.344.86-.516 1.72-.86 2.408 1.032 1.549 3.097 3.269 5.677 4.99.689-1.549 1.377-3.269 1.893-4.99.688-1.72 1.204-3.44 1.72-4.989-3.096-.344-5.677-.344-7.57.172-.172.688-.516 1.549-.86 2.409z" fill="#fff"/><path opacity=".2" d="M276.131 248.946c.86 11.355-1.893 18.237-3.785 21.505l2.236 2.409s10.151-9.118 14.796-16.688c-5.333-7.914-14.108-19.269-13.247-7.226z" fill="#000"/><path d="M336.345 183.742c7.126 0 12.903-5.777 12.903-12.903s-5.777-12.903-12.903-12.903c-7.127 0-12.904 5.777-12.904 12.903s5.777 12.903 12.904 12.903z" fill="#263238"/><path d="M334.971 176.689a8.077 8.077 0 01-8.086 8.086 8.077 8.077 0 01-8.086-8.086 8.076 8.076 0 018.086-8.086c4.301 0 8.086 3.612 8.086 8.086z" fill="#407BFF"/><path d="M300.734 166.538s-17.205-1.377-17.205 28.215c0 20.301 9.807 29.591 21.85 22.882 0 0 26.666-2.237 29.591-26.495 3.269-24.43-15.484-33.376-34.236-24.602z" fill="#263238"/><path d="M277.165 237.763s-6.022 2.581 12.043 78.796c21.161-1.548 43.01-3.097 53.333-3.957-2.409-21.677-3.441-35.097 3.613-80.344 0 0-11.355-1.549-22.882-1.376-8.946.172-16.344.516-24.258 1.72-10.323 1.892-21.849 5.161-21.849 5.161z" fill="#407BFF"/><path d="M318.97 203.872c-1.032 7.914-1.376 22.365 4.301 27.01 0 0-1.548 8.086-16 9.119-16 1.204-8.258-7.398-8.258-7.398 8.602-2.753 7.914-9.119 5.85-15.14l14.107-13.591z" fill="#B55B52"/><path opacity=".2" d="M313.293 209.548l-8.258 8.086c.516 1.377.86 2.753 1.032 4.301 3.269-.688 7.57-4.645 7.742-8.258 0-1.72-.172-3.44-.516-4.129z" fill="#000"/><path d="M327.916 190.796c-2.924 12.731-3.957 18.237-11.526 23.742-11.527 8.258-26.495 1.893-27.355-11.527-.86-12.043 4.301-30.795 17.72-33.72 13.075-3.097 24.086 8.774 21.161 21.505z" fill="#B55B52"/><path d="M305.894 190.624c-.172 1.032-.86 1.72-1.549 1.72-.688-.172-1.032-1.032-.86-2.064.172-1.033.86-1.721 1.549-1.721.688 0 1.032 1.032.86 2.065zm-11.871-2.065c-.172 1.032-.86 1.721-1.549 1.721-.688-.172-1.032-1.033-.86-2.065.172-1.032.86-1.72 1.549-1.72.688.172 1.032 1.032.86 2.064z" fill="#263238"/><path d="M293.508 186.667l-2.408-1.205s.86 2.237 2.408 1.205z" fill="#263238"/><path d="M298.327 191.14s-2.581 4.129-4.817 6.021c1.204 1.549 3.613 1.376 3.613 1.376l1.204-7.397z" fill="#A02724"/><path d="M329.293 203.011c-1.376 2.408-3.613 3.785-5.849 4.473-3.269.86-4.818-2.065-3.785-5.162.86-2.752 3.613-6.365 6.881-5.849 3.097.516 4.302 3.957 2.753 6.538z" fill="#B55B52"/><path d="M311.057 189.075c-.344 0-.516-.172-.516-.516-.86-2.752-4.301-3.957-4.473-3.957-.344-.172-.516-.516-.344-.86.172-.344.516-.516.86-.344.172 0 4.129 1.376 5.161 4.817.172.344 0 .688-.344.86h-.344zm-19.614-6.537c-.172 0-.344-.172-.516-.344-.172-.344 0-.689.172-.861 2.924-1.72 5.505-.516 5.677-.344.344.172.344.516.344.861-.172.344-.516.344-.86.344 0 0-2.064-1.033-4.473.344h-.344zm13.936 6.021l-2.408-1.204c0 .172.86 2.237 2.408 1.204zm-7.397 13.248s3.441-1.032 13.248-1.376c-1.033 2.924-3.097 5.505-8.086 5.677-4.99.172-5.162-4.301-5.162-4.301z" fill="#263238"/><path d="M305.554 203.527c-2.409.172-4.129.688-5.333 1.72.688.516 1.72.86 3.269.688 2.408-.172 4.129-.688 5.333-1.72-.86-.344-1.893-.688-3.269-.688z" fill="#A02724"/><path d="M298.5 201.635c.344.688.688 1.204 1.548 1.376 2.065 0 7.226-.86 8.603-1.204.86-.172 1.72-.516 2.064-1.549-7.398.516-11.011 1.033-12.215 1.377z" fill="#fff"/><path d="M291.1 181.334s6.537-2.753 9.806-7.742c0 0 0 9.118 3.785 8.43 3.613-.688-1.892-8.43-1.892-8.43s8.602 3.785 11.526 11.354c2.925 7.398 6.366 15.656 12.904 13.592 6.709-2.065 5.161-23.226-4.646-28.387l-13.763-2.409-4.129.516c-2.064.344-4.129 1.033-5.849 2.065-2.753 1.72-4.818 4.129-6.194 7.054l-1.548 3.957z" fill="#263238"/><path d="M323.272 182.538c-.688-1.377-3.613-1.205-6.881.172-3.097 1.548-3.269 2.924-2.581 4.129.688 1.376 1.72 2.064 4.989.688 3.097-1.376 5.162-3.785 4.473-4.989zm-7.397 3.441c-.517-1.033-.345-1.893 1.892-3.097 2.237-1.033 4.473-1.205 4.817-.172.516 1.032-1.032 2.58-3.269 3.613-2.064 1.204-2.924.516-3.44-.344z" fill="#407BFF"/><path opacity=".2" d="M340.303 249.978l-4.129-3.44-2.925 1.376s-2.408 14.796 7.57 29.935c.344-5.677.861-12.215 1.721-19.957-1.205-4.473-2.237-7.914-2.237-7.914z" fill="#000"/><path d="M394.84 291.784l-2.236.173-1.033-9.807c-.688-6.71 4.129-13.075 10.839-14.107 3.269-.517 6.366.344 8.946 2.236 2.581 1.893 4.129 4.817 4.473 8.086l1.033 9.807-2.237.172-1.032-9.807c-.344-2.753-1.549-4.989-3.613-6.537-2.065-1.549-4.645-2.237-7.398-1.893-5.505.86-9.462 6.194-8.946 11.699l1.204 9.978z" fill="#263238"/><path d="M354.24 247.742c.345 1.549.689 3.269 1.033 4.989.344 1.721.86 3.441 1.376 5.162 1.032 3.441 1.893 6.709 3.269 9.978 2.409 6.538 5.333 12.731 9.29 17.721l.344.516.172.172-.172-.172c-.344-.344-.688-.516-.86-.516-.516-.172-.516 0-.172 0 .688 0 2.065-.344 3.613-.689 2.925-1.032 6.194-2.58 9.29-4.301 6.194-3.44 12.559-7.397 18.753-11.354l4.817 5.677c-5.333 5.505-11.011 10.667-17.376 15.312-3.269 2.236-6.538 4.473-10.495 6.365-2.064.861-4.129 1.721-7.226 2.237-1.548.172-3.44.172-5.677-.688-1.204-.344-2.237-1.032-3.269-2.065l-.688-.688-.344-.344-.516-.516c-2.925-3.269-5.334-6.71-7.398-10.151-2.065-3.613-3.785-7.225-5.333-10.838-1.549-3.785-2.753-7.398-3.957-11.183l-1.549-5.678c-.516-1.892-.86-3.785-1.204-6.021l14.279-2.925z" fill="#B55B52"/><path d="M346.155 232.258c5.505 1.205 14.967 20.99 14.967 20.99l-21.505 14.451s-8.602-14.795-6.882-21.849c1.893-7.226 7.226-14.968 13.42-13.592z" fill="#407BFF"/><path d="M398.971 269.076l12.387-6.882-2.581 13.075s-8.086 2.581-12.043-1.204l2.237-4.989zm23.398-4.989l-2.753 10.838-10.839.516 2.581-13.075 11.011 1.721z" fill="#B55B52"/><path d="M427.527 286.624l-2.064-9.635c-1.204-5.505-6.538-9.29-12.215-8.43-2.581.344-4.989 1.893-6.366 3.957-1.548 2.237-2.064 4.818-1.376 7.398l2.064 9.635-2.064.516-2.065-9.635c-.688-3.269 0-6.537 1.721-9.118 1.892-2.581 4.645-4.473 7.914-4.817 6.71-1.032 13.247 3.441 14.624 9.978l2.064 9.635-2.237.516z" fill="#263238"/><path d="M427.527 286.624l-2.064-9.635c-1.204-5.505-6.538-9.29-12.215-8.43-2.581.344-4.989 1.893-6.366 3.957-1.548 2.237-2.064 4.818-1.376 7.398l2.064 9.635-2.064.516-2.065-9.635c-.688-3.269 0-6.537 1.721-9.118 1.892-2.581 4.645-4.473 7.914-4.817 6.71-1.032 13.247 3.441 14.624 9.978l2.064 9.635-2.237.516z" fill="#fff" opacity=".3"/><path d="M440.431 280.258l-63.827 9.979 9.806 76.043 9.118-3.613 9.807.688 49.204-7.742-14.108-75.355z" fill="#407BFF"/><path opacity=".6" d="M440.431 280.258l-63.827 9.979 9.806 76.043 9.118-3.613 9.807.688 49.204-7.742-14.108-75.355z" fill="#fff"/><path d="M405.335 363.355l-9.807-.688-9.118 3.613-9.806-76.043L391.227 288l14.108 75.355z" fill="#407BFF"/><path opacity=".3" d="M405.335 363.355l-9.807-.688-9.118 3.613-9.806-76.043L391.227 288l14.108 75.355z" fill="#fff"/><path d="M434.925 318.28l-26.322 4.129c-1.377.172-2.753-.688-2.925-2.237V320c-.172-1.376.688-2.752 2.237-2.924l26.322-4.129c1.376-.173 2.753.688 2.925 2.236v.172c.172 1.376-.688 2.753-2.237 2.925z" fill="#fff"/></svg>