<svg width="642" height="640" fill="none" xmlns="http://www.w3.org/2000/svg"><path d="M607.459 432.368C545.953 577.196 382.084 658.35 239.983 636.465c-23.121-3.566-86.515-14.17-142.637-64.21-108.05-96.35-131.147-287.138-44.003-421.595C116.784 52.796 230.474-2.674 338.523.1c23.284.605 112.455 4.288 190.859 68.917 11.513 9.486 36.894 32.047 59.782 67.846 53.768 84.044 58.383 201.113 18.295 295.505z" fill="url(#paint0_linear_1119_6714)"/><path d="M162.604 214.638a2.762 2.762 0 01-1.631 3.332 115.789 115.789 0 01-8.95 3.17c-1.468.443-3.03-.373-3.472-1.841 0-.023 0-.047-.024-.047-.419-1.445.42-2.983 1.865-3.426a108.44 108.44 0 008.507-3.006 2.763 2.763 0 013.612 1.538c.047.093.07.186.093.28zm-23.353 6.479c.023.093.047.21.07.326.256 1.515-.792 2.937-2.307 3.193-3.123.513-6.293.886-9.416 1.119a2.773 2.773 0 01-2.983-2.564 2.772 2.772 0 012.563-2.983c2.984-.233 5.99-.583 8.95-1.049a2.789 2.789 0 013.123 1.958zm-24.215 1.165c.093.303.116.606.093.932a2.757 2.757 0 01-2.96 2.588c-3.147-.21-6.316-.537-9.439-1.026a2.787 2.787 0 01-2.331-3.17 2.786 2.786 0 013.17-2.33 104.7 104.7 0 008.949.955 2.915 2.915 0 012.518 2.051zm-23.867-4.265c.14.49.14 1.026 0 1.562a2.784 2.784 0 01-3.472 1.864 109.957 109.957 0 01-8.973-3.1c-1.422-.559-2.121-2.19-1.562-3.612.56-1.422 2.191-2.121 3.613-1.562a96.617 96.617 0 008.53 2.937 2.836 2.836 0 011.864 1.911zm-22.327-9.486a2.83 2.83 0 01-.257 2.121 2.78 2.78 0 01-3.799 1.049c-2.75-1.538-5.453-3.24-8.064-5.011a2.753 2.753 0 01-.722-3.869 2.773 2.773 0 013.869-.722 99.915 99.915 0 007.668 4.754c.652.396 1.118 1.002 1.305 1.678zM49.17 194.338a2.825 2.825 0 01-.606 2.633 2.775 2.775 0 01-3.939.187 114.13 114.13 0 01-6.759-6.666c-1.049-1.119-.979-2.89.14-3.939s2.89-.979 3.939.14a109.425 109.425 0 006.41 6.339c.419.373.698.816.815 1.306zM14.84 98.081c.116.373.139.769.069 1.165-.443 2.96-.77 5.967-.956 8.973a2.791 2.791 0 11-5.57-.349c.187-3.147.536-6.34 1.002-9.44a2.787 2.787 0 013.17-2.33 2.7 2.7 0 012.284 1.98zm18.318 78.077a2.803 2.803 0 01-1.072 3.053c-1.259.886-3.007.583-3.869-.675a119.018 119.018 0 01-5.104-7.995c-.77-1.328-.303-3.029 1.025-3.799a2.784 2.784 0 013.8 1.026 99.698 99.698 0 004.847 7.598c.163.21.303.513.373.792zm-19.181-53.861c.046.186.093.349.093.559.233 2.983.583 5.99 1.072 8.95.256 1.515-.792 2.936-2.307 3.193a2.76 2.76 0 01-3.193-2.308 117.826 117.826 0 01-1.142-9.416 2.773 2.773 0 012.563-2.983c1.352-.093 2.564.769 2.914 2.005zm7.621 32.559a2.764 2.764 0 01-1.631 3.333c-1.422.582-3.054-.117-3.636-1.538a107.25 107.25 0 01-3.17-8.95c0-.023-.023-.047-.023-.047a2.774 2.774 0 011.864-3.426c1.468-.443 3.03.373 3.473 1.841a99.274 99.274 0 003.03 8.484c.046.117.07.21.093.303zm-2.121-75.77c.14.536.14 1.095-.047 1.655a122.41 122.41 0 00-1.328 4.125 2.784 2.784 0 01-3.473 1.864 2.784 2.784 0 01-1.864-3.472c.443-1.445.909-2.914 1.398-4.335a2.775 2.775 0 013.543-1.725c.886.326 1.538 1.049 1.771 1.888zm56.66-63.185a2.78 2.78 0 01-1.492 3.286 121.86 121.86 0 00-3.892 1.911c-1.375.7-3.053.164-3.752-1.188-.7-1.375-.164-3.053 1.188-3.753a133.97 133.97 0 014.102-2.027 2.786 2.786 0 013.706 1.351l.14.42zm150.141 68.382c.35 1.235.676 2.47 1.002 3.729a2.789 2.789 0 01-2.027 3.38 2.79 2.79 0 01-3.38-2.028 108.374 108.374 0 00-2.494-8.507 2.762 2.762 0 011.748-3.52 2.763 2.763 0 013.52 1.748c.582 1.679 1.118 3.45 1.631 5.198zm3.543 18.202c.046.14.07.303.093.467.326 3.076.536 6.222.629 9.322a2.767 2.767 0 01-2.703 2.844c-1.539.046-2.821-1.189-2.844-2.704a112.94 112.94 0 00-.582-8.856c-.164-1.539.932-2.891 2.47-3.077 1.329-.163 2.587.723 2.937 2.004zm-10.838-36.94c.35 1.258-.21 2.633-1.422 3.239a2.76 2.76 0 01-3.729-1.235 100.739 100.739 0 00-4.288-7.762c-.793-1.305-.396-3.03.932-3.822 1.305-.792 3.03-.396 3.822.932a116.107 116.107 0 014.522 8.158c.047.163.116.326.163.49zm10.814 60.806c.094.35.14.7.094 1.073-.35 3.076-.839 6.199-1.445 9.229a2.79 2.79 0 01-3.287 2.191 2.79 2.79 0 01-2.191-3.286c.583-2.89 1.049-5.827 1.376-8.764a2.761 2.761 0 013.076-2.447c1.165.117 2.074.956 2.377 2.004zm-23.772-80.827a2.765 2.765 0 01-.909 2.913c-1.189.98-2.937.793-3.916-.396a105.595 105.595 0 00-5.897-6.62 2.773 2.773 0 01.07-3.938 2.772 2.772 0 013.939.07 109.333 109.333 0 016.2 6.969c.233.303.419.652.513 1.002zm-17.038-16.688c.233.84.094 1.748-.489 2.47a2.784 2.784 0 01-3.916.467 109.902 109.902 0 00-7.201-5.174c-1.282-.84-1.655-2.564-.793-3.846a2.778 2.778 0 013.846-.792 109.206 109.206 0 017.574 5.454c.49.373.816.885.979 1.421zm-20.276-12.562a2.73 2.73 0 01-.164 1.958 2.753 2.753 0 01-3.705 1.305 104.709 104.709 0 00-8.158-3.496 2.756 2.756 0 01-1.608-3.59 2.755 2.755 0 013.589-1.607 115.19 115.19 0 018.577 3.659 2.907 2.907 0 011.469 1.771zM146.173 8.42c.116.442.14.909.047 1.375a2.811 2.811 0 01-3.333 2.097 110.331 110.331 0 00-8.717-1.608 2.802 2.802 0 01-2.377-3.146 2.801 2.801 0 013.146-2.378c3.077.443 6.153 1.003 9.183 1.702 1.025.233 1.771 1.002 2.051 1.958zm-23.726-2.727c.07.256.116.512.116.769 0 1.538-1.258 2.773-2.797 2.773-2.936 0-5.919.117-8.856.35a2.807 2.807 0 01-3.007-2.54 2.807 2.807 0 012.541-3.007c3.1-.256 6.223-.373 9.322-.373 1.282.023 2.354.862 2.681 2.028zM98.744 8.256c.023.047.023.117.046.164a2.79 2.79 0 01-2.12 3.31 100.963 100.963 0 00-6.34 1.607 83.1 83.1 0 00-2.26.676c-1.469.443-3.03-.373-3.473-1.841-.49-1.468.373-3.03 1.84-3.473C87.23 8.466 88 8.233 88.816 8a106.3 106.3 0 016.666-1.678c1.422-.326 2.843.536 3.263 1.934zm125.717 141.426c.163.536.14 1.119-.046 1.678a107.076 107.076 0 01-1.585 4.288c-.56 1.422-2.191 2.121-3.613 1.562-1.421-.559-2.121-2.191-1.561-3.613a96.125 96.125 0 001.515-4.055 2.812 2.812 0 013.542-1.725 2.741 2.741 0 011.748 1.865z" opacity=".3" fill="#91B3FA"/><path d="M192.39 154.926a1.294 1.294 0 00-.023-1.515l-9.323-12.796a69.474 69.474 0 004.801-21.815l13.821-7.714c.49-.28.746-.816.653-1.375l-3.333-18.692c-.093-.536-.536-.98-1.072-1.05l-15.639-2.446a68.784 68.784 0 00-12.049-18.809l4.311-15.242a1.307 1.307 0 00-.512-1.422l-15.593-10.861a1.295 1.295 0 00-1.515.023l-12.795 9.323a69.491 69.491 0 00-21.815-4.801l-7.714-13.798a1.317 1.317 0 00-1.376-.652l-18.692 3.332c-.536.094-.978.537-1.048 1.072l-2.448 15.64a68.796 68.796 0 00-18.808 12.049l-15.243-4.312a1.308 1.308 0 00-1.421.513L44.696 75.17a1.294 1.294 0 00.023 1.515l9.323 12.795a69.494 69.494 0 00-4.801 21.815l-13.798 7.692c-.49.279-.746.815-.653 1.375l3.333 18.692c.094.536.536.979 1.072 1.049l15.64 2.447a68.788 68.788 0 0012.049 18.808l-4.312 15.243c-.163.536.047 1.095.513 1.422l15.592 10.86a1.294 1.294 0 001.515-.023l12.795-9.323a69.505 69.505 0 0021.815 4.802l7.715 13.82c.279.49.816.746 1.375.653l18.692-3.333c.536-.093.979-.536 1.049-1.072l2.447-15.639a68.775 68.775 0 0018.808-12.049l15.243 4.311c.536.164 1.095-.046 1.422-.512l10.837-15.592z" fill="#91B3FA"/><path d="M136.896 109.804c2.54 8.95-1.771 18.692-10.511 22.631-9.603 4.335-20.93.046-25.265-9.533-2.097-4.638-2.26-9.835-.466-14.613 1.795-4.778 5.361-8.553 9.999-10.651 9.602-4.335 20.929-.047 25.264 9.532.42.886.746 1.748.979 2.634zm-32.443 9.206c.186.699.443 1.375.746 2.028 3.309 7.365 12.003 10.628 19.368 7.318 7.365-3.309 10.651-12.003 7.318-19.368-3.31-7.365-12.003-10.628-19.368-7.318-3.566 1.608-6.293 4.498-7.668 8.157-1.118 3.007-1.258 6.2-.396 9.183z" fill="#BDD0FB"/><path d="M163.328 101.88a50.79 50.79 0 011.095 4.708c.094.512.164 1.002.257 1.515.373 2.493.536 5.01.489 7.504v.373c0 .187 0 .373-.023.56-.023.489-.35.909-.816 1.025-.116.023-.233.047-.349.047a1.114 1.114 0 01-1.072-1.142 44.681 44.681 0 00-.676-9.486c-2.774-15.592-13.402-27.875-27.059-33.492-7.598-3.123-16.152-4.218-24.822-2.657-1.515.28-3.007.63-4.475 1.026-9.859 2.82-18.389 8.88-24.332 17.41-6.829 9.788-9.44 21.675-7.342 33.422 4.335 24.285 27.619 40.483 51.881 36.148a40.68 40.68 0 004.428-1.025 44.484 44.484 0 0017.061-9.253c.116-.117.279-.187.419-.233.396-.117.863 0 1.142.349.397.467.35 1.166-.116 1.562a46.685 46.685 0 01-17.923 9.719 44.68 44.68 0 01-4.638 1.072c-25.474 4.545-49.923-12.469-54.468-37.943-2.214-12.353.536-24.799 7.691-35.1 6.247-8.95 15.196-15.336 25.545-18.273a51.236 51.236 0 014.707-1.095c12.353-2.214 24.799.536 35.1 7.691 8.95 6.246 15.336 15.196 18.296 25.568z" fill="#BDD0FB"/><path d="M52.689 368.437a2 2 0 01-2.354-.116 85.748 85.748 0 01-3.753-3.333 1.978 1.978 0 01-.093-2.774 1.978 1.978 0 012.774-.093 78.027 78.027 0 003.589 3.17c.839.699.932 1.934.256 2.75-.116.163-.256.28-.42.396zm-10.651-10.674a1.95 1.95 0 01-2.587-.373c-1.818-2.214-3.566-4.522-5.15-6.899-.327-.489-.677-1.002-1.003-1.515-.583-.909-.256-2.121.583-2.703a1.956 1.956 0 012.703.582c.303.49.63.979.956 1.445a83.473 83.473 0 004.918 6.596 1.934 1.934 0 01-.257 2.75c-.046.047-.116.07-.163.117zm-10.977-17.131c-.07.047-.163.094-.233.14a1.968 1.968 0 01-2.61-.909c-1.516-3.123-2.82-6.386-3.94-9.672a1.972 1.972 0 011.236-2.494 1.972 1.972 0 012.494 1.235 78.565 78.565 0 003.752 9.206c.396.909.093 1.958-.7 2.494zm-6.48-19.298c-.21.14-.442.233-.699.303a1.949 1.949 0 01-2.307-1.538c-.7-3.403-1.165-6.875-1.445-10.348a1.941 1.941 0 011.794-2.098 1.941 1.941 0 012.098 1.795 82.234 82.234 0 001.375 9.859 1.967 1.967 0 01-.816 2.027zm-1.561-20.276a1.874 1.874 0 01-1.189.326c-1.072-.047-1.91-.979-1.864-2.051a81.134 81.134 0 011.142-10.372c.186-1.072 1.212-1.771 2.26-1.608a1.974 1.974 0 011.609 2.261 78.119 78.119 0 00-1.073 9.882 2.11 2.11 0 01-.885 1.562zm3.45-20.068c-.467.327-1.073.42-1.655.257a1.95 1.95 0 01-1.306-2.447 86.453 86.453 0 013.613-9.789 1.946 1.946 0 012.587-1.002 1.946 1.946 0 011.002 2.587 82.828 82.828 0 00-3.45 9.322c-.14.467-.419.839-.792 1.072zm8.203-18.598a1.903 1.903 0 01-2.097.046 1.945 1.945 0 01-.676-2.68 80.213 80.213 0 015.896-8.6 1.966 1.966 0 012.75-.35 1.965 1.965 0 01.35 2.751 82.262 82.262 0 00-5.617 8.203 2.226 2.226 0 01-.606.63zm12.516-16.035a1.977 1.977 0 01-2.47-.233 1.956 1.956 0 010-2.774 85.129 85.129 0 017.83-6.899c.863-.652 2.098-.512 2.75.35a1.964 1.964 0 01-.349 2.75 79.999 79.999 0 00-7.458 6.573c-.093.07-.186.163-.303.233zm25.125-17.154a1.23 1.23 0 01-.303.163 77.323 77.323 0 00-7.715 3.916c-.373.209-.746.443-1.119.652-.932.56-2.144.257-2.68-.676-.56-.932-.256-2.167.676-2.68l1.189-.699a82.251 82.251 0 018.087-4.102 1.965 1.965 0 012.587 1.002 1.98 1.98 0 01-.722 2.424zm80.316 143.71a1.947 1.947 0 01-2.703-.513c-.606-.886-.397-2.121.489-2.727a80.094 80.094 0 007.715-6.036c.815-.699 2.051-.653 2.773.163a1.957 1.957 0 01-.163 2.773 83.14 83.14 0 01-8.111 6.34c.024 0 .024-.024 0 0zm-8.577 5.174c-.07.046-.116.07-.186.116a88.233 88.233 0 01-9.346 4.219c-1.002.373-2.144-.117-2.517-1.142-.396-1.002.14-2.144 1.142-2.541a84.98 84.98 0 008.926-4.032 1.968 1.968 0 012.657.816c.443.932.163 2.028-.676 2.564zm23.563-18.459a1.932 1.932 0 01-2.377-.163 1.958 1.958 0 01-.163-2.774 79.722 79.722 0 006.013-7.714c.629-.886 1.841-1.119 2.727-.513a1.975 1.975 0 01.513 2.727 87.78 87.78 0 01-6.316 8.087c-.14.164-.257.257-.397.35zm-42.278 25.567c-.186.117-.396.21-.629.28a82.51 82.51 0 01-10.092 1.841 1.931 1.931 0 01-2.168-1.724c-.116-1.072.63-2.051 1.725-2.168a83.241 83.241 0 009.626-1.748 1.975 1.975 0 012.377 1.445 1.95 1.95 0 01-.839 2.074zm53.605-42.068a1.934 1.934 0 01-2.004.116 1.962 1.962 0 01-.839-2.633 84.646 84.646 0 003.985-8.927 1.93 1.93 0 012.518-1.142c1.002.373 1.538 1.515 1.142 2.517-1.189 3.193-2.611 6.34-4.172 9.37-.14.279-.373.536-.63.699zm7.039-18.715a1.921 1.921 0 01-1.561.279 1.964 1.964 0 01-1.445-2.377 80.151 80.151 0 001.724-9.626c.117-1.072 1.096-1.841 2.168-1.724 1.072.116 1.841 1.095 1.724 2.167a82.594 82.594 0 01-1.817 10.092 1.951 1.951 0 01-.793 1.189zm2.331-19.881c-.303.21-.676.326-1.072.326a1.955 1.955 0 01-1.958-1.958c0-3.262-.21-6.549-.629-9.765a1.964 1.964 0 011.701-2.191 1.964 1.964 0 012.191 1.702c.419 3.379.652 6.828.652 10.254a1.95 1.95 0 01-.885 1.632zm-82.949 83.042a1.96 1.96 0 01-1.096.326c-1.678 0-3.356-.07-5.01-.163-1.073-.07-1.912-1.002-1.842-2.075.07-1.072 1.002-1.887 2.075-1.841a80.59 80.59 0 004.777.163 1.97 1.97 0 011.958 1.958 1.85 1.85 0 01-.862 1.632z" opacity=".3" fill="#91B3FA"/><path d="M92.613 365.641a1.01 1.01 0 001.096-.373l7.085-9.766a52.56 52.56 0 0016.967-1.654l8.834 8.227a.986.986 0 001.142.14l12.795-6.806c.373-.21.583-.606.513-1.025l-1.888-11.91a52.537 52.537 0 0010.814-13.168l12.073-.443c.42-.023.792-.303.909-.699l4.219-13.868a1.01 1.01 0 00-.373-1.095l-9.766-7.085a52.54 52.54 0 00-1.655-16.968l8.228-8.833a.986.986 0 00.139-1.142l-6.805-12.795c-.21-.373-.606-.583-1.026-.513l-11.909 1.888a52.545 52.545 0 00-13.169-10.815l-.442-12.072a1.002 1.002 0 00-.7-.909l-13.867-4.219a1.01 1.01 0 00-1.096.373l-7.085 9.765a52.59 52.59 0 00-16.967 1.655l-8.833-8.227a.985.985 0 00-1.142-.14l-12.796 6.806c-.373.209-.582.606-.512 1.025l1.888 11.91a52.534 52.534 0 00-10.815 13.168l-12.073.443c-.42.023-.792.303-.909.699l-4.218 13.868c-.117.396.023.839.373 1.095l9.765 7.085a52.554 52.554 0 001.655 16.968l-8.227 8.833a.985.985 0 00-.14 1.142l6.806 12.795c.21.373.605.583 1.025.513l11.91-1.888a52.541 52.541 0 0013.168 10.814l.443 12.073c.023.42.303.793.699.909l13.867 4.219z" fill="#91B3FA"/><path d="M112.448 315.019a14.61 14.61 0 01-8.95 2.47 14.656 14.656 0 01-10.255-4.848c-5.5-6.059-5.034-15.452 1.002-20.929 6.06-5.501 15.453-5.034 20.953 1.002 2.657 2.937 4.032 6.736 3.822 10.674a14.658 14.658 0 01-4.847 10.255c-.537.513-1.119.956-1.725 1.376zm-14.31-21.396c-.443.303-.863.629-1.26.979-4.45 4.032-4.777 10.954-.745 15.406a10.887 10.887 0 007.552 3.566c2.913.139 5.686-.863 7.854-2.821a10.792 10.792 0 003.566-7.551c.14-2.913-.863-5.71-2.82-7.854-3.683-4.032-9.719-4.685-14.147-1.725z" fill="#BDD0FB"/><path d="M124.869 333.035a36.656 36.656 0 01-3.216 1.934 36.18 36.18 0 01-6.969 2.844c-.116.023-.21.069-.326.093a1.957 1.957 0 01-2.168-.793 1.546 1.546 0 01-.256-.559 1.953 1.953 0 011.352-2.424c2.26-.629 4.451-1.538 6.502-2.634.117-.069.233-.116.35-.186a32.562 32.562 0 0011.84-11.001 33.84 33.84 0 003.775-8.041c0-.023.024-.046.024-.069l.07-.21c2.563-8.437 1.701-17.364-2.448-25.148a33.173 33.173 0 00-1.748-2.914c-4.218-6.292-10.418-10.884-17.759-13.121-8.437-2.564-17.364-1.702-25.125 2.447-7.761 4.149-13.471 11.071-16.035 19.508s-1.701 17.363 2.447 25.148c.536.979 1.096 1.957 1.725 2.866a32.81 32.81 0 0010.371 9.882c.257.164.467.35.63.583.42.606.466 1.422.046 2.098-.559.932-1.77 1.235-2.68.676-4.638-2.774-8.6-6.573-11.607-11.048a36.611 36.611 0 01-1.934-3.216c-4.638-8.694-5.617-18.692-2.75-28.131 2.867-9.44 9.23-17.177 17.946-21.815 8.693-4.638 18.692-5.617 28.131-2.751 8.204 2.494 15.149 7.645 19.881 14.684a37.693 37.693 0 011.957 3.263c8.95 16.85 3.496 37.617-12.026 48.035z" fill="#BDD0FB"/><path d="M476.43 637.793l-311.587 1.351c-25.637.117-46.683-18.202-47.429-41.252-3.38-102.457-11.77-401.551-10.605-499.113.21-16.758 15.056-30.415 33.655-30.975 72.367-2.19 246.422-5.99 327.296 4.965 17.037 2.307 29.809 15.195 30.439 30.694 3.426 85.839 14.496 406.446 12.469 503.961-.373 16.804-15.569 30.275-34.238 30.369z" fill="url(#paint1_linear_1119_6714)"/><path d="M464.265 612.598l-289.819 1.259c-14.66.07-26.639-10.325-26.919-23.33l-9.323-467.836c-.28-12.888 11.374-23.516 25.894-23.633l287.231-2.12c10.395-.07 18.926 7.225 19.229 16.454l14.31 480.328c.303 10.301-8.997 18.831-20.603 18.878z" fill="url(#paint2_linear_1119_6714)"/><path d="M303.554 91.23a6.387 6.387 0 10-4.89-11.801 6.387 6.387 0 004.89 11.8z" fill="#fff"/><path d="M550.358 589.945H180.574c-3.636 0-6.595-2.983-6.595-6.596v-30.741c0-3.636 2.983-6.596 6.595-6.596h369.784c3.636 0 6.596 2.983 6.596 6.596v30.718c0 3.636-2.96 6.619-6.596 6.619z" fill="url(#paint3_linear_1119_6714)"/><path d="M218.494 532.307v-58.756h10.931v49.177h15.149v9.556h-26.08v.023zm73.486-29.459c0 9.718-1.818 17.2-5.454 22.421-3.636 5.22-8.856 7.831-15.639 7.831-6.805 0-12.026-2.611-15.662-7.808-3.636-5.221-5.454-12.726-5.454-22.514 0-9.719 1.818-17.177 5.454-22.351 3.636-5.175 8.903-7.785 15.756-7.785 6.782 0 11.979 2.61 15.592 7.808 3.612 5.197 5.407 12.679 5.407 22.398zm-31.068 0c0 6.689.839 11.793 2.541 15.312 1.678 3.519 4.171 5.267 7.434 5.267 6.596 0 9.882-6.852 9.882-20.579 0-13.705-3.263-20.58-9.812-20.58-3.333 0-5.826 1.748-7.504 5.244-1.679 3.496-2.541 8.6-2.541 15.336zm67.426 29.459l-3.379-14.823h-15.313l-3.379 14.823h-10.931l14.543-58.989h14.823l14.59 58.989h-10.954zm-5.407-24.519l-3.123-13.657c-.186-.839-.606-2.914-1.259-6.246-.652-3.333-1.048-5.571-1.188-6.689-.35 2.307-.793 4.847-1.329 7.621-.536 2.773-1.934 9.113-4.172 18.995h11.071v-.024zm58.943-5.43c0 9.696-1.981 17.107-5.92 22.235-3.962 5.127-9.649 7.691-17.06 7.691H344.49v-58.756h15.709c6.829 0 12.143 2.517 15.942 7.575 3.822 5.08 5.733 12.166 5.733 21.255zm-11.21.327c0-13.122-3.613-19.695-10.861-19.695h-4.382v39.738h3.543c3.985 0 6.945-1.678 8.833-5.011 1.911-3.309 2.867-8.343 2.867-15.032zm21.744 29.622v-58.756h10.278v58.756h-10.278zm63.838 0h-13.332l-18.156-42.558h-.512c.675 3.24 1.002 6.736 1.002 10.442v32.116h-10.139v-58.756h13.425l17.993 42.115h.443c-.513-2.82-.77-6.153-.77-10.045v-32.07h10.046v58.756zm28.13-32.606h17.97v30.136c-5.081 2.167-10.511 3.263-16.245 3.263-6.829 0-12.096-2.588-15.778-7.785-3.683-5.197-5.524-12.679-5.524-22.468 0-9.439 2.121-16.804 6.339-22.141 4.219-5.337 10.115-7.994 17.69-7.994 4.685 0 9.16 1.212 13.425 3.612l-3.45 8.927c-3.333-1.935-6.432-2.89-9.322-2.89-4.149 0-7.435 1.864-9.859 5.57-2.424 3.706-3.636 8.764-3.636 15.173 0 6.596.886 11.63 2.634 15.149 1.748 3.52 4.311 5.267 7.644 5.267 1.772 0 3.566-.233 5.384-.675v-13.472h-7.272v-9.672z" fill="#fff"/><path d="M308.76 422.673c77.849 0 140.959-63.109 140.959-140.959 0-77.849-63.11-140.959-140.959-140.959-77.85 0-140.959 63.11-140.959 140.959 0 77.85 63.109 140.959 140.959 140.959z" fill="#91B3FA"/><path d="M308.76 414.516c73.345 0 132.802-59.458 132.802-132.802S382.105 148.913 308.76 148.913c-73.344 0-132.801 59.457-132.801 132.801s59.457 132.802 132.801 132.802z" fill="#fff"/><path opacity=".5" d="M318.175 275.234l112.432-3.053c-6.922-66.96-48.315-108.795-113.55-115.508l1.118 118.561z" fill="#91B3FA"/><path d="M297.176 396.291a108.935 108.935 0 01-21.885-4.172c-58.779-17.55-91.641-80.688-72.6-140.283 9.416-29.46 29.786-53.186 57.241-66.797a6.756 6.756 0 019.067 3.099c1.654 3.38.279 7.459-3.077 9.137-24.076 11.979-41.929 32.816-50.179 58.663-16.688 52.253 12.096 107.653 63.65 123.152 37.384 11.234 77.658-1.328 102.713-31.767 2.354-2.867 6.503-3.286 9.276-.932 2.75 2.354 3.077 6.596.723 9.462-23.61 28.738-59.153 43.514-94.929 40.438z" fill="#91B3FA"/><path d="M246.764 223.029l12.539-30.252-30.158-12.586 18.132-7.482 30.019 12.586-12.446 30.182-18.086 7.552z" fill="#91B3FA"/><path d="M315.075 280.176c0 4.498-3.473 8.204-7.761 8.297-4.289.093-7.785-3.496-7.785-7.994 0-4.499 3.496-8.228 7.785-8.298 4.288-.093 7.761 3.496 7.761 7.995z" fill="url(#paint4_linear_1119_6714)"/><path d="M307.198 221.35c-1.678.023-2.913.909-2.913 3.496l-.117 51.158c0 2.587 1.352 4.638 3.03 4.591 1.678-.046 3.03-2.191 3.03-4.754l-.117-51.089c0-2.563-1.258-3.426-2.913-3.402z" fill="url(#paint5_linear_1119_6714)"/><path d="M306.872 281.411c-.886-1.049-2.424-1.095-3.426-.14l-56.566 56.332c-1.025 1.003-1.095 2.657-.186 3.706s2.47 1.096 3.496.093l56.495-56.332c1.003-.979 1.096-2.61.187-3.659z" fill="url(#paint6_linear_1119_6714)"/><path d="M556.606 185.387l-1.212-1.049-.186-.186c-.327-.303-1.026-.956-2.051-1.795-.28-.233-.327-.652-.14-.979.209-.303.582-.373.862-.139.443.349.816.675 1.119.955a.648.648 0 01.466-.419c.326-.07.652.186.722.559.14.862.187 1.328.187 1.328l.233 1.725zm-1.515-6.759a1.043 1.043 0 01-.163.07c-.326.093-.653-.163-.746-.536-.28-1.445-.606-2.913-.956-4.382-.093-.373.117-.745.443-.839.327-.093.676.117.746.49.35 1.468.676 2.96.956 4.428.07.326-.047.629-.28.769zm-4.638 1.259a.527.527 0 01-.606-.024 40.311 40.311 0 00-3.519-2.12c-.303-.164-.443-.583-.303-.933.14-.349.512-.489.815-.326 1.212.629 2.424 1.375 3.613 2.168.303.186.396.629.21.955a.531.531 0 01-.21.28zm-7.318-3.823a.52.52 0 01-.49.047c-1.305-.466-2.587-.839-3.822-1.049-.326-.07-.559-.419-.513-.792.047-.373.373-.629.699-.583 1.306.233 2.657.606 4.009 1.096.326.116.513.512.396.862a.787.787 0 01-.279.419zm9.905-6.199c-.047.023-.07.046-.117.046-.326.117-.675-.093-.769-.466-.396-1.445-.792-2.89-1.235-4.288a.733.733 0 01.396-.886c.327-.116.676.07.793.443.443 1.422.862 2.89 1.235 4.335a.804.804 0 01-.303.816zm-17.876 4.801c-.093.047-.187.07-.28.093-.932.024-1.864.14-2.773.327-.397.093-.793.163-1.166.209-.326.047-.652-.209-.699-.582-.047-.373.186-.723.513-.793l1.119-.21a15.591 15.591 0 012.959-.349c.35-.023.63.28.63.676.023.279-.093.513-.303.629zm-13.961 7.272l-1.095.629c-.49-.839-1.166-1.352-2.308-1.748-.326-.116-.512-.489-.419-.862.093-.373.443-.583.769-.466.909.303 1.608.699 2.167 1.235a.593.593 0 01.606.419l.28.793zm5.943-6.386c-.093.046-.186.093-.303.093-1.515-.023-2.913-.256-4.148-.653-.327-.116-.513-.489-.42-.862.093-.373.443-.583.769-.466 1.142.373 2.424.559 3.823.583.349 0 .606.326.606.699-.024.279-.14.489-.327.606zm23.26-14.264c-.023.023-.046.023-.07.047-.326.139-.675-.047-.792-.397a170.04 170.04 0 00-1.515-4.171c-.14-.35 0-.746.326-.909.303-.164.676 0 .816.349a111.565 111.565 0 011.538 4.219c.094.326-.023.699-.303.862zm-31.277 16.524c-.024.024-.047.024-.07.047-.326.14-.676-.047-.793-.396-.559-1.655-1.048-3.077-1.421-4.265-.117-.35.046-.746.373-.886.326-.14.676.047.792.42.373 1.165.862 2.61 1.422 4.241.093.327-.024.676-.303.839zm-4.848 2.121a.576.576 0 01-.396.07c-1.189-.209-2.517-.466-4.009-.885-.326-.094-.536-.466-.443-.839.093-.373.42-.606.746-.513a43.92 43.92 0 003.916.862c.326.07.559.42.512.793a.633.633 0 01-.326.512zm5.291-7.015a.531.531 0 01-.676-.07c-1.189-1.049-1.888-2.167-2.308-2.843-.14-.21-.233-.373-.326-.49-.256-.256-.303-.722-.07-1.002.233-.28.583-.35.839-.07l.163.163c.117.14.257.35.42.63.419.652 1.025 1.631 2.074 2.563.256.233.303.676.093.979-.093.024-.14.093-.209.14zm27.618-19.927s-.023 0-.023.023c-.303.163-.676.023-.816-.326a101.087 101.087 0 00-1.631-3.543l-.21-.443c-.163-.326-.047-.745.233-.932.303-.186.676-.07.839.28l.233.466a128.347 128.347 0 011.655 3.589.775.775 0 01-.28.886zm-40.717 24.752a.561.561 0 01-.513.046 34.944 34.944 0 01-3.775-1.818c-.303-.163-.443-.582-.28-.932.14-.35.513-.489.816-.326a32.684 32.684 0 003.659 1.748c.326.14.489.536.373.885a.729.729 0 01-.28.397zm-7.271-3.963a.525.525 0 01-.606-.023c-.257-.163-.49-.349-.746-.513a25.833 25.833 0 01-2.634-2.097c-.256-.233-.303-.676-.093-.979.21-.303.606-.35.862-.117a25.687 25.687 0 002.517 2.005c.257.163.49.349.723.512.303.187.396.63.21.956-.047.117-.14.186-.233.256zm44.072-28.713a.59.59 0 01-.815-.233 72.263 72.263 0 00-2.238-3.73c-.209-.303-.14-.745.14-.955.28-.233.653-.163.863.163a96.845 96.845 0 012.284 3.799.75.75 0 01-.187.956c-.023-.024-.047 0-.047 0zm-50.342 23.05a.582.582 0 01-.746-.14 29.194 29.194 0 01-2.564-3.636c-.186-.326-.116-.746.164-.955.303-.21.676-.14.862.186.746 1.212 1.562 2.401 2.447 3.473a.746.746 0 01-.046.979c-.047.046-.07.07-.117.093zm45.611-30.392c-.256.163-.582.093-.769-.163a55.23 55.23 0 00-2.657-3.333c-.233-.28-.233-.723.023-.979a.59.59 0 01.886.023 58.472 58.472 0 012.727 3.403c.21.303.186.723-.07.979a.386.386 0 00-.14.07zm-50.132 22.91s-.024 0-.024.024c-.303.163-.676.023-.816-.327a37.361 37.361 0 01-1.514-4.288c-.094-.373.07-.746.396-.862.326-.117.676.093.769.442a31.01 31.01 0 001.468 4.126c.117.326 0 .722-.279.885zm44.492-29.389c-.21.14-.489.116-.699-.094a42.655 42.655 0 00-3.123-2.75.72.72 0 01-.14-.955c.21-.303.583-.373.862-.163a39.915 39.915 0 013.217 2.843.776.776 0 01.069.979c-.046.046-.116.093-.186.14zm-46.94 20.789a.26.26 0 01-.186.07c-.326.07-.653-.186-.723-.559-.163-1.002-.489-3.822-.256-4.801l.443-1.888c.093-.373.419-.583.746-.49.326.094.536.466.442.839l-.442 1.958c-.024.35-.047 1.888.303 4.149.023.303-.094.582-.327.722zm40.368-26.033a.571.571 0 01-.606 0 33.504 33.504 0 00-3.566-1.981.739.739 0 01-.327-.909c.14-.35.49-.513.816-.35a38.59 38.59 0 013.683 2.051c.303.187.396.606.233.932-.047.117-.14.187-.233.257zm-7.412-3.59a.473.473 0 01-.466.047 31.406 31.406 0 00-3.846-1.072c-.326-.07-.559-.443-.489-.816.07-.373.396-.629.722-.559 1.352.28 2.681.652 3.986 1.119.326.116.513.489.419.862-.07.21-.186.35-.326.419zm-31.79 18.856c-.14.069-.303.116-.443.069-.326-.093-.536-.466-.443-.839l1.002-4.381c.093-.373.42-.583.746-.49.326.094.536.466.443.839l-1.002 4.382a.794.794 0 01-.303.42zm23.866-20.557c-.094.07-.233.093-.35.07a37.177 37.177 0 00-3.985-.163c-.35 0-.63-.303-.63-.676 0-.373.28-.699.606-.699a39.376 39.376 0 014.102.163c.35.023.583.373.56.746a.628.628 0 01-.303.559zm-21.839 11.77c-.139.07-.303.116-.442.07-.327-.093-.537-.466-.443-.839l1.002-4.382c.093-.373.419-.582.746-.489.326.093.536.466.443.839l-1.003 4.381c-.046.187-.163.35-.303.42zm13.775-11.677a.392.392 0 01-.233.07c-1.282.14-2.611.35-3.963.629-.326.07-.652-.186-.722-.559-.07-.373.163-.746.489-.792 1.375-.28 2.727-.49 4.056-.63.349-.046.652.233.676.63.046.256-.094.512-.303.652zm-7.948 1.585l-.14.07c-1.142.326-2.33.699-3.519 1.119a.556.556 0 01-.606.21c-.326-.094-.536-.467-.443-.839l.117-.49.326-.116a65.557 65.557 0 013.822-1.236c.327-.093.676.14.746.49.07.326-.07.652-.303.792z" fill="url(#paint7_linear_1119_6714)"/><path d="M488.574 137.539s1.492 19.997 14.707 20.37c13.238.373 26.663-2.937 30.974 2.074 0 0-9.485-37.78-43.443-29.064l-2.238 6.62z" fill="url(#paint8_linear_1119_6714)"/><path d="M451.167 143.318s-4.778 18.972-.49 23.61c4.079 4.428 42.069 17.9 45.751 19.205.164.07.35-.047.397-.21.536-1.492.419-3.193-.35-4.568-3.682-6.619-14.8-26.29-19.857-31.021-6.107-5.734-25.451-7.016-25.451-7.016z" fill="url(#paint9_linear_1119_6714)"/><path opacity=".68" d="M483.702 178.814a.394.394 0 01-.326.024c-.21-.07-20.907-7.878-29.693-11.607-1.562-.676-2.634-2.308-2.727-4.172-.163-3.589-.21-8.996.559-14.287.047-.256.233-.42.466-.373a.45.45 0 01.327.513c-.816 5.5-.699 11.187-.56 14.1.07 1.515.933 2.844 2.191 3.38 8.764 3.729 29.437 11.513 29.646 11.607.21.069.327.326.257.582.023.093-.047.163-.14.233z" fill="#fff"/><path d="M466.479 100.877s8.32-17.364 14.287-17.364c5.663 0 41.369 19.834 44.842 21.769.163.093.209.279.163.466-.536 1.491-1.678 2.61-3.077 3.006-6.759 1.911-26.966 7.412-33.538 6.876-7.971-.653-22.677-14.753-22.677-14.753z" fill="url(#paint10_linear_1119_6714)"/><path opacity=".68" d="M511.717 101.18a.42.42 0 01-.373.023c-.21-.116-19.904-10.581-28.527-14.706-1.235-.606-2.681-.327-3.683.722-1.911 1.981-5.523 5.99-8.344 10.581a.372.372 0 01-.559.117.468.468 0 01-.093-.63c2.867-4.637 6.526-8.716 8.46-10.72 1.212-1.282 3.007-1.609 4.545-.886 8.647 4.148 28.364 14.637 28.551 14.73.209.116.279.373.186.606a.363.363 0 01-.163.163z" fill="#fff"/><path d="M396.441 118.287c6.55 6.177 14.567 12.003 24.286 16.432 30.136 13.751 54.421 18.016 61.366 19.018 1.259.186 2.494-.443 3.24-1.585 5.873-9.02 9.556-19.042 11.094-30.042.28-2.075-.489-4.149-2.004-5.384-6.549-5.361-26.22-20.394-55.144-33.375-9.649-4.335-18.995-6.386-27.478-7.039-10.232 14.87-13.821 32.093-15.36 41.975z" fill="url(#paint11_linear_1119_6714)"/><path d="M411.801 76.335c-18.738-1.492-33.352 3.706-38.153 5.71-.932.396-1.375 1.585-.932 2.61 2.214 5.151 9.439 20.161 23.749 33.632 1.515-9.882 5.104-27.106 15.336-41.952z" fill="url(#paint12_linear_1119_6714)"/><path d="M434.152 91.182c7.807 3.542 11.397 14.007 8.017 23.4-3.379 9.392-12.469 14.147-20.3 10.604-7.808-3.543-11.397-14.007-8.017-23.4 3.379-9.392 12.469-14.147 20.3-10.604z" fill="url(#paint13_linear_1119_6714)"/><path d="M432.683 93.978c6.223 2.82 9.09 11.164 6.386 18.646-2.703 7.481-9.952 11.257-16.174 8.46-6.223-2.82-9.09-11.164-6.386-18.645 2.703-7.505 9.928-11.28 16.174-8.46z" fill="url(#paint14_linear_1119_6714)"/><path d="M422.265 116.073a.351.351 0 01-.442-.047c-3.357-3.053-4.522-8.437-2.844-13.121a11.838 11.838 0 011.725-3.217.365.365 0 01.559-.046.494.494 0 01.047.629 11.138 11.138 0 00-1.608 2.983c-1.562 4.312-.49 9.276 2.587 12.073.163.163.21.443.07.629-.024.047-.047.094-.094.117z" fill="#91B3FA"/><path d="M460.512 109.827c5.174 2.331 7.528 9.253 5.291 15.476-2.237 6.199-8.251 9.346-13.401 7.015-5.174-2.331-7.528-9.253-5.291-15.476 2.237-6.223 8.227-9.369 13.401-7.015z" fill="url(#paint15_linear_1119_6714)"/><path d="M459.535 111.668c4.125 1.865 6.013 7.388 4.218 12.329-1.795 4.941-6.572 7.435-10.674 5.571-4.126-1.865-6.013-7.388-4.219-12.329 1.771-4.942 6.573-7.435 10.675-5.571z" fill="url(#paint16_linear_1119_6714)"/><path d="M452.728 126.398a.352.352 0 01-.443-.046c-2.261-2.051-3.053-5.687-1.911-8.833a8.083 8.083 0 011.165-2.168.366.366 0 01.559-.047.494.494 0 01.047.63 7.916 7.916 0 00-1.025 1.911c-1.003 2.773-.327 5.99 1.678 7.808.163.163.209.442.07.629-.07.046-.094.093-.14.116z" fill="#91B3FA"/><path d="M569.189 524.592c-.466-.233-.676-.839-.49-1.375l.933-2.377c.209-.536.745-.769 1.212-.536.466.233.676.839.489 1.375l-.932 2.377a.974.974 0 01-.443.513.756.756 0 01-.769.023zm3.473-9.066c-.467-.21-.7-.839-.49-1.352.35-.955.723-1.911 1.072-2.89.187-.536.746-.792 1.212-.559.466.21.699.816.513 1.352-.35.955-.723 1.934-1.072 2.89a1.133 1.133 0 01-.443.536c-.256.116-.536.14-.792.023zm3.519-9.625c-.466-.21-.699-.816-.513-1.352.35-.956.676-1.935 1.026-2.89.186-.536.722-.793 1.212-.583.466.21.722.816.536 1.352-.35.979-.676 1.934-1.026 2.913a1.018 1.018 0 01-.466.56.982.982 0 01-.769 0zm3.379-9.673c-.489-.21-.722-.792-.536-1.328.327-.979.653-1.935.979-2.914.187-.536.699-.815 1.189-.606.489.21.722.793.559 1.329l-.979 2.937c-.093.256-.256.466-.466.559-.256.093-.513.116-.746.023zm3.17-9.765c-.489-.187-.746-.793-.559-1.329l.909-2.936c.163-.536.699-.839 1.188-.653.49.186.746.769.583 1.329l-.909 2.936a.995.995 0 01-.466.583.843.843 0 01-.746.07zm3.007-9.812c-.49-.187-.746-.77-.583-1.306.28-.978.583-1.957.862-2.96.163-.536.676-.839 1.166-.675.489.163.745.769.606 1.305-.28.979-.56 1.981-.863 2.96a.967.967 0 01-.466.606c-.233.116-.489.163-.722.07zm2.796-9.906c-.489-.163-.769-.746-.629-1.282.256-1.002.536-1.981.793-2.983.139-.559.652-.862 1.142-.699.489.163.769.746.629 1.282-.257 1.002-.513 2.004-.793 2.983a.962.962 0 01-.489.629.788.788 0 01-.653.07zm2.564-9.975c-.489-.14-.792-.722-.652-1.282.233-1.002.489-2.004.722-3.006.14-.56.629-.886 1.142-.746.49.14.793.722.653 1.258a135.28 135.28 0 01-.723 3.007.956.956 0 01-.489.652c-.187.164-.42.187-.653.117zm2.331-10.045c-.49-.14-.816-.699-.676-1.259l.629-3.006c.117-.56.606-.909 1.119-.769.489.116.816.675.699 1.235-.21 1.002-.419 2.027-.629 3.03-.07.326-.257.559-.49.699-.233.116-.442.14-.652.07zm2.027-10.115c-.512-.117-.815-.676-.722-1.236.186-1.002.373-2.027.536-3.029.093-.56.583-.933 1.095-.816.513.116.84.652.723 1.212-.186 1.025-.35 2.028-.536 3.053a1.05 1.05 0 01-.513.722c-.163.117-.373.14-.583.094zm1.749-10.185c-.513-.094-.84-.63-.77-1.189.164-1.025.303-2.051.443-3.053.07-.56.56-.956 1.049-.862.513.093.862.629.769 1.188-.14 1.026-.303 2.051-.443 3.077a1.031 1.031 0 01-.512.769c-.164.07-.35.116-.536.07zm1.375-10.255c-.513-.07-.863-.583-.793-1.166.117-1.025.233-2.051.326-3.076.047-.559.513-.979 1.026-.909.513.07.886.583.816 1.142-.117 1.025-.21 2.074-.327 3.1-.046.373-.233.652-.512.815-.164.07-.35.117-.536.094zm1.025-10.325c-.513-.047-.886-.559-.839-1.119l.21-3.1c.023-.582.466-1.002.979-.955.512.046.885.536.862 1.095l-.21 3.123c-.023.373-.233.7-.512.839a.765.765 0 01-.49.117zm.583-10.372c-.513-.023-.909-.489-.886-1.072l.07-3.1c0-.582.42-1.025.932-1.025.513 0 .909.489.909 1.049l-.07 3.123c-.023.396-.233.746-.512.909a.637.637 0 01-.443.116zm.093-10.371c-.513.023-.932-.443-.956-1.026-.023-1.025-.046-2.074-.093-3.099-.023-.583.373-1.049.886-1.072.513-.024.932.419.955 1.002.047 1.049.07 2.097.094 3.123 0 .419-.21.792-.513.955a.644.644 0 01-.373.117zm-.42-10.372c-.512.047-.955-.372-1.002-.955-.07-1.026-.163-2.051-.256-3.077-.047-.559.326-1.072.839-1.142.513-.046.956.35 1.025.933.094 1.048.187 2.074.257 3.123.023.443-.187.839-.513 1.025a.965.965 0 01-.35.093zm-.978-10.324c-.513.093-.979-.303-1.049-.863-.117-.792-.21-1.561-.327-2.33a.927.927 0 01-.349-.513c-.163-.536.07-1.142.559-1.329a82.267 82.267 0 002.564-1.095c.466-.21 1.025.047 1.212.583.186.536-.047 1.142-.513 1.351-.536.257-1.095.49-1.631.723.116.769.233 1.538.326 2.331.07.466-.163.909-.513 1.095-.116 0-.186.023-.279.047zm6.805-7.738c-.233-.513-.047-1.142.396-1.399a50.684 50.684 0 002.401-1.468c.443-.28 1.002-.117 1.259.396.256.49.093 1.142-.35 1.422a88.54 88.54 0 01-2.471 1.515s-.023 0-.023.023c-.443.21-.979.024-1.212-.489zm7.971-5.268c-.303-.466-.21-1.118.21-1.445.746-.582 1.468-1.212 2.191-1.841.396-.349.978-.279 1.305.187a1.112 1.112 0 01-.163 1.468 44.128 44.128 0 01-2.261 1.888.494.494 0 01-.14.093.889.889 0 01-1.142-.35zm-21.605 12.12c-.909.28-1.818.536-2.727.769-.49.14-1.002-.21-1.119-.769-.116-.559.187-1.119.699-1.235.886-.233 1.795-.49 2.657-.746.49-.14 1.002.186 1.142.722.117.49-.093.979-.489 1.212a.433.433 0 00-.163.047zm28.807-18.645c-.35-.42-.35-1.073.023-1.469l.443-.489a33.28 33.28 0 001.468-1.702c.35-.419.932-.442 1.305-.046a1.13 1.13 0 01.047 1.468 53.512 53.512 0 01-1.515 1.771l-.466.49c-.07.07-.163.14-.233.186a.866.866 0 01-1.072-.209zm-37.99 20.789c-.932.163-1.865.303-2.797.42-.513.07-.979-.35-1.025-.909-.07-.56.303-1.096.815-1.142a55.825 55.825 0 002.727-.42c.513-.093.979.303 1.049.863.07.466-.163.885-.513 1.095a.818.818 0 01-.256.093zm14.334-11.467c-.49.14-1.003-.21-1.119-.769a70.516 70.516 0 00-.676-3.006c-.14-.56.163-1.119.652-1.259.49-.14 1.003.186 1.143.746.233 1.002.466 2.028.675 3.053.094.489-.116.956-.489 1.165-.047.024-.117.047-.186.07zm-23.657 12.493a111.6 111.6 0 01-2.82.093c-.513 0-.932-.443-.932-1.026 0-.582.396-1.048.909-1.048.909-.024 1.841-.047 2.75-.094.513-.023.956.42.979.979.023.42-.21.816-.513.979-.116.07-.233.093-.373.117zm53.536-29.507c-.42-.349-.49-1.002-.187-1.445a90.11 90.11 0 001.585-2.493c.28-.467.862-.606 1.282-.28.419.326.536.955.256 1.445a59.935 59.935 0 01-1.631 2.587.931.931 0 01-.35.326.953.953 0 01-.955-.14zm-62.905 29.46a57.178 57.178 0 01-2.797-.21c-.513-.046-.886-.559-.839-1.118.047-.583.49-1.003 1.002-.956.909.093 1.842.163 2.75.21.513.023.909.512.886 1.095-.023.396-.233.723-.513.886-.163.07-.326.093-.489.093zm67.939-38.153c-.443-.28-.629-.886-.396-1.398.419-.909.839-1.818 1.235-2.751.21-.512.769-.745 1.235-.489.466.256.653.862.443 1.375-.396.956-.839 1.911-1.259 2.82a.865.865 0 01-.419.443c-.256.163-.559.163-.839 0zm-37.361 15.685c-.489.187-1.002-.116-1.165-.652-.303-.979-.606-1.935-.909-2.914-.186-.536.07-1.142.559-1.328.49-.21 1.026.07 1.189.606.326.979.629 1.981.932 2.96.14.489-.07 1.049-.466 1.258-.047.047-.093.07-.14.07zm-39.877 21.396a111.55 111.55 0 01-2.774-.513c-.513-.093-.839-.652-.746-1.212.093-.559.583-.932 1.072-.839.909.187 1.818.35 2.727.513.513.093.863.606.769 1.189a1.031 1.031 0 01-.512.769.858.858 0 01-.536.093zm81.107-46.52c-.49-.187-.723-.793-.56-1.329a60.43 60.43 0 00.863-2.913c.163-.536.676-.862 1.165-.676.49.163.769.746.606 1.305a74.713 74.713 0 01-.909 3.007 1.068 1.068 0 01-.466.582.904.904 0 01-.699.024zm-90.29 44.446a52.657 52.657 0 01-2.704-.839c-.489-.164-.769-.746-.629-1.282.14-.56.652-.863 1.142-.699.886.279 1.771.559 2.657.815.489.14.792.699.676 1.259-.07.303-.257.559-.49.676-.209.093-.443.14-.652.07zm92.923-54.398c-.489-.117-.815-.676-.722-1.235.186-1.003.373-2.005.536-3.03.093-.56.559-.933 1.072-.839.513.093.839.629.746 1.212-.163 1.048-.35 2.074-.536 3.099-.07.327-.256.583-.513.723a.717.717 0 01-.583.07zM591.47 334.48c-.466.233-1.025 0-1.235-.513-.257-.629-.513-1.259-.793-1.888-.116-.303-.256-.582-.396-.885-.233-.513-.046-1.142.42-1.399.466-.256 1.002-.046 1.235.466.14.303.256.606.396.909.28.653.56 1.282.816 1.935a1.075 1.075 0 01-.443 1.375zm-54.724 25.824c-.886-.373-1.748-.793-2.61-1.212-.467-.233-.676-.839-.467-1.375.21-.536.746-.77 1.212-.536.839.419 1.678.792 2.541 1.165.466.21.722.816.536 1.352a1.02 1.02 0 01-.466.559.773.773 0 01-.746.047zm103.388-61.437c-.512-.046-.885-.559-.839-1.119.07-1.025.14-2.051.187-3.076.023-.583.466-1.002.979-.979.512.023.909.513.885 1.096a70.768 70.768 0 01-.209 3.146c-.024.373-.233.699-.513.839-.163.07-.326.093-.49.093zm-54.164 26.034c-.466-.886-.979-1.748-1.469-2.587-.279-.49-.163-1.119.257-1.445.419-.327 1.002-.187 1.282.279.512.886 1.025 1.772 1.514 2.657.257.49.117 1.119-.302 1.422-.024.023-.047.023-.07.047a.854.854 0 01-1.212-.373zm-57.708 30.858a44.636 44.636 0 01-2.4-1.678c-.42-.327-.536-.956-.257-1.445.28-.49.863-.606 1.282-.303a41.42 41.42 0 002.331 1.608c.443.28.583.932.326 1.422a.986.986 0 01-.396.419.816.816 0 01-.886-.023zm112.245-67.263c-.512.023-.932-.443-.955-1.002-.024-1.026-.07-2.051-.117-3.077-.023-.583.35-1.072.863-1.095.512-.047.955.396.978.979.047 1.048.094 2.097.117 3.146 0 .419-.21.792-.513.955-.116.047-.233.07-.373.094zm-119.913 61.11c-.722-.699-1.398-1.445-2.074-2.191-.35-.396-.35-1.072 0-1.468.373-.397.956-.397 1.305 0a42.67 42.67 0 001.981 2.097c.373.373.42 1.026.07 1.469a1.411 1.411 0 01-.279.256.857.857 0 01-1.003-.163zm60.108-33.096a87.644 87.644 0 00-1.771-2.354c-.326-.442-.303-1.095.093-1.468a.867.867 0 011.305.093c.63.793 1.212 1.608 1.818 2.424a1.134 1.134 0 01-.139 1.468.504.504 0 01-.187.117c-.373.21-.839.117-1.119-.28zm59.129-38.386c-.512.07-.978-.326-1.048-.885-.14-1.026-.28-2.028-.42-3.054-.093-.559.257-1.095.746-1.212.513-.093.979.28 1.072.839.163 1.026.303 2.075.443 3.124.046.466-.163.885-.513 1.072a.481.481 0 01-.28.116zm-125.553 63.558a38.85 38.85 0 01-1.515-2.727c-.256-.49-.093-1.142.35-1.422.443-.28 1.002-.117 1.258.396.443.886.933 1.748 1.422 2.564.28.466.187 1.119-.256 1.445-.047.023-.07.047-.117.07-.396.256-.885.116-1.142-.326zm60.225-32.7a174.424 174.424 0 00-2.028-2.074c-.396-.373-.419-1.026-.093-1.468.326-.443.932-.49 1.305-.094.699.7 1.398 1.399 2.098 2.121.373.397.396 1.049.046 1.469a.942.942 0 01-.279.233.859.859 0 01-1.049-.187zm63.627-41.066c-.489.14-1.002-.187-1.119-.746a111.328 111.328 0 00-.722-2.96c-.14-.559.14-1.119.629-1.282.49-.163 1.002.163 1.142.699.257 1.003.513 2.028.746 3.03.116.49-.093.979-.49 1.189-.069.047-.116.07-.186.07zm-70.689 34.587a52.57 52.57 0 00-2.284-1.701c-.443-.303-.56-.956-.28-1.445.28-.49.839-.63 1.282-.327.792.56 1.585 1.142 2.354 1.748.419.327.513.979.233 1.445a.934.934 0 01-.35.327.772.772 0 01-.955-.047zm-56.239 30.322c-.49.186-1.002-.093-1.189-.653a45.908 45.908 0 01-.816-3.076c-.116-.559.187-1.119.676-1.259.49-.139 1.002.187 1.119.746.21.979.489 1.958.769 2.914.163.512-.046 1.048-.466 1.258-.023.047-.047.047-.093.07zm124.224-74.838c-.489.21-1.025-.07-1.188-.606-.326-.955-.676-1.911-1.026-2.866-.209-.537.024-1.142.49-1.352.466-.233 1.025.023 1.212.559a74.42 74.42 0 011.049 2.913c.163.513-.024 1.073-.467 1.306-.023.023-.046.046-.07.046zm-75.84 39.342a50.126 50.126 0 00-2.493-1.259c-.466-.233-.699-.839-.49-1.351.21-.536.746-.77 1.212-.56.863.42 1.725.863 2.587 1.305.466.257.653.863.42 1.399-.093.21-.257.373-.42.489-.256.093-.536.117-.816-.023zm-50.389 25.381c-.512.023-.955-.42-.978-.979a36.693 36.693 0 010-3.216c.023-.583.466-1.026.978-.979.513.023.909.513.886 1.095a32.08 32.08 0 000 3.007c.023.419-.21.816-.513.979a1.106 1.106 0 01-.373.093zm41.906-29.04a34.376 34.376 0 00-2.657-.746c-.49-.117-.816-.676-.699-1.235.116-.56.606-.909 1.118-.793a61.4 61.4 0 012.751.769c.489.164.769.723.629 1.282a.959.959 0 01-.49.653c-.209.116-.442.163-.652.07zm79.382-45.635a93.712 93.712 0 00-1.305-2.703c-.256-.49-.093-1.142.35-1.422.443-.28 1.002-.117 1.258.396.467.909.909 1.841 1.352 2.774.233.512.07 1.142-.396 1.398 0 0-.023 0-.023.023-.466.233-1.002.047-1.236-.466zm-120.518 64.373c-.49-.163-.77-.745-.63-1.305.28-1.025.606-2.051 1.002-3.03.21-.536.746-.769 1.212-.536.467.233.676.839.49 1.375-.35.909-.653 1.842-.909 2.82a.97.97 0 01-.49.63.96.96 0 01-.675.046zm32.209-20.51a36.032 36.032 0 00-2.726-.116c-.513 0-.933-.466-.933-1.049s.42-1.049.933-1.025c.955 0 1.911.046 2.843.116.513.047.886.536.862 1.096a1.05 1.05 0 01-.512.862.822.822 0 01-.467.116zm-28.201 11.211c-.396-.373-.442-1.026-.14-1.468a27.22 27.22 0 011.958-2.378c.373-.396.956-.396 1.305.024.35.419.35 1.072-.023 1.468a26.819 26.819 0 00-1.818 2.191c-.093.116-.186.21-.303.28-.303.186-.676.163-.979-.117zm19.158-10.768c-.885.163-1.794.373-2.657.583-.489.14-1.002-.21-1.118-.769-.117-.56.186-1.119.676-1.259a53.794 53.794 0 012.796-.629c.513-.093.979.303 1.073.862.069.466-.164.909-.513 1.096a.62.62 0 01-.257.116zm-12.306 3.869c-.256-.489-.093-1.142.35-1.421a44.73 44.73 0 012.541-1.469c.466-.233 1.025 0 1.235.513.21.513 0 1.142-.466 1.375-.816.42-1.632.886-2.401 1.375-.023.023-.047.023-.07.023-.396.257-.932.07-1.189-.396zm104.95-56.985a91.196 91.196 0 00-1.561-2.54c-.303-.466-.21-1.119.21-1.445a.855.855 0 011.282.233c.536.862 1.072 1.725 1.584 2.587.28.466.164 1.119-.256 1.445-.047.023-.07.047-.116.07-.373.233-.886.093-1.143-.35zm-5.453-8.25a88.205 88.205 0 00-1.772-2.354c-.326-.443-.303-1.096.094-1.469a.867.867 0 011.305.094c.606.792 1.212 1.585 1.818 2.4.326.443.256 1.096-.14 1.469a1.317 1.317 0 01-.187.139.85.85 0 01-1.118-.279zm-6.153-7.645l-1.958-2.167c-.373-.397-.373-1.049-.023-1.469.349-.419.932-.419 1.305-.023a89.467 89.467 0 012.004 2.214c.35.42.35 1.072 0 1.469-.07.093-.163.139-.256.186a.862.862 0 01-1.072-.21zm-6.759-6.992a86.375 86.375 0 00-2.121-1.981c-.396-.349-.466-1.025-.14-1.468.326-.443.909-.513 1.305-.163.723.652 1.445 1.328 2.168 2.004.396.373.443 1.026.116 1.468-.093.117-.186.21-.303.257-.326.209-.722.163-1.025-.117zm-7.225-6.363a85.159 85.159 0 00-2.261-1.771c-.42-.326-.536-.979-.233-1.445.28-.466.862-.583 1.282-.256a54.763 54.763 0 012.284 1.818c.419.326.513.979.21 1.445a.939.939 0 01-.35.326.861.861 0 01-.932-.117zm-7.668-5.71c-.793-.536-1.585-1.072-2.377-1.585-.443-.279-.583-.932-.327-1.421.257-.49.816-.653 1.259-.373.816.536 1.608 1.072 2.4 1.608.443.303.583.932.303 1.422a.928.928 0 01-.396.396c-.256.163-.582.14-.862-.047zm-8.018-5.081a51.791 51.791 0 00-2.47-1.398c-.466-.256-.653-.886-.42-1.398.233-.513.793-.723 1.236-.466.839.466 1.678.932 2.493 1.421.443.257.63.886.397 1.399a.868.868 0 01-.42.442c-.233.14-.536.14-.816 0zm-8.297-4.498c-.839-.419-1.678-.839-2.54-1.235-.466-.233-.699-.839-.49-1.352.21-.536.746-.769 1.212-.559.863.396 1.725.816 2.564 1.235.466.233.676.839.466 1.375a.97.97 0 01-.443.513c-.233.14-.512.14-.769.023z" fill="url(#paint17_linear_1119_6714)"/><defs><linearGradient id="paint0_linear_1119_6714" x1="688.351" y1="648.661" x2="212.392" y2="232.198" gradientUnits="userSpaceOnUse"><stop stop-color="#DAE3FE"/><stop offset="1" stop-color="#E9EFFD"/></linearGradient><linearGradient id="paint1_linear_1119_6714" x1="183.914" y1="542.052" x2="506.537" y2="-3.006" gradientUnits="userSpaceOnUse"><stop stop-color="#09005D"/><stop offset="1" stop-color="#1A0F91"/></linearGradient><linearGradient id="paint2_linear_1119_6714" x1="614.494" y1="-243.134" x2="261.405" y2="457.158" gradientUnits="userSpaceOnUse"><stop stop-color="#4042E2"/><stop offset="1" stop-color="#4F52FF"/></linearGradient><linearGradient id="paint3_linear_1119_6714" x1="162.428" y1="572.5" x2="580.06" y2="563.185" gradientUnits="userSpaceOnUse"><stop stop-color="#FE7062"/><stop offset="1" stop-color="#FF928E"/></linearGradient><linearGradient id="paint4_linear_1119_6714" x1="359.287" y1="131.511" x2="269.399" y2="388.778" gradientUnits="userSpaceOnUse"><stop stop-color="#4042E2"/><stop offset="1" stop-color="#4F52FF"/></linearGradient><linearGradient id="paint5_linear_1119_6714" x1="359.502" y1="-23.213" x2="333.155" y2="114.719" gradientUnits="userSpaceOnUse"><stop stop-color="#4042E2"/><stop offset="1" stop-color="#4F52FF"/></linearGradient><linearGradient id="paint6_linear_1119_6714" x1="341.346" y1="-26.681" x2="315" y2="111.251" gradientUnits="userSpaceOnUse"><stop stop-color="#4042E2"/><stop offset="1" stop-color="#4F52FF"/></linearGradient><linearGradient id="paint7_linear_1119_6714" x1="615.483" y1="-34.24" x2="564.339" y2="70.371" gradientUnits="userSpaceOnUse"><stop stop-color="#FF928E"/><stop offset="1" stop-color="#FEB3B1"/></linearGradient><linearGradient id="paint8_linear_1119_6714" x1="480.635" y1="134.558" x2="555.026" y2="164.004" gradientUnits="userSpaceOnUse"><stop stop-color="#FE7062"/><stop offset="1" stop-color="#FF928E"/></linearGradient><linearGradient id="paint9_linear_1119_6714" x1="-718.867" y1="-2481.68" x2="-784.412" y2="-2627.68" gradientUnits="userSpaceOnUse"><stop stop-color="#FE7062"/><stop offset="1" stop-color="#FF928E"/></linearGradient><linearGradient id="paint10_linear_1119_6714" x1="-673.491" y1="-2502.06" x2="-739.036" y2="-2648.05" gradientUnits="userSpaceOnUse"><stop stop-color="#FE7062"/><stop offset="1" stop-color="#FF928E"/></linearGradient><linearGradient id="paint11_linear_1119_6714" x1="369.883" y1="-100.427" x2="417.152" y2="35.18" gradientUnits="userSpaceOnUse"><stop stop-color="#FF928E"/><stop offset="1" stop-color="#FEB3B1"/></linearGradient><linearGradient id="paint12_linear_1119_6714" x1="-751.481" y1="-2467.04" x2="-817.026" y2="-2613.04" gradientUnits="userSpaceOnUse"><stop stop-color="#FE7062"/><stop offset="1" stop-color="#FF928E"/></linearGradient><linearGradient id="paint13_linear_1119_6714" x1="586.971" y1="-1747.89" x2="597.755" y2="-1873.8" gradientUnits="userSpaceOnUse"><stop stop-color="#FE7062"/><stop offset="1" stop-color="#FF928E"/></linearGradient><linearGradient id="paint14_linear_1119_6714" x1="422.384" y1="120.887" x2="433.176" y2="94.174" gradientUnits="userSpaceOnUse"><stop stop-color="#09005D"/><stop offset="1" stop-color="#1A0F91"/></linearGradient><linearGradient id="paint15_linear_1119_6714" x1="616.307" y1="-1745.38" x2="627.091" y2="-1871.29" gradientUnits="userSpaceOnUse"><stop stop-color="#FE7062"/><stop offset="1" stop-color="#FF928E"/></linearGradient><linearGradient id="paint16_linear_1119_6714" x1="452.742" y1="129.445" x2="459.872" y2="111.797" gradientUnits="userSpaceOnUse"><stop stop-color="#09005D"/><stop offset="1" stop-color="#1A0F91"/></linearGradient><linearGradient id="paint17_linear_1119_6714" x1="826.836" y1="121.99" x2="712.151" y2="228.151" gradientUnits="userSpaceOnUse"><stop stop-color="#FF928E"/><stop offset="1" stop-color="#FEB3B1"/></linearGradient></defs></svg>