<svg width="100" height="97" fill="none" xmlns="http://www.w3.org/2000/svg"><path d="M50 33c-.17 0-.34-.037-.497-.11L29.67 23.555a1.168 1.168 0 010-2.112l19.833-9.333c.315-.148.679-.148.994 0l19.833 9.333a1.168 1.168 0 010 2.112l-19.833 9.333a1.166 1.166 0 01-.497.111zM32.907 22.5L50 30.544 67.093 22.5 50 14.456 32.907 22.5z" fill="#fff"/><path d="M50 56.862c-.255 0-.512-.059-.745-.176l-20-10.034a1.675 1.675 0 01-.922-1.497v-12.79c0-.571.292-1.105.774-1.41a1.665 1.665 0 011.601-.103L50 39.962l19.29-9.11a1.67 1.67 0 012.377 1.514v12.789c0 .634-.357 1.212-.922 1.497l-20 10.034c-.233.117-.49.176-.745.176zm-18.333-12.74L50 53.318l18.333-9.198V35L50.71 43.325c-.45.212-.97.212-1.42 0l-17.623-8.322v9.12z" fill="#fff"/><path d="M98.333 63.551H1.667A1.67 1.67 0 010 61.88V6.691C0 3.002 2.992 0 6.668 0h86.664C97.008 0 100 3.002 100 6.691V61.88a1.67 1.67 0 01-1.667 1.672zm-95-3.344h93.334V6.69a3.343 3.343 0 00-3.335-3.346H6.668c-1.84 0-3.335 1.5-3.335 3.346v53.516z" fill="#fff"/><path d="M93.332 76.93H6.668c-3.676 0-6.668-3-6.668-6.69v-8.36a1.67 1.67 0 011.667-1.673h96.666c.92 0 1.667.749 1.667 1.672v8.36c0 3.69-2.992 6.692-6.668 6.692zM3.333 63.552v6.689a3.343 3.343 0 003.335 3.346h86.664c1.84 0 3.335-1.5 3.335-3.346v-6.688H3.333z" fill="#fff"/><path d="M55 70.241H45a1.67 1.67 0 01-1.667-1.672A1.67 1.67 0 0145 66.896h10c.92 0 1.667.75 1.667 1.673A1.67 1.67 0 0155 70.24zm36.667-6.689H8.333a1.67 1.67 0 01-1.666-1.673V8.362A1.67 1.67 0 018.333 6.69h83.334c.92 0 1.666.75 1.666 1.672V61.88a1.67 1.67 0 01-1.666 1.673zM10 60.207h80V10.035H10v50.172zM71.667 97H28.333c-2.756 0-5-2.251-5-5.017 0-2.766 2.244-5.017 5-5.017h43.334c2.756 0 5 2.25 5 5.017 0 2.766-2.244 5.017-5 5.017zm-43.334-6.69a1.672 1.672 0 000 3.345h43.334a1.672 1.672 0 000-3.345H28.333z" fill="#fff"/><path d="M68.333 90.31H31.667A1.67 1.67 0 0130 88.638a1.67 1.67 0 011.667-1.673c5.53 0 8.333-3.938 8.333-11.707a1.67 1.67 0 011.667-1.672h16.666c.92 0 1.667.75 1.667 1.672 0 7.769 2.803 11.707 8.333 11.707.92 0 1.667.75 1.667 1.673a1.67 1.67 0 01-1.667 1.672zm-28.548-3.345h20.432c-2.054-2.28-3.262-5.678-3.504-10.034H43.288c-.243 4.356-1.45 7.753-3.503 10.034z" fill="#fff"/></svg>